<?xml version="1.0" encoding="utf-8" standalone="no"?>
<!DOCTYPE svg PUBLIC "-//W3C//DTD SVG 1.1//EN"
  "http://www.w3.org/Graphics/SVG/1.1/DTD/svg11.dtd">
<!-- Created with matplotlib (https://matplotlib.org/) -->
<svg height="273.495625pt" version="1.1" viewBox="0 0 723.7 273.495625" width="723.7pt" xmlns="http://www.w3.org/2000/svg" xmlns:xlink="http://www.w3.org/1999/xlink">
 <defs>
  <style type="text/css">
*{stroke-linecap:butt;stroke-linejoin:round;}
  </style>
 </defs>
 <g id="figure_1">
  <g id="patch_1">
   <path d="M 0 273.495625 
L 723.7 273.495625 
L 723.7 0 
L 0 0 
z
" style="fill:#ffffff;"/>
  </g>
  <g id="axes_1">
   <g id="patch_2">
    <path d="M 41.3 247.1175 
L 710.9 247.1175 
L 710.9 25.3575 
L 41.3 25.3575 
z
" style="fill:#ffffff;"/>
   </g>
   <g id="matplotlib.axis_1">
    <g id="xtick_1">
     <g id="line2d_1">
      <defs>
       <path d="M 0 0 
L 0 6 
" id="m1af60d949f" style="stroke:#000000;"/>
      </defs>
      <g>
       <use style="stroke:#000000;" x="41.3" xlink:href="#m1af60d949f" y="247.1175"/>
      </g>
     </g>
     <g id="text_1">
      <!-- $\mathdefault{2^{-7}}$ -->
      <defs>
       <path d="M 19.1875 8.296875 
L 53.609375 8.296875 
L 53.609375 0 
L 7.328125 0 
L 7.328125 8.296875 
Q 12.9375 14.109375 22.625 23.890625 
Q 32.328125 33.6875 34.8125 36.53125 
Q 39.546875 41.84375 41.421875 45.53125 
Q 43.3125 49.21875 43.3125 52.78125 
Q 43.3125 58.59375 39.234375 62.25 
Q 35.15625 65.921875 28.609375 65.921875 
Q 23.96875 65.921875 18.8125 64.3125 
Q 13.671875 62.703125 7.8125 59.421875 
L 7.8125 69.390625 
Q 13.765625 71.78125 18.9375 73 
Q 24.125 74.21875 28.421875 74.21875 
Q 39.75 74.21875 46.484375 68.546875 
Q 53.21875 62.890625 53.21875 53.421875 
Q 53.21875 48.921875 51.53125 44.890625 
Q 49.859375 40.875 45.40625 35.40625 
Q 44.1875 33.984375 37.640625 27.21875 
Q 31.109375 20.453125 19.1875 8.296875 
z
" id="DejaVuSans-50"/>
       <path d="M 4.890625 31.390625 
L 31.203125 31.390625 
L 31.203125 23.390625 
L 4.890625 23.390625 
z
" id="DejaVuSans-45"/>
       <path d="M 8.203125 72.90625 
L 55.078125 72.90625 
L 55.078125 68.703125 
L 28.609375 0 
L 18.3125 0 
L 43.21875 64.59375 
L 8.203125 64.59375 
z
" id="DejaVuSans-55"/>
      </defs>
      <g transform="translate(34.4 264.215937)scale(0.1 -0.1)">
       <use transform="translate(0 0.684375)" xlink:href="#DejaVuSans-50"/>
       <use transform="translate(64.580078 38.965625)scale(0.7)" xlink:href="#DejaVuSans-45"/>
       <use transform="translate(89.838867 38.965625)scale(0.7)" xlink:href="#DejaVuSans-55"/>
      </g>
     </g>
    </g>
    <g id="xtick_2">
     <g id="line2d_2">
      <g>
       <use style="stroke:#000000;" x="152.9" xlink:href="#m1af60d949f" y="247.1175"/>
      </g>
     </g>
     <g id="text_2">
      <!-- $\mathdefault{2^{-5}}$ -->
      <defs>
       <path d="M 10.796875 72.90625 
L 49.515625 72.90625 
L 49.515625 64.59375 
L 19.828125 64.59375 
L 19.828125 46.734375 
Q 21.96875 47.46875 24.109375 47.828125 
Q 26.265625 48.1875 28.421875 48.1875 
Q 40.625 48.1875 47.75 41.5 
Q 54.890625 34.8125 54.890625 23.390625 
Q 54.890625 11.625 47.5625 5.09375 
Q 40.234375 -1.421875 26.90625 -1.421875 
Q 22.3125 -1.421875 17.546875 -0.640625 
Q 12.796875 0.140625 7.71875 1.703125 
L 7.71875 11.625 
Q 12.109375 9.234375 16.796875 8.0625 
Q 21.484375 6.890625 26.703125 6.890625 
Q 35.15625 6.890625 40.078125 11.328125 
Q 45.015625 15.765625 45.015625 23.390625 
Q 45.015625 31 40.078125 35.4375 
Q 35.15625 39.890625 26.703125 39.890625 
Q 22.75 39.890625 18.8125 39.015625 
Q 14.890625 38.140625 10.796875 36.28125 
z
" id="DejaVuSans-53"/>
      </defs>
      <g transform="translate(146 264.215937)scale(0.1 -0.1)">
       <use transform="translate(0 0.684375)" xlink:href="#DejaVuSans-50"/>
       <use transform="translate(64.580078 38.965625)scale(0.7)" xlink:href="#DejaVuSans-45"/>
       <use transform="translate(89.838867 38.965625)scale(0.7)" xlink:href="#DejaVuSans-53"/>
      </g>
     </g>
    </g>
    <g id="xtick_3">
     <g id="line2d_3">
      <g>
       <use style="stroke:#000000;" x="264.5" xlink:href="#m1af60d949f" y="247.1175"/>
      </g>
     </g>
     <g id="text_3">
      <!-- $\mathdefault{2^{-3}}$ -->
      <defs>
       <path d="M 40.578125 39.3125 
Q 47.65625 37.796875 51.625 33 
Q 55.609375 28.21875 55.609375 21.1875 
Q 55.609375 10.40625 48.1875 4.484375 
Q 40.765625 -1.421875 27.09375 -1.421875 
Q 22.515625 -1.421875 17.65625 -0.515625 
Q 12.796875 0.390625 7.625 2.203125 
L 7.625 11.71875 
Q 11.71875 9.328125 16.59375 8.109375 
Q 21.484375 6.890625 26.8125 6.890625 
Q 36.078125 6.890625 40.9375 10.546875 
Q 45.796875 14.203125 45.796875 21.1875 
Q 45.796875 27.640625 41.28125 31.265625 
Q 36.765625 34.90625 28.71875 34.90625 
L 20.21875 34.90625 
L 20.21875 43.015625 
L 29.109375 43.015625 
Q 36.375 43.015625 40.234375 45.921875 
Q 44.09375 48.828125 44.09375 54.296875 
Q 44.09375 59.90625 40.109375 62.90625 
Q 36.140625 65.921875 28.71875 65.921875 
Q 24.65625 65.921875 20.015625 65.03125 
Q 15.375 64.15625 9.8125 62.3125 
L 9.8125 71.09375 
Q 15.4375 72.65625 20.34375 73.4375 
Q 25.25 74.21875 29.59375 74.21875 
Q 40.828125 74.21875 47.359375 69.109375 
Q 53.90625 64.015625 53.90625 55.328125 
Q 53.90625 49.265625 50.4375 45.09375 
Q 46.96875 40.921875 40.578125 39.3125 
z
" id="DejaVuSans-51"/>
      </defs>
      <g transform="translate(257.6 264.215937)scale(0.1 -0.1)">
       <use transform="translate(0 0.765625)" xlink:href="#DejaVuSans-50"/>
       <use transform="translate(64.580078 39.046875)scale(0.7)" xlink:href="#DejaVuSans-45"/>
       <use transform="translate(89.838867 39.046875)scale(0.7)" xlink:href="#DejaVuSans-51"/>
      </g>
     </g>
    </g>
    <g id="xtick_4">
     <g id="line2d_4">
      <g>
       <use style="stroke:#000000;" x="376.1" xlink:href="#m1af60d949f" y="247.1175"/>
      </g>
     </g>
     <g id="text_4">
      <!-- $\mathdefault{2^{-1}}$ -->
      <defs>
       <path d="M 12.40625 8.296875 
L 28.515625 8.296875 
L 28.515625 63.921875 
L 10.984375 60.40625 
L 10.984375 69.390625 
L 28.421875 72.90625 
L 38.28125 72.90625 
L 38.28125 8.296875 
L 54.390625 8.296875 
L 54.390625 0 
L 12.40625 0 
z
" id="DejaVuSans-49"/>
      </defs>
      <g transform="translate(369.2 264.215937)scale(0.1 -0.1)">
       <use transform="translate(0 0.684375)" xlink:href="#DejaVuSans-50"/>
       <use transform="translate(64.580078 38.965625)scale(0.7)" xlink:href="#DejaVuSans-45"/>
       <use transform="translate(89.838867 38.965625)scale(0.7)" xlink:href="#DejaVuSans-49"/>
      </g>
     </g>
    </g>
    <g id="xtick_5">
     <g id="line2d_5">
      <g>
       <use style="stroke:#000000;" x="487.7" xlink:href="#m1af60d949f" y="247.1175"/>
      </g>
     </g>
     <g id="text_5">
      <!-- $\mathdefault{2^{1}}$ -->
      <g transform="translate(482.1 264.215937)scale(0.1 -0.1)">
       <use transform="translate(0 0.684375)" xlink:href="#DejaVuSans-50"/>
       <use transform="translate(64.580078 38.965625)scale(0.7)" xlink:href="#DejaVuSans-49"/>
      </g>
     </g>
    </g>
    <g id="xtick_6">
     <g id="line2d_6">
      <g>
       <use style="stroke:#000000;" x="599.3" xlink:href="#m1af60d949f" y="247.1175"/>
      </g>
     </g>
     <g id="text_6">
      <!-- $\mathdefault{2^{3}}$ -->
      <g transform="translate(593.7 264.215937)scale(0.1 -0.1)">
       <use transform="translate(0 0.765625)" xlink:href="#DejaVuSans-50"/>
       <use transform="translate(64.580078 39.046875)scale(0.7)" xlink:href="#DejaVuSans-51"/>
      </g>
     </g>
    </g>
    <g id="xtick_7">
     <g id="line2d_7">
      <g>
       <use style="stroke:#000000;" x="710.9" xlink:href="#m1af60d949f" y="247.1175"/>
      </g>
     </g>
     <g id="text_7">
      <!-- $\mathdefault{2^{5}}$ -->
      <g transform="translate(705.3 264.215937)scale(0.1 -0.1)">
       <use transform="translate(0 0.684375)" xlink:href="#DejaVuSans-50"/>
       <use transform="translate(64.580078 38.965625)scale(0.7)" xlink:href="#DejaVuSans-53"/>
      </g>
     </g>
    </g>
   </g>
   <g id="matplotlib.axis_2">
    <g id="ytick_1">
     <g id="line2d_8">
      <defs>
       <path d="M 0 0 
L -6 0 
" id="m24f716d95f" style="stroke:#000000;"/>
      </defs>
      <g>
       <use style="stroke:#000000;" x="41.3" xlink:href="#m24f716d95f" y="220.202029"/>
      </g>
     </g>
     <g id="text_8">
      <!-- $\mathdefault{10^{-14}}$ -->
      <defs>
       <path d="M 31.78125 66.40625 
Q 24.171875 66.40625 20.328125 58.90625 
Q 16.5 51.421875 16.5 36.375 
Q 16.5 21.390625 20.328125 13.890625 
Q 24.171875 6.390625 31.78125 6.390625 
Q 39.453125 6.390625 43.28125 13.890625 
Q 47.125 21.390625 47.125 36.375 
Q 47.125 51.421875 43.28125 58.90625 
Q 39.453125 66.40625 31.78125 66.40625 
z
M 31.78125 74.21875 
Q 44.046875 74.21875 50.515625 64.515625 
Q 56.984375 54.828125 56.984375 36.375 
Q 56.984375 17.96875 50.515625 8.265625 
Q 44.046875 -1.421875 31.78125 -1.421875 
Q 19.53125 -1.421875 13.0625 8.265625 
Q 6.59375 17.96875 6.59375 36.375 
Q 6.59375 54.828125 13.0625 64.515625 
Q 19.53125 74.21875 31.78125 74.21875 
z
" id="DejaVuSans-48"/>
       <path d="M 37.796875 64.3125 
L 12.890625 25.390625 
L 37.796875 25.390625 
z
M 35.203125 72.90625 
L 47.609375 72.90625 
L 47.609375 25.390625 
L 58.015625 25.390625 
L 58.015625 17.1875 
L 47.609375 17.1875 
L 47.609375 0 
L 37.796875 0 
L 37.796875 17.1875 
L 4.890625 17.1875 
L 4.890625 26.703125 
z
" id="DejaVuSans-52"/>
      </defs>
      <g transform="translate(7.2 224.001247)scale(0.1 -0.1)">
       <use transform="translate(0 0.684375)" xlink:href="#DejaVuSans-49"/>
       <use transform="translate(63.623047 0.684375)" xlink:href="#DejaVuSans-48"/>
       <use transform="translate(128.203125 38.965625)scale(0.7)" xlink:href="#DejaVuSans-45"/>
       <use transform="translate(153.461914 38.965625)scale(0.7)" xlink:href="#DejaVuSans-49"/>
       <use transform="translate(197.998047 38.965625)scale(0.7)" xlink:href="#DejaVuSans-52"/>
      </g>
     </g>
    </g>
    <g id="ytick_2">
     <g id="line2d_9">
      <g>
       <use style="stroke:#000000;" x="41.3" xlink:href="#m24f716d95f" y="181.472912"/>
      </g>
     </g>
     <g id="text_9">
      <!-- $\mathdefault{10^{-11}}$ -->
      <g transform="translate(7.2 185.272131)scale(0.1 -0.1)">
       <use transform="translate(0 0.684375)" xlink:href="#DejaVuSans-49"/>
       <use transform="translate(63.623047 0.684375)" xlink:href="#DejaVuSans-48"/>
       <use transform="translate(128.203125 38.965625)scale(0.7)" xlink:href="#DejaVuSans-45"/>
       <use transform="translate(153.461914 38.965625)scale(0.7)" xlink:href="#DejaVuSans-49"/>
       <use transform="translate(197.998047 38.965625)scale(0.7)" xlink:href="#DejaVuSans-49"/>
      </g>
     </g>
    </g>
    <g id="ytick_3">
     <g id="line2d_10">
      <g>
       <use style="stroke:#000000;" x="41.3" xlink:href="#m24f716d95f" y="142.743796"/>
      </g>
     </g>
     <g id="text_10">
      <!-- $\mathdefault{10^{-8}}$ -->
      <defs>
       <path d="M 31.78125 34.625 
Q 24.75 34.625 20.71875 30.859375 
Q 16.703125 27.09375 16.703125 20.515625 
Q 16.703125 13.921875 20.71875 10.15625 
Q 24.75 6.390625 31.78125 6.390625 
Q 38.8125 6.390625 42.859375 10.171875 
Q 46.921875 13.96875 46.921875 20.515625 
Q 46.921875 27.09375 42.890625 30.859375 
Q 38.875 34.625 31.78125 34.625 
z
M 21.921875 38.8125 
Q 15.578125 40.375 12.03125 44.71875 
Q 8.5 49.078125 8.5 55.328125 
Q 8.5 64.0625 14.71875 69.140625 
Q 20.953125 74.21875 31.78125 74.21875 
Q 42.671875 74.21875 48.875 69.140625 
Q 55.078125 64.0625 55.078125 55.328125 
Q 55.078125 49.078125 51.53125 44.71875 
Q 48 40.375 41.703125 38.8125 
Q 48.828125 37.15625 52.796875 32.3125 
Q 56.78125 27.484375 56.78125 20.515625 
Q 56.78125 9.90625 50.3125 4.234375 
Q 43.84375 -1.421875 31.78125 -1.421875 
Q 19.734375 -1.421875 13.25 4.234375 
Q 6.78125 9.90625 6.78125 20.515625 
Q 6.78125 27.484375 10.78125 32.3125 
Q 14.796875 37.15625 21.921875 38.8125 
z
M 18.3125 54.390625 
Q 18.3125 48.734375 21.84375 45.5625 
Q 25.390625 42.390625 31.78125 42.390625 
Q 38.140625 42.390625 41.71875 45.5625 
Q 45.3125 48.734375 45.3125 54.390625 
Q 45.3125 60.0625 41.71875 63.234375 
Q 38.140625 66.40625 31.78125 66.40625 
Q 25.390625 66.40625 21.84375 63.234375 
Q 18.3125 60.0625 18.3125 54.390625 
z
" id="DejaVuSans-56"/>
      </defs>
      <g transform="translate(11.7 146.543014)scale(0.1 -0.1)">
       <use transform="translate(0 0.765625)" xlink:href="#DejaVuSans-49"/>
       <use transform="translate(63.623047 0.765625)" xlink:href="#DejaVuSans-48"/>
       <use transform="translate(128.203125 39.046875)scale(0.7)" xlink:href="#DejaVuSans-45"/>
       <use transform="translate(153.461914 39.046875)scale(0.7)" xlink:href="#DejaVuSans-56"/>
      </g>
     </g>
    </g>
    <g id="ytick_4">
     <g id="line2d_11">
      <g>
       <use style="stroke:#000000;" x="41.3" xlink:href="#m24f716d95f" y="104.014679"/>
      </g>
     </g>
     <g id="text_11">
      <!-- $\mathdefault{10^{-5}}$ -->
      <g transform="translate(11.7 107.813898)scale(0.1 -0.1)">
       <use transform="translate(0 0.684375)" xlink:href="#DejaVuSans-49"/>
       <use transform="translate(63.623047 0.684375)" xlink:href="#DejaVuSans-48"/>
       <use transform="translate(128.203125 38.965625)scale(0.7)" xlink:href="#DejaVuSans-45"/>
       <use transform="translate(153.461914 38.965625)scale(0.7)" xlink:href="#DejaVuSans-53"/>
      </g>
     </g>
    </g>
    <g id="ytick_5">
     <g id="line2d_12">
      <g>
       <use style="stroke:#000000;" x="41.3" xlink:href="#m24f716d95f" y="65.285563"/>
      </g>
     </g>
     <g id="text_12">
      <!-- $\mathdefault{10^{-2}}$ -->
      <g transform="translate(11.7 69.084782)scale(0.1 -0.1)">
       <use transform="translate(0 0.765625)" xlink:href="#DejaVuSans-49"/>
       <use transform="translate(63.623047 0.765625)" xlink:href="#DejaVuSans-48"/>
       <use transform="translate(128.203125 39.046875)scale(0.7)" xlink:href="#DejaVuSans-45"/>
       <use transform="translate(153.461914 39.046875)scale(0.7)" xlink:href="#DejaVuSans-50"/>
      </g>
     </g>
    </g>
    <g id="ytick_6">
     <g id="line2d_13">
      <g>
       <use style="stroke:#000000;" x="41.3" xlink:href="#m24f716d95f" y="26.556446"/>
      </g>
     </g>
     <g id="text_13">
      <!-- $\mathdefault{10^{1}}$ -->
      <g transform="translate(14.2 30.355665)scale(0.1 -0.1)">
       <use transform="translate(0 0.684375)" xlink:href="#DejaVuSans-49"/>
       <use transform="translate(63.623047 0.684375)" xlink:href="#DejaVuSans-48"/>
       <use transform="translate(128.203125 38.965625)scale(0.7)" xlink:href="#DejaVuSans-49"/>
      </g>
     </g>
    </g>
   </g>
   <g id="line2d_14">
    <path clip-path="url(#p6d975667d3)" d="M 41.3 35.468649 
L 59.156 35.514049 
L 70.316 35.569601 
L 79.244 35.642144 
L 88.172 35.725871 
L 90.404 35.752732 
L 98.216 35.84377 
L 106.028 35.967418 
L 109.376 36.035283 
L 117.188 36.204664 
L 131.696 36.541535 
L 138.392 36.769865 
L 145.088 36.979721 
L 151.784 37.21253 
L 171.872 38.052097 
L 174.104 38.22129 
L 180.8 38.563036 
L 191.96 39.164602 
L 193.076 39.301436 
L 194.192 39.259873 
L 197.54 39.53533 
L 207.584 40.121152 
L 208.7 40.245037 
L 210.932 40.314957 
L 212.048 40.461186 
L 213.164 40.488095 
L 215.396 40.736985 
L 218.744 40.946122 
L 234.368 42.115557 
L 235.484 42.269029 
L 237.716 42.318302 
L 238.832 42.51886 
L 243.296 42.796533 
L 244.412 42.950264 
L 246.644 43.076733 
L 261.152 44.330568 
L 264.5 44.609511 
L 294.632 47.485512 
L 295.748 47.741748 
L 296.864 47.677888 
L 299.096 47.927262 
L 301.328 48.173655 
L 304.676 48.630374 
L 306.908 48.822332 
L 308.024 49.052078 
L 312.488 49.359763 
L 313.604 49.69338 
L 314.72 49.656414 
L 315.836 49.887335 
L 316.952 49.91951 
L 319.184 50.408138 
L 322.532 50.59126 
L 323.648 50.706282 
L 324.764 51.053315 
L 325.88 50.92137 
L 326.996 51.082293 
L 328.112 51.426544 
L 329.228 51.579243 
L 330.344 51.570634 
L 332.576 51.988162 
L 333.692 51.976369 
L 337.04 52.425918 
L 339.272 52.906076 
L 340.388 52.782448 
L 341.504 52.867841 
L 342.62 53.319414 
L 344.852 53.304789 
L 345.968 53.33972 
L 347.084 53.798461 
L 348.2 53.888471 
L 350.432 54.336004 
L 351.548 54.461809 
L 352.664 54.453626 
L 353.78 54.670495 
L 354.896 54.650715 
L 356.012 55.163647 
L 357.128 55.063702 
L 358.244 55.325716 
L 360.476 55.496734 
L 361.592 55.947213 
L 363.824 55.750215 
L 366.056 56.574655 
L 368.288 56.628148 
L 369.404 56.750268 
L 370.52 57.119941 
L 372.752 57.523442 
L 373.868 57.646748 
L 376.1 57.709969 
L 377.216 58.159035 
L 378.332 58.001593 
L 379.448 58.099066 
L 380.564 58.73444 
L 381.68 58.885649 
L 382.796 58.843856 
L 383.912 59.125544 
L 385.028 59.065006 
L 387.26 59.714792 
L 388.376 59.911806 
L 389.492 59.825782 
L 390.608 60.107728 
L 391.724 60.257978 
L 392.84 60.614595 
L 397.304 61.274622 
L 398.42 61.429818 
L 399.536 61.446372 
L 400.652 61.661731 
L 401.768 62.095102 
L 402.884 62.015793 
L 406.232 62.494474 
L 407.348 62.981225 
L 409.58 63.060835 
L 411.812 63.93427 
L 412.928 63.633338 
L 415.16 64.236201 
L 416.276 64.144114 
L 417.392 64.175088 
L 418.508 64.776788 
L 419.624 64.622989 
L 421.856 65.242033 
L 422.972 65.104997 
L 424.088 65.247711 
L 425.204 65.530684 
L 426.32 65.582618 
L 428.552 66.45308 
L 429.668 66.255315 
L 430.784 66.562172 
L 431.9 66.592633 
L 433.016 66.904152 
L 434.132 66.763838 
L 440.828 67.90365 
L 443.06 68.173859 
L 444.176 68.062281 
L 445.292 68.177317 
L 446.408 68.515214 
L 447.524 68.256352 
L 448.64 68.405797 
L 450.872 68.924946 
L 453.104 69.30359 
L 454.22 69.304384 
L 455.336 69.546344 
L 456.452 69.347061 
L 457.568 69.572509 
L 458.684 69.470092 
L 462.032 69.516873 
L 463.148 69.23984 
L 464.264 69.100181 
L 465.38 69.171332 
L 467.612 68.780796 
L 468.728 68.971893 
L 469.844 68.416814 
L 470.96 68.551263 
L 472.076 68.387373 
L 473.192 67.680224 
L 474.308 67.596337 
L 475.424 67.023567 
L 476.54 67.127928 
L 477.656 66.765794 
L 478.772 66.640251 
L 479.888 66.010033 
L 481.004 66.272954 
L 482.12 66.342571 
L 483.236 66.929427 
L 484.352 67.918761 
L 487.7 69.535377 
L 488.816 69.311877 
L 489.932 69.287851 
L 491.048 68.139207 
L 492.164 68.216663 
L 493.28 68.023969 
L 495.512 68.292391 
L 496.628 68.693505 
L 497.744 68.776635 
L 498.86 69.328895 
L 501.092 69.563316 
L 502.208 69.397641 
L 503.324 69.597687 
L 504.44 69.510748 
L 505.556 69.964502 
L 507.788 69.303719 
L 508.904 69.168491 
L 510.02 68.899009 
L 511.136 69.019909 
L 512.252 69.410876 
L 514.484 69.852836 
L 515.6 70.613807 
L 516.716 71.144294 
L 518.948 72.829516 
L 520.064 72.841785 
L 521.18 73.060749 
L 522.296 73.425078 
L 523.412 73.115935 
L 524.528 72.928149 
L 525.644 72.592423 
L 527.876 71.407099 
L 528.992 72.168846 
L 531.224 71.415829 
L 532.34 70.329901 
L 533.456 69.797149 
L 534.572 70.089124 
L 535.688 68.924396 
L 536.804 69.209303 
L 537.92 70.323803 
L 540.152 71.959123 
L 541.268 72.64106 
L 542.384 72.975021 
L 544.616 72.605026 
L 546.848 72.335445 
L 547.964 72.159392 
L 549.08 73.025746 
L 550.196 73.140114 
L 552.428 72.187175 
L 553.544 71.783226 
L 554.66 72.357405 
L 555.776 72.769604 
L 558.008 72.69325 
L 559.124 73.773658 
L 562.472 72.940351 
L 563.588 72.454946 
L 564.704 71.665256 
L 565.82 71.098345 
L 566.936 72.273346 
L 568.052 72.092632 
L 569.168 71.071512 
L 570.284 72.123651 
L 571.4 73.60129 
L 572.516 74.745643 
L 573.632 75.190088 
L 574.748 74.886559 
L 575.864 75.214117 
L 576.98 75.173593 
L 578.096 74.610982 
L 579.212 74.452367 
L 580.328 74.527075 
L 581.444 73.988719 
L 582.56 73.123266 
L 583.676 73.294568 
L 584.792 73.208137 
L 585.908 74.577652 
L 587.024 74.710861 
L 588.14 74.440112 
L 590.372 73.555357 
L 591.488 72.673065 
L 592.604 73.170993 
L 593.72 72.530143 
L 594.836 73.542136 
L 595.952 73.507879 
L 598.184 74.36957 
L 599.3 74.59286 
L 601.532 72.676272 
L 602.648 71.816914 
L 603.764 71.625919 
L 604.88 71.155911 
L 605.996 71.86563 
L 607.112 71.219808 
L 609.344 71.695015 
L 610.46 70.735828 
L 611.576 71.409876 
L 612.692 72.80624 
L 613.808 73.441684 
L 614.924 74.683505 
L 616.04 75.180964 
L 617.156 73.856952 
L 618.272 73.065704 
L 619.388 71.517395 
L 620.504 70.995512 
L 621.62 71.723575 
L 622.736 71.482997 
L 623.852 72.193048 
L 624.968 71.915877 
L 626.084 72.504509 
L 627.2 72.41606 
L 629.432 74.719008 
L 630.548 75.481585 
L 631.664 73.728957 
L 632.78 73.232425 
L 633.896 69.96616 
L 635.012 68.697478 
L 636.128 69.806293 
L 637.244 70.119229 
L 638.36 71.826714 
L 639.476 74.359265 
L 640.592 73.244465 
L 641.708 72.390491 
L 642.824 71.933536 
L 643.94 70.254514 
L 645.056 73.532061 
L 646.172 72.395675 
L 647.288 72.834562 
L 648.404 72.011451 
L 649.52 75.005613 
L 650.636 74.173833 
L 651.752 71.940961 
L 652.868 72.165969 
L 653.984 71.123857 
L 655.1 72.552438 
L 656.216 72.852803 
L 657.332 69.177615 
L 658.448 70.226121 
L 659.564 72.933544 
L 660.68 73.041982 
L 661.796 71.558128 
L 662.912 73.709432 
L 664.028 71.842703 
L 665.144 72.815645 
L 666.26 72.020235 
L 667.376 72.623104 
L 668.492 72.607555 
L 669.608 70.348211 
L 670.724 69.637526 
L 671.84 72.406699 
L 672.956 72.666561 
L 674.072 71.118551 
L 675.188 71.065133 
L 676.304 72.337686 
L 677.42 71.982891 
L 678.536 73.446022 
L 679.652 73.293891 
L 680.768 73.782175 
L 681.884 71.882946 
L 683 68.665205 
L 684.116 73.572519 
L 685.232 73.586355 
L 686.348 74.170372 
L 687.464 71.049324 
L 688.58 72.773838 
L 689.696 68.077561 
L 690.812 68.151359 
L 691.928 72.104078 
L 693.044 71.68904 
L 694.16 71.773797 
L 695.276 75.038251 
L 696.392 73.653239 
L 697.508 75.269187 
L 698.624 73.543462 
L 699.74 72.297659 
L 700.856 73.550923 
L 701.972 71.814208 
L 703.088 71.50673 
L 704.204 69.644007 
L 705.32 74.100909 
L 706.436 73.870819 
L 707.552 70.984011 
L 708.668 69.951807 
L 709.784 71.58589 
L 710.9 73.589438 
L 712.016 74.017711 
L 713.132 70.412611 
L 714.248 70.264382 
L 715.364 71.632528 
L 716.48 73.978956 
L 717.596 71.525928 
L 718.712 75.462014 
L 719.828 74.249286 
L 720.944 71.240585 
L 722.06 69.650065 
L 723.176 73.008763 
L 724.7 71.810573 
L 724.7 71.810573 
" style="fill:none;stroke:#1f77b4;stroke-linecap:square;stroke-width:1.5;"/>
   </g>
   <g id="line2d_15">
    <path clip-path="url(#p6d975667d3)" d="M 41.3 35.4375 
L 47.996 35.536392 
L 84.824 35.967529 
L 89.288 36.061667 
L 93.752 36.132835 
L 101.564 36.338329 
L 122.768 36.99853 
L 126.116 37.155218 
L 128.348 37.213322 
L 131.696 37.36492 
L 157.364 38.646093 
L 170.756 39.478597 
L 174.104 39.672754 
L 177.452 39.86583 
L 179.684 40.078236 
L 183.032 40.33415 
L 185.264 40.395467 
L 191.96 40.949732 
L 194.192 41.113774 
L 196.424 41.242238 
L 203.12 41.787004 
L 204.236 41.773181 
L 205.352 41.959551 
L 207.584 42.084615 
L 208.7 42.285155 
L 210.932 42.326908 
L 212.048 42.561398 
L 224.324 43.565555 
L 226.556 43.807898 
L 227.672 43.800035 
L 229.904 44.105444 
L 232.136 44.295663 
L 234.368 44.52609 
L 238.832 44.919807 
L 241.064 45.142 
L 242.18 45.10822 
L 244.412 45.454207 
L 245.528 45.436272 
L 247.76 45.698136 
L 261.152 47.028615 
L 262.268 47.281197 
L 271.196 48.068074 
L 272.312 48.357044 
L 273.428 48.467347 
L 274.544 48.420114 
L 276.776 48.690848 
L 277.892 49.073371 
L 279.008 49.005445 
L 281.24 49.287956 
L 282.356 49.441391 
L 283.472 49.459337 
L 284.588 49.594646 
L 285.704 49.930596 
L 289.052 50.156663 
L 290.168 50.347716 
L 291.284 50.381117 
L 293.516 50.849627 
L 295.748 50.785249 
L 296.864 51.211682 
L 297.98 51.289112 
L 300.212 51.706224 
L 301.328 51.653614 
L 302.444 52.069402 
L 303.56 52.005092 
L 304.676 52.125229 
L 305.792 52.43227 
L 306.908 52.417487 
L 308.024 52.533019 
L 309.14 52.968714 
L 311.372 53.046157 
L 313.604 53.55802 
L 315.836 54.066463 
L 316.952 53.537239 
L 318.068 53.955153 
L 319.184 54.243051 
L 320.3 54.783425 
L 321.416 54.621343 
L 322.532 54.830171 
L 323.648 54.797604 
L 324.764 55.24107 
L 325.88 55.219814 
L 329.228 55.787416 
L 330.344 56.239573 
L 331.46 56.148977 
L 335.924 56.955883 
L 338.156 57.269107 
L 339.272 57.813925 
L 340.388 57.708976 
L 341.504 58.120426 
L 342.62 58.158676 
L 343.736 58.457905 
L 344.852 58.564824 
L 345.968 58.965903 
L 347.084 59.195145 
L 348.2 59.122964 
L 350.432 59.956078 
L 351.548 59.502959 
L 352.664 60.193464 
L 353.78 60.23489 
L 356.012 60.653368 
L 357.128 61.199096 
L 358.244 61.08631 
L 359.36 61.863324 
L 360.476 61.620335 
L 366.056 63.211089 
L 367.172 63.036641 
L 368.288 63.300134 
L 369.404 63.427789 
L 372.752 64.55012 
L 373.868 64.845488 
L 374.984 65.290344 
L 376.1 65.329765 
L 377.216 65.722224 
L 378.332 65.652054 
L 379.448 65.824619 
L 381.68 67.148113 
L 382.796 66.876366 
L 385.028 67.860798 
L 386.144 67.724822 
L 388.376 68.544732 
L 389.492 68.748001 
L 390.608 69.155095 
L 391.724 69.820068 
L 392.84 69.488505 
L 393.956 69.671542 
L 395.072 70.364279 
L 397.304 71.314799 
L 398.42 71.517815 
L 399.536 71.944173 
L 400.652 72.049783 
L 401.768 72.664038 
L 402.884 72.715203 
L 404 73.458195 
L 405.116 73.337556 
L 406.232 73.716603 
L 408.464 74.692986 
L 409.58 74.988083 
L 410.696 75.050451 
L 411.812 76.092384 
L 412.928 76.048882 
L 414.044 76.190808 
L 415.16 77.195588 
L 416.276 77.197029 
L 417.392 77.939377 
L 418.508 77.776817 
L 419.624 78.709089 
L 420.74 78.977461 
L 421.856 79.567071 
L 422.972 80.007771 
L 424.088 80.310015 
L 425.204 80.829924 
L 426.32 80.923223 
L 429.668 82.529601 
L 430.784 82.578371 
L 431.9 83.364969 
L 433.016 83.097489 
L 434.132 83.944042 
L 435.248 84.305618 
L 436.364 84.953242 
L 437.48 84.921687 
L 439.712 86.113357 
L 440.828 86.591489 
L 441.944 86.805708 
L 443.06 87.466516 
L 444.176 87.451375 
L 445.292 87.924216 
L 446.408 88.253521 
L 448.64 89.107635 
L 449.756 89.369146 
L 450.872 89.879755 
L 453.104 90.362218 
L 454.22 90.481185 
L 455.336 90.877598 
L 456.452 90.967039 
L 457.568 91.262605 
L 458.684 90.945394 
L 459.8 90.237321 
L 460.916 90.149945 
L 462.032 89.166028 
L 463.148 89.221078 
L 464.264 88.224487 
L 465.38 88.343584 
L 466.496 85.833255 
L 467.612 85.290033 
L 468.728 85.04847 
L 469.844 82.395506 
L 470.96 81.68346 
L 472.076 80.099274 
L 473.192 78.900676 
L 474.308 76.942657 
L 475.424 76.459034 
L 477.656 74.272715 
L 478.772 72.708909 
L 479.888 73.112364 
L 481.004 73.068879 
L 482.12 73.969661 
L 483.236 75.715223 
L 484.352 79.227099 
L 485.468 81.148805 
L 486.584 84.032048 
L 487.7 85.496711 
L 488.816 85.917393 
L 489.932 85.021153 
L 491.048 80.931669 
L 493.28 78.111718 
L 494.396 77.94841 
L 495.512 79.432257 
L 496.628 79.804428 
L 497.744 81.491142 
L 498.86 81.969476 
L 499.976 82.155233 
L 501.092 85.586153 
L 502.208 84.345363 
L 503.324 85.745697 
L 504.44 86.723692 
L 505.556 86.113842 
L 506.672 86.315781 
L 507.788 85.710233 
L 508.904 85.384497 
L 510.02 84.896722 
L 512.252 85.19115 
L 513.368 85.553822 
L 514.484 86.946237 
L 515.6 88.10707 
L 517.832 92.80754 
L 518.948 94.704213 
L 521.18 94.565648 
L 522.296 94.104305 
L 523.412 92.067926 
L 524.528 90.780602 
L 525.644 89.047597 
L 526.76 87.628529 
L 527.876 84.74476 
L 528.992 85.556231 
L 530.108 86.650655 
L 531.224 84.683976 
L 532.34 83.327721 
L 533.456 79.520422 
L 534.572 77.437956 
L 535.688 78.36992 
L 536.804 77.443389 
L 537.92 80.09582 
L 539.036 82.171228 
L 540.152 85.716285 
L 541.268 88.057431 
L 542.384 89.197773 
L 543.5 89.198593 
L 544.616 89.522195 
L 545.732 88.403213 
L 546.848 86.878533 
L 547.964 88.954618 
L 549.08 91.999067 
L 550.196 90.653314 
L 551.312 88.425504 
L 552.428 84.168214 
L 553.544 83.839102 
L 554.66 83.110401 
L 555.776 85.593895 
L 556.892 86.655173 
L 558.008 87.989478 
L 559.124 89.697885 
L 560.24 90.753444 
L 561.356 90.997879 
L 562.472 89.748808 
L 563.588 87.937817 
L 564.704 84.780413 
L 565.82 82.722357 
L 566.936 85.88811 
L 568.052 83.859182 
L 569.168 79.842871 
L 570.284 82.610751 
L 571.4 88.704974 
L 572.516 92.280904 
L 573.632 94.809307 
L 574.748 95.390711 
L 575.864 93.596213 
L 576.98 92.227058 
L 578.096 91.423903 
L 579.212 91.235084 
L 580.328 90.063191 
L 581.444 88.249387 
L 582.56 86.09467 
L 583.676 85.728388 
L 584.792 86.864199 
L 587.024 92.339762 
L 588.14 93.15467 
L 591.488 85.12096 
L 592.604 84.379887 
L 593.72 84.37692 
L 594.836 89.005819 
L 595.952 90.581734 
L 597.068 93.233981 
L 598.184 93.331427 
L 599.3 92.991885 
L 600.416 90.330279 
L 601.532 88.157335 
L 602.648 87.03529 
L 603.764 86.496966 
L 604.88 83.895702 
L 605.996 83.601069 
L 607.112 84.1077 
L 608.228 82.395601 
L 609.344 81.773639 
L 610.46 80.273882 
L 611.576 81.507001 
L 612.692 85.090219 
L 613.808 89.554285 
L 614.924 94.751673 
L 616.04 95.449419 
L 617.156 94.251557 
L 618.272 91.276274 
L 619.388 89.416048 
L 620.504 89.105309 
L 621.62 86.325264 
L 622.736 87.629836 
L 623.852 87.172263 
L 624.968 82.255457 
L 626.084 85.09148 
L 627.2 86.234507 
L 628.316 90.747306 
L 629.432 94.613885 
L 630.548 94.883995 
L 631.664 89.070182 
L 632.78 87.328263 
L 633.896 79.967059 
L 635.012 75.737859 
L 636.128 77.86165 
L 637.244 82.636939 
L 638.36 89.311474 
L 639.476 92.808213 
L 640.592 86.707572 
L 641.708 83.650359 
L 642.824 88.574056 
L 643.94 85.470799 
L 645.056 93.246993 
L 646.172 88.058099 
L 647.288 86.052386 
L 648.404 81.670786 
L 649.52 91.019935 
L 650.636 94.677413 
L 651.752 87.65998 
L 652.868 85.964416 
L 653.984 79.909177 
L 655.1 85.599927 
L 656.216 87.139186 
L 657.332 77.010248 
L 658.448 81.267285 
L 659.564 90.154272 
L 660.68 92.572346 
L 661.796 90.341466 
L 662.912 91.415156 
L 664.028 81.241646 
L 665.144 86.487752 
L 666.26 81.591484 
L 667.376 85.958142 
L 668.492 88.551642 
L 670.724 84.186261 
L 671.84 91.770558 
L 672.956 88.446873 
L 674.072 81.128551 
L 675.188 82.323682 
L 676.304 87.2898 
L 678.536 91.988864 
L 679.652 92.059912 
L 680.768 85.093962 
L 681.884 87.506835 
L 683 76.460791 
L 684.116 88.782823 
L 685.232 94.862071 
L 686.348 91.585331 
L 687.464 82.764899 
L 688.58 91.303714 
L 689.696 73.915906 
L 690.812 80.25098 
L 691.928 85.119814 
L 693.044 85.902917 
L 694.16 83.116367 
L 695.276 94.158242 
L 696.392 84.335119 
L 697.508 92.023055 
L 698.624 86.160831 
L 699.74 87.028622 
L 700.856 91.071406 
L 701.972 84.082075 
L 703.088 82.129546 
L 704.204 76.634319 
L 705.32 91.732882 
L 706.436 93.21545 
L 707.552 84.40192 
L 708.668 81.029126 
L 709.784 83.962147 
L 710.9 91.751508 
L 712.016 93.711161 
L 713.132 80.664986 
L 714.248 86.057771 
L 715.364 86.975203 
L 716.48 93.207012 
L 717.596 80.390355 
L 718.712 92.729355 
L 719.828 90.48634 
L 720.944 90.867019 
L 722.06 78.876725 
L 723.176 90.839167 
L 724.292 85.589494 
L 724.7 86.873752 
L 724.7 86.873752 
" style="fill:none;stroke:#ff7f0e;stroke-linecap:square;stroke-width:1.5;"/>
   </g>
   <g id="line2d_16">
    <path clip-path="url(#p6d975667d3)" d="M 41.3 35.615817 
L 47.996 35.664976 
L 60.272 35.890686 
L 71.432 36.041413 
L 74.78 36.152811 
L 83.708 36.299962 
L 118.304 37.504824 
L 147.32 39.083018 
L 149.552 39.240324 
L 155.132 39.610148 
L 171.872 40.774027 
L 178.568 41.301795 
L 212.048 44.086805 
L 213.164 44.26569 
L 214.28 44.279151 
L 217.628 44.631807 
L 218.744 44.696318 
L 219.86 44.927435 
L 220.976 44.841712 
L 224.324 45.318928 
L 225.44 45.238177 
L 226.556 45.499484 
L 227.672 45.503589 
L 229.904 45.883071 
L 231.02 45.783258 
L 232.136 46.077565 
L 236.6 46.500028 
L 237.716 46.415142 
L 239.948 46.822204 
L 241.064 46.983228 
L 243.296 47.064697 
L 245.528 47.329277 
L 247.76 47.690277 
L 248.876 47.778134 
L 249.992 47.698391 
L 251.108 48.043736 
L 252.224 48.000008 
L 253.34 48.263979 
L 254.456 48.17211 
L 256.688 48.54395 
L 257.804 48.587879 
L 260.036 48.905179 
L 261.152 48.980939 
L 262.268 49.278287 
L 263.384 49.264515 
L 265.616 49.548381 
L 266.732 49.878773 
L 268.964 49.857188 
L 270.08 50.285424 
L 271.196 50.261986 
L 272.312 50.540724 
L 281.24 51.450171 
L 282.356 51.938159 
L 283.472 51.764956 
L 284.588 52.227551 
L 285.704 52.128887 
L 286.82 52.321997 
L 287.936 52.344093 
L 289.052 52.670746 
L 290.168 52.756159 
L 291.284 53.049054 
L 292.4 52.880961 
L 293.516 53.427418 
L 294.632 53.365302 
L 295.748 53.52776 
L 296.864 53.896992 
L 302.444 54.780041 
L 303.56 54.57475 
L 308.024 55.650868 
L 309.14 55.608056 
L 313.604 56.621913 
L 314.72 56.668258 
L 315.836 56.848376 
L 316.952 57.23337 
L 319.184 57.306532 
L 320.3 58.014317 
L 321.416 57.923769 
L 322.532 58.246866 
L 323.648 58.709938 
L 325.88 58.770051 
L 326.996 58.947056 
L 328.112 59.337238 
L 330.344 59.400134 
L 331.46 60.07464 
L 332.576 60.192642 
L 334.808 60.746715 
L 335.924 61.008624 
L 337.04 61.411124 
L 340.388 61.745225 
L 341.504 62.180864 
L 344.852 62.741182 
L 347.084 63.585802 
L 349.316 63.924985 
L 350.432 64.613842 
L 351.548 64.91128 
L 352.664 64.898763 
L 353.78 65.05039 
L 354.896 65.712667 
L 356.012 65.856607 
L 357.128 66.838155 
L 358.244 66.514319 
L 359.36 67.06376 
L 360.476 67.275173 
L 361.592 67.371935 
L 363.824 68.244422 
L 364.94 68.448171 
L 366.056 69.195428 
L 367.172 69.151616 
L 368.288 69.942548 
L 370.52 70.250835 
L 371.636 70.576337 
L 373.868 71.78886 
L 374.984 71.756985 
L 376.1 72.354019 
L 377.216 73.168454 
L 378.332 73.266867 
L 380.564 73.740051 
L 381.68 74.57286 
L 382.796 75.244426 
L 383.912 75.528221 
L 385.028 75.622409 
L 386.144 76.504034 
L 387.26 77.193575 
L 388.376 77.483921 
L 389.492 78.122926 
L 390.608 78.592976 
L 391.724 78.811748 
L 393.956 80.506031 
L 395.072 80.577586 
L 396.188 81.0066 
L 397.304 81.874274 
L 398.42 82.058384 
L 399.536 82.788611 
L 400.652 82.929045 
L 401.768 84.025684 
L 402.884 84.351804 
L 404 85.072916 
L 405.116 85.372268 
L 406.232 85.546559 
L 407.348 86.884398 
L 411.812 88.937182 
L 412.928 90.084369 
L 414.044 90.132454 
L 415.16 91.273964 
L 416.276 91.716351 
L 417.392 92.651596 
L 418.508 92.736821 
L 419.624 93.701088 
L 420.74 94.840153 
L 421.856 95.038841 
L 424.088 96.583141 
L 425.204 97.757805 
L 426.32 98.261962 
L 427.436 99.005527 
L 428.552 99.507563 
L 429.668 100.312963 
L 430.784 101.337156 
L 435.248 104.572451 
L 436.364 105.065496 
L 437.48 105.792402 
L 439.712 107.532345 
L 441.944 108.70453 
L 444.176 110.561251 
L 445.292 109.862021 
L 446.408 111.721003 
L 447.524 112.934063 
L 448.64 112.199463 
L 449.756 113.407339 
L 450.872 113.645046 
L 451.988 114.207359 
L 453.104 113.965584 
L 454.22 114.394066 
L 455.336 115.049242 
L 456.452 114.775178 
L 457.568 113.742246 
L 458.684 113.475053 
L 459.8 112.765746 
L 460.916 111.032688 
L 462.032 110.251437 
L 463.148 107.789766 
L 464.264 105.8267 
L 465.38 103.488071 
L 466.496 103.064976 
L 467.612 101.002239 
L 468.728 97.365242 
L 469.844 94.313766 
L 470.96 92.818931 
L 472.076 89.723529 
L 473.192 87.522657 
L 474.308 84.208384 
L 476.54 80.302752 
L 477.656 79.420609 
L 478.772 77.017026 
L 479.888 76.742507 
L 481.004 77.06538 
L 482.12 78.620431 
L 484.352 86.748231 
L 485.468 90.24085 
L 486.584 95.817956 
L 487.7 98.616394 
L 488.816 98.601242 
L 491.048 91.461203 
L 492.164 86.540288 
L 493.28 84.856407 
L 494.396 85.262099 
L 496.628 88.802481 
L 497.744 90.740463 
L 498.86 91.582713 
L 499.976 94.844875 
L 501.092 96.377918 
L 502.208 98.621875 
L 503.324 101.245486 
L 504.44 102.76131 
L 505.556 103.484142 
L 506.672 102.553708 
L 510.02 101.843911 
L 512.252 101.882726 
L 513.368 102.341233 
L 514.484 103.073535 
L 515.6 106.334016 
L 516.716 110.348992 
L 517.832 115.225974 
L 518.948 118.375706 
L 520.064 119.244189 
L 523.412 114.177855 
L 524.528 109.510758 
L 525.644 108.31888 
L 526.76 104.524857 
L 527.876 98.66015 
L 528.992 99.534355 
L 530.108 102.640723 
L 531.224 99.55695 
L 532.34 94.306673 
L 533.456 89.925274 
L 534.572 86.197845 
L 535.688 83.3814 
L 536.804 83.760174 
L 539.036 92.333193 
L 541.268 104.488898 
L 542.384 107.66626 
L 543.5 107.775742 
L 544.616 106.324682 
L 545.732 102.81961 
L 546.848 101.637795 
L 547.964 105.487483 
L 549.08 112.614075 
L 550.196 110.414329 
L 551.312 103.786243 
L 552.428 95.441438 
L 553.544 91.67289 
L 554.66 94.188083 
L 555.776 99.041917 
L 556.892 103.039424 
L 559.124 108.096557 
L 560.24 109.819878 
L 561.356 110.668694 
L 562.472 109.684692 
L 563.588 104.140533 
L 564.704 97.056948 
L 565.82 92.143644 
L 566.936 98.160626 
L 568.052 93.218068 
L 569.168 87.19895 
L 570.284 93.941888 
L 571.4 103.071814 
L 572.516 110.649684 
L 573.632 114.958985 
L 574.748 115.781049 
L 575.864 114.052611 
L 576.98 110.583052 
L 578.096 108.681581 
L 579.212 106.121599 
L 580.328 106.408402 
L 581.444 102.379447 
L 582.56 99.41536 
L 583.676 97.159189 
L 584.792 97.800078 
L 585.908 103.431449 
L 587.024 112.558313 
L 588.14 113.360854 
L 590.372 101.126814 
L 591.488 97.304356 
L 592.604 94.933127 
L 593.72 95.618782 
L 594.836 105.036077 
L 595.952 110.862745 
L 597.068 114.914252 
L 598.184 114.09486 
L 599.3 114.59535 
L 601.532 105.544685 
L 602.648 104.072307 
L 603.764 102.036065 
L 604.88 98.349937 
L 605.996 98.950843 
L 607.112 98.824106 
L 608.228 93.648795 
L 610.46 91.505345 
L 611.576 92.000916 
L 612.692 97.833494 
L 613.808 108.499787 
L 614.924 117.030019 
L 616.04 118.203455 
L 617.156 115.035114 
L 618.272 108.667448 
L 619.388 105.158141 
L 620.504 105.58869 
L 621.62 100.66033 
L 622.736 103.042896 
L 623.852 99.131548 
L 624.968 93.15162 
L 626.084 98.431627 
L 627.2 99.472063 
L 628.316 108.214218 
L 629.432 115.030375 
L 630.548 117.448262 
L 631.664 104.21594 
L 632.78 103.881707 
L 633.896 91.399172 
L 635.012 83.728733 
L 636.128 86.654668 
L 638.36 106.599212 
L 639.476 113.333987 
L 640.592 99.432716 
L 641.708 89.947004 
L 642.824 105.129302 
L 643.94 102.274526 
L 645.056 114.897044 
L 646.172 102.713625 
L 647.288 97.252448 
L 648.404 90.829299 
L 649.52 106.221393 
L 650.636 114.41481 
L 651.752 102.051946 
L 652.868 102.487009 
L 653.984 90.000235 
L 655.1 100.952466 
L 656.216 104.472147 
L 657.332 85.014355 
L 658.448 90.527439 
L 659.564 108.728487 
L 660.68 114.704268 
L 661.796 109.720155 
L 662.912 108.644751 
L 664.028 89.832341 
L 665.144 101.633431 
L 666.26 90.173039 
L 667.376 100.302701 
L 668.492 103.658474 
L 669.608 104.243256 
L 670.724 101.787451 
L 671.84 113.682924 
L 672.956 102.810536 
L 674.072 90.712363 
L 675.188 90.960224 
L 676.304 102.690901 
L 677.42 109.018606 
L 678.536 113.697276 
L 679.652 113.669586 
L 680.768 96.151995 
L 681.884 101.98767 
L 683 79.028941 
L 684.116 103.269378 
L 685.232 116.465859 
L 686.348 107.95725 
L 687.464 94.275021 
L 688.58 110.633919 
L 689.696 78.389837 
L 690.812 93.352522 
L 691.928 99.843822 
L 693.044 101.749419 
L 694.16 94.995309 
L 695.276 114.523267 
L 696.392 93.067659 
L 697.508 110.484297 
L 698.624 97.247816 
L 699.74 98.376565 
L 700.856 110.923502 
L 701.972 98.133294 
L 703.088 89.336031 
L 704.204 82.385947 
L 705.32 112.061738 
L 706.436 115.265655 
L 707.552 96.915729 
L 708.668 91.423493 
L 709.784 94.863561 
L 710.9 110.764196 
L 712.016 113.950516 
L 713.132 89.149788 
L 714.248 102.440463 
L 715.364 102.341272 
L 716.48 114.440346 
L 717.596 90.319868 
L 718.712 110.511416 
L 719.828 105.810523 
L 720.944 111.12551 
L 722.06 87.472919 
L 723.176 111.252392 
L 724.292 102.256936 
L 724.7 104.357019 
L 724.7 104.357019 
" style="fill:none;stroke:#2ca02c;stroke-linecap:square;stroke-width:1.5;"/>
   </g>
   <g id="line2d_17">
    <path clip-path="url(#p6d975667d3)" d="M 41.3 35.86077 
L 45.764 35.950705 
L 47.996 35.991469 
L 51.344 36.074069 
L 60.272 36.257313 
L 65.852 36.374942 
L 74.78 36.662041 
L 103.796 37.88642 
L 127.232 39.119424 
L 129.464 39.288495 
L 141.74 40.116603 
L 145.088 40.398397 
L 147.32 40.51916 
L 151.784 40.815877 
L 154.016 41.104306 
L 155.132 41.113736 
L 158.48 41.389543 
L 160.712 41.478037 
L 162.944 41.754096 
L 166.292 42.034471 
L 170.756 42.376825 
L 174.104 42.749975 
L 176.336 42.850972 
L 185.264 43.65662 
L 186.38 43.669238 
L 189.728 44.065247 
L 204.236 45.372772 
L 205.352 45.543967 
L 207.584 45.596387 
L 208.7 45.844334 
L 210.932 45.99015 
L 212.048 46.235807 
L 213.164 46.219486 
L 214.28 46.39352 
L 216.512 46.500669 
L 217.628 46.799051 
L 218.744 46.75312 
L 219.86 46.879613 
L 220.976 47.12084 
L 222.092 47.069562 
L 223.208 47.328104 
L 224.324 47.468696 
L 225.44 47.430547 
L 226.556 47.66109 
L 227.672 47.718348 
L 228.788 47.963218 
L 229.904 48.081535 
L 231.02 48.061931 
L 232.136 48.15933 
L 233.252 48.418973 
L 236.6 48.765746 
L 237.716 48.72146 
L 239.948 49.223585 
L 241.064 49.203488 
L 243.296 49.613555 
L 245.528 49.710987 
L 247.76 50.146978 
L 249.992 50.221998 
L 251.108 50.535747 
L 252.224 50.617914 
L 253.34 50.578338 
L 262.268 51.954567 
L 263.384 52.249023 
L 264.5 52.329908 
L 265.616 52.663112 
L 266.732 52.468809 
L 267.848 52.856551 
L 270.08 53.240322 
L 271.196 53.211913 
L 272.312 53.612547 
L 274.544 53.785023 
L 275.66 54.16825 
L 276.776 54.105006 
L 277.892 54.310033 
L 279.008 54.290366 
L 280.124 54.521345 
L 281.24 54.980856 
L 282.356 54.995013 
L 283.472 55.259724 
L 284.588 55.327461 
L 285.704 55.661956 
L 286.82 55.797201 
L 289.052 56.555166 
L 290.168 56.257143 
L 293.516 56.989305 
L 294.632 57.442853 
L 295.748 57.323794 
L 296.864 57.860909 
L 297.98 57.74254 
L 299.096 58.118524 
L 305.792 59.517886 
L 308.024 60.304568 
L 309.14 60.195684 
L 310.256 60.563837 
L 311.372 61.08066 
L 312.488 61.089243 
L 313.604 61.302123 
L 314.72 61.224529 
L 315.836 61.846781 
L 316.952 61.717049 
L 318.068 62.223012 
L 319.184 62.481341 
L 320.3 63.132558 
L 321.416 63.292134 
L 322.532 63.190813 
L 323.648 64.047866 
L 324.764 63.79152 
L 325.88 64.07652 
L 328.112 65.456888 
L 329.228 65.370085 
L 330.344 65.428769 
L 331.46 66.13399 
L 332.576 66.152699 
L 337.04 67.799859 
L 338.156 68.076978 
L 339.272 68.548734 
L 340.388 68.631313 
L 341.504 69.267611 
L 342.62 69.728653 
L 343.736 70.481914 
L 344.852 70.268866 
L 345.968 70.943931 
L 347.084 71.049303 
L 349.316 72.149043 
L 350.432 72.555819 
L 351.548 73.172755 
L 352.664 73.319369 
L 353.78 73.799736 
L 354.896 74.418471 
L 358.244 75.798058 
L 359.36 76.498802 
L 361.592 77.657084 
L 363.824 78.800852 
L 364.94 79.355439 
L 366.056 79.710422 
L 367.172 80.774493 
L 368.288 81.471486 
L 369.404 81.834837 
L 370.52 82.529419 
L 371.636 82.990881 
L 372.752 83.608469 
L 373.868 84.713063 
L 374.984 85.032479 
L 376.1 85.576998 
L 377.216 86.625369 
L 378.332 87.295816 
L 379.448 88.10704 
L 380.564 88.402946 
L 382.796 90.449169 
L 383.912 90.866239 
L 385.028 91.894707 
L 387.26 93.590367 
L 388.376 93.802456 
L 389.492 95.455026 
L 390.608 96.078655 
L 391.724 96.859276 
L 392.84 97.904519 
L 393.956 98.499401 
L 395.072 99.718889 
L 397.304 101.690568 
L 398.42 102.919298 
L 399.536 103.332934 
L 400.652 104.977091 
L 401.768 105.575344 
L 402.884 106.342437 
L 405.116 108.531963 
L 406.232 109.976869 
L 408.464 111.701172 
L 409.58 112.952807 
L 410.696 114.849936 
L 411.812 115.35686 
L 417.392 121.454325 
L 418.508 122.431407 
L 419.624 124.263529 
L 420.74 125.580336 
L 421.856 126.446395 
L 424.088 129.778054 
L 426.32 131.895384 
L 428.552 134.930827 
L 429.668 136.330004 
L 430.784 137.535045 
L 431.9 138.487434 
L 433.016 140.976726 
L 434.132 141.455437 
L 435.248 140.521977 
L 436.364 144.250395 
L 437.48 145.089434 
L 438.596 144.122326 
L 439.712 146.623461 
L 440.828 149.460526 
L 441.944 147.420042 
L 443.06 145.069141 
L 444.176 146.51724 
L 445.292 156.402215 
L 446.408 153.085398 
L 447.524 150.468665 
L 448.64 151.715293 
L 449.756 156.929276 
L 450.872 152.17172 
L 451.988 157.536404 
L 453.104 152.413125 
L 454.22 153.421826 
L 455.336 160.099871 
L 456.452 154.417561 
L 457.568 151.797624 
L 458.684 152.97134 
L 459.8 149.800891 
L 460.916 148.166435 
L 462.032 146.001392 
L 463.148 142.566176 
L 464.264 138.052201 
L 465.38 134.15732 
L 468.728 120.949978 
L 469.844 117.268139 
L 470.96 112.301776 
L 472.076 107.992635 
L 474.308 98.181108 
L 476.54 90.244504 
L 477.656 87.494555 
L 479.888 83.987247 
L 481.004 85.198273 
L 482.12 87.473938 
L 483.236 92.814437 
L 484.352 100.179915 
L 485.468 109.907027 
L 486.584 118.231586 
L 487.7 122.137629 
L 488.816 123.435514 
L 489.932 116.621409 
L 491.048 107.505609 
L 492.164 102.363029 
L 493.28 98.683347 
L 494.396 99.161643 
L 495.512 100.105242 
L 496.628 104.068964 
L 497.744 106.977861 
L 498.86 111.468546 
L 501.092 119.31731 
L 502.208 124.429778 
L 503.324 130.064207 
L 504.44 133.868733 
L 505.556 136.768159 
L 507.788 134.808467 
L 510.02 134.061289 
L 511.136 133.167238 
L 512.252 132.889006 
L 513.368 133.668196 
L 514.484 136.652203 
L 515.6 141.550194 
L 517.832 159.569141 
L 518.948 165.24218 
L 520.064 166.737969 
L 521.18 163.542527 
L 522.296 159.912142 
L 523.412 155.501063 
L 524.528 147.553244 
L 525.644 145.397764 
L 526.76 137.236613 
L 527.876 125.386456 
L 528.992 128.357026 
L 530.108 134.470505 
L 531.224 128.31604 
L 532.34 118.178499 
L 533.456 106.545517 
L 535.688 95.513985 
L 536.804 96.643226 
L 537.92 103.213302 
L 541.268 135.091167 
L 542.384 142.770135 
L 543.5 142.914813 
L 544.616 138.333186 
L 545.732 131.716483 
L 546.848 128.480419 
L 547.964 138.057185 
L 549.08 152.046168 
L 550.196 150.257519 
L 552.428 116.927255 
L 553.544 111.228575 
L 554.66 113.987063 
L 555.776 125.864452 
L 556.892 136.543754 
L 558.008 141.237846 
L 559.124 144.426986 
L 560.24 147.126345 
L 561.356 149.239634 
L 562.472 148.753457 
L 564.704 119.645067 
L 565.82 109.958789 
L 566.936 121.472621 
L 568.052 114.713737 
L 569.168 101.837647 
L 570.284 115.210898 
L 572.516 146.43687 
L 573.632 154.494669 
L 574.748 154.963256 
L 575.864 151.329735 
L 576.98 144.945617 
L 578.096 140.421954 
L 579.212 138.070678 
L 580.328 134.705921 
L 581.444 129.483114 
L 582.56 122.253149 
L 583.676 118.040359 
L 584.792 121.403011 
L 585.908 132.43009 
L 587.024 151.574986 
L 588.14 152.927954 
L 590.372 127.909767 
L 591.488 123.228678 
L 592.604 117.950964 
L 593.72 117.775848 
L 594.836 134.818093 
L 595.952 146.434427 
L 597.068 156.335586 
L 598.184 154.177539 
L 599.3 153.843424 
L 601.532 138.958802 
L 602.648 138.725339 
L 603.764 134.950951 
L 604.88 127.816241 
L 605.996 126.520005 
L 607.112 126.721902 
L 608.228 116.541052 
L 609.344 114.864477 
L 610.46 107.939855 
L 611.576 112.058878 
L 612.692 125.892705 
L 614.924 163.05749 
L 616.04 162.610691 
L 617.156 155.420019 
L 618.272 143.649155 
L 619.388 138.342266 
L 620.504 134.965781 
L 621.62 127.641092 
L 622.736 131.104764 
L 623.852 124.146422 
L 624.968 111.537621 
L 626.084 123.17766 
L 627.2 124.665205 
L 628.316 140.05093 
L 629.432 153.202586 
L 630.548 158.435969 
L 631.664 134.033741 
L 632.78 135.323464 
L 633.896 114.495275 
L 635.012 99.829522 
L 636.128 104.519295 
L 637.244 124.562783 
L 638.36 140.546061 
L 639.476 151.85045 
L 640.592 125.127657 
L 641.708 105.656267 
L 642.824 140.035569 
L 643.94 134.556117 
L 645.056 155.722645 
L 646.172 129.782368 
L 647.288 120.536031 
L 648.404 107.580766 
L 649.52 136.175868 
L 650.636 154.201716 
L 651.752 132.484311 
L 652.868 134.053769 
L 653.984 107.501011 
L 655.1 130.611673 
L 656.216 137.749874 
L 657.332 96.636159 
L 658.448 108.282978 
L 659.564 144.891194 
L 660.68 156.108201 
L 661.796 146.152377 
L 662.912 140.558977 
L 664.028 105.763663 
L 665.144 125.157284 
L 666.26 105.986279 
L 667.376 125.165412 
L 668.492 133.314107 
L 669.608 138.689073 
L 670.724 136.672704 
L 671.84 158.110095 
L 672.956 130.71233 
L 674.072 107.691741 
L 675.188 110.913852 
L 676.304 132.484491 
L 677.42 147.608891 
L 678.536 157.0622 
L 679.652 156.490333 
L 680.768 119.725045 
L 681.884 130.688781 
L 683 88.422934 
L 684.116 130.426424 
L 685.232 156.325147 
L 686.348 142.142585 
L 687.464 113.927098 
L 688.58 147.939895 
L 689.696 87.492394 
L 690.812 118.633258 
L 691.928 128.156853 
L 693.044 132.594537 
L 694.16 116.179991 
L 695.276 153.556234 
L 696.392 113.380399 
L 697.508 144.062385 
L 698.624 122.227032 
L 699.74 125.461448 
L 700.856 150.858726 
L 701.972 126.945586 
L 703.088 107.586604 
L 704.204 92.432534 
L 705.32 150.252665 
L 706.436 155.78625 
L 707.552 122.118325 
L 708.668 111.523425 
L 709.784 115.859593 
L 710.9 145.169998 
L 712.016 153.300351 
L 713.132 108.008862 
L 714.248 135.736277 
L 715.364 131.92092 
L 716.48 157.669026 
L 717.596 106.195499 
L 718.712 142.878208 
L 719.828 136.242806 
L 720.944 149.285856 
L 722.06 103.367945 
L 723.176 151.368859 
L 724.292 133.221555 
L 724.7 137.763944 
L 724.7 137.763944 
" style="fill:none;stroke:#d62728;stroke-linecap:square;stroke-width:1.5;"/>
   </g>
   <g id="line2d_18">
    <path clip-path="url(#p6d975667d3)" d="M 41.3 36.665239 
L 44.648 36.766971 
L 51.344 36.978798 
L 56.924 37.156574 
L 60.272 37.31583 
L 65.852 37.499968 
L 71.432 37.775192 
L 74.78 37.964835 
L 79.244 38.215807 
L 80.36 38.347197 
L 82.592 38.364798 
L 85.94 38.631794 
L 92.636 39.039381 
L 101.564 39.707858 
L 102.68 39.701032 
L 104.912 39.871314 
L 106.028 39.87532 
L 107.144 40.029064 
L 109.376 40.117816 
L 111.608 40.332312 
L 113.84 40.470018 
L 129.464 41.687467 
L 131.696 41.827025 
L 137.276 42.32713 
L 139.508 42.443282 
L 175.22 45.69948 
L 176.336 45.886321 
L 177.452 45.889126 
L 180.8 46.234523 
L 181.916 46.294395 
L 183.032 46.488383 
L 184.148 46.547575 
L 185.264 46.796254 
L 187.496 46.791134 
L 188.612 47.070762 
L 191.96 47.383576 
L 193.076 47.415811 
L 196.424 47.951792 
L 197.54 47.896834 
L 198.656 48.128632 
L 199.772 48.115225 
L 202.004 48.495741 
L 203.12 48.471093 
L 204.236 48.788779 
L 206.468 48.888959 
L 208.7 49.313641 
L 210.932 49.487733 
L 212.048 49.690058 
L 213.164 49.691278 
L 214.28 49.997963 
L 216.512 50.148627 
L 220.976 50.839866 
L 222.092 50.705725 
L 224.324 51.324857 
L 226.556 51.628518 
L 228.788 51.66959 
L 229.904 52.053474 
L 231.02 52.037951 
L 232.136 52.382827 
L 233.252 52.301946 
L 234.368 52.468326 
L 235.484 52.911388 
L 236.6 52.99131 
L 237.716 53.243062 
L 239.948 53.349502 
L 241.064 53.861829 
L 242.18 53.788174 
L 243.296 53.951196 
L 244.412 54.328408 
L 245.528 54.26285 
L 246.644 54.654694 
L 247.76 54.606686 
L 248.876 55.058314 
L 249.992 55.281871 
L 253.34 55.655198 
L 254.456 56.004001 
L 255.572 56.08729 
L 256.688 56.29075 
L 257.804 56.688309 
L 263.384 57.631736 
L 265.616 58.095871 
L 266.732 58.563569 
L 267.848 58.680228 
L 270.08 59.437471 
L 271.196 59.371961 
L 275.66 60.327429 
L 277.892 60.825788 
L 279.008 61.38885 
L 280.124 61.347303 
L 281.24 61.637988 
L 282.356 62.156313 
L 283.472 61.990201 
L 284.588 62.213721 
L 286.82 63.086476 
L 287.936 63.723582 
L 289.052 64.037499 
L 290.168 63.663005 
L 291.284 64.423095 
L 292.4 64.924257 
L 295.748 65.845231 
L 296.864 65.966457 
L 300.212 67.391142 
L 301.328 67.781715 
L 302.444 68.004178 
L 303.56 68.545538 
L 304.676 68.807707 
L 305.792 69.499406 
L 306.908 69.608831 
L 308.024 70.246205 
L 309.14 70.185552 
L 311.372 71.477165 
L 312.488 71.426992 
L 313.604 72.260351 
L 314.72 72.673766 
L 315.836 73.209299 
L 316.952 74.188354 
L 319.184 74.804102 
L 320.3 75.375373 
L 321.416 76.202859 
L 322.532 76.610446 
L 323.648 77.234394 
L 325.88 78.005735 
L 326.996 79.159775 
L 328.112 79.347595 
L 329.228 80.529529 
L 331.46 81.519847 
L 332.576 82.22882 
L 333.692 83.35225 
L 334.808 83.565689 
L 335.924 84.132619 
L 337.04 85.471398 
L 338.156 86.2271 
L 339.272 86.400339 
L 340.388 87.607326 
L 342.62 88.72865 
L 343.736 89.927752 
L 345.968 92.034401 
L 347.084 92.862496 
L 348.2 93.370789 
L 349.316 94.943276 
L 350.432 95.33453 
L 351.548 96.528388 
L 352.664 97.917433 
L 353.78 98.331616 
L 354.896 100.267223 
L 356.012 100.613251 
L 357.128 102.101622 
L 358.244 103.202084 
L 359.36 104.115096 
L 360.476 105.575514 
L 362.708 107.578957 
L 363.824 109.340735 
L 366.056 112.081771 
L 367.172 113.140624 
L 369.404 115.752763 
L 370.52 116.945362 
L 372.752 120.462417 
L 373.868 121.548974 
L 374.984 123.092587 
L 377.216 126.60746 
L 378.332 128.121832 
L 379.448 129.883437 
L 380.564 131.42526 
L 381.68 133.175743 
L 382.796 135.352642 
L 383.912 136.676427 
L 386.144 140.306962 
L 387.26 142.453976 
L 388.376 143.928631 
L 390.608 148.091202 
L 393.956 154.454849 
L 395.072 156.860053 
L 397.304 160.794474 
L 401.768 170.452057 
L 402.884 171.831054 
L 404 175.049318 
L 405.116 176.504212 
L 406.232 179.831174 
L 407.348 181.843642 
L 408.464 184.840157 
L 409.58 186.507865 
L 410.696 190.228393 
L 411.812 192.436568 
L 412.928 195.098522 
L 414.044 198.122373 
L 415.16 200.015741 
L 416.276 199.537149 
L 417.392 201.656494 
L 418.508 201.808317 
L 419.624 203.796573 
L 420.74 208.381423 
L 421.856 218.366931 
L 422.972 211.936346 
L 424.088 210.836643 
L 425.204 213.251073 
L 426.32 214.042764 
L 427.436 217.243221 
L 428.552 221.567615 
L 429.668 215.495932 
L 430.784 215.267746 
L 431.9 233.135097 
L 433.016 229.822602 
L 434.132 223.898529 
L 435.248 223.980367 
L 436.364 220.423681 
L 437.48 223.678193 
L 438.596 222.637677 
L 439.712 225.603851 
L 440.828 224.944176 
L 441.944 227.877345 
L 444.176 230.894018 
L 445.292 225.48916 
L 446.408 234.106734 
L 447.524 230.309053 
L 448.64 232.714992 
L 449.756 230.941451 
L 450.872 230.775108 
L 451.988 234.657498 
L 453.104 235.807356 
L 454.22 236.050013 
L 455.336 235.436821 
L 456.452 234.427984 
L 458.684 235.704786 
L 459.8 234.408268 
L 460.916 236.174931 
L 462.032 234.245777 
L 463.148 233.821431 
L 464.264 231.00843 
L 465.38 222.970372 
L 467.612 204.264152 
L 470.96 172.562834 
L 472.076 160.017926 
L 474.308 139.826786 
L 476.54 120.628588 
L 477.656 113.40586 
L 478.772 108.219985 
L 479.888 106.878052 
L 481.004 106.357903 
L 482.12 113.997907 
L 483.236 125.462772 
L 484.352 144.796833 
L 485.468 166.301668 
L 486.584 184.040369 
L 487.7 196.576167 
L 488.816 195.899066 
L 489.932 180.401126 
L 491.048 158.48774 
L 492.164 145.237013 
L 493.28 138.163606 
L 494.396 138.104266 
L 495.512 142.598205 
L 496.628 150.154408 
L 499.976 177.656721 
L 504.44 225.257221 
L 505.556 232.106714 
L 506.672 231.657541 
L 508.904 227.226212 
L 510.02 225.554947 
L 511.136 224.355916 
L 512.252 223.861765 
L 513.368 225.844881 
L 515.6 234.49495 
L 516.716 235.765952 
L 517.832 234.788645 
L 518.948 234.228887 
L 520.064 234.741184 
L 522.296 234.080177 
L 523.412 234.469678 
L 524.528 234.309858 
L 525.644 235.058986 
L 526.76 231.707017 
L 527.876 203.406468 
L 528.992 207.840504 
L 530.108 227.807845 
L 531.224 210.037466 
L 532.34 181.719626 
L 533.456 157.768478 
L 534.572 141.55805 
L 535.688 131.757878 
L 536.804 135.75446 
L 537.92 149.553776 
L 539.036 172.401019 
L 540.152 200.755379 
L 541.268 225.942135 
L 542.384 234.119285 
L 543.5 234.69505 
L 544.616 231.088647 
L 545.732 215.948953 
L 546.848 206.468395 
L 547.964 228.611891 
L 549.08 234.708022 
L 550.196 234.967699 
L 551.312 218.904734 
L 552.428 181.057852 
L 553.544 167.021987 
L 554.66 176.431022 
L 556.892 229.216917 
L 558.008 235.026693 
L 559.124 235.062833 
L 560.24 234.841377 
L 561.356 236.214789 
L 562.472 235.082135 
L 563.588 224.072523 
L 564.704 193.057853 
L 565.82 167.770223 
L 566.936 193.181008 
L 568.052 176.211613 
L 569.168 147.794092 
L 570.284 176.81014 
L 571.4 216.042083 
L 572.516 234.261705 
L 573.632 234.061142 
L 574.748 234.820764 
L 575.864 235.242252 
L 576.98 234.945902 
L 578.096 233.138674 
L 579.212 228.051861 
L 580.328 207.006184 
L 581.444 210.035538 
L 582.56 194.585093 
L 583.676 185.456215 
L 584.792 192.859383 
L 585.908 216.991537 
L 587.024 233.793089 
L 588.14 234.147079 
L 589.256 231.399327 
L 590.372 206.399064 
L 591.488 193.607205 
L 592.604 182.439255 
L 593.72 183.617025 
L 594.836 223.976766 
L 595.952 234.800175 
L 597.068 233.654006 
L 598.184 234.417956 
L 599.3 232.487331 
L 600.416 234.718509 
L 601.532 230.244662 
L 602.648 229.984422 
L 603.764 228.901065 
L 604.88 214.570437 
L 605.996 210.17267 
L 607.112 212.988432 
L 608.228 181.347089 
L 609.344 176.709451 
L 610.46 160.961508 
L 611.576 168.234132 
L 613.808 233.391626 
L 614.924 233.345794 
L 616.04 232.281216 
L 617.156 233.353932 
L 619.388 230.605701 
L 620.504 225.5679 
L 621.62 209.308488 
L 622.736 215.489402 
L 623.852 199.544959 
L 624.968 168.948556 
L 626.084 194.295044 
L 627.2 198.48258 
L 628.316 231.760418 
L 629.432 233.543465 
L 630.548 233.002666 
L 631.664 221.993153 
L 632.78 224.110685 
L 633.896 182.711946 
L 635.012 147.167143 
L 636.128 158.180939 
L 637.244 208.53846 
L 638.36 231.05609 
L 639.476 231.342686 
L 640.592 196.558685 
L 641.708 154.45233 
L 642.824 228.977569 
L 643.94 226.662896 
L 645.056 231.926144 
L 646.172 214.278995 
L 647.288 192.163515 
L 648.404 160.521593 
L 649.52 226.616819 
L 650.636 230.710396 
L 651.752 219.494739 
L 652.868 221.752848 
L 653.984 157.900285 
L 655.1 213.908723 
L 656.216 230.865576 
L 657.332 134.37504 
L 658.448 163.765919 
L 659.564 230.005978 
L 660.68 231.693579 
L 661.796 228.43529 
L 662.912 230.619825 
L 664.028 153.672894 
L 665.144 199.57118 
L 666.26 155.742238 
L 667.376 200.183738 
L 668.492 223.622627 
L 669.608 227.142907 
L 670.724 228.105252 
L 671.84 230.297396 
L 672.956 214.069624 
L 674.072 162.083154 
L 675.188 165.390728 
L 676.304 219.223481 
L 677.42 227.855013 
L 678.536 228.155308 
L 679.652 230.094162 
L 680.768 187.564311 
L 681.884 212.701001 
L 683 112.534009 
L 684.116 211.940748 
L 685.232 229.951768 
L 686.348 229.595859 
L 687.464 177.115838 
L 688.58 230.054927 
L 689.696 109.267065 
L 690.812 195.104474 
L 691.928 213.467138 
L 693.044 222.85372 
L 694.16 182.370246 
L 695.276 227.020018 
L 696.392 171.887416 
L 697.508 230.081518 
L 698.624 193.109124 
L 699.74 200.530641 
L 700.856 228.037225 
L 701.972 209.17189 
L 703.088 158.441281 
L 704.204 127.241589 
L 705.32 227.04222 
L 706.436 229.071569 
L 707.552 195.301927 
L 708.668 169.293239 
L 709.784 178.648054 
L 710.9 228.227852 
L 712.016 229.647527 
L 713.132 160.440791 
L 714.248 225.441554 
L 715.364 217.941458 
L 716.48 230.719576 
L 717.596 156.588852 
L 718.712 228.133266 
L 719.828 223.656464 
L 720.944 227.800689 
L 722.06 149.387411 
L 723.176 227.852246 
L 724.292 222.156049 
L 724.7 223.837218 
L 724.7 223.837218 
" style="fill:none;stroke:#9467bd;stroke-linecap:square;stroke-width:1.5;"/>
   </g>
   <g id="line2d_19">
    <path clip-path="url(#p6d975667d3)" d="M 41.3 37.426692 
L 71.432 39.077119 
L 78.128 39.511461 
L 81.476 39.707176 
L 82.592 39.879447 
L 84.824 39.98858 
L 87.056 40.130772 
L 89.288 40.302674 
L 90.404 40.447172 
L 92.636 40.476991 
L 93.752 40.672622 
L 94.868 40.629105 
L 95.984 40.807358 
L 98.216 40.926683 
L 99.332 41.110289 
L 103.796 41.421174 
L 104.912 41.557305 
L 106.028 41.574049 
L 107.144 41.741921 
L 108.26 41.742473 
L 110.492 41.923572 
L 114.956 42.289171 
L 130.58 43.564923 
L 131.696 43.75401 
L 133.928 43.848619 
L 137.276 44.171198 
L 139.508 44.44464 
L 140.624 44.691855 
L 141.74 44.545093 
L 142.856 44.71433 
L 143.972 44.741464 
L 146.204 45.056097 
L 147.32 45.118206 
L 148.436 45.357271 
L 149.552 45.282794 
L 156.248 46.014416 
L 158.48 46.07704 
L 159.596 46.334912 
L 160.712 46.324445 
L 161.828 46.566732 
L 164.06 46.608418 
L 165.176 46.894086 
L 166.292 46.872239 
L 167.408 47.157126 
L 169.64 47.347361 
L 170.756 47.483072 
L 171.872 47.471959 
L 172.988 47.741398 
L 175.22 48.019474 
L 176.336 47.933775 
L 177.452 48.039552 
L 178.568 48.368493 
L 179.684 48.415321 
L 181.916 48.770541 
L 183.032 48.91054 
L 184.148 48.918931 
L 185.264 49.166138 
L 186.38 49.073861 
L 187.496 49.399572 
L 190.844 49.664775 
L 191.96 49.963143 
L 193.076 49.929177 
L 194.192 50.166831 
L 195.308 50.194661 
L 196.424 50.475649 
L 198.656 50.611717 
L 199.772 50.912549 
L 200.888 51.056338 
L 202.004 51.015543 
L 204.236 51.505325 
L 205.352 51.52431 
L 207.584 51.893781 
L 208.7 51.996205 
L 209.816 52.329614 
L 210.932 52.439744 
L 212.048 52.689089 
L 213.164 52.800084 
L 215.396 53.175521 
L 217.628 53.35106 
L 218.744 53.908086 
L 220.976 53.805244 
L 222.092 54.364375 
L 224.324 54.482455 
L 225.44 54.606913 
L 226.556 55.219618 
L 227.672 55.015681 
L 228.788 55.147054 
L 229.904 55.522793 
L 231.02 55.75844 
L 232.136 56.223959 
L 233.252 56.169394 
L 234.368 56.479636 
L 235.484 56.516281 
L 236.6 56.855556 
L 237.716 56.921112 
L 238.832 57.443737 
L 239.948 57.387333 
L 241.064 57.616277 
L 242.18 57.623741 
L 244.412 58.669427 
L 245.528 58.545082 
L 247.76 59.059462 
L 248.876 59.774596 
L 249.992 59.321412 
L 252.224 60.290226 
L 254.456 60.601239 
L 255.572 60.631444 
L 256.688 61.297876 
L 257.804 61.474512 
L 258.92 61.802975 
L 260.036 61.887709 
L 261.152 62.237803 
L 262.268 62.426258 
L 263.384 63.01372 
L 264.5 63.32397 
L 265.616 63.486297 
L 266.732 64.04006 
L 267.848 64.240649 
L 268.964 64.290485 
L 270.08 64.867446 
L 271.196 65.230768 
L 272.312 65.766841 
L 273.428 65.658834 
L 274.544 66.673916 
L 275.66 66.440579 
L 277.892 67.534142 
L 281.24 68.873046 
L 282.356 69.401001 
L 283.472 69.691276 
L 284.588 69.795813 
L 285.704 70.448257 
L 286.82 70.675544 
L 287.936 71.266782 
L 289.052 71.407604 
L 291.284 73.084966 
L 292.4 73.452115 
L 293.516 74.077402 
L 295.748 74.894739 
L 296.864 75.905496 
L 297.98 76.096808 
L 299.096 76.427619 
L 300.212 76.969839 
L 301.328 77.681472 
L 302.444 78.644392 
L 303.56 79.141127 
L 304.676 80.493359 
L 305.792 80.515685 
L 306.908 81.4581 
L 308.024 81.938625 
L 309.14 83.031654 
L 310.256 83.371252 
L 311.372 84.380803 
L 312.488 84.878053 
L 313.604 85.808054 
L 314.72 86.573578 
L 316.952 88.689637 
L 318.068 89.485456 
L 319.184 89.921857 
L 320.3 91.24926 
L 321.416 91.770901 
L 322.532 93.055599 
L 323.648 93.786267 
L 324.764 94.69462 
L 325.88 96.581234 
L 326.996 97.185118 
L 329.228 99.076542 
L 330.344 100.314883 
L 331.46 101.296851 
L 334.808 105.498183 
L 335.924 106.475601 
L 340.388 111.366091 
L 343.736 116.333464 
L 344.852 117.441918 
L 345.968 118.993876 
L 348.2 122.599246 
L 349.316 123.892 
L 350.432 125.459369 
L 351.548 128.015337 
L 352.664 129.101529 
L 354.896 133.120409 
L 356.012 134.696513 
L 357.128 137.10065 
L 358.244 138.929878 
L 359.36 140.384635 
L 360.476 143.07384 
L 361.592 144.946619 
L 362.708 147.416522 
L 363.824 149.443187 
L 364.94 151.894666 
L 367.172 156.419973 
L 368.288 158.964288 
L 369.404 161.036919 
L 371.636 166.066031 
L 372.752 169.000825 
L 373.868 171.035396 
L 374.984 173.792151 
L 376.1 176.932467 
L 378.332 182.40137 
L 380.564 188.224502 
L 381.68 191.955265 
L 383.912 197.201552 
L 386.144 204.220971 
L 392.84 223.772621 
L 395.072 229.171322 
L 396.188 230.090676 
L 398.42 233.639647 
L 399.536 233.128534 
L 401.768 234.497619 
L 402.884 234.221098 
L 404 234.774484 
L 405.116 235.813691 
L 406.232 233.881287 
L 407.348 233.423267 
L 408.464 234.379669 
L 409.58 235.166188 
L 410.696 235.566811 
L 411.812 234.302886 
L 412.928 235.751246 
L 414.044 234.874525 
L 415.16 235.099829 
L 416.276 234.012971 
L 417.392 234.570457 
L 418.508 235.724003 
L 419.624 234.181009 
L 421.856 235.380958 
L 422.972 235.720647 
L 424.088 236.266054 
L 425.204 237.0375 
L 426.32 235.366795 
L 427.436 236.56971 
L 428.552 235.658974 
L 429.668 235.503168 
L 430.784 236.992065 
L 431.9 236.615698 
L 433.016 234.386924 
L 434.132 235.640689 
L 435.248 235.998297 
L 436.364 235.988686 
L 437.48 236.549095 
L 438.596 235.552768 
L 439.712 235.386139 
L 440.828 235.69348 
L 441.944 236.38394 
L 443.06 235.786804 
L 444.176 235.869269 
L 445.292 234.294488 
L 446.408 234.729869 
L 447.524 234.242029 
L 448.64 235.54625 
L 449.756 233.330122 
L 450.872 234.201695 
L 451.988 234.637841 
L 453.104 234.613819 
L 455.336 235.002198 
L 456.452 234.303946 
L 457.568 234.023141 
L 458.684 234.625513 
L 459.8 234.040615 
L 460.916 234.244622 
L 462.032 233.95127 
L 463.148 234.192567 
L 464.264 233.962564 
L 465.38 234.445189 
L 466.496 233.619444 
L 467.612 234.058133 
L 468.728 234.299788 
L 469.844 234.236142 
L 470.96 233.171645 
L 472.076 229.067276 
L 473.192 212.48979 
L 474.308 193.163477 
L 475.424 177.811914 
L 476.54 160.513598 
L 477.656 148.357798 
L 478.772 139.32162 
L 479.888 135.938221 
L 481.004 138.500703 
L 482.12 149.613718 
L 483.236 171.526071 
L 485.468 233.483212 
L 486.584 234.558641 
L 487.7 234.989566 
L 488.816 233.992386 
L 489.932 233.727472 
L 491.048 226.447176 
L 492.164 202.327004 
L 493.28 192.276053 
L 494.396 191.937006 
L 495.512 200.306647 
L 497.744 226.124667 
L 498.86 234.115487 
L 499.976 233.864354 
L 502.208 235.196363 
L 503.324 234.273424 
L 504.44 233.703183 
L 506.672 234.409248 
L 507.788 233.783502 
L 508.904 234.470704 
L 511.136 233.923554 
L 512.252 233.331808 
L 513.368 232.986877 
L 514.484 233.684558 
L 515.6 233.371789 
L 516.716 234.781406 
L 518.948 233.19633 
L 520.064 233.116423 
L 521.18 233.546046 
L 522.296 233.712095 
L 523.412 234.174596 
L 524.528 234.094958 
L 525.644 234.721765 
L 526.76 235.030509 
L 527.876 233.784639 
L 528.992 234.733583 
L 530.108 235.141929 
L 531.224 234.51269 
L 532.34 233.725279 
L 533.456 224.71957 
L 534.572 195.938706 
L 535.688 181.591088 
L 536.804 185.466831 
L 537.92 211.216748 
L 539.036 233.882734 
L 540.152 234.419624 
L 541.268 233.680707 
L 542.384 234.067743 
L 543.5 234.68409 
L 544.616 233.563142 
L 545.732 234.8944 
L 546.848 234.031637 
L 547.964 235.258598 
L 549.08 233.534992 
L 550.196 233.965528 
L 551.312 234.952338 
L 552.428 234.002812 
L 553.544 233.62611 
L 554.66 234.37251 
L 555.776 234.982312 
L 556.892 233.931334 
L 558.008 233.839792 
L 559.124 234.42842 
L 560.24 234.540251 
L 561.356 235.045646 
L 562.472 234.335423 
L 564.704 234.457603 
L 565.82 233.062516 
L 566.936 234.219768 
L 568.052 234.111428 
L 569.168 208.56583 
L 570.284 233.683403 
L 571.4 233.78892 
L 572.516 233.528842 
L 573.632 233.923671 
L 574.748 233.660953 
L 575.864 233.786069 
L 576.98 234.160208 
L 578.096 234.16631 
L 579.212 235.18748 
L 580.328 232.646619 
L 581.444 233.946837 
L 582.56 233.435844 
L 583.676 233.539507 
L 584.792 234.355939 
L 585.908 234.177341 
L 587.024 233.790763 
L 588.14 233.597095 
L 589.256 233.031281 
L 590.372 234.350577 
L 591.488 231.94061 
L 592.604 233.242602 
L 593.72 233.933152 
L 594.836 233.383642 
L 595.952 233.385482 
L 597.068 233.146484 
L 598.184 233.457757 
L 599.3 232.288163 
L 600.416 234.303736 
L 601.532 231.776563 
L 602.648 230.245169 
L 603.764 232.464662 
L 604.88 230.782728 
L 605.996 232.027668 
L 607.112 232.539372 
L 608.228 231.928998 
L 609.344 232.79878 
L 610.46 227.923286 
L 611.576 232.091465 
L 612.692 234.226713 
L 613.808 233.773867 
L 614.924 233.461203 
L 616.04 231.651973 
L 617.156 232.438393 
L 618.272 232.155132 
L 619.388 232.990743 
L 620.504 229.741912 
L 621.62 230.487872 
L 622.736 230.384013 
L 624.968 231.381081 
L 626.084 233.677966 
L 627.2 232.801303 
L 629.432 233.397214 
L 630.548 232.84716 
L 631.664 231.424719 
L 632.78 232.252027 
L 633.896 230.176231 
L 635.012 210.237681 
L 636.128 227.023877 
L 637.244 232.068249 
L 638.36 231.712421 
L 639.476 231.534416 
L 640.592 231.506527 
L 641.708 218.908942 
L 642.824 229.725593 
L 643.94 231.512582 
L 645.056 231.296391 
L 646.172 230.230685 
L 647.288 232.306663 
L 648.404 227.805991 
L 649.52 232.818407 
L 650.636 230.191968 
L 651.752 232.740683 
L 653.984 224.659391 
L 655.1 230.724243 
L 656.216 232.099279 
L 657.332 182.444488 
L 658.448 228.338169 
L 660.68 231.168576 
L 661.796 227.706463 
L 662.912 230.982629 
L 664.028 218.528274 
L 665.144 228.868298 
L 666.26 219.619762 
L 667.376 228.871299 
L 668.492 229.79036 
L 669.608 228.041075 
L 670.724 228.045796 
L 671.84 229.685683 
L 672.956 232.245946 
L 674.072 229.566483 
L 675.188 229.343163 
L 676.304 228.466996 
L 677.42 227.058306 
L 678.536 228.256535 
L 679.652 229.806976 
L 680.768 227.87188 
L 681.884 230.354934 
L 683 147.299773 
L 684.116 231.079597 
L 685.232 229.829256 
L 686.348 229.87856 
L 687.464 229.443159 
L 688.58 230.239931 
L 689.696 137.111911 
L 690.812 227.583229 
L 691.928 229.799862 
L 693.044 230.311434 
L 694.16 228.312062 
L 695.276 226.820712 
L 696.392 228.967411 
L 697.508 230.240577 
L 698.624 228.015974 
L 699.74 227.977386 
L 700.856 227.457625 
L 701.972 230.148156 
L 703.088 222.665629 
L 704.204 169.913694 
L 705.32 226.895119 
L 706.436 228.957953 
L 707.552 229.889232 
L 708.668 228.896191 
L 709.784 227.265741 
L 710.9 228.122201 
L 712.016 229.566743 
L 713.132 224.920476 
L 714.248 227.092674 
L 715.364 226.646709 
L 716.48 230.071187 
L 717.596 222.037233 
L 718.712 228.408238 
L 719.828 227.099447 
L 720.944 227.690345 
L 722.06 211.280431 
L 723.176 227.939028 
L 724.7 226.98056 
L 724.7 226.98056 
" style="fill:none;stroke:#8c564b;stroke-linecap:square;stroke-width:1.5;"/>
   </g>
   <g id="patch_3">
    <path d="M 41.3 247.1175 
L 41.3 25.3575 
" style="fill:none;stroke:#000000;stroke-linecap:square;stroke-linejoin:miter;stroke-width:0.8;"/>
   </g>
   <g id="patch_4">
    <path d="M 710.9 247.1175 
L 710.9 25.3575 
" style="fill:none;stroke:#000000;stroke-linecap:square;stroke-linejoin:miter;stroke-width:0.8;"/>
   </g>
   <g id="patch_5">
    <path d="M 41.3 247.1175 
L 710.9 247.1175 
" style="fill:none;stroke:#000000;stroke-linecap:square;stroke-linejoin:miter;stroke-width:0.8;"/>
   </g>
   <g id="patch_6">
    <path d="M 41.3 25.3575 
L 710.9 25.3575 
" style="fill:none;stroke:#000000;stroke-linecap:square;stroke-linejoin:miter;stroke-width:0.8;"/>
   </g>
   <g id="text_14">
    <!-- strength_0.5_V_1_layers_5_T_9000_10000_esp_trials_1_10_esp -->
    <defs>
     <path d="M 44.28125 53.078125 
L 44.28125 44.578125 
Q 40.484375 46.53125 36.375 47.5 
Q 32.28125 48.484375 27.875 48.484375 
Q 21.1875 48.484375 17.84375 46.4375 
Q 14.5 44.390625 14.5 40.28125 
Q 14.5 37.15625 16.890625 35.375 
Q 19.28125 33.59375 26.515625 31.984375 
L 29.59375 31.296875 
Q 39.15625 29.25 43.1875 25.515625 
Q 47.21875 21.78125 47.21875 15.09375 
Q 47.21875 7.46875 41.1875 3.015625 
Q 35.15625 -1.421875 24.609375 -1.421875 
Q 20.21875 -1.421875 15.453125 -0.5625 
Q 10.6875 0.296875 5.421875 2 
L 5.421875 11.28125 
Q 10.40625 8.6875 15.234375 7.390625 
Q 20.0625 6.109375 24.8125 6.109375 
Q 31.15625 6.109375 34.5625 8.28125 
Q 37.984375 10.453125 37.984375 14.40625 
Q 37.984375 18.0625 35.515625 20.015625 
Q 33.0625 21.96875 24.703125 23.78125 
L 21.578125 24.515625 
Q 13.234375 26.265625 9.515625 29.90625 
Q 5.8125 33.546875 5.8125 39.890625 
Q 5.8125 47.609375 11.28125 51.796875 
Q 16.75 56 26.8125 56 
Q 31.78125 56 36.171875 55.265625 
Q 40.578125 54.546875 44.28125 53.078125 
z
" id="DejaVuSans-115"/>
     <path d="M 18.3125 70.21875 
L 18.3125 54.6875 
L 36.8125 54.6875 
L 36.8125 47.703125 
L 18.3125 47.703125 
L 18.3125 18.015625 
Q 18.3125 11.328125 20.140625 9.421875 
Q 21.96875 7.515625 27.59375 7.515625 
L 36.8125 7.515625 
L 36.8125 0 
L 27.59375 0 
Q 17.1875 0 13.234375 3.875 
Q 9.28125 7.765625 9.28125 18.015625 
L 9.28125 47.703125 
L 2.6875 47.703125 
L 2.6875 54.6875 
L 9.28125 54.6875 
L 9.28125 70.21875 
z
" id="DejaVuSans-116"/>
     <path d="M 41.109375 46.296875 
Q 39.59375 47.171875 37.8125 47.578125 
Q 36.03125 48 33.890625 48 
Q 26.265625 48 22.1875 43.046875 
Q 18.109375 38.09375 18.109375 28.8125 
L 18.109375 0 
L 9.078125 0 
L 9.078125 54.6875 
L 18.109375 54.6875 
L 18.109375 46.1875 
Q 20.953125 51.171875 25.484375 53.578125 
Q 30.03125 56 36.53125 56 
Q 37.453125 56 38.578125 55.875 
Q 39.703125 55.765625 41.0625 55.515625 
z
" id="DejaVuSans-114"/>
     <path d="M 56.203125 29.59375 
L 56.203125 25.203125 
L 14.890625 25.203125 
Q 15.484375 15.921875 20.484375 11.0625 
Q 25.484375 6.203125 34.421875 6.203125 
Q 39.59375 6.203125 44.453125 7.46875 
Q 49.3125 8.734375 54.109375 11.28125 
L 54.109375 2.78125 
Q 49.265625 0.734375 44.1875 -0.34375 
Q 39.109375 -1.421875 33.890625 -1.421875 
Q 20.796875 -1.421875 13.15625 6.1875 
Q 5.515625 13.8125 5.515625 26.8125 
Q 5.515625 40.234375 12.765625 48.109375 
Q 20.015625 56 32.328125 56 
Q 43.359375 56 49.78125 48.890625 
Q 56.203125 41.796875 56.203125 29.59375 
z
M 47.21875 32.234375 
Q 47.125 39.59375 43.09375 43.984375 
Q 39.0625 48.390625 32.421875 48.390625 
Q 24.90625 48.390625 20.390625 44.140625 
Q 15.875 39.890625 15.1875 32.171875 
z
" id="DejaVuSans-101"/>
     <path d="M 54.890625 33.015625 
L 54.890625 0 
L 45.90625 0 
L 45.90625 32.71875 
Q 45.90625 40.484375 42.875 44.328125 
Q 39.84375 48.1875 33.796875 48.1875 
Q 26.515625 48.1875 22.3125 43.546875 
Q 18.109375 38.921875 18.109375 30.90625 
L 18.109375 0 
L 9.078125 0 
L 9.078125 54.6875 
L 18.109375 54.6875 
L 18.109375 46.1875 
Q 21.34375 51.125 25.703125 53.5625 
Q 30.078125 56 35.796875 56 
Q 45.21875 56 50.046875 50.171875 
Q 54.890625 44.34375 54.890625 33.015625 
z
" id="DejaVuSans-110"/>
     <path d="M 45.40625 27.984375 
Q 45.40625 37.75 41.375 43.109375 
Q 37.359375 48.484375 30.078125 48.484375 
Q 22.859375 48.484375 18.828125 43.109375 
Q 14.796875 37.75 14.796875 27.984375 
Q 14.796875 18.265625 18.828125 12.890625 
Q 22.859375 7.515625 30.078125 7.515625 
Q 37.359375 7.515625 41.375 12.890625 
Q 45.40625 18.265625 45.40625 27.984375 
z
M 54.390625 6.78125 
Q 54.390625 -7.171875 48.1875 -13.984375 
Q 42 -20.796875 29.203125 -20.796875 
Q 24.46875 -20.796875 20.265625 -20.09375 
Q 16.0625 -19.390625 12.109375 -17.921875 
L 12.109375 -9.1875 
Q 16.0625 -11.328125 19.921875 -12.34375 
Q 23.78125 -13.375 27.78125 -13.375 
Q 36.625 -13.375 41.015625 -8.765625 
Q 45.40625 -4.15625 45.40625 5.171875 
L 45.40625 9.625 
Q 42.625 4.78125 38.28125 2.390625 
Q 33.9375 0 27.875 0 
Q 17.828125 0 11.671875 7.65625 
Q 5.515625 15.328125 5.515625 27.984375 
Q 5.515625 40.671875 11.671875 48.328125 
Q 17.828125 56 27.875 56 
Q 33.9375 56 38.28125 53.609375 
Q 42.625 51.21875 45.40625 46.390625 
L 45.40625 54.6875 
L 54.390625 54.6875 
z
" id="DejaVuSans-103"/>
     <path d="M 54.890625 33.015625 
L 54.890625 0 
L 45.90625 0 
L 45.90625 32.71875 
Q 45.90625 40.484375 42.875 44.328125 
Q 39.84375 48.1875 33.796875 48.1875 
Q 26.515625 48.1875 22.3125 43.546875 
Q 18.109375 38.921875 18.109375 30.90625 
L 18.109375 0 
L 9.078125 0 
L 9.078125 75.984375 
L 18.109375 75.984375 
L 18.109375 46.1875 
Q 21.34375 51.125 25.703125 53.5625 
Q 30.078125 56 35.796875 56 
Q 45.21875 56 50.046875 50.171875 
Q 54.890625 44.34375 54.890625 33.015625 
z
" id="DejaVuSans-104"/>
     <path d="M 50.984375 -16.609375 
L 50.984375 -23.578125 
L -0.984375 -23.578125 
L -0.984375 -16.609375 
z
" id="DejaVuSans-95"/>
     <path d="M 10.6875 12.40625 
L 21 12.40625 
L 21 0 
L 10.6875 0 
z
" id="DejaVuSans-46"/>
     <path d="M 28.609375 0 
L 0.78125 72.90625 
L 11.078125 72.90625 
L 34.1875 11.53125 
L 57.328125 72.90625 
L 67.578125 72.90625 
L 39.796875 0 
z
" id="DejaVuSans-86"/>
     <path d="M 9.421875 75.984375 
L 18.40625 75.984375 
L 18.40625 0 
L 9.421875 0 
z
" id="DejaVuSans-108"/>
     <path d="M 34.28125 27.484375 
Q 23.390625 27.484375 19.1875 25 
Q 14.984375 22.515625 14.984375 16.5 
Q 14.984375 11.71875 18.140625 8.90625 
Q 21.296875 6.109375 26.703125 6.109375 
Q 34.1875 6.109375 38.703125 11.40625 
Q 43.21875 16.703125 43.21875 25.484375 
L 43.21875 27.484375 
z
M 52.203125 31.203125 
L 52.203125 0 
L 43.21875 0 
L 43.21875 8.296875 
Q 40.140625 3.328125 35.546875 0.953125 
Q 30.953125 -1.421875 24.3125 -1.421875 
Q 15.921875 -1.421875 10.953125 3.296875 
Q 6 8.015625 6 15.921875 
Q 6 25.140625 12.171875 29.828125 
Q 18.359375 34.515625 30.609375 34.515625 
L 43.21875 34.515625 
L 43.21875 35.40625 
Q 43.21875 41.609375 39.140625 45 
Q 35.0625 48.390625 27.6875 48.390625 
Q 23 48.390625 18.546875 47.265625 
Q 14.109375 46.140625 10.015625 43.890625 
L 10.015625 52.203125 
Q 14.9375 54.109375 19.578125 55.046875 
Q 24.21875 56 28.609375 56 
Q 40.484375 56 46.34375 49.84375 
Q 52.203125 43.703125 52.203125 31.203125 
z
" id="DejaVuSans-97"/>
     <path d="M 32.171875 -5.078125 
Q 28.375 -14.84375 24.75 -17.8125 
Q 21.140625 -20.796875 15.09375 -20.796875 
L 7.90625 -20.796875 
L 7.90625 -13.28125 
L 13.1875 -13.28125 
Q 16.890625 -13.28125 18.9375 -11.515625 
Q 21 -9.765625 23.484375 -3.21875 
L 25.09375 0.875 
L 2.984375 54.6875 
L 12.5 54.6875 
L 29.59375 11.921875 
L 46.6875 54.6875 
L 56.203125 54.6875 
z
" id="DejaVuSans-121"/>
     <path d="M -0.296875 72.90625 
L 61.375 72.90625 
L 61.375 64.59375 
L 35.5 64.59375 
L 35.5 0 
L 25.59375 0 
L 25.59375 64.59375 
L -0.296875 64.59375 
z
" id="DejaVuSans-84"/>
     <path d="M 10.984375 1.515625 
L 10.984375 10.5 
Q 14.703125 8.734375 18.5 7.8125 
Q 22.3125 6.890625 25.984375 6.890625 
Q 35.75 6.890625 40.890625 13.453125 
Q 46.046875 20.015625 46.78125 33.40625 
Q 43.953125 29.203125 39.59375 26.953125 
Q 35.25 24.703125 29.984375 24.703125 
Q 19.046875 24.703125 12.671875 31.3125 
Q 6.296875 37.9375 6.296875 49.421875 
Q 6.296875 60.640625 12.9375 67.421875 
Q 19.578125 74.21875 30.609375 74.21875 
Q 43.265625 74.21875 49.921875 64.515625 
Q 56.59375 54.828125 56.59375 36.375 
Q 56.59375 19.140625 48.40625 8.859375 
Q 40.234375 -1.421875 26.421875 -1.421875 
Q 22.703125 -1.421875 18.890625 -0.6875 
Q 15.09375 0.046875 10.984375 1.515625 
z
M 30.609375 32.421875 
Q 37.25 32.421875 41.125 36.953125 
Q 45.015625 41.5 45.015625 49.421875 
Q 45.015625 57.28125 41.125 61.84375 
Q 37.25 66.40625 30.609375 66.40625 
Q 23.96875 66.40625 20.09375 61.84375 
Q 16.21875 57.28125 16.21875 49.421875 
Q 16.21875 41.5 20.09375 36.953125 
Q 23.96875 32.421875 30.609375 32.421875 
z
" id="DejaVuSans-57"/>
     <path d="M 18.109375 8.203125 
L 18.109375 -20.796875 
L 9.078125 -20.796875 
L 9.078125 54.6875 
L 18.109375 54.6875 
L 18.109375 46.390625 
Q 20.953125 51.265625 25.265625 53.625 
Q 29.59375 56 35.59375 56 
Q 45.5625 56 51.78125 48.09375 
Q 58.015625 40.1875 58.015625 27.296875 
Q 58.015625 14.40625 51.78125 6.484375 
Q 45.5625 -1.421875 35.59375 -1.421875 
Q 29.59375 -1.421875 25.265625 0.953125 
Q 20.953125 3.328125 18.109375 8.203125 
z
M 48.6875 27.296875 
Q 48.6875 37.203125 44.609375 42.84375 
Q 40.53125 48.484375 33.40625 48.484375 
Q 26.265625 48.484375 22.1875 42.84375 
Q 18.109375 37.203125 18.109375 27.296875 
Q 18.109375 17.390625 22.1875 11.75 
Q 26.265625 6.109375 33.40625 6.109375 
Q 40.53125 6.109375 44.609375 11.75 
Q 48.6875 17.390625 48.6875 27.296875 
z
" id="DejaVuSans-112"/>
     <path d="M 9.421875 54.6875 
L 18.40625 54.6875 
L 18.40625 0 
L 9.421875 0 
z
M 9.421875 75.984375 
L 18.40625 75.984375 
L 18.40625 64.59375 
L 9.421875 64.59375 
z
" id="DejaVuSans-105"/>
    </defs>
    <g transform="translate(123.5525 19.3575)scale(0.16 -0.16)">
     <use xlink:href="#DejaVuSans-115"/>
     <use x="52.099609" xlink:href="#DejaVuSans-116"/>
     <use x="91.308594" xlink:href="#DejaVuSans-114"/>
     <use x="130.171875" xlink:href="#DejaVuSans-101"/>
     <use x="191.695312" xlink:href="#DejaVuSans-110"/>
     <use x="255.074219" xlink:href="#DejaVuSans-103"/>
     <use x="318.550781" xlink:href="#DejaVuSans-116"/>
     <use x="357.759766" xlink:href="#DejaVuSans-104"/>
     <use x="421.138672" xlink:href="#DejaVuSans-95"/>
     <use x="471.138672" xlink:href="#DejaVuSans-48"/>
     <use x="534.761719" xlink:href="#DejaVuSans-46"/>
     <use x="566.548828" xlink:href="#DejaVuSans-53"/>
     <use x="630.171875" xlink:href="#DejaVuSans-95"/>
     <use x="680.171875" xlink:href="#DejaVuSans-86"/>
     <use x="748.580078" xlink:href="#DejaVuSans-95"/>
     <use x="798.580078" xlink:href="#DejaVuSans-49"/>
     <use x="862.203125" xlink:href="#DejaVuSans-95"/>
     <use x="912.203125" xlink:href="#DejaVuSans-108"/>
     <use x="939.986328" xlink:href="#DejaVuSans-97"/>
     <use x="1001.265625" xlink:href="#DejaVuSans-121"/>
     <use x="1060.445312" xlink:href="#DejaVuSans-101"/>
     <use x="1121.96875" xlink:href="#DejaVuSans-114"/>
     <use x="1163.082031" xlink:href="#DejaVuSans-115"/>
     <use x="1215.181641" xlink:href="#DejaVuSans-95"/>
     <use x="1265.181641" xlink:href="#DejaVuSans-53"/>
     <use x="1328.804688" xlink:href="#DejaVuSans-95"/>
     <use x="1378.804688" xlink:href="#DejaVuSans-84"/>
     <use x="1439.888672" xlink:href="#DejaVuSans-95"/>
     <use x="1489.888672" xlink:href="#DejaVuSans-57"/>
     <use x="1553.511719" xlink:href="#DejaVuSans-48"/>
     <use x="1617.134766" xlink:href="#DejaVuSans-48"/>
     <use x="1680.757812" xlink:href="#DejaVuSans-48"/>
     <use x="1744.380859" xlink:href="#DejaVuSans-95"/>
     <use x="1794.380859" xlink:href="#DejaVuSans-49"/>
     <use x="1858.003906" xlink:href="#DejaVuSans-48"/>
     <use x="1921.626953" xlink:href="#DejaVuSans-48"/>
     <use x="1985.25" xlink:href="#DejaVuSans-48"/>
     <use x="2048.873047" xlink:href="#DejaVuSans-48"/>
     <use x="2112.496094" xlink:href="#DejaVuSans-95"/>
     <use x="2162.496094" xlink:href="#DejaVuSans-101"/>
     <use x="2224.019531" xlink:href="#DejaVuSans-115"/>
     <use x="2276.119141" xlink:href="#DejaVuSans-112"/>
     <use x="2339.595703" xlink:href="#DejaVuSans-95"/>
     <use x="2389.595703" xlink:href="#DejaVuSans-116"/>
     <use x="2428.804688" xlink:href="#DejaVuSans-114"/>
     <use x="2469.917969" xlink:href="#DejaVuSans-105"/>
     <use x="2497.701172" xlink:href="#DejaVuSans-97"/>
     <use x="2558.980469" xlink:href="#DejaVuSans-108"/>
     <use x="2586.763672" xlink:href="#DejaVuSans-115"/>
     <use x="2638.863281" xlink:href="#DejaVuSans-95"/>
     <use x="2688.863281" xlink:href="#DejaVuSans-49"/>
     <use x="2752.486328" xlink:href="#DejaVuSans-95"/>
     <use x="2802.486328" xlink:href="#DejaVuSans-49"/>
     <use x="2866.109375" xlink:href="#DejaVuSans-48"/>
     <use x="2929.732422" xlink:href="#DejaVuSans-95"/>
     <use x="2979.732422" xlink:href="#DejaVuSans-101"/>
     <use x="3041.255859" xlink:href="#DejaVuSans-115"/>
     <use x="3093.355469" xlink:href="#DejaVuSans-112"/>
    </g>
   </g>
   <g id="legend_1">
    <g id="patch_7">
     <path d="M 49.7 241.1175 
L 136.7 241.1175 
Q 139.1 241.1175 139.1 238.7175 
L 139.1 134.235 
Q 139.1 131.835 136.7 131.835 
L 49.7 131.835 
Q 47.3 131.835 47.3 134.235 
L 47.3 238.7175 
Q 47.3 241.1175 49.7 241.1175 
z
" style="fill:#ffffff;opacity:0.8;stroke:#cccccc;stroke-linejoin:miter;"/>
    </g>
    <g id="line2d_20">
     <path d="M 52.1 141.553125 
L 76.1 141.553125 
" style="fill:none;stroke:#1f77b4;stroke-linecap:square;stroke-width:1.5;"/>
    </g>
    <g id="line2d_21"/>
    <g id="text_15">
     <!-- T=100 -->
     <defs>
      <path d="M 19.09375 0 
L 19.09375 5.171875 
L 28.421875 5.171875 
L 28.421875 67.09375 
L 6.984375 67.09375 
L 6.984375 55.71875 
L 0.984375 55.71875 
L 0.984375 72.90625 
L 65.71875 72.90625 
L 65.71875 55.71875 
L 59.71875 55.71875 
L 59.71875 67.09375 
L 38.28125 67.09375 
L 38.28125 5.171875 
L 47.609375 5.171875 
L 47.609375 0 
z
" id="DejaVuSerif-84"/>
      <path d="M 10.59375 45.21875 
L 73.1875 45.21875 
L 73.1875 37.40625 
L 10.59375 37.40625 
z
M 10.59375 25.296875 
L 73.1875 25.296875 
L 73.1875 17.484375 
L 10.59375 17.484375 
z
" id="DejaVuSerif-61"/>
      <path d="M 14.203125 0 
L 14.203125 5.171875 
L 26.90625 5.171875 
L 26.90625 65.828125 
L 12.203125 56.296875 
L 12.203125 62.703125 
L 29.984375 74.21875 
L 36.71875 74.21875 
L 36.71875 5.171875 
L 49.421875 5.171875 
L 49.421875 0 
z
" id="DejaVuSerif-49"/>
      <path d="M 31.78125 3.421875 
Q 39.265625 3.421875 42.96875 11.625 
Q 46.6875 19.828125 46.6875 36.375 
Q 46.6875 52.984375 42.96875 61.1875 
Q 39.265625 69.390625 31.78125 69.390625 
Q 24.3125 69.390625 20.59375 61.1875 
Q 16.890625 52.984375 16.890625 36.375 
Q 16.890625 19.828125 20.59375 11.625 
Q 24.3125 3.421875 31.78125 3.421875 
z
M 31.78125 -1.421875 
Q 19.921875 -1.421875 13.25 8.53125 
Q 6.59375 18.5 6.59375 36.375 
Q 6.59375 54.296875 13.25 64.25 
Q 19.921875 74.21875 31.78125 74.21875 
Q 43.703125 74.21875 50.34375 64.25 
Q 56.984375 54.296875 56.984375 36.375 
Q 56.984375 18.5 50.34375 8.53125 
Q 43.703125 -1.421875 31.78125 -1.421875 
z
" id="DejaVuSerif-48"/>
     </defs>
     <g transform="translate(85.7 145.753125)scale(0.12 -0.12)">
      <use xlink:href="#DejaVuSerif-84"/>
      <use x="66.699219" xlink:href="#DejaVuSerif-61"/>
      <use x="150.488281" xlink:href="#DejaVuSerif-49"/>
      <use x="214.111328" xlink:href="#DejaVuSerif-48"/>
      <use x="277.734375" xlink:href="#DejaVuSerif-48"/>
     </g>
    </g>
    <g id="line2d_22">
     <path d="M 52.1 159.166875 
L 76.1 159.166875 
" style="fill:none;stroke:#ff7f0e;stroke-linecap:square;stroke-width:1.5;"/>
    </g>
    <g id="line2d_23"/>
    <g id="text_16">
     <!-- T=500 -->
     <defs>
      <path d="M 50.296875 72.90625 
L 50.296875 64.890625 
L 16.890625 64.890625 
L 16.890625 44 
Q 19.4375 45.75 22.828125 46.625 
Q 26.21875 47.515625 30.421875 47.515625 
Q 42.234375 47.515625 49.0625 40.96875 
Q 55.90625 34.421875 55.90625 23.09375 
Q 55.90625 11.53125 49 5.046875 
Q 42.09375 -1.421875 29.59375 -1.421875 
Q 24.5625 -1.421875 19.28125 -0.1875 
Q 14.015625 1.03125 8.5 3.515625 
L 8.5 17.671875 
L 14.015625 17.671875 
Q 14.453125 10.75 18.421875 7.078125 
Q 22.40625 3.421875 29.59375 3.421875 
Q 37.3125 3.421875 41.453125 8.5 
Q 45.609375 13.578125 45.609375 23.09375 
Q 45.609375 32.5625 41.484375 37.609375 
Q 37.359375 42.671875 29.59375 42.671875 
Q 25.203125 42.671875 21.84375 41.109375 
Q 18.5 39.546875 15.921875 36.28125 
L 11.71875 36.28125 
L 11.71875 72.90625 
z
" id="DejaVuSerif-53"/>
     </defs>
     <g transform="translate(85.7 163.366875)scale(0.12 -0.12)">
      <use xlink:href="#DejaVuSerif-84"/>
      <use x="66.699219" xlink:href="#DejaVuSerif-61"/>
      <use x="150.488281" xlink:href="#DejaVuSerif-53"/>
      <use x="214.111328" xlink:href="#DejaVuSerif-48"/>
      <use x="277.734375" xlink:href="#DejaVuSerif-48"/>
     </g>
    </g>
    <g id="line2d_24">
     <path d="M 52.1 176.780625 
L 76.1 176.780625 
" style="fill:none;stroke:#2ca02c;stroke-linecap:square;stroke-width:1.5;"/>
    </g>
    <g id="line2d_25"/>
    <g id="text_17">
     <!-- T=1000 -->
     <g transform="translate(85.7 180.980625)scale(0.12 -0.12)">
      <use xlink:href="#DejaVuSerif-84"/>
      <use x="66.699219" xlink:href="#DejaVuSerif-61"/>
      <use x="150.488281" xlink:href="#DejaVuSerif-49"/>
      <use x="214.111328" xlink:href="#DejaVuSerif-48"/>
      <use x="277.734375" xlink:href="#DejaVuSerif-48"/>
      <use x="341.357422" xlink:href="#DejaVuSerif-48"/>
     </g>
    </g>
    <g id="line2d_26">
     <path d="M 52.1 194.394375 
L 76.1 194.394375 
" style="fill:none;stroke:#d62728;stroke-linecap:square;stroke-width:1.5;"/>
    </g>
    <g id="line2d_27"/>
    <g id="text_18">
     <!-- T=2000 -->
     <defs>
      <path d="M 12.796875 55.515625 
L 7.328125 55.515625 
L 7.328125 68.5 
Q 12.546875 71.296875 17.84375 72.75 
Q 23.140625 74.21875 28.21875 74.21875 
Q 39.59375 74.21875 46.1875 68.703125 
Q 52.78125 63.1875 52.78125 53.71875 
Q 52.78125 43.015625 37.84375 28.125 
Q 36.671875 27 36.078125 26.421875 
L 17.671875 8.015625 
L 48.09375 8.015625 
L 48.09375 17 
L 53.8125 17 
L 53.8125 0 
L 6.78125 0 
L 6.78125 5.328125 
L 28.90625 27.390625 
Q 36.234375 34.71875 39.359375 40.84375 
Q 42.484375 46.96875 42.484375 53.71875 
Q 42.484375 61.078125 38.640625 65.234375 
Q 34.8125 69.390625 28.078125 69.390625 
Q 21.09375 69.390625 17.28125 65.921875 
Q 13.484375 62.453125 12.796875 55.515625 
z
" id="DejaVuSerif-50"/>
     </defs>
     <g transform="translate(85.7 198.594375)scale(0.12 -0.12)">
      <use xlink:href="#DejaVuSerif-84"/>
      <use x="66.699219" xlink:href="#DejaVuSerif-61"/>
      <use x="150.488281" xlink:href="#DejaVuSerif-50"/>
      <use x="214.111328" xlink:href="#DejaVuSerif-48"/>
      <use x="277.734375" xlink:href="#DejaVuSerif-48"/>
      <use x="341.357422" xlink:href="#DejaVuSerif-48"/>
     </g>
    </g>
    <g id="line2d_28">
     <path d="M 52.1 212.008125 
L 76.1 212.008125 
" style="fill:none;stroke:#9467bd;stroke-linecap:square;stroke-width:1.5;"/>
    </g>
    <g id="line2d_29"/>
    <g id="text_19">
     <!-- T=5000 -->
     <g transform="translate(85.7 216.208125)scale(0.12 -0.12)">
      <use xlink:href="#DejaVuSerif-84"/>
      <use x="66.699219" xlink:href="#DejaVuSerif-61"/>
      <use x="150.488281" xlink:href="#DejaVuSerif-53"/>
      <use x="214.111328" xlink:href="#DejaVuSerif-48"/>
      <use x="277.734375" xlink:href="#DejaVuSerif-48"/>
      <use x="341.357422" xlink:href="#DejaVuSerif-48"/>
     </g>
    </g>
    <g id="line2d_30">
     <path d="M 52.1 229.621875 
L 76.1 229.621875 
" style="fill:none;stroke:#8c564b;stroke-linecap:square;stroke-width:1.5;"/>
    </g>
    <g id="line2d_31"/>
    <g id="text_20">
     <!-- T=9000 -->
     <defs>
      <path d="M 46.78125 32.671875 
Q 43.5 29 39.25 27.1875 
Q 35.015625 25.390625 29.6875 25.390625 
Q 18.84375 25.390625 12.5625 31.9375 
Q 6.296875 38.484375 6.296875 49.8125 
Q 6.296875 60.890625 13.109375 67.546875 
Q 19.921875 74.21875 31.296875 74.21875 
Q 43.65625 74.21875 50.265625 65.015625 
Q 56.890625 55.8125 56.890625 38.71875 
Q 56.890625 19.578125 49.015625 9.078125 
Q 41.15625 -1.421875 26.90625 -1.421875 
Q 23.046875 -1.421875 18.796875 -0.6875 
Q 14.546875 0.046875 10.109375 1.515625 
L 10.109375 13.625 
L 15.578125 13.625 
Q 16.21875 8.6875 19.390625 6.046875 
Q 22.5625 3.421875 27.875 3.421875 
Q 37.359375 3.421875 41.984375 10.5625 
Q 46.625 17.71875 46.78125 32.671875 
z
M 30.90625 69.390625 
Q 23.96875 69.390625 20.28125 64.328125 
Q 16.609375 59.28125 16.609375 49.8125 
Q 16.609375 40.328125 20.28125 35.25 
Q 23.96875 30.171875 30.90625 30.171875 
Q 37.84375 30.171875 41.53125 35.078125 
Q 45.21875 39.984375 45.21875 49.21875 
Q 45.21875 58.9375 41.5 64.15625 
Q 37.796875 69.390625 30.90625 69.390625 
z
" id="DejaVuSerif-57"/>
     </defs>
     <g transform="translate(85.7 233.821875)scale(0.12 -0.12)">
      <use xlink:href="#DejaVuSerif-84"/>
      <use x="66.699219" xlink:href="#DejaVuSerif-61"/>
      <use x="150.488281" xlink:href="#DejaVuSerif-57"/>
      <use x="214.111328" xlink:href="#DejaVuSerif-48"/>
      <use x="277.734375" xlink:href="#DejaVuSerif-48"/>
      <use x="341.357422" xlink:href="#DejaVuSerif-48"/>
     </g>
    </g>
   </g>
  </g>
 </g>
 <defs>
  <clipPath id="p6d975667d3">
   <rect height="221.76" width="669.6" x="41.3" y="25.3575"/>
  </clipPath>
 </defs>
</svg>
