<?xml version="1.0" encoding="utf-8" standalone="no"?>
<!DOCTYPE svg PUBLIC "-//W3C//DTD SVG 1.1//EN"
  "http://www.w3.org/Graphics/SVG/1.1/DTD/svg11.dtd">
<!-- Created with matplotlib (https://matplotlib.org/) -->
<svg height="657.478125pt" version="1.1" viewBox="0 0 1004.489239 657.478125" width="1004.489239pt" xmlns="http://www.w3.org/2000/svg" xmlns:xlink="http://www.w3.org/1999/xlink">
 <defs>
  <style type="text/css">
*{stroke-linecap:butt;stroke-linejoin:round;}
  </style>
 </defs>
 <g id="figure_1">
  <g id="patch_1">
   <path d="M 0 657.478125 
L 1004.489239 657.478125 
L 1004.489239 0 
L 0 0 
z
" style="fill:#ffffff;"/>
  </g>
  <g id="axes_1">
   <g id="patch_2">
    <path d="M 34.3 633.6 
L 228.386957 633.6 
L 228.386957 79.2 
L 34.3 79.2 
z
" style="fill:#ffffff;"/>
   </g>
   <g id="matplotlib.axis_1">
    <g id="xtick_1">
     <g id="line2d_1">
      <path clip-path="url(#p32ce44946a)" d="M 34.3 633.6 
L 34.3 79.2 
" style="fill:none;stroke:#a6a6a6;stroke-linecap:square;stroke-width:0.8;"/>
     </g>
     <g id="line2d_2">
      <defs>
       <path d="M 0 0 
L 0 3.5 
" id="m7408df6697" style="stroke:#000000;stroke-width:0.8;"/>
      </defs>
      <g>
       <use style="stroke:#000000;stroke-width:0.8;" x="34.3" xlink:href="#m7408df6697" y="633.6"/>
      </g>
     </g>
     <g id="text_1">
      <!-- 0.0 -->
      <defs>
       <path d="M 31.78125 66.40625 
Q 24.171875 66.40625 20.328125 58.90625 
Q 16.5 51.421875 16.5 36.375 
Q 16.5 21.390625 20.328125 13.890625 
Q 24.171875 6.390625 31.78125 6.390625 
Q 39.453125 6.390625 43.28125 13.890625 
Q 47.125 21.390625 47.125 36.375 
Q 47.125 51.421875 43.28125 58.90625 
Q 39.453125 66.40625 31.78125 66.40625 
z
M 31.78125 74.21875 
Q 44.046875 74.21875 50.515625 64.515625 
Q 56.984375 54.828125 56.984375 36.375 
Q 56.984375 17.96875 50.515625 8.265625 
Q 44.046875 -1.421875 31.78125 -1.421875 
Q 19.53125 -1.421875 13.0625 8.265625 
Q 6.59375 17.96875 6.59375 36.375 
Q 6.59375 54.828125 13.0625 64.515625 
Q 19.53125 74.21875 31.78125 74.21875 
z
" id="DejaVuSans-48"/>
       <path d="M 10.6875 12.40625 
L 21 12.40625 
L 21 0 
L 10.6875 0 
z
" id="DejaVuSans-46"/>
      </defs>
      <g transform="translate(26.348438 648.198437)scale(0.1 -0.1)">
       <use xlink:href="#DejaVuSans-48"/>
       <use x="63.623047" xlink:href="#DejaVuSans-46"/>
       <use x="95.410156" xlink:href="#DejaVuSans-48"/>
      </g>
     </g>
    </g>
    <g id="xtick_2">
     <g id="line2d_3">
      <path clip-path="url(#p32ce44946a)" d="M 75.595097 633.6 
L 75.595097 79.2 
" style="fill:none;stroke:#a6a6a6;stroke-linecap:square;stroke-width:0.8;"/>
     </g>
     <g id="line2d_4">
      <g>
       <use style="stroke:#000000;stroke-width:0.8;" x="75.595097" xlink:href="#m7408df6697" y="633.6"/>
      </g>
     </g>
     <g id="text_2">
      <!-- 0.2 -->
      <defs>
       <path d="M 19.1875 8.296875 
L 53.609375 8.296875 
L 53.609375 0 
L 7.328125 0 
L 7.328125 8.296875 
Q 12.9375 14.109375 22.625 23.890625 
Q 32.328125 33.6875 34.8125 36.53125 
Q 39.546875 41.84375 41.421875 45.53125 
Q 43.3125 49.21875 43.3125 52.78125 
Q 43.3125 58.59375 39.234375 62.25 
Q 35.15625 65.921875 28.609375 65.921875 
Q 23.96875 65.921875 18.8125 64.3125 
Q 13.671875 62.703125 7.8125 59.421875 
L 7.8125 69.390625 
Q 13.765625 71.78125 18.9375 73 
Q 24.125 74.21875 28.421875 74.21875 
Q 39.75 74.21875 46.484375 68.546875 
Q 53.21875 62.890625 53.21875 53.421875 
Q 53.21875 48.921875 51.53125 44.890625 
Q 49.859375 40.875 45.40625 35.40625 
Q 44.1875 33.984375 37.640625 27.21875 
Q 31.109375 20.453125 19.1875 8.296875 
z
" id="DejaVuSans-50"/>
      </defs>
      <g transform="translate(67.643535 648.198437)scale(0.1 -0.1)">
       <use xlink:href="#DejaVuSans-48"/>
       <use x="63.623047" xlink:href="#DejaVuSans-46"/>
       <use x="95.410156" xlink:href="#DejaVuSans-50"/>
      </g>
     </g>
    </g>
    <g id="xtick_3">
     <g id="line2d_5">
      <path clip-path="url(#p32ce44946a)" d="M 116.890194 633.6 
L 116.890194 79.2 
" style="fill:none;stroke:#a6a6a6;stroke-linecap:square;stroke-width:0.8;"/>
     </g>
     <g id="line2d_6">
      <g>
       <use style="stroke:#000000;stroke-width:0.8;" x="116.890194" xlink:href="#m7408df6697" y="633.6"/>
      </g>
     </g>
     <g id="text_3">
      <!-- 0.4 -->
      <defs>
       <path d="M 37.796875 64.3125 
L 12.890625 25.390625 
L 37.796875 25.390625 
z
M 35.203125 72.90625 
L 47.609375 72.90625 
L 47.609375 25.390625 
L 58.015625 25.390625 
L 58.015625 17.1875 
L 47.609375 17.1875 
L 47.609375 0 
L 37.796875 0 
L 37.796875 17.1875 
L 4.890625 17.1875 
L 4.890625 26.703125 
z
" id="DejaVuSans-52"/>
      </defs>
      <g transform="translate(108.938632 648.198437)scale(0.1 -0.1)">
       <use xlink:href="#DejaVuSans-48"/>
       <use x="63.623047" xlink:href="#DejaVuSans-46"/>
       <use x="95.410156" xlink:href="#DejaVuSans-52"/>
      </g>
     </g>
    </g>
    <g id="xtick_4">
     <g id="line2d_7">
      <path clip-path="url(#p32ce44946a)" d="M 158.185291 633.6 
L 158.185291 79.2 
" style="fill:none;stroke:#a6a6a6;stroke-linecap:square;stroke-width:0.8;"/>
     </g>
     <g id="line2d_8">
      <g>
       <use style="stroke:#000000;stroke-width:0.8;" x="158.185291" xlink:href="#m7408df6697" y="633.6"/>
      </g>
     </g>
     <g id="text_4">
      <!-- 0.6 -->
      <defs>
       <path d="M 33.015625 40.375 
Q 26.375 40.375 22.484375 35.828125 
Q 18.609375 31.296875 18.609375 23.390625 
Q 18.609375 15.53125 22.484375 10.953125 
Q 26.375 6.390625 33.015625 6.390625 
Q 39.65625 6.390625 43.53125 10.953125 
Q 47.40625 15.53125 47.40625 23.390625 
Q 47.40625 31.296875 43.53125 35.828125 
Q 39.65625 40.375 33.015625 40.375 
z
M 52.59375 71.296875 
L 52.59375 62.3125 
Q 48.875 64.0625 45.09375 64.984375 
Q 41.3125 65.921875 37.59375 65.921875 
Q 27.828125 65.921875 22.671875 59.328125 
Q 17.53125 52.734375 16.796875 39.40625 
Q 19.671875 43.65625 24.015625 45.921875 
Q 28.375 48.1875 33.59375 48.1875 
Q 44.578125 48.1875 50.953125 41.515625 
Q 57.328125 34.859375 57.328125 23.390625 
Q 57.328125 12.15625 50.6875 5.359375 
Q 44.046875 -1.421875 33.015625 -1.421875 
Q 20.359375 -1.421875 13.671875 8.265625 
Q 6.984375 17.96875 6.984375 36.375 
Q 6.984375 53.65625 15.1875 63.9375 
Q 23.390625 74.21875 37.203125 74.21875 
Q 40.921875 74.21875 44.703125 73.484375 
Q 48.484375 72.75 52.59375 71.296875 
z
" id="DejaVuSans-54"/>
      </defs>
      <g transform="translate(150.233729 648.198437)scale(0.1 -0.1)">
       <use xlink:href="#DejaVuSans-48"/>
       <use x="63.623047" xlink:href="#DejaVuSans-46"/>
       <use x="95.410156" xlink:href="#DejaVuSans-54"/>
      </g>
     </g>
    </g>
    <g id="xtick_5">
     <g id="line2d_9">
      <path clip-path="url(#p32ce44946a)" d="M 199.480389 633.6 
L 199.480389 79.2 
" style="fill:none;stroke:#a6a6a6;stroke-linecap:square;stroke-width:0.8;"/>
     </g>
     <g id="line2d_10">
      <g>
       <use style="stroke:#000000;stroke-width:0.8;" x="199.480389" xlink:href="#m7408df6697" y="633.6"/>
      </g>
     </g>
     <g id="text_5">
      <!-- 0.8 -->
      <defs>
       <path d="M 31.78125 34.625 
Q 24.75 34.625 20.71875 30.859375 
Q 16.703125 27.09375 16.703125 20.515625 
Q 16.703125 13.921875 20.71875 10.15625 
Q 24.75 6.390625 31.78125 6.390625 
Q 38.8125 6.390625 42.859375 10.171875 
Q 46.921875 13.96875 46.921875 20.515625 
Q 46.921875 27.09375 42.890625 30.859375 
Q 38.875 34.625 31.78125 34.625 
z
M 21.921875 38.8125 
Q 15.578125 40.375 12.03125 44.71875 
Q 8.5 49.078125 8.5 55.328125 
Q 8.5 64.0625 14.71875 69.140625 
Q 20.953125 74.21875 31.78125 74.21875 
Q 42.671875 74.21875 48.875 69.140625 
Q 55.078125 64.0625 55.078125 55.328125 
Q 55.078125 49.078125 51.53125 44.71875 
Q 48 40.375 41.703125 38.8125 
Q 48.828125 37.15625 52.796875 32.3125 
Q 56.78125 27.484375 56.78125 20.515625 
Q 56.78125 9.90625 50.3125 4.234375 
Q 43.84375 -1.421875 31.78125 -1.421875 
Q 19.734375 -1.421875 13.25 4.234375 
Q 6.78125 9.90625 6.78125 20.515625 
Q 6.78125 27.484375 10.78125 32.3125 
Q 14.796875 37.15625 21.921875 38.8125 
z
M 18.3125 54.390625 
Q 18.3125 48.734375 21.84375 45.5625 
Q 25.390625 42.390625 31.78125 42.390625 
Q 38.140625 42.390625 41.71875 45.5625 
Q 45.3125 48.734375 45.3125 54.390625 
Q 45.3125 60.0625 41.71875 63.234375 
Q 38.140625 66.40625 31.78125 66.40625 
Q 25.390625 66.40625 21.84375 63.234375 
Q 18.3125 60.0625 18.3125 54.390625 
z
" id="DejaVuSans-56"/>
      </defs>
      <g transform="translate(191.528826 648.198437)scale(0.1 -0.1)">
       <use xlink:href="#DejaVuSans-48"/>
       <use x="63.623047" xlink:href="#DejaVuSans-46"/>
       <use x="95.410156" xlink:href="#DejaVuSans-56"/>
      </g>
     </g>
    </g>
   </g>
   <g id="matplotlib.axis_2">
    <g id="ytick_1">
     <g id="line2d_11">
      <path clip-path="url(#p32ce44946a)" d="M 34.3 589.245929 
L 228.386957 589.245929 
" style="fill:none;stroke:#a6a6a6;stroke-linecap:square;stroke-width:0.8;"/>
     </g>
     <g id="line2d_12">
      <defs>
       <path d="M 0 0 
L -3.5 0 
" id="ma6632b7aa9" style="stroke:#000000;stroke-width:0.8;"/>
      </defs>
      <g>
       <use style="stroke:#000000;stroke-width:0.8;" x="34.3" xlink:href="#ma6632b7aa9" y="589.245929"/>
      </g>
     </g>
     <g id="text_6">
      <!-- $\mathdefault{10^{-7}}$ -->
      <defs>
       <path d="M 12.40625 8.296875 
L 28.515625 8.296875 
L 28.515625 63.921875 
L 10.984375 60.40625 
L 10.984375 69.390625 
L 28.421875 72.90625 
L 38.28125 72.90625 
L 38.28125 8.296875 
L 54.390625 8.296875 
L 54.390625 0 
L 12.40625 0 
z
" id="DejaVuSans-49"/>
       <path d="M 4.890625 31.390625 
L 31.203125 31.390625 
L 31.203125 23.390625 
L 4.890625 23.390625 
z
" id="DejaVuSans-45"/>
       <path d="M 8.203125 72.90625 
L 55.078125 72.90625 
L 55.078125 68.703125 
L 28.609375 0 
L 18.3125 0 
L 43.21875 64.59375 
L 8.203125 64.59375 
z
" id="DejaVuSans-55"/>
      </defs>
      <g transform="translate(7.2 593.045148)scale(0.1 -0.1)">
       <use transform="translate(0 0.684375)" xlink:href="#DejaVuSans-49"/>
       <use transform="translate(63.623047 0.684375)" xlink:href="#DejaVuSans-48"/>
       <use transform="translate(128.203125 38.965625)scale(0.7)" xlink:href="#DejaVuSans-45"/>
       <use transform="translate(153.461914 38.965625)scale(0.7)" xlink:href="#DejaVuSans-55"/>
      </g>
     </g>
    </g>
    <g id="ytick_2">
     <g id="line2d_13">
      <path clip-path="url(#p32ce44946a)" d="M 34.3 370.381842 
L 228.386957 370.381842 
" style="fill:none;stroke:#a6a6a6;stroke-linecap:square;stroke-width:0.8;"/>
     </g>
     <g id="line2d_14">
      <g>
       <use style="stroke:#000000;stroke-width:0.8;" x="34.3" xlink:href="#ma6632b7aa9" y="370.381842"/>
      </g>
     </g>
     <g id="text_7">
      <!-- $\mathdefault{10^{-6}}$ -->
      <g transform="translate(7.2 374.181061)scale(0.1 -0.1)">
       <use transform="translate(0 0.765625)" xlink:href="#DejaVuSans-49"/>
       <use transform="translate(63.623047 0.765625)" xlink:href="#DejaVuSans-48"/>
       <use transform="translate(128.203125 39.046875)scale(0.7)" xlink:href="#DejaVuSans-45"/>
       <use transform="translate(153.461914 39.046875)scale(0.7)" xlink:href="#DejaVuSans-54"/>
      </g>
     </g>
    </g>
    <g id="ytick_3">
     <g id="line2d_15">
      <path clip-path="url(#p32ce44946a)" d="M 34.3 151.517754 
L 228.386957 151.517754 
" style="fill:none;stroke:#a6a6a6;stroke-linecap:square;stroke-width:0.8;"/>
     </g>
     <g id="line2d_16">
      <g>
       <use style="stroke:#000000;stroke-width:0.8;" x="34.3" xlink:href="#ma6632b7aa9" y="151.517754"/>
      </g>
     </g>
     <g id="text_8">
      <!-- $\mathdefault{10^{-5}}$ -->
      <defs>
       <path d="M 10.796875 72.90625 
L 49.515625 72.90625 
L 49.515625 64.59375 
L 19.828125 64.59375 
L 19.828125 46.734375 
Q 21.96875 47.46875 24.109375 47.828125 
Q 26.265625 48.1875 28.421875 48.1875 
Q 40.625 48.1875 47.75 41.5 
Q 54.890625 34.8125 54.890625 23.390625 
Q 54.890625 11.625 47.5625 5.09375 
Q 40.234375 -1.421875 26.90625 -1.421875 
Q 22.3125 -1.421875 17.546875 -0.640625 
Q 12.796875 0.140625 7.71875 1.703125 
L 7.71875 11.625 
Q 12.109375 9.234375 16.796875 8.0625 
Q 21.484375 6.890625 26.703125 6.890625 
Q 35.15625 6.890625 40.078125 11.328125 
Q 45.015625 15.765625 45.015625 23.390625 
Q 45.015625 31 40.078125 35.4375 
Q 35.15625 39.890625 26.703125 39.890625 
Q 22.75 39.890625 18.8125 39.015625 
Q 14.890625 38.140625 10.796875 36.28125 
z
" id="DejaVuSans-53"/>
      </defs>
      <g transform="translate(7.2 155.316973)scale(0.1 -0.1)">
       <use transform="translate(0 0.684375)" xlink:href="#DejaVuSans-49"/>
       <use transform="translate(63.623047 0.684375)" xlink:href="#DejaVuSans-48"/>
       <use transform="translate(128.203125 38.965625)scale(0.7)" xlink:href="#DejaVuSans-45"/>
       <use transform="translate(153.461914 38.965625)scale(0.7)" xlink:href="#DejaVuSans-53"/>
      </g>
     </g>
    </g>
    <g id="ytick_4">
     <g id="line2d_17">
      <path clip-path="url(#p32ce44946a)" d="M 34.3 623.148405 
L 228.386957 623.148405 
" style="fill:none;stroke:#a6a6a6;stroke-linecap:square;stroke-width:0.8;"/>
     </g>
     <g id="line2d_18">
      <defs>
       <path d="M 0 0 
L -2 0 
" id="m981969f895" style="stroke:#000000;stroke-width:0.6;"/>
      </defs>
      <g>
       <use style="stroke:#000000;stroke-width:0.6;" x="34.3" xlink:href="#m981969f895" y="623.148405"/>
      </g>
     </g>
    </g>
    <g id="ytick_5">
     <g id="line2d_19">
      <path clip-path="url(#p32ce44946a)" d="M 34.3 610.456051 
L 228.386957 610.456051 
" style="fill:none;stroke:#a6a6a6;stroke-linecap:square;stroke-width:0.8;"/>
     </g>
     <g id="line2d_20">
      <g>
       <use style="stroke:#000000;stroke-width:0.6;" x="34.3" xlink:href="#m981969f895" y="610.456051"/>
      </g>
     </g>
    </g>
    <g id="ytick_6">
     <g id="line2d_21">
      <path clip-path="url(#p32ce44946a)" d="M 34.3 599.260601 
L 228.386957 599.260601 
" style="fill:none;stroke:#a6a6a6;stroke-linecap:square;stroke-width:0.8;"/>
     </g>
     <g id="line2d_22">
      <g>
       <use style="stroke:#000000;stroke-width:0.6;" x="34.3" xlink:href="#m981969f895" y="599.260601"/>
      </g>
     </g>
    </g>
    <g id="ytick_7">
     <g id="line2d_23">
      <path clip-path="url(#p32ce44946a)" d="M 34.3 523.361274 
L 228.386957 523.361274 
" style="fill:none;stroke:#a6a6a6;stroke-linecap:square;stroke-width:0.8;"/>
     </g>
     <g id="line2d_24">
      <g>
       <use style="stroke:#000000;stroke-width:0.6;" x="34.3" xlink:href="#m981969f895" y="523.361274"/>
      </g>
     </g>
    </g>
    <g id="ytick_8">
     <g id="line2d_25">
      <path clip-path="url(#p32ce44946a)" d="M 34.3 484.821221 
L 228.386957 484.821221 
" style="fill:none;stroke:#a6a6a6;stroke-linecap:square;stroke-width:0.8;"/>
     </g>
     <g id="line2d_26">
      <g>
       <use style="stroke:#000000;stroke-width:0.6;" x="34.3" xlink:href="#m981969f895" y="484.821221"/>
      </g>
     </g>
    </g>
    <g id="ytick_9">
     <g id="line2d_27">
      <path clip-path="url(#p32ce44946a)" d="M 34.3 457.476619 
L 228.386957 457.476619 
" style="fill:none;stroke:#a6a6a6;stroke-linecap:square;stroke-width:0.8;"/>
     </g>
     <g id="line2d_28">
      <g>
       <use style="stroke:#000000;stroke-width:0.6;" x="34.3" xlink:href="#m981969f895" y="457.476619"/>
      </g>
     </g>
    </g>
    <g id="ytick_10">
     <g id="line2d_29">
      <path clip-path="url(#p32ce44946a)" d="M 34.3 436.266497 
L 228.386957 436.266497 
" style="fill:none;stroke:#a6a6a6;stroke-linecap:square;stroke-width:0.8;"/>
     </g>
     <g id="line2d_30">
      <g>
       <use style="stroke:#000000;stroke-width:0.6;" x="34.3" xlink:href="#m981969f895" y="436.266497"/>
      </g>
     </g>
    </g>
    <g id="ytick_11">
     <g id="line2d_31">
      <path clip-path="url(#p32ce44946a)" d="M 34.3 418.936566 
L 228.386957 418.936566 
" style="fill:none;stroke:#a6a6a6;stroke-linecap:square;stroke-width:0.8;"/>
     </g>
     <g id="line2d_32">
      <g>
       <use style="stroke:#000000;stroke-width:0.6;" x="34.3" xlink:href="#m981969f895" y="418.936566"/>
      </g>
     </g>
    </g>
    <g id="ytick_12">
     <g id="line2d_33">
      <path clip-path="url(#p32ce44946a)" d="M 34.3 404.284318 
L 228.386957 404.284318 
" style="fill:none;stroke:#a6a6a6;stroke-linecap:square;stroke-width:0.8;"/>
     </g>
     <g id="line2d_34">
      <g>
       <use style="stroke:#000000;stroke-width:0.6;" x="34.3" xlink:href="#m981969f895" y="404.284318"/>
      </g>
     </g>
    </g>
    <g id="ytick_13">
     <g id="line2d_35">
      <path clip-path="url(#p32ce44946a)" d="M 34.3 391.591963 
L 228.386957 391.591963 
" style="fill:none;stroke:#a6a6a6;stroke-linecap:square;stroke-width:0.8;"/>
     </g>
     <g id="line2d_36">
      <g>
       <use style="stroke:#000000;stroke-width:0.6;" x="34.3" xlink:href="#m981969f895" y="391.591963"/>
      </g>
     </g>
    </g>
    <g id="ytick_14">
     <g id="line2d_37">
      <path clip-path="url(#p32ce44946a)" d="M 34.3 380.396513 
L 228.386957 380.396513 
" style="fill:none;stroke:#a6a6a6;stroke-linecap:square;stroke-width:0.8;"/>
     </g>
     <g id="line2d_38">
      <g>
       <use style="stroke:#000000;stroke-width:0.6;" x="34.3" xlink:href="#m981969f895" y="380.396513"/>
      </g>
     </g>
    </g>
    <g id="ytick_15">
     <g id="line2d_39">
      <path clip-path="url(#p32ce44946a)" d="M 34.3 304.497186 
L 228.386957 304.497186 
" style="fill:none;stroke:#a6a6a6;stroke-linecap:square;stroke-width:0.8;"/>
     </g>
     <g id="line2d_40">
      <g>
       <use style="stroke:#000000;stroke-width:0.6;" x="34.3" xlink:href="#m981969f895" y="304.497186"/>
      </g>
     </g>
    </g>
    <g id="ytick_16">
     <g id="line2d_41">
      <path clip-path="url(#p32ce44946a)" d="M 34.3 265.957134 
L 228.386957 265.957134 
" style="fill:none;stroke:#a6a6a6;stroke-linecap:square;stroke-width:0.8;"/>
     </g>
     <g id="line2d_42">
      <g>
       <use style="stroke:#000000;stroke-width:0.6;" x="34.3" xlink:href="#m981969f895" y="265.957134"/>
      </g>
     </g>
    </g>
    <g id="ytick_17">
     <g id="line2d_43">
      <path clip-path="url(#p32ce44946a)" d="M 34.3 238.612531 
L 228.386957 238.612531 
" style="fill:none;stroke:#a6a6a6;stroke-linecap:square;stroke-width:0.8;"/>
     </g>
     <g id="line2d_44">
      <g>
       <use style="stroke:#000000;stroke-width:0.6;" x="34.3" xlink:href="#m981969f895" y="238.612531"/>
      </g>
     </g>
    </g>
    <g id="ytick_18">
     <g id="line2d_45">
      <path clip-path="url(#p32ce44946a)" d="M 34.3 217.40241 
L 228.386957 217.40241 
" style="fill:none;stroke:#a6a6a6;stroke-linecap:square;stroke-width:0.8;"/>
     </g>
     <g id="line2d_46">
      <g>
       <use style="stroke:#000000;stroke-width:0.6;" x="34.3" xlink:href="#m981969f895" y="217.40241"/>
      </g>
     </g>
    </g>
    <g id="ytick_19">
     <g id="line2d_47">
      <path clip-path="url(#p32ce44946a)" d="M 34.3 200.072478 
L 228.386957 200.072478 
" style="fill:none;stroke:#a6a6a6;stroke-linecap:square;stroke-width:0.8;"/>
     </g>
     <g id="line2d_48">
      <g>
       <use style="stroke:#000000;stroke-width:0.6;" x="34.3" xlink:href="#m981969f895" y="200.072478"/>
      </g>
     </g>
    </g>
    <g id="ytick_20">
     <g id="line2d_49">
      <path clip-path="url(#p32ce44946a)" d="M 34.3 185.42023 
L 228.386957 185.42023 
" style="fill:none;stroke:#a6a6a6;stroke-linecap:square;stroke-width:0.8;"/>
     </g>
     <g id="line2d_50">
      <g>
       <use style="stroke:#000000;stroke-width:0.6;" x="34.3" xlink:href="#m981969f895" y="185.42023"/>
      </g>
     </g>
    </g>
    <g id="ytick_21">
     <g id="line2d_51">
      <path clip-path="url(#p32ce44946a)" d="M 34.3 172.727876 
L 228.386957 172.727876 
" style="fill:none;stroke:#a6a6a6;stroke-linecap:square;stroke-width:0.8;"/>
     </g>
     <g id="line2d_52">
      <g>
       <use style="stroke:#000000;stroke-width:0.6;" x="34.3" xlink:href="#m981969f895" y="172.727876"/>
      </g>
     </g>
    </g>
    <g id="ytick_22">
     <g id="line2d_53">
      <path clip-path="url(#p32ce44946a)" d="M 34.3 161.532426 
L 228.386957 161.532426 
" style="fill:none;stroke:#a6a6a6;stroke-linecap:square;stroke-width:0.8;"/>
     </g>
     <g id="line2d_54">
      <g>
       <use style="stroke:#000000;stroke-width:0.6;" x="34.3" xlink:href="#m981969f895" y="161.532426"/>
      </g>
     </g>
    </g>
    <g id="ytick_23">
     <g id="line2d_55">
      <path clip-path="url(#p32ce44946a)" d="M 34.3 85.633099 
L 228.386957 85.633099 
" style="fill:none;stroke:#a6a6a6;stroke-linecap:square;stroke-width:0.8;"/>
     </g>
     <g id="line2d_56">
      <g>
       <use style="stroke:#000000;stroke-width:0.6;" x="34.3" xlink:href="#m981969f895" y="85.633099"/>
      </g>
     </g>
    </g>
   </g>
   <g id="line2d_57"/>
   <g id="line2d_58">
    <path clip-path="url(#p32ce44946a)" d="M 54.947549 120.208933 
L 75.595097 136.691352 
L 96.242646 154.542264 
L 116.890194 171.794624 
L 137.537743 191.182403 
L 158.185291 207.40252 
L 178.83284 212.13716 
L 199.480389 190.541244 
L 220.127937 104.4 
" style="fill:none;stroke:#ff7f0e;stroke-dasharray:7.4,3.2;stroke-dashoffset:0;stroke-opacity:0.8;stroke-width:2;"/>
   </g>
   <g id="line2d_59">
    <path clip-path="url(#p32ce44946a)" d="M 54.947549 225.039926 
L 75.595097 245.814622 
L 96.242646 268.421573 
L 116.890194 291.38764 
L 137.537743 317.944404 
L 158.185291 345.725885 
L 178.83284 370.476201 
L 199.480389 380.544574 
L 220.127937 369.860669 
" style="fill:none;stroke:#2ca02c;stroke-dasharray:7.4,3.2;stroke-dashoffset:0;stroke-opacity:0.8;stroke-width:2;"/>
   </g>
   <g id="line2d_60">
    <path clip-path="url(#p32ce44946a)" d="M 54.947549 277.519194 
L 75.595097 304.140981 
L 96.242646 331.988799 
L 116.890194 363.097375 
L 137.537743 394.283141 
L 158.185291 426.23886 
L 178.83284 459.191117 
L 199.480389 492.361776 
L 220.127937 513.800028 
" style="fill:none;stroke:#d62728;stroke-dasharray:7.4,3.2;stroke-dashoffset:0;stroke-opacity:0.8;stroke-width:2;"/>
   </g>
   <g id="line2d_61">
    <path clip-path="url(#p32ce44946a)" d="M 54.947549 402.62076 
L 75.595097 423.477624 
L 96.242646 448.47652 
L 116.890194 471.398423 
L 137.537743 502.784876 
L 158.185291 526.479719 
L 178.83284 556.807312 
L 199.480389 578.599731 
L 220.127937 608.4 
" style="fill:none;stroke:#9467bd;stroke-dasharray:7.4,3.2;stroke-dashoffset:0;stroke-opacity:0.8;stroke-width:2;"/>
   </g>
   <g id="patch_3">
    <path d="M 34.3 633.6 
L 34.3 79.2 
" style="fill:none;stroke:#000000;stroke-linecap:square;stroke-linejoin:miter;stroke-width:0.8;"/>
   </g>
   <g id="patch_4">
    <path d="M 228.386957 633.6 
L 228.386957 79.2 
" style="fill:none;stroke:#000000;stroke-linecap:square;stroke-linejoin:miter;stroke-width:0.8;"/>
   </g>
   <g id="patch_5">
    <path d="M 34.3 633.6 
L 228.386957 633.6 
" style="fill:none;stroke:#000000;stroke-linecap:square;stroke-linejoin:miter;stroke-width:0.8;"/>
   </g>
   <g id="patch_6">
    <path d="M 34.3 79.2 
L 228.386957 79.2 
" style="fill:none;stroke:#000000;stroke-linecap:square;stroke-linejoin:miter;stroke-width:0.8;"/>
   </g>
   <g id="text_9">
    <!-- NARMA5 -->
    <defs>
     <path d="M 9.8125 72.90625 
L 23.09375 72.90625 
L 55.421875 11.921875 
L 55.421875 72.90625 
L 64.984375 72.90625 
L 64.984375 0 
L 51.703125 0 
L 19.390625 60.984375 
L 19.390625 0 
L 9.8125 0 
z
" id="DejaVuSans-78"/>
     <path d="M 34.1875 63.1875 
L 20.796875 26.90625 
L 47.609375 26.90625 
z
M 28.609375 72.90625 
L 39.796875 72.90625 
L 67.578125 0 
L 57.328125 0 
L 50.6875 18.703125 
L 17.828125 18.703125 
L 11.1875 0 
L 0.78125 0 
z
" id="DejaVuSans-65"/>
     <path d="M 44.390625 34.1875 
Q 47.5625 33.109375 50.5625 29.59375 
Q 53.5625 26.078125 56.59375 19.921875 
L 66.609375 0 
L 56 0 
L 46.6875 18.703125 
Q 43.0625 26.03125 39.671875 28.421875 
Q 36.28125 30.8125 30.421875 30.8125 
L 19.671875 30.8125 
L 19.671875 0 
L 9.8125 0 
L 9.8125 72.90625 
L 32.078125 72.90625 
Q 44.578125 72.90625 50.734375 67.671875 
Q 56.890625 62.453125 56.890625 51.90625 
Q 56.890625 45.015625 53.6875 40.46875 
Q 50.484375 35.9375 44.390625 34.1875 
z
M 19.671875 64.796875 
L 19.671875 38.921875 
L 32.078125 38.921875 
Q 39.203125 38.921875 42.84375 42.21875 
Q 46.484375 45.515625 46.484375 51.90625 
Q 46.484375 58.296875 42.84375 61.546875 
Q 39.203125 64.796875 32.078125 64.796875 
z
" id="DejaVuSans-82"/>
     <path d="M 9.8125 72.90625 
L 24.515625 72.90625 
L 43.109375 23.296875 
L 61.8125 72.90625 
L 76.515625 72.90625 
L 76.515625 0 
L 66.890625 0 
L 66.890625 64.015625 
L 48.09375 14.015625 
L 38.1875 14.015625 
L 19.390625 64.015625 
L 19.390625 0 
L 9.8125 0 
z
" id="DejaVuSans-77"/>
    </defs>
    <g transform="translate(95.138166 73.2)scale(0.168 -0.168)">
     <use xlink:href="#DejaVuSans-78"/>
     <use x="74.804688" xlink:href="#DejaVuSans-65"/>
     <use x="143.212891" xlink:href="#DejaVuSans-82"/>
     <use x="212.695312" xlink:href="#DejaVuSans-77"/>
     <use x="298.974609" xlink:href="#DejaVuSans-65"/>
     <use x="367.382812" xlink:href="#DejaVuSans-53"/>
    </g>
   </g>
  </g>
  <g id="axes_2">
   <g id="patch_7">
    <path d="M 267.204348 633.6 
L 461.291304 633.6 
L 461.291304 79.2 
L 267.204348 79.2 
z
" style="fill:#ffffff;"/>
   </g>
   <g id="matplotlib.axis_3">
    <g id="xtick_6">
     <g id="line2d_62">
      <path clip-path="url(#p481d5e08d7)" d="M 267.204348 633.6 
L 267.204348 79.2 
" style="fill:none;stroke:#a6a6a6;stroke-linecap:square;stroke-width:0.8;"/>
     </g>
     <g id="line2d_63">
      <g>
       <use style="stroke:#000000;stroke-width:0.8;" x="267.204348" xlink:href="#m7408df6697" y="633.6"/>
      </g>
     </g>
     <g id="text_10">
      <!-- 0.0 -->
      <g transform="translate(259.252785 648.198437)scale(0.1 -0.1)">
       <use xlink:href="#DejaVuSans-48"/>
       <use x="63.623047" xlink:href="#DejaVuSans-46"/>
       <use x="95.410156" xlink:href="#DejaVuSans-48"/>
      </g>
     </g>
    </g>
    <g id="xtick_7">
     <g id="line2d_64">
      <path clip-path="url(#p481d5e08d7)" d="M 308.499445 633.6 
L 308.499445 79.2 
" style="fill:none;stroke:#a6a6a6;stroke-linecap:square;stroke-width:0.8;"/>
     </g>
     <g id="line2d_65">
      <g>
       <use style="stroke:#000000;stroke-width:0.8;" x="308.499445" xlink:href="#m7408df6697" y="633.6"/>
      </g>
     </g>
     <g id="text_11">
      <!-- 0.2 -->
      <g transform="translate(300.547882 648.198437)scale(0.1 -0.1)">
       <use xlink:href="#DejaVuSans-48"/>
       <use x="63.623047" xlink:href="#DejaVuSans-46"/>
       <use x="95.410156" xlink:href="#DejaVuSans-50"/>
      </g>
     </g>
    </g>
    <g id="xtick_8">
     <g id="line2d_66">
      <path clip-path="url(#p481d5e08d7)" d="M 349.794542 633.6 
L 349.794542 79.2 
" style="fill:none;stroke:#a6a6a6;stroke-linecap:square;stroke-width:0.8;"/>
     </g>
     <g id="line2d_67">
      <g>
       <use style="stroke:#000000;stroke-width:0.8;" x="349.794542" xlink:href="#m7408df6697" y="633.6"/>
      </g>
     </g>
     <g id="text_12">
      <!-- 0.4 -->
      <g transform="translate(341.84298 648.198437)scale(0.1 -0.1)">
       <use xlink:href="#DejaVuSans-48"/>
       <use x="63.623047" xlink:href="#DejaVuSans-46"/>
       <use x="95.410156" xlink:href="#DejaVuSans-52"/>
      </g>
     </g>
    </g>
    <g id="xtick_9">
     <g id="line2d_68">
      <path clip-path="url(#p481d5e08d7)" d="M 391.089639 633.6 
L 391.089639 79.2 
" style="fill:none;stroke:#a6a6a6;stroke-linecap:square;stroke-width:0.8;"/>
     </g>
     <g id="line2d_69">
      <g>
       <use style="stroke:#000000;stroke-width:0.8;" x="391.089639" xlink:href="#m7408df6697" y="633.6"/>
      </g>
     </g>
     <g id="text_13">
      <!-- 0.6 -->
      <g transform="translate(383.138077 648.198437)scale(0.1 -0.1)">
       <use xlink:href="#DejaVuSans-48"/>
       <use x="63.623047" xlink:href="#DejaVuSans-46"/>
       <use x="95.410156" xlink:href="#DejaVuSans-54"/>
      </g>
     </g>
    </g>
    <g id="xtick_10">
     <g id="line2d_70">
      <path clip-path="url(#p481d5e08d7)" d="M 432.384736 633.6 
L 432.384736 79.2 
" style="fill:none;stroke:#a6a6a6;stroke-linecap:square;stroke-width:0.8;"/>
     </g>
     <g id="line2d_71">
      <g>
       <use style="stroke:#000000;stroke-width:0.8;" x="432.384736" xlink:href="#m7408df6697" y="633.6"/>
      </g>
     </g>
     <g id="text_14">
      <!-- 0.8 -->
      <g transform="translate(424.433174 648.198437)scale(0.1 -0.1)">
       <use xlink:href="#DejaVuSans-48"/>
       <use x="63.623047" xlink:href="#DejaVuSans-46"/>
       <use x="95.410156" xlink:href="#DejaVuSans-56"/>
      </g>
     </g>
    </g>
   </g>
   <g id="matplotlib.axis_4">
    <g id="ytick_24">
     <g id="line2d_72">
      <path clip-path="url(#p481d5e08d7)" d="M 267.204348 562.29599 
L 461.291304 562.29599 
" style="fill:none;stroke:#a6a6a6;stroke-linecap:square;stroke-width:0.8;"/>
     </g>
     <g id="line2d_73">
      <g>
       <use style="stroke:#000000;stroke-width:0.8;" x="267.204348" xlink:href="#ma6632b7aa9" y="562.29599"/>
      </g>
     </g>
     <g id="text_15">
      <!-- $\mathdefault{10^{-5}}$ -->
      <g transform="translate(240.104348 566.095209)scale(0.1 -0.1)">
       <use transform="translate(0 0.684375)" xlink:href="#DejaVuSans-49"/>
       <use transform="translate(63.623047 0.684375)" xlink:href="#DejaVuSans-48"/>
       <use transform="translate(128.203125 38.965625)scale(0.7)" xlink:href="#DejaVuSans-45"/>
       <use transform="translate(153.461914 38.965625)scale(0.7)" xlink:href="#DejaVuSans-53"/>
      </g>
     </g>
    </g>
    <g id="ytick_25">
     <g id="line2d_74">
      <path clip-path="url(#p481d5e08d7)" d="M 267.204348 303.05702 
L 461.291304 303.05702 
" style="fill:none;stroke:#a6a6a6;stroke-linecap:square;stroke-width:0.8;"/>
     </g>
     <g id="line2d_75">
      <g>
       <use style="stroke:#000000;stroke-width:0.8;" x="267.204348" xlink:href="#ma6632b7aa9" y="303.05702"/>
      </g>
     </g>
     <g id="text_16">
      <!-- $\mathdefault{10^{-4}}$ -->
      <g transform="translate(240.104348 306.856238)scale(0.1 -0.1)">
       <use transform="translate(0 0.684375)" xlink:href="#DejaVuSans-49"/>
       <use transform="translate(63.623047 0.684375)" xlink:href="#DejaVuSans-48"/>
       <use transform="translate(128.203125 38.965625)scale(0.7)" xlink:href="#DejaVuSans-45"/>
       <use transform="translate(153.461914 38.965625)scale(0.7)" xlink:href="#DejaVuSans-52"/>
      </g>
     </g>
    </g>
    <g id="ytick_26">
     <g id="line2d_76">
      <path clip-path="url(#p481d5e08d7)" d="M 267.204348 619.807832 
L 461.291304 619.807832 
" style="fill:none;stroke:#a6a6a6;stroke-linecap:square;stroke-width:0.8;"/>
     </g>
     <g id="line2d_77">
      <g>
       <use style="stroke:#000000;stroke-width:0.6;" x="267.204348" xlink:href="#m981969f895" y="619.807832"/>
      </g>
     </g>
    </g>
    <g id="ytick_27">
     <g id="line2d_78">
      <path clip-path="url(#p481d5e08d7)" d="M 267.204348 602.452615 
L 461.291304 602.452615 
" style="fill:none;stroke:#a6a6a6;stroke-linecap:square;stroke-width:0.8;"/>
     </g>
     <g id="line2d_79">
      <g>
       <use style="stroke:#000000;stroke-width:0.6;" x="267.204348" xlink:href="#m981969f895" y="602.452615"/>
      </g>
     </g>
    </g>
    <g id="ytick_28">
     <g id="line2d_80">
      <path clip-path="url(#p481d5e08d7)" d="M 267.204348 587.418842 
L 461.291304 587.418842 
" style="fill:none;stroke:#a6a6a6;stroke-linecap:square;stroke-width:0.8;"/>
     </g>
     <g id="line2d_81">
      <g>
       <use style="stroke:#000000;stroke-width:0.6;" x="267.204348" xlink:href="#m981969f895" y="587.418842"/>
      </g>
     </g>
    </g>
    <g id="ytick_29">
     <g id="line2d_82">
      <path clip-path="url(#p481d5e08d7)" d="M 267.204348 574.158115 
L 461.291304 574.158115 
" style="fill:none;stroke:#a6a6a6;stroke-linecap:square;stroke-width:0.8;"/>
     </g>
     <g id="line2d_83">
      <g>
       <use style="stroke:#000000;stroke-width:0.6;" x="267.204348" xlink:href="#m981969f895" y="574.158115"/>
      </g>
     </g>
    </g>
    <g id="ytick_30">
     <g id="line2d_84">
      <path clip-path="url(#p481d5e08d7)" d="M 267.204348 484.257284 
L 461.291304 484.257284 
" style="fill:none;stroke:#a6a6a6;stroke-linecap:square;stroke-width:0.8;"/>
     </g>
     <g id="line2d_85">
      <g>
       <use style="stroke:#000000;stroke-width:0.6;" x="267.204348" xlink:href="#m981969f895" y="484.257284"/>
      </g>
     </g>
    </g>
    <g id="ytick_31">
     <g id="line2d_86">
      <path clip-path="url(#p481d5e08d7)" d="M 267.204348 438.607567 
L 461.291304 438.607567 
" style="fill:none;stroke:#a6a6a6;stroke-linecap:square;stroke-width:0.8;"/>
     </g>
     <g id="line2d_87">
      <g>
       <use style="stroke:#000000;stroke-width:0.6;" x="267.204348" xlink:href="#m981969f895" y="438.607567"/>
      </g>
     </g>
    </g>
    <g id="ytick_32">
     <g id="line2d_88">
      <path clip-path="url(#p481d5e08d7)" d="M 267.204348 406.218578 
L 461.291304 406.218578 
" style="fill:none;stroke:#a6a6a6;stroke-linecap:square;stroke-width:0.8;"/>
     </g>
     <g id="line2d_89">
      <g>
       <use style="stroke:#000000;stroke-width:0.6;" x="267.204348" xlink:href="#m981969f895" y="406.218578"/>
      </g>
     </g>
    </g>
    <g id="ytick_33">
     <g id="line2d_90">
      <path clip-path="url(#p481d5e08d7)" d="M 267.204348 381.095726 
L 461.291304 381.095726 
" style="fill:none;stroke:#a6a6a6;stroke-linecap:square;stroke-width:0.8;"/>
     </g>
     <g id="line2d_91">
      <g>
       <use style="stroke:#000000;stroke-width:0.6;" x="267.204348" xlink:href="#m981969f895" y="381.095726"/>
      </g>
     </g>
    </g>
    <g id="ytick_34">
     <g id="line2d_92">
      <path clip-path="url(#p481d5e08d7)" d="M 267.204348 360.568861 
L 461.291304 360.568861 
" style="fill:none;stroke:#a6a6a6;stroke-linecap:square;stroke-width:0.8;"/>
     </g>
     <g id="line2d_93">
      <g>
       <use style="stroke:#000000;stroke-width:0.6;" x="267.204348" xlink:href="#m981969f895" y="360.568861"/>
      </g>
     </g>
    </g>
    <g id="ytick_35">
     <g id="line2d_94">
      <path clip-path="url(#p481d5e08d7)" d="M 267.204348 343.213644 
L 461.291304 343.213644 
" style="fill:none;stroke:#a6a6a6;stroke-linecap:square;stroke-width:0.8;"/>
     </g>
     <g id="line2d_95">
      <g>
       <use style="stroke:#000000;stroke-width:0.6;" x="267.204348" xlink:href="#m981969f895" y="343.213644"/>
      </g>
     </g>
    </g>
    <g id="ytick_36">
     <g id="line2d_96">
      <path clip-path="url(#p481d5e08d7)" d="M 267.204348 328.179872 
L 461.291304 328.179872 
" style="fill:none;stroke:#a6a6a6;stroke-linecap:square;stroke-width:0.8;"/>
     </g>
     <g id="line2d_97">
      <g>
       <use style="stroke:#000000;stroke-width:0.6;" x="267.204348" xlink:href="#m981969f895" y="328.179872"/>
      </g>
     </g>
    </g>
    <g id="ytick_37">
     <g id="line2d_98">
      <path clip-path="url(#p481d5e08d7)" d="M 267.204348 314.919144 
L 461.291304 314.919144 
" style="fill:none;stroke:#a6a6a6;stroke-linecap:square;stroke-width:0.8;"/>
     </g>
     <g id="line2d_99">
      <g>
       <use style="stroke:#000000;stroke-width:0.6;" x="267.204348" xlink:href="#m981969f895" y="314.919144"/>
      </g>
     </g>
    </g>
    <g id="ytick_38">
     <g id="line2d_100">
      <path clip-path="url(#p481d5e08d7)" d="M 267.204348 225.018313 
L 461.291304 225.018313 
" style="fill:none;stroke:#a6a6a6;stroke-linecap:square;stroke-width:0.8;"/>
     </g>
     <g id="line2d_101">
      <g>
       <use style="stroke:#000000;stroke-width:0.6;" x="267.204348" xlink:href="#m981969f895" y="225.018313"/>
      </g>
     </g>
    </g>
    <g id="ytick_39">
     <g id="line2d_102">
      <path clip-path="url(#p481d5e08d7)" d="M 267.204348 179.368597 
L 461.291304 179.368597 
" style="fill:none;stroke:#a6a6a6;stroke-linecap:square;stroke-width:0.8;"/>
     </g>
     <g id="line2d_103">
      <g>
       <use style="stroke:#000000;stroke-width:0.6;" x="267.204348" xlink:href="#m981969f895" y="179.368597"/>
      </g>
     </g>
    </g>
    <g id="ytick_40">
     <g id="line2d_104">
      <path clip-path="url(#p481d5e08d7)" d="M 267.204348 146.979607 
L 461.291304 146.979607 
" style="fill:none;stroke:#a6a6a6;stroke-linecap:square;stroke-width:0.8;"/>
     </g>
     <g id="line2d_105">
      <g>
       <use style="stroke:#000000;stroke-width:0.6;" x="267.204348" xlink:href="#m981969f895" y="146.979607"/>
      </g>
     </g>
    </g>
    <g id="ytick_41">
     <g id="line2d_106">
      <path clip-path="url(#p481d5e08d7)" d="M 267.204348 121.856755 
L 461.291304 121.856755 
" style="fill:none;stroke:#a6a6a6;stroke-linecap:square;stroke-width:0.8;"/>
     </g>
     <g id="line2d_107">
      <g>
       <use style="stroke:#000000;stroke-width:0.6;" x="267.204348" xlink:href="#m981969f895" y="121.856755"/>
      </g>
     </g>
    </g>
    <g id="ytick_42">
     <g id="line2d_108">
      <path clip-path="url(#p481d5e08d7)" d="M 267.204348 101.32989 
L 461.291304 101.32989 
" style="fill:none;stroke:#a6a6a6;stroke-linecap:square;stroke-width:0.8;"/>
     </g>
     <g id="line2d_109">
      <g>
       <use style="stroke:#000000;stroke-width:0.6;" x="267.204348" xlink:href="#m981969f895" y="101.32989"/>
      </g>
     </g>
    </g>
    <g id="ytick_43">
     <g id="line2d_110">
      <path clip-path="url(#p481d5e08d7)" d="M 267.204348 83.974674 
L 461.291304 83.974674 
" style="fill:none;stroke:#a6a6a6;stroke-linecap:square;stroke-width:0.8;"/>
     </g>
     <g id="line2d_111">
      <g>
       <use style="stroke:#000000;stroke-width:0.6;" x="267.204348" xlink:href="#m981969f895" y="83.974674"/>
      </g>
     </g>
    </g>
   </g>
   <g id="line2d_112"/>
   <g id="line2d_113">
    <path clip-path="url(#p481d5e08d7)" d="M 287.851896 104.4 
L 308.499445 121.120713 
L 329.146994 139.284554 
L 349.794542 159.09829 
L 370.442091 182.393644 
L 391.089639 207.009672 
L 411.737188 232.30466 
L 432.384736 252.73708 
L 453.032285 222.565773 
" style="fill:none;stroke:#ff7f0e;stroke-dasharray:7.4,3.2;stroke-dashoffset:0;stroke-opacity:0.8;stroke-width:2;"/>
   </g>
   <g id="line2d_114">
    <path clip-path="url(#p481d5e08d7)" d="M 287.851896 210.689646 
L 308.499445 228.401976 
L 329.146994 243.900668 
L 349.794542 265.990672 
L 370.442091 293.982969 
L 391.089639 321.927194 
L 411.737188 355.214032 
L 432.384736 383.631029 
L 453.032285 391.134939 
" style="fill:none;stroke:#2ca02c;stroke-dasharray:7.4,3.2;stroke-dashoffset:0;stroke-opacity:0.8;stroke-width:2;"/>
   </g>
   <g id="line2d_115">
    <path clip-path="url(#p481d5e08d7)" d="M 287.851896 231.922885 
L 308.499445 261.523246 
L 329.146994 294.034403 
L 349.794542 328.424937 
L 370.442091 366.687217 
L 391.089639 407.200865 
L 411.737188 445.659968 
L 432.384736 479.432885 
L 453.032285 508.758249 
" style="fill:none;stroke:#d62728;stroke-dasharray:7.4,3.2;stroke-dashoffset:0;stroke-opacity:0.8;stroke-width:2;"/>
   </g>
   <g id="line2d_116">
    <path clip-path="url(#p481d5e08d7)" d="M 287.851896 431.209817 
L 308.499445 450.719586 
L 329.146994 470.213903 
L 349.794542 492.049163 
L 370.442091 516.76489 
L 391.089639 539.525034 
L 411.737188 565.122129 
L 432.384736 585.375182 
L 453.032285 608.4 
" style="fill:none;stroke:#9467bd;stroke-dasharray:7.4,3.2;stroke-dashoffset:0;stroke-opacity:0.8;stroke-width:2;"/>
   </g>
   <g id="patch_8">
    <path d="M 267.204348 633.6 
L 267.204348 79.2 
" style="fill:none;stroke:#000000;stroke-linecap:square;stroke-linejoin:miter;stroke-width:0.8;"/>
   </g>
   <g id="patch_9">
    <path d="M 461.291304 633.6 
L 461.291304 79.2 
" style="fill:none;stroke:#000000;stroke-linecap:square;stroke-linejoin:miter;stroke-width:0.8;"/>
   </g>
   <g id="patch_10">
    <path d="M 267.204348 633.6 
L 461.291304 633.6 
" style="fill:none;stroke:#000000;stroke-linecap:square;stroke-linejoin:miter;stroke-width:0.8;"/>
   </g>
   <g id="patch_11">
    <path d="M 267.204348 79.2 
L 461.291304 79.2 
" style="fill:none;stroke:#000000;stroke-linecap:square;stroke-linejoin:miter;stroke-width:0.8;"/>
   </g>
   <g id="text_17">
    <!-- NARMA10 -->
    <g transform="translate(322.698014 73.2)scale(0.168 -0.168)">
     <use xlink:href="#DejaVuSans-78"/>
     <use x="74.804688" xlink:href="#DejaVuSans-65"/>
     <use x="143.212891" xlink:href="#DejaVuSans-82"/>
     <use x="212.695312" xlink:href="#DejaVuSans-77"/>
     <use x="298.974609" xlink:href="#DejaVuSans-65"/>
     <use x="367.382812" xlink:href="#DejaVuSans-49"/>
     <use x="431.005859" xlink:href="#DejaVuSans-48"/>
    </g>
   </g>
  </g>
  <g id="axes_3">
   <g id="patch_12">
    <path d="M 500.108696 633.6 
L 694.195652 633.6 
L 694.195652 79.2 
L 500.108696 79.2 
z
" style="fill:#ffffff;"/>
   </g>
   <g id="matplotlib.axis_5">
    <g id="xtick_11">
     <g id="line2d_117">
      <path clip-path="url(#pc468f859fe)" d="M 500.108696 633.6 
L 500.108696 79.2 
" style="fill:none;stroke:#a6a6a6;stroke-linecap:square;stroke-width:0.8;"/>
     </g>
     <g id="line2d_118">
      <g>
       <use style="stroke:#000000;stroke-width:0.8;" x="500.108696" xlink:href="#m7408df6697" y="633.6"/>
      </g>
     </g>
     <g id="text_18">
      <!-- 0.0 -->
      <g transform="translate(492.157133 648.198437)scale(0.1 -0.1)">
       <use xlink:href="#DejaVuSans-48"/>
       <use x="63.623047" xlink:href="#DejaVuSans-46"/>
       <use x="95.410156" xlink:href="#DejaVuSans-48"/>
      </g>
     </g>
    </g>
    <g id="xtick_12">
     <g id="line2d_119">
      <path clip-path="url(#pc468f859fe)" d="M 541.403793 633.6 
L 541.403793 79.2 
" style="fill:none;stroke:#a6a6a6;stroke-linecap:square;stroke-width:0.8;"/>
     </g>
     <g id="line2d_120">
      <g>
       <use style="stroke:#000000;stroke-width:0.8;" x="541.403793" xlink:href="#m7408df6697" y="633.6"/>
      </g>
     </g>
     <g id="text_19">
      <!-- 0.2 -->
      <g transform="translate(533.45223 648.198437)scale(0.1 -0.1)">
       <use xlink:href="#DejaVuSans-48"/>
       <use x="63.623047" xlink:href="#DejaVuSans-46"/>
       <use x="95.410156" xlink:href="#DejaVuSans-50"/>
      </g>
     </g>
    </g>
    <g id="xtick_13">
     <g id="line2d_121">
      <path clip-path="url(#pc468f859fe)" d="M 582.69889 633.6 
L 582.69889 79.2 
" style="fill:none;stroke:#a6a6a6;stroke-linecap:square;stroke-width:0.8;"/>
     </g>
     <g id="line2d_122">
      <g>
       <use style="stroke:#000000;stroke-width:0.8;" x="582.69889" xlink:href="#m7408df6697" y="633.6"/>
      </g>
     </g>
     <g id="text_20">
      <!-- 0.4 -->
      <g transform="translate(574.747327 648.198437)scale(0.1 -0.1)">
       <use xlink:href="#DejaVuSans-48"/>
       <use x="63.623047" xlink:href="#DejaVuSans-46"/>
       <use x="95.410156" xlink:href="#DejaVuSans-52"/>
      </g>
     </g>
    </g>
    <g id="xtick_14">
     <g id="line2d_123">
      <path clip-path="url(#pc468f859fe)" d="M 623.993987 633.6 
L 623.993987 79.2 
" style="fill:none;stroke:#a6a6a6;stroke-linecap:square;stroke-width:0.8;"/>
     </g>
     <g id="line2d_124">
      <g>
       <use style="stroke:#000000;stroke-width:0.8;" x="623.993987" xlink:href="#m7408df6697" y="633.6"/>
      </g>
     </g>
     <g id="text_21">
      <!-- 0.6 -->
      <g transform="translate(616.042425 648.198437)scale(0.1 -0.1)">
       <use xlink:href="#DejaVuSans-48"/>
       <use x="63.623047" xlink:href="#DejaVuSans-46"/>
       <use x="95.410156" xlink:href="#DejaVuSans-54"/>
      </g>
     </g>
    </g>
    <g id="xtick_15">
     <g id="line2d_125">
      <path clip-path="url(#pc468f859fe)" d="M 665.289084 633.6 
L 665.289084 79.2 
" style="fill:none;stroke:#a6a6a6;stroke-linecap:square;stroke-width:0.8;"/>
     </g>
     <g id="line2d_126">
      <g>
       <use style="stroke:#000000;stroke-width:0.8;" x="665.289084" xlink:href="#m7408df6697" y="633.6"/>
      </g>
     </g>
     <g id="text_22">
      <!-- 0.8 -->
      <g transform="translate(657.337522 648.198437)scale(0.1 -0.1)">
       <use xlink:href="#DejaVuSans-48"/>
       <use x="63.623047" xlink:href="#DejaVuSans-46"/>
       <use x="95.410156" xlink:href="#DejaVuSans-56"/>
      </g>
     </g>
    </g>
   </g>
   <g id="matplotlib.axis_6">
    <g id="ytick_44">
     <g id="line2d_127">
      <path clip-path="url(#pc468f859fe)" d="M 500.108696 555.452934 
L 694.195652 555.452934 
" style="fill:none;stroke:#a6a6a6;stroke-linecap:square;stroke-width:0.8;"/>
     </g>
     <g id="line2d_128">
      <g>
       <use style="stroke:#000000;stroke-width:0.8;" x="500.108696" xlink:href="#ma6632b7aa9" y="555.452934"/>
      </g>
     </g>
     <g id="text_23">
      <!-- $\mathdefault{10^{-4}}$ -->
      <g transform="translate(473.008696 559.252152)scale(0.1 -0.1)">
       <use transform="translate(0 0.684375)" xlink:href="#DejaVuSans-49"/>
       <use transform="translate(63.623047 0.684375)" xlink:href="#DejaVuSans-48"/>
       <use transform="translate(128.203125 38.965625)scale(0.7)" xlink:href="#DejaVuSans-45"/>
       <use transform="translate(153.461914 38.965625)scale(0.7)" xlink:href="#DejaVuSans-52"/>
      </g>
     </g>
    </g>
    <g id="ytick_45">
     <g id="line2d_129">
      <path clip-path="url(#pc468f859fe)" d="M 500.108696 184.91835 
L 694.195652 184.91835 
" style="fill:none;stroke:#a6a6a6;stroke-linecap:square;stroke-width:0.8;"/>
     </g>
     <g id="line2d_130">
      <g>
       <use style="stroke:#000000;stroke-width:0.8;" x="500.108696" xlink:href="#ma6632b7aa9" y="184.91835"/>
      </g>
     </g>
     <g id="text_24">
      <!-- $\mathdefault{10^{-3}}$ -->
      <defs>
       <path d="M 40.578125 39.3125 
Q 47.65625 37.796875 51.625 33 
Q 55.609375 28.21875 55.609375 21.1875 
Q 55.609375 10.40625 48.1875 4.484375 
Q 40.765625 -1.421875 27.09375 -1.421875 
Q 22.515625 -1.421875 17.65625 -0.515625 
Q 12.796875 0.390625 7.625 2.203125 
L 7.625 11.71875 
Q 11.71875 9.328125 16.59375 8.109375 
Q 21.484375 6.890625 26.8125 6.890625 
Q 36.078125 6.890625 40.9375 10.546875 
Q 45.796875 14.203125 45.796875 21.1875 
Q 45.796875 27.640625 41.28125 31.265625 
Q 36.765625 34.90625 28.71875 34.90625 
L 20.21875 34.90625 
L 20.21875 43.015625 
L 29.109375 43.015625 
Q 36.375 43.015625 40.234375 45.921875 
Q 44.09375 48.828125 44.09375 54.296875 
Q 44.09375 59.90625 40.109375 62.90625 
Q 36.140625 65.921875 28.71875 65.921875 
Q 24.65625 65.921875 20.015625 65.03125 
Q 15.375 64.15625 9.8125 62.3125 
L 9.8125 71.09375 
Q 15.4375 72.65625 20.34375 73.4375 
Q 25.25 74.21875 29.59375 74.21875 
Q 40.828125 74.21875 47.359375 69.109375 
Q 53.90625 64.015625 53.90625 55.328125 
Q 53.90625 49.265625 50.4375 45.09375 
Q 46.96875 40.921875 40.578125 39.3125 
z
" id="DejaVuSans-51"/>
      </defs>
      <g transform="translate(473.008696 188.717569)scale(0.1 -0.1)">
       <use transform="translate(0 0.765625)" xlink:href="#DejaVuSans-49"/>
       <use transform="translate(63.623047 0.765625)" xlink:href="#DejaVuSans-48"/>
       <use transform="translate(128.203125 39.046875)scale(0.7)" xlink:href="#DejaVuSans-45"/>
       <use transform="translate(153.461914 39.046875)scale(0.7)" xlink:href="#DejaVuSans-51"/>
      </g>
     </g>
    </g>
    <g id="ytick_46">
     <g id="line2d_131">
      <path clip-path="url(#pc468f859fe)" d="M 500.108696 612.849467 
L 694.195652 612.849467 
" style="fill:none;stroke:#a6a6a6;stroke-linecap:square;stroke-width:0.8;"/>
     </g>
     <g id="line2d_132">
      <g>
       <use style="stroke:#000000;stroke-width:0.6;" x="500.108696" xlink:href="#m981969f895" y="612.849467"/>
      </g>
     </g>
    </g>
    <g id="ytick_47">
     <g id="line2d_133">
      <path clip-path="url(#pc468f859fe)" d="M 500.108696 591.361445 
L 694.195652 591.361445 
" style="fill:none;stroke:#a6a6a6;stroke-linecap:square;stroke-width:0.8;"/>
     </g>
     <g id="line2d_134">
      <g>
       <use style="stroke:#000000;stroke-width:0.6;" x="500.108696" xlink:href="#m981969f895" y="591.361445"/>
      </g>
     </g>
    </g>
    <g id="ytick_48">
     <g id="line2d_135">
      <path clip-path="url(#pc468f859fe)" d="M 500.108696 572.407666 
L 694.195652 572.407666 
" style="fill:none;stroke:#a6a6a6;stroke-linecap:square;stroke-width:0.8;"/>
     </g>
     <g id="line2d_136">
      <g>
       <use style="stroke:#000000;stroke-width:0.6;" x="500.108696" xlink:href="#m981969f895" y="572.407666"/>
      </g>
     </g>
    </g>
    <g id="ytick_49">
     <g id="line2d_137">
      <path clip-path="url(#pc468f859fe)" d="M 500.108696 443.91091 
L 694.195652 443.91091 
" style="fill:none;stroke:#a6a6a6;stroke-linecap:square;stroke-width:0.8;"/>
     </g>
     <g id="line2d_138">
      <g>
       <use style="stroke:#000000;stroke-width:0.6;" x="500.108696" xlink:href="#m981969f895" y="443.91091"/>
      </g>
     </g>
    </g>
    <g id="ytick_50">
     <g id="line2d_139">
      <path clip-path="url(#pc468f859fe)" d="M 500.108696 378.663008 
L 694.195652 378.663008 
" style="fill:none;stroke:#a6a6a6;stroke-linecap:square;stroke-width:0.8;"/>
     </g>
     <g id="line2d_140">
      <g>
       <use style="stroke:#000000;stroke-width:0.6;" x="500.108696" xlink:href="#m981969f895" y="378.663008"/>
      </g>
     </g>
    </g>
    <g id="ytick_51">
     <g id="line2d_141">
      <path clip-path="url(#pc468f859fe)" d="M 500.108696 332.368886 
L 694.195652 332.368886 
" style="fill:none;stroke:#a6a6a6;stroke-linecap:square;stroke-width:0.8;"/>
     </g>
     <g id="line2d_142">
      <g>
       <use style="stroke:#000000;stroke-width:0.6;" x="500.108696" xlink:href="#m981969f895" y="332.368886"/>
      </g>
     </g>
    </g>
    <g id="ytick_52">
     <g id="line2d_143">
      <path clip-path="url(#pc468f859fe)" d="M 500.108696 296.460374 
L 694.195652 296.460374 
" style="fill:none;stroke:#a6a6a6;stroke-linecap:square;stroke-width:0.8;"/>
     </g>
     <g id="line2d_144">
      <g>
       <use style="stroke:#000000;stroke-width:0.6;" x="500.108696" xlink:href="#m981969f895" y="296.460374"/>
      </g>
     </g>
    </g>
    <g id="ytick_53">
     <g id="line2d_145">
      <path clip-path="url(#pc468f859fe)" d="M 500.108696 267.120984 
L 694.195652 267.120984 
" style="fill:none;stroke:#a6a6a6;stroke-linecap:square;stroke-width:0.8;"/>
     </g>
     <g id="line2d_146">
      <g>
       <use style="stroke:#000000;stroke-width:0.6;" x="500.108696" xlink:href="#m981969f895" y="267.120984"/>
      </g>
     </g>
    </g>
    <g id="ytick_54">
     <g id="line2d_147">
      <path clip-path="url(#pc468f859fe)" d="M 500.108696 242.314883 
L 694.195652 242.314883 
" style="fill:none;stroke:#a6a6a6;stroke-linecap:square;stroke-width:0.8;"/>
     </g>
     <g id="line2d_148">
      <g>
       <use style="stroke:#000000;stroke-width:0.6;" x="500.108696" xlink:href="#m981969f895" y="242.314883"/>
      </g>
     </g>
    </g>
    <g id="ytick_55">
     <g id="line2d_149">
      <path clip-path="url(#pc468f859fe)" d="M 500.108696 220.826862 
L 694.195652 220.826862 
" style="fill:none;stroke:#a6a6a6;stroke-linecap:square;stroke-width:0.8;"/>
     </g>
     <g id="line2d_150">
      <g>
       <use style="stroke:#000000;stroke-width:0.6;" x="500.108696" xlink:href="#m981969f895" y="220.826862"/>
      </g>
     </g>
    </g>
    <g id="ytick_56">
     <g id="line2d_151">
      <path clip-path="url(#pc468f859fe)" d="M 500.108696 201.873083 
L 694.195652 201.873083 
" style="fill:none;stroke:#a6a6a6;stroke-linecap:square;stroke-width:0.8;"/>
     </g>
     <g id="line2d_152">
      <g>
       <use style="stroke:#000000;stroke-width:0.6;" x="500.108696" xlink:href="#m981969f895" y="201.873083"/>
      </g>
     </g>
    </g>
   </g>
   <g id="line2d_153"/>
   <g id="line2d_154">
    <path clip-path="url(#pc468f859fe)" d="M 520.756244 104.4 
L 541.403793 110.74626 
L 562.051341 118.38451 
L 582.69889 127.523935 
L 603.346438 138.145773 
L 623.993987 150.998608 
L 644.641536 168.166445 
L 665.289084 194.609298 
L 685.936633 229.391397 
" style="fill:none;stroke:#ff7f0e;stroke-dasharray:7.4,3.2;stroke-dashoffset:0;stroke-opacity:0.8;stroke-width:2;"/>
   </g>
   <g id="line2d_155">
    <path clip-path="url(#pc468f859fe)" d="M 520.756244 167.550426 
L 541.403793 178.182573 
L 562.051341 190.503688 
L 582.69889 203.39958 
L 603.346438 219.992294 
L 623.993987 239.283271 
L 644.641536 266.431354 
L 665.289084 305.36044 
L 685.936633 336.125657 
" style="fill:none;stroke:#2ca02c;stroke-dasharray:7.4,3.2;stroke-dashoffset:0;stroke-opacity:0.8;stroke-width:2;"/>
   </g>
   <g id="line2d_156">
    <path clip-path="url(#pc468f859fe)" d="M 520.756244 181.129624 
L 541.403793 196.26785 
L 562.051341 215.674975 
L 582.69889 240.830709 
L 603.346438 269.956631 
L 623.993987 305.543405 
L 644.641536 344.005781 
L 665.289084 387.306464 
L 685.936633 418.797316 
" style="fill:none;stroke:#d62728;stroke-dasharray:7.4,3.2;stroke-dashoffset:0;stroke-opacity:0.8;stroke-width:2;"/>
   </g>
   <g id="line2d_157">
    <path clip-path="url(#pc468f859fe)" d="M 520.756244 392.937738 
L 541.403793 413.322821 
L 562.051341 436.270295 
L 582.69889 460.347179 
L 603.346438 486.59075 
L 623.993987 512.669541 
L 644.641536 540.349417 
L 665.289084 569.687942 
L 685.936633 608.4 
" style="fill:none;stroke:#9467bd;stroke-dasharray:7.4,3.2;stroke-dashoffset:0;stroke-opacity:0.8;stroke-width:2;"/>
   </g>
   <g id="patch_13">
    <path d="M 500.108696 633.6 
L 500.108696 79.2 
" style="fill:none;stroke:#000000;stroke-linecap:square;stroke-linejoin:miter;stroke-width:0.8;"/>
   </g>
   <g id="patch_14">
    <path d="M 694.195652 633.6 
L 694.195652 79.2 
" style="fill:none;stroke:#000000;stroke-linecap:square;stroke-linejoin:miter;stroke-width:0.8;"/>
   </g>
   <g id="patch_15">
    <path d="M 500.108696 633.6 
L 694.195652 633.6 
" style="fill:none;stroke:#000000;stroke-linecap:square;stroke-linejoin:miter;stroke-width:0.8;"/>
   </g>
   <g id="patch_16">
    <path d="M 500.108696 79.2 
L 694.195652 79.2 
" style="fill:none;stroke:#000000;stroke-linecap:square;stroke-linejoin:miter;stroke-width:0.8;"/>
   </g>
   <g id="text_25">
    <!-- NARMA15 -->
    <g transform="translate(555.602361 73.2)scale(0.168 -0.168)">
     <use xlink:href="#DejaVuSans-78"/>
     <use x="74.804688" xlink:href="#DejaVuSans-65"/>
     <use x="143.212891" xlink:href="#DejaVuSans-82"/>
     <use x="212.695312" xlink:href="#DejaVuSans-77"/>
     <use x="298.974609" xlink:href="#DejaVuSans-65"/>
     <use x="367.382812" xlink:href="#DejaVuSans-49"/>
     <use x="431.005859" xlink:href="#DejaVuSans-53"/>
    </g>
   </g>
  </g>
  <g id="axes_4">
   <g id="patch_17">
    <path d="M 733.013043 633.6 
L 927.1 633.6 
L 927.1 79.2 
L 733.013043 79.2 
z
" style="fill:#ffffff;"/>
   </g>
   <g id="matplotlib.axis_7">
    <g id="xtick_16">
     <g id="line2d_158">
      <path clip-path="url(#p917b2c592d)" d="M 733.013043 633.6 
L 733.013043 79.2 
" style="fill:none;stroke:#a6a6a6;stroke-linecap:square;stroke-width:0.8;"/>
     </g>
     <g id="line2d_159">
      <g>
       <use style="stroke:#000000;stroke-width:0.8;" x="733.013043" xlink:href="#m7408df6697" y="633.6"/>
      </g>
     </g>
     <g id="text_26">
      <!-- 0.0 -->
      <g transform="translate(725.061481 648.198437)scale(0.1 -0.1)">
       <use xlink:href="#DejaVuSans-48"/>
       <use x="63.623047" xlink:href="#DejaVuSans-46"/>
       <use x="95.410156" xlink:href="#DejaVuSans-48"/>
      </g>
     </g>
    </g>
    <g id="xtick_17">
     <g id="line2d_160">
      <path clip-path="url(#p917b2c592d)" d="M 774.308141 633.6 
L 774.308141 79.2 
" style="fill:none;stroke:#a6a6a6;stroke-linecap:square;stroke-width:0.8;"/>
     </g>
     <g id="line2d_161">
      <g>
       <use style="stroke:#000000;stroke-width:0.8;" x="774.308141" xlink:href="#m7408df6697" y="633.6"/>
      </g>
     </g>
     <g id="text_27">
      <!-- 0.2 -->
      <g transform="translate(766.356578 648.198437)scale(0.1 -0.1)">
       <use xlink:href="#DejaVuSans-48"/>
       <use x="63.623047" xlink:href="#DejaVuSans-46"/>
       <use x="95.410156" xlink:href="#DejaVuSans-50"/>
      </g>
     </g>
    </g>
    <g id="xtick_18">
     <g id="line2d_162">
      <path clip-path="url(#p917b2c592d)" d="M 815.603238 633.6 
L 815.603238 79.2 
" style="fill:none;stroke:#a6a6a6;stroke-linecap:square;stroke-width:0.8;"/>
     </g>
     <g id="line2d_163">
      <g>
       <use style="stroke:#000000;stroke-width:0.8;" x="815.603238" xlink:href="#m7408df6697" y="633.6"/>
      </g>
     </g>
     <g id="text_28">
      <!-- 0.4 -->
      <g transform="translate(807.651675 648.198437)scale(0.1 -0.1)">
       <use xlink:href="#DejaVuSans-48"/>
       <use x="63.623047" xlink:href="#DejaVuSans-46"/>
       <use x="95.410156" xlink:href="#DejaVuSans-52"/>
      </g>
     </g>
    </g>
    <g id="xtick_19">
     <g id="line2d_164">
      <path clip-path="url(#p917b2c592d)" d="M 856.898335 633.6 
L 856.898335 79.2 
" style="fill:none;stroke:#a6a6a6;stroke-linecap:square;stroke-width:0.8;"/>
     </g>
     <g id="line2d_165">
      <g>
       <use style="stroke:#000000;stroke-width:0.8;" x="856.898335" xlink:href="#m7408df6697" y="633.6"/>
      </g>
     </g>
     <g id="text_29">
      <!-- 0.6 -->
      <g transform="translate(848.946772 648.198437)scale(0.1 -0.1)">
       <use xlink:href="#DejaVuSans-48"/>
       <use x="63.623047" xlink:href="#DejaVuSans-46"/>
       <use x="95.410156" xlink:href="#DejaVuSans-54"/>
      </g>
     </g>
    </g>
    <g id="xtick_20">
     <g id="line2d_166">
      <path clip-path="url(#p917b2c592d)" d="M 898.193432 633.6 
L 898.193432 79.2 
" style="fill:none;stroke:#a6a6a6;stroke-linecap:square;stroke-width:0.8;"/>
     </g>
     <g id="line2d_167">
      <g>
       <use style="stroke:#000000;stroke-width:0.8;" x="898.193432" xlink:href="#m7408df6697" y="633.6"/>
      </g>
     </g>
     <g id="text_30">
      <!-- 0.8 -->
      <g transform="translate(890.24187 648.198437)scale(0.1 -0.1)">
       <use xlink:href="#DejaVuSans-48"/>
       <use x="63.623047" xlink:href="#DejaVuSans-46"/>
       <use x="95.410156" xlink:href="#DejaVuSans-56"/>
      </g>
     </g>
    </g>
   </g>
   <g id="matplotlib.axis_8">
    <g id="ytick_57">
     <g id="line2d_168">
      <path clip-path="url(#p917b2c592d)" d="M 733.013043 343.075673 
L 927.1 343.075673 
" style="fill:none;stroke:#a6a6a6;stroke-linecap:square;stroke-width:0.8;"/>
     </g>
     <g id="line2d_169">
      <g>
       <use style="stroke:#000000;stroke-width:0.8;" x="733.013043" xlink:href="#ma6632b7aa9" y="343.075673"/>
      </g>
     </g>
     <g id="text_31">
      <!-- $\mathdefault{10^{-3}}$ -->
      <g transform="translate(705.913043 346.874891)scale(0.1 -0.1)">
       <use transform="translate(0 0.765625)" xlink:href="#DejaVuSans-49"/>
       <use transform="translate(63.623047 0.765625)" xlink:href="#DejaVuSans-48"/>
       <use transform="translate(128.203125 39.046875)scale(0.7)" xlink:href="#DejaVuSans-45"/>
       <use transform="translate(153.461914 39.046875)scale(0.7)" xlink:href="#DejaVuSans-51"/>
      </g>
     </g>
    </g>
    <g id="ytick_58">
     <g id="line2d_170">
      <path clip-path="url(#p917b2c592d)" d="M 733.013043 571.408737 
L 927.1 571.408737 
" style="fill:none;stroke:#a6a6a6;stroke-linecap:square;stroke-width:0.8;"/>
     </g>
     <g id="line2d_171">
      <g>
       <use style="stroke:#000000;stroke-width:0.6;" x="733.013043" xlink:href="#m981969f895" y="571.408737"/>
      </g>
     </g>
    </g>
    <g id="ytick_59">
     <g id="line2d_172">
      <path clip-path="url(#p917b2c592d)" d="M 733.013043 511.349285 
L 927.1 511.349285 
" style="fill:none;stroke:#a6a6a6;stroke-linecap:square;stroke-width:0.8;"/>
     </g>
     <g id="line2d_173">
      <g>
       <use style="stroke:#000000;stroke-width:0.6;" x="733.013043" xlink:href="#m981969f895" y="511.349285"/>
      </g>
     </g>
     <g id="text_32">
      <!-- $\mathdefault{6\times10^{-4}}$ -->
      <defs>
       <path d="M 70.125 53.71875 
L 47.796875 31.296875 
L 70.125 8.984375 
L 64.3125 3.078125 
L 41.890625 25.484375 
L 19.484375 3.078125 
L 13.71875 8.984375 
L 35.984375 31.296875 
L 13.71875 53.71875 
L 19.484375 59.625 
L 41.890625 37.203125 
L 64.3125 59.625 
z
" id="DejaVuSans-215"/>
      </defs>
      <g transform="translate(688.813043 515.148504)scale(0.1 -0.1)">
       <use transform="translate(0 0.684375)" xlink:href="#DejaVuSans-54"/>
       <use transform="translate(83.105469 0.684375)" xlink:href="#DejaVuSans-215"/>
       <use transform="translate(186.376953 0.684375)" xlink:href="#DejaVuSans-49"/>
       <use transform="translate(250 0.684375)" xlink:href="#DejaVuSans-48"/>
       <use transform="translate(314.580078 38.965625)scale(0.7)" xlink:href="#DejaVuSans-45"/>
       <use transform="translate(339.838867 38.965625)scale(0.7)" xlink:href="#DejaVuSans-52"/>
      </g>
     </g>
    </g>
    <g id="ytick_60">
     <g id="line2d_174">
      <path clip-path="url(#p917b2c592d)" d="M 733.013043 460.569742 
L 927.1 460.569742 
" style="fill:none;stroke:#a6a6a6;stroke-linecap:square;stroke-width:0.8;"/>
     </g>
     <g id="line2d_175">
      <g>
       <use style="stroke:#000000;stroke-width:0.6;" x="733.013043" xlink:href="#m981969f895" y="460.569742"/>
      </g>
     </g>
    </g>
    <g id="ytick_61">
     <g id="line2d_176">
      <path clip-path="url(#p917b2c592d)" d="M 733.013043 416.582501 
L 927.1 416.582501 
" style="fill:none;stroke:#a6a6a6;stroke-linecap:square;stroke-width:0.8;"/>
     </g>
     <g id="line2d_177">
      <g>
       <use style="stroke:#000000;stroke-width:0.6;" x="733.013043" xlink:href="#m981969f895" y="416.582501"/>
      </g>
     </g>
    </g>
    <g id="ytick_62">
     <g id="line2d_178">
      <path clip-path="url(#p917b2c592d)" d="M 733.013043 377.783005 
L 927.1 377.783005 
" style="fill:none;stroke:#a6a6a6;stroke-linecap:square;stroke-width:0.8;"/>
     </g>
     <g id="line2d_179">
      <g>
       <use style="stroke:#000000;stroke-width:0.6;" x="733.013043" xlink:href="#m981969f895" y="377.783005"/>
      </g>
     </g>
    </g>
    <g id="ytick_63">
     <g id="line2d_180">
      <path clip-path="url(#p917b2c592d)" d="M 733.013043 114.742608 
L 927.1 114.742608 
" style="fill:none;stroke:#a6a6a6;stroke-linecap:square;stroke-width:0.8;"/>
     </g>
     <g id="line2d_181">
      <g>
       <use style="stroke:#000000;stroke-width:0.6;" x="733.013043" xlink:href="#m981969f895" y="114.742608"/>
      </g>
     </g>
     <g id="text_33">
      <!-- $\mathdefault{2\times10^{-3}}$ -->
      <g transform="translate(688.813043 118.541827)scale(0.1 -0.1)">
       <use transform="translate(0 0.765625)" xlink:href="#DejaVuSans-50"/>
       <use transform="translate(83.105469 0.765625)" xlink:href="#DejaVuSans-215"/>
       <use transform="translate(186.376953 0.765625)" xlink:href="#DejaVuSans-49"/>
       <use transform="translate(250 0.765625)" xlink:href="#DejaVuSans-48"/>
       <use transform="translate(314.580078 39.046875)scale(0.7)" xlink:href="#DejaVuSans-45"/>
       <use transform="translate(339.838867 39.046875)scale(0.7)" xlink:href="#DejaVuSans-51"/>
      </g>
     </g>
    </g>
   </g>
   <g id="line2d_182"/>
   <g id="line2d_183">
    <path clip-path="url(#p917b2c592d)" d="M 753.660592 104.4 
L 774.308141 108.914082 
L 794.955689 114.249394 
L 815.603238 120.20379 
L 836.250786 127.428567 
L 856.898335 134.878456 
L 877.545883 145.301102 
L 898.193432 158.669708 
L 918.840981 199.468594 
" style="fill:none;stroke:#ff7f0e;stroke-dasharray:7.4,3.2;stroke-dashoffset:0;stroke-opacity:0.8;stroke-width:2;"/>
   </g>
   <g id="line2d_184">
    <path clip-path="url(#p917b2c592d)" d="M 753.660592 163.807666 
L 774.308141 172.007358 
L 794.955689 182.374746 
L 815.603238 193.622227 
L 836.250786 207.991665 
L 856.898335 226.530704 
L 877.545883 245.269508 
L 898.193432 258.790481 
L 918.840981 313.881447 
" style="fill:none;stroke:#2ca02c;stroke-dasharray:7.4,3.2;stroke-dashoffset:0;stroke-opacity:0.8;stroke-width:2;"/>
   </g>
   <g id="line2d_185">
    <path clip-path="url(#p917b2c592d)" d="M 753.660592 167.010854 
L 774.308141 182.887578 
L 794.955689 200.589994 
L 815.603238 221.061717 
L 836.250786 244.217346 
L 856.898335 270.556713 
L 877.545883 299.871796 
L 898.193432 337.651026 
L 918.840981 393.485829 
" style="fill:none;stroke:#d62728;stroke-dasharray:7.4,3.2;stroke-dashoffset:0;stroke-opacity:0.8;stroke-width:2;"/>
   </g>
   <g id="line2d_186">
    <path clip-path="url(#p917b2c592d)" d="M 753.660592 324.808241 
L 774.308141 353.266008 
L 794.955689 385.899213 
L 815.603238 417.779755 
L 836.250786 452.351611 
L 856.898335 488.982296 
L 877.545883 524.358901 
L 898.193432 562.377766 
L 918.840981 608.4 
" style="fill:none;stroke:#9467bd;stroke-dasharray:7.4,3.2;stroke-dashoffset:0;stroke-opacity:0.8;stroke-width:2;"/>
   </g>
   <g id="patch_18">
    <path d="M 733.013043 633.6 
L 733.013043 79.2 
" style="fill:none;stroke:#000000;stroke-linecap:square;stroke-linejoin:miter;stroke-width:0.8;"/>
   </g>
   <g id="patch_19">
    <path d="M 927.1 633.6 
L 927.1 79.2 
" style="fill:none;stroke:#000000;stroke-linecap:square;stroke-linejoin:miter;stroke-width:0.8;"/>
   </g>
   <g id="patch_20">
    <path d="M 733.013043 633.6 
L 927.1 633.6 
" style="fill:none;stroke:#000000;stroke-linecap:square;stroke-linejoin:miter;stroke-width:0.8;"/>
   </g>
   <g id="patch_21">
    <path d="M 733.013043 79.2 
L 927.1 79.2 
" style="fill:none;stroke:#000000;stroke-linecap:square;stroke-linejoin:miter;stroke-width:0.8;"/>
   </g>
   <g id="text_34">
    <!-- NARMA20 -->
    <g transform="translate(788.506709 73.2)scale(0.168 -0.168)">
     <use xlink:href="#DejaVuSans-78"/>
     <use x="74.804688" xlink:href="#DejaVuSans-65"/>
     <use x="143.212891" xlink:href="#DejaVuSans-82"/>
     <use x="212.695312" xlink:href="#DejaVuSans-77"/>
     <use x="298.974609" xlink:href="#DejaVuSans-65"/>
     <use x="367.382812" xlink:href="#DejaVuSans-50"/>
     <use x="431.005859" xlink:href="#DejaVuSans-48"/>
    </g>
   </g>
   <g id="legend_1">
    <g id="patch_22">
     <path d="M 940.781739 193.146875 
L 994.489239 193.146875 
Q 997.289239 193.146875 997.289239 190.346875 
L 997.289239 89 
Q 997.289239 86.2 994.489239 86.2 
L 940.781739 86.2 
Q 937.981739 86.2 937.981739 89 
L 937.981739 190.346875 
Q 937.981739 193.146875 940.781739 193.146875 
z
" style="fill:#ffffff;opacity:0.8;stroke:#cccccc;stroke-linejoin:miter;"/>
    </g>
    <g id="line2d_187">
     <path d="M 943.581739 97.537812 
L 971.581739 97.537812 
" style="fill:none;stroke:#1f77b4;stroke-dasharray:7.4,3.2;stroke-dashoffset:0;stroke-opacity:0.8;stroke-width:2;"/>
    </g>
    <g id="line2d_188"/>
    <g id="text_35">
     <!-- 1 -->
     <defs>
      <path d="M 14.203125 0 
L 14.203125 5.171875 
L 26.90625 5.171875 
L 26.90625 65.828125 
L 12.203125 56.296875 
L 12.203125 62.703125 
L 29.984375 74.21875 
L 36.71875 74.21875 
L 36.71875 5.171875 
L 49.421875 5.171875 
L 49.421875 0 
z
" id="DejaVuSerif-49"/>
     </defs>
     <g transform="translate(982.781739 102.437812)scale(0.14 -0.14)">
      <use xlink:href="#DejaVuSerif-49"/>
     </g>
    </g>
    <g id="line2d_189">
     <path d="M 943.581739 118.087187 
L 971.581739 118.087187 
" style="fill:none;stroke:#ff7f0e;stroke-dasharray:7.4,3.2;stroke-dashoffset:0;stroke-opacity:0.8;stroke-width:2;"/>
    </g>
    <g id="line2d_190"/>
    <g id="text_36">
     <!-- 2 -->
     <defs>
      <path d="M 12.796875 55.515625 
L 7.328125 55.515625 
L 7.328125 68.5 
Q 12.546875 71.296875 17.84375 72.75 
Q 23.140625 74.21875 28.21875 74.21875 
Q 39.59375 74.21875 46.1875 68.703125 
Q 52.78125 63.1875 52.78125 53.71875 
Q 52.78125 43.015625 37.84375 28.125 
Q 36.671875 27 36.078125 26.421875 
L 17.671875 8.015625 
L 48.09375 8.015625 
L 48.09375 17 
L 53.8125 17 
L 53.8125 0 
L 6.78125 0 
L 6.78125 5.328125 
L 28.90625 27.390625 
Q 36.234375 34.71875 39.359375 40.84375 
Q 42.484375 46.96875 42.484375 53.71875 
Q 42.484375 61.078125 38.640625 65.234375 
Q 34.8125 69.390625 28.078125 69.390625 
Q 21.09375 69.390625 17.28125 65.921875 
Q 13.484375 62.453125 12.796875 55.515625 
z
" id="DejaVuSerif-50"/>
     </defs>
     <g transform="translate(982.781739 122.987188)scale(0.14 -0.14)">
      <use xlink:href="#DejaVuSerif-50"/>
     </g>
    </g>
    <g id="line2d_191">
     <path d="M 943.581739 138.636562 
L 971.581739 138.636562 
" style="fill:none;stroke:#2ca02c;stroke-dasharray:7.4,3.2;stroke-dashoffset:0;stroke-opacity:0.8;stroke-width:2;"/>
    </g>
    <g id="line2d_192"/>
    <g id="text_37">
     <!-- 3 -->
     <defs>
      <path d="M 9.71875 69.828125 
Q 15.4375 71.96875 20.671875 73.09375 
Q 25.921875 74.21875 30.515625 74.21875 
Q 41.21875 74.21875 47.21875 69.59375 
Q 53.21875 64.984375 53.21875 56.78125 
Q 53.21875 50.203125 49.0625 45.78125 
Q 44.921875 41.359375 37.3125 39.796875 
Q 46.296875 38.53125 51.25 33.28125 
Q 56.203125 28.03125 56.203125 19.671875 
Q 56.203125 9.46875 49.34375 4.015625 
Q 42.484375 -1.421875 29.59375 -1.421875 
Q 23.875 -1.421875 18.421875 -0.1875 
Q 12.984375 1.03125 7.625 3.515625 
L 7.625 17.671875 
L 13.09375 17.671875 
Q 13.578125 10.640625 17.828125 7.03125 
Q 22.078125 3.421875 29.78125 3.421875 
Q 37.25 3.421875 41.578125 7.734375 
Q 45.90625 12.0625 45.90625 19.578125 
Q 45.90625 28.171875 41.453125 32.59375 
Q 37.015625 37.015625 28.421875 37.015625 
L 23.78125 37.015625 
L 23.78125 42 
L 26.21875 42 
Q 34.765625 42 39.03125 45.53125 
Q 43.3125 49.078125 43.3125 56.203125 
Q 43.3125 62.59375 39.796875 65.984375 
Q 36.28125 69.390625 29.6875 69.390625 
Q 23.09375 69.390625 19.453125 66.265625 
Q 15.828125 63.140625 15.1875 56.984375 
L 9.71875 56.984375 
z
" id="DejaVuSerif-51"/>
     </defs>
     <g transform="translate(982.781739 143.536562)scale(0.14 -0.14)">
      <use xlink:href="#DejaVuSerif-51"/>
     </g>
    </g>
    <g id="line2d_193">
     <path d="M 943.581739 159.185937 
L 971.581739 159.185937 
" style="fill:none;stroke:#d62728;stroke-dasharray:7.4,3.2;stroke-dashoffset:0;stroke-opacity:0.8;stroke-width:2;"/>
    </g>
    <g id="line2d_194"/>
    <g id="text_38">
     <!-- 4 -->
     <defs>
      <path d="M 34.90625 24.703125 
L 34.90625 63.484375 
L 10.015625 24.703125 
z
M 56.390625 0 
L 23.1875 0 
L 23.1875 5.171875 
L 34.90625 5.171875 
L 34.90625 19.484375 
L 3.078125 19.484375 
L 3.078125 24.8125 
L 35.015625 74.21875 
L 44.671875 74.21875 
L 44.671875 24.703125 
L 58.59375 24.703125 
L 58.59375 19.484375 
L 44.671875 19.484375 
L 44.671875 5.171875 
L 56.390625 5.171875 
z
" id="DejaVuSerif-52"/>
     </defs>
     <g transform="translate(982.781739 164.085937)scale(0.14 -0.14)">
      <use xlink:href="#DejaVuSerif-52"/>
     </g>
    </g>
    <g id="line2d_195">
     <path d="M 943.581739 179.735312 
L 971.581739 179.735312 
" style="fill:none;stroke:#9467bd;stroke-dasharray:7.4,3.2;stroke-dashoffset:0;stroke-opacity:0.8;stroke-width:2;"/>
    </g>
    <g id="line2d_196"/>
    <g id="text_39">
     <!-- 5 -->
     <defs>
      <path d="M 50.296875 72.90625 
L 50.296875 64.890625 
L 16.890625 64.890625 
L 16.890625 44 
Q 19.4375 45.75 22.828125 46.625 
Q 26.21875 47.515625 30.421875 47.515625 
Q 42.234375 47.515625 49.0625 40.96875 
Q 55.90625 34.421875 55.90625 23.09375 
Q 55.90625 11.53125 49 5.046875 
Q 42.09375 -1.421875 29.59375 -1.421875 
Q 24.5625 -1.421875 19.28125 -0.1875 
Q 14.015625 1.03125 8.5 3.515625 
L 8.5 17.671875 
L 14.015625 17.671875 
Q 14.453125 10.75 18.421875 7.078125 
Q 22.40625 3.421875 29.59375 3.421875 
Q 37.3125 3.421875 41.453125 8.5 
Q 45.609375 13.578125 45.609375 23.09375 
Q 45.609375 32.5625 41.484375 37.609375 
Q 37.359375 42.671875 29.59375 42.671875 
Q 25.203125 42.671875 21.84375 41.109375 
Q 18.5 39.546875 15.921875 36.28125 
L 11.71875 36.28125 
L 11.71875 72.90625 
z
" id="DejaVuSerif-53"/>
     </defs>
     <g transform="translate(982.781739 184.635312)scale(0.14 -0.14)">
      <use xlink:href="#DejaVuSerif-53"/>
     </g>
    </g>
   </g>
  </g>
  <g id="text_40">
   <!-- resnarma_deep_strength\tdelta_2.0_V_20_layers_2_3_4_5_narma_20_ntrials_10_NMSE.txt -->
   <defs>
    <path d="M 47.796875 52 
L 47.796875 39.015625 
L 42.625 39.015625 
Q 42.390625 42.875 40.484375 44.78125 
Q 38.578125 46.6875 34.90625 46.6875 
Q 28.265625 46.6875 24.71875 42.09375 
Q 21.1875 37.5 21.1875 28.90625 
L 21.1875 5.171875 
L 31.59375 5.171875 
L 31.59375 0 
L 4.109375 0 
L 4.109375 5.171875 
L 12.203125 5.171875 
L 12.203125 46.78125 
L 3.609375 46.78125 
L 3.609375 51.90625 
L 21.1875 51.90625 
L 21.1875 42.671875 
Q 23.828125 48.09375 27.96875 50.703125 
Q 32.125 53.328125 38.09375 53.328125 
Q 40.28125 53.328125 42.703125 52.984375 
Q 45.125 52.640625 47.796875 52 
z
" id="DejaVuSerif-114"/>
    <path d="M 54.203125 25 
L 15.484375 25 
L 15.484375 24.609375 
Q 15.484375 14.109375 19.4375 8.765625 
Q 23.390625 3.421875 31.109375 3.421875 
Q 37.015625 3.421875 40.796875 6.515625 
Q 44.578125 9.625 46.09375 15.71875 
L 53.328125 15.71875 
Q 51.171875 7.171875 45.375 2.875 
Q 39.59375 -1.421875 30.171875 -1.421875 
Q 18.796875 -1.421875 11.890625 6.078125 
Q 4.984375 13.578125 4.984375 25.984375 
Q 4.984375 38.28125 11.765625 45.796875 
Q 18.5625 53.328125 29.59375 53.328125 
Q 41.359375 53.328125 47.65625 46.0625 
Q 53.953125 38.8125 54.203125 25 
z
M 43.609375 30.171875 
Q 43.3125 39.265625 39.765625 43.875 
Q 36.234375 48.484375 29.59375 48.484375 
Q 23.390625 48.484375 19.828125 43.84375 
Q 16.265625 39.203125 15.484375 30.171875 
z
" id="DejaVuSerif-101"/>
    <path d="M 5.609375 2.875 
L 5.609375 14.984375 
L 10.796875 14.984375 
Q 10.984375 9.1875 14.421875 6.296875 
Q 17.875 3.421875 24.609375 3.421875 
Q 30.671875 3.421875 33.84375 5.6875 
Q 37.015625 7.953125 37.015625 12.3125 
Q 37.015625 15.71875 34.6875 17.8125 
Q 32.375 19.921875 24.90625 22.3125 
L 18.40625 24.515625 
Q 11.71875 26.65625 8.71875 29.875 
Q 5.71875 33.109375 5.71875 38.09375 
Q 5.71875 45.21875 10.9375 49.265625 
Q 16.15625 53.328125 25.390625 53.328125 
Q 29.5 53.328125 34.03125 52.25 
Q 38.578125 51.171875 43.40625 49.125 
L 43.40625 37.796875 
L 38.234375 37.796875 
Q 38.03125 42.828125 34.703125 45.65625 
Q 31.390625 48.484375 25.6875 48.484375 
Q 20.015625 48.484375 17.109375 46.484375 
Q 14.203125 44.484375 14.203125 40.484375 
Q 14.203125 37.203125 16.40625 35.21875 
Q 18.609375 33.25 25.203125 31.203125 
L 32.328125 29 
Q 39.703125 26.703125 42.9375 23.265625 
Q 46.1875 19.828125 46.1875 14.40625 
Q 46.1875 7.03125 40.546875 2.796875 
Q 34.90625 -1.421875 25 -1.421875 
Q 19.96875 -1.421875 15.1875 -0.34375 
Q 10.40625 0.734375 5.609375 2.875 
z
" id="DejaVuSerif-115"/>
    <path d="M 4.109375 0 
L 4.109375 5.171875 
L 12.203125 5.171875 
L 12.203125 46.6875 
L 3.609375 46.6875 
L 3.609375 51.90625 
L 21.1875 51.90625 
L 21.1875 42.671875 
Q 23.6875 47.953125 27.65625 50.640625 
Q 31.640625 53.328125 36.921875 53.328125 
Q 45.515625 53.328125 49.5625 48.390625 
Q 53.609375 43.453125 53.609375 33.015625 
L 53.609375 5.171875 
L 61.625 5.171875 
L 61.625 0 
L 36.8125 0 
L 36.8125 5.171875 
L 44.578125 5.171875 
L 44.578125 30.171875 
Q 44.578125 39.703125 42.234375 43.234375 
Q 39.890625 46.78125 33.984375 46.78125 
Q 27.734375 46.78125 24.453125 42.203125 
Q 21.1875 37.640625 21.1875 28.90625 
L 21.1875 5.171875 
L 29 5.171875 
L 29 0 
z
" id="DejaVuSerif-110"/>
    <path d="M 39.796875 16.3125 
L 39.796875 27.296875 
L 28.21875 27.296875 
Q 21.53125 27.296875 18.25 24.40625 
Q 14.984375 21.53125 14.984375 15.578125 
Q 14.984375 10.15625 18.296875 6.984375 
Q 21.625 3.8125 27.296875 3.8125 
Q 32.90625 3.8125 36.34375 7.28125 
Q 39.796875 10.75 39.796875 16.3125 
z
M 48.78125 32.421875 
L 48.78125 5.171875 
L 56.78125 5.171875 
L 56.78125 0 
L 39.796875 0 
L 39.796875 5.609375 
Q 36.8125 2 32.90625 0.28125 
Q 29 -1.421875 23.78125 -1.421875 
Q 15.140625 -1.421875 10.0625 3.171875 
Q 4.984375 7.765625 4.984375 15.578125 
Q 4.984375 23.640625 10.796875 28.078125 
Q 16.609375 32.515625 27.203125 32.515625 
L 39.796875 32.515625 
L 39.796875 36.078125 
Q 39.796875 42 36.203125 45.234375 
Q 32.625 48.484375 26.125 48.484375 
Q 20.75 48.484375 17.578125 46.046875 
Q 14.40625 43.609375 13.625 38.8125 
L 8.984375 38.8125 
L 8.984375 49.3125 
Q 13.671875 51.3125 18.09375 52.3125 
Q 22.515625 53.328125 26.703125 53.328125 
Q 37.5 53.328125 43.140625 47.96875 
Q 48.78125 42.625 48.78125 32.421875 
z
" id="DejaVuSerif-97"/>
    <path d="M 51.8125 41.796875 
Q 54.390625 47.515625 58.421875 50.421875 
Q 62.453125 53.328125 67.828125 53.328125 
Q 75.984375 53.328125 79.984375 48.265625 
Q 83.984375 43.21875 83.984375 33.015625 
L 83.984375 5.171875 
L 92.09375 5.171875 
L 92.09375 0 
L 67.1875 0 
L 67.1875 5.171875 
L 75 5.171875 
L 75 31.984375 
Q 75 39.9375 72.65625 43.3125 
Q 70.3125 46.6875 64.890625 46.6875 
Q 58.890625 46.6875 55.734375 42.140625 
Q 52.59375 37.59375 52.59375 28.90625 
L 52.59375 5.171875 
L 60.40625 5.171875 
L 60.40625 0 
L 35.796875 0 
L 35.796875 5.171875 
L 43.609375 5.171875 
L 43.609375 32.328125 
Q 43.609375 40.09375 41.265625 43.390625 
Q 38.921875 46.6875 33.5 46.6875 
Q 27.484375 46.6875 24.328125 42.140625 
Q 21.1875 37.59375 21.1875 28.90625 
L 21.1875 5.171875 
L 29 5.171875 
L 29 0 
L 4.109375 0 
L 4.109375 5.171875 
L 12.203125 5.171875 
L 12.203125 46.78125 
L 3.609375 46.78125 
L 3.609375 51.90625 
L 21.1875 51.90625 
L 21.1875 42.671875 
Q 23.6875 47.859375 27.53125 50.59375 
Q 31.390625 53.328125 36.28125 53.328125 
Q 42.328125 53.328125 46.375 50.3125 
Q 50.4375 47.3125 51.8125 41.796875 
z
" id="DejaVuSerif-109"/>
    <path d="M 50 -19.671875 
L 50 -23.578125 
L 0 -23.578125 
L 0 -19.671875 
z
" id="DejaVuSerif-95"/>
    <path d="M 52.484375 5.171875 
L 61.078125 5.171875 
L 61.078125 0 
L 43.5 0 
L 43.5 8.109375 
Q 40.875 3.21875 36.796875 0.890625 
Q 32.71875 -1.421875 26.703125 -1.421875 
Q 17.140625 -1.421875 11.0625 6.171875 
Q 4.984375 13.765625 4.984375 25.984375 
Q 4.984375 38.1875 11.03125 45.75 
Q 17.09375 53.328125 26.703125 53.328125 
Q 32.71875 53.328125 36.796875 51 
Q 40.875 48.6875 43.5 43.796875 
L 43.5 70.796875 
L 35.015625 70.796875 
L 35.015625 75.984375 
L 52.484375 75.984375 
z
M 43.5 23.390625 
L 43.5 28.515625 
Q 43.5 37.84375 39.90625 42.765625 
Q 36.328125 47.703125 29.5 47.703125 
Q 22.5625 47.703125 19.015625 42.234375 
Q 15.484375 36.765625 15.484375 25.984375 
Q 15.484375 15.234375 19.015625 9.71875 
Q 22.5625 4.203125 29.5 4.203125 
Q 36.328125 4.203125 39.90625 9.109375 
Q 43.5 14.015625 43.5 23.390625 
z
" id="DejaVuSerif-100"/>
    <path d="M 20.515625 28.515625 
L 20.515625 23.390625 
Q 20.515625 14.015625 24.09375 9.109375 
Q 27.6875 4.203125 34.515625 4.203125 
Q 41.40625 4.203125 44.9375 9.71875 
Q 48.484375 15.234375 48.484375 25.984375 
Q 48.484375 36.765625 44.9375 42.234375 
Q 41.40625 47.703125 34.515625 47.703125 
Q 27.6875 47.703125 24.09375 42.765625 
Q 20.515625 37.84375 20.515625 28.515625 
z
M 11.53125 46.6875 
L 2.875 46.6875 
L 2.875 51.90625 
L 20.515625 51.90625 
L 20.515625 43.796875 
Q 23.140625 48.6875 27.21875 51 
Q 31.296875 53.328125 37.3125 53.328125 
Q 46.875 53.328125 52.921875 45.75 
Q 58.984375 38.1875 58.984375 25.984375 
Q 58.984375 13.765625 52.921875 6.171875 
Q 46.875 -1.421875 37.3125 -1.421875 
Q 31.296875 -1.421875 27.21875 0.890625 
Q 23.140625 3.21875 20.515625 8.109375 
L 20.515625 -15.578125 
L 29 -15.578125 
L 29 -20.796875 
L 2.875 -20.796875 
L 2.875 -15.578125 
L 11.53125 -15.578125 
z
" id="DejaVuSerif-112"/>
    <path d="M 10.796875 46.6875 
L 2.875 46.6875 
L 2.875 51.90625 
L 10.796875 51.90625 
L 10.796875 68.015625 
L 19.828125 68.015625 
L 19.828125 51.90625 
L 36.71875 51.90625 
L 36.71875 46.6875 
L 19.828125 46.6875 
L 19.828125 13.71875 
Q 19.828125 7.125 21.09375 5.265625 
Q 22.359375 3.421875 25.78125 3.421875 
Q 29.296875 3.421875 30.90625 5.484375 
Q 32.515625 7.5625 32.625 12.203125 
L 39.40625 12.203125 
Q 39.015625 5.125 35.546875 1.84375 
Q 32.078125 -1.421875 25 -1.421875 
Q 17.234375 -1.421875 14.015625 2.015625 
Q 10.796875 5.46875 10.796875 13.71875 
z
" id="DejaVuSerif-116"/>
    <path d="M 52.484375 46.6875 
L 52.484375 1.125 
Q 52.484375 -10.0625 46.328125 -16.140625 
Q 40.1875 -22.21875 28.8125 -22.21875 
Q 23.6875 -22.21875 19 -21.28125 
Q 14.3125 -20.359375 10.015625 -18.5 
L 10.015625 -7.625 
L 14.703125 -7.625 
Q 15.578125 -12.703125 18.84375 -15.046875 
Q 22.125 -17.390625 28.21875 -17.390625 
Q 36.140625 -17.390625 39.8125 -12.921875 
Q 43.5 -8.453125 43.5 1.125 
L 43.5 8.109375 
Q 40.875 3.21875 36.796875 0.890625 
Q 32.71875 -1.421875 26.703125 -1.421875 
Q 17.140625 -1.421875 11.0625 6.171875 
Q 4.984375 13.765625 4.984375 25.984375 
Q 4.984375 38.1875 11.03125 45.75 
Q 17.09375 53.328125 26.703125 53.328125 
Q 32.71875 53.328125 36.796875 51 
Q 40.875 48.6875 43.5 43.796875 
L 43.5 51.90625 
L 61.078125 51.90625 
L 61.078125 46.6875 
z
M 43.5 28.515625 
Q 43.5 37.84375 39.90625 42.765625 
Q 36.328125 47.703125 29.5 47.703125 
Q 22.5625 47.703125 19.015625 42.234375 
Q 15.484375 36.765625 15.484375 25.984375 
Q 15.484375 15.234375 19.015625 9.71875 
Q 22.5625 4.203125 29.5 4.203125 
Q 36.328125 4.203125 39.90625 9.109375 
Q 43.5 14.015625 43.5 23.390625 
z
" id="DejaVuSerif-103"/>
    <path d="M 4.109375 0 
L 4.109375 5.171875 
L 12.203125 5.171875 
L 12.203125 70.796875 
L 3.609375 70.796875 
L 3.609375 75.984375 
L 21.1875 75.984375 
L 21.1875 42.671875 
Q 23.6875 47.953125 27.65625 50.640625 
Q 31.640625 53.328125 36.921875 53.328125 
Q 45.515625 53.328125 49.5625 48.390625 
Q 53.609375 43.453125 53.609375 33.015625 
L 53.609375 5.171875 
L 61.625 5.171875 
L 61.625 0 
L 36.8125 0 
L 36.8125 5.171875 
L 44.578125 5.171875 
L 44.578125 30.171875 
Q 44.578125 39.703125 42.25 43.1875 
Q 39.9375 46.6875 33.984375 46.6875 
Q 27.734375 46.6875 24.453125 42.140625 
Q 21.1875 37.59375 21.1875 28.90625 
L 21.1875 5.171875 
L 29 5.171875 
L 29 0 
z
" id="DejaVuSerif-104"/>
    <path d="M 7.8125 72.90625 
L 33.6875 -9.28125 
L 25.875 -9.28125 
L 0 72.90625 
z
" id="DejaVuSerif-92"/>
    <path d="M 20.515625 5.171875 
L 29 5.171875 
L 29 0 
L 2.875 0 
L 2.875 5.171875 
L 11.53125 5.171875 
L 11.53125 70.796875 
L 2.875 70.796875 
L 2.875 75.984375 
L 20.515625 75.984375 
z
" id="DejaVuSerif-108"/>
    <path d="M 9.421875 5.078125 
Q 9.421875 7.8125 11.28125 9.71875 
Q 13.140625 11.625 15.921875 11.625 
Q 18.609375 11.625 20.5 9.71875 
Q 22.40625 7.8125 22.40625 5.078125 
Q 22.40625 2.390625 20.5 0.484375 
Q 18.609375 -1.421875 15.921875 -1.421875 
Q 13.140625 -1.421875 11.28125 0.453125 
Q 9.421875 2.34375 9.421875 5.078125 
z
" id="DejaVuSerif-46"/>
    <path d="M 31.78125 3.421875 
Q 39.265625 3.421875 42.96875 11.625 
Q 46.6875 19.828125 46.6875 36.375 
Q 46.6875 52.984375 42.96875 61.1875 
Q 39.265625 69.390625 31.78125 69.390625 
Q 24.3125 69.390625 20.59375 61.1875 
Q 16.890625 52.984375 16.890625 36.375 
Q 16.890625 19.828125 20.59375 11.625 
Q 24.3125 3.421875 31.78125 3.421875 
z
M 31.78125 -1.421875 
Q 19.921875 -1.421875 13.25 8.53125 
Q 6.59375 18.5 6.59375 36.375 
Q 6.59375 54.296875 13.25 64.25 
Q 19.921875 74.21875 31.78125 74.21875 
Q 43.703125 74.21875 50.34375 64.25 
Q 56.984375 54.296875 56.984375 36.375 
Q 56.984375 18.5 50.34375 8.53125 
Q 43.703125 -1.421875 31.78125 -1.421875 
z
" id="DejaVuSerif-48"/>
    <path d="M 17.484375 67.671875 
L 39.015625 11.71875 
L 60.5 67.671875 
L 52.296875 67.671875 
L 52.296875 72.90625 
L 73.6875 72.90625 
L 73.6875 67.671875 
L 66.609375 67.671875 
L 40.578125 0 
L 32.171875 0 
L 6.296875 67.671875 
L -0.984375 67.671875 
L -0.984375 72.90625 
L 25.59375 72.90625 
L 25.59375 67.671875 
z
" id="DejaVuSerif-86"/>
    <path d="M 21.578125 -9.515625 
L 25 -0.875 
L 5.609375 46.6875 
L -0.296875 46.6875 
L -0.296875 51.90625 
L 23.578125 51.90625 
L 23.578125 46.6875 
L 15.28125 46.6875 
L 29.890625 10.984375 
L 44.484375 46.6875 
L 36.71875 46.6875 
L 36.71875 51.90625 
L 56.203125 51.90625 
L 56.203125 46.6875 
L 50.390625 46.6875 
L 26.609375 -11.71875 
Q 24.171875 -17.78125 21.1875 -20 
Q 18.21875 -22.21875 12.796875 -22.21875 
Q 10.5 -22.21875 8.078125 -21.828125 
Q 5.671875 -21.4375 3.21875 -20.703125 
L 3.21875 -10.796875 
L 7.8125 -10.796875 
Q 8.109375 -14.109375 9.5 -15.546875 
Q 10.890625 -17 13.8125 -17 
Q 16.5 -17 18.140625 -15.5 
Q 19.78125 -14.015625 21.578125 -9.515625 
z
" id="DejaVuSerif-121"/>
    <path d="M 9.71875 68.015625 
Q 9.71875 70.265625 11.34375 71.921875 
Q 12.984375 73.578125 15.28125 73.578125 
Q 17.53125 73.578125 19.15625 71.921875 
Q 20.796875 70.265625 20.796875 68.015625 
Q 20.796875 65.71875 19.1875 64.109375 
Q 17.578125 62.5 15.28125 62.5 
Q 12.984375 62.5 11.34375 64.109375 
Q 9.71875 65.71875 9.71875 68.015625 
z
M 21.1875 5.171875 
L 29.6875 5.171875 
L 29.6875 0 
L 3.609375 0 
L 3.609375 5.171875 
L 12.203125 5.171875 
L 12.203125 46.6875 
L 3.609375 46.6875 
L 3.609375 51.90625 
L 21.1875 51.90625 
z
" id="DejaVuSerif-105"/>
    <path d="M 4.890625 0 
L 4.890625 5.171875 
L 14.703125 5.171875 
L 14.703125 67.671875 
L 4.890625 67.671875 
L 4.890625 72.90625 
L 23.578125 72.90625 
L 67.28125 15.375 
L 67.28125 67.671875 
L 57.515625 67.671875 
L 57.515625 72.90625 
L 83.109375 72.90625 
L 83.109375 67.671875 
L 73.296875 67.671875 
L 73.296875 -1.421875 
L 67.390625 -1.421875 
L 20.703125 60.015625 
L 20.703125 5.171875 
L 30.515625 5.171875 
L 30.515625 0 
z
" id="DejaVuSerif-78"/>
    <path d="M 5.515625 0 
L 5.515625 5.171875 
L 14.796875 5.171875 
L 14.796875 67.671875 
L 4.984375 67.671875 
L 4.984375 72.90625 
L 26.21875 72.90625 
L 51.8125 21 
L 77.390625 72.90625 
L 97.3125 72.90625 
L 97.3125 67.671875 
L 87.59375 67.671875 
L 87.59375 5.171875 
L 96.921875 5.171875 
L 96.921875 0 
L 68.40625 0 
L 68.40625 5.171875 
L 77.6875 5.171875 
L 77.6875 61.53125 
L 52.6875 10.6875 
L 45.796875 10.6875 
L 20.796875 61.53125 
L 20.796875 5.171875 
L 30.078125 5.171875 
L 30.078125 0 
z
" id="DejaVuSerif-77"/>
    <path d="M 9.28125 3.515625 
L 9.28125 20.125 
L 14.890625 20.0625 
Q 15.140625 11.765625 19.703125 7.78125 
Q 24.265625 3.8125 33.59375 3.8125 
Q 42.28125 3.8125 46.84375 7.25 
Q 51.421875 10.6875 51.421875 17.28125 
Q 51.421875 22.5625 48.65625 25.390625 
Q 45.90625 28.21875 37.015625 30.90625 
L 27.390625 33.796875 
Q 16.9375 36.96875 12.671875 41.703125 
Q 8.40625 46.4375 8.40625 54.6875 
Q 8.40625 63.96875 14.984375 69.09375 
Q 21.578125 74.21875 33.5 74.21875 
Q 38.578125 74.21875 44.625 73.109375 
Q 50.6875 72.015625 57.515625 69.921875 
L 57.515625 54.390625 
L 52 54.390625 
Q 51.171875 62.109375 46.84375 65.546875 
Q 42.53125 69 33.6875 69 
Q 25.984375 69 21.953125 65.84375 
Q 17.921875 62.703125 17.921875 56.6875 
Q 17.921875 51.46875 20.9375 48.484375 
Q 23.96875 45.515625 33.796875 42.578125 
L 42.828125 39.890625 
Q 52.734375 36.921875 56.953125 32.296875 
Q 61.1875 27.6875 61.1875 19.921875 
Q 61.1875 9.328125 54.390625 3.953125 
Q 47.609375 -1.421875 34.1875 -1.421875 
Q 28.171875 -1.421875 21.9375 -0.1875 
Q 15.71875 1.03125 9.28125 3.515625 
z
" id="DejaVuSerif-83"/>
    <path d="M 5.515625 0 
L 5.515625 5.171875 
L 14.796875 5.171875 
L 14.796875 67.671875 
L 5.515625 67.671875 
L 5.515625 72.90625 
L 64.203125 72.90625 
L 64.203125 56.6875 
L 58.203125 56.6875 
L 58.203125 66.890625 
L 24.703125 66.890625 
L 24.703125 42.484375 
L 48.578125 42.484375 
L 48.578125 51.609375 
L 54.59375 51.609375 
L 54.59375 27.390625 
L 48.578125 27.390625 
L 48.578125 36.53125 
L 24.703125 36.53125 
L 24.703125 6 
L 58.984375 6 
L 58.984375 16.21875 
L 64.984375 16.21875 
L 64.984375 0 
z
" id="DejaVuSerif-69"/>
    <path d="M 29.109375 31.6875 
L 39.984375 46.6875 
L 33.015625 46.6875 
L 33.015625 51.90625 
L 52.984375 51.90625 
L 52.984375 46.6875 
L 46.09375 46.6875 
L 32.171875 27.484375 
L 48.390625 5.171875 
L 55.171875 5.171875 
L 55.171875 0 
L 31.203125 0 
L 31.203125 5.171875 
L 37.796875 5.171875 
L 26.515625 20.703125 
L 15.1875 5.171875 
L 21.921875 5.171875 
L 21.921875 0 
L 2.203125 0 
L 2.203125 5.171875 
L 9.078125 5.171875 
L 23.390625 24.90625 
L 7.625 46.6875 
L 1.21875 46.6875 
L 1.21875 51.90625 
L 24.421875 51.90625 
L 24.421875 46.6875 
L 18.21875 46.6875 
z
" id="DejaVuSerif-120"/>
   </defs>
   <g transform="translate(146.485312 17.837812)scale(0.14 -0.14)">
    <use xlink:href="#DejaVuSerif-114"/>
    <use x="47.802734" xlink:href="#DejaVuSerif-101"/>
    <use x="106.982422" xlink:href="#DejaVuSerif-115"/>
    <use x="158.300781" xlink:href="#DejaVuSerif-110"/>
    <use x="222.705078" xlink:href="#DejaVuSerif-97"/>
    <use x="282.324219" xlink:href="#DejaVuSerif-114"/>
    <use x="330.126953" xlink:href="#DejaVuSerif-109"/>
    <use x="424.951172" xlink:href="#DejaVuSerif-97"/>
    <use x="484.570312" xlink:href="#DejaVuSerif-95"/>
    <use x="534.570312" xlink:href="#DejaVuSerif-100"/>
    <use x="598.583984" xlink:href="#DejaVuSerif-101"/>
    <use x="657.763672" xlink:href="#DejaVuSerif-101"/>
    <use x="716.943359" xlink:href="#DejaVuSerif-112"/>
    <use x="780.957031" xlink:href="#DejaVuSerif-95"/>
    <use x="830.957031" xlink:href="#DejaVuSerif-115"/>
    <use x="882.275391" xlink:href="#DejaVuSerif-116"/>
    <use x="922.460938" xlink:href="#DejaVuSerif-114"/>
    <use x="970.263672" xlink:href="#DejaVuSerif-101"/>
    <use x="1029.443359" xlink:href="#DejaVuSerif-110"/>
    <use x="1093.847656" xlink:href="#DejaVuSerif-103"/>
    <use x="1157.861328" xlink:href="#DejaVuSerif-116"/>
    <use x="1198.046875" xlink:href="#DejaVuSerif-104"/>
    <use x="1262.451172" xlink:href="#DejaVuSerif-92"/>
    <use x="1296.142578" xlink:href="#DejaVuSerif-116"/>
    <use x="1336.328125" xlink:href="#DejaVuSerif-100"/>
    <use x="1400.341797" xlink:href="#DejaVuSerif-101"/>
    <use x="1459.521484" xlink:href="#DejaVuSerif-108"/>
    <use x="1491.503906" xlink:href="#DejaVuSerif-116"/>
    <use x="1531.689453" xlink:href="#DejaVuSerif-97"/>
    <use x="1591.308594" xlink:href="#DejaVuSerif-95"/>
    <use x="1641.308594" xlink:href="#DejaVuSerif-50"/>
    <use x="1704.931641" xlink:href="#DejaVuSerif-46"/>
    <use x="1736.71875" xlink:href="#DejaVuSerif-48"/>
    <use x="1800.341797" xlink:href="#DejaVuSerif-95"/>
    <use x="1850.341797" xlink:href="#DejaVuSerif-86"/>
    <use x="1922.558594" xlink:href="#DejaVuSerif-95"/>
    <use x="1972.558594" xlink:href="#DejaVuSerif-50"/>
    <use x="2036.181641" xlink:href="#DejaVuSerif-48"/>
    <use x="2099.804688" xlink:href="#DejaVuSerif-95"/>
    <use x="2149.804688" xlink:href="#DejaVuSerif-108"/>
    <use x="2181.787109" xlink:href="#DejaVuSerif-97"/>
    <use x="2241.40625" xlink:href="#DejaVuSerif-121"/>
    <use x="2297.900391" xlink:href="#DejaVuSerif-101"/>
    <use x="2357.080078" xlink:href="#DejaVuSerif-114"/>
    <use x="2404.882812" xlink:href="#DejaVuSerif-115"/>
    <use x="2456.201172" xlink:href="#DejaVuSerif-95"/>
    <use x="2506.201172" xlink:href="#DejaVuSerif-50"/>
    <use x="2569.824219" xlink:href="#DejaVuSerif-95"/>
    <use x="2619.824219" xlink:href="#DejaVuSerif-51"/>
    <use x="2683.447266" xlink:href="#DejaVuSerif-95"/>
    <use x="2733.447266" xlink:href="#DejaVuSerif-52"/>
    <use x="2797.070312" xlink:href="#DejaVuSerif-95"/>
    <use x="2847.070312" xlink:href="#DejaVuSerif-53"/>
    <use x="2910.693359" xlink:href="#DejaVuSerif-95"/>
    <use x="2960.693359" xlink:href="#DejaVuSerif-110"/>
    <use x="3025.097656" xlink:href="#DejaVuSerif-97"/>
    <use x="3084.716797" xlink:href="#DejaVuSerif-114"/>
    <use x="3132.519531" xlink:href="#DejaVuSerif-109"/>
    <use x="3227.34375" xlink:href="#DejaVuSerif-97"/>
    <use x="3286.962891" xlink:href="#DejaVuSerif-95"/>
    <use x="3336.962891" xlink:href="#DejaVuSerif-50"/>
    <use x="3400.585938" xlink:href="#DejaVuSerif-48"/>
    <use x="3464.208984" xlink:href="#DejaVuSerif-95"/>
    <use x="3514.208984" xlink:href="#DejaVuSerif-110"/>
    <use x="3578.613281" xlink:href="#DejaVuSerif-116"/>
    <use x="3618.798828" xlink:href="#DejaVuSerif-114"/>
    <use x="3666.601562" xlink:href="#DejaVuSerif-105"/>
    <use x="3698.583984" xlink:href="#DejaVuSerif-97"/>
    <use x="3758.203125" xlink:href="#DejaVuSerif-108"/>
    <use x="3790.185547" xlink:href="#DejaVuSerif-115"/>
    <use x="3841.503906" xlink:href="#DejaVuSerif-95"/>
    <use x="3891.503906" xlink:href="#DejaVuSerif-49"/>
    <use x="3955.126953" xlink:href="#DejaVuSerif-48"/>
    <use x="4018.75" xlink:href="#DejaVuSerif-95"/>
    <use x="4068.75" xlink:href="#DejaVuSerif-78"/>
    <use x="4156.25" xlink:href="#DejaVuSerif-77"/>
    <use x="4258.642578" xlink:href="#DejaVuSerif-83"/>
    <use x="4327.148438" xlink:href="#DejaVuSerif-69"/>
    <use x="4400.146484" xlink:href="#DejaVuSerif-46"/>
    <use x="4431.933594" xlink:href="#DejaVuSerif-116"/>
    <use x="4472.119141" xlink:href="#DejaVuSerif-120"/>
    <use x="4528.515625" xlink:href="#DejaVuSerif-116"/>
   </g>
  </g>
 </g>
 <defs>
  <clipPath id="p32ce44946a">
   <rect height="554.4" width="194.086957" x="34.3" y="79.2"/>
  </clipPath>
  <clipPath id="p481d5e08d7">
   <rect height="554.4" width="194.086957" x="267.204348" y="79.2"/>
  </clipPath>
  <clipPath id="pc468f859fe">
   <rect height="554.4" width="194.086957" x="500.108696" y="79.2"/>
  </clipPath>
  <clipPath id="p917b2c592d">
   <rect height="554.4" width="194.086957" x="733.013043" y="79.2"/>
  </clipPath>
 </defs>
</svg>
