<?xml version="1.0" encoding="utf-8" standalone="no"?>
<!DOCTYPE svg PUBLIC "-//W3C//DTD SVG 1.1//EN"
  "http://www.w3.org/Graphics/SVG/1.1/DTD/svg11.dtd">
<!-- Created with matplotlib (https://matplotlib.org/) -->
<svg height="326.337pt" version="1.1" viewBox="0 0 426.95 326.337" width="426.95pt" xmlns="http://www.w3.org/2000/svg" xmlns:xlink="http://www.w3.org/1999/xlink">
 <defs>
  <style type="text/css">
*{stroke-linecap:butt;stroke-linejoin:round;}
  </style>
 </defs>
 <g id="figure_1">
  <g id="patch_1">
   <path d="M 0 326.337 
L 426.95 326.337 
L 426.95 0 
L 0 0 
z
" style="fill:#ffffff;"/>
  </g>
  <g id="axes_1">
   <g id="patch_2">
    <path d="M 59.13 276.812 
L 416.25 276.812 
L 416.25 10.7 
L 59.13 10.7 
z
" style="fill:#ffffff;"/>
   </g>
   <g id="matplotlib.axis_1">
    <g id="xtick_1">
     <g id="line2d_1">
      <defs>
       <path d="M 0 0 
L 0 3.5 
" id="m07fd8ee6d8" style="stroke:#000000;stroke-width:0.8;"/>
      </defs>
      <g>
       <use style="stroke:#000000;stroke-width:0.8;" x="75.362727" xlink:href="#m07fd8ee6d8" y="276.812"/>
      </g>
     </g>
     <g id="text_1">
      <!-- 0 -->
      <defs>
       <path d="M 31.78125 3.421875 
Q 39.265625 3.421875 42.96875 11.625 
Q 46.6875 19.828125 46.6875 36.375 
Q 46.6875 52.984375 42.96875 61.1875 
Q 39.265625 69.390625 31.78125 69.390625 
Q 24.3125 69.390625 20.59375 61.1875 
Q 16.890625 52.984375 16.890625 36.375 
Q 16.890625 19.828125 20.59375 11.625 
Q 24.3125 3.421875 31.78125 3.421875 
z
M 31.78125 -1.421875 
Q 19.921875 -1.421875 13.25 8.53125 
Q 6.59375 18.5 6.59375 36.375 
Q 6.59375 54.296875 13.25 64.25 
Q 19.921875 74.21875 31.78125 74.21875 
Q 43.703125 74.21875 50.34375 64.25 
Q 56.984375 54.296875 56.984375 36.375 
Q 56.984375 18.5 50.34375 8.53125 
Q 43.703125 -1.421875 31.78125 -1.421875 
z
" id="DejaVuSerif-48"/>
      </defs>
      <g transform="translate(70.272727 295.9695)scale(0.16 -0.16)">
       <use xlink:href="#DejaVuSerif-48"/>
      </g>
     </g>
    </g>
    <g id="xtick_2">
     <g id="line2d_2">
      <g>
       <use style="stroke:#000000;stroke-width:0.8;" x="140.293636" xlink:href="#m07fd8ee6d8" y="276.812"/>
      </g>
     </g>
     <g id="text_2">
      <!-- 10 -->
      <defs>
       <path d="M 14.203125 0 
L 14.203125 5.171875 
L 26.90625 5.171875 
L 26.90625 65.828125 
L 12.203125 56.296875 
L 12.203125 62.703125 
L 29.984375 74.21875 
L 36.71875 74.21875 
L 36.71875 5.171875 
L 49.421875 5.171875 
L 49.421875 0 
z
" id="DejaVuSerif-49"/>
      </defs>
      <g transform="translate(130.113636 295.9695)scale(0.16 -0.16)">
       <use xlink:href="#DejaVuSerif-49"/>
       <use x="63.623047" xlink:href="#DejaVuSerif-48"/>
      </g>
     </g>
    </g>
    <g id="xtick_3">
     <g id="line2d_3">
      <g>
       <use style="stroke:#000000;stroke-width:0.8;" x="205.224545" xlink:href="#m07fd8ee6d8" y="276.812"/>
      </g>
     </g>
     <g id="text_3">
      <!-- 20 -->
      <defs>
       <path d="M 12.796875 55.515625 
L 7.328125 55.515625 
L 7.328125 68.5 
Q 12.546875 71.296875 17.84375 72.75 
Q 23.140625 74.21875 28.21875 74.21875 
Q 39.59375 74.21875 46.1875 68.703125 
Q 52.78125 63.1875 52.78125 53.71875 
Q 52.78125 43.015625 37.84375 28.125 
Q 36.671875 27 36.078125 26.421875 
L 17.671875 8.015625 
L 48.09375 8.015625 
L 48.09375 17 
L 53.8125 17 
L 53.8125 0 
L 6.78125 0 
L 6.78125 5.328125 
L 28.90625 27.390625 
Q 36.234375 34.71875 39.359375 40.84375 
Q 42.484375 46.96875 42.484375 53.71875 
Q 42.484375 61.078125 38.640625 65.234375 
Q 34.8125 69.390625 28.078125 69.390625 
Q 21.09375 69.390625 17.28125 65.921875 
Q 13.484375 62.453125 12.796875 55.515625 
z
" id="DejaVuSerif-50"/>
      </defs>
      <g transform="translate(195.044545 295.9695)scale(0.16 -0.16)">
       <use xlink:href="#DejaVuSerif-50"/>
       <use x="63.623047" xlink:href="#DejaVuSerif-48"/>
      </g>
     </g>
    </g>
    <g id="xtick_4">
     <g id="line2d_4">
      <g>
       <use style="stroke:#000000;stroke-width:0.8;" x="270.155455" xlink:href="#m07fd8ee6d8" y="276.812"/>
      </g>
     </g>
     <g id="text_4">
      <!-- 30 -->
      <defs>
       <path d="M 9.71875 69.828125 
Q 15.4375 71.96875 20.671875 73.09375 
Q 25.921875 74.21875 30.515625 74.21875 
Q 41.21875 74.21875 47.21875 69.59375 
Q 53.21875 64.984375 53.21875 56.78125 
Q 53.21875 50.203125 49.0625 45.78125 
Q 44.921875 41.359375 37.3125 39.796875 
Q 46.296875 38.53125 51.25 33.28125 
Q 56.203125 28.03125 56.203125 19.671875 
Q 56.203125 9.46875 49.34375 4.015625 
Q 42.484375 -1.421875 29.59375 -1.421875 
Q 23.875 -1.421875 18.421875 -0.1875 
Q 12.984375 1.03125 7.625 3.515625 
L 7.625 17.671875 
L 13.09375 17.671875 
Q 13.578125 10.640625 17.828125 7.03125 
Q 22.078125 3.421875 29.78125 3.421875 
Q 37.25 3.421875 41.578125 7.734375 
Q 45.90625 12.0625 45.90625 19.578125 
Q 45.90625 28.171875 41.453125 32.59375 
Q 37.015625 37.015625 28.421875 37.015625 
L 23.78125 37.015625 
L 23.78125 42 
L 26.21875 42 
Q 34.765625 42 39.03125 45.53125 
Q 43.3125 49.078125 43.3125 56.203125 
Q 43.3125 62.59375 39.796875 65.984375 
Q 36.28125 69.390625 29.6875 69.390625 
Q 23.09375 69.390625 19.453125 66.265625 
Q 15.828125 63.140625 15.1875 56.984375 
L 9.71875 56.984375 
z
" id="DejaVuSerif-51"/>
      </defs>
      <g transform="translate(259.975455 295.9695)scale(0.16 -0.16)">
       <use xlink:href="#DejaVuSerif-51"/>
       <use x="63.623047" xlink:href="#DejaVuSerif-48"/>
      </g>
     </g>
    </g>
    <g id="xtick_5">
     <g id="line2d_5">
      <g>
       <use style="stroke:#000000;stroke-width:0.8;" x="335.086364" xlink:href="#m07fd8ee6d8" y="276.812"/>
      </g>
     </g>
     <g id="text_5">
      <!-- 40 -->
      <defs>
       <path d="M 34.90625 24.703125 
L 34.90625 63.484375 
L 10.015625 24.703125 
z
M 56.390625 0 
L 23.1875 0 
L 23.1875 5.171875 
L 34.90625 5.171875 
L 34.90625 19.484375 
L 3.078125 19.484375 
L 3.078125 24.8125 
L 35.015625 74.21875 
L 44.671875 74.21875 
L 44.671875 24.703125 
L 58.59375 24.703125 
L 58.59375 19.484375 
L 44.671875 19.484375 
L 44.671875 5.171875 
L 56.390625 5.171875 
z
" id="DejaVuSerif-52"/>
      </defs>
      <g transform="translate(324.906364 295.9695)scale(0.16 -0.16)">
       <use xlink:href="#DejaVuSerif-52"/>
       <use x="63.623047" xlink:href="#DejaVuSerif-48"/>
      </g>
     </g>
    </g>
    <g id="xtick_6">
     <g id="line2d_6">
      <g>
       <use style="stroke:#000000;stroke-width:0.8;" x="400.017273" xlink:href="#m07fd8ee6d8" y="276.812"/>
      </g>
     </g>
     <g id="text_6">
      <!-- 50 -->
      <defs>
       <path d="M 50.296875 72.90625 
L 50.296875 64.890625 
L 16.890625 64.890625 
L 16.890625 44 
Q 19.4375 45.75 22.828125 46.625 
Q 26.21875 47.515625 30.421875 47.515625 
Q 42.234375 47.515625 49.0625 40.96875 
Q 55.90625 34.421875 55.90625 23.09375 
Q 55.90625 11.53125 49 5.046875 
Q 42.09375 -1.421875 29.59375 -1.421875 
Q 24.5625 -1.421875 19.28125 -0.1875 
Q 14.015625 1.03125 8.5 3.515625 
L 8.5 17.671875 
L 14.015625 17.671875 
Q 14.453125 10.75 18.421875 7.078125 
Q 22.40625 3.421875 29.59375 3.421875 
Q 37.3125 3.421875 41.453125 8.5 
Q 45.609375 13.578125 45.609375 23.09375 
Q 45.609375 32.5625 41.484375 37.609375 
Q 37.359375 42.671875 29.59375 42.671875 
Q 25.203125 42.671875 21.84375 41.109375 
Q 18.5 39.546875 15.921875 36.28125 
L 11.71875 36.28125 
L 11.71875 72.90625 
z
" id="DejaVuSerif-53"/>
      </defs>
      <g transform="translate(389.837273 295.9695)scale(0.16 -0.16)">
       <use xlink:href="#DejaVuSerif-53"/>
       <use x="63.623047" xlink:href="#DejaVuSerif-48"/>
      </g>
     </g>
    </g>
    <g id="text_7">
     <!-- Delay $d$ -->
     <defs>
      <path d="M 24.703125 5.171875 
L 33.796875 5.171875 
Q 48 5.171875 55.59375 13.28125 
Q 63.1875 21.390625 63.1875 36.53125 
Q 63.1875 51.65625 55.609375 59.65625 
Q 48.046875 67.671875 33.796875 67.671875 
L 24.703125 67.671875 
z
M 5.515625 0 
L 5.515625 5.171875 
L 14.796875 5.171875 
L 14.796875 67.671875 
L 5.515625 67.671875 
L 5.515625 72.90625 
L 34.515625 72.90625 
Q 53.375 72.90625 63.890625 63.28125 
Q 74.421875 53.65625 74.421875 36.53125 
Q 74.421875 19.34375 63.875 9.671875 
Q 53.328125 0 34.515625 0 
z
" id="DejaVuSerif-68"/>
      <path d="M 54.203125 25 
L 15.484375 25 
L 15.484375 24.609375 
Q 15.484375 14.109375 19.4375 8.765625 
Q 23.390625 3.421875 31.109375 3.421875 
Q 37.015625 3.421875 40.796875 6.515625 
Q 44.578125 9.625 46.09375 15.71875 
L 53.328125 15.71875 
Q 51.171875 7.171875 45.375 2.875 
Q 39.59375 -1.421875 30.171875 -1.421875 
Q 18.796875 -1.421875 11.890625 6.078125 
Q 4.984375 13.578125 4.984375 25.984375 
Q 4.984375 38.28125 11.765625 45.796875 
Q 18.5625 53.328125 29.59375 53.328125 
Q 41.359375 53.328125 47.65625 46.0625 
Q 53.953125 38.8125 54.203125 25 
z
M 43.609375 30.171875 
Q 43.3125 39.265625 39.765625 43.875 
Q 36.234375 48.484375 29.59375 48.484375 
Q 23.390625 48.484375 19.828125 43.84375 
Q 16.265625 39.203125 15.484375 30.171875 
z
" id="DejaVuSerif-101"/>
      <path d="M 20.515625 5.171875 
L 29 5.171875 
L 29 0 
L 2.875 0 
L 2.875 5.171875 
L 11.53125 5.171875 
L 11.53125 70.796875 
L 2.875 70.796875 
L 2.875 75.984375 
L 20.515625 75.984375 
z
" id="DejaVuSerif-108"/>
      <path d="M 39.796875 16.3125 
L 39.796875 27.296875 
L 28.21875 27.296875 
Q 21.53125 27.296875 18.25 24.40625 
Q 14.984375 21.53125 14.984375 15.578125 
Q 14.984375 10.15625 18.296875 6.984375 
Q 21.625 3.8125 27.296875 3.8125 
Q 32.90625 3.8125 36.34375 7.28125 
Q 39.796875 10.75 39.796875 16.3125 
z
M 48.78125 32.421875 
L 48.78125 5.171875 
L 56.78125 5.171875 
L 56.78125 0 
L 39.796875 0 
L 39.796875 5.609375 
Q 36.8125 2 32.90625 0.28125 
Q 29 -1.421875 23.78125 -1.421875 
Q 15.140625 -1.421875 10.0625 3.171875 
Q 4.984375 7.765625 4.984375 15.578125 
Q 4.984375 23.640625 10.796875 28.078125 
Q 16.609375 32.515625 27.203125 32.515625 
L 39.796875 32.515625 
L 39.796875 36.078125 
Q 39.796875 42 36.203125 45.234375 
Q 32.625 48.484375 26.125 48.484375 
Q 20.75 48.484375 17.578125 46.046875 
Q 14.40625 43.609375 13.625 38.8125 
L 8.984375 38.8125 
L 8.984375 49.3125 
Q 13.671875 51.3125 18.09375 52.3125 
Q 22.515625 53.328125 26.703125 53.328125 
Q 37.5 53.328125 43.140625 47.96875 
Q 48.78125 42.625 48.78125 32.421875 
z
" id="DejaVuSerif-97"/>
      <path d="M 21.578125 -9.515625 
L 25 -0.875 
L 5.609375 46.6875 
L -0.296875 46.6875 
L -0.296875 51.90625 
L 23.578125 51.90625 
L 23.578125 46.6875 
L 15.28125 46.6875 
L 29.890625 10.984375 
L 44.484375 46.6875 
L 36.71875 46.6875 
L 36.71875 51.90625 
L 56.203125 51.90625 
L 56.203125 46.6875 
L 50.390625 46.6875 
L 26.609375 -11.71875 
Q 24.171875 -17.78125 21.1875 -20 
Q 18.21875 -22.21875 12.796875 -22.21875 
Q 10.5 -22.21875 8.078125 -21.828125 
Q 5.671875 -21.4375 3.21875 -20.703125 
L 3.21875 -10.796875 
L 7.8125 -10.796875 
Q 8.109375 -14.109375 9.5 -15.546875 
Q 10.890625 -17 13.8125 -17 
Q 16.5 -17 18.140625 -15.5 
Q 19.78125 -14.015625 21.578125 -9.515625 
z
" id="DejaVuSerif-121"/>
      <path id="DejaVuSerif-32"/>
      <path d="M 17.390625 -1.125 
Q 11.078125 -1.125 7.4375 3.640625 
Q 3.8125 8.40625 3.8125 14.890625 
Q 3.8125 21.296875 7.125 28.171875 
Q 10.453125 35.0625 16.09375 39.625 
Q 21.734375 44.1875 28.21875 44.1875 
Q 31.15625 44.1875 33.515625 42.546875 
Q 35.890625 40.921875 37.203125 38.1875 
L 42.828125 60.5 
Q 43.21875 62.203125 43.3125 63.1875 
Q 43.3125 64.796875 36.8125 64.796875 
Q 35.796875 64.796875 35.796875 66.109375 
Q 35.84375 66.359375 36.015625 66.984375 
Q 36.1875 67.625 36.453125 67.96875 
Q 36.71875 68.3125 37.203125 68.3125 
L 50.6875 69.390625 
Q 51.90625 69.390625 51.90625 68.109375 
L 37.5 10.59375 
Q 36.8125 8.9375 36.8125 5.8125 
Q 36.8125 1.515625 39.703125 1.515625 
Q 42.828125 1.515625 44.453125 5.484375 
Q 46.09375 9.46875 47.21875 14.703125 
Q 47.40625 15.28125 48 15.28125 
L 49.21875 15.28125 
Q 49.609375 15.28125 49.84375 14.9375 
Q 50.09375 14.59375 50.09375 14.3125 
Q 48.34375 7.328125 46.265625 3.09375 
Q 44.1875 -1.125 39.5 -1.125 
Q 36.140625 -1.125 33.546875 0.84375 
Q 30.953125 2.828125 30.328125 6.109375 
Q 23.875 -1.125 17.390625 -1.125 
z
M 17.484375 1.515625 
Q 21.09375 1.515625 24.484375 4.21875 
Q 27.875 6.9375 30.328125 10.59375 
Q 30.421875 10.6875 30.421875 10.984375 
L 35.890625 33.015625 
Q 35.296875 36.53125 33.296875 39.0625 
Q 31.296875 41.609375 27.984375 41.609375 
Q 24.609375 41.609375 21.703125 38.84375 
Q 18.796875 36.078125 16.796875 32.328125 
Q 14.84375 28.328125 13.0625 21.34375 
Q 11.28125 14.359375 11.28125 10.5 
Q 11.28125 7.03125 12.765625 4.265625 
Q 14.265625 1.515625 17.484375 1.515625 
z
" id="Cmmi10-100"/>
     </defs>
     <g transform="translate(207.93 315.457)scale(0.16 -0.16)">
      <use transform="translate(0 0.015625)" xlink:href="#DejaVuSerif-68"/>
      <use transform="translate(80.175781 0.015625)" xlink:href="#DejaVuSerif-101"/>
      <use transform="translate(139.355469 0.015625)" xlink:href="#DejaVuSerif-108"/>
      <use transform="translate(171.337891 0.015625)" xlink:href="#DejaVuSerif-97"/>
      <use transform="translate(230.957031 0.015625)" xlink:href="#DejaVuSerif-121"/>
      <use transform="translate(287.451172 0.015625)" xlink:href="#DejaVuSerif-32"/>
      <use transform="translate(319.238281 0.015625)" xlink:href="#Cmmi10-100"/>
     </g>
    </g>
   </g>
   <g id="matplotlib.axis_2">
    <g id="ytick_1">
     <g id="line2d_7">
      <defs>
       <path d="M 0 0 
L -3.5 0 
" id="m3bedc67ad6" style="stroke:#000000;stroke-width:0.8;"/>
      </defs>
      <g>
       <use style="stroke:#000000;stroke-width:0.8;" x="59.13" xlink:href="#m3bedc67ad6" y="265.284108"/>
      </g>
     </g>
     <g id="text_8">
      <!-- 0.0 -->
      <defs>
       <path d="M 9.421875 5.078125 
Q 9.421875 7.8125 11.28125 9.71875 
Q 13.140625 11.625 15.921875 11.625 
Q 18.609375 11.625 20.5 9.71875 
Q 22.40625 7.8125 22.40625 5.078125 
Q 22.40625 2.390625 20.5 0.484375 
Q 18.609375 -1.421875 15.921875 -1.421875 
Q 13.140625 -1.421875 11.28125 0.453125 
Q 9.421875 2.34375 9.421875 5.078125 
z
" id="DejaVuSerif-46"/>
      </defs>
      <g transform="translate(26.685 271.362858)scale(0.16 -0.16)">
       <use xlink:href="#DejaVuSerif-48"/>
       <use x="63.623047" xlink:href="#DejaVuSerif-46"/>
       <use x="95.410156" xlink:href="#DejaVuSerif-48"/>
      </g>
     </g>
    </g>
    <g id="ytick_2">
     <g id="line2d_8">
      <g>
       <use style="stroke:#000000;stroke-width:0.8;" x="59.13" xlink:href="#m3bedc67ad6" y="216.880344"/>
      </g>
     </g>
     <g id="text_9">
      <!-- 0.2 -->
      <g transform="translate(26.685 222.959094)scale(0.16 -0.16)">
       <use xlink:href="#DejaVuSerif-48"/>
       <use x="63.623047" xlink:href="#DejaVuSerif-46"/>
       <use x="95.410156" xlink:href="#DejaVuSerif-50"/>
      </g>
     </g>
    </g>
    <g id="ytick_3">
     <g id="line2d_9">
      <g>
       <use style="stroke:#000000;stroke-width:0.8;" x="59.13" xlink:href="#m3bedc67ad6" y="168.476581"/>
      </g>
     </g>
     <g id="text_10">
      <!-- 0.4 -->
      <g transform="translate(26.685 174.555331)scale(0.16 -0.16)">
       <use xlink:href="#DejaVuSerif-48"/>
       <use x="63.623047" xlink:href="#DejaVuSerif-46"/>
       <use x="95.410156" xlink:href="#DejaVuSerif-52"/>
      </g>
     </g>
    </g>
    <g id="ytick_4">
     <g id="line2d_10">
      <g>
       <use style="stroke:#000000;stroke-width:0.8;" x="59.13" xlink:href="#m3bedc67ad6" y="120.072817"/>
      </g>
     </g>
     <g id="text_11">
      <!-- 0.6 -->
      <defs>
       <path d="M 32.71875 3.421875 
Q 39.59375 3.421875 43.296875 8.46875 
Q 47.015625 13.53125 47.015625 23 
Q 47.015625 32.46875 43.296875 37.515625 
Q 39.59375 42.578125 32.71875 42.578125 
Q 25.734375 42.578125 22.0625 37.6875 
Q 18.40625 32.8125 18.40625 23.578125 
Q 18.40625 13.875 22.109375 8.640625 
Q 25.828125 3.421875 32.71875 3.421875 
z
M 16.796875 40.140625 
Q 20.125 43.796875 24.3125 45.59375 
Q 28.515625 47.40625 33.796875 47.40625 
Q 44.671875 47.40625 51 40.859375 
Q 57.328125 34.328125 57.328125 23 
Q 57.328125 11.921875 50.515625 5.25 
Q 43.703125 -1.421875 32.328125 -1.421875 
Q 19.96875 -1.421875 13.328125 7.78125 
Q 6.6875 17 6.6875 34.078125 
Q 6.6875 53.21875 14.546875 63.71875 
Q 22.40625 74.21875 36.71875 74.21875 
Q 40.578125 74.21875 44.828125 73.484375 
Q 49.078125 72.75 53.515625 71.296875 
L 53.515625 59.28125 
L 48 59.28125 
Q 47.40625 64.203125 44.234375 66.796875 
Q 41.0625 69.390625 35.6875 69.390625 
Q 26.21875 69.390625 21.578125 62.203125 
Q 16.9375 55.03125 16.796875 40.140625 
z
" id="DejaVuSerif-54"/>
      </defs>
      <g transform="translate(26.685 126.151567)scale(0.16 -0.16)">
       <use xlink:href="#DejaVuSerif-48"/>
       <use x="63.623047" xlink:href="#DejaVuSerif-46"/>
       <use x="95.410156" xlink:href="#DejaVuSerif-54"/>
      </g>
     </g>
    </g>
    <g id="ytick_5">
     <g id="line2d_11">
      <g>
       <use style="stroke:#000000;stroke-width:0.8;" x="59.13" xlink:href="#m3bedc67ad6" y="71.669054"/>
      </g>
     </g>
     <g id="text_12">
      <!-- 0.8 -->
      <defs>
       <path d="M 46.578125 19.921875 
Q 46.578125 27.734375 42.6875 32.046875 
Q 38.8125 36.375 31.78125 36.375 
Q 24.75 36.375 20.875 32.046875 
Q 17 27.734375 17 19.921875 
Q 17 12.0625 20.875 7.734375 
Q 24.75 3.421875 31.78125 3.421875 
Q 38.8125 3.421875 42.6875 7.734375 
Q 46.578125 12.0625 46.578125 19.921875 
z
M 44.578125 55.328125 
Q 44.578125 61.96875 41.203125 65.671875 
Q 37.84375 69.390625 31.78125 69.390625 
Q 25.78125 69.390625 22.390625 65.671875 
Q 19 61.96875 19 55.328125 
Q 19 48.640625 22.390625 44.921875 
Q 25.78125 41.21875 31.78125 41.21875 
Q 37.84375 41.21875 41.203125 44.921875 
Q 44.578125 48.640625 44.578125 55.328125 
z
M 39.3125 38.8125 
Q 47.609375 37.703125 52.25 32.6875 
Q 56.890625 27.6875 56.890625 19.921875 
Q 56.890625 9.671875 50.390625 4.125 
Q 43.890625 -1.421875 31.78125 -1.421875 
Q 19.734375 -1.421875 13.203125 4.125 
Q 6.6875 9.671875 6.6875 19.921875 
Q 6.6875 27.6875 11.328125 32.6875 
Q 15.96875 37.703125 24.3125 38.8125 
Q 16.9375 40.140625 13 44.40625 
Q 9.078125 48.6875 9.078125 55.328125 
Q 9.078125 64.109375 15.125 69.15625 
Q 21.1875 74.21875 31.78125 74.21875 
Q 42.390625 74.21875 48.4375 69.15625 
Q 54.5 64.109375 54.5 55.328125 
Q 54.5 48.6875 50.5625 44.40625 
Q 46.625 40.140625 39.3125 38.8125 
z
" id="DejaVuSerif-56"/>
      </defs>
      <g transform="translate(26.685 77.747804)scale(0.16 -0.16)">
       <use xlink:href="#DejaVuSerif-48"/>
       <use x="63.623047" xlink:href="#DejaVuSerif-46"/>
       <use x="95.410156" xlink:href="#DejaVuSerif-56"/>
      </g>
     </g>
    </g>
    <g id="ytick_6">
     <g id="line2d_12">
      <g>
       <use style="stroke:#000000;stroke-width:0.8;" x="59.13" xlink:href="#m3bedc67ad6" y="23.26529"/>
      </g>
     </g>
     <g id="text_13">
      <!-- 1.0 -->
      <g transform="translate(26.685 29.34404)scale(0.16 -0.16)">
       <use xlink:href="#DejaVuSerif-49"/>
       <use x="63.623047" xlink:href="#DejaVuSerif-46"/>
       <use x="95.410156" xlink:href="#DejaVuSerif-48"/>
      </g>
     </g>
    </g>
    <g id="text_14">
     <!-- $MF_d$ -->
     <defs>
      <path d="M 5.078125 0 
Q 4.109375 0 4.109375 1.3125 
Q 4.15625 1.5625 4.296875 2.140625 
Q 4.4375 2.734375 4.6875 3.125 
Q 4.9375 3.515625 5.421875 3.515625 
Q 14.9375 3.515625 16.5 9.625 
L 29.5 61.8125 
Q 29.6875 62.796875 29.6875 63.1875 
Q 29.6875 64.265625 28.515625 64.40625 
Q 26.609375 64.796875 21.296875 64.796875 
Q 20.3125 64.796875 20.3125 66.109375 
Q 20.359375 66.359375 20.5 66.96875 
Q 20.65625 67.578125 20.921875 67.9375 
Q 21.1875 68.3125 21.578125 68.3125 
L 39.203125 68.3125 
Q 40.328125 68.3125 40.484375 67.1875 
L 48.296875 9.90625 
L 84.71875 67.1875 
Q 85.40625 68.3125 86.625 68.3125 
L 103.609375 68.3125 
Q 104.59375 68.3125 104.59375 67 
Q 104.546875 66.75 104.390625 66.140625 
Q 104.25 65.53125 103.984375 65.15625 
Q 103.71875 64.796875 103.328125 64.796875 
Q 97.21875 64.796875 94.828125 64.109375 
Q 93.5 63.671875 92.921875 61.375 
L 79.203125 6.5 
Q 79 5.515625 79 5.078125 
Q 79 4.6875 79.125 4.421875 
Q 79.25 4.15625 79.46875 4.078125 
Q 79.6875 4 80.171875 3.90625 
Q 82.078125 3.515625 87.40625 3.515625 
Q 88.375 3.515625 88.375 2.203125 
Q 88.03125 0.78125 87.828125 0.390625 
Q 87.640625 0 86.71875 0 
L 60.59375 0 
Q 59.625 0 59.625 1.3125 
Q 59.671875 1.5625 59.8125 2.171875 
Q 59.96875 2.78125 60.234375 3.140625 
Q 60.5 3.515625 60.890625 3.515625 
Q 67 3.515625 69.390625 4.203125 
Q 70.703125 4.640625 71.296875 6.890625 
L 85.6875 64.796875 
L 45.3125 1.125 
Q 44.734375 0 43.3125 0 
Q 42.046875 0 41.890625 1.125 
L 33.40625 64.015625 
L 19.671875 9.1875 
Q 19.578125 8.9375 19.53125 8.5625 
Q 19.484375 8.203125 19.390625 7.71875 
Q 19.390625 5.125 21.65625 4.3125 
Q 23.921875 3.515625 27.203125 3.515625 
Q 28.21875 3.515625 28.21875 2.203125 
Q 27.875 0.875 27.65625 0.4375 
Q 27.4375 0 26.515625 0 
z
" id="Cmmi10-77"/>
      <path d="M 4.6875 0 
Q 3.71875 0 3.71875 1.3125 
Q 3.765625 1.5625 3.90625 2.171875 
Q 4.046875 2.78125 4.3125 3.140625 
Q 4.59375 3.515625 4.984375 3.515625 
Q 11.078125 3.515625 13.484375 4.203125 
Q 14.796875 4.640625 15.375 6.890625 
L 29.109375 61.8125 
Q 29.296875 62.796875 29.296875 63.1875 
Q 29.296875 64.265625 28.078125 64.40625 
Q 26.21875 64.796875 20.90625 64.796875 
Q 19.921875 64.796875 19.921875 66.109375 
Q 19.96875 66.359375 20.109375 66.96875 
Q 20.265625 67.578125 20.53125 67.9375 
Q 20.796875 68.3125 21.1875 68.3125 
L 74.03125 68.3125 
Q 75 68.3125 75 67 
L 72.609375 46.296875 
Q 72.609375 46 72.265625 45.703125 
Q 71.921875 45.40625 71.578125 45.40625 
L 70.703125 45.40625 
Q 69.671875 45.40625 69.671875 46.6875 
Q 70.3125 51.21875 70.3125 54.109375 
Q 70.3125 59.078125 68.15625 61.421875 
Q 66.015625 63.765625 62.734375 64.28125 
Q 59.46875 64.796875 53.71875 64.796875 
L 43.015625 64.796875 
Q 40.28125 64.796875 39.40625 64.328125 
Q 38.53125 63.875 37.796875 61.375 
L 31.390625 35.890625 
L 38.921875 35.890625 
Q 42.625 35.890625 44.921875 36.28125 
Q 47.21875 36.671875 48.734375 37.796875 
Q 50.25 38.921875 51.25 41.046875 
Q 52.25 43.171875 53.078125 46.6875 
Q 53.375 47.609375 54.109375 47.609375 
L 54.984375 47.609375 
Q 56 47.609375 56 46.296875 
L 49.90625 21.578125 
Q 49.46875 20.703125 48.875 20.703125 
L 48 20.703125 
Q 47.015625 20.703125 47.015625 22.015625 
Q 47.265625 23.046875 47.40625 23.734375 
Q 47.5625 24.421875 47.78125 25.703125 
Q 48 27 48 27.984375 
Q 48 30.859375 45.453125 31.640625 
Q 42.921875 32.421875 38.8125 32.421875 
L 30.609375 32.421875 
L 24.125 6.5 
Q 23.875 5.515625 23.875 5.515625 
Q 23.875 4.34375 24.609375 4.203125 
Q 27.203125 3.515625 34.8125 3.515625 
Q 35.796875 3.515625 35.796875 2.203125 
Q 35.453125 0.78125 35.25 0.390625 
Q 35.0625 0 34.078125 0 
z
" id="Cmmi10-70"/>
     </defs>
     <g transform="translate(19.3575 160.156)rotate(-90)scale(0.16 -0.16)">
      <use transform="translate(0 0.6875)" xlink:href="#Cmmi10-77"/>
      <use transform="translate(97.021484 0.6875)" xlink:href="#Cmmi10-70"/>
      <use transform="translate(161.328125 -16.31875)scale(0.7)" xlink:href="#Cmmi10-100"/>
     </g>
    </g>
   </g>
   <g id="line2d_13">
    <path clip-path="url(#p7a179d76f9)" d="M 75.362727 39.709373 
L 88.348909 111.840983 
L 101.335091 177.180895 
L 114.321273 232.78979 
L 127.307455 238.066845 
L 140.293636 246.155076 
L 153.279818 252.634851 
L 166.266 253.97774 
L 179.252182 259.049978 
L 192.238364 260.243682 
L 205.224545 261.571677 
L 218.210727 261.8302 
L 231.196909 262.211236 
L 244.183091 262.326704 
L 257.169273 263.25316 
L 270.155455 262.865303 
L 283.141636 263.197594 
L 296.127818 263.348404 
L 309.114 263.730071 
L 322.100182 263.63724 
L 335.086364 264.049837 
L 348.072545 264.246724 
L 361.058727 263.935343 
L 374.044909 264.540347 
L 387.031091 264.433251 
L 400.017273 264.716 
" style="fill:none;stroke:#0072b2;stroke-dasharray:5.55,2.4;stroke-dashoffset:0;stroke-width:1.5;"/>
    <defs>
     <path d="M 0 3 
C 0.795609 3 1.55874 2.683901 2.12132 2.12132 
C 2.683901 1.55874 3 0.795609 3 0 
C 3 -0.795609 2.683901 -1.55874 2.12132 -2.12132 
C 1.55874 -2.683901 0.795609 -3 0 -3 
C -0.795609 -3 -1.55874 -2.683901 -2.12132 -2.12132 
C -2.683901 -1.55874 -3 -0.795609 -3 0 
C -3 0.795609 -2.683901 1.55874 -2.12132 2.12132 
C -1.55874 2.683901 -0.795609 3 0 3 
z
" id="mb02c0138bf" style="stroke:#0072b2;"/>
    </defs>
    <g clip-path="url(#p7a179d76f9)">
     <use style="fill:#0072b2;stroke:#0072b2;" x="75.362727" xlink:href="#mb02c0138bf" y="39.709373"/>
     <use style="fill:#0072b2;stroke:#0072b2;" x="88.348909" xlink:href="#mb02c0138bf" y="111.840983"/>
     <use style="fill:#0072b2;stroke:#0072b2;" x="101.335091" xlink:href="#mb02c0138bf" y="177.180895"/>
     <use style="fill:#0072b2;stroke:#0072b2;" x="114.321273" xlink:href="#mb02c0138bf" y="232.78979"/>
     <use style="fill:#0072b2;stroke:#0072b2;" x="127.307455" xlink:href="#mb02c0138bf" y="238.066845"/>
     <use style="fill:#0072b2;stroke:#0072b2;" x="140.293636" xlink:href="#mb02c0138bf" y="246.155076"/>
     <use style="fill:#0072b2;stroke:#0072b2;" x="153.279818" xlink:href="#mb02c0138bf" y="252.634851"/>
     <use style="fill:#0072b2;stroke:#0072b2;" x="166.266" xlink:href="#mb02c0138bf" y="253.97774"/>
     <use style="fill:#0072b2;stroke:#0072b2;" x="179.252182" xlink:href="#mb02c0138bf" y="259.049978"/>
     <use style="fill:#0072b2;stroke:#0072b2;" x="192.238364" xlink:href="#mb02c0138bf" y="260.243682"/>
     <use style="fill:#0072b2;stroke:#0072b2;" x="205.224545" xlink:href="#mb02c0138bf" y="261.571677"/>
     <use style="fill:#0072b2;stroke:#0072b2;" x="218.210727" xlink:href="#mb02c0138bf" y="261.8302"/>
     <use style="fill:#0072b2;stroke:#0072b2;" x="231.196909" xlink:href="#mb02c0138bf" y="262.211236"/>
     <use style="fill:#0072b2;stroke:#0072b2;" x="244.183091" xlink:href="#mb02c0138bf" y="262.326704"/>
     <use style="fill:#0072b2;stroke:#0072b2;" x="257.169273" xlink:href="#mb02c0138bf" y="263.25316"/>
     <use style="fill:#0072b2;stroke:#0072b2;" x="270.155455" xlink:href="#mb02c0138bf" y="262.865303"/>
     <use style="fill:#0072b2;stroke:#0072b2;" x="283.141636" xlink:href="#mb02c0138bf" y="263.197594"/>
     <use style="fill:#0072b2;stroke:#0072b2;" x="296.127818" xlink:href="#mb02c0138bf" y="263.348404"/>
     <use style="fill:#0072b2;stroke:#0072b2;" x="309.114" xlink:href="#mb02c0138bf" y="263.730071"/>
     <use style="fill:#0072b2;stroke:#0072b2;" x="322.100182" xlink:href="#mb02c0138bf" y="263.63724"/>
     <use style="fill:#0072b2;stroke:#0072b2;" x="335.086364" xlink:href="#mb02c0138bf" y="264.049837"/>
     <use style="fill:#0072b2;stroke:#0072b2;" x="348.072545" xlink:href="#mb02c0138bf" y="264.246724"/>
     <use style="fill:#0072b2;stroke:#0072b2;" x="361.058727" xlink:href="#mb02c0138bf" y="263.935343"/>
     <use style="fill:#0072b2;stroke:#0072b2;" x="374.044909" xlink:href="#mb02c0138bf" y="264.540347"/>
     <use style="fill:#0072b2;stroke:#0072b2;" x="387.031091" xlink:href="#mb02c0138bf" y="264.433251"/>
     <use style="fill:#0072b2;stroke:#0072b2;" x="400.017273" xlink:href="#mb02c0138bf" y="264.716"/>
    </g>
   </g>
   <g id="line2d_14">
    <path clip-path="url(#p7a179d76f9)" d="M 75.362727 25.751626 
L 88.348909 49.338095 
L 101.335091 81.515089 
L 114.321273 150.825518 
L 127.307455 184.775743 
L 140.293636 215.602222 
L 153.279818 233.089759 
L 166.266 242.003914 
L 179.252182 247.597769 
L 192.238364 253.924972 
L 205.224545 257.005116 
L 218.210727 258.825349 
L 231.196909 260.487223 
L 244.183091 259.820436 
L 257.169273 261.120579 
L 270.155455 260.994135 
L 283.141636 261.956227 
L 296.127818 262.346113 
L 309.114 262.718599 
L 322.100182 262.925411 
L 335.086364 263.567264 
L 348.072545 263.679525 
L 361.058727 263.627394 
L 374.044909 263.751108 
L 387.031091 264.134474 
L 400.017273 264.221914 
" style="fill:none;stroke:#009e73;stroke-dasharray:5.55,2.4;stroke-dashoffset:0;stroke-width:1.5;"/>
    <defs>
     <path d="M 0 3 
C 0.795609 3 1.55874 2.683901 2.12132 2.12132 
C 2.683901 1.55874 3 0.795609 3 0 
C 3 -0.795609 2.683901 -1.55874 2.12132 -2.12132 
C 1.55874 -2.683901 0.795609 -3 0 -3 
C -0.795609 -3 -1.55874 -2.683901 -2.12132 -2.12132 
C -2.683901 -1.55874 -3 -0.795609 -3 0 
C -3 0.795609 -2.683901 1.55874 -2.12132 2.12132 
C -1.55874 2.683901 -0.795609 3 0 3 
z
" id="m1a8ac598b1" style="stroke:#009e73;"/>
    </defs>
    <g clip-path="url(#p7a179d76f9)">
     <use style="fill:#009e73;stroke:#009e73;" x="75.362727" xlink:href="#m1a8ac598b1" y="25.751626"/>
     <use style="fill:#009e73;stroke:#009e73;" x="88.348909" xlink:href="#m1a8ac598b1" y="49.338095"/>
     <use style="fill:#009e73;stroke:#009e73;" x="101.335091" xlink:href="#m1a8ac598b1" y="81.515089"/>
     <use style="fill:#009e73;stroke:#009e73;" x="114.321273" xlink:href="#m1a8ac598b1" y="150.825518"/>
     <use style="fill:#009e73;stroke:#009e73;" x="127.307455" xlink:href="#m1a8ac598b1" y="184.775743"/>
     <use style="fill:#009e73;stroke:#009e73;" x="140.293636" xlink:href="#m1a8ac598b1" y="215.602222"/>
     <use style="fill:#009e73;stroke:#009e73;" x="153.279818" xlink:href="#m1a8ac598b1" y="233.089759"/>
     <use style="fill:#009e73;stroke:#009e73;" x="166.266" xlink:href="#m1a8ac598b1" y="242.003914"/>
     <use style="fill:#009e73;stroke:#009e73;" x="179.252182" xlink:href="#m1a8ac598b1" y="247.597769"/>
     <use style="fill:#009e73;stroke:#009e73;" x="192.238364" xlink:href="#m1a8ac598b1" y="253.924972"/>
     <use style="fill:#009e73;stroke:#009e73;" x="205.224545" xlink:href="#m1a8ac598b1" y="257.005116"/>
     <use style="fill:#009e73;stroke:#009e73;" x="218.210727" xlink:href="#m1a8ac598b1" y="258.825349"/>
     <use style="fill:#009e73;stroke:#009e73;" x="231.196909" xlink:href="#m1a8ac598b1" y="260.487223"/>
     <use style="fill:#009e73;stroke:#009e73;" x="244.183091" xlink:href="#m1a8ac598b1" y="259.820436"/>
     <use style="fill:#009e73;stroke:#009e73;" x="257.169273" xlink:href="#m1a8ac598b1" y="261.120579"/>
     <use style="fill:#009e73;stroke:#009e73;" x="270.155455" xlink:href="#m1a8ac598b1" y="260.994135"/>
     <use style="fill:#009e73;stroke:#009e73;" x="283.141636" xlink:href="#m1a8ac598b1" y="261.956227"/>
     <use style="fill:#009e73;stroke:#009e73;" x="296.127818" xlink:href="#m1a8ac598b1" y="262.346113"/>
     <use style="fill:#009e73;stroke:#009e73;" x="309.114" xlink:href="#m1a8ac598b1" y="262.718599"/>
     <use style="fill:#009e73;stroke:#009e73;" x="322.100182" xlink:href="#m1a8ac598b1" y="262.925411"/>
     <use style="fill:#009e73;stroke:#009e73;" x="335.086364" xlink:href="#m1a8ac598b1" y="263.567264"/>
     <use style="fill:#009e73;stroke:#009e73;" x="348.072545" xlink:href="#m1a8ac598b1" y="263.679525"/>
     <use style="fill:#009e73;stroke:#009e73;" x="361.058727" xlink:href="#m1a8ac598b1" y="263.627394"/>
     <use style="fill:#009e73;stroke:#009e73;" x="374.044909" xlink:href="#m1a8ac598b1" y="263.751108"/>
     <use style="fill:#009e73;stroke:#009e73;" x="387.031091" xlink:href="#m1a8ac598b1" y="264.134474"/>
     <use style="fill:#009e73;stroke:#009e73;" x="400.017273" xlink:href="#m1a8ac598b1" y="264.221914"/>
    </g>
   </g>
   <g id="line2d_15">
    <path clip-path="url(#p7a179d76f9)" d="M 75.362727 23.212484 
L 88.348909 27.652621 
L 101.335091 34.635737 
L 114.321273 48.820334 
L 127.307455 84.694334 
L 140.293636 117.835099 
L 153.279818 151.075538 
L 166.266 176.836749 
L 179.252182 200.733396 
L 192.238364 220.995271 
L 205.224545 224.70346 
L 218.210727 233.024631 
L 231.196909 246.226519 
L 244.183091 248.538268 
L 257.169273 254.27099 
L 270.155455 254.639604 
L 283.141636 255.006028 
L 296.127818 258.429006 
L 309.114 259.138347 
L 322.100182 258.431689 
L 335.086364 260.560688 
L 348.072545 260.597493 
L 361.058727 261.36539 
L 374.044909 261.966815 
L 387.031091 262.092762 
L 400.017273 263.141184 
" style="fill:none;stroke:#d55e00;stroke-dasharray:5.55,2.4;stroke-dashoffset:0;stroke-width:1.5;"/>
    <defs>
     <path d="M 0 3 
C 0.795609 3 1.55874 2.683901 2.12132 2.12132 
C 2.683901 1.55874 3 0.795609 3 0 
C 3 -0.795609 2.683901 -1.55874 2.12132 -2.12132 
C 1.55874 -2.683901 0.795609 -3 0 -3 
C -0.795609 -3 -1.55874 -2.683901 -2.12132 -2.12132 
C -2.683901 -1.55874 -3 -0.795609 -3 0 
C -3 0.795609 -2.683901 1.55874 -2.12132 2.12132 
C -1.55874 2.683901 -0.795609 3 0 3 
z
" id="m58bbb3b10b" style="stroke:#d55e00;"/>
    </defs>
    <g clip-path="url(#p7a179d76f9)">
     <use style="fill:#d55e00;stroke:#d55e00;" x="75.362727" xlink:href="#m58bbb3b10b" y="23.212484"/>
     <use style="fill:#d55e00;stroke:#d55e00;" x="88.348909" xlink:href="#m58bbb3b10b" y="27.652621"/>
     <use style="fill:#d55e00;stroke:#d55e00;" x="101.335091" xlink:href="#m58bbb3b10b" y="34.635737"/>
     <use style="fill:#d55e00;stroke:#d55e00;" x="114.321273" xlink:href="#m58bbb3b10b" y="48.820334"/>
     <use style="fill:#d55e00;stroke:#d55e00;" x="127.307455" xlink:href="#m58bbb3b10b" y="84.694334"/>
     <use style="fill:#d55e00;stroke:#d55e00;" x="140.293636" xlink:href="#m58bbb3b10b" y="117.835099"/>
     <use style="fill:#d55e00;stroke:#d55e00;" x="153.279818" xlink:href="#m58bbb3b10b" y="151.075538"/>
     <use style="fill:#d55e00;stroke:#d55e00;" x="166.266" xlink:href="#m58bbb3b10b" y="176.836749"/>
     <use style="fill:#d55e00;stroke:#d55e00;" x="179.252182" xlink:href="#m58bbb3b10b" y="200.733396"/>
     <use style="fill:#d55e00;stroke:#d55e00;" x="192.238364" xlink:href="#m58bbb3b10b" y="220.995271"/>
     <use style="fill:#d55e00;stroke:#d55e00;" x="205.224545" xlink:href="#m58bbb3b10b" y="224.70346"/>
     <use style="fill:#d55e00;stroke:#d55e00;" x="218.210727" xlink:href="#m58bbb3b10b" y="233.024631"/>
     <use style="fill:#d55e00;stroke:#d55e00;" x="231.196909" xlink:href="#m58bbb3b10b" y="246.226519"/>
     <use style="fill:#d55e00;stroke:#d55e00;" x="244.183091" xlink:href="#m58bbb3b10b" y="248.538268"/>
     <use style="fill:#d55e00;stroke:#d55e00;" x="257.169273" xlink:href="#m58bbb3b10b" y="254.27099"/>
     <use style="fill:#d55e00;stroke:#d55e00;" x="270.155455" xlink:href="#m58bbb3b10b" y="254.639604"/>
     <use style="fill:#d55e00;stroke:#d55e00;" x="283.141636" xlink:href="#m58bbb3b10b" y="255.006028"/>
     <use style="fill:#d55e00;stroke:#d55e00;" x="296.127818" xlink:href="#m58bbb3b10b" y="258.429006"/>
     <use style="fill:#d55e00;stroke:#d55e00;" x="309.114" xlink:href="#m58bbb3b10b" y="259.138347"/>
     <use style="fill:#d55e00;stroke:#d55e00;" x="322.100182" xlink:href="#m58bbb3b10b" y="258.431689"/>
     <use style="fill:#d55e00;stroke:#d55e00;" x="335.086364" xlink:href="#m58bbb3b10b" y="260.560688"/>
     <use style="fill:#d55e00;stroke:#d55e00;" x="348.072545" xlink:href="#m58bbb3b10b" y="260.597493"/>
     <use style="fill:#d55e00;stroke:#d55e00;" x="361.058727" xlink:href="#m58bbb3b10b" y="261.36539"/>
     <use style="fill:#d55e00;stroke:#d55e00;" x="374.044909" xlink:href="#m58bbb3b10b" y="261.966815"/>
     <use style="fill:#d55e00;stroke:#d55e00;" x="387.031091" xlink:href="#m58bbb3b10b" y="262.092762"/>
     <use style="fill:#d55e00;stroke:#d55e00;" x="400.017273" xlink:href="#m58bbb3b10b" y="263.141184"/>
    </g>
   </g>
   <g id="line2d_16">
    <path clip-path="url(#p7a179d76f9)" d="M 75.362727 22.832021 
L 88.348909 23.663099 
L 101.335091 25.973024 
L 114.321273 30.582301 
L 127.307455 46.306379 
L 140.293636 67.673875 
L 153.279818 106.796636 
L 166.266 134.620269 
L 179.252182 160.597758 
L 192.238364 183.247513 
L 205.224545 197.641103 
L 218.210727 204.051794 
L 231.196909 214.367011 
L 244.183091 229.865036 
L 257.169273 234.199676 
L 270.155455 238.910204 
L 283.141636 245.815683 
L 296.127818 248.100702 
L 309.114 249.296243 
L 322.100182 251.712048 
L 335.086364 252.637763 
L 348.072545 254.5405 
L 361.058727 255.419346 
L 374.044909 257.079522 
L 387.031091 258.924471 
L 400.017273 259.2684 
" style="fill:none;stroke:#cc79a7;stroke-dasharray:5.55,2.4;stroke-dashoffset:0;stroke-width:1.5;"/>
    <defs>
     <path d="M 0 3 
C 0.795609 3 1.55874 2.683901 2.12132 2.12132 
C 2.683901 1.55874 3 0.795609 3 0 
C 3 -0.795609 2.683901 -1.55874 2.12132 -2.12132 
C 1.55874 -2.683901 0.795609 -3 0 -3 
C -0.795609 -3 -1.55874 -2.683901 -2.12132 -2.12132 
C -2.683901 -1.55874 -3 -0.795609 -3 0 
C -3 0.795609 -2.683901 1.55874 -2.12132 2.12132 
C -1.55874 2.683901 -0.795609 3 0 3 
z
" id="mb700781bc1" style="stroke:#cc79a7;"/>
    </defs>
    <g clip-path="url(#p7a179d76f9)">
     <use style="fill:#cc79a7;stroke:#cc79a7;" x="75.362727" xlink:href="#mb700781bc1" y="22.832021"/>
     <use style="fill:#cc79a7;stroke:#cc79a7;" x="88.348909" xlink:href="#mb700781bc1" y="23.663099"/>
     <use style="fill:#cc79a7;stroke:#cc79a7;" x="101.335091" xlink:href="#mb700781bc1" y="25.973024"/>
     <use style="fill:#cc79a7;stroke:#cc79a7;" x="114.321273" xlink:href="#mb700781bc1" y="30.582301"/>
     <use style="fill:#cc79a7;stroke:#cc79a7;" x="127.307455" xlink:href="#mb700781bc1" y="46.306379"/>
     <use style="fill:#cc79a7;stroke:#cc79a7;" x="140.293636" xlink:href="#mb700781bc1" y="67.673875"/>
     <use style="fill:#cc79a7;stroke:#cc79a7;" x="153.279818" xlink:href="#mb700781bc1" y="106.796636"/>
     <use style="fill:#cc79a7;stroke:#cc79a7;" x="166.266" xlink:href="#mb700781bc1" y="134.620269"/>
     <use style="fill:#cc79a7;stroke:#cc79a7;" x="179.252182" xlink:href="#mb700781bc1" y="160.597758"/>
     <use style="fill:#cc79a7;stroke:#cc79a7;" x="192.238364" xlink:href="#mb700781bc1" y="183.247513"/>
     <use style="fill:#cc79a7;stroke:#cc79a7;" x="205.224545" xlink:href="#mb700781bc1" y="197.641103"/>
     <use style="fill:#cc79a7;stroke:#cc79a7;" x="218.210727" xlink:href="#mb700781bc1" y="204.051794"/>
     <use style="fill:#cc79a7;stroke:#cc79a7;" x="231.196909" xlink:href="#mb700781bc1" y="214.367011"/>
     <use style="fill:#cc79a7;stroke:#cc79a7;" x="244.183091" xlink:href="#mb700781bc1" y="229.865036"/>
     <use style="fill:#cc79a7;stroke:#cc79a7;" x="257.169273" xlink:href="#mb700781bc1" y="234.199676"/>
     <use style="fill:#cc79a7;stroke:#cc79a7;" x="270.155455" xlink:href="#mb700781bc1" y="238.910204"/>
     <use style="fill:#cc79a7;stroke:#cc79a7;" x="283.141636" xlink:href="#mb700781bc1" y="245.815683"/>
     <use style="fill:#cc79a7;stroke:#cc79a7;" x="296.127818" xlink:href="#mb700781bc1" y="248.100702"/>
     <use style="fill:#cc79a7;stroke:#cc79a7;" x="309.114" xlink:href="#mb700781bc1" y="249.296243"/>
     <use style="fill:#cc79a7;stroke:#cc79a7;" x="322.100182" xlink:href="#mb700781bc1" y="251.712048"/>
     <use style="fill:#cc79a7;stroke:#cc79a7;" x="335.086364" xlink:href="#mb700781bc1" y="252.637763"/>
     <use style="fill:#cc79a7;stroke:#cc79a7;" x="348.072545" xlink:href="#mb700781bc1" y="254.5405"/>
     <use style="fill:#cc79a7;stroke:#cc79a7;" x="361.058727" xlink:href="#mb700781bc1" y="255.419346"/>
     <use style="fill:#cc79a7;stroke:#cc79a7;" x="374.044909" xlink:href="#mb700781bc1" y="257.079522"/>
     <use style="fill:#cc79a7;stroke:#cc79a7;" x="387.031091" xlink:href="#mb700781bc1" y="258.924471"/>
     <use style="fill:#cc79a7;stroke:#cc79a7;" x="400.017273" xlink:href="#mb700781bc1" y="259.2684"/>
    </g>
   </g>
   <g id="line2d_17">
    <path clip-path="url(#p7a179d76f9)" d="M 75.362727 22.796 
L 88.348909 23.132175 
L 101.335091 24.261489 
L 114.321273 26.781903 
L 127.307455 36.909136 
L 140.293636 51.703249 
L 153.279818 81.903648 
L 166.266 113.073939 
L 179.252182 142.807466 
L 192.238364 165.735238 
L 205.224545 181.052361 
L 218.210727 194.414548 
L 231.196909 204.147743 
L 244.183091 217.4465 
L 257.169273 224.930544 
L 270.155455 231.650924 
L 283.141636 238.086479 
L 296.127818 242.453252 
L 309.114 244.504772 
L 322.100182 246.791302 
L 335.086364 249.361401 
L 348.072545 250.576913 
L 361.058727 251.698145 
L 374.044909 253.857895 
L 387.031091 254.950472 
L 400.017273 255.935841 
" style="fill:none;stroke:#f0e442;stroke-dasharray:5.55,2.4;stroke-dashoffset:0;stroke-width:1.5;"/>
    <defs>
     <path d="M 0 3 
C 0.795609 3 1.55874 2.683901 2.12132 2.12132 
C 2.683901 1.55874 3 0.795609 3 0 
C 3 -0.795609 2.683901 -1.55874 2.12132 -2.12132 
C 1.55874 -2.683901 0.795609 -3 0 -3 
C -0.795609 -3 -1.55874 -2.683901 -2.12132 -2.12132 
C -2.683901 -1.55874 -3 -0.795609 -3 0 
C -3 0.795609 -2.683901 1.55874 -2.12132 2.12132 
C -1.55874 2.683901 -0.795609 3 0 3 
z
" id="md8d58ef9e1" style="stroke:#f0e442;"/>
    </defs>
    <g clip-path="url(#p7a179d76f9)">
     <use style="fill:#f0e442;stroke:#f0e442;" x="75.362727" xlink:href="#md8d58ef9e1" y="22.796"/>
     <use style="fill:#f0e442;stroke:#f0e442;" x="88.348909" xlink:href="#md8d58ef9e1" y="23.132175"/>
     <use style="fill:#f0e442;stroke:#f0e442;" x="101.335091" xlink:href="#md8d58ef9e1" y="24.261489"/>
     <use style="fill:#f0e442;stroke:#f0e442;" x="114.321273" xlink:href="#md8d58ef9e1" y="26.781903"/>
     <use style="fill:#f0e442;stroke:#f0e442;" x="127.307455" xlink:href="#md8d58ef9e1" y="36.909136"/>
     <use style="fill:#f0e442;stroke:#f0e442;" x="140.293636" xlink:href="#md8d58ef9e1" y="51.703249"/>
     <use style="fill:#f0e442;stroke:#f0e442;" x="153.279818" xlink:href="#md8d58ef9e1" y="81.903648"/>
     <use style="fill:#f0e442;stroke:#f0e442;" x="166.266" xlink:href="#md8d58ef9e1" y="113.073939"/>
     <use style="fill:#f0e442;stroke:#f0e442;" x="179.252182" xlink:href="#md8d58ef9e1" y="142.807466"/>
     <use style="fill:#f0e442;stroke:#f0e442;" x="192.238364" xlink:href="#md8d58ef9e1" y="165.735238"/>
     <use style="fill:#f0e442;stroke:#f0e442;" x="205.224545" xlink:href="#md8d58ef9e1" y="181.052361"/>
     <use style="fill:#f0e442;stroke:#f0e442;" x="218.210727" xlink:href="#md8d58ef9e1" y="194.414548"/>
     <use style="fill:#f0e442;stroke:#f0e442;" x="231.196909" xlink:href="#md8d58ef9e1" y="204.147743"/>
     <use style="fill:#f0e442;stroke:#f0e442;" x="244.183091" xlink:href="#md8d58ef9e1" y="217.4465"/>
     <use style="fill:#f0e442;stroke:#f0e442;" x="257.169273" xlink:href="#md8d58ef9e1" y="224.930544"/>
     <use style="fill:#f0e442;stroke:#f0e442;" x="270.155455" xlink:href="#md8d58ef9e1" y="231.650924"/>
     <use style="fill:#f0e442;stroke:#f0e442;" x="283.141636" xlink:href="#md8d58ef9e1" y="238.086479"/>
     <use style="fill:#f0e442;stroke:#f0e442;" x="296.127818" xlink:href="#md8d58ef9e1" y="242.453252"/>
     <use style="fill:#f0e442;stroke:#f0e442;" x="309.114" xlink:href="#md8d58ef9e1" y="244.504772"/>
     <use style="fill:#f0e442;stroke:#f0e442;" x="322.100182" xlink:href="#md8d58ef9e1" y="246.791302"/>
     <use style="fill:#f0e442;stroke:#f0e442;" x="335.086364" xlink:href="#md8d58ef9e1" y="249.361401"/>
     <use style="fill:#f0e442;stroke:#f0e442;" x="348.072545" xlink:href="#md8d58ef9e1" y="250.576913"/>
     <use style="fill:#f0e442;stroke:#f0e442;" x="361.058727" xlink:href="#md8d58ef9e1" y="251.698145"/>
     <use style="fill:#f0e442;stroke:#f0e442;" x="374.044909" xlink:href="#md8d58ef9e1" y="253.857895"/>
     <use style="fill:#f0e442;stroke:#f0e442;" x="387.031091" xlink:href="#md8d58ef9e1" y="254.950472"/>
     <use style="fill:#f0e442;stroke:#f0e442;" x="400.017273" xlink:href="#md8d58ef9e1" y="255.935841"/>
    </g>
   </g>
   <g id="patch_3">
    <path d="M 59.13 276.812 
L 59.13 10.7 
" style="fill:none;stroke:#000000;stroke-linecap:square;stroke-linejoin:miter;stroke-width:0.8;"/>
   </g>
   <g id="patch_4">
    <path d="M 416.25 276.812 
L 416.25 10.7 
" style="fill:none;stroke:#000000;stroke-linecap:square;stroke-linejoin:miter;stroke-width:0.8;"/>
   </g>
   <g id="patch_5">
    <path d="M 59.13 276.812 
L 416.25 276.812 
" style="fill:none;stroke:#000000;stroke-linecap:square;stroke-linejoin:miter;stroke-width:0.8;"/>
   </g>
   <g id="patch_6">
    <path d="M 59.13 10.7 
L 416.25 10.7 
" style="fill:none;stroke:#000000;stroke-linecap:square;stroke-linejoin:miter;stroke-width:0.8;"/>
   </g>
   <g id="legend_1">
    <g id="patch_7">
     <path d="M 308.5275 140.925 
L 405.05 140.925 
Q 408.25 140.925 408.25 137.725 
L 408.25 21.9 
Q 408.25 18.7 405.05 18.7 
L 308.5275 18.7 
Q 305.3275 18.7 305.3275 21.9 
L 305.3275 137.725 
Q 305.3275 140.925 308.5275 140.925 
z
" style="fill:#ffffff;opacity:0.8;stroke:#cccccc;stroke-linejoin:miter;"/>
    </g>
    <g id="line2d_18">
     <path d="M 311.7275 31.6575 
L 343.7275 31.6575 
" style="fill:none;stroke:#0072b2;stroke-dasharray:5.55,2.4;stroke-dashoffset:0;stroke-width:1.5;"/>
    </g>
    <g id="line2d_19">
     <g>
      <use style="fill:#0072b2;stroke:#0072b2;" x="327.7275" xlink:href="#mb02c0138bf" y="31.6575"/>
     </g>
    </g>
    <g id="text_15">
     <!-- V=1 -->
     <defs>
      <path d="M 17.484375 67.671875 
L 39.015625 11.71875 
L 60.5 67.671875 
L 52.296875 67.671875 
L 52.296875 72.90625 
L 73.6875 72.90625 
L 73.6875 67.671875 
L 66.609375 67.671875 
L 40.578125 0 
L 32.171875 0 
L 6.296875 67.671875 
L -0.984375 67.671875 
L -0.984375 72.90625 
L 25.59375 72.90625 
L 25.59375 67.671875 
z
" id="DejaVuSerif-86"/>
      <path d="M 10.59375 45.21875 
L 73.1875 45.21875 
L 73.1875 37.40625 
L 10.59375 37.40625 
z
M 10.59375 25.296875 
L 73.1875 25.296875 
L 73.1875 17.484375 
L 10.59375 17.484375 
z
" id="DejaVuSerif-61"/>
     </defs>
     <g transform="translate(356.5275 37.2575)scale(0.16 -0.16)">
      <use xlink:href="#DejaVuSerif-86"/>
      <use x="72.216797" xlink:href="#DejaVuSerif-61"/>
      <use x="156.005859" xlink:href="#DejaVuSerif-49"/>
     </g>
    </g>
    <g id="line2d_20">
     <path d="M 311.7275 55.1425 
L 343.7275 55.1425 
" style="fill:none;stroke:#009e73;stroke-dasharray:5.55,2.4;stroke-dashoffset:0;stroke-width:1.5;"/>
    </g>
    <g id="line2d_21">
     <g>
      <use style="fill:#009e73;stroke:#009e73;" x="327.7275" xlink:href="#m1a8ac598b1" y="55.1425"/>
     </g>
    </g>
    <g id="text_16">
     <!-- V=2 -->
     <g transform="translate(356.5275 60.7425)scale(0.16 -0.16)">
      <use xlink:href="#DejaVuSerif-86"/>
      <use x="72.216797" xlink:href="#DejaVuSerif-61"/>
      <use x="156.005859" xlink:href="#DejaVuSerif-50"/>
     </g>
    </g>
    <g id="line2d_22">
     <path d="M 311.7275 78.6275 
L 343.7275 78.6275 
" style="fill:none;stroke:#d55e00;stroke-dasharray:5.55,2.4;stroke-dashoffset:0;stroke-width:1.5;"/>
    </g>
    <g id="line2d_23">
     <g>
      <use style="fill:#d55e00;stroke:#d55e00;" x="327.7275" xlink:href="#m58bbb3b10b" y="78.6275"/>
     </g>
    </g>
    <g id="text_17">
     <!-- V=5 -->
     <g transform="translate(356.5275 84.2275)scale(0.16 -0.16)">
      <use xlink:href="#DejaVuSerif-86"/>
      <use x="72.216797" xlink:href="#DejaVuSerif-61"/>
      <use x="156.005859" xlink:href="#DejaVuSerif-53"/>
     </g>
    </g>
    <g id="line2d_24">
     <path d="M 311.7275 102.1125 
L 343.7275 102.1125 
" style="fill:none;stroke:#cc79a7;stroke-dasharray:5.55,2.4;stroke-dashoffset:0;stroke-width:1.5;"/>
    </g>
    <g id="line2d_25">
     <g>
      <use style="fill:#cc79a7;stroke:#cc79a7;" x="327.7275" xlink:href="#mb700781bc1" y="102.1125"/>
     </g>
    </g>
    <g id="text_18">
     <!-- V=10 -->
     <g transform="translate(356.5275 107.7125)scale(0.16 -0.16)">
      <use xlink:href="#DejaVuSerif-86"/>
      <use x="72.216797" xlink:href="#DejaVuSerif-61"/>
      <use x="156.005859" xlink:href="#DejaVuSerif-49"/>
      <use x="219.628906" xlink:href="#DejaVuSerif-48"/>
     </g>
    </g>
    <g id="line2d_26">
     <path d="M 311.7275 125.5975 
L 343.7275 125.5975 
" style="fill:none;stroke:#f0e442;stroke-dasharray:5.55,2.4;stroke-dashoffset:0;stroke-width:1.5;"/>
    </g>
    <g id="line2d_27">
     <g>
      <use style="fill:#f0e442;stroke:#f0e442;" x="327.7275" xlink:href="#md8d58ef9e1" y="125.5975"/>
     </g>
    </g>
    <g id="text_19">
     <!-- V=25 -->
     <g transform="translate(356.5275 131.1975)scale(0.16 -0.16)">
      <use xlink:href="#DejaVuSerif-86"/>
      <use x="72.216797" xlink:href="#DejaVuSerif-61"/>
      <use x="156.005859" xlink:href="#DejaVuSerif-50"/>
      <use x="219.628906" xlink:href="#DejaVuSerif-53"/>
     </g>
    </g>
   </g>
  </g>
 </g>
 <defs>
  <clipPath id="p7a179d76f9">
   <rect height="266.112" width="357.12" x="59.13" y="10.7"/>
  </clipPath>
 </defs>
</svg>
