<?xml version="1.0" encoding="utf-8" standalone="no"?>
<!DOCTYPE svg PUBLIC "-//W3C//DTD SVG 1.1//EN"
  "http://www.w3.org/Graphics/SVG/1.1/DTD/svg11.dtd">
<!-- Created with matplotlib (https://matplotlib.org/) -->
<svg height="326.337pt" version="1.1" viewBox="0 0 426.95 326.337" width="426.95pt" xmlns="http://www.w3.org/2000/svg" xmlns:xlink="http://www.w3.org/1999/xlink">
 <defs>
  <style type="text/css">
*{stroke-linecap:butt;stroke-linejoin:round;}
  </style>
 </defs>
 <g id="figure_1">
  <g id="patch_1">
   <path d="M 0 326.337 
L 426.95 326.337 
L 426.95 0 
L 0 0 
z
" style="fill:#ffffff;"/>
  </g>
  <g id="axes_1">
   <g id="patch_2">
    <path d="M 59.13 276.812 
L 416.25 276.812 
L 416.25 10.7 
L 59.13 10.7 
z
" style="fill:#ffffff;"/>
   </g>
   <g id="matplotlib.axis_1">
    <g id="xtick_1">
     <g id="line2d_1">
      <defs>
       <path d="M 0 0 
L 0 3.5 
" id="m00e83dc213" style="stroke:#000000;stroke-width:0.8;"/>
      </defs>
      <g>
       <use style="stroke:#000000;stroke-width:0.8;" x="111.435455" xlink:href="#m00e83dc213" y="276.812"/>
      </g>
     </g>
     <g id="text_1">
      <!-- 2 -->
      <defs>
       <path d="M 12.796875 55.515625 
L 7.328125 55.515625 
L 7.328125 68.5 
Q 12.546875 71.296875 17.84375 72.75 
Q 23.140625 74.21875 28.21875 74.21875 
Q 39.59375 74.21875 46.1875 68.703125 
Q 52.78125 63.1875 52.78125 53.71875 
Q 52.78125 43.015625 37.84375 28.125 
Q 36.671875 27 36.078125 26.421875 
L 17.671875 8.015625 
L 48.09375 8.015625 
L 48.09375 17 
L 53.8125 17 
L 53.8125 0 
L 6.78125 0 
L 6.78125 5.328125 
L 28.90625 27.390625 
Q 36.234375 34.71875 39.359375 40.84375 
Q 42.484375 46.96875 42.484375 53.71875 
Q 42.484375 61.078125 38.640625 65.234375 
Q 34.8125 69.390625 28.078125 69.390625 
Q 21.09375 69.390625 17.28125 65.921875 
Q 13.484375 62.453125 12.796875 55.515625 
z
" id="DejaVuSerif-50"/>
      </defs>
      <g transform="translate(106.345455 295.9695)scale(0.16 -0.16)">
       <use xlink:href="#DejaVuSerif-50"/>
      </g>
     </g>
    </g>
    <g id="xtick_2">
     <g id="line2d_2">
      <g>
       <use style="stroke:#000000;stroke-width:0.8;" x="183.580909" xlink:href="#m00e83dc213" y="276.812"/>
      </g>
     </g>
     <g id="text_2">
      <!-- 4 -->
      <defs>
       <path d="M 34.90625 24.703125 
L 34.90625 63.484375 
L 10.015625 24.703125 
z
M 56.390625 0 
L 23.1875 0 
L 23.1875 5.171875 
L 34.90625 5.171875 
L 34.90625 19.484375 
L 3.078125 19.484375 
L 3.078125 24.8125 
L 35.015625 74.21875 
L 44.671875 74.21875 
L 44.671875 24.703125 
L 58.59375 24.703125 
L 58.59375 19.484375 
L 44.671875 19.484375 
L 44.671875 5.171875 
L 56.390625 5.171875 
z
" id="DejaVuSerif-52"/>
      </defs>
      <g transform="translate(178.490909 295.9695)scale(0.16 -0.16)">
       <use xlink:href="#DejaVuSerif-52"/>
      </g>
     </g>
    </g>
    <g id="xtick_3">
     <g id="line2d_3">
      <g>
       <use style="stroke:#000000;stroke-width:0.8;" x="255.726364" xlink:href="#m00e83dc213" y="276.812"/>
      </g>
     </g>
     <g id="text_3">
      <!-- 6 -->
      <defs>
       <path d="M 32.71875 3.421875 
Q 39.59375 3.421875 43.296875 8.46875 
Q 47.015625 13.53125 47.015625 23 
Q 47.015625 32.46875 43.296875 37.515625 
Q 39.59375 42.578125 32.71875 42.578125 
Q 25.734375 42.578125 22.0625 37.6875 
Q 18.40625 32.8125 18.40625 23.578125 
Q 18.40625 13.875 22.109375 8.640625 
Q 25.828125 3.421875 32.71875 3.421875 
z
M 16.796875 40.140625 
Q 20.125 43.796875 24.3125 45.59375 
Q 28.515625 47.40625 33.796875 47.40625 
Q 44.671875 47.40625 51 40.859375 
Q 57.328125 34.328125 57.328125 23 
Q 57.328125 11.921875 50.515625 5.25 
Q 43.703125 -1.421875 32.328125 -1.421875 
Q 19.96875 -1.421875 13.328125 7.78125 
Q 6.6875 17 6.6875 34.078125 
Q 6.6875 53.21875 14.546875 63.71875 
Q 22.40625 74.21875 36.71875 74.21875 
Q 40.578125 74.21875 44.828125 73.484375 
Q 49.078125 72.75 53.515625 71.296875 
L 53.515625 59.28125 
L 48 59.28125 
Q 47.40625 64.203125 44.234375 66.796875 
Q 41.0625 69.390625 35.6875 69.390625 
Q 26.21875 69.390625 21.578125 62.203125 
Q 16.9375 55.03125 16.796875 40.140625 
z
" id="DejaVuSerif-54"/>
      </defs>
      <g transform="translate(250.636364 295.9695)scale(0.16 -0.16)">
       <use xlink:href="#DejaVuSerif-54"/>
      </g>
     </g>
    </g>
    <g id="xtick_4">
     <g id="line2d_4">
      <g>
       <use style="stroke:#000000;stroke-width:0.8;" x="327.871818" xlink:href="#m00e83dc213" y="276.812"/>
      </g>
     </g>
     <g id="text_4">
      <!-- 8 -->
      <defs>
       <path d="M 46.578125 19.921875 
Q 46.578125 27.734375 42.6875 32.046875 
Q 38.8125 36.375 31.78125 36.375 
Q 24.75 36.375 20.875 32.046875 
Q 17 27.734375 17 19.921875 
Q 17 12.0625 20.875 7.734375 
Q 24.75 3.421875 31.78125 3.421875 
Q 38.8125 3.421875 42.6875 7.734375 
Q 46.578125 12.0625 46.578125 19.921875 
z
M 44.578125 55.328125 
Q 44.578125 61.96875 41.203125 65.671875 
Q 37.84375 69.390625 31.78125 69.390625 
Q 25.78125 69.390625 22.390625 65.671875 
Q 19 61.96875 19 55.328125 
Q 19 48.640625 22.390625 44.921875 
Q 25.78125 41.21875 31.78125 41.21875 
Q 37.84375 41.21875 41.203125 44.921875 
Q 44.578125 48.640625 44.578125 55.328125 
z
M 39.3125 38.8125 
Q 47.609375 37.703125 52.25 32.6875 
Q 56.890625 27.6875 56.890625 19.921875 
Q 56.890625 9.671875 50.390625 4.125 
Q 43.890625 -1.421875 31.78125 -1.421875 
Q 19.734375 -1.421875 13.203125 4.125 
Q 6.6875 9.671875 6.6875 19.921875 
Q 6.6875 27.6875 11.328125 32.6875 
Q 15.96875 37.703125 24.3125 38.8125 
Q 16.9375 40.140625 13 44.40625 
Q 9.078125 48.6875 9.078125 55.328125 
Q 9.078125 64.109375 15.125 69.15625 
Q 21.1875 74.21875 31.78125 74.21875 
Q 42.390625 74.21875 48.4375 69.15625 
Q 54.5 64.109375 54.5 55.328125 
Q 54.5 48.6875 50.5625 44.40625 
Q 46.625 40.140625 39.3125 38.8125 
z
" id="DejaVuSerif-56"/>
      </defs>
      <g transform="translate(322.781818 295.9695)scale(0.16 -0.16)">
       <use xlink:href="#DejaVuSerif-56"/>
      </g>
     </g>
    </g>
    <g id="xtick_5">
     <g id="line2d_5">
      <g>
       <use style="stroke:#000000;stroke-width:0.8;" x="400.017273" xlink:href="#m00e83dc213" y="276.812"/>
      </g>
     </g>
     <g id="text_5">
      <!-- 10 -->
      <defs>
       <path d="M 14.203125 0 
L 14.203125 5.171875 
L 26.90625 5.171875 
L 26.90625 65.828125 
L 12.203125 56.296875 
L 12.203125 62.703125 
L 29.984375 74.21875 
L 36.71875 74.21875 
L 36.71875 5.171875 
L 49.421875 5.171875 
L 49.421875 0 
z
" id="DejaVuSerif-49"/>
       <path d="M 31.78125 3.421875 
Q 39.265625 3.421875 42.96875 11.625 
Q 46.6875 19.828125 46.6875 36.375 
Q 46.6875 52.984375 42.96875 61.1875 
Q 39.265625 69.390625 31.78125 69.390625 
Q 24.3125 69.390625 20.59375 61.1875 
Q 16.890625 52.984375 16.890625 36.375 
Q 16.890625 19.828125 20.59375 11.625 
Q 24.3125 3.421875 31.78125 3.421875 
z
M 31.78125 -1.421875 
Q 19.921875 -1.421875 13.25 8.53125 
Q 6.59375 18.5 6.59375 36.375 
Q 6.59375 54.296875 13.25 64.25 
Q 19.921875 74.21875 31.78125 74.21875 
Q 43.703125 74.21875 50.34375 64.25 
Q 56.984375 54.296875 56.984375 36.375 
Q 56.984375 18.5 50.34375 8.53125 
Q 43.703125 -1.421875 31.78125 -1.421875 
z
" id="DejaVuSerif-48"/>
      </defs>
      <g transform="translate(389.837273 295.9695)scale(0.16 -0.16)">
       <use xlink:href="#DejaVuSerif-49"/>
       <use x="63.623047" xlink:href="#DejaVuSerif-48"/>
      </g>
     </g>
    </g>
    <g id="text_6">
     <!-- Delay $d$ -->
     <defs>
      <path d="M 24.703125 5.171875 
L 33.796875 5.171875 
Q 48 5.171875 55.59375 13.28125 
Q 63.1875 21.390625 63.1875 36.53125 
Q 63.1875 51.65625 55.609375 59.65625 
Q 48.046875 67.671875 33.796875 67.671875 
L 24.703125 67.671875 
z
M 5.515625 0 
L 5.515625 5.171875 
L 14.796875 5.171875 
L 14.796875 67.671875 
L 5.515625 67.671875 
L 5.515625 72.90625 
L 34.515625 72.90625 
Q 53.375 72.90625 63.890625 63.28125 
Q 74.421875 53.65625 74.421875 36.53125 
Q 74.421875 19.34375 63.875 9.671875 
Q 53.328125 0 34.515625 0 
z
" id="DejaVuSerif-68"/>
      <path d="M 54.203125 25 
L 15.484375 25 
L 15.484375 24.609375 
Q 15.484375 14.109375 19.4375 8.765625 
Q 23.390625 3.421875 31.109375 3.421875 
Q 37.015625 3.421875 40.796875 6.515625 
Q 44.578125 9.625 46.09375 15.71875 
L 53.328125 15.71875 
Q 51.171875 7.171875 45.375 2.875 
Q 39.59375 -1.421875 30.171875 -1.421875 
Q 18.796875 -1.421875 11.890625 6.078125 
Q 4.984375 13.578125 4.984375 25.984375 
Q 4.984375 38.28125 11.765625 45.796875 
Q 18.5625 53.328125 29.59375 53.328125 
Q 41.359375 53.328125 47.65625 46.0625 
Q 53.953125 38.8125 54.203125 25 
z
M 43.609375 30.171875 
Q 43.3125 39.265625 39.765625 43.875 
Q 36.234375 48.484375 29.59375 48.484375 
Q 23.390625 48.484375 19.828125 43.84375 
Q 16.265625 39.203125 15.484375 30.171875 
z
" id="DejaVuSerif-101"/>
      <path d="M 20.515625 5.171875 
L 29 5.171875 
L 29 0 
L 2.875 0 
L 2.875 5.171875 
L 11.53125 5.171875 
L 11.53125 70.796875 
L 2.875 70.796875 
L 2.875 75.984375 
L 20.515625 75.984375 
z
" id="DejaVuSerif-108"/>
      <path d="M 39.796875 16.3125 
L 39.796875 27.296875 
L 28.21875 27.296875 
Q 21.53125 27.296875 18.25 24.40625 
Q 14.984375 21.53125 14.984375 15.578125 
Q 14.984375 10.15625 18.296875 6.984375 
Q 21.625 3.8125 27.296875 3.8125 
Q 32.90625 3.8125 36.34375 7.28125 
Q 39.796875 10.75 39.796875 16.3125 
z
M 48.78125 32.421875 
L 48.78125 5.171875 
L 56.78125 5.171875 
L 56.78125 0 
L 39.796875 0 
L 39.796875 5.609375 
Q 36.8125 2 32.90625 0.28125 
Q 29 -1.421875 23.78125 -1.421875 
Q 15.140625 -1.421875 10.0625 3.171875 
Q 4.984375 7.765625 4.984375 15.578125 
Q 4.984375 23.640625 10.796875 28.078125 
Q 16.609375 32.515625 27.203125 32.515625 
L 39.796875 32.515625 
L 39.796875 36.078125 
Q 39.796875 42 36.203125 45.234375 
Q 32.625 48.484375 26.125 48.484375 
Q 20.75 48.484375 17.578125 46.046875 
Q 14.40625 43.609375 13.625 38.8125 
L 8.984375 38.8125 
L 8.984375 49.3125 
Q 13.671875 51.3125 18.09375 52.3125 
Q 22.515625 53.328125 26.703125 53.328125 
Q 37.5 53.328125 43.140625 47.96875 
Q 48.78125 42.625 48.78125 32.421875 
z
" id="DejaVuSerif-97"/>
      <path d="M 21.578125 -9.515625 
L 25 -0.875 
L 5.609375 46.6875 
L -0.296875 46.6875 
L -0.296875 51.90625 
L 23.578125 51.90625 
L 23.578125 46.6875 
L 15.28125 46.6875 
L 29.890625 10.984375 
L 44.484375 46.6875 
L 36.71875 46.6875 
L 36.71875 51.90625 
L 56.203125 51.90625 
L 56.203125 46.6875 
L 50.390625 46.6875 
L 26.609375 -11.71875 
Q 24.171875 -17.78125 21.1875 -20 
Q 18.21875 -22.21875 12.796875 -22.21875 
Q 10.5 -22.21875 8.078125 -21.828125 
Q 5.671875 -21.4375 3.21875 -20.703125 
L 3.21875 -10.796875 
L 7.8125 -10.796875 
Q 8.109375 -14.109375 9.5 -15.546875 
Q 10.890625 -17 13.8125 -17 
Q 16.5 -17 18.140625 -15.5 
Q 19.78125 -14.015625 21.578125 -9.515625 
z
" id="DejaVuSerif-121"/>
      <path id="DejaVuSerif-32"/>
      <path d="M 17.390625 -1.125 
Q 11.078125 -1.125 7.4375 3.640625 
Q 3.8125 8.40625 3.8125 14.890625 
Q 3.8125 21.296875 7.125 28.171875 
Q 10.453125 35.0625 16.09375 39.625 
Q 21.734375 44.1875 28.21875 44.1875 
Q 31.15625 44.1875 33.515625 42.546875 
Q 35.890625 40.921875 37.203125 38.1875 
L 42.828125 60.5 
Q 43.21875 62.203125 43.3125 63.1875 
Q 43.3125 64.796875 36.8125 64.796875 
Q 35.796875 64.796875 35.796875 66.109375 
Q 35.84375 66.359375 36.015625 66.984375 
Q 36.1875 67.625 36.453125 67.96875 
Q 36.71875 68.3125 37.203125 68.3125 
L 50.6875 69.390625 
Q 51.90625 69.390625 51.90625 68.109375 
L 37.5 10.59375 
Q 36.8125 8.9375 36.8125 5.8125 
Q 36.8125 1.515625 39.703125 1.515625 
Q 42.828125 1.515625 44.453125 5.484375 
Q 46.09375 9.46875 47.21875 14.703125 
Q 47.40625 15.28125 48 15.28125 
L 49.21875 15.28125 
Q 49.609375 15.28125 49.84375 14.9375 
Q 50.09375 14.59375 50.09375 14.3125 
Q 48.34375 7.328125 46.265625 3.09375 
Q 44.1875 -1.125 39.5 -1.125 
Q 36.140625 -1.125 33.546875 0.84375 
Q 30.953125 2.828125 30.328125 6.109375 
Q 23.875 -1.125 17.390625 -1.125 
z
M 17.484375 1.515625 
Q 21.09375 1.515625 24.484375 4.21875 
Q 27.875 6.9375 30.328125 10.59375 
Q 30.421875 10.6875 30.421875 10.984375 
L 35.890625 33.015625 
Q 35.296875 36.53125 33.296875 39.0625 
Q 31.296875 41.609375 27.984375 41.609375 
Q 24.609375 41.609375 21.703125 38.84375 
Q 18.796875 36.078125 16.796875 32.328125 
Q 14.84375 28.328125 13.0625 21.34375 
Q 11.28125 14.359375 11.28125 10.5 
Q 11.28125 7.03125 12.765625 4.265625 
Q 14.265625 1.515625 17.484375 1.515625 
z
" id="Cmmi10-100"/>
     </defs>
     <g transform="translate(207.93 315.457)scale(0.16 -0.16)">
      <use transform="translate(0 0.015625)" xlink:href="#DejaVuSerif-68"/>
      <use transform="translate(80.175781 0.015625)" xlink:href="#DejaVuSerif-101"/>
      <use transform="translate(139.355469 0.015625)" xlink:href="#DejaVuSerif-108"/>
      <use transform="translate(171.337891 0.015625)" xlink:href="#DejaVuSerif-97"/>
      <use transform="translate(230.957031 0.015625)" xlink:href="#DejaVuSerif-121"/>
      <use transform="translate(287.451172 0.015625)" xlink:href="#DejaVuSerif-32"/>
      <use transform="translate(319.238281 0.015625)" xlink:href="#Cmmi10-100"/>
     </g>
    </g>
   </g>
   <g id="matplotlib.axis_2">
    <g id="ytick_1">
     <g id="line2d_6">
      <defs>
       <path d="M 0 0 
L -3.5 0 
" id="m09c71409b8" style="stroke:#000000;stroke-width:0.8;"/>
      </defs>
      <g>
       <use style="stroke:#000000;stroke-width:0.8;" x="59.13" xlink:href="#m09c71409b8" y="264.92476"/>
      </g>
     </g>
     <g id="text_7">
      <!-- 0.0 -->
      <defs>
       <path d="M 9.421875 5.078125 
Q 9.421875 7.8125 11.28125 9.71875 
Q 13.140625 11.625 15.921875 11.625 
Q 18.609375 11.625 20.5 9.71875 
Q 22.40625 7.8125 22.40625 5.078125 
Q 22.40625 2.390625 20.5 0.484375 
Q 18.609375 -1.421875 15.921875 -1.421875 
Q 13.140625 -1.421875 11.28125 0.453125 
Q 9.421875 2.34375 9.421875 5.078125 
z
" id="DejaVuSerif-46"/>
      </defs>
      <g transform="translate(26.685 271.00351)scale(0.16 -0.16)">
       <use xlink:href="#DejaVuSerif-48"/>
       <use x="63.623047" xlink:href="#DejaVuSerif-46"/>
       <use x="95.410156" xlink:href="#DejaVuSerif-48"/>
      </g>
     </g>
    </g>
    <g id="ytick_2">
     <g id="line2d_7">
      <g>
       <use style="stroke:#000000;stroke-width:0.8;" x="59.13" xlink:href="#m09c71409b8" y="215.561344"/>
      </g>
     </g>
     <g id="text_8">
      <!-- 0.2 -->
      <g transform="translate(26.685 221.640094)scale(0.16 -0.16)">
       <use xlink:href="#DejaVuSerif-48"/>
       <use x="63.623047" xlink:href="#DejaVuSerif-46"/>
       <use x="95.410156" xlink:href="#DejaVuSerif-50"/>
      </g>
     </g>
    </g>
    <g id="ytick_3">
     <g id="line2d_8">
      <g>
       <use style="stroke:#000000;stroke-width:0.8;" x="59.13" xlink:href="#m09c71409b8" y="166.197929"/>
      </g>
     </g>
     <g id="text_9">
      <!-- 0.4 -->
      <g transform="translate(26.685 172.276679)scale(0.16 -0.16)">
       <use xlink:href="#DejaVuSerif-48"/>
       <use x="63.623047" xlink:href="#DejaVuSerif-46"/>
       <use x="95.410156" xlink:href="#DejaVuSerif-52"/>
      </g>
     </g>
    </g>
    <g id="ytick_4">
     <g id="line2d_9">
      <g>
       <use style="stroke:#000000;stroke-width:0.8;" x="59.13" xlink:href="#m09c71409b8" y="116.834513"/>
      </g>
     </g>
     <g id="text_10">
      <!-- 0.6 -->
      <g transform="translate(26.685 122.913263)scale(0.16 -0.16)">
       <use xlink:href="#DejaVuSerif-48"/>
       <use x="63.623047" xlink:href="#DejaVuSerif-46"/>
       <use x="95.410156" xlink:href="#DejaVuSerif-54"/>
      </g>
     </g>
    </g>
    <g id="ytick_5">
     <g id="line2d_10">
      <g>
       <use style="stroke:#000000;stroke-width:0.8;" x="59.13" xlink:href="#m09c71409b8" y="67.471097"/>
      </g>
     </g>
     <g id="text_11">
      <!-- 0.8 -->
      <g transform="translate(26.685 73.549847)scale(0.16 -0.16)">
       <use xlink:href="#DejaVuSerif-48"/>
       <use x="63.623047" xlink:href="#DejaVuSerif-46"/>
       <use x="95.410156" xlink:href="#DejaVuSerif-56"/>
      </g>
     </g>
    </g>
    <g id="ytick_6">
     <g id="line2d_11">
      <g>
       <use style="stroke:#000000;stroke-width:0.8;" x="59.13" xlink:href="#m09c71409b8" y="18.107681"/>
      </g>
     </g>
     <g id="text_12">
      <!-- 1.0 -->
      <g transform="translate(26.685 24.186431)scale(0.16 -0.16)">
       <use xlink:href="#DejaVuSerif-49"/>
       <use x="63.623047" xlink:href="#DejaVuSerif-46"/>
       <use x="95.410156" xlink:href="#DejaVuSerif-48"/>
      </g>
     </g>
    </g>
    <g id="text_13">
     <!-- $MF_d$ -->
     <defs>
      <path d="M 5.078125 0 
Q 4.109375 0 4.109375 1.3125 
Q 4.15625 1.5625 4.296875 2.140625 
Q 4.4375 2.734375 4.6875 3.125 
Q 4.9375 3.515625 5.421875 3.515625 
Q 14.9375 3.515625 16.5 9.625 
L 29.5 61.8125 
Q 29.6875 62.796875 29.6875 63.1875 
Q 29.6875 64.265625 28.515625 64.40625 
Q 26.609375 64.796875 21.296875 64.796875 
Q 20.3125 64.796875 20.3125 66.109375 
Q 20.359375 66.359375 20.5 66.96875 
Q 20.65625 67.578125 20.921875 67.9375 
Q 21.1875 68.3125 21.578125 68.3125 
L 39.203125 68.3125 
Q 40.328125 68.3125 40.484375 67.1875 
L 48.296875 9.90625 
L 84.71875 67.1875 
Q 85.40625 68.3125 86.625 68.3125 
L 103.609375 68.3125 
Q 104.59375 68.3125 104.59375 67 
Q 104.546875 66.75 104.390625 66.140625 
Q 104.25 65.53125 103.984375 65.15625 
Q 103.71875 64.796875 103.328125 64.796875 
Q 97.21875 64.796875 94.828125 64.109375 
Q 93.5 63.671875 92.921875 61.375 
L 79.203125 6.5 
Q 79 5.515625 79 5.078125 
Q 79 4.6875 79.125 4.421875 
Q 79.25 4.15625 79.46875 4.078125 
Q 79.6875 4 80.171875 3.90625 
Q 82.078125 3.515625 87.40625 3.515625 
Q 88.375 3.515625 88.375 2.203125 
Q 88.03125 0.78125 87.828125 0.390625 
Q 87.640625 0 86.71875 0 
L 60.59375 0 
Q 59.625 0 59.625 1.3125 
Q 59.671875 1.5625 59.8125 2.171875 
Q 59.96875 2.78125 60.234375 3.140625 
Q 60.5 3.515625 60.890625 3.515625 
Q 67 3.515625 69.390625 4.203125 
Q 70.703125 4.640625 71.296875 6.890625 
L 85.6875 64.796875 
L 45.3125 1.125 
Q 44.734375 0 43.3125 0 
Q 42.046875 0 41.890625 1.125 
L 33.40625 64.015625 
L 19.671875 9.1875 
Q 19.578125 8.9375 19.53125 8.5625 
Q 19.484375 8.203125 19.390625 7.71875 
Q 19.390625 5.125 21.65625 4.3125 
Q 23.921875 3.515625 27.203125 3.515625 
Q 28.21875 3.515625 28.21875 2.203125 
Q 27.875 0.875 27.65625 0.4375 
Q 27.4375 0 26.515625 0 
z
" id="Cmmi10-77"/>
      <path d="M 4.6875 0 
Q 3.71875 0 3.71875 1.3125 
Q 3.765625 1.5625 3.90625 2.171875 
Q 4.046875 2.78125 4.3125 3.140625 
Q 4.59375 3.515625 4.984375 3.515625 
Q 11.078125 3.515625 13.484375 4.203125 
Q 14.796875 4.640625 15.375 6.890625 
L 29.109375 61.8125 
Q 29.296875 62.796875 29.296875 63.1875 
Q 29.296875 64.265625 28.078125 64.40625 
Q 26.21875 64.796875 20.90625 64.796875 
Q 19.921875 64.796875 19.921875 66.109375 
Q 19.96875 66.359375 20.109375 66.96875 
Q 20.265625 67.578125 20.53125 67.9375 
Q 20.796875 68.3125 21.1875 68.3125 
L 74.03125 68.3125 
Q 75 68.3125 75 67 
L 72.609375 46.296875 
Q 72.609375 46 72.265625 45.703125 
Q 71.921875 45.40625 71.578125 45.40625 
L 70.703125 45.40625 
Q 69.671875 45.40625 69.671875 46.6875 
Q 70.3125 51.21875 70.3125 54.109375 
Q 70.3125 59.078125 68.15625 61.421875 
Q 66.015625 63.765625 62.734375 64.28125 
Q 59.46875 64.796875 53.71875 64.796875 
L 43.015625 64.796875 
Q 40.28125 64.796875 39.40625 64.328125 
Q 38.53125 63.875 37.796875 61.375 
L 31.390625 35.890625 
L 38.921875 35.890625 
Q 42.625 35.890625 44.921875 36.28125 
Q 47.21875 36.671875 48.734375 37.796875 
Q 50.25 38.921875 51.25 41.046875 
Q 52.25 43.171875 53.078125 46.6875 
Q 53.375 47.609375 54.109375 47.609375 
L 54.984375 47.609375 
Q 56 47.609375 56 46.296875 
L 49.90625 21.578125 
Q 49.46875 20.703125 48.875 20.703125 
L 48 20.703125 
Q 47.015625 20.703125 47.015625 22.015625 
Q 47.265625 23.046875 47.40625 23.734375 
Q 47.5625 24.421875 47.78125 25.703125 
Q 48 27 48 27.984375 
Q 48 30.859375 45.453125 31.640625 
Q 42.921875 32.421875 38.8125 32.421875 
L 30.609375 32.421875 
L 24.125 6.5 
Q 23.875 5.515625 23.875 5.515625 
Q 23.875 4.34375 24.609375 4.203125 
Q 27.203125 3.515625 34.8125 3.515625 
Q 35.796875 3.515625 35.796875 2.203125 
Q 35.453125 0.78125 35.25 0.390625 
Q 35.0625 0 34.078125 0 
z
" id="Cmmi10-70"/>
     </defs>
     <g transform="translate(19.3575 160.156)rotate(-90)scale(0.16 -0.16)">
      <use transform="translate(0 0.6875)" xlink:href="#Cmmi10-77"/>
      <use transform="translate(97.021484 0.6875)" xlink:href="#Cmmi10-70"/>
      <use transform="translate(161.328125 -16.31875)scale(0.7)" xlink:href="#Cmmi10-100"/>
     </g>
    </g>
   </g>
   <g id="line2d_12">
    <path clip-path="url(#p18247ed2c8)" d="M 75.362727 195.544693 
L 111.435455 257.009346 
L 147.508182 263.340002 
L 183.580909 264.6097 
L 219.653636 264.676433 
L 255.726364 264.56072 
L 291.799091 264.239446 
L 327.871818 264.61339 
L 363.944545 264.657422 
L 400.017273 264.667036 
" style="fill:none;stroke:#0072b2;stroke-dasharray:5.55,2.4;stroke-dashoffset:0;stroke-width:1.5;"/>
    <defs>
     <path d="M 0 3 
C 0.795609 3 1.55874 2.683901 2.12132 2.12132 
C 2.683901 1.55874 3 0.795609 3 0 
C 3 -0.795609 2.683901 -1.55874 2.12132 -2.12132 
C 1.55874 -2.683901 0.795609 -3 0 -3 
C -0.795609 -3 -1.55874 -2.683901 -2.12132 -2.12132 
C -2.683901 -1.55874 -3 -0.795609 -3 0 
C -3 0.795609 -2.683901 1.55874 -2.12132 2.12132 
C -1.55874 2.683901 -0.795609 3 0 3 
z
" id="mf0e6983ac0" style="stroke:#0072b2;"/>
    </defs>
    <g clip-path="url(#p18247ed2c8)">
     <use style="fill:#0072b2;stroke:#0072b2;" x="75.362727" xlink:href="#mf0e6983ac0" y="195.544693"/>
     <use style="fill:#0072b2;stroke:#0072b2;" x="111.435455" xlink:href="#mf0e6983ac0" y="257.009346"/>
     <use style="fill:#0072b2;stroke:#0072b2;" x="147.508182" xlink:href="#mf0e6983ac0" y="263.340002"/>
     <use style="fill:#0072b2;stroke:#0072b2;" x="183.580909" xlink:href="#mf0e6983ac0" y="264.6097"/>
     <use style="fill:#0072b2;stroke:#0072b2;" x="219.653636" xlink:href="#mf0e6983ac0" y="264.676433"/>
     <use style="fill:#0072b2;stroke:#0072b2;" x="255.726364" xlink:href="#mf0e6983ac0" y="264.56072"/>
     <use style="fill:#0072b2;stroke:#0072b2;" x="291.799091" xlink:href="#mf0e6983ac0" y="264.239446"/>
     <use style="fill:#0072b2;stroke:#0072b2;" x="327.871818" xlink:href="#mf0e6983ac0" y="264.61339"/>
     <use style="fill:#0072b2;stroke:#0072b2;" x="363.944545" xlink:href="#mf0e6983ac0" y="264.657422"/>
     <use style="fill:#0072b2;stroke:#0072b2;" x="400.017273" xlink:href="#mf0e6983ac0" y="264.667036"/>
    </g>
   </g>
   <g id="line2d_13">
    <path clip-path="url(#p18247ed2c8)" d="M 75.362727 166.47653 
L 111.435455 248.913403 
L 147.508182 262.718004 
L 183.580909 264.309798 
L 219.653636 264.624044 
L 255.726364 264.529815 
L 291.799091 264.478599 
L 327.871818 264.579611 
L 363.944545 264.716 
L 400.017273 264.603768 
" style="fill:none;stroke:#009e73;stroke-dasharray:5.55,2.4;stroke-dashoffset:0;stroke-width:1.5;"/>
    <defs>
     <path d="M 0 3 
C 0.795609 3 1.55874 2.683901 2.12132 2.12132 
C 2.683901 1.55874 3 0.795609 3 0 
C 3 -0.795609 2.683901 -1.55874 2.12132 -2.12132 
C 1.55874 -2.683901 0.795609 -3 0 -3 
C -0.795609 -3 -1.55874 -2.683901 -2.12132 -2.12132 
C -2.683901 -1.55874 -3 -0.795609 -3 0 
C -3 0.795609 -2.683901 1.55874 -2.12132 2.12132 
C -1.55874 2.683901 -0.795609 3 0 3 
z
" id="m22b84a4d47" style="stroke:#009e73;"/>
    </defs>
    <g clip-path="url(#p18247ed2c8)">
     <use style="fill:#009e73;stroke:#009e73;" x="75.362727" xlink:href="#m22b84a4d47" y="166.47653"/>
     <use style="fill:#009e73;stroke:#009e73;" x="111.435455" xlink:href="#m22b84a4d47" y="248.913403"/>
     <use style="fill:#009e73;stroke:#009e73;" x="147.508182" xlink:href="#m22b84a4d47" y="262.718004"/>
     <use style="fill:#009e73;stroke:#009e73;" x="183.580909" xlink:href="#m22b84a4d47" y="264.309798"/>
     <use style="fill:#009e73;stroke:#009e73;" x="219.653636" xlink:href="#m22b84a4d47" y="264.624044"/>
     <use style="fill:#009e73;stroke:#009e73;" x="255.726364" xlink:href="#m22b84a4d47" y="264.529815"/>
     <use style="fill:#009e73;stroke:#009e73;" x="291.799091" xlink:href="#m22b84a4d47" y="264.478599"/>
     <use style="fill:#009e73;stroke:#009e73;" x="327.871818" xlink:href="#m22b84a4d47" y="264.579611"/>
     <use style="fill:#009e73;stroke:#009e73;" x="363.944545" xlink:href="#m22b84a4d47" y="264.716"/>
     <use style="fill:#009e73;stroke:#009e73;" x="400.017273" xlink:href="#m22b84a4d47" y="264.603768"/>
    </g>
   </g>
   <g id="line2d_14">
    <path clip-path="url(#p18247ed2c8)" d="M 75.362727 81.617663 
L 111.435455 195.516766 
L 147.508182 245.054991 
L 183.580909 260.657364 
L 219.653636 264.177301 
L 255.726364 264.565522 
L 291.799091 264.507767 
L 327.871818 264.52197 
L 363.944545 264.592361 
L 400.017273 264.546628 
" style="fill:none;stroke:#d55e00;stroke-dasharray:5.55,2.4;stroke-dashoffset:0;stroke-width:1.5;"/>
    <defs>
     <path d="M 0 3 
C 0.795609 3 1.55874 2.683901 2.12132 2.12132 
C 2.683901 1.55874 3 0.795609 3 0 
C 3 -0.795609 2.683901 -1.55874 2.12132 -2.12132 
C 1.55874 -2.683901 0.795609 -3 0 -3 
C -0.795609 -3 -1.55874 -2.683901 -2.12132 -2.12132 
C -2.683901 -1.55874 -3 -0.795609 -3 0 
C -3 0.795609 -2.683901 1.55874 -2.12132 2.12132 
C -1.55874 2.683901 -0.795609 3 0 3 
z
" id="mccd87319e9" style="stroke:#d55e00;"/>
    </defs>
    <g clip-path="url(#p18247ed2c8)">
     <use style="fill:#d55e00;stroke:#d55e00;" x="75.362727" xlink:href="#mccd87319e9" y="81.617663"/>
     <use style="fill:#d55e00;stroke:#d55e00;" x="111.435455" xlink:href="#mccd87319e9" y="195.516766"/>
     <use style="fill:#d55e00;stroke:#d55e00;" x="147.508182" xlink:href="#mccd87319e9" y="245.054991"/>
     <use style="fill:#d55e00;stroke:#d55e00;" x="183.580909" xlink:href="#mccd87319e9" y="260.657364"/>
     <use style="fill:#d55e00;stroke:#d55e00;" x="219.653636" xlink:href="#mccd87319e9" y="264.177301"/>
     <use style="fill:#d55e00;stroke:#d55e00;" x="255.726364" xlink:href="#mccd87319e9" y="264.565522"/>
     <use style="fill:#d55e00;stroke:#d55e00;" x="291.799091" xlink:href="#mccd87319e9" y="264.507767"/>
     <use style="fill:#d55e00;stroke:#d55e00;" x="327.871818" xlink:href="#mccd87319e9" y="264.52197"/>
     <use style="fill:#d55e00;stroke:#d55e00;" x="363.944545" xlink:href="#mccd87319e9" y="264.592361"/>
     <use style="fill:#d55e00;stroke:#d55e00;" x="400.017273" xlink:href="#mccd87319e9" y="264.546628"/>
    </g>
   </g>
   <g id="line2d_15">
    <path clip-path="url(#p18247ed2c8)" d="M 75.362727 32.775808 
L 111.435455 123.65138 
L 147.508182 201.86011 
L 183.580909 247.365139 
L 219.653636 262.113291 
L 255.726364 264.208844 
L 291.799091 264.497604 
L 327.871818 264.533267 
L 363.944545 264.608741 
L 400.017273 264.436892 
" style="fill:none;stroke:#cc79a7;stroke-dasharray:5.55,2.4;stroke-dashoffset:0;stroke-width:1.5;"/>
    <defs>
     <path d="M 0 3 
C 0.795609 3 1.55874 2.683901 2.12132 2.12132 
C 2.683901 1.55874 3 0.795609 3 0 
C 3 -0.795609 2.683901 -1.55874 2.12132 -2.12132 
C 1.55874 -2.683901 0.795609 -3 0 -3 
C -0.795609 -3 -1.55874 -2.683901 -2.12132 -2.12132 
C -2.683901 -1.55874 -3 -0.795609 -3 0 
C -3 0.795609 -2.683901 1.55874 -2.12132 2.12132 
C -1.55874 2.683901 -0.795609 3 0 3 
z
" id="mc3a0b5c09d" style="stroke:#cc79a7;"/>
    </defs>
    <g clip-path="url(#p18247ed2c8)">
     <use style="fill:#cc79a7;stroke:#cc79a7;" x="75.362727" xlink:href="#mc3a0b5c09d" y="32.775808"/>
     <use style="fill:#cc79a7;stroke:#cc79a7;" x="111.435455" xlink:href="#mc3a0b5c09d" y="123.65138"/>
     <use style="fill:#cc79a7;stroke:#cc79a7;" x="147.508182" xlink:href="#mc3a0b5c09d" y="201.86011"/>
     <use style="fill:#cc79a7;stroke:#cc79a7;" x="183.580909" xlink:href="#mc3a0b5c09d" y="247.365139"/>
     <use style="fill:#cc79a7;stroke:#cc79a7;" x="219.653636" xlink:href="#mc3a0b5c09d" y="262.113291"/>
     <use style="fill:#cc79a7;stroke:#cc79a7;" x="255.726364" xlink:href="#mc3a0b5c09d" y="264.208844"/>
     <use style="fill:#cc79a7;stroke:#cc79a7;" x="291.799091" xlink:href="#mc3a0b5c09d" y="264.497604"/>
     <use style="fill:#cc79a7;stroke:#cc79a7;" x="327.871818" xlink:href="#mc3a0b5c09d" y="264.533267"/>
     <use style="fill:#cc79a7;stroke:#cc79a7;" x="363.944545" xlink:href="#mc3a0b5c09d" y="264.608741"/>
     <use style="fill:#cc79a7;stroke:#cc79a7;" x="400.017273" xlink:href="#mc3a0b5c09d" y="264.436892"/>
    </g>
   </g>
   <g id="line2d_16">
    <path clip-path="url(#p18247ed2c8)" d="M 75.362727 22.796 
L 111.435455 76.942324 
L 147.508182 168.675805 
L 183.580909 227.064299 
L 219.653636 256.689963 
L 255.726364 262.908109 
L 291.799091 264.4413 
L 327.871818 264.489878 
L 363.944545 264.67577 
L 400.017273 264.524504 
" style="fill:none;stroke:#f0e442;stroke-dasharray:5.55,2.4;stroke-dashoffset:0;stroke-width:1.5;"/>
    <defs>
     <path d="M 0 3 
C 0.795609 3 1.55874 2.683901 2.12132 2.12132 
C 2.683901 1.55874 3 0.795609 3 0 
C 3 -0.795609 2.683901 -1.55874 2.12132 -2.12132 
C 1.55874 -2.683901 0.795609 -3 0 -3 
C -0.795609 -3 -1.55874 -2.683901 -2.12132 -2.12132 
C -2.683901 -1.55874 -3 -0.795609 -3 0 
C -3 0.795609 -2.683901 1.55874 -2.12132 2.12132 
C -1.55874 2.683901 -0.795609 3 0 3 
z
" id="mc0c5c71638" style="stroke:#f0e442;"/>
    </defs>
    <g clip-path="url(#p18247ed2c8)">
     <use style="fill:#f0e442;stroke:#f0e442;" x="75.362727" xlink:href="#mc0c5c71638" y="22.796"/>
     <use style="fill:#f0e442;stroke:#f0e442;" x="111.435455" xlink:href="#mc0c5c71638" y="76.942324"/>
     <use style="fill:#f0e442;stroke:#f0e442;" x="147.508182" xlink:href="#mc0c5c71638" y="168.675805"/>
     <use style="fill:#f0e442;stroke:#f0e442;" x="183.580909" xlink:href="#mc0c5c71638" y="227.064299"/>
     <use style="fill:#f0e442;stroke:#f0e442;" x="219.653636" xlink:href="#mc0c5c71638" y="256.689963"/>
     <use style="fill:#f0e442;stroke:#f0e442;" x="255.726364" xlink:href="#mc0c5c71638" y="262.908109"/>
     <use style="fill:#f0e442;stroke:#f0e442;" x="291.799091" xlink:href="#mc0c5c71638" y="264.4413"/>
     <use style="fill:#f0e442;stroke:#f0e442;" x="327.871818" xlink:href="#mc0c5c71638" y="264.489878"/>
     <use style="fill:#f0e442;stroke:#f0e442;" x="363.944545" xlink:href="#mc0c5c71638" y="264.67577"/>
     <use style="fill:#f0e442;stroke:#f0e442;" x="400.017273" xlink:href="#mc0c5c71638" y="264.524504"/>
    </g>
   </g>
   <g id="patch_3">
    <path d="M 59.13 276.812 
L 59.13 10.7 
" style="fill:none;stroke:#000000;stroke-linecap:square;stroke-linejoin:miter;stroke-width:0.8;"/>
   </g>
   <g id="patch_4">
    <path d="M 416.25 276.812 
L 416.25 10.7 
" style="fill:none;stroke:#000000;stroke-linecap:square;stroke-linejoin:miter;stroke-width:0.8;"/>
   </g>
   <g id="patch_5">
    <path d="M 59.13 276.812 
L 416.25 276.812 
" style="fill:none;stroke:#000000;stroke-linecap:square;stroke-linejoin:miter;stroke-width:0.8;"/>
   </g>
   <g id="patch_6">
    <path d="M 59.13 10.7 
L 416.25 10.7 
" style="fill:none;stroke:#000000;stroke-linecap:square;stroke-linejoin:miter;stroke-width:0.8;"/>
   </g>
   <g id="legend_1">
    <g id="patch_7">
     <path d="M 308.5275 140.925 
L 405.05 140.925 
Q 408.25 140.925 408.25 137.725 
L 408.25 21.9 
Q 408.25 18.7 405.05 18.7 
L 308.5275 18.7 
Q 305.3275 18.7 305.3275 21.9 
L 305.3275 137.725 
Q 305.3275 140.925 308.5275 140.925 
z
" style="fill:#ffffff;opacity:0.8;stroke:#cccccc;stroke-linejoin:miter;"/>
    </g>
    <g id="line2d_17">
     <path d="M 311.7275 31.6575 
L 343.7275 31.6575 
" style="fill:none;stroke:#0072b2;stroke-dasharray:5.55,2.4;stroke-dashoffset:0;stroke-width:1.5;"/>
    </g>
    <g id="line2d_18">
     <g>
      <use style="fill:#0072b2;stroke:#0072b2;" x="327.7275" xlink:href="#mf0e6983ac0" y="31.6575"/>
     </g>
    </g>
    <g id="text_14">
     <!-- V=1 -->
     <defs>
      <path d="M 17.484375 67.671875 
L 39.015625 11.71875 
L 60.5 67.671875 
L 52.296875 67.671875 
L 52.296875 72.90625 
L 73.6875 72.90625 
L 73.6875 67.671875 
L 66.609375 67.671875 
L 40.578125 0 
L 32.171875 0 
L 6.296875 67.671875 
L -0.984375 67.671875 
L -0.984375 72.90625 
L 25.59375 72.90625 
L 25.59375 67.671875 
z
" id="DejaVuSerif-86"/>
      <path d="M 10.59375 45.21875 
L 73.1875 45.21875 
L 73.1875 37.40625 
L 10.59375 37.40625 
z
M 10.59375 25.296875 
L 73.1875 25.296875 
L 73.1875 17.484375 
L 10.59375 17.484375 
z
" id="DejaVuSerif-61"/>
     </defs>
     <g transform="translate(356.5275 37.2575)scale(0.16 -0.16)">
      <use xlink:href="#DejaVuSerif-86"/>
      <use x="72.216797" xlink:href="#DejaVuSerif-61"/>
      <use x="156.005859" xlink:href="#DejaVuSerif-49"/>
     </g>
    </g>
    <g id="line2d_19">
     <path d="M 311.7275 55.1425 
L 343.7275 55.1425 
" style="fill:none;stroke:#009e73;stroke-dasharray:5.55,2.4;stroke-dashoffset:0;stroke-width:1.5;"/>
    </g>
    <g id="line2d_20">
     <g>
      <use style="fill:#009e73;stroke:#009e73;" x="327.7275" xlink:href="#m22b84a4d47" y="55.1425"/>
     </g>
    </g>
    <g id="text_15">
     <!-- V=2 -->
     <g transform="translate(356.5275 60.7425)scale(0.16 -0.16)">
      <use xlink:href="#DejaVuSerif-86"/>
      <use x="72.216797" xlink:href="#DejaVuSerif-61"/>
      <use x="156.005859" xlink:href="#DejaVuSerif-50"/>
     </g>
    </g>
    <g id="line2d_21">
     <path d="M 311.7275 78.6275 
L 343.7275 78.6275 
" style="fill:none;stroke:#d55e00;stroke-dasharray:5.55,2.4;stroke-dashoffset:0;stroke-width:1.5;"/>
    </g>
    <g id="line2d_22">
     <g>
      <use style="fill:#d55e00;stroke:#d55e00;" x="327.7275" xlink:href="#mccd87319e9" y="78.6275"/>
     </g>
    </g>
    <g id="text_16">
     <!-- V=5 -->
     <defs>
      <path d="M 50.296875 72.90625 
L 50.296875 64.890625 
L 16.890625 64.890625 
L 16.890625 44 
Q 19.4375 45.75 22.828125 46.625 
Q 26.21875 47.515625 30.421875 47.515625 
Q 42.234375 47.515625 49.0625 40.96875 
Q 55.90625 34.421875 55.90625 23.09375 
Q 55.90625 11.53125 49 5.046875 
Q 42.09375 -1.421875 29.59375 -1.421875 
Q 24.5625 -1.421875 19.28125 -0.1875 
Q 14.015625 1.03125 8.5 3.515625 
L 8.5 17.671875 
L 14.015625 17.671875 
Q 14.453125 10.75 18.421875 7.078125 
Q 22.40625 3.421875 29.59375 3.421875 
Q 37.3125 3.421875 41.453125 8.5 
Q 45.609375 13.578125 45.609375 23.09375 
Q 45.609375 32.5625 41.484375 37.609375 
Q 37.359375 42.671875 29.59375 42.671875 
Q 25.203125 42.671875 21.84375 41.109375 
Q 18.5 39.546875 15.921875 36.28125 
L 11.71875 36.28125 
L 11.71875 72.90625 
z
" id="DejaVuSerif-53"/>
     </defs>
     <g transform="translate(356.5275 84.2275)scale(0.16 -0.16)">
      <use xlink:href="#DejaVuSerif-86"/>
      <use x="72.216797" xlink:href="#DejaVuSerif-61"/>
      <use x="156.005859" xlink:href="#DejaVuSerif-53"/>
     </g>
    </g>
    <g id="line2d_23">
     <path d="M 311.7275 102.1125 
L 343.7275 102.1125 
" style="fill:none;stroke:#cc79a7;stroke-dasharray:5.55,2.4;stroke-dashoffset:0;stroke-width:1.5;"/>
    </g>
    <g id="line2d_24">
     <g>
      <use style="fill:#cc79a7;stroke:#cc79a7;" x="327.7275" xlink:href="#mc3a0b5c09d" y="102.1125"/>
     </g>
    </g>
    <g id="text_17">
     <!-- V=10 -->
     <g transform="translate(356.5275 107.7125)scale(0.16 -0.16)">
      <use xlink:href="#DejaVuSerif-86"/>
      <use x="72.216797" xlink:href="#DejaVuSerif-61"/>
      <use x="156.005859" xlink:href="#DejaVuSerif-49"/>
      <use x="219.628906" xlink:href="#DejaVuSerif-48"/>
     </g>
    </g>
    <g id="line2d_25">
     <path d="M 311.7275 125.5975 
L 343.7275 125.5975 
" style="fill:none;stroke:#f0e442;stroke-dasharray:5.55,2.4;stroke-dashoffset:0;stroke-width:1.5;"/>
    </g>
    <g id="line2d_26">
     <g>
      <use style="fill:#f0e442;stroke:#f0e442;" x="327.7275" xlink:href="#mc0c5c71638" y="125.5975"/>
     </g>
    </g>
    <g id="text_18">
     <!-- V=25 -->
     <g transform="translate(356.5275 131.1975)scale(0.16 -0.16)">
      <use xlink:href="#DejaVuSerif-86"/>
      <use x="72.216797" xlink:href="#DejaVuSerif-61"/>
      <use x="156.005859" xlink:href="#DejaVuSerif-50"/>
      <use x="219.628906" xlink:href="#DejaVuSerif-53"/>
     </g>
    </g>
   </g>
  </g>
 </g>
 <defs>
  <clipPath id="p18247ed2c8">
   <rect height="266.112" width="357.12" x="59.13" y="10.7"/>
  </clipPath>
 </defs>
</svg>
