<?xml version="1.0" encoding="utf-8" standalone="no"?>
<!DOCTYPE svg PUBLIC "-//W3C//DTD SVG 1.1//EN"
  "http://www.w3.org/Graphics/SVG/1.1/DTD/svg11.dtd">
<!-- Created with matplotlib (https://matplotlib.org/) -->
<svg height="586.473573pt" version="1.1" viewBox="0 0 396.279375 586.473573" width="396.279375pt" xmlns="http://www.w3.org/2000/svg" xmlns:xlink="http://www.w3.org/1999/xlink">
 <defs>
  <style type="text/css">
*{stroke-linecap:butt;stroke-linejoin:round;}
  </style>
 </defs>
 <g id="figure_1">
  <g id="patch_1">
   <path d="M 0 586.473573 
L 396.279375 586.473573 
L 396.279375 0 
L 0 0 
z
" style="fill:#ffffff;"/>
  </g>
  <g id="axes_1">
   <g id="patch_2">
    <path d="M 54.279375 141.895312 
L 389.079375 141.895312 
L 389.079375 21.373573 
L 54.279375 21.373573 
z
" style="fill:#ffffff;"/>
   </g>
   <g id="matplotlib.axis_1">
    <g id="xtick_1">
     <g id="line2d_1">
      <defs>
       <path d="M 0 0 
L 0 3.5 
" id="maeac3eb653" style="stroke:#000000;stroke-width:0.8;"/>
      </defs>
      <g>
       <use style="stroke:#000000;stroke-width:0.8;" x="69.497557" xlink:href="#maeac3eb653" y="141.895312"/>
      </g>
     </g>
    </g>
    <g id="xtick_2">
     <g id="line2d_2">
      <g>
       <use style="stroke:#000000;stroke-width:0.8;" x="130.98516" xlink:href="#maeac3eb653" y="141.895312"/>
      </g>
     </g>
    </g>
    <g id="xtick_3">
     <g id="line2d_3">
      <g>
       <use style="stroke:#000000;stroke-width:0.8;" x="192.472763" xlink:href="#maeac3eb653" y="141.895312"/>
      </g>
     </g>
    </g>
    <g id="xtick_4">
     <g id="line2d_4">
      <g>
       <use style="stroke:#000000;stroke-width:0.8;" x="253.960367" xlink:href="#maeac3eb653" y="141.895312"/>
      </g>
     </g>
    </g>
    <g id="xtick_5">
     <g id="line2d_5">
      <g>
       <use style="stroke:#000000;stroke-width:0.8;" x="315.44797" xlink:href="#maeac3eb653" y="141.895312"/>
      </g>
     </g>
    </g>
    <g id="xtick_6">
     <g id="line2d_6">
      <g>
       <use style="stroke:#000000;stroke-width:0.8;" x="376.935573" xlink:href="#maeac3eb653" y="141.895312"/>
      </g>
     </g>
    </g>
   </g>
   <g id="matplotlib.axis_2">
    <g id="ytick_1">
     <g id="line2d_7">
      <defs>
       <path d="M 0 0 
L -3.5 0 
" id="m35b6620d77" style="stroke:#000000;stroke-width:0.8;"/>
      </defs>
      <g>
       <use style="stroke:#000000;stroke-width:0.8;" x="54.279375" xlink:href="#m35b6620d77" y="125.702968"/>
      </g>
     </g>
     <g id="text_1">
      <!-- 0.16 -->
      <defs>
       <path d="M 31.78125 3.421875 
Q 39.265625 3.421875 42.96875 11.625 
Q 46.6875 19.828125 46.6875 36.375 
Q 46.6875 52.984375 42.96875 61.1875 
Q 39.265625 69.390625 31.78125 69.390625 
Q 24.3125 69.390625 20.59375 61.1875 
Q 16.890625 52.984375 16.890625 36.375 
Q 16.890625 19.828125 20.59375 11.625 
Q 24.3125 3.421875 31.78125 3.421875 
z
M 31.78125 -1.421875 
Q 19.921875 -1.421875 13.25 8.53125 
Q 6.59375 18.5 6.59375 36.375 
Q 6.59375 54.296875 13.25 64.25 
Q 19.921875 74.21875 31.78125 74.21875 
Q 43.703125 74.21875 50.34375 64.25 
Q 56.984375 54.296875 56.984375 36.375 
Q 56.984375 18.5 50.34375 8.53125 
Q 43.703125 -1.421875 31.78125 -1.421875 
z
" id="DejaVuSerif-48"/>
       <path d="M 9.421875 5.078125 
Q 9.421875 7.8125 11.28125 9.71875 
Q 13.140625 11.625 15.921875 11.625 
Q 18.609375 11.625 20.5 9.71875 
Q 22.40625 7.8125 22.40625 5.078125 
Q 22.40625 2.390625 20.5 0.484375 
Q 18.609375 -1.421875 15.921875 -1.421875 
Q 13.140625 -1.421875 11.28125 0.453125 
Q 9.421875 2.34375 9.421875 5.078125 
z
" id="DejaVuSerif-46"/>
       <path d="M 14.203125 0 
L 14.203125 5.171875 
L 26.90625 5.171875 
L 26.90625 65.828125 
L 12.203125 56.296875 
L 12.203125 62.703125 
L 29.984375 74.21875 
L 36.71875 74.21875 
L 36.71875 5.171875 
L 49.421875 5.171875 
L 49.421875 0 
z
" id="DejaVuSerif-49"/>
       <path d="M 32.71875 3.421875 
Q 39.59375 3.421875 43.296875 8.46875 
Q 47.015625 13.53125 47.015625 23 
Q 47.015625 32.46875 43.296875 37.515625 
Q 39.59375 42.578125 32.71875 42.578125 
Q 25.734375 42.578125 22.0625 37.6875 
Q 18.40625 32.8125 18.40625 23.578125 
Q 18.40625 13.875 22.109375 8.640625 
Q 25.828125 3.421875 32.71875 3.421875 
z
M 16.796875 40.140625 
Q 20.125 43.796875 24.3125 45.59375 
Q 28.515625 47.40625 33.796875 47.40625 
Q 44.671875 47.40625 51 40.859375 
Q 57.328125 34.328125 57.328125 23 
Q 57.328125 11.921875 50.515625 5.25 
Q 43.703125 -1.421875 32.328125 -1.421875 
Q 19.96875 -1.421875 13.328125 7.78125 
Q 6.6875 17 6.6875 34.078125 
Q 6.6875 53.21875 14.546875 63.71875 
Q 22.40625 74.21875 36.71875 74.21875 
Q 40.578125 74.21875 44.828125 73.484375 
Q 49.078125 72.75 53.515625 71.296875 
L 53.515625 59.28125 
L 48 59.28125 
Q 47.40625 64.203125 44.234375 66.796875 
Q 41.0625 69.390625 35.6875 69.390625 
Q 26.21875 69.390625 21.578125 62.203125 
Q 16.9375 55.03125 16.796875 40.140625 
z
" id="DejaVuSerif-54"/>
      </defs>
      <g transform="translate(16.1075 131.021874)scale(0.14 -0.14)">
       <use xlink:href="#DejaVuSerif-48"/>
       <use x="63.623047" xlink:href="#DejaVuSerif-46"/>
       <use x="95.410156" xlink:href="#DejaVuSerif-49"/>
       <use x="159.033203" xlink:href="#DejaVuSerif-54"/>
      </g>
     </g>
    </g>
    <g id="ytick_2">
     <g id="line2d_8">
      <g>
       <use style="stroke:#000000;stroke-width:0.8;" x="54.279375" xlink:href="#m35b6620d77" y="91.424181"/>
      </g>
     </g>
     <g id="text_2">
      <!-- 0.18 -->
      <defs>
       <path d="M 46.578125 19.921875 
Q 46.578125 27.734375 42.6875 32.046875 
Q 38.8125 36.375 31.78125 36.375 
Q 24.75 36.375 20.875 32.046875 
Q 17 27.734375 17 19.921875 
Q 17 12.0625 20.875 7.734375 
Q 24.75 3.421875 31.78125 3.421875 
Q 38.8125 3.421875 42.6875 7.734375 
Q 46.578125 12.0625 46.578125 19.921875 
z
M 44.578125 55.328125 
Q 44.578125 61.96875 41.203125 65.671875 
Q 37.84375 69.390625 31.78125 69.390625 
Q 25.78125 69.390625 22.390625 65.671875 
Q 19 61.96875 19 55.328125 
Q 19 48.640625 22.390625 44.921875 
Q 25.78125 41.21875 31.78125 41.21875 
Q 37.84375 41.21875 41.203125 44.921875 
Q 44.578125 48.640625 44.578125 55.328125 
z
M 39.3125 38.8125 
Q 47.609375 37.703125 52.25 32.6875 
Q 56.890625 27.6875 56.890625 19.921875 
Q 56.890625 9.671875 50.390625 4.125 
Q 43.890625 -1.421875 31.78125 -1.421875 
Q 19.734375 -1.421875 13.203125 4.125 
Q 6.6875 9.671875 6.6875 19.921875 
Q 6.6875 27.6875 11.328125 32.6875 
Q 15.96875 37.703125 24.3125 38.8125 
Q 16.9375 40.140625 13 44.40625 
Q 9.078125 48.6875 9.078125 55.328125 
Q 9.078125 64.109375 15.125 69.15625 
Q 21.1875 74.21875 31.78125 74.21875 
Q 42.390625 74.21875 48.4375 69.15625 
Q 54.5 64.109375 54.5 55.328125 
Q 54.5 48.6875 50.5625 44.40625 
Q 46.625 40.140625 39.3125 38.8125 
z
" id="DejaVuSerif-56"/>
      </defs>
      <g transform="translate(16.1075 96.743087)scale(0.14 -0.14)">
       <use xlink:href="#DejaVuSerif-48"/>
       <use x="63.623047" xlink:href="#DejaVuSerif-46"/>
       <use x="95.410156" xlink:href="#DejaVuSerif-49"/>
       <use x="159.033203" xlink:href="#DejaVuSerif-56"/>
      </g>
     </g>
    </g>
    <g id="ytick_3">
     <g id="line2d_9">
      <g>
       <use style="stroke:#000000;stroke-width:0.8;" x="54.279375" xlink:href="#m35b6620d77" y="57.145394"/>
      </g>
     </g>
     <g id="text_3">
      <!-- 0.20 -->
      <defs>
       <path d="M 12.796875 55.515625 
L 7.328125 55.515625 
L 7.328125 68.5 
Q 12.546875 71.296875 17.84375 72.75 
Q 23.140625 74.21875 28.21875 74.21875 
Q 39.59375 74.21875 46.1875 68.703125 
Q 52.78125 63.1875 52.78125 53.71875 
Q 52.78125 43.015625 37.84375 28.125 
Q 36.671875 27 36.078125 26.421875 
L 17.671875 8.015625 
L 48.09375 8.015625 
L 48.09375 17 
L 53.8125 17 
L 53.8125 0 
L 6.78125 0 
L 6.78125 5.328125 
L 28.90625 27.390625 
Q 36.234375 34.71875 39.359375 40.84375 
Q 42.484375 46.96875 42.484375 53.71875 
Q 42.484375 61.078125 38.640625 65.234375 
Q 34.8125 69.390625 28.078125 69.390625 
Q 21.09375 69.390625 17.28125 65.921875 
Q 13.484375 62.453125 12.796875 55.515625 
z
" id="DejaVuSerif-50"/>
      </defs>
      <g transform="translate(16.1075 62.4643)scale(0.14 -0.14)">
       <use xlink:href="#DejaVuSerif-48"/>
       <use x="63.623047" xlink:href="#DejaVuSerif-46"/>
       <use x="95.410156" xlink:href="#DejaVuSerif-50"/>
       <use x="159.033203" xlink:href="#DejaVuSerif-48"/>
      </g>
     </g>
    </g>
    <g id="ytick_4">
     <g id="line2d_10">
      <g>
       <use style="stroke:#000000;stroke-width:0.8;" x="54.279375" xlink:href="#m35b6620d77" y="22.866607"/>
      </g>
     </g>
     <g id="text_4">
      <!-- 0.22 -->
      <g transform="translate(16.1075 28.185513)scale(0.14 -0.14)">
       <use xlink:href="#DejaVuSerif-48"/>
       <use x="63.623047" xlink:href="#DejaVuSerif-46"/>
       <use x="95.410156" xlink:href="#DejaVuSerif-50"/>
       <use x="159.033203" xlink:href="#DejaVuSerif-50"/>
      </g>
     </g>
    </g>
   </g>
   <g id="line2d_11">
    <path clip-path="url(#pd35c8823e7)" d="M 69.497557 107.39716 
L 72.571937 105.514071 
L 75.646317 123.967073 
L 78.720697 132.040616 
L 81.795077 134.902054 
L 84.869458 98.003119 
L 87.943838 119.782823 
L 91.018218 132.190515 
L 94.092598 132.107521 
L 97.166978 57.401299 
L 100.241358 105.145067 
L 103.315739 101.537088 
L 106.390119 121.774516 
L 109.464499 45.959357 
L 112.538879 100.777619 
L 115.613259 107.418634 
L 118.687639 118.064073 
L 121.76202 63.266568 
L 124.8364 109.768665 
L 127.91078 118.016183 
L 130.98516 113.074224 
L 134.05954 124.76297 
L 137.13392 132.080179 
L 140.208301 114.187833 
L 143.282681 108.225658 
L 146.357061 122.924729 
L 149.431441 126.768762 
L 152.505821 92.773626 
L 155.580201 103.267291 
L 158.654582 94.378391 
L 161.728962 111.372554 
L 164.803342 79.443037 
L 167.877722 82.68796 
L 170.952102 94.364445 
L 174.026482 95.795137 
L 177.100863 60.726668 
L 180.175243 106.605075 
L 183.249623 81.530427 
L 186.324003 112.843884 
L 189.398383 84.421024 
L 192.472763 114.641915 
L 195.547144 116.60947 
L 198.621524 125.449088 
L 201.695904 76.912026 
L 204.770284 88.039866 
L 207.844664 119.891702 
L 210.919044 71.293474 
L 213.993425 68.876619 
L 217.067805 112.103128 
L 220.142185 124.729186 
L 223.216565 107.238914 
L 226.290945 82.612176 
L 229.365325 116.629224 
L 232.439706 97.176112 
L 235.514086 120.839035 
L 238.588466 123.222296 
L 241.662846 78.873034 
L 244.737226 63.932255 
L 247.811606 111.117195 
L 250.885987 124.264203 
L 253.960367 72.907174 
L 257.034747 37.34017 
L 260.109127 86.75113 
L 263.183507 71.149555 
L 266.257887 99.12084 
L 269.332268 40.584251 
L 272.406648 71.203593 
L 275.481028 65.637782 
L 278.555408 108.980709 
L 281.629788 100.899096 
L 284.704168 101.107935 
L 287.778549 114.573875 
L 290.852929 123.023683 
L 293.927309 107.689727 
L 297.001689 85.970452 
L 300.076069 112.257066 
L 303.150449 76.637676 
L 306.22483 27.227844 
L 309.29921 77.868008 
L 312.37359 106.407534 
L 315.44797 60.070712 
L 318.52235 64.001051 
L 321.59673 85.28799 
L 324.671111 116.506879 
L 327.745491 75.642809 
L 330.819871 107.640696 
L 333.894251 113.323018 
L 336.968631 125.033179 
L 340.043011 74.80837 
L 343.117392 104.062063 
L 346.191772 114.367122 
L 349.266152 121.85072 
L 352.340532 82.605996 
L 355.414912 75.399253 
L 358.489292 106.553913 
L 361.563673 127.232649 
L 364.638053 121.805649 
L 367.712433 131.335505 
L 370.786813 134.710199 
L 373.861193 136.025036 
" style="fill:none;stroke:#000000;stroke-linecap:square;stroke-width:1.5;"/>
   </g>
   <g id="line2d_12">
    <path clip-path="url(#pd35c8823e7)" d="M 69.497557 107.300608 
L 72.571937 105.712321 
L 75.646317 123.358559 
L 78.720697 131.76441 
L 81.795077 135.195156 
L 84.869458 98.445718 
L 87.943838 120.11392 
L 91.018218 132.321418 
L 94.092598 131.085565 
L 97.166978 58.050439 
L 100.241358 104.497679 
L 103.315739 101.44971 
L 106.390119 121.2203 
L 109.464499 46.430341 
L 112.538879 100.408188 
L 115.613259 106.88283 
L 118.687639 117.795325 
L 121.76202 63.967729 
L 124.8364 109.764167 
L 127.91078 117.748971 
L 130.98516 112.96117 
L 134.05954 124.702074 
L 137.13392 132.335631 
L 140.208301 114.491282 
L 143.282681 108.581654 
L 146.357061 123.365071 
L 149.431441 127.031651 
L 152.505821 93.094337 
L 155.580201 103.107672 
L 158.654582 94.169149 
L 161.728962 111.003684 
L 164.803342 79.678288 
L 167.877722 82.88025 
L 170.952102 94.621278 
L 174.026482 95.924823 
L 177.100863 61.244483 
L 180.175243 106.452333 
L 183.249623 81.777804 
L 186.324003 112.227061 
L 189.398383 84.910502 
L 192.472763 114.334672 
L 195.547144 116.388038 
L 198.621524 125.025151 
L 201.695904 77.386586 
L 204.770284 87.815868 
L 207.844664 118.911052 
L 210.919044 71.395998 
L 213.993425 68.179759 
L 217.067805 111.582643 
L 220.142185 124.93513 
L 223.216565 107.590841 
L 226.290945 82.82986 
L 229.365325 116.869933 
L 232.439706 97.421628 
L 235.514086 120.649641 
L 238.588466 123.112739 
L 241.662846 79.132326 
L 244.737226 64.008796 
L 247.811606 110.022552 
L 250.885987 124.219039 
L 253.960367 72.440532 
L 257.034747 37.990292 
L 260.109127 86.948849 
L 263.183507 71.128904 
L 266.257887 99.370421 
L 269.332268 41.664942 
L 272.406648 70.984611 
L 275.481028 65.395997 
L 278.555408 109.060446 
L 281.629788 100.451248 
L 284.704168 101.351815 
L 287.778549 114.791348 
L 290.852929 122.959502 
L 293.927309 107.82974 
L 297.001689 85.421321 
L 300.076069 112.282808 
L 303.150449 76.948172 
L 306.22483 26.99515 
L 309.29921 77.873947 
L 312.37359 105.812973 
L 315.44797 59.99051 
L 318.52235 63.967421 
L 321.59673 85.811976 
L 324.671111 116.399837 
L 327.745491 74.934113 
L 330.819871 107.684317 
L 333.894251 113.248291 
L 336.968631 125.136568 
L 340.043011 74.884157 
L 343.117392 104.214699 
L 346.191772 114.497539 
L 349.266152 121.973337 
L 352.340532 83.049846 
L 355.414912 75.817403 
L 358.489292 106.693377 
L 361.563673 126.768184 
L 364.638053 121.457512 
L 367.712433 131.775443 
L 370.786813 135.625143 
L 373.861193 136.417052 
" style="fill:none;stroke:#1f77b4;stroke-linecap:square;stroke-width:1.5;"/>
   </g>
   <g id="line2d_13">
    <path clip-path="url(#pd35c8823e7)" d="M 69.497557 107.230548 
L 72.571937 105.619503 
L 75.646317 123.772372 
L 78.720697 131.841329 
L 81.795077 135.216584 
L 84.869458 98.205885 
L 87.943838 119.971342 
L 91.018218 132.165537 
L 94.092598 131.538419 
L 97.166978 57.836177 
L 100.241358 104.774981 
L 103.315739 101.648155 
L 106.390119 121.489487 
L 109.464499 46.291236 
L 112.538879 100.568986 
L 115.613259 107.140858 
L 118.687639 117.918184 
L 121.76202 63.892016 
L 124.8364 109.772486 
L 127.91078 117.892095 
L 130.98516 113.0797 
L 134.05954 124.660866 
L 137.13392 132.385152 
L 140.208301 114.197875 
L 143.282681 108.467549 
L 146.357061 123.134119 
L 149.431441 126.896476 
L 152.505821 93.069922 
L 155.580201 103.120898 
L 158.654582 94.29162 
L 161.728962 111.10222 
L 164.803342 79.614752 
L 167.877722 82.827201 
L 170.952102 94.577233 
L 174.026482 95.88442 
L 177.100863 61.041174 
L 180.175243 106.467421 
L 183.249623 81.711074 
L 186.324003 112.63848 
L 189.398383 84.752986 
L 192.472763 114.5278 
L 195.547144 116.626748 
L 198.621524 125.229928 
L 201.695904 77.594192 
L 204.770284 87.763221 
L 207.844664 119.367957 
L 210.919044 71.375453 
L 213.993425 68.460262 
L 217.067805 111.665347 
L 220.142185 124.841163 
L 223.216565 107.493756 
L 226.290945 82.885299 
L 229.365325 116.77406 
L 232.439706 97.402004 
L 235.514086 120.739609 
L 238.588466 123.188254 
L 241.662846 78.953939 
L 244.737226 64.09522 
L 247.811606 110.488156 
L 250.885987 124.157755 
L 253.960367 72.704341 
L 257.034747 37.623665 
L 260.109127 86.606318 
L 263.183507 70.712645 
L 266.257887 99.443605 
L 269.332268 41.125435 
L 272.406648 70.696798 
L 275.481028 65.344487 
L 278.555408 109.112292 
L 281.629788 100.551456 
L 284.704168 101.306937 
L 287.778549 114.765144 
L 290.852929 122.705991 
L 293.927309 107.701499 
L 297.001689 85.798389 
L 300.076069 112.321085 
L 303.150449 76.688711 
L 306.22483 26.851834 
L 309.29921 77.910629 
L 312.37359 106.036099 
L 315.44797 59.903329 
L 318.52235 64.023265 
L 321.59673 85.643886 
L 324.671111 116.44261 
L 327.745491 74.988653 
L 330.819871 107.810049 
L 333.894251 113.345393 
L 336.968631 125.1888 
L 340.043011 74.743746 
L 343.117392 104.051023 
L 346.191772 114.457486 
L 349.266152 122.101502 
L 352.340532 82.987209 
L 355.414912 75.616721 
L 358.489292 106.751324 
L 361.563673 126.728399 
L 364.638053 121.594239 
L 367.712433 131.850734 
L 370.786813 135.637925 
L 373.861193 136.081479 
" style="fill:none;stroke:#ff7f0e;stroke-linecap:square;stroke-width:1.5;"/>
   </g>
   <g id="line2d_14">
    <path clip-path="url(#pd35c8823e7)" d="M 69.497557 107.330643 
L 72.571937 105.505106 
L 75.646317 123.83896 
L 78.720697 131.878688 
L 81.795077 135.239223 
L 84.869458 98.141707 
L 87.943838 119.840575 
L 91.018218 132.171104 
L 94.092598 131.877149 
L 97.166978 57.758584 
L 100.241358 104.838174 
L 103.315739 101.626319 
L 106.390119 121.592419 
L 109.464499 46.308708 
L 112.538879 100.615634 
L 115.613259 107.228296 
L 118.687639 117.927755 
L 121.76202 63.740528 
L 124.8364 109.687113 
L 127.91078 117.984654 
L 130.98516 113.109422 
L 134.05954 124.669409 
L 137.13392 132.220887 
L 140.208301 114.153028 
L 143.282681 108.327815 
L 146.357061 123.114661 
L 149.431441 126.952146 
L 152.505821 93.037077 
L 155.580201 103.21643 
L 158.654582 94.307564 
L 161.728962 111.313426 
L 164.803342 79.628562 
L 167.877722 82.770314 
L 170.952102 94.497193 
L 174.026482 95.778883 
L 177.100863 60.849358 
L 180.175243 106.597322 
L 183.249623 81.748548 
L 186.324003 112.791654 
L 189.398383 84.622615 
L 192.472763 114.591506 
L 195.547144 116.532305 
L 198.621524 125.317019 
L 201.695904 77.534385 
L 204.770284 87.799002 
L 207.844664 119.605789 
L 210.919044 71.359712 
L 213.993425 68.639006 
L 217.067805 111.708707 
L 220.142185 124.842201 
L 223.216565 107.444927 
L 226.290945 82.941277 
L 229.365325 116.754503 
L 232.439706 97.276294 
L 235.514086 120.683685 
L 238.588466 123.194326 
L 241.662846 78.936041 
L 244.737226 64.203128 
L 247.811606 110.738052 
L 250.885987 124.247701 
L 253.960367 72.807027 
L 257.034747 37.408549 
L 260.109127 86.658316 
L 263.183507 70.583976 
L 266.257887 99.22194 
L 269.332268 40.844339 
L 272.406648 70.759644 
L 275.481028 65.384943 
L 278.555408 108.976069 
L 281.629788 100.666391 
L 284.704168 101.308372 
L 287.778549 114.717531 
L 290.852929 122.75904 
L 293.927309 107.744137 
L 297.001689 85.84392 
L 300.076069 112.190172 
L 303.150449 76.595622 
L 306.22483 26.964068 
L 309.29921 77.734322 
L 312.37359 106.13581 
L 315.44797 59.918858 
L 318.52235 63.966892 
L 321.59673 85.545233 
L 324.671111 116.435286 
L 327.745491 75.099259 
L 330.819871 107.666337 
L 333.894251 113.394512 
L 336.968631 125.221564 
L 340.043011 74.841384 
L 343.117392 104.002145 
L 346.191772 114.40777 
L 349.266152 121.945263 
L 352.340532 82.865501 
L 355.414912 75.54722 
L 358.489292 106.618028 
L 361.563673 126.892517 
L 364.638053 121.667049 
L 367.712433 131.707406 
L 370.786813 135.398593 
L 373.861193 136.026001 
" style="fill:none;stroke:#2ca02c;stroke-linecap:square;stroke-width:1.5;"/>
   </g>
   <g id="line2d_15">
    <path clip-path="url(#pd35c8823e7)" d="M 69.497557 107.362809 
L 72.571937 105.475396 
L 75.646317 123.905909 
L 78.720697 131.887949 
L 81.795077 135.053358 
L 84.869458 98.016923 
L 87.943838 119.700961 
L 91.018218 132.105154 
L 94.092598 132.133124 
L 97.166978 57.636421 
L 100.241358 104.978079 
L 103.315739 101.61871 
L 106.390119 121.701591 
L 109.464499 46.221452 
L 112.538879 100.7623 
L 115.613259 107.344936 
L 118.687639 117.927643 
L 121.76202 63.523372 
L 124.8364 109.703349 
L 127.91078 118.033996 
L 130.98516 113.125678 
L 134.05954 124.668141 
L 137.13392 132.089358 
L 140.208301 114.109288 
L 143.282681 108.210078 
L 146.357061 123.025662 
L 149.431441 126.943967 
L 152.505821 92.965947 
L 155.580201 103.281929 
L 158.654582 94.329265 
L 161.728962 111.346116 
L 164.803342 79.572538 
L 167.877722 82.776418 
L 170.952102 94.435494 
L 174.026482 95.763895 
L 177.100863 60.788398 
L 180.175243 106.694443 
L 183.249623 81.696855 
L 186.324003 112.93384 
L 189.398383 84.581935 
L 192.472763 114.721771 
L 195.547144 116.507961 
L 198.621524 125.515574 
L 201.695904 77.29503 
L 204.770284 87.883626 
L 207.844664 119.778374 
L 210.919044 71.361189 
L 213.993425 68.767681 
L 217.067805 111.884018 
L 220.142185 124.791712 
L 223.216565 107.423051 
L 226.290945 82.912267 
L 229.365325 116.760001 
L 232.439706 97.250385 
L 235.514086 120.709228 
L 238.588466 123.124101 
L 241.662846 78.892004 
L 244.737226 64.143033 
L 247.811606 110.958549 
L 250.885987 124.29667 
L 253.960367 72.821508 
L 257.034747 37.28449 
L 260.109127 86.763225 
L 263.183507 70.787575 
L 266.257887 99.169855 
L 269.332268 40.633667 
L 272.406648 71.024273 
L 275.481028 65.486423 
L 278.555408 108.894365 
L 281.629788 100.652452 
L 284.704168 101.216624 
L 287.778549 114.608421 
L 290.852929 122.838354 
L 293.927309 107.763822 
L 297.001689 85.898707 
L 300.076069 112.1611 
L 303.150449 76.598221 
L 306.22483 27.064401 
L 309.29921 77.761206 
L 312.37359 106.238646 
L 315.44797 59.992764 
L 318.52235 64.035161 
L 321.59673 85.461124 
L 324.671111 116.467527 
L 327.745491 75.322126 
L 330.819871 107.610035 
L 333.894251 113.385375 
L 336.968631 125.107385 
L 340.043011 74.806266 
L 343.117392 104.02342 
L 346.191772 114.347299 
L 349.266152 121.844186 
L 352.340532 82.76165 
L 355.414912 75.467177 
L 358.489292 106.493877 
L 361.563673 126.977184 
L 364.638053 121.674817 
L 367.712433 131.576714 
L 370.786813 135.071607 
L 373.861193 135.945991 
" style="fill:none;stroke:#d62728;stroke-linecap:square;stroke-width:1.5;"/>
   </g>
   <g id="line2d_16">
    <path clip-path="url(#pd35c8823e7)" d="M 69.497557 107.400673 
L 72.571937 105.525501 
L 75.646317 123.864947 
L 78.720697 132.043023 
L 81.795077 134.932832 
L 84.869458 97.959072 
L 87.943838 119.69724 
L 91.018218 132.106827 
L 94.092598 132.272382 
L 97.166978 57.354112 
L 100.241358 105.10092 
L 103.315739 101.536476 
L 106.390119 121.764525 
L 109.464499 46.07539 
L 112.538879 100.85706 
L 115.613259 107.423253 
L 118.687639 118.025818 
L 121.76202 63.332403 
L 124.8364 109.695612 
L 127.91078 118.097977 
L 130.98516 113.077874 
L 134.05954 124.761109 
L 137.13392 132.081843 
L 140.208301 114.117122 
L 143.282681 108.13122 
L 146.357061 122.945793 
L 149.431441 126.895322 
L 152.505821 92.786307 
L 155.580201 103.241749 
L 158.654582 94.309761 
L 161.728962 111.35459 
L 164.803342 79.526167 
L 167.877722 82.711407 
L 170.952102 94.34332 
L 174.026482 95.756938 
L 177.100863 60.711763 
L 180.175243 106.576412 
L 183.249623 81.588213 
L 186.324003 112.824453 
L 189.398383 84.483917 
L 192.472763 114.789055 
L 195.547144 116.572919 
L 198.621524 125.507781 
L 201.695904 76.979394 
L 204.770284 87.988584 
L 207.844664 119.788143 
L 210.919044 71.271718 
L 213.993425 68.850701 
L 217.067805 111.99359 
L 220.142185 124.759972 
L 223.216565 107.335833 
L 226.290945 82.738881 
L 229.365325 116.684861 
L 232.439706 97.198111 
L 235.514086 120.777461 
L 238.588466 123.110358 
L 241.662846 78.922716 
L 244.737226 63.994411 
L 247.811606 111.11187 
L 250.885987 124.324099 
L 253.960367 72.788728 
L 257.034747 37.267806 
L 260.109127 86.787311 
L 263.183507 70.951965 
L 266.257887 99.165095 
L 269.332268 40.506245 
L 272.406648 71.191856 
L 275.481028 65.53507 
L 278.555408 108.995716 
L 281.629788 100.787162 
L 284.704168 101.155546 
L 287.778549 114.551115 
L 290.852929 122.888536 
L 293.927309 107.837038 
L 297.001689 85.893131 
L 300.076069 112.224539 
L 303.150449 76.510588 
L 306.22483 27.096747 
L 309.29921 77.81603 
L 312.37359 106.266098 
L 315.44797 59.996703 
L 318.52235 64.089527 
L 321.59673 85.389141 
L 324.671111 116.511254 
L 327.745491 75.564279 
L 330.819871 107.529521 
L 333.894251 113.384762 
L 336.968631 125.103141 
L 340.043011 74.818552 
L 343.117392 104.063402 
L 346.191772 114.271372 
L 349.266152 121.815943 
L 352.340532 82.691655 
L 355.414912 75.397185 
L 358.489292 106.575109 
L 361.563673 127.122943 
L 364.638053 121.723042 
L 367.712433 131.479758 
L 370.786813 134.906475 
L 373.861193 135.883317 
" style="fill:none;stroke:#9467bd;stroke-linecap:square;stroke-width:1.5;"/>
   </g>
   <g id="patch_3">
    <path d="M 54.279375 141.895312 
L 54.279375 21.373573 
" style="fill:none;stroke:#000000;stroke-linecap:square;stroke-linejoin:miter;stroke-width:0.8;"/>
   </g>
   <g id="patch_4">
    <path d="M 389.079375 141.895312 
L 389.079375 21.373573 
" style="fill:none;stroke:#000000;stroke-linecap:square;stroke-linejoin:miter;stroke-width:0.8;"/>
   </g>
   <g id="patch_5">
    <path d="M 54.279375 141.895312 
L 389.079375 141.895312 
" style="fill:none;stroke:#000000;stroke-linecap:square;stroke-linejoin:miter;stroke-width:0.8;"/>
   </g>
   <g id="patch_6">
    <path d="M 54.279375 21.373573 
L 389.079375 21.373573 
" style="fill:none;stroke:#000000;stroke-linecap:square;stroke-linejoin:miter;stroke-width:0.8;"/>
   </g>
   <g id="legend_1">
    <g id="patch_7">
     <path d="M 290.939375 134.895312 
L 379.279375 134.895312 
Q 382.079375 134.895312 382.079375 132.095312 
L 382.079375 10 
Q 382.079375 7.2 379.279375 7.2 
L 290.939375 7.2 
Q 288.139375 7.2 288.139375 10 
L 288.139375 132.095312 
Q 288.139375 134.895312 290.939375 134.895312 
z
" style="fill:#ffffff;opacity:0.8;stroke:#cccccc;stroke-linejoin:miter;"/>
    </g>
    <g id="line2d_17">
     <path d="M 293.739375 18.537812 
L 321.739375 18.537812 
" style="fill:none;stroke:#000000;stroke-linecap:square;stroke-width:1.5;"/>
    </g>
    <g id="line2d_18"/>
    <g id="text_5">
     <!-- target -->
     <defs>
      <path d="M 10.796875 46.6875 
L 2.875 46.6875 
L 2.875 51.90625 
L 10.796875 51.90625 
L 10.796875 68.015625 
L 19.828125 68.015625 
L 19.828125 51.90625 
L 36.71875 51.90625 
L 36.71875 46.6875 
L 19.828125 46.6875 
L 19.828125 13.71875 
Q 19.828125 7.125 21.09375 5.265625 
Q 22.359375 3.421875 25.78125 3.421875 
Q 29.296875 3.421875 30.90625 5.484375 
Q 32.515625 7.5625 32.625 12.203125 
L 39.40625 12.203125 
Q 39.015625 5.125 35.546875 1.84375 
Q 32.078125 -1.421875 25 -1.421875 
Q 17.234375 -1.421875 14.015625 2.015625 
Q 10.796875 5.46875 10.796875 13.71875 
z
" id="DejaVuSerif-116"/>
      <path d="M 39.796875 16.3125 
L 39.796875 27.296875 
L 28.21875 27.296875 
Q 21.53125 27.296875 18.25 24.40625 
Q 14.984375 21.53125 14.984375 15.578125 
Q 14.984375 10.15625 18.296875 6.984375 
Q 21.625 3.8125 27.296875 3.8125 
Q 32.90625 3.8125 36.34375 7.28125 
Q 39.796875 10.75 39.796875 16.3125 
z
M 48.78125 32.421875 
L 48.78125 5.171875 
L 56.78125 5.171875 
L 56.78125 0 
L 39.796875 0 
L 39.796875 5.609375 
Q 36.8125 2 32.90625 0.28125 
Q 29 -1.421875 23.78125 -1.421875 
Q 15.140625 -1.421875 10.0625 3.171875 
Q 4.984375 7.765625 4.984375 15.578125 
Q 4.984375 23.640625 10.796875 28.078125 
Q 16.609375 32.515625 27.203125 32.515625 
L 39.796875 32.515625 
L 39.796875 36.078125 
Q 39.796875 42 36.203125 45.234375 
Q 32.625 48.484375 26.125 48.484375 
Q 20.75 48.484375 17.578125 46.046875 
Q 14.40625 43.609375 13.625 38.8125 
L 8.984375 38.8125 
L 8.984375 49.3125 
Q 13.671875 51.3125 18.09375 52.3125 
Q 22.515625 53.328125 26.703125 53.328125 
Q 37.5 53.328125 43.140625 47.96875 
Q 48.78125 42.625 48.78125 32.421875 
z
" id="DejaVuSerif-97"/>
      <path d="M 47.796875 52 
L 47.796875 39.015625 
L 42.625 39.015625 
Q 42.390625 42.875 40.484375 44.78125 
Q 38.578125 46.6875 34.90625 46.6875 
Q 28.265625 46.6875 24.71875 42.09375 
Q 21.1875 37.5 21.1875 28.90625 
L 21.1875 5.171875 
L 31.59375 5.171875 
L 31.59375 0 
L 4.109375 0 
L 4.109375 5.171875 
L 12.203125 5.171875 
L 12.203125 46.78125 
L 3.609375 46.78125 
L 3.609375 51.90625 
L 21.1875 51.90625 
L 21.1875 42.671875 
Q 23.828125 48.09375 27.96875 50.703125 
Q 32.125 53.328125 38.09375 53.328125 
Q 40.28125 53.328125 42.703125 52.984375 
Q 45.125 52.640625 47.796875 52 
z
" id="DejaVuSerif-114"/>
      <path d="M 52.484375 46.6875 
L 52.484375 1.125 
Q 52.484375 -10.0625 46.328125 -16.140625 
Q 40.1875 -22.21875 28.8125 -22.21875 
Q 23.6875 -22.21875 19 -21.28125 
Q 14.3125 -20.359375 10.015625 -18.5 
L 10.015625 -7.625 
L 14.703125 -7.625 
Q 15.578125 -12.703125 18.84375 -15.046875 
Q 22.125 -17.390625 28.21875 -17.390625 
Q 36.140625 -17.390625 39.8125 -12.921875 
Q 43.5 -8.453125 43.5 1.125 
L 43.5 8.109375 
Q 40.875 3.21875 36.796875 0.890625 
Q 32.71875 -1.421875 26.703125 -1.421875 
Q 17.140625 -1.421875 11.0625 6.171875 
Q 4.984375 13.765625 4.984375 25.984375 
Q 4.984375 38.1875 11.03125 45.75 
Q 17.09375 53.328125 26.703125 53.328125 
Q 32.71875 53.328125 36.796875 51 
Q 40.875 48.6875 43.5 43.796875 
L 43.5 51.90625 
L 61.078125 51.90625 
L 61.078125 46.6875 
z
M 43.5 28.515625 
Q 43.5 37.84375 39.90625 42.765625 
Q 36.328125 47.703125 29.5 47.703125 
Q 22.5625 47.703125 19.015625 42.234375 
Q 15.484375 36.765625 15.484375 25.984375 
Q 15.484375 15.234375 19.015625 9.71875 
Q 22.5625 4.203125 29.5 4.203125 
Q 36.328125 4.203125 39.90625 9.109375 
Q 43.5 14.015625 43.5 23.390625 
z
" id="DejaVuSerif-103"/>
      <path d="M 54.203125 25 
L 15.484375 25 
L 15.484375 24.609375 
Q 15.484375 14.109375 19.4375 8.765625 
Q 23.390625 3.421875 31.109375 3.421875 
Q 37.015625 3.421875 40.796875 6.515625 
Q 44.578125 9.625 46.09375 15.71875 
L 53.328125 15.71875 
Q 51.171875 7.171875 45.375 2.875 
Q 39.59375 -1.421875 30.171875 -1.421875 
Q 18.796875 -1.421875 11.890625 6.078125 
Q 4.984375 13.578125 4.984375 25.984375 
Q 4.984375 38.28125 11.765625 45.796875 
Q 18.5625 53.328125 29.59375 53.328125 
Q 41.359375 53.328125 47.65625 46.0625 
Q 53.953125 38.8125 54.203125 25 
z
M 43.609375 30.171875 
Q 43.3125 39.265625 39.765625 43.875 
Q 36.234375 48.484375 29.59375 48.484375 
Q 23.390625 48.484375 19.828125 43.84375 
Q 16.265625 39.203125 15.484375 30.171875 
z
" id="DejaVuSerif-101"/>
     </defs>
     <g transform="translate(332.939375 23.437812)scale(0.14 -0.14)">
      <use xlink:href="#DejaVuSerif-116"/>
      <use x="40.185547" xlink:href="#DejaVuSerif-97"/>
      <use x="99.804688" xlink:href="#DejaVuSerif-114"/>
      <use x="147.607422" xlink:href="#DejaVuSerif-103"/>
      <use x="211.621094" xlink:href="#DejaVuSerif-101"/>
      <use x="270.800781" xlink:href="#DejaVuSerif-116"/>
     </g>
    </g>
    <g id="line2d_19">
     <path d="M 293.739375 39.28625 
L 321.739375 39.28625 
" style="fill:none;stroke:#1f77b4;stroke-linecap:square;stroke-width:1.5;"/>
    </g>
    <g id="line2d_20"/>
    <g id="text_6">
     <!-- 0.0 -->
     <g transform="translate(332.939375 44.18625)scale(0.14 -0.14)">
      <use xlink:href="#DejaVuSerif-48"/>
      <use x="63.623047" xlink:href="#DejaVuSerif-46"/>
      <use x="95.410156" xlink:href="#DejaVuSerif-48"/>
     </g>
    </g>
    <g id="line2d_21">
     <path d="M 293.739375 59.835625 
L 321.739375 59.835625 
" style="fill:none;stroke:#ff7f0e;stroke-linecap:square;stroke-width:1.5;"/>
    </g>
    <g id="line2d_22"/>
    <g id="text_7">
     <!-- 0.2 -->
     <g transform="translate(332.939375 64.735625)scale(0.14 -0.14)">
      <use xlink:href="#DejaVuSerif-48"/>
      <use x="63.623047" xlink:href="#DejaVuSerif-46"/>
      <use x="95.410156" xlink:href="#DejaVuSerif-50"/>
     </g>
    </g>
    <g id="line2d_23">
     <path d="M 293.739375 80.385 
L 321.739375 80.385 
" style="fill:none;stroke:#2ca02c;stroke-linecap:square;stroke-width:1.5;"/>
    </g>
    <g id="line2d_24"/>
    <g id="text_8">
     <!-- 0.4 -->
     <defs>
      <path d="M 34.90625 24.703125 
L 34.90625 63.484375 
L 10.015625 24.703125 
z
M 56.390625 0 
L 23.1875 0 
L 23.1875 5.171875 
L 34.90625 5.171875 
L 34.90625 19.484375 
L 3.078125 19.484375 
L 3.078125 24.8125 
L 35.015625 74.21875 
L 44.671875 74.21875 
L 44.671875 24.703125 
L 58.59375 24.703125 
L 58.59375 19.484375 
L 44.671875 19.484375 
L 44.671875 5.171875 
L 56.390625 5.171875 
z
" id="DejaVuSerif-52"/>
     </defs>
     <g transform="translate(332.939375 85.285)scale(0.14 -0.14)">
      <use xlink:href="#DejaVuSerif-48"/>
      <use x="63.623047" xlink:href="#DejaVuSerif-46"/>
      <use x="95.410156" xlink:href="#DejaVuSerif-52"/>
     </g>
    </g>
    <g id="line2d_25">
     <path d="M 293.739375 100.934375 
L 321.739375 100.934375 
" style="fill:none;stroke:#d62728;stroke-linecap:square;stroke-width:1.5;"/>
    </g>
    <g id="line2d_26"/>
    <g id="text_9">
     <!-- 0.6 -->
     <g transform="translate(332.939375 105.834375)scale(0.14 -0.14)">
      <use xlink:href="#DejaVuSerif-48"/>
      <use x="63.623047" xlink:href="#DejaVuSerif-46"/>
      <use x="95.410156" xlink:href="#DejaVuSerif-54"/>
     </g>
    </g>
    <g id="line2d_27">
     <path d="M 293.739375 121.48375 
L 321.739375 121.48375 
" style="fill:none;stroke:#9467bd;stroke-linecap:square;stroke-width:1.5;"/>
    </g>
    <g id="line2d_28"/>
    <g id="text_10">
     <!-- 0.8 -->
     <g transform="translate(332.939375 126.38375)scale(0.14 -0.14)">
      <use xlink:href="#DejaVuSerif-48"/>
      <use x="63.623047" xlink:href="#DejaVuSerif-46"/>
      <use x="95.410156" xlink:href="#DejaVuSerif-56"/>
     </g>
    </g>
   </g>
  </g>
  <g id="axes_2">
   <g id="patch_8">
    <path d="M 54.279375 286.521399 
L 389.079375 286.521399 
L 389.079375 165.99966 
L 54.279375 165.99966 
z
" style="fill:#ffffff;"/>
   </g>
   <g id="matplotlib.axis_3">
    <g id="xtick_7">
     <g id="line2d_29">
      <g>
       <use style="stroke:#000000;stroke-width:0.8;" x="69.497557" xlink:href="#maeac3eb653" y="286.521399"/>
      </g>
     </g>
    </g>
    <g id="xtick_8">
     <g id="line2d_30">
      <g>
       <use style="stroke:#000000;stroke-width:0.8;" x="130.98516" xlink:href="#maeac3eb653" y="286.521399"/>
      </g>
     </g>
    </g>
    <g id="xtick_9">
     <g id="line2d_31">
      <g>
       <use style="stroke:#000000;stroke-width:0.8;" x="192.472763" xlink:href="#maeac3eb653" y="286.521399"/>
      </g>
     </g>
    </g>
    <g id="xtick_10">
     <g id="line2d_32">
      <g>
       <use style="stroke:#000000;stroke-width:0.8;" x="253.960367" xlink:href="#maeac3eb653" y="286.521399"/>
      </g>
     </g>
    </g>
    <g id="xtick_11">
     <g id="line2d_33">
      <g>
       <use style="stroke:#000000;stroke-width:0.8;" x="315.44797" xlink:href="#maeac3eb653" y="286.521399"/>
      </g>
     </g>
    </g>
    <g id="xtick_12">
     <g id="line2d_34">
      <g>
       <use style="stroke:#000000;stroke-width:0.8;" x="376.935573" xlink:href="#maeac3eb653" y="286.521399"/>
      </g>
     </g>
    </g>
   </g>
   <g id="matplotlib.axis_4">
    <g id="ytick_5">
     <g id="line2d_35">
      <g>
       <use style="stroke:#000000;stroke-width:0.8;" x="54.279375" xlink:href="#m35b6620d77" y="258.552916"/>
      </g>
     </g>
     <g id="text_11">
      <!-- 0.18 -->
      <g transform="translate(16.1075 263.871822)scale(0.14 -0.14)">
       <use xlink:href="#DejaVuSerif-48"/>
       <use x="63.623047" xlink:href="#DejaVuSerif-46"/>
       <use x="95.410156" xlink:href="#DejaVuSerif-49"/>
       <use x="159.033203" xlink:href="#DejaVuSerif-56"/>
      </g>
     </g>
    </g>
    <g id="ytick_6">
     <g id="line2d_36">
      <g>
       <use style="stroke:#000000;stroke-width:0.8;" x="54.279375" xlink:href="#m35b6620d77" y="221.854896"/>
      </g>
     </g>
     <g id="text_12">
      <!-- 0.20 -->
      <g transform="translate(16.1075 227.173802)scale(0.14 -0.14)">
       <use xlink:href="#DejaVuSerif-48"/>
       <use x="63.623047" xlink:href="#DejaVuSerif-46"/>
       <use x="95.410156" xlink:href="#DejaVuSerif-50"/>
       <use x="159.033203" xlink:href="#DejaVuSerif-48"/>
      </g>
     </g>
    </g>
    <g id="ytick_7">
     <g id="line2d_37">
      <g>
       <use style="stroke:#000000;stroke-width:0.8;" x="54.279375" xlink:href="#m35b6620d77" y="185.156875"/>
      </g>
     </g>
     <g id="text_13">
      <!-- 0.22 -->
      <g transform="translate(16.1075 190.475782)scale(0.14 -0.14)">
       <use xlink:href="#DejaVuSerif-48"/>
       <use x="63.623047" xlink:href="#DejaVuSerif-46"/>
       <use x="95.410156" xlink:href="#DejaVuSerif-50"/>
       <use x="159.033203" xlink:href="#DejaVuSerif-50"/>
      </g>
     </g>
    </g>
   </g>
   <g id="line2d_38">
    <path clip-path="url(#p2239c6373c)" d="M 69.497557 247.060549 
L 72.571937 265.299552 
L 75.646317 251.220155 
L 78.720697 253.073689 
L 81.795077 265.007473 
L 84.869458 278.484093 
L 87.943838 278.371206 
L 91.018218 214.772814 
L 94.092598 171.477921 
L 97.166978 185.534764 
L 100.241358 222.62772 
L 103.315739 258.308937 
L 106.390119 243.648818 
L 109.464499 182.312455 
L 112.538879 243.255197 
L 115.613259 254.316315 
L 118.687639 241.095686 
L 121.76202 264.182341 
L 124.8364 233.816322 
L 127.91078 257.18426 
L 130.98516 270.738804 
L 134.05954 264.671108 
L 137.13392 255.612879 
L 140.208301 270.985592 
L 143.282681 219.196971 
L 146.357061 239.644699 
L 149.431441 266.402558 
L 152.505821 249.734811 
L 155.580201 268.833192 
L 158.654582 250.366403 
L 161.728962 257.377101 
L 164.803342 259.049385 
L 167.877722 274.053773 
L 170.952102 183.711332 
L 174.026482 229.680368 
L 177.100863 251.769072 
L 180.175243 250.084043 
L 183.249623 239.617282 
L 186.324003 237.507561 
L 189.398383 219.118464 
L 192.472763 252.467685 
L 195.547144 266.07017 
L 198.621524 215.749516 
L 201.695904 245.844749 
L 204.770284 259.010828 
L 207.844664 250.484305 
L 210.919044 270.480129 
L 213.993425 250.915911 
L 217.067805 194.074926 
L 220.142185 242.635915 
L 223.216565 189.777067 
L 226.290945 195.137693 
L 229.365325 228.24358 
L 232.439706 251.488554 
L 235.514086 223.01383 
L 238.588466 258.663676 
L 241.662846 254.185954 
L 244.737226 234.579942 
L 247.811606 244.708323 
L 250.885987 220.991713 
L 253.960367 234.691746 
L 257.034747 226.657689 
L 260.109127 251.624106 
L 263.183507 264.955335 
L 266.257887 240.415134 
L 269.332268 267.005251 
L 272.406648 254.072419 
L 275.481028 257.404528 
L 278.555408 269.447537 
L 281.629788 275.991812 
L 284.704168 251.507156 
L 287.778549 270.042029 
L 290.852929 278.527341 
L 293.927309 232.927206 
L 297.001689 265.649422 
L 300.076069 220.74608 
L 303.150449 257.100209 
L 306.22483 274.971465 
L 309.29921 278.698115 
L 312.37359 250.39071 
L 315.44797 269.176691 
L 318.52235 271.118455 
L 321.59673 193.438065 
L 324.671111 240.184086 
L 327.745491 230.538627 
L 330.819871 263.310537 
L 333.894251 274.568369 
L 336.968631 258.274312 
L 340.043011 216.463447 
L 343.117392 187.088317 
L 346.191772 243.547943 
L 349.266152 225.54146 
L 352.340532 237.404694 
L 355.414912 237.392523 
L 358.489292 254.442425 
L 361.563673 240.89391 
L 364.638053 200.894633 
L 367.712433 250.82101 
L 370.786813 250.264863 
L 373.861193 270.286847 
" style="fill:none;stroke:#000000;stroke-linecap:square;stroke-width:1.5;"/>
   </g>
   <g id="line2d_39">
    <path clip-path="url(#p2239c6373c)" d="M 69.497557 245.877298 
L 72.571937 260.744185 
L 75.646317 253.616277 
L 78.720697 255.79088 
L 81.795077 264.989246 
L 84.869458 281.043139 
L 87.943838 276.473389 
L 91.018218 215.176432 
L 94.092598 174.747008 
L 97.166978 190.372066 
L 100.241358 226.759936 
L 103.315739 260.730542 
L 106.390119 248.500942 
L 109.464499 184.588872 
L 112.538879 242.378596 
L 115.613259 254.269641 
L 118.687639 245.026219 
L 121.76202 263.513317 
L 124.8364 239.00791 
L 127.91078 257.745325 
L 130.98516 272.44146 
L 134.05954 265.326758 
L 137.13392 255.570421 
L 140.208301 273.047964 
L 143.282681 223.743058 
L 146.357061 241.350818 
L 149.431441 267.777928 
L 152.505821 248.06005 
L 155.580201 268.097147 
L 158.654582 251.30514 
L 161.728962 257.363478 
L 164.803342 258.905562 
L 167.877722 273.531155 
L 170.952102 181.625857 
L 174.026482 228.178721 
L 177.100863 249.919672 
L 180.175243 248.992445 
L 183.249623 239.737672 
L 186.324003 236.302896 
L 189.398383 216.392611 
L 192.472763 251.41835 
L 195.547144 261.802245 
L 198.621524 216.206958 
L 201.695904 245.462299 
L 204.770284 257.977569 
L 207.844664 248.35674 
L 210.919044 266.920915 
L 213.993425 248.208983 
L 217.067805 190.20845 
L 220.142185 242.320849 
L 223.216565 192.308984 
L 226.290945 192.115183 
L 229.365325 225.464082 
L 232.439706 247.817498 
L 235.514086 223.218635 
L 238.588466 254.4845 
L 241.662846 251.118256 
L 244.737226 232.268314 
L 247.811606 242.539477 
L 250.885987 219.888295 
L 253.960367 235.911793 
L 257.034747 226.322858 
L 260.109127 251.034084 
L 263.183507 263.104388 
L 266.257887 238.646282 
L 269.332268 265.562557 
L 272.406648 253.531167 
L 275.481028 257.478958 
L 278.555408 269.459361 
L 281.629788 277.275718 
L 284.704168 252.173759 
L 287.778549 271.511116 
L 290.852929 279.514384 
L 293.927309 235.596812 
L 297.001689 267.450451 
L 300.076069 226.080484 
L 303.150449 257.937267 
L 306.22483 277.952491 
L 309.29921 280.673363 
L 312.37359 249.055578 
L 315.44797 272.455077 
L 318.52235 278.868152 
L 321.59673 191.939427 
L 324.671111 233.200108 
L 327.745491 230.34679 
L 330.819871 265.943269 
L 333.894251 276.390707 
L 336.968631 262.978067 
L 340.043011 213.923177 
L 343.117392 190.343849 
L 346.191772 241.320673 
L 349.266152 228.720642 
L 352.340532 239.241248 
L 355.414912 237.388653 
L 358.489292 253.972818 
L 361.563673 241.055017 
L 364.638053 197.963014 
L 367.712433 241.105764 
L 370.786813 247.533139 
L 373.861193 268.516603 
" style="fill:none;stroke:#1f77b4;stroke-linecap:square;stroke-width:1.5;"/>
   </g>
   <g id="line2d_40">
    <path clip-path="url(#p2239c6373c)" d="M 69.497557 245.192921 
L 72.571937 261.455847 
L 75.646317 252.314052 
L 78.720697 255.528163 
L 81.795077 265.668426 
L 84.869458 279.248728 
L 87.943838 275.706852 
L 91.018218 215.923912 
L 94.092598 173.724179 
L 97.166978 188.986112 
L 100.241358 225.556171 
L 103.315739 260.372523 
L 106.390119 247.848094 
L 109.464499 183.925141 
L 112.538879 242.097191 
L 115.613259 254.211871 
L 118.687639 244.253789 
L 121.76202 263.830882 
L 124.8364 237.608456 
L 127.91078 257.708851 
L 130.98516 272.108378 
L 134.05954 265.525262 
L 137.13392 256.342249 
L 140.208301 273.092969 
L 143.282681 222.587168 
L 146.357061 240.184853 
L 149.431441 267.408207 
L 152.505821 247.909039 
L 155.580201 268.045717 
L 158.654582 250.760843 
L 161.728962 257.543331 
L 164.803342 258.727004 
L 167.877722 272.66594 
L 170.952102 183.023889 
L 174.026482 227.78822 
L 177.100863 250.301047 
L 180.175243 248.626183 
L 183.249623 239.987853 
L 186.324003 236.52192 
L 189.398383 217.63091 
L 192.472763 251.462918 
L 195.547144 262.256726 
L 198.621524 216.584444 
L 201.695904 246.128081 
L 204.770284 257.603679 
L 207.844664 248.396335 
L 210.919044 267.08207 
L 213.993425 248.628739 
L 217.067805 191.728264 
L 220.142185 241.3549 
L 223.216565 191.83509 
L 226.290945 192.712103 
L 229.365325 225.896239 
L 232.439706 248.050672 
L 235.514086 222.937831 
L 238.588466 254.702639 
L 241.662846 251.733851 
L 244.737226 232.456189 
L 247.811606 242.582366 
L 250.885987 219.712332 
L 253.960367 234.552943 
L 257.034747 225.62752 
L 260.109127 251.266102 
L 263.183507 263.120684 
L 266.257887 239.212374 
L 269.332268 265.480366 
L 272.406648 253.473004 
L 275.481028 257.013813 
L 278.555408 268.747809 
L 281.629788 276.977333 
L 284.704168 251.541636 
L 287.778549 270.057812 
L 290.852929 278.674296 
L 293.927309 235.240461 
L 297.001689 267.342805 
L 300.076069 224.772845 
L 303.150449 257.441937 
L 306.22483 277.242852 
L 309.29921 280.730194 
L 312.37359 249.142334 
L 315.44797 272.523938 
L 318.52235 276.378239 
L 321.59673 192.901489 
L 324.671111 234.697419 
L 327.745491 230.705409 
L 330.819871 264.45591 
L 333.894251 276.527609 
L 336.968631 263.263027 
L 340.043011 214.649931 
L 343.117392 190.148913 
L 346.191772 241.396028 
L 349.266152 228.300038 
L 352.340532 239.820847 
L 355.414912 236.867132 
L 358.489292 254.687233 
L 361.563673 242.267149 
L 364.638053 197.599418 
L 367.712433 242.334739 
L 370.786813 247.847793 
L 373.861193 268.229203 
" style="fill:none;stroke:#ff7f0e;stroke-linecap:square;stroke-width:1.5;"/>
   </g>
   <g id="line2d_41">
    <path clip-path="url(#p2239c6373c)" d="M 69.497557 244.862686 
L 72.571937 263.418002 
L 75.646317 251.948624 
L 78.720697 255.347336 
L 81.795077 265.292744 
L 84.869458 278.705056 
L 87.943838 276.879092 
L 91.018218 215.782881 
L 94.092598 172.952925 
L 97.166978 187.761327 
L 100.241358 224.663996 
L 103.315739 260.273818 
L 106.390119 246.906594 
L 109.464499 184.348479 
L 112.538879 242.549867 
L 115.613259 254.482367 
L 118.687639 243.185012 
L 121.76202 264.310942 
L 124.8364 236.923686 
L 127.91078 257.201654 
L 130.98516 271.291067 
L 134.05954 265.547136 
L 137.13392 256.917787 
L 140.208301 273.066311 
L 143.282681 221.108039 
L 146.357061 239.624093 
L 149.431441 267.015464 
L 152.505821 247.853234 
L 155.580201 268.31192 
L 158.654582 250.423761 
L 161.728962 257.279551 
L 164.803342 258.287083 
L 167.877722 272.701484 
L 170.952102 183.254793 
L 174.026482 227.90426 
L 177.100863 251.391008 
L 180.175243 249.076987 
L 183.249623 239.791809 
L 186.324003 236.569242 
L 189.398383 218.38219 
L 192.472763 252.47682 
L 195.547144 262.854371 
L 198.621524 216.903117 
L 201.695904 246.821806 
L 204.770284 256.96323 
L 207.844664 248.893999 
L 210.919044 267.602063 
L 213.993425 249.004978 
L 217.067805 192.906684 
L 220.142185 241.837823 
L 223.216565 190.656424 
L 226.290945 192.214708 
L 229.365325 226.067334 
L 232.439706 248.655371 
L 235.514086 222.221193 
L 238.588466 255.03785 
L 241.662846 251.85659 
L 244.737226 232.915831 
L 247.811606 243.001068 
L 250.885987 219.600201 
L 253.960367 234.243484 
L 257.034747 225.487487 
L 260.109127 251.24697 
L 263.183507 262.796624 
L 266.257887 239.126001 
L 269.332268 266.204988 
L 272.406648 253.516697 
L 275.481028 257.066501 
L 278.555408 268.302569 
L 281.629788 276.401972 
L 284.704168 251.536427 
L 287.778549 269.967597 
L 290.852929 278.162588 
L 293.927309 233.803658 
L 297.001689 267.130274 
L 300.076069 223.212729 
L 303.150449 257.131111 
L 306.22483 277.439005 
L 309.29921 280.56949 
L 312.37359 250.087279 
L 315.44797 271.813958 
L 318.52235 274.209732 
L 321.59673 192.361262 
L 324.671111 236.660586 
L 327.745491 231.354239 
L 330.819871 263.3275 
L 333.894251 276.9142 
L 336.968631 261.951478 
L 340.043011 216.23523 
L 343.117392 189.436089 
L 346.191772 242.139954 
L 349.266152 227.588759 
L 352.340532 239.31879 
L 355.414912 236.484475 
L 358.489292 254.292503 
L 361.563673 242.951688 
L 364.638053 197.999105 
L 367.712433 244.560172 
L 370.786813 248.07167 
L 373.861193 269.058306 
" style="fill:none;stroke:#2ca02c;stroke-linecap:square;stroke-width:1.5;"/>
   </g>
   <g id="line2d_42">
    <path clip-path="url(#p2239c6373c)" d="M 69.497557 247.471701 
L 72.571937 264.330957 
L 75.646317 251.38379 
L 78.720697 254.922548 
L 81.795077 265.195844 
L 84.869458 279.736402 
L 87.943838 277.146663 
L 91.018218 215.735853 
L 94.092598 171.96992 
L 97.166978 186.270797 
L 100.241358 224.088116 
L 103.315739 260.164668 
L 106.390119 245.445921 
L 109.464499 183.717969 
L 112.538879 243.28034 
L 115.613259 254.944613 
L 118.687639 242.377721 
L 121.76202 264.120313 
L 124.8364 235.941104 
L 127.91078 257.231402 
L 130.98516 271.393928 
L 134.05954 265.784028 
L 137.13392 256.994072 
L 140.208301 272.74206 
L 143.282681 220.889083 
L 146.357061 239.934207 
L 149.431441 266.932071 
L 152.505821 247.722846 
L 155.580201 268.49719 
L 158.654582 250.357434 
L 161.728962 257.169964 
L 164.803342 258.685841 
L 167.877722 273.142349 
L 170.952102 183.490264 
L 174.026482 228.48725 
L 177.100863 251.412444 
L 180.175243 249.131917 
L 183.249623 240.078465 
L 186.324003 237.049159 
L 189.398383 218.777285 
L 192.472763 252.370842 
L 195.547144 264.02035 
L 198.621524 216.364558 
L 201.695904 246.110253 
L 204.770284 257.852506 
L 207.844664 248.848734 
L 210.919044 267.885218 
L 213.993425 249.46921 
L 217.067805 193.689325 
L 220.142185 241.132122 
L 223.216565 189.328361 
L 226.290945 193.245617 
L 229.365325 226.596411 
L 232.439706 249.536663 
L 235.514086 221.994363 
L 238.588466 256.357164 
L 241.662846 251.960873 
L 244.737226 233.508363 
L 247.811606 243.776655 
L 250.885987 219.877013 
L 253.960367 234.508211 
L 257.034747 225.507228 
L 260.109127 251.334957 
L 263.183507 263.015471 
L 266.257887 239.40016 
L 269.332268 266.721974 
L 272.406648 253.898667 
L 275.481028 256.949231 
L 278.555408 268.027397 
L 281.629788 275.806241 
L 284.704168 251.045472 
L 287.778549 270.190053 
L 290.852929 277.52475 
L 293.927309 232.890759 
L 297.001689 267.042096 
L 300.076069 222.963369 
L 303.150449 257.075224 
L 306.22483 276.804339 
L 309.29921 280.674348 
L 312.37359 250.519668 
L 315.44797 271.122092 
L 318.52235 273.102211 
L 321.59673 193.621517 
L 324.671111 238.681499 
L 327.745491 230.828914 
L 330.819871 262.794218 
L 333.894251 275.95233 
L 336.968631 260.621829 
L 340.043011 216.808212 
L 343.117392 188.740505 
L 346.191772 242.848553 
L 349.266152 226.554515 
L 352.340532 238.168451 
L 355.414912 236.034833 
L 358.489292 254.208945 
L 361.563673 242.302147 
L 364.638053 198.567604 
L 367.712433 246.278572 
L 370.786813 248.356466 
L 373.861193 269.028995 
" style="fill:none;stroke:#d62728;stroke-linecap:square;stroke-width:1.5;"/>
   </g>
   <g id="line2d_43">
    <path clip-path="url(#p2239c6373c)" d="M 69.497557 247.529968 
L 72.571937 264.797872 
L 75.646317 251.473117 
L 78.720697 254.444689 
L 81.795077 265.197443 
L 84.869458 279.452331 
L 87.943838 278.273351 
L 91.018218 215.501448 
L 94.092598 171.905597 
L 97.166978 185.601188 
L 100.241358 223.895435 
L 103.315739 259.041699 
L 106.390119 244.355471 
L 109.464499 182.951678 
L 112.538879 243.362394 
L 115.613259 255.331132 
L 118.687639 242.427355 
L 121.76202 264.674948 
L 124.8364 235.287586 
L 127.91078 257.075347 
L 130.98516 271.757954 
L 134.05954 265.979634 
L 137.13392 257.608026 
L 140.208301 272.323315 
L 143.282681 221.171733 
L 146.357061 240.440871 
L 149.431441 266.871836 
L 152.505821 248.146287 
L 155.580201 268.698244 
L 158.654582 250.341899 
L 161.728962 257.130209 
L 164.803342 258.736089 
L 167.877722 273.841447 
L 170.952102 183.235626 
L 174.026482 228.926884 
L 177.100863 251.254366 
L 180.175243 249.620973 
L 183.249623 240.212489 
L 186.324003 237.440186 
L 189.398383 219.079149 
L 192.472763 252.392134 
L 195.547144 265.583378 
L 198.621524 215.748717 
L 201.695904 245.543122 
L 204.770284 258.423479 
L 207.844664 249.362842 
L 210.919044 269.012153 
L 213.993425 250.165915 
L 217.067805 193.556019 
L 220.142185 241.538864 
L 223.216565 188.182615 
L 226.290945 194.190111 
L 229.365325 227.554493 
L 232.439706 250.804861 
L 235.514086 221.735501 
L 238.588466 256.900794 
L 241.662846 252.440814 
L 244.737226 233.972944 
L 247.811606 244.275075 
L 250.885987 220.149516 
L 253.960367 234.6246 
L 257.034747 225.488916 
L 260.109127 250.88621 
L 263.183507 263.286309 
L 266.257887 239.786095 
L 269.332268 266.741974 
L 272.406648 253.875863 
L 275.481028 257.105218 
L 278.555408 268.482658 
L 281.629788 275.58034 
L 284.704168 250.985544 
L 287.778549 270.17105 
L 290.852929 277.225189 
L 293.927309 232.725215 
L 297.001689 266.565829 
L 300.076069 221.880141 
L 303.150449 256.862269 
L 306.22483 276.203796 
L 309.29921 279.293535 
L 312.37359 250.848412 
L 315.44797 270.350264 
L 318.52235 272.615131 
L 321.59673 192.232303 
L 324.671111 240.280074 
L 327.745491 231.159481 
L 330.819871 263.26112 
L 333.894251 275.431599 
L 336.968631 259.229826 
L 340.043011 217.739103 
L 343.117392 187.636729 
L 346.191772 242.631279 
L 349.266152 226.046805 
L 352.340532 237.422338 
L 355.414912 236.522262 
L 358.489292 254.083479 
L 361.563673 242.178725 
L 364.638053 199.583296 
L 367.712433 247.559976 
L 370.786813 248.891306 
L 373.861193 269.420767 
" style="fill:none;stroke:#9467bd;stroke-linecap:square;stroke-width:1.5;"/>
   </g>
   <g id="patch_9">
    <path d="M 54.279375 286.521399 
L 54.279375 165.99966 
" style="fill:none;stroke:#000000;stroke-linecap:square;stroke-linejoin:miter;stroke-width:0.8;"/>
   </g>
   <g id="patch_10">
    <path d="M 389.079375 286.521399 
L 389.079375 165.99966 
" style="fill:none;stroke:#000000;stroke-linecap:square;stroke-linejoin:miter;stroke-width:0.8;"/>
   </g>
   <g id="patch_11">
    <path d="M 54.279375 286.521399 
L 389.079375 286.521399 
" style="fill:none;stroke:#000000;stroke-linecap:square;stroke-linejoin:miter;stroke-width:0.8;"/>
   </g>
   <g id="patch_12">
    <path d="M 54.279375 165.99966 
L 389.079375 165.99966 
" style="fill:none;stroke:#000000;stroke-linecap:square;stroke-linejoin:miter;stroke-width:0.8;"/>
   </g>
  </g>
  <g id="axes_3">
   <g id="patch_13">
    <path d="M 54.279375 431.147486 
L 389.079375 431.147486 
L 389.079375 310.625747 
L 54.279375 310.625747 
z
" style="fill:#ffffff;"/>
   </g>
   <g id="matplotlib.axis_5">
    <g id="xtick_13">
     <g id="line2d_44">
      <g>
       <use style="stroke:#000000;stroke-width:0.8;" x="69.497557" xlink:href="#maeac3eb653" y="431.147486"/>
      </g>
     </g>
    </g>
    <g id="xtick_14">
     <g id="line2d_45">
      <g>
       <use style="stroke:#000000;stroke-width:0.8;" x="130.98516" xlink:href="#maeac3eb653" y="431.147486"/>
      </g>
     </g>
    </g>
    <g id="xtick_15">
     <g id="line2d_46">
      <g>
       <use style="stroke:#000000;stroke-width:0.8;" x="192.472763" xlink:href="#maeac3eb653" y="431.147486"/>
      </g>
     </g>
    </g>
    <g id="xtick_16">
     <g id="line2d_47">
      <g>
       <use style="stroke:#000000;stroke-width:0.8;" x="253.960367" xlink:href="#maeac3eb653" y="431.147486"/>
      </g>
     </g>
    </g>
    <g id="xtick_17">
     <g id="line2d_48">
      <g>
       <use style="stroke:#000000;stroke-width:0.8;" x="315.44797" xlink:href="#maeac3eb653" y="431.147486"/>
      </g>
     </g>
    </g>
    <g id="xtick_18">
     <g id="line2d_49">
      <g>
       <use style="stroke:#000000;stroke-width:0.8;" x="376.935573" xlink:href="#maeac3eb653" y="431.147486"/>
      </g>
     </g>
    </g>
   </g>
   <g id="matplotlib.axis_6">
    <g id="ytick_8">
     <g id="line2d_50">
      <g>
       <use style="stroke:#000000;stroke-width:0.8;" x="54.279375" xlink:href="#m35b6620d77" y="415.188617"/>
      </g>
     </g>
     <g id="text_14">
      <!-- 0.200 -->
      <g transform="translate(7.2 420.507524)scale(0.14 -0.14)">
       <use xlink:href="#DejaVuSerif-48"/>
       <use x="63.623047" xlink:href="#DejaVuSerif-46"/>
       <use x="95.410156" xlink:href="#DejaVuSerif-50"/>
       <use x="159.033203" xlink:href="#DejaVuSerif-48"/>
       <use x="222.65625" xlink:href="#DejaVuSerif-48"/>
      </g>
     </g>
    </g>
    <g id="ytick_9">
     <g id="line2d_51">
      <g>
       <use style="stroke:#000000;stroke-width:0.8;" x="54.279375" xlink:href="#m35b6620d77" y="378.45344"/>
      </g>
     </g>
     <g id="text_15">
      <!-- 0.225 -->
      <defs>
       <path d="M 50.296875 72.90625 
L 50.296875 64.890625 
L 16.890625 64.890625 
L 16.890625 44 
Q 19.4375 45.75 22.828125 46.625 
Q 26.21875 47.515625 30.421875 47.515625 
Q 42.234375 47.515625 49.0625 40.96875 
Q 55.90625 34.421875 55.90625 23.09375 
Q 55.90625 11.53125 49 5.046875 
Q 42.09375 -1.421875 29.59375 -1.421875 
Q 24.5625 -1.421875 19.28125 -0.1875 
Q 14.015625 1.03125 8.5 3.515625 
L 8.5 17.671875 
L 14.015625 17.671875 
Q 14.453125 10.75 18.421875 7.078125 
Q 22.40625 3.421875 29.59375 3.421875 
Q 37.3125 3.421875 41.453125 8.5 
Q 45.609375 13.578125 45.609375 23.09375 
Q 45.609375 32.5625 41.484375 37.609375 
Q 37.359375 42.671875 29.59375 42.671875 
Q 25.203125 42.671875 21.84375 41.109375 
Q 18.5 39.546875 15.921875 36.28125 
L 11.71875 36.28125 
L 11.71875 72.90625 
z
" id="DejaVuSerif-53"/>
      </defs>
      <g transform="translate(7.2 383.772346)scale(0.14 -0.14)">
       <use xlink:href="#DejaVuSerif-48"/>
       <use x="63.623047" xlink:href="#DejaVuSerif-46"/>
       <use x="95.410156" xlink:href="#DejaVuSerif-50"/>
       <use x="159.033203" xlink:href="#DejaVuSerif-50"/>
       <use x="222.65625" xlink:href="#DejaVuSerif-53"/>
      </g>
     </g>
    </g>
    <g id="ytick_10">
     <g id="line2d_52">
      <g>
       <use style="stroke:#000000;stroke-width:0.8;" x="54.279375" xlink:href="#m35b6620d77" y="341.718262"/>
      </g>
     </g>
     <g id="text_16">
      <!-- 0.250 -->
      <g transform="translate(7.2 347.037168)scale(0.14 -0.14)">
       <use xlink:href="#DejaVuSerif-48"/>
       <use x="63.623047" xlink:href="#DejaVuSerif-46"/>
       <use x="95.410156" xlink:href="#DejaVuSerif-50"/>
       <use x="159.033203" xlink:href="#DejaVuSerif-53"/>
       <use x="222.65625" xlink:href="#DejaVuSerif-48"/>
      </g>
     </g>
    </g>
   </g>
   <g id="line2d_53">
    <path clip-path="url(#p3719f81b55)" d="M 69.497557 382.307406 
L 72.571937 386.08315 
L 75.646317 399.47775 
L 78.720697 400.950953 
L 81.795077 413.075551 
L 84.869458 418.600357 
L 87.943838 358.667885 
L 91.018218 399.1585 
L 94.092598 399.787316 
L 97.166978 393.294565 
L 100.241358 410.718526 
L 103.315739 385.220909 
L 106.390119 345.29864 
L 109.464499 387.893392 
L 112.538879 355.775483 
L 115.613259 366.961241 
L 118.687639 389.90667 
L 121.76202 386.81095 
L 124.8364 409.469014 
L 127.91078 385.073716 
L 130.98516 365.705568 
L 134.05954 401.802785 
L 137.13392 409.522239 
L 140.208301 399.458098 
L 143.282681 341.446204 
L 146.357061 339.480592 
L 149.431441 340.56882 
L 152.505821 378.675677 
L 155.580201 386.902058 
L 158.654582 400.666453 
L 161.728962 416.087923 
L 164.803342 409.677647 
L 167.877722 398.664434 
L 170.952102 386.273183 
L 174.026482 389.28323 
L 177.100863 410.969034 
L 180.175243 413.284447 
L 183.249623 366.862345 
L 186.324003 352.628398 
L 189.398383 353.765688 
L 192.472763 341.587719 
L 195.547144 316.104008 
L 198.621524 370.925903 
L 201.695904 381.809812 
L 204.770284 407.34338 
L 207.844664 417.411901 
L 210.919044 358.249852 
L 213.993425 375.134625 
L 217.067805 374.191628 
L 220.142185 377.57737 
L 223.216565 394.688539 
L 226.290945 375.595823 
L 229.365325 359.233163 
L 232.439706 356.513546 
L 235.514086 335.995494 
L 238.588466 352.441111 
L 241.662846 377.085054 
L 244.737226 370.926222 
L 247.811606 390.51336 
L 250.885987 405.840542 
L 253.960367 413.897016 
L 257.034747 403.123791 
L 260.109127 369.747535 
L 263.183507 376.280061 
L 266.257887 388.647406 
L 269.332268 403.768239 
L 272.406648 394.153985 
L 275.481028 362.018022 
L 278.555408 397.157339 
L 281.629788 405.673865 
L 284.704168 396.589686 
L 287.778549 401.023532 
L 290.852929 409.170526 
L 293.927309 406.453771 
L 297.001689 420.890298 
L 300.076069 396.926886 
L 303.150449 386.665814 
L 306.22483 375.637621 
L 309.29921 402.086396 
L 312.37359 409.801726 
L 315.44797 397.159971 
L 318.52235 361.370483 
L 321.59673 399.164924 
L 324.671111 401.129664 
L 327.745491 406.91123 
L 330.819871 396.319227 
L 333.894251 391.665232 
L 336.968631 396.072688 
L 340.043011 398.206624 
L 343.117392 372.786476 
L 346.191772 377.908057 
L 349.266152 406.974145 
L 352.340532 417.079031 
L 355.414912 391.840929 
L 358.489292 390.078165 
L 361.563673 378.343724 
L 364.638053 369.071277 
L 367.712433 349.978159 
L 370.786813 372.28993 
L 373.861193 342.45236 
" style="fill:none;stroke:#000000;stroke-linecap:square;stroke-width:1.5;"/>
   </g>
   <g id="line2d_54">
    <path clip-path="url(#p3719f81b55)" d="M 69.497557 378.785872 
L 72.571937 378.435012 
L 75.646317 398.919038 
L 78.720697 400.463223 
L 81.795077 411.004684 
L 84.869458 420.133861 
L 87.943838 358.696847 
L 91.018218 392.480951 
L 94.092598 399.60289 
L 97.166978 398.957707 
L 100.241358 405.26744 
L 103.315739 384.673234 
L 106.390119 353.138273 
L 109.464499 394.639359 
L 112.538879 375.479595 
L 115.613259 377.118983 
L 118.687639 367.231332 
L 121.76202 376.111203 
L 124.8364 406.257133 
L 127.91078 379.944262 
L 130.98516 370.642184 
L 134.05954 409.961214 
L 137.13392 425.669226 
L 140.208301 399.22961 
L 143.282681 337.604641 
L 146.357061 348.300161 
L 149.431441 346.838042 
L 152.505821 390.001638 
L 155.580201 390.394362 
L 158.654582 403.758114 
L 161.728962 421.502441 
L 164.803342 407.99444 
L 167.877722 384.54361 
L 170.952102 383.690547 
L 174.026482 378.763012 
L 177.100863 396.063116 
L 180.175243 408.302296 
L 183.249623 365.731553 
L 186.324003 352.649426 
L 189.398383 369.342445 
L 192.472763 362.601669 
L 195.547144 340.141759 
L 198.621524 379.604077 
L 201.695904 375.57944 
L 204.770284 397.908588 
L 207.844664 410.304892 
L 210.919044 363.184274 
L 213.993425 373.225546 
L 217.067805 389.14875 
L 220.142185 389.991829 
L 223.216565 395.656203 
L 226.290945 371.864959 
L 229.365325 361.943216 
L 232.439706 354.184458 
L 235.514086 328.621553 
L 238.588466 356.83561 
L 241.662846 378.178655 
L 244.737226 373.082271 
L 247.811606 392.482878 
L 250.885987 403.859448 
L 253.960367 410.889249 
L 257.034747 397.209409 
L 260.109127 367.484624 
L 263.183507 374.628984 
L 266.257887 371.392599 
L 269.332268 390.008995 
L 272.406648 382.714473 
L 275.481028 373.769965 
L 278.555408 405.659464 
L 281.629788 406.083718 
L 284.704168 390.36546 
L 287.778549 393.567162 
L 290.852929 401.965411 
L 293.927309 398.751666 
L 297.001689 413.536197 
L 300.076069 395.93901 
L 303.150449 391.270241 
L 306.22483 377.882098 
L 309.29921 400.540034 
L 312.37359 406.425994 
L 315.44797 392.75719 
L 318.52235 364.533936 
L 321.59673 393.252387 
L 324.671111 388.502559 
L 327.745491 396.76466 
L 330.819871 395.62187 
L 333.894251 387.615798 
L 336.968631 393.297667 
L 340.043011 390.803903 
L 343.117392 377.778486 
L 346.191772 375.439131 
L 349.266152 397.430469 
L 352.340532 418.199317 
L 355.414912 385.818344 
L 358.489292 389.030687 
L 361.563673 382.681322 
L 364.638053 367.411086 
L 367.712433 346.724884 
L 370.786813 375.912608 
L 373.861193 335.776598 
" style="fill:none;stroke:#1f77b4;stroke-linecap:square;stroke-width:1.5;"/>
   </g>
   <g id="line2d_55">
    <path clip-path="url(#p3719f81b55)" d="M 69.497557 379.481525 
L 72.571937 380.166669 
L 75.646317 398.406018 
L 78.720697 398.951729 
L 81.795077 411.731145 
L 84.869458 419.815758 
L 87.943838 358.184483 
L 91.018218 394.473826 
L 94.092598 398.619793 
L 97.166978 397.565633 
L 100.241358 405.886042 
L 103.315739 384.387493 
L 106.390119 349.738939 
L 109.464499 395.386577 
L 112.538879 370.788536 
L 115.613259 372.234189 
L 118.687639 372.545636 
L 121.76202 377.963857 
L 124.8364 406.808693 
L 127.91078 379.597453 
L 130.98516 369.386455 
L 134.05954 407.68978 
L 137.13392 420.401341 
L 140.208301 399.202678 
L 143.282681 340.262055 
L 146.357061 344.100533 
L 149.431441 344.537115 
L 152.505821 389.330924 
L 155.580201 389.994281 
L 158.654582 405.211649 
L 161.728962 419.438799 
L 164.803342 409.289975 
L 167.877722 386.299134 
L 170.952102 385.606917 
L 174.026482 380.406637 
L 177.100863 397.929608 
L 180.175243 408.013993 
L 183.249623 364.163677 
L 186.324003 350.698285 
L 189.398383 362.505918 
L 192.472763 354.438669 
L 195.547144 337.189046 
L 198.621524 375.936343 
L 201.695904 377.748095 
L 204.770284 396.202987 
L 207.844664 411.895769 
L 210.919044 359.4343 
L 213.993425 373.267499 
L 217.067805 386.167539 
L 220.142185 389.769279 
L 223.216565 397.250792 
L 226.290945 373.670525 
L 229.365325 360.090344 
L 232.439706 353.386747 
L 235.514086 329.93259 
L 238.588466 357.245982 
L 241.662846 378.464243 
L 244.737226 373.915893 
L 247.811606 391.971522 
L 250.885987 405.040927 
L 253.960367 411.16575 
L 257.034747 398.138473 
L 260.109127 367.041539 
L 263.183507 375.393851 
L 266.257887 378.818058 
L 269.332268 392.00568 
L 272.406648 386.426305 
L 275.481028 372.420304 
L 278.555408 402.552002 
L 281.629788 405.80459 
L 284.704168 390.696175 
L 287.778549 395.865572 
L 290.852929 405.836891 
L 293.927309 399.380669 
L 297.001689 415.302931 
L 300.076069 395.384727 
L 303.150449 390.078982 
L 306.22483 376.714588 
L 309.29921 399.113649 
L 312.37359 406.833043 
L 315.44797 392.588591 
L 318.52235 363.79587 
L 321.59673 394.014232 
L 324.671111 389.467269 
L 327.745491 398.404901 
L 330.819871 396.4794 
L 333.894251 389.459321 
L 336.968631 392.380252 
L 340.043011 391.197634 
L 343.117392 375.313405 
L 346.191772 376.422168 
L 349.266152 398.966443 
L 352.340532 418.956477 
L 355.414912 388.298446 
L 358.489292 389.923196 
L 361.563673 380.846032 
L 364.638053 364.985538 
L 367.712433 348.436572 
L 370.786813 371.601267 
L 373.861193 337.79115 
" style="fill:none;stroke:#ff7f0e;stroke-linecap:square;stroke-width:1.5;"/>
   </g>
   <g id="line2d_56">
    <path clip-path="url(#p3719f81b55)" d="M 69.497557 380.316524 
L 72.571937 380.555277 
L 75.646317 397.489545 
L 78.720697 397.891772 
L 81.795077 411.186464 
L 84.869458 419.65628 
L 87.943838 358.941248 
L 91.018218 395.430216 
L 94.092598 397.683153 
L 97.166978 395.42818 
L 100.241358 410.231234 
L 103.315739 385.643746 
L 106.390119 343.095666 
L 109.464499 389.406618 
L 112.538879 364.038673 
L 115.613259 367.230478 
L 118.687639 377.285851 
L 121.76202 379.732452 
L 124.8364 408.188503 
L 127.91078 379.888772 
L 130.98516 366.52726 
L 134.05954 405.063371 
L 137.13392 415.834388 
L 140.208301 400.556696 
L 143.282681 341.422361 
L 146.357061 342.077792 
L 149.431441 342.939428 
L 152.505821 388.805116 
L 155.580201 389.539318 
L 158.654582 405.393232 
L 161.728962 418.151541 
L 164.803342 407.848131 
L 167.877722 389.621788 
L 170.952102 387.615951 
L 174.026482 381.764887 
L 177.100863 401.098105 
L 180.175243 409.090985 
L 183.249623 364.049205 
L 186.324003 351.593103 
L 189.398383 358.144852 
L 192.472763 347.866667 
L 195.547144 332.846098 
L 198.621524 375.344935 
L 201.695904 382.383714 
L 204.770284 399.143509 
L 207.844664 411.871542 
L 210.919044 357.03114 
L 213.993425 374.046882 
L 217.067805 380.22994 
L 220.142185 385.286206 
L 223.216565 396.639284 
L 226.290945 371.674662 
L 229.365325 360.632836 
L 232.439706 351.781298 
L 235.514086 332.066561 
L 238.588466 354.488778 
L 241.662846 378.371197 
L 244.737226 372.185552 
L 247.811606 391.236127 
L 250.885987 405.401771 
L 253.960367 410.720038 
L 257.034747 398.470994 
L 260.109127 367.573214 
L 263.183507 374.503258 
L 266.257887 385.759707 
L 269.332268 395.62556 
L 272.406648 388.491567 
L 275.481028 369.884411 
L 278.555408 400.407651 
L 281.629788 404.883518 
L 284.704168 391.807763 
L 287.778549 395.301205 
L 290.852929 407.400426 
L 293.927309 400.680459 
L 297.001689 416.455333 
L 300.076069 395.092625 
L 303.150449 388.729258 
L 306.22483 376.249125 
L 309.29921 397.655975 
L 312.37359 406.549911 
L 315.44797 394.086006 
L 318.52235 361.698464 
L 321.59673 394.213791 
L 324.671111 392.848309 
L 327.745491 400.752205 
L 330.819871 395.569408 
L 333.894251 389.016576 
L 336.968631 390.660567 
L 340.043011 392.012905 
L 343.117392 374.823376 
L 346.191772 377.367413 
L 349.266152 400.195568 
L 352.340532 421.611307 
L 355.414912 389.413794 
L 358.489292 388.449932 
L 361.563673 377.57769 
L 364.638053 364.126027 
L 367.712433 346.484293 
L 370.786813 369.999671 
L 373.861193 337.728309 
" style="fill:none;stroke:#2ca02c;stroke-linecap:square;stroke-width:1.5;"/>
   </g>
   <g id="line2d_57">
    <path clip-path="url(#p3719f81b55)" d="M 69.497557 383.0906 
L 72.571937 381.759681 
L 75.646317 398.44854 
L 78.720697 398.134247 
L 81.795077 411.166714 
L 84.869458 417.428232 
L 87.943838 358.919659 
L 91.018218 398.129035 
L 94.092598 399.206487 
L 97.166978 395.535513 
L 100.241358 413.404647 
L 103.315739 387.494999 
L 106.390119 340.355638 
L 109.464499 386.034807 
L 112.538879 364.62765 
L 115.613259 363.95028 
L 118.687639 379.199266 
L 121.76202 383.45683 
L 124.8364 409.292077 
L 127.91078 380.15848 
L 130.98516 363.163955 
L 134.05954 402.230745 
L 137.13392 409.531355 
L 140.208301 400.25241 
L 143.282681 342.601454 
L 146.357061 340.296782 
L 149.431441 340.33707 
L 152.505821 385.749284 
L 155.580201 387.093516 
L 158.654582 402.776916 
L 161.728962 416.373727 
L 164.803342 407.262942 
L 167.877722 392.499519 
L 170.952102 389.397137 
L 174.026482 385.023305 
L 177.100863 404.341157 
L 180.175243 409.510597 
L 183.249623 365.118468 
L 186.324003 351.461137 
L 189.398383 354.380207 
L 192.472763 343.298268 
L 195.547144 329.845444 
L 198.621524 374.631261 
L 201.695904 383.005119 
L 204.770284 403.034236 
L 207.844664 414.002317 
L 210.919044 356.063386 
L 213.993425 373.087164 
L 217.067805 372.634883 
L 220.142185 381.744267 
L 223.216565 395.300439 
L 226.290945 371.319587 
L 229.365325 360.10624 
L 232.439706 351.864284 
L 235.514086 332.249085 
L 238.588466 353.110772 
L 241.662846 378.547141 
L 244.737226 370.238665 
L 247.811606 388.832924 
L 250.885987 404.696396 
L 253.960367 410.786601 
L 257.034747 398.583243 
L 260.109127 367.261461 
L 263.183507 374.064771 
L 266.257887 387.815204 
L 269.332268 399.186343 
L 272.406648 389.935775 
L 275.481028 366.697423 
L 278.555408 396.322714 
L 281.629788 402.888322 
L 284.704168 391.516132 
L 287.778549 396.674361 
L 290.852929 407.274153 
L 293.927309 401.470608 
L 297.001689 416.022517 
L 300.076069 395.252093 
L 303.150449 386.68564 
L 306.22483 374.695285 
L 309.29921 398.696576 
L 312.37359 407.72696 
L 315.44797 394.690858 
L 318.52235 360.689371 
L 321.59673 393.255189 
L 324.671111 395.204272 
L 327.745491 403.618068 
L 330.819871 394.791404 
L 333.894251 388.944921 
L 336.968631 390.115059 
L 340.043011 394.072519 
L 343.117392 375.151332 
L 346.191772 377.827402 
L 349.266152 402.31973 
L 352.340532 421.900245 
L 355.414912 390.689212 
L 358.489292 387.806621 
L 361.563673 376.08287 
L 364.638053 364.326057 
L 367.712433 344.445612 
L 370.786813 369.431429 
L 373.861193 337.781209 
" style="fill:none;stroke:#d62728;stroke-linecap:square;stroke-width:1.5;"/>
   </g>
   <g id="line2d_58">
    <path clip-path="url(#p3719f81b55)" d="M 69.497557 384.32198 
L 72.571937 385.848254 
L 75.646317 400.684109 
L 78.720697 400.705008 
L 81.795077 411.692127 
L 84.869458 417.410015 
L 87.943838 359.14396 
L 91.018218 396.799868 
L 94.092598 401.679188 
L 97.166978 394.86169 
L 100.241358 414.839527 
L 103.315739 387.65948 
L 106.390119 342.881108 
L 109.464499 385.905884 
L 112.538879 362.698361 
L 115.613259 366.463882 
L 118.687639 385.254963 
L 121.76202 385.451807 
L 124.8364 409.211587 
L 127.91078 383.960819 
L 130.98516 362.625798 
L 134.05954 399.262541 
L 137.13392 409.565512 
L 140.208301 401.423664 
L 143.282681 339.757793 
L 146.357061 339.055855 
L 149.431441 340.563255 
L 152.505821 383.669264 
L 155.580201 386.364646 
L 158.654582 402.491131 
L 161.728962 416.669584 
L 164.803342 410.613142 
L 167.877722 396.86144 
L 170.952102 387.599792 
L 174.026482 390.645158 
L 177.100863 407.263906 
L 180.175243 410.819533 
L 183.249623 366.317311 
L 186.324003 351.548545 
L 189.398383 353.075301 
L 192.472763 341.088537 
L 195.547144 321.093226 
L 198.621524 371.795921 
L 201.695904 381.852082 
L 204.770284 405.037796 
L 207.844664 415.665439 
L 210.919044 357.639626 
L 213.993425 373.885181 
L 217.067805 369.274392 
L 220.142185 377.745927 
L 223.216565 395.276354 
L 226.290945 372.595635 
L 229.365325 361.061163 
L 232.439706 353.243001 
L 235.514086 332.748136 
L 238.588466 352.066886 
L 241.662846 379.044578 
L 244.737226 369.853572 
L 247.811606 387.687157 
L 250.885987 404.541181 
L 253.960367 410.863237 
L 257.034747 401.88987 
L 260.109127 366.930702 
L 263.183507 375.126633 
L 266.257887 386.731971 
L 269.332268 400.573753 
L 272.406648 390.454532 
L 275.481028 361.871748 
L 278.555408 392.424022 
L 281.629788 401.922057 
L 284.704168 390.685862 
L 287.778549 399.018314 
L 290.852929 407.706826 
L 293.927309 403.155058 
L 297.001689 418.197347 
L 300.076069 395.463629 
L 303.150449 385.125553 
L 306.22483 374.00077 
L 309.29921 399.998067 
L 312.37359 409.140864 
L 315.44797 397.394911 
L 318.52235 361.158293 
L 321.59673 395.276879 
L 324.671111 397.514156 
L 327.745491 403.480036 
L 330.819871 393.913117 
L 333.894251 389.78488 
L 336.968631 391.919892 
L 340.043011 395.896357 
L 343.117392 374.085616 
L 346.191772 378.141257 
L 349.266152 403.009187 
L 352.340532 418.106041 
L 355.414912 392.170643 
L 358.489292 386.435939 
L 361.563673 375.01514 
L 364.638053 365.206347 
L 367.712433 344.048508 
L 370.786813 371.428333 
L 373.861193 337.812038 
" style="fill:none;stroke:#9467bd;stroke-linecap:square;stroke-width:1.5;"/>
   </g>
   <g id="patch_14">
    <path d="M 54.279375 431.147486 
L 54.279375 310.625747 
" style="fill:none;stroke:#000000;stroke-linecap:square;stroke-linejoin:miter;stroke-width:0.8;"/>
   </g>
   <g id="patch_15">
    <path d="M 389.079375 431.147486 
L 389.079375 310.625747 
" style="fill:none;stroke:#000000;stroke-linecap:square;stroke-linejoin:miter;stroke-width:0.8;"/>
   </g>
   <g id="patch_16">
    <path d="M 54.279375 431.147486 
L 389.079375 431.147486 
" style="fill:none;stroke:#000000;stroke-linecap:square;stroke-linejoin:miter;stroke-width:0.8;"/>
   </g>
   <g id="patch_17">
    <path d="M 54.279375 310.625747 
L 389.079375 310.625747 
" style="fill:none;stroke:#000000;stroke-linecap:square;stroke-linejoin:miter;stroke-width:0.8;"/>
   </g>
  </g>
  <g id="axes_4">
   <g id="patch_18">
    <path d="M 54.279375 575.773573 
L 389.079375 575.773573 
L 389.079375 455.251834 
L 54.279375 455.251834 
z
" style="fill:#ffffff;"/>
   </g>
   <g id="matplotlib.axis_7">
    <g id="xtick_19">
     <g id="line2d_59">
      <g>
       <use style="stroke:#000000;stroke-width:0.8;" x="69.497557" xlink:href="#maeac3eb653" y="575.773573"/>
      </g>
     </g>
    </g>
    <g id="xtick_20">
     <g id="line2d_60">
      <g>
       <use style="stroke:#000000;stroke-width:0.8;" x="130.98516" xlink:href="#maeac3eb653" y="575.773573"/>
      </g>
     </g>
    </g>
    <g id="xtick_21">
     <g id="line2d_61">
      <g>
       <use style="stroke:#000000;stroke-width:0.8;" x="192.472763" xlink:href="#maeac3eb653" y="575.773573"/>
      </g>
     </g>
    </g>
    <g id="xtick_22">
     <g id="line2d_62">
      <g>
       <use style="stroke:#000000;stroke-width:0.8;" x="253.960367" xlink:href="#maeac3eb653" y="575.773573"/>
      </g>
     </g>
    </g>
    <g id="xtick_23">
     <g id="line2d_63">
      <g>
       <use style="stroke:#000000;stroke-width:0.8;" x="315.44797" xlink:href="#maeac3eb653" y="575.773573"/>
      </g>
     </g>
    </g>
    <g id="xtick_24">
     <g id="line2d_64">
      <g>
       <use style="stroke:#000000;stroke-width:0.8;" x="376.935573" xlink:href="#maeac3eb653" y="575.773573"/>
      </g>
     </g>
    </g>
   </g>
   <g id="matplotlib.axis_8">
    <g id="ytick_11">
     <g id="line2d_65">
      <g>
       <use style="stroke:#000000;stroke-width:0.8;" x="54.279375" xlink:href="#m35b6620d77" y="546.790913"/>
      </g>
     </g>
     <g id="text_17">
      <!-- 0.250 -->
      <g transform="translate(7.2 552.109819)scale(0.14 -0.14)">
       <use xlink:href="#DejaVuSerif-48"/>
       <use x="63.623047" xlink:href="#DejaVuSerif-46"/>
       <use x="95.410156" xlink:href="#DejaVuSerif-50"/>
       <use x="159.033203" xlink:href="#DejaVuSerif-53"/>
       <use x="222.65625" xlink:href="#DejaVuSerif-48"/>
      </g>
     </g>
    </g>
    <g id="ytick_12">
     <g id="line2d_66">
      <g>
       <use style="stroke:#000000;stroke-width:0.8;" x="54.279375" xlink:href="#m35b6620d77" y="513.278799"/>
      </g>
     </g>
     <g id="text_18">
      <!-- 0.275 -->
      <defs>
       <path d="M 56.390625 67.921875 
L 27.875 0 
L 20.609375 0 
L 47.796875 64.890625 
L 14.109375 64.890625 
L 14.109375 55.90625 
L 8.40625 55.90625 
L 8.40625 72.90625 
L 56.390625 72.90625 
z
" id="DejaVuSerif-55"/>
      </defs>
      <g transform="translate(7.2 518.597705)scale(0.14 -0.14)">
       <use xlink:href="#DejaVuSerif-48"/>
       <use x="63.623047" xlink:href="#DejaVuSerif-46"/>
       <use x="95.410156" xlink:href="#DejaVuSerif-50"/>
       <use x="159.033203" xlink:href="#DejaVuSerif-55"/>
       <use x="222.65625" xlink:href="#DejaVuSerif-53"/>
      </g>
     </g>
    </g>
    <g id="ytick_13">
     <g id="line2d_67">
      <g>
       <use style="stroke:#000000;stroke-width:0.8;" x="54.279375" xlink:href="#m35b6620d77" y="479.766684"/>
      </g>
     </g>
     <g id="text_19">
      <!-- 0.300 -->
      <defs>
       <path d="M 9.71875 69.828125 
Q 15.4375 71.96875 20.671875 73.09375 
Q 25.921875 74.21875 30.515625 74.21875 
Q 41.21875 74.21875 47.21875 69.59375 
Q 53.21875 64.984375 53.21875 56.78125 
Q 53.21875 50.203125 49.0625 45.78125 
Q 44.921875 41.359375 37.3125 39.796875 
Q 46.296875 38.53125 51.25 33.28125 
Q 56.203125 28.03125 56.203125 19.671875 
Q 56.203125 9.46875 49.34375 4.015625 
Q 42.484375 -1.421875 29.59375 -1.421875 
Q 23.875 -1.421875 18.421875 -0.1875 
Q 12.984375 1.03125 7.625 3.515625 
L 7.625 17.671875 
L 13.09375 17.671875 
Q 13.578125 10.640625 17.828125 7.03125 
Q 22.078125 3.421875 29.78125 3.421875 
Q 37.25 3.421875 41.578125 7.734375 
Q 45.90625 12.0625 45.90625 19.578125 
Q 45.90625 28.171875 41.453125 32.59375 
Q 37.015625 37.015625 28.421875 37.015625 
L 23.78125 37.015625 
L 23.78125 42 
L 26.21875 42 
Q 34.765625 42 39.03125 45.53125 
Q 43.3125 49.078125 43.3125 56.203125 
Q 43.3125 62.59375 39.796875 65.984375 
Q 36.28125 69.390625 29.6875 69.390625 
Q 23.09375 69.390625 19.453125 66.265625 
Q 15.828125 63.140625 15.1875 56.984375 
L 9.71875 56.984375 
z
" id="DejaVuSerif-51"/>
      </defs>
      <g transform="translate(7.2 485.085591)scale(0.14 -0.14)">
       <use xlink:href="#DejaVuSerif-48"/>
       <use x="63.623047" xlink:href="#DejaVuSerif-46"/>
       <use x="95.410156" xlink:href="#DejaVuSerif-51"/>
       <use x="159.033203" xlink:href="#DejaVuSerif-48"/>
       <use x="222.65625" xlink:href="#DejaVuSerif-48"/>
      </g>
     </g>
    </g>
   </g>
   <g id="line2d_68">
    <path clip-path="url(#pc3425bbd9b)" d="M 69.497557 502.303964 
L 72.571937 527.883324 
L 75.646317 537.40214 
L 78.720697 517.824596 
L 81.795077 531.584575 
L 84.869458 525.404657 
L 87.943838 532.103271 
L 91.018218 530.060333 
L 94.092598 545.441229 
L 97.166978 538.425779 
L 100.241358 511.024287 
L 103.315739 504.724329 
L 106.390119 474.132688 
L 109.464499 475.188037 
L 112.538879 513.773092 
L 115.613259 500.726375 
L 118.687639 487.07872 
L 121.76202 517.316113 
L 124.8364 531.555101 
L 127.91078 539.294988 
L 130.98516 519.426107 
L 134.05954 539.653395 
L 137.13392 551.945292 
L 140.208301 512.818502 
L 143.282681 530.522615 
L 146.357061 537.472013 
L 149.431441 548.63203 
L 152.505821 546.361527 
L 155.580201 519.753404 
L 158.654582 477.263761 
L 161.728962 483.301947 
L 164.803342 487.582834 
L 167.877722 507.81909 
L 170.952102 533.30958 
L 174.026482 539.511897 
L 177.100863 542.461331 
L 180.175243 552.106269 
L 183.249623 537.924228 
L 186.324003 545.316523 
L 189.398383 529.154619 
L 192.472763 543.268167 
L 195.547144 556.802385 
L 198.621524 543.40009 
L 201.695904 554.291196 
L 204.770284 540.140401 
L 207.844664 553.877521 
L 210.919044 542.62026 
L 213.993425 542.288886 
L 217.067805 518.550009 
L 220.142185 488.967815 
L 223.216565 512.247325 
L 226.290945 535.387857 
L 229.365325 549.636541 
L 232.439706 551.4366 
L 235.514086 549.007899 
L 238.588466 551.336316 
L 241.662846 559.892415 
L 244.737226 548.489362 
L 247.811606 517.579919 
L 250.885987 502.740045 
L 253.960367 520.804705 
L 257.034747 529.808477 
L 260.109127 543.496321 
L 263.183507 551.890788 
L 266.257887 550.123408 
L 269.332268 556.42071 
L 272.406648 556.755209 
L 275.481028 537.702041 
L 278.555408 527.934081 
L 281.629788 520.196915 
L 284.704168 535.805419 
L 287.778549 541.11992 
L 290.852929 488.405505 
L 293.927309 468.744977 
L 297.001689 466.777905 
L 300.076069 507.702382 
L 303.150449 517.527865 
L 306.22483 511.331767 
L 309.29921 534.013247 
L 312.37359 547.941153 
L 315.44797 526.301895 
L 318.52235 508.414336 
L 321.59673 525.847451 
L 324.671111 533.512904 
L 327.745491 541.517652 
L 330.819871 550.682503 
L 333.894251 500.787661 
L 336.968631 515.359422 
L 340.043011 481.600111 
L 343.117392 476.692746 
L 346.191772 497.865018 
L 349.266152 460.730095 
L 352.340532 494.188832 
L 355.414912 480.901414 
L 358.489292 496.662043 
L 361.563673 497.261798 
L 364.638053 524.295211 
L 367.712433 539.151853 
L 370.786813 548.865032 
L 373.861193 524.900811 
" style="fill:none;stroke:#000000;stroke-linecap:square;stroke-width:1.5;"/>
   </g>
   <g id="line2d_69">
    <path clip-path="url(#pc3425bbd9b)" d="M 69.497557 534.032344 
L 72.571937 533.224724 
L 75.646317 515.693861 
L 78.720697 536.904837 
L 81.795077 526.147421 
L 84.869458 538.769842 
L 87.943838 531.77075 
L 91.018218 541.165536 
L 94.092598 546.938926 
L 97.166978 547.571048 
L 100.241358 501.404665 
L 103.315739 522.424989 
L 106.390119 469.72359 
L 109.464499 507.610149 
L 112.538879 544.279205 
L 115.613259 510.115305 
L 118.687639 499.295089 
L 121.76202 519.237306 
L 124.8364 526.541603 
L 127.91078 533.290021 
L 130.98516 507.456343 
L 134.05954 542.688426 
L 137.13392 562.606182 
L 140.208301 522.184824 
L 143.282681 543.655512 
L 146.357061 518.27596 
L 149.431441 543.583203 
L 152.505821 509.898859 
L 155.580201 495.158193 
L 158.654582 465.433648 
L 161.728962 498.646588 
L 164.803342 509.003699 
L 167.877722 512.876129 
L 170.952102 557.366479 
L 174.026482 555.804191 
L 177.100863 543.570599 
L 180.175243 567.522853 
L 183.249623 550.859615 
L 186.324003 534.424768 
L 189.398383 534.548053 
L 192.472763 514.792839 
L 195.547144 538.924366 
L 198.621524 546.274895 
L 201.695904 549.160136 
L 204.770284 525.141711 
L 207.844664 541.763142 
L 210.919044 534.702018 
L 213.993425 551.211571 
L 217.067805 537.260727 
L 220.142185 522.082354 
L 223.216565 526.806309 
L 226.290945 549.481356 
L 229.365325 558.174978 
L 232.439706 525.650288 
L 235.514086 510.230343 
L 238.588466 518.215142 
L 241.662846 541.995448 
L 244.737226 544.36957 
L 247.811606 534.611413 
L 250.885987 522.410859 
L 253.960367 528.751952 
L 257.034747 540.133959 
L 260.109127 534.307756 
L 263.183507 549.919043 
L 266.257887 549.445441 
L 269.332268 556.646397 
L 272.406648 555.327773 
L 275.481028 531.253573 
L 278.555408 522.740163 
L 281.629788 514.090166 
L 284.704168 521.749032 
L 287.778549 533.648449 
L 290.852929 501.482047 
L 293.927309 486.41711 
L 297.001689 495.132785 
L 300.076069 512.678189 
L 303.150449 500.623371 
L 306.22483 504.208285 
L 309.29921 526.378898 
L 312.37359 536.579755 
L 315.44797 521.089867 
L 318.52235 509.838854 
L 321.59673 513.110703 
L 324.671111 508.507755 
L 327.745491 516.670835 
L 330.819871 550.976577 
L 333.894251 500.053052 
L 336.968631 515.506298 
L 340.043011 506.623055 
L 343.117392 491.197274 
L 346.191772 495.859048 
L 349.266152 468.866593 
L 352.340532 505.366722 
L 355.414912 505.999942 
L 358.489292 523.211927 
L 361.563673 509.145969 
L 364.638053 524.566737 
L 367.712433 525.202014 
L 370.786813 527.158614 
L 373.861193 516.2488 
" style="fill:none;stroke:#1f77b4;stroke-linecap:square;stroke-width:1.5;"/>
   </g>
   <g id="line2d_70">
    <path clip-path="url(#pc3425bbd9b)" d="M 69.497557 532.913956 
L 72.571937 536.038011 
L 75.646317 523.32079 
L 78.720697 537.428176 
L 81.795077 525.633949 
L 84.869458 521.856 
L 87.943838 536.872957 
L 91.018218 545.425877 
L 94.092598 548.328292 
L 97.166978 553.099267 
L 100.241358 514.162994 
L 103.315739 523.836539 
L 106.390119 474.897377 
L 109.464499 507.7757 
L 112.538879 549.475842 
L 115.613259 509.801002 
L 118.687639 501.739242 
L 121.76202 518.04698 
L 124.8364 528.106956 
L 127.91078 532.519175 
L 130.98516 505.378042 
L 134.05954 544.380357 
L 137.13392 555.998326 
L 140.208301 525.614454 
L 143.282681 544.645142 
L 146.357061 516.891708 
L 149.431441 535.140824 
L 152.505821 512.984003 
L 155.580201 495.519456 
L 158.654582 470.560054 
L 161.728962 499.740566 
L 164.803342 509.799704 
L 167.877722 510.619109 
L 170.952102 555.348706 
L 174.026482 550.708206 
L 177.100863 543.920617 
L 180.175243 570.057213 
L 183.249623 550.354093 
L 186.324003 535.382918 
L 189.398383 531.791289 
L 192.472763 519.95552 
L 195.547144 541.0675 
L 198.621524 550.250634 
L 201.695904 548.895375 
L 204.770284 524.741077 
L 207.844664 548.805928 
L 210.919044 538.318571 
L 213.993425 551.430015 
L 217.067805 530.766748 
L 220.142185 517.229587 
L 223.216565 527.127343 
L 226.290945 548.906127 
L 229.365325 560.102663 
L 232.439706 526.343253 
L 235.514086 513.523801 
L 238.588466 523.36034 
L 241.662846 544.885878 
L 244.737226 546.237572 
L 247.811606 535.527616 
L 250.885987 522.731454 
L 253.960367 534.529756 
L 257.034747 541.369918 
L 260.109127 533.903826 
L 263.183507 550.448974 
L 266.257887 546.433364 
L 269.332268 556.62122 
L 272.406648 557.462877 
L 275.481028 530.295662 
L 278.555408 522.955451 
L 281.629788 512.752096 
L 284.704168 522.695899 
L 287.778549 534.13082 
L 290.852929 497.360132 
L 293.927309 478.505621 
L 297.001689 495.535956 
L 300.076069 511.508426 
L 303.150449 503.034647 
L 306.22483 506.272158 
L 309.29921 525.806531 
L 312.37359 535.773146 
L 315.44797 524.638087 
L 318.52235 503.379371 
L 321.59673 512.921042 
L 324.671111 509.01094 
L 327.745491 517.370464 
L 330.819871 551.285717 
L 333.894251 502.172495 
L 336.968631 515.935396 
L 340.043011 505.099399 
L 343.117392 492.357409 
L 346.191772 498.649784 
L 349.266152 468.090293 
L 352.340532 512.094087 
L 355.414912 496.045712 
L 358.489292 521.670554 
L 361.563673 506.258855 
L 364.638053 528.420271 
L 367.712433 523.919794 
L 370.786813 526.103916 
L 373.861193 515.534223 
" style="fill:none;stroke:#ff7f0e;stroke-linecap:square;stroke-width:1.5;"/>
   </g>
   <g id="line2d_71">
    <path clip-path="url(#pc3425bbd9b)" d="M 69.497557 530.74877 
L 72.571937 537.128235 
L 75.646317 536.521001 
L 78.720697 536.68847 
L 81.795077 527.321738 
L 84.869458 511.167417 
L 87.943838 538.639446 
L 91.018218 547.075993 
L 94.092598 555.7019 
L 97.166978 556.661009 
L 100.241358 526.819971 
L 103.315739 523.704705 
L 106.390119 480.022745 
L 109.464499 507.163193 
L 112.538879 551.213488 
L 115.613259 509.465566 
L 118.687639 502.603032 
L 121.76202 518.916032 
L 124.8364 533.3864 
L 127.91078 532.953666 
L 130.98516 506.279509 
L 134.05954 545.788978 
L 137.13392 547.975657 
L 140.208301 525.593999 
L 143.282681 540.087697 
L 146.357061 520.111313 
L 149.431441 531.617753 
L 152.505821 516.665434 
L 155.580201 497.410309 
L 158.654582 478.365318 
L 161.728962 505.302663 
L 164.803342 512.818372 
L 167.877722 513.163137 
L 170.952102 552.70856 
L 174.026482 551.617778 
L 177.100863 543.537421 
L 180.175243 570.295312 
L 183.249623 549.373891 
L 186.324003 536.710842 
L 189.398383 531.056542 
L 192.472763 526.856086 
L 195.547144 545.199003 
L 198.621524 549.214093 
L 201.695904 548.688037 
L 204.770284 528.672991 
L 207.844664 552.465827 
L 210.919044 542.122568 
L 213.993425 549.344488 
L 217.067805 525.596706 
L 220.142185 509.236415 
L 223.216565 529.72702 
L 226.290945 545.456917 
L 229.365325 559.612183 
L 232.439706 529.183387 
L 235.514086 519.533173 
L 238.588466 530.55909 
L 241.662846 547.762166 
L 244.737226 545.600256 
L 247.811606 533.025256 
L 250.885987 520.748758 
L 253.960367 534.205046 
L 257.034747 540.982028 
L 260.109127 533.904945 
L 263.183507 549.284085 
L 266.257887 544.055807 
L 269.332268 557.952339 
L 272.406648 558.195951 
L 275.481028 529.667576 
L 278.555408 522.813511 
L 281.629788 510.57105 
L 284.704168 523.611183 
L 287.778549 534.145601 
L 290.852929 489.637484 
L 293.927309 471.409941 
L 297.001689 488.463287 
L 300.076069 513.786889 
L 303.150449 506.037255 
L 306.22483 507.364419 
L 309.29921 524.587271 
L 312.37359 534.911833 
L 315.44797 524.280139 
L 318.52235 503.507649 
L 321.59673 512.545197 
L 324.671111 511.634187 
L 327.745491 519.671239 
L 330.819871 550.428879 
L 333.894251 492.014642 
L 336.968631 516.3121 
L 340.043011 497.978791 
L 343.117392 492.111799 
L 346.191772 501.161652 
L 349.266152 469.021916 
L 352.340532 516.721683 
L 355.414912 486.606032 
L 358.489292 514.8232 
L 361.563673 500.782076 
L 364.638053 528.596288 
L 367.712433 527.914909 
L 370.786813 526.788491 
L 373.861193 513.39005 
" style="fill:none;stroke:#2ca02c;stroke-linecap:square;stroke-width:1.5;"/>
   </g>
   <g id="line2d_72">
    <path clip-path="url(#pc3425bbd9b)" d="M 69.497557 527.127104 
L 72.571937 538.255451 
L 75.646317 548.713285 
L 78.720697 536.270438 
L 81.795077 534.029747 
L 84.869458 513.64361 
L 87.943838 537.866502 
L 91.018218 541.532912 
L 94.092598 557.61053 
L 97.166978 556.717258 
L 100.241358 530.55925 
L 103.315739 520.662147 
L 106.390119 484.17622 
L 109.464499 503.366707 
L 112.538879 545.577086 
L 115.613259 506.423647 
L 118.687639 508.79741 
L 121.76202 522.419448 
L 124.8364 538.53318 
L 127.91078 535.018259 
L 130.98516 510.729969 
L 134.05954 550.801209 
L 137.13392 541.426167 
L 140.208301 523.722363 
L 143.282681 534.126904 
L 146.357061 533.19592 
L 149.431441 533.759049 
L 152.505821 530.084968 
L 155.580201 506.582087 
L 158.654582 483.841922 
L 161.728962 503.61775 
L 164.803342 510.451401 
L 167.877722 518.874165 
L 170.952102 547.964151 
L 174.026482 546.46844 
L 177.100863 546.427212 
L 180.175243 562.157109 
L 183.249623 547.100762 
L 186.324003 541.39261 
L 189.398383 533.421236 
L 192.472763 536.264365 
L 195.547144 554.055819 
L 198.621524 544.292388 
L 201.695904 548.977911 
L 204.770284 533.801795 
L 207.844664 552.497627 
L 210.919044 543.562669 
L 213.993425 544.305411 
L 217.067805 522.70337 
L 220.142185 501.649835 
L 223.216565 529.852542 
L 226.290945 541.31319 
L 229.365325 556.556022 
L 232.439706 538.198243 
L 235.514086 528.868584 
L 238.588466 536.680001 
L 241.662846 553.190192 
L 244.737226 543.997001 
L 247.811606 526.993832 
L 250.885987 513.070294 
L 253.960367 528.57136 
L 257.034747 537.428056 
L 260.109127 537.645981 
L 263.183507 549.636919 
L 266.257887 540.816058 
L 269.332268 556.173305 
L 272.406648 558.395779 
L 275.481028 532.472034 
L 278.555408 521.584023 
L 281.629788 509.837896 
L 284.704168 524.684907 
L 287.778549 534.608856 
L 290.852929 483.416859 
L 293.927309 467.612177 
L 297.001689 481.05632 
L 300.076069 516.409058 
L 303.150449 511.981748 
L 306.22483 508.523855 
L 309.29921 526.956759 
L 312.37359 535.883087 
L 315.44797 525.512183 
L 318.52235 506.515691 
L 321.59673 515.570816 
L 324.671111 512.264591 
L 327.745491 521.717934 
L 330.819871 546.873688 
L 333.894251 482.61659 
L 336.968631 516.41531 
L 340.043011 491.088771 
L 343.117392 490.238325 
L 346.191772 506.428761 
L 349.266152 468.827282 
L 352.340532 517.753021 
L 355.414912 481.153397 
L 358.489292 504.252509 
L 361.563673 496.384784 
L 364.638053 527.100577 
L 367.712433 535.079462 
L 370.786813 531.362395 
L 373.861193 514.003565 
" style="fill:none;stroke:#d62728;stroke-linecap:square;stroke-width:1.5;"/>
   </g>
   <g id="line2d_73">
    <path clip-path="url(#pc3425bbd9b)" d="M 69.497557 519.189287 
L 72.571937 543.002097 
L 75.646317 549.146019 
L 78.720697 532.100983 
L 81.795077 539.971045 
L 84.869458 522.824696 
L 87.943838 533.546837 
L 91.018218 523.149087 
L 94.092598 538.594543 
L 97.166978 559.409858 
L 100.241358 525.010097 
L 103.315739 515.016836 
L 106.390119 488.625642 
L 109.464499 490.210201 
L 112.538879 534.530555 
L 115.613259 508.968274 
L 118.687639 506.154067 
L 121.76202 524.821215 
L 124.8364 541.60642 
L 127.91078 539.346234 
L 130.98516 512.171629 
L 134.05954 543.896967 
L 137.13392 530.969611 
L 140.208301 517.780985 
L 143.282681 530.611983 
L 146.357061 540.252603 
L 149.431441 538.055064 
L 152.505821 539.739977 
L 155.580201 504.707894 
L 158.654582 481.506312 
L 161.728962 498.671356 
L 164.803342 496.22173 
L 167.877722 517.786259 
L 170.952102 543.28526 
L 174.026482 541.923779 
L 177.100863 545.835 
L 180.175243 552.848863 
L 183.249623 543.342947 
L 186.324003 549.317323 
L 189.398383 535.601203 
L 192.472763 545.449567 
L 195.547144 560.10562 
L 198.621524 541.711247 
L 201.695904 547.357557 
L 204.770284 538.362116 
L 207.844664 551.717492 
L 210.919044 543.832089 
L 213.993425 538.863483 
L 217.067805 518.072198 
L 220.142185 497.856865 
L 223.216565 525.868053 
L 226.290945 541.430961 
L 229.365325 554.399865 
L 232.439706 546.420181 
L 235.514086 540.214577 
L 238.588466 544.729276 
L 241.662846 558.587537 
L 244.737226 545.62103 
L 247.811606 517.948933 
L 250.885987 508.773 
L 253.960367 524.181863 
L 257.034747 533.605263 
L 260.109127 541.127185 
L 263.183507 551.665717 
L 266.257887 545.553436 
L 269.332268 554.10264 
L 272.406648 554.319966 
L 275.481028 535.752052 
L 278.555408 523.44775 
L 281.629788 509.296499 
L 284.704168 529.574094 
L 287.778549 537.998336 
L 290.852929 481.278759 
L 293.927309 468.140789 
L 297.001689 472.953592 
L 300.076069 513.993528 
L 303.150449 521.670953 
L 306.22483 516.06695 
L 309.29921 536.026266 
L 312.37359 537.284198 
L 315.44797 525.07082 
L 318.52235 508.803362 
L 321.59673 521.987993 
L 324.671111 521.571719 
L 327.745491 528.581587 
L 330.819871 548.21088 
L 333.894251 485.749274 
L 336.968631 514.278438 
L 340.043011 487.476213 
L 343.117392 483.934605 
L 346.191772 500.293548 
L 349.266152 462.489046 
L 352.340532 508.843312 
L 355.414912 483.155389 
L 358.489292 493.153684 
L 361.563673 499.677566 
L 364.638053 532.644936 
L 367.712433 542.442005 
L 370.786813 542.442204 
L 373.861193 518.293338 
" style="fill:none;stroke:#9467bd;stroke-linecap:square;stroke-width:1.5;"/>
   </g>
   <g id="patch_19">
    <path d="M 54.279375 575.773573 
L 54.279375 455.251834 
" style="fill:none;stroke:#000000;stroke-linecap:square;stroke-linejoin:miter;stroke-width:0.8;"/>
   </g>
   <g id="patch_20">
    <path d="M 389.079375 575.773573 
L 389.079375 455.251834 
" style="fill:none;stroke:#000000;stroke-linecap:square;stroke-linejoin:miter;stroke-width:0.8;"/>
   </g>
   <g id="patch_21">
    <path d="M 54.279375 575.773573 
L 389.079375 575.773573 
" style="fill:none;stroke:#000000;stroke-linecap:square;stroke-linejoin:miter;stroke-width:0.8;"/>
   </g>
   <g id="patch_22">
    <path d="M 54.279375 455.251834 
L 389.079375 455.251834 
" style="fill:none;stroke:#000000;stroke-linecap:square;stroke-linejoin:miter;stroke-width:0.8;"/>
   </g>
  </g>
 </g>
 <defs>
  <clipPath id="pd35c8823e7">
   <rect height="120.521739" width="334.8" x="54.279375" y="21.373573"/>
  </clipPath>
  <clipPath id="p2239c6373c">
   <rect height="120.521739" width="334.8" x="54.279375" y="165.99966"/>
  </clipPath>
  <clipPath id="p3719f81b55">
   <rect height="120.521739" width="334.8" x="54.279375" y="310.625747"/>
  </clipPath>
  <clipPath id="pc3425bbd9b">
   <rect height="120.521739" width="334.8" x="54.279375" y="455.251834"/>
  </clipPath>
 </defs>
</svg>
