<?xml version="1.0" encoding="utf-8" standalone="no"?>
<!DOCTYPE svg PUBLIC "-//W3C//DTD SVG 1.1//EN"
  "http://www.w3.org/Graphics/SVG/1.1/DTD/svg11.dtd">
<!-- Created with matplotlib (https://matplotlib.org/) -->
<svg height="253.29875pt" version="1.1" viewBox="0 0 1063.641407 253.29875" width="1063.641407pt" xmlns="http://www.w3.org/2000/svg" xmlns:xlink="http://www.w3.org/1999/xlink">
 <defs>
  <style type="text/css">
*{stroke-linecap:butt;stroke-linejoin:round;}
  </style>
 </defs>
 <g id="figure_1">
  <g id="patch_1">
   <path d="M -0 253.29875 
L 1063.641407 253.29875 
L 1063.641407 0 
L -0 0 
z
" style="fill:#ffffff;"/>
  </g>
  <g id="axes_1">
   <g id="patch_2">
    <path d="M 45.371875 225.549375 
L 340.78364 225.549375 
L 340.78364 25.965375 
L 45.371875 25.965375 
z
" style="fill:#ffffff;"/>
   </g>
   <g id="matplotlib.axis_1">
    <g id="xtick_1">
     <g id="line2d_1">
      <defs>
       <path d="M 0 0 
L 0 3.5 
" id="m86102aad46" style="stroke:#000000;stroke-width:0.8;"/>
      </defs>
      <g>
       <use style="stroke:#000000;stroke-width:0.8;" x="58.799682" xlink:href="#m86102aad46" y="225.549375"/>
      </g>
     </g>
     <g id="text_1">
      <!-- 0 -->
      <defs>
       <path d="M 31.78125 3.421875 
Q 39.265625 3.421875 42.96875 11.625 
Q 46.6875 19.828125 46.6875 36.375 
Q 46.6875 52.984375 42.96875 61.1875 
Q 39.265625 69.390625 31.78125 69.390625 
Q 24.3125 69.390625 20.59375 61.1875 
Q 16.890625 52.984375 16.890625 36.375 
Q 16.890625 19.828125 20.59375 11.625 
Q 24.3125 3.421875 31.78125 3.421875 
z
M 31.78125 -1.421875 
Q 19.921875 -1.421875 13.25 8.53125 
Q 6.59375 18.5 6.59375 36.375 
Q 6.59375 54.296875 13.25 64.25 
Q 19.921875 74.21875 31.78125 74.21875 
Q 43.703125 74.21875 50.34375 64.25 
Q 56.984375 54.296875 56.984375 36.375 
Q 56.984375 18.5 50.34375 8.53125 
Q 43.703125 -1.421875 31.78125 -1.421875 
z
" id="DejaVuSerif-48"/>
      </defs>
      <g transform="translate(54.345932 243.187188)scale(0.14 -0.14)">
       <use xlink:href="#DejaVuSerif-48"/>
      </g>
     </g>
    </g>
    <g id="xtick_2">
     <g id="line2d_2">
      <g>
       <use style="stroke:#000000;stroke-width:0.8;" x="114.74888" xlink:href="#m86102aad46" y="225.549375"/>
      </g>
     </g>
     <g id="text_2">
      <!-- 5 -->
      <defs>
       <path d="M 50.296875 72.90625 
L 50.296875 64.890625 
L 16.890625 64.890625 
L 16.890625 44 
Q 19.4375 45.75 22.828125 46.625 
Q 26.21875 47.515625 30.421875 47.515625 
Q 42.234375 47.515625 49.0625 40.96875 
Q 55.90625 34.421875 55.90625 23.09375 
Q 55.90625 11.53125 49 5.046875 
Q 42.09375 -1.421875 29.59375 -1.421875 
Q 24.5625 -1.421875 19.28125 -0.1875 
Q 14.015625 1.03125 8.5 3.515625 
L 8.5 17.671875 
L 14.015625 17.671875 
Q 14.453125 10.75 18.421875 7.078125 
Q 22.40625 3.421875 29.59375 3.421875 
Q 37.3125 3.421875 41.453125 8.5 
Q 45.609375 13.578125 45.609375 23.09375 
Q 45.609375 32.5625 41.484375 37.609375 
Q 37.359375 42.671875 29.59375 42.671875 
Q 25.203125 42.671875 21.84375 41.109375 
Q 18.5 39.546875 15.921875 36.28125 
L 11.71875 36.28125 
L 11.71875 72.90625 
z
" id="DejaVuSerif-53"/>
      </defs>
      <g transform="translate(110.29513 243.187188)scale(0.14 -0.14)">
       <use xlink:href="#DejaVuSerif-53"/>
      </g>
     </g>
    </g>
    <g id="xtick_3">
     <g id="line2d_3">
      <g>
       <use style="stroke:#000000;stroke-width:0.8;" x="170.698078" xlink:href="#m86102aad46" y="225.549375"/>
      </g>
     </g>
     <g id="text_3">
      <!-- 10 -->
      <defs>
       <path d="M 14.203125 0 
L 14.203125 5.171875 
L 26.90625 5.171875 
L 26.90625 65.828125 
L 12.203125 56.296875 
L 12.203125 62.703125 
L 29.984375 74.21875 
L 36.71875 74.21875 
L 36.71875 5.171875 
L 49.421875 5.171875 
L 49.421875 0 
z
" id="DejaVuSerif-49"/>
      </defs>
      <g transform="translate(161.790578 243.187188)scale(0.14 -0.14)">
       <use xlink:href="#DejaVuSerif-49"/>
       <use x="63.623047" xlink:href="#DejaVuSerif-48"/>
      </g>
     </g>
    </g>
    <g id="xtick_4">
     <g id="line2d_4">
      <g>
       <use style="stroke:#000000;stroke-width:0.8;" x="226.647276" xlink:href="#m86102aad46" y="225.549375"/>
      </g>
     </g>
     <g id="text_4">
      <!-- 15 -->
      <g transform="translate(217.739776 243.187188)scale(0.14 -0.14)">
       <use xlink:href="#DejaVuSerif-49"/>
       <use x="63.623047" xlink:href="#DejaVuSerif-53"/>
      </g>
     </g>
    </g>
    <g id="xtick_5">
     <g id="line2d_5">
      <g>
       <use style="stroke:#000000;stroke-width:0.8;" x="282.596474" xlink:href="#m86102aad46" y="225.549375"/>
      </g>
     </g>
     <g id="text_5">
      <!-- 20 -->
      <defs>
       <path d="M 12.796875 55.515625 
L 7.328125 55.515625 
L 7.328125 68.5 
Q 12.546875 71.296875 17.84375 72.75 
Q 23.140625 74.21875 28.21875 74.21875 
Q 39.59375 74.21875 46.1875 68.703125 
Q 52.78125 63.1875 52.78125 53.71875 
Q 52.78125 43.015625 37.84375 28.125 
Q 36.671875 27 36.078125 26.421875 
L 17.671875 8.015625 
L 48.09375 8.015625 
L 48.09375 17 
L 53.8125 17 
L 53.8125 0 
L 6.78125 0 
L 6.78125 5.328125 
L 28.90625 27.390625 
Q 36.234375 34.71875 39.359375 40.84375 
Q 42.484375 46.96875 42.484375 53.71875 
Q 42.484375 61.078125 38.640625 65.234375 
Q 34.8125 69.390625 28.078125 69.390625 
Q 21.09375 69.390625 17.28125 65.921875 
Q 13.484375 62.453125 12.796875 55.515625 
z
" id="DejaVuSerif-50"/>
      </defs>
      <g transform="translate(273.688974 243.187188)scale(0.14 -0.14)">
       <use xlink:href="#DejaVuSerif-50"/>
       <use x="63.623047" xlink:href="#DejaVuSerif-48"/>
      </g>
     </g>
    </g>
    <g id="xtick_6">
     <g id="line2d_6">
      <g>
       <use style="stroke:#000000;stroke-width:0.8;" x="338.545672" xlink:href="#m86102aad46" y="225.549375"/>
      </g>
     </g>
     <g id="text_6">
      <!-- 25 -->
      <g transform="translate(329.638172 243.187188)scale(0.14 -0.14)">
       <use xlink:href="#DejaVuSerif-50"/>
       <use x="63.623047" xlink:href="#DejaVuSerif-53"/>
      </g>
     </g>
    </g>
   </g>
   <g id="matplotlib.axis_2">
    <g id="ytick_1">
     <g id="line2d_7">
      <defs>
       <path d="M 0 0 
L -3.5 0 
" id="m55624fdd1c" style="stroke:#000000;stroke-width:0.8;"/>
      </defs>
      <g>
       <use style="stroke:#000000;stroke-width:0.8;" x="45.371875" xlink:href="#m55624fdd1c" y="190.710752"/>
      </g>
     </g>
     <g id="text_7">
      <!-- 0.04 -->
      <defs>
       <path d="M 9.421875 5.078125 
Q 9.421875 7.8125 11.28125 9.71875 
Q 13.140625 11.625 15.921875 11.625 
Q 18.609375 11.625 20.5 9.71875 
Q 22.40625 7.8125 22.40625 5.078125 
Q 22.40625 2.390625 20.5 0.484375 
Q 18.609375 -1.421875 15.921875 -1.421875 
Q 13.140625 -1.421875 11.28125 0.453125 
Q 9.421875 2.34375 9.421875 5.078125 
z
" id="DejaVuSerif-46"/>
       <path d="M 34.90625 24.703125 
L 34.90625 63.484375 
L 10.015625 24.703125 
z
M 56.390625 0 
L 23.1875 0 
L 23.1875 5.171875 
L 34.90625 5.171875 
L 34.90625 19.484375 
L 3.078125 19.484375 
L 3.078125 24.8125 
L 35.015625 74.21875 
L 44.671875 74.21875 
L 44.671875 24.703125 
L 58.59375 24.703125 
L 58.59375 19.484375 
L 44.671875 19.484375 
L 44.671875 5.171875 
L 56.390625 5.171875 
z
" id="DejaVuSerif-52"/>
      </defs>
      <g transform="translate(7.2 196.029658)scale(0.14 -0.14)">
       <use xlink:href="#DejaVuSerif-48"/>
       <use x="63.623047" xlink:href="#DejaVuSerif-46"/>
       <use x="95.410156" xlink:href="#DejaVuSerif-48"/>
       <use x="159.033203" xlink:href="#DejaVuSerif-52"/>
      </g>
     </g>
    </g>
    <g id="ytick_2">
     <g id="line2d_8">
      <g>
       <use style="stroke:#000000;stroke-width:0.8;" x="45.371875" xlink:href="#m55624fdd1c" y="153.108303"/>
      </g>
     </g>
     <g id="text_8">
      <!-- 0.05 -->
      <g transform="translate(7.2 158.42721)scale(0.14 -0.14)">
       <use xlink:href="#DejaVuSerif-48"/>
       <use x="63.623047" xlink:href="#DejaVuSerif-46"/>
       <use x="95.410156" xlink:href="#DejaVuSerif-48"/>
       <use x="159.033203" xlink:href="#DejaVuSerif-53"/>
      </g>
     </g>
    </g>
    <g id="ytick_3">
     <g id="line2d_9">
      <g>
       <use style="stroke:#000000;stroke-width:0.8;" x="45.371875" xlink:href="#m55624fdd1c" y="115.505855"/>
      </g>
     </g>
     <g id="text_9">
      <!-- 0.06 -->
      <defs>
       <path d="M 32.71875 3.421875 
Q 39.59375 3.421875 43.296875 8.46875 
Q 47.015625 13.53125 47.015625 23 
Q 47.015625 32.46875 43.296875 37.515625 
Q 39.59375 42.578125 32.71875 42.578125 
Q 25.734375 42.578125 22.0625 37.6875 
Q 18.40625 32.8125 18.40625 23.578125 
Q 18.40625 13.875 22.109375 8.640625 
Q 25.828125 3.421875 32.71875 3.421875 
z
M 16.796875 40.140625 
Q 20.125 43.796875 24.3125 45.59375 
Q 28.515625 47.40625 33.796875 47.40625 
Q 44.671875 47.40625 51 40.859375 
Q 57.328125 34.328125 57.328125 23 
Q 57.328125 11.921875 50.515625 5.25 
Q 43.703125 -1.421875 32.328125 -1.421875 
Q 19.96875 -1.421875 13.328125 7.78125 
Q 6.6875 17 6.6875 34.078125 
Q 6.6875 53.21875 14.546875 63.71875 
Q 22.40625 74.21875 36.71875 74.21875 
Q 40.578125 74.21875 44.828125 73.484375 
Q 49.078125 72.75 53.515625 71.296875 
L 53.515625 59.28125 
L 48 59.28125 
Q 47.40625 64.203125 44.234375 66.796875 
Q 41.0625 69.390625 35.6875 69.390625 
Q 26.21875 69.390625 21.578125 62.203125 
Q 16.9375 55.03125 16.796875 40.140625 
z
" id="DejaVuSerif-54"/>
      </defs>
      <g transform="translate(7.2 120.824761)scale(0.14 -0.14)">
       <use xlink:href="#DejaVuSerif-48"/>
       <use x="63.623047" xlink:href="#DejaVuSerif-46"/>
       <use x="95.410156" xlink:href="#DejaVuSerif-48"/>
       <use x="159.033203" xlink:href="#DejaVuSerif-54"/>
      </g>
     </g>
    </g>
    <g id="ytick_4">
     <g id="line2d_10">
      <g>
       <use style="stroke:#000000;stroke-width:0.8;" x="45.371875" xlink:href="#m55624fdd1c" y="77.903406"/>
      </g>
     </g>
     <g id="text_10">
      <!-- 0.07 -->
      <defs>
       <path d="M 56.390625 67.921875 
L 27.875 0 
L 20.609375 0 
L 47.796875 64.890625 
L 14.109375 64.890625 
L 14.109375 55.90625 
L 8.40625 55.90625 
L 8.40625 72.90625 
L 56.390625 72.90625 
z
" id="DejaVuSerif-55"/>
      </defs>
      <g transform="translate(7.2 83.222313)scale(0.14 -0.14)">
       <use xlink:href="#DejaVuSerif-48"/>
       <use x="63.623047" xlink:href="#DejaVuSerif-46"/>
       <use x="95.410156" xlink:href="#DejaVuSerif-48"/>
       <use x="159.033203" xlink:href="#DejaVuSerif-55"/>
      </g>
     </g>
    </g>
    <g id="ytick_5">
     <g id="line2d_11">
      <g>
       <use style="stroke:#000000;stroke-width:0.8;" x="45.371875" xlink:href="#m55624fdd1c" y="40.300958"/>
      </g>
     </g>
     <g id="text_11">
      <!-- 0.08 -->
      <defs>
       <path d="M 46.578125 19.921875 
Q 46.578125 27.734375 42.6875 32.046875 
Q 38.8125 36.375 31.78125 36.375 
Q 24.75 36.375 20.875 32.046875 
Q 17 27.734375 17 19.921875 
Q 17 12.0625 20.875 7.734375 
Q 24.75 3.421875 31.78125 3.421875 
Q 38.8125 3.421875 42.6875 7.734375 
Q 46.578125 12.0625 46.578125 19.921875 
z
M 44.578125 55.328125 
Q 44.578125 61.96875 41.203125 65.671875 
Q 37.84375 69.390625 31.78125 69.390625 
Q 25.78125 69.390625 22.390625 65.671875 
Q 19 61.96875 19 55.328125 
Q 19 48.640625 22.390625 44.921875 
Q 25.78125 41.21875 31.78125 41.21875 
Q 37.84375 41.21875 41.203125 44.921875 
Q 44.578125 48.640625 44.578125 55.328125 
z
M 39.3125 38.8125 
Q 47.609375 37.703125 52.25 32.6875 
Q 56.890625 27.6875 56.890625 19.921875 
Q 56.890625 9.671875 50.390625 4.125 
Q 43.890625 -1.421875 31.78125 -1.421875 
Q 19.734375 -1.421875 13.203125 4.125 
Q 6.6875 9.671875 6.6875 19.921875 
Q 6.6875 27.6875 11.328125 32.6875 
Q 15.96875 37.703125 24.3125 38.8125 
Q 16.9375 40.140625 13 44.40625 
Q 9.078125 48.6875 9.078125 55.328125 
Q 9.078125 64.109375 15.125 69.15625 
Q 21.1875 74.21875 31.78125 74.21875 
Q 42.390625 74.21875 48.4375 69.15625 
Q 54.5 64.109375 54.5 55.328125 
Q 54.5 48.6875 50.5625 44.40625 
Q 46.625 40.140625 39.3125 38.8125 
z
" id="DejaVuSerif-56"/>
      </defs>
      <g transform="translate(7.2 45.619864)scale(0.14 -0.14)">
       <use xlink:href="#DejaVuSerif-48"/>
       <use x="63.623047" xlink:href="#DejaVuSerif-46"/>
       <use x="95.410156" xlink:href="#DejaVuSerif-48"/>
       <use x="159.033203" xlink:href="#DejaVuSerif-56"/>
      </g>
     </g>
    </g>
   </g>
   <g id="line2d_12">
    <path clip-path="url(#p3a1c975270)" d="M 58.799682 85.842049 
L 69.989522 85.590705 
L 81.179362 85.533837 
L 92.369201 85.67213 
L 103.559041 86.004456 
L 114.74888 86.44092 
L 125.93872 86.289176 
L 137.128559 86.338005 
L 148.318399 86.587578 
L 159.508239 87.03629 
L 170.698078 87.593841 
L 181.887918 87.567042 
L 193.077757 87.743042 
L 204.267597 88.120995 
L 215.457436 88.698271 
L 226.647276 89.384114 
L 237.837116 89.489193 
L 249.026955 89.794825 
L 260.216795 90.299251 
L 271.406634 90.999049 
L 282.596474 91.803379 
L 293.786314 92.026692 
L 304.976153 92.444238 
L 316.165993 93.05396 
L 327.355832 93.852513 
" style="fill:none;stroke:#1f77b4;stroke-linecap:square;stroke-width:1.5;"/>
   </g>
   <g id="line2d_13">
    <path clip-path="url(#p3a1c975270)" d="M 58.799682 35.786775 
L 69.989522 35.175157 
L 81.179362 35.037375 
L 92.369201 35.372816 
L 103.559041 36.176696 
L 114.74888 37.213069 
L 125.93872 36.669222 
L 137.128559 36.599658 
L 148.318399 37.004101 
L 159.508239 37.878713 
L 170.698078 38.988996 
L 181.887918 38.51911 
L 193.077757 38.520649 
L 204.267597 38.992665 
L 215.457436 39.930753 
L 226.647276 41.101367 
L 237.837116 40.699441 
L 249.026955 40.763476 
L 260.216795 41.292595 
L 271.406634 42.282977 
L 282.596474 43.502932 
L 293.786314 43.151911 
L 304.976153 43.259967 
L 316.165993 43.82842 
L 327.355832 44.857253 
" style="fill:none;stroke:#ff7f0e;stroke-linecap:square;stroke-width:1.5;"/>
   </g>
   <g id="line2d_14">
    <path clip-path="url(#p3a1c975270)" d="M 58.799682 215.867158 
L 69.989522 215.622669 
L 81.179362 215.533783 
L 92.369201 215.600589 
L 103.559041 215.821822 
L 114.74888 216.116025 
L 125.93872 215.853464 
L 137.128559 215.747633 
L 148.318399 215.798882 
L 159.508239 216.006384 
L 170.698078 216.288989 
L 181.887918 216.013766 
L 193.077757 215.895852 
L 204.267597 215.935588 
L 215.457436 216.132175 
L 226.647276 216.404536 
L 237.837116 216.119653 
L 249.026955 215.992389 
L 260.216795 216.023288 
L 271.406634 216.211897 
L 282.596474 216.477375 
L 293.786314 216.184187 
L 304.976153 216.049054 
L 316.165993 216.073285 
L 327.355832 216.257641 
" style="fill:none;stroke:#2ca02c;stroke-linecap:square;stroke-width:1.5;"/>
   </g>
   <g id="line2d_15">
    <path clip-path="url(#p3a1c975270)" d="M 58.799682 37.997109 
L 69.989522 38.174419 
L 81.179362 38.518635 
L 92.369201 39.028935 
L 103.559041 39.703463 
L 114.74888 40.466304 
L 125.93872 40.735015 
L 137.128559 41.169799 
L 148.318399 41.76923 
L 159.508239 42.53093 
L 170.698078 43.379012 
L 181.887918 43.733863 
L 193.077757 44.25032 
L 204.267597 44.926162 
L 215.457436 45.758255 
L 226.647276 46.670774 
L 237.837116 47.089712 
L 249.026955 47.662343 
L 260.216795 48.38591 
L 271.406634 49.25689 
L 282.596474 50.199921 
L 293.786314 50.646035 
L 304.976153 51.235651 
L 316.165993 51.966093 
L 327.355832 52.834284 
" style="fill:none;stroke:#d62728;stroke-linecap:square;stroke-width:1.5;"/>
   </g>
   <g id="patch_3">
    <path d="M 45.371875 225.549375 
L 45.371875 25.965375 
" style="fill:none;stroke:#000000;stroke-linecap:square;stroke-linejoin:miter;stroke-width:0.8;"/>
   </g>
   <g id="patch_4">
    <path d="M 340.78364 225.549375 
L 340.78364 25.965375 
" style="fill:none;stroke:#000000;stroke-linecap:square;stroke-linejoin:miter;stroke-width:0.8;"/>
   </g>
   <g id="patch_5">
    <path d="M 45.371875 225.549375 
L 340.78364 225.549375 
" style="fill:none;stroke:#000000;stroke-linecap:square;stroke-linejoin:miter;stroke-width:0.8;"/>
   </g>
   <g id="patch_6">
    <path d="M 45.371875 25.965375 
L 340.78364 25.965375 
" style="fill:none;stroke:#000000;stroke-linecap:square;stroke-linejoin:miter;stroke-width:0.8;"/>
   </g>
   <g id="text_12">
    <!-- $\alpha$ = 0.5, $\tau$ = 0.125 -->
    <defs>
     <path d="M 20.125 -1.125 
Q 15.375 -1.125 11.6875 1.125 
Q 8.015625 3.375 6 7.171875 
Q 4 10.984375 4 15.828125 
Q 4 22.609375 7.78125 29.25 
Q 11.578125 35.890625 17.84375 40.03125 
Q 24.125 44.1875 31 44.1875 
Q 36.078125 44.1875 39.9375 41.53125 
Q 43.796875 38.875 45.796875 34.453125 
Q 47.796875 30.03125 47.796875 25 
L 47.90625 18.3125 
Q 51.3125 23.046875 53.6875 28.140625 
Q 56.0625 33.25 57.328125 38.71875 
Q 57.515625 39.3125 58.109375 39.3125 
L 59.28125 39.3125 
Q 60.203125 39.3125 60.203125 38.375 
Q 60.203125 38.28125 60.109375 38.09375 
Q 58.9375 33.5 57.171875 29.265625 
Q 55.421875 25.046875 53.046875 21.09375 
Q 50.6875 17.140625 47.90625 13.921875 
Q 47.90625 1.515625 50.78125 1.515625 
Q 52.640625 1.515625 53.828125 2.609375 
Q 55.03125 3.71875 55.9375 5.328125 
Q 56.84375 6.9375 57.078125 6.984375 
L 58.296875 6.984375 
Q 59.078125 6.984375 59.078125 6 
Q 59.078125 3.515625 56.21875 1.1875 
Q 53.375 -1.125 50.59375 -1.125 
Q 46.96875 -1.125 44.578125 1.21875 
Q 42.1875 3.5625 41.3125 7.328125 
Q 36.625 3.328125 31.15625 1.09375 
Q 25.6875 -1.125 20.125 -1.125 
z
M 20.3125 1.515625 
Q 31 1.515625 40.828125 10.296875 
Q 40.765625 10.890625 40.671875 11.734375 
Q 40.578125 12.59375 40.578125 12.703125 
L 40.578125 23.484375 
Q 40.578125 41.609375 30.8125 41.609375 
Q 24.953125 41.609375 20.546875 36.59375 
Q 16.15625 31.59375 13.9375 24.625 
Q 11.71875 17.671875 11.71875 11.921875 
Q 11.71875 7.5625 13.9375 4.53125 
Q 16.15625 1.515625 20.3125 1.515625 
z
" id="Cmmi10-174"/>
     <path id="DejaVuSerif-32"/>
     <path d="M 10.59375 45.21875 
L 73.1875 45.21875 
L 73.1875 37.40625 
L 10.59375 37.40625 
z
M 10.59375 25.296875 
L 73.1875 25.296875 
L 73.1875 17.484375 
L 10.59375 17.484375 
z
" id="DejaVuSerif-61"/>
     <path d="M 3.609375 -9.71875 
Q 8.203125 -6.34375 10.34375 -1.78125 
Q 12.5 2.78125 12.5 9.28125 
L 12.5 11.078125 
L 22.125 11.078125 
Q 21.734375 2.734375 18.1875 -3.25 
Q 14.65625 -9.234375 7.515625 -13.625 
z
" id="DejaVuSerif-44"/>
     <path d="M 15.578125 1.515625 
Q 15.578125 2.203125 15.71875 2.59375 
L 26.21875 36.921875 
L 17.1875 36.921875 
Q 13.53125 36.921875 10.34375 34.625 
Q 7.171875 32.328125 5.078125 28.8125 
Q 4.890625 28.421875 4.5 28.421875 
L 3.328125 28.421875 
Q 2.390625 28.421875 2.390625 29.390625 
Q 2.390625 29.59375 2.59375 29.984375 
Q 5.859375 35.546875 9.59375 39.328125 
Q 13.328125 43.109375 18.015625 43.109375 
L 48.6875 43.109375 
Q 49.75 43.109375 50.484375 42.375 
Q 51.21875 41.65625 51.21875 40.578125 
Q 51.21875 39.109375 50.171875 38.015625 
Q 49.125 36.921875 47.609375 36.921875 
L 29.5 36.921875 
L 22.796875 2.390625 
Q 22.40625 0.78125 21.328125 -0.265625 
Q 20.265625 -1.3125 18.609375 -1.3125 
Q 17.328125 -1.3125 16.453125 -0.5 
Q 15.578125 0.296875 15.578125 1.515625 
z
" id="Cmmi10-191"/>
    </defs>
    <g transform="translate(116.469757 19.965375)scale(0.168 -0.168)">
     <use transform="translate(0 0.78125)" xlink:href="#Cmmi10-174"/>
     <use transform="translate(63.916016 0.78125)" xlink:href="#DejaVuSerif-32"/>
     <use transform="translate(95.703125 0.78125)" xlink:href="#DejaVuSerif-61"/>
     <use transform="translate(179.492188 0.78125)" xlink:href="#DejaVuSerif-32"/>
     <use transform="translate(211.279297 0.78125)" xlink:href="#DejaVuSerif-48"/>
     <use transform="translate(274.902344 0.78125)" xlink:href="#DejaVuSerif-46"/>
     <use transform="translate(306.689453 0.78125)" xlink:href="#DejaVuSerif-53"/>
     <use transform="translate(370.3125 0.78125)" xlink:href="#DejaVuSerif-44"/>
     <use transform="translate(402.099609 0.78125)" xlink:href="#DejaVuSerif-32"/>
     <use transform="translate(433.886719 0.78125)" xlink:href="#Cmmi10-191"/>
     <use transform="translate(477.587891 0.78125)" xlink:href="#DejaVuSerif-32"/>
     <use transform="translate(509.375 0.78125)" xlink:href="#DejaVuSerif-61"/>
     <use transform="translate(593.164062 0.78125)" xlink:href="#DejaVuSerif-32"/>
     <use transform="translate(624.951172 0.78125)" xlink:href="#DejaVuSerif-48"/>
     <use transform="translate(688.574219 0.78125)" xlink:href="#DejaVuSerif-46"/>
     <use transform="translate(720.361328 0.78125)" xlink:href="#DejaVuSerif-49"/>
     <use transform="translate(783.984375 0.78125)" xlink:href="#DejaVuSerif-50"/>
     <use transform="translate(847.607422 0.78125)" xlink:href="#DejaVuSerif-53"/>
    </g>
   </g>
  </g>
  <g id="axes_2">
   <g id="patch_7">
    <path d="M 399.865993 225.549375 
L 695.277757 225.549375 
L 695.277757 25.965375 
L 399.865993 25.965375 
z
" style="fill:#ffffff;"/>
   </g>
   <g id="matplotlib.axis_3">
    <g id="xtick_7">
     <g id="line2d_16">
      <g>
       <use style="stroke:#000000;stroke-width:0.8;" x="413.2938" xlink:href="#m86102aad46" y="225.549375"/>
      </g>
     </g>
     <g id="text_13">
      <!-- 0 -->
      <g transform="translate(408.84005 243.187188)scale(0.14 -0.14)">
       <use xlink:href="#DejaVuSerif-48"/>
      </g>
     </g>
    </g>
    <g id="xtick_8">
     <g id="line2d_17">
      <g>
       <use style="stroke:#000000;stroke-width:0.8;" x="469.242998" xlink:href="#m86102aad46" y="225.549375"/>
      </g>
     </g>
     <g id="text_14">
      <!-- 5 -->
      <g transform="translate(464.789248 243.187188)scale(0.14 -0.14)">
       <use xlink:href="#DejaVuSerif-53"/>
      </g>
     </g>
    </g>
    <g id="xtick_9">
     <g id="line2d_18">
      <g>
       <use style="stroke:#000000;stroke-width:0.8;" x="525.192196" xlink:href="#m86102aad46" y="225.549375"/>
      </g>
     </g>
     <g id="text_15">
      <!-- 10 -->
      <g transform="translate(516.284696 243.187188)scale(0.14 -0.14)">
       <use xlink:href="#DejaVuSerif-49"/>
       <use x="63.623047" xlink:href="#DejaVuSerif-48"/>
      </g>
     </g>
    </g>
    <g id="xtick_10">
     <g id="line2d_19">
      <g>
       <use style="stroke:#000000;stroke-width:0.8;" x="581.141394" xlink:href="#m86102aad46" y="225.549375"/>
      </g>
     </g>
     <g id="text_16">
      <!-- 15 -->
      <g transform="translate(572.233894 243.187188)scale(0.14 -0.14)">
       <use xlink:href="#DejaVuSerif-49"/>
       <use x="63.623047" xlink:href="#DejaVuSerif-53"/>
      </g>
     </g>
    </g>
    <g id="xtick_11">
     <g id="line2d_20">
      <g>
       <use style="stroke:#000000;stroke-width:0.8;" x="637.090592" xlink:href="#m86102aad46" y="225.549375"/>
      </g>
     </g>
     <g id="text_17">
      <!-- 20 -->
      <g transform="translate(628.183092 243.187188)scale(0.14 -0.14)">
       <use xlink:href="#DejaVuSerif-50"/>
       <use x="63.623047" xlink:href="#DejaVuSerif-48"/>
      </g>
     </g>
    </g>
    <g id="xtick_12">
     <g id="line2d_21">
      <g>
       <use style="stroke:#000000;stroke-width:0.8;" x="693.039789" xlink:href="#m86102aad46" y="225.549375"/>
      </g>
     </g>
     <g id="text_18">
      <!-- 25 -->
      <g transform="translate(684.132289 243.187188)scale(0.14 -0.14)">
       <use xlink:href="#DejaVuSerif-50"/>
       <use x="63.623047" xlink:href="#DejaVuSerif-53"/>
      </g>
     </g>
    </g>
   </g>
   <g id="matplotlib.axis_4">
    <g id="ytick_6">
     <g id="line2d_22">
      <g>
       <use style="stroke:#000000;stroke-width:0.8;" x="399.865993" xlink:href="#m55624fdd1c" y="206.715493"/>
      </g>
     </g>
     <g id="text_19">
      <!-- −0.05 -->
      <defs>
       <path d="M 10.59375 35.296875 
L 73.1875 35.296875 
L 73.1875 27.390625 
L 10.59375 27.390625 
z
" id="DejaVuSerif-8722"/>
      </defs>
      <g transform="translate(349.962555 212.034399)scale(0.14 -0.14)">
       <use xlink:href="#DejaVuSerif-8722"/>
       <use x="83.789062" xlink:href="#DejaVuSerif-48"/>
       <use x="147.412109" xlink:href="#DejaVuSerif-46"/>
       <use x="179.199219" xlink:href="#DejaVuSerif-48"/>
       <use x="242.822266" xlink:href="#DejaVuSerif-53"/>
      </g>
     </g>
    </g>
    <g id="ytick_7">
     <g id="line2d_23">
      <g>
       <use style="stroke:#000000;stroke-width:0.8;" x="399.865993" xlink:href="#m55624fdd1c" y="175.759323"/>
      </g>
     </g>
     <g id="text_20">
      <!-- −0.04 -->
      <g transform="translate(349.962555 181.078229)scale(0.14 -0.14)">
       <use xlink:href="#DejaVuSerif-8722"/>
       <use x="83.789062" xlink:href="#DejaVuSerif-48"/>
       <use x="147.412109" xlink:href="#DejaVuSerif-46"/>
       <use x="179.199219" xlink:href="#DejaVuSerif-48"/>
       <use x="242.822266" xlink:href="#DejaVuSerif-52"/>
      </g>
     </g>
    </g>
    <g id="ytick_8">
     <g id="line2d_24">
      <g>
       <use style="stroke:#000000;stroke-width:0.8;" x="399.865993" xlink:href="#m55624fdd1c" y="144.803153"/>
      </g>
     </g>
     <g id="text_21">
      <!-- −0.03 -->
      <defs>
       <path d="M 9.71875 69.828125 
Q 15.4375 71.96875 20.671875 73.09375 
Q 25.921875 74.21875 30.515625 74.21875 
Q 41.21875 74.21875 47.21875 69.59375 
Q 53.21875 64.984375 53.21875 56.78125 
Q 53.21875 50.203125 49.0625 45.78125 
Q 44.921875 41.359375 37.3125 39.796875 
Q 46.296875 38.53125 51.25 33.28125 
Q 56.203125 28.03125 56.203125 19.671875 
Q 56.203125 9.46875 49.34375 4.015625 
Q 42.484375 -1.421875 29.59375 -1.421875 
Q 23.875 -1.421875 18.421875 -0.1875 
Q 12.984375 1.03125 7.625 3.515625 
L 7.625 17.671875 
L 13.09375 17.671875 
Q 13.578125 10.640625 17.828125 7.03125 
Q 22.078125 3.421875 29.78125 3.421875 
Q 37.25 3.421875 41.578125 7.734375 
Q 45.90625 12.0625 45.90625 19.578125 
Q 45.90625 28.171875 41.453125 32.59375 
Q 37.015625 37.015625 28.421875 37.015625 
L 23.78125 37.015625 
L 23.78125 42 
L 26.21875 42 
Q 34.765625 42 39.03125 45.53125 
Q 43.3125 49.078125 43.3125 56.203125 
Q 43.3125 62.59375 39.796875 65.984375 
Q 36.28125 69.390625 29.6875 69.390625 
Q 23.09375 69.390625 19.453125 66.265625 
Q 15.828125 63.140625 15.1875 56.984375 
L 9.71875 56.984375 
z
" id="DejaVuSerif-51"/>
      </defs>
      <g transform="translate(349.962555 150.122059)scale(0.14 -0.14)">
       <use xlink:href="#DejaVuSerif-8722"/>
       <use x="83.789062" xlink:href="#DejaVuSerif-48"/>
       <use x="147.412109" xlink:href="#DejaVuSerif-46"/>
       <use x="179.199219" xlink:href="#DejaVuSerif-48"/>
       <use x="242.822266" xlink:href="#DejaVuSerif-51"/>
      </g>
     </g>
    </g>
    <g id="ytick_9">
     <g id="line2d_25">
      <g>
       <use style="stroke:#000000;stroke-width:0.8;" x="399.865993" xlink:href="#m55624fdd1c" y="113.846983"/>
      </g>
     </g>
     <g id="text_22">
      <!-- −0.02 -->
      <g transform="translate(349.962555 119.16589)scale(0.14 -0.14)">
       <use xlink:href="#DejaVuSerif-8722"/>
       <use x="83.789062" xlink:href="#DejaVuSerif-48"/>
       <use x="147.412109" xlink:href="#DejaVuSerif-46"/>
       <use x="179.199219" xlink:href="#DejaVuSerif-48"/>
       <use x="242.822266" xlink:href="#DejaVuSerif-50"/>
      </g>
     </g>
    </g>
    <g id="ytick_10">
     <g id="line2d_26">
      <g>
       <use style="stroke:#000000;stroke-width:0.8;" x="399.865993" xlink:href="#m55624fdd1c" y="82.890813"/>
      </g>
     </g>
     <g id="text_23">
      <!-- −0.01 -->
      <g transform="translate(349.962555 88.20972)scale(0.14 -0.14)">
       <use xlink:href="#DejaVuSerif-8722"/>
       <use x="83.789062" xlink:href="#DejaVuSerif-48"/>
       <use x="147.412109" xlink:href="#DejaVuSerif-46"/>
       <use x="179.199219" xlink:href="#DejaVuSerif-48"/>
       <use x="242.822266" xlink:href="#DejaVuSerif-49"/>
      </g>
     </g>
    </g>
    <g id="ytick_11">
     <g id="line2d_27">
      <g>
       <use style="stroke:#000000;stroke-width:0.8;" x="399.865993" xlink:href="#m55624fdd1c" y="51.934644"/>
      </g>
     </g>
     <g id="text_24">
      <!-- 0.00 -->
      <g transform="translate(361.694118 57.25355)scale(0.14 -0.14)">
       <use xlink:href="#DejaVuSerif-48"/>
       <use x="63.623047" xlink:href="#DejaVuSerif-46"/>
       <use x="95.410156" xlink:href="#DejaVuSerif-48"/>
       <use x="159.033203" xlink:href="#DejaVuSerif-48"/>
      </g>
     </g>
    </g>
   </g>
   <g id="line2d_28">
    <path clip-path="url(#pb8987c43dc)" d="M 413.2938 116.431741 
L 424.48364 89.356586 
L 435.673479 85.519552 
L 446.863319 110.178059 
L 458.053158 117.286573 
L 469.242998 107.681139 
L 480.432838 87.809009 
L 491.622677 61.072081 
L 502.812517 45.871118 
L 514.002356 41.391568 
L 525.192196 53.530836 
L 536.382035 74.535881 
L 547.571875 70.126592 
L 558.761715 57.091464 
L 569.951554 51.281968 
L 581.141394 53.633658 
L 592.331233 64.564824 
L 603.521073 63.970599 
L 614.710912 50.291719 
L 625.900752 42.173104 
L 637.090592 43.711317 
L 648.280431 53.579342 
L 659.470271 63.952806 
L 670.66011 62.403962 
L 681.84995 62.49414 
" style="fill:none;stroke:#1f77b4;stroke-linecap:square;stroke-width:1.5;"/>
   </g>
   <g id="line2d_29">
    <path clip-path="url(#pb8987c43dc)" d="M 413.2938 216.477375 
L 424.48364 175.557635 
L 435.673479 130.333562 
L 446.863319 119.269821 
L 458.053158 140.867212 
L 469.242998 163.889424 
L 480.432838 139.278333 
L 491.622677 91.321019 
L 502.812517 67.732774 
L 514.002356 67.482572 
L 525.192196 74.241035 
L 536.382035 63.265603 
L 547.571875 57.497137 
L 558.761715 50.462571 
L 569.951554 45.145453 
L 581.141394 43.89926 
L 592.331233 44.990294 
L 603.521073 50.371754 
L 614.710912 50.379827 
L 625.900752 48.231092 
L 637.090592 51.728583 
L 648.280431 56.194809 
L 659.470271 80.419105 
L 670.66011 104.457265 
L 681.84995 105.663679 
" style="fill:none;stroke:#ff7f0e;stroke-linecap:square;stroke-width:1.5;"/>
   </g>
   <g id="line2d_30">
    <path clip-path="url(#pb8987c43dc)" d="M 413.2938 109.505282 
L 424.48364 85.646362 
L 435.673479 67.994314 
L 446.863319 53.846081 
L 458.053158 46.896793 
L 469.242998 55.950741 
L 480.432838 76.029372 
L 491.622677 67.62671 
L 502.812517 43.593971 
L 514.002356 46.543565 
L 525.192196 73.497379 
L 536.382035 80.000082 
L 547.571875 57.184705 
L 558.761715 37.369666 
L 569.951554 36.255259 
L 581.141394 54.18308 
L 592.331233 63.120162 
L 603.521073 56.195876 
L 614.710912 45.110428 
L 625.900752 45.157521 
L 637.090592 53.287448 
L 648.280431 51.761176 
L 659.470271 57.444229 
L 670.66011 71.460483 
L 681.84995 78.826244 
" style="fill:none;stroke:#2ca02c;stroke-linecap:square;stroke-width:1.5;"/>
   </g>
   <g id="line2d_31">
    <path clip-path="url(#pb8987c43dc)" d="M 413.2938 126.240945 
L 424.48364 110.495369 
L 435.673479 104.160261 
L 446.863319 97.425079 
L 458.053158 87.780208 
L 469.242998 85.106569 
L 480.432838 68.516193 
L 491.622677 55.01823 
L 502.812517 61.280746 
L 514.002356 69.230438 
L 525.192196 79.444254 
L 536.382035 96.932191 
L 547.571875 83.61138 
L 558.761715 47.29247 
L 569.951554 35.037375 
L 581.141394 58.036097 
L 592.331233 76.289569 
L 603.521073 70.160528 
L 614.710912 56.436133 
L 625.900752 53.344549 
L 637.090592 60.159144 
L 648.280431 70.687567 
L 659.470271 78.864436 
L 670.66011 80.121682 
L 681.84995 78.047788 
" style="fill:none;stroke:#d62728;stroke-linecap:square;stroke-width:1.5;"/>
   </g>
   <g id="patch_8">
    <path d="M 399.865993 225.549375 
L 399.865993 25.965375 
" style="fill:none;stroke:#000000;stroke-linecap:square;stroke-linejoin:miter;stroke-width:0.8;"/>
   </g>
   <g id="patch_9">
    <path d="M 695.277757 225.549375 
L 695.277757 25.965375 
" style="fill:none;stroke:#000000;stroke-linecap:square;stroke-linejoin:miter;stroke-width:0.8;"/>
   </g>
   <g id="patch_10">
    <path d="M 399.865993 225.549375 
L 695.277757 225.549375 
" style="fill:none;stroke:#000000;stroke-linecap:square;stroke-linejoin:miter;stroke-width:0.8;"/>
   </g>
   <g id="patch_11">
    <path d="M 399.865993 25.965375 
L 695.277757 25.965375 
" style="fill:none;stroke:#000000;stroke-linecap:square;stroke-linejoin:miter;stroke-width:0.8;"/>
   </g>
   <g id="text_25">
    <!-- $\alpha$ = 0.5, $\tau$ = 2.0 -->
    <g transform="translate(481.715875 19.965375)scale(0.168 -0.168)">
     <use transform="translate(0 0.78125)" xlink:href="#Cmmi10-174"/>
     <use transform="translate(63.916016 0.78125)" xlink:href="#DejaVuSerif-32"/>
     <use transform="translate(95.703125 0.78125)" xlink:href="#DejaVuSerif-61"/>
     <use transform="translate(179.492188 0.78125)" xlink:href="#DejaVuSerif-32"/>
     <use transform="translate(211.279297 0.78125)" xlink:href="#DejaVuSerif-48"/>
     <use transform="translate(274.902344 0.78125)" xlink:href="#DejaVuSerif-46"/>
     <use transform="translate(306.689453 0.78125)" xlink:href="#DejaVuSerif-53"/>
     <use transform="translate(370.3125 0.78125)" xlink:href="#DejaVuSerif-44"/>
     <use transform="translate(402.099609 0.78125)" xlink:href="#DejaVuSerif-32"/>
     <use transform="translate(433.886719 0.78125)" xlink:href="#Cmmi10-191"/>
     <use transform="translate(477.587891 0.78125)" xlink:href="#DejaVuSerif-32"/>
     <use transform="translate(509.375 0.78125)" xlink:href="#DejaVuSerif-61"/>
     <use transform="translate(593.164062 0.78125)" xlink:href="#DejaVuSerif-32"/>
     <use transform="translate(624.951172 0.78125)" xlink:href="#DejaVuSerif-50"/>
     <use transform="translate(688.574219 0.78125)" xlink:href="#DejaVuSerif-46"/>
     <use transform="translate(720.361328 0.78125)" xlink:href="#DejaVuSerif-48"/>
    </g>
   </g>
  </g>
  <g id="axes_3">
   <g id="patch_12">
    <path d="M 754.36011 225.549375 
L 1049.771875 225.549375 
L 1049.771875 25.965375 
L 754.36011 25.965375 
z
" style="fill:#ffffff;"/>
   </g>
   <g id="matplotlib.axis_5">
    <g id="xtick_13">
     <g id="line2d_32">
      <g>
       <use style="stroke:#000000;stroke-width:0.8;" x="767.787918" xlink:href="#m86102aad46" y="225.549375"/>
      </g>
     </g>
     <g id="text_26">
      <!-- 0 -->
      <g transform="translate(763.334168 243.187188)scale(0.14 -0.14)">
       <use xlink:href="#DejaVuSerif-48"/>
      </g>
     </g>
    </g>
    <g id="xtick_14">
     <g id="line2d_33">
      <g>
       <use style="stroke:#000000;stroke-width:0.8;" x="823.737116" xlink:href="#m86102aad46" y="225.549375"/>
      </g>
     </g>
     <g id="text_27">
      <!-- 5 -->
      <g transform="translate(819.283366 243.187188)scale(0.14 -0.14)">
       <use xlink:href="#DejaVuSerif-53"/>
      </g>
     </g>
    </g>
    <g id="xtick_15">
     <g id="line2d_34">
      <g>
       <use style="stroke:#000000;stroke-width:0.8;" x="879.686314" xlink:href="#m86102aad46" y="225.549375"/>
      </g>
     </g>
     <g id="text_28">
      <!-- 10 -->
      <g transform="translate(870.778814 243.187188)scale(0.14 -0.14)">
       <use xlink:href="#DejaVuSerif-49"/>
       <use x="63.623047" xlink:href="#DejaVuSerif-48"/>
      </g>
     </g>
    </g>
    <g id="xtick_16">
     <g id="line2d_35">
      <g>
       <use style="stroke:#000000;stroke-width:0.8;" x="935.635511" xlink:href="#m86102aad46" y="225.549375"/>
      </g>
     </g>
     <g id="text_29">
      <!-- 15 -->
      <g transform="translate(926.728011 243.187188)scale(0.14 -0.14)">
       <use xlink:href="#DejaVuSerif-49"/>
       <use x="63.623047" xlink:href="#DejaVuSerif-53"/>
      </g>
     </g>
    </g>
    <g id="xtick_17">
     <g id="line2d_36">
      <g>
       <use style="stroke:#000000;stroke-width:0.8;" x="991.584709" xlink:href="#m86102aad46" y="225.549375"/>
      </g>
     </g>
     <g id="text_30">
      <!-- 20 -->
      <g transform="translate(982.677209 243.187188)scale(0.14 -0.14)">
       <use xlink:href="#DejaVuSerif-50"/>
       <use x="63.623047" xlink:href="#DejaVuSerif-48"/>
      </g>
     </g>
    </g>
    <g id="xtick_18">
     <g id="line2d_37">
      <g>
       <use style="stroke:#000000;stroke-width:0.8;" x="1047.533907" xlink:href="#m86102aad46" y="225.549375"/>
      </g>
     </g>
     <g id="text_31">
      <!-- 25 -->
      <g transform="translate(1038.626407 243.187188)scale(0.14 -0.14)">
       <use xlink:href="#DejaVuSerif-50"/>
       <use x="63.623047" xlink:href="#DejaVuSerif-53"/>
      </g>
     </g>
    </g>
   </g>
   <g id="matplotlib.axis_6">
    <g id="ytick_12">
     <g id="line2d_38">
      <g>
       <use style="stroke:#000000;stroke-width:0.8;" x="754.36011" xlink:href="#m55624fdd1c" y="211.635537"/>
      </g>
     </g>
     <g id="text_32">
      <!-- −0.04 -->
      <g transform="translate(704.456673 216.954444)scale(0.14 -0.14)">
       <use xlink:href="#DejaVuSerif-8722"/>
       <use x="83.789062" xlink:href="#DejaVuSerif-48"/>
       <use x="147.412109" xlink:href="#DejaVuSerif-46"/>
       <use x="179.199219" xlink:href="#DejaVuSerif-48"/>
       <use x="242.822266" xlink:href="#DejaVuSerif-52"/>
      </g>
     </g>
    </g>
    <g id="ytick_13">
     <g id="line2d_39">
      <g>
       <use style="stroke:#000000;stroke-width:0.8;" x="754.36011" xlink:href="#m55624fdd1c" y="178.42918"/>
      </g>
     </g>
     <g id="text_33">
      <!-- −0.03 -->
      <g transform="translate(704.456673 183.748086)scale(0.14 -0.14)">
       <use xlink:href="#DejaVuSerif-8722"/>
       <use x="83.789062" xlink:href="#DejaVuSerif-48"/>
       <use x="147.412109" xlink:href="#DejaVuSerif-46"/>
       <use x="179.199219" xlink:href="#DejaVuSerif-48"/>
       <use x="242.822266" xlink:href="#DejaVuSerif-51"/>
      </g>
     </g>
    </g>
    <g id="ytick_14">
     <g id="line2d_40">
      <g>
       <use style="stroke:#000000;stroke-width:0.8;" x="754.36011" xlink:href="#m55624fdd1c" y="145.222822"/>
      </g>
     </g>
     <g id="text_34">
      <!-- −0.02 -->
      <g transform="translate(704.456673 150.541728)scale(0.14 -0.14)">
       <use xlink:href="#DejaVuSerif-8722"/>
       <use x="83.789062" xlink:href="#DejaVuSerif-48"/>
       <use x="147.412109" xlink:href="#DejaVuSerif-46"/>
       <use x="179.199219" xlink:href="#DejaVuSerif-48"/>
       <use x="242.822266" xlink:href="#DejaVuSerif-50"/>
      </g>
     </g>
    </g>
    <g id="ytick_15">
     <g id="line2d_41">
      <g>
       <use style="stroke:#000000;stroke-width:0.8;" x="754.36011" xlink:href="#m55624fdd1c" y="112.016464"/>
      </g>
     </g>
     <g id="text_35">
      <!-- −0.01 -->
      <g transform="translate(704.456673 117.335371)scale(0.14 -0.14)">
       <use xlink:href="#DejaVuSerif-8722"/>
       <use x="83.789062" xlink:href="#DejaVuSerif-48"/>
       <use x="147.412109" xlink:href="#DejaVuSerif-46"/>
       <use x="179.199219" xlink:href="#DejaVuSerif-48"/>
       <use x="242.822266" xlink:href="#DejaVuSerif-49"/>
      </g>
     </g>
    </g>
    <g id="ytick_16">
     <g id="line2d_42">
      <g>
       <use style="stroke:#000000;stroke-width:0.8;" x="754.36011" xlink:href="#m55624fdd1c" y="78.810107"/>
      </g>
     </g>
     <g id="text_36">
      <!-- 0.00 -->
      <g transform="translate(716.188235 84.129013)scale(0.14 -0.14)">
       <use xlink:href="#DejaVuSerif-48"/>
       <use x="63.623047" xlink:href="#DejaVuSerif-46"/>
       <use x="95.410156" xlink:href="#DejaVuSerif-48"/>
       <use x="159.033203" xlink:href="#DejaVuSerif-48"/>
      </g>
     </g>
    </g>
    <g id="ytick_17">
     <g id="line2d_43">
      <g>
       <use style="stroke:#000000;stroke-width:0.8;" x="754.36011" xlink:href="#m55624fdd1c" y="45.603749"/>
      </g>
     </g>
     <g id="text_37">
      <!-- 0.01 -->
      <g transform="translate(716.188235 50.922655)scale(0.14 -0.14)">
       <use xlink:href="#DejaVuSerif-48"/>
       <use x="63.623047" xlink:href="#DejaVuSerif-46"/>
       <use x="95.410156" xlink:href="#DejaVuSerif-48"/>
       <use x="159.033203" xlink:href="#DejaVuSerif-49"/>
      </g>
     </g>
    </g>
   </g>
   <g id="line2d_44">
    <path clip-path="url(#p9267909c39)" d="M 767.787918 123.533495 
L 778.977757 80.950019 
L 790.167597 84.173358 
L 801.357436 37.338898 
L 812.547276 90.983942 
L 823.737116 144.064027 
L 834.926955 82.227484 
L 846.116795 85.481376 
L 857.306634 100.807342 
L 868.496474 50.521817 
L 879.686314 85.777721 
L 890.876153 74.592758 
L 902.065993 76.554219 
L 913.255832 108.092858 
L 924.445672 92.861601 
L 935.635511 79.393426 
L 946.825351 77.89901 
L 958.015191 99.282807 
L 969.20503 90.820545 
L 980.39487 93.960106 
L 991.584709 67.998173 
L 1002.774549 82.396591 
L 1013.964388 107.863304 
L 1025.154228 105.701749 
L 1036.344068 90.207824 
" style="fill:none;stroke:#1f77b4;stroke-linecap:square;stroke-width:1.5;"/>
   </g>
   <g id="line2d_45">
    <path clip-path="url(#p9267909c39)" d="M 767.787918 145.918929 
L 778.977757 155.40924 
L 790.167597 140.587793 
L 801.357436 188.788758 
L 812.547276 127.181305 
L 823.737116 72.908369 
L 834.926955 90.321479 
L 846.116795 99.035609 
L 857.306634 136.127957 
L 868.496474 86.412995 
L 879.686314 101.131683 
L 890.876153 88.544703 
L 902.065993 81.941024 
L 913.255832 89.353788 
L 924.445672 90.777176 
L 935.635511 106.246327 
L 946.825351 88.372855 
L 958.015191 84.77264 
L 969.20503 80.565853 
L 980.39487 101.454769 
L 991.584709 110.149724 
L 1002.774549 95.964613 
L 1013.964388 160.211284 
L 1025.154228 109.414877 
L 1036.344068 132.906362 
" style="fill:none;stroke:#ff7f0e;stroke-linecap:square;stroke-width:1.5;"/>
   </g>
   <g id="line2d_46">
    <path clip-path="url(#p9267909c39)" d="M 767.787918 157.660775 
L 778.977757 91.697872 
L 790.167597 96.544903 
L 801.357436 36.117869 
L 812.547276 51.532831 
L 823.737116 146.985582 
L 834.926955 50.366549 
L 846.116795 91.144431 
L 857.306634 62.775225 
L 868.496474 81.481115 
L 879.686314 89.208992 
L 890.876153 73.209737 
L 902.065993 73.395505 
L 913.255832 47.873314 
L 924.445672 115.311684 
L 935.635511 56.389638 
L 946.825351 82.64673 
L 958.015191 98.120124 
L 969.20503 83.751624 
L 980.39487 83.437077 
L 991.584709 85.054352 
L 1002.774549 133.264468 
L 1013.964388 125.243688 
L 1025.154228 195.727361 
L 1036.344068 35.037375 
" style="fill:none;stroke:#2ca02c;stroke-linecap:square;stroke-width:1.5;"/>
   </g>
   <g id="line2d_47">
    <path clip-path="url(#p9267909c39)" d="M 767.787918 216.477375 
L 778.977757 145.757169 
L 790.167597 187.132117 
L 801.357436 124.475585 
L 812.547276 125.075815 
L 823.737116 62.366974 
L 834.926955 94.873797 
L 846.116795 117.569506 
L 857.306634 112.507232 
L 868.496474 86.895152 
L 879.686314 122.182834 
L 890.876153 74.932643 
L 902.065993 118.282688 
L 913.255832 68.96201 
L 924.445672 75.767293 
L 935.635511 93.475304 
L 946.825351 74.817496 
L 958.015191 82.057355 
L 969.20503 88.097643 
L 980.39487 87.394603 
L 991.584709 81.800257 
L 1002.774549 105.904447 
L 1013.964388 47.203986 
L 1025.154228 87.006083 
L 1036.344068 131.058065 
" style="fill:none;stroke:#d62728;stroke-linecap:square;stroke-width:1.5;"/>
   </g>
   <g id="patch_13">
    <path d="M 754.36011 225.549375 
L 754.36011 25.965375 
" style="fill:none;stroke:#000000;stroke-linecap:square;stroke-linejoin:miter;stroke-width:0.8;"/>
   </g>
   <g id="patch_14">
    <path d="M 1049.771875 225.549375 
L 1049.771875 25.965375 
" style="fill:none;stroke:#000000;stroke-linecap:square;stroke-linejoin:miter;stroke-width:0.8;"/>
   </g>
   <g id="patch_15">
    <path d="M 754.36011 225.549375 
L 1049.771875 225.549375 
" style="fill:none;stroke:#000000;stroke-linecap:square;stroke-linejoin:miter;stroke-width:0.8;"/>
   </g>
   <g id="patch_16">
    <path d="M 754.36011 25.965375 
L 1049.771875 25.965375 
" style="fill:none;stroke:#000000;stroke-linecap:square;stroke-linejoin:miter;stroke-width:0.8;"/>
   </g>
   <g id="text_38">
    <!-- $\alpha$ = 0.5, $\tau$ = 16.0 -->
    <g transform="translate(830.833993 19.965375)scale(0.168 -0.168)">
     <use transform="translate(0 0.78125)" xlink:href="#Cmmi10-174"/>
     <use transform="translate(63.916016 0.78125)" xlink:href="#DejaVuSerif-32"/>
     <use transform="translate(95.703125 0.78125)" xlink:href="#DejaVuSerif-61"/>
     <use transform="translate(179.492188 0.78125)" xlink:href="#DejaVuSerif-32"/>
     <use transform="translate(211.279297 0.78125)" xlink:href="#DejaVuSerif-48"/>
     <use transform="translate(274.902344 0.78125)" xlink:href="#DejaVuSerif-46"/>
     <use transform="translate(306.689453 0.78125)" xlink:href="#DejaVuSerif-53"/>
     <use transform="translate(370.3125 0.78125)" xlink:href="#DejaVuSerif-44"/>
     <use transform="translate(402.099609 0.78125)" xlink:href="#DejaVuSerif-32"/>
     <use transform="translate(433.886719 0.78125)" xlink:href="#Cmmi10-191"/>
     <use transform="translate(477.587891 0.78125)" xlink:href="#DejaVuSerif-32"/>
     <use transform="translate(509.375 0.78125)" xlink:href="#DejaVuSerif-61"/>
     <use transform="translate(593.164062 0.78125)" xlink:href="#DejaVuSerif-32"/>
     <use transform="translate(624.951172 0.78125)" xlink:href="#DejaVuSerif-49"/>
     <use transform="translate(688.574219 0.78125)" xlink:href="#DejaVuSerif-54"/>
     <use transform="translate(752.197266 0.78125)" xlink:href="#DejaVuSerif-46"/>
     <use transform="translate(783.984375 0.78125)" xlink:href="#DejaVuSerif-48"/>
    </g>
   </g>
  </g>
 </g>
 <defs>
  <clipPath id="p3a1c975270">
   <rect height="199.584" width="295.411765" x="45.371875" y="25.965375"/>
  </clipPath>
  <clipPath id="pb8987c43dc">
   <rect height="199.584" width="295.411765" x="399.865993" y="25.965375"/>
  </clipPath>
  <clipPath id="p9267909c39">
   <rect height="199.584" width="295.411765" x="754.36011" y="25.965375"/>
  </clipPath>
 </defs>
</svg>
