<?xml version="1.0" encoding="utf-8" standalone="no"?>
<!DOCTYPE svg PUBLIC "-//W3C//DTD SVG 1.1//EN"
  "http://www.w3.org/Graphics/SVG/1.1/DTD/svg11.dtd">
<!-- Created with matplotlib (https://matplotlib.org/) -->
<svg height="254.4025pt" version="1.1" viewBox="0 0 264.02 254.4025" width="264.02pt" xmlns="http://www.w3.org/2000/svg" xmlns:xlink="http://www.w3.org/1999/xlink">
 <defs>
  <style type="text/css">
*{stroke-linecap:butt;stroke-linejoin:round;}
  </style>
 </defs>
 <g id="figure_1">
  <g id="patch_1">
   <path d="M 0 254.4025 
L 264.02 254.4025 
L 264.02 0 
L 0 0 
z
" style="fill:#ffffff;"/>
  </g>
  <g id="axes_1">
   <g id="patch_2">
    <path d="M 30.12 232.46 
L 253.32 232.46 
L 253.32 10.7 
L 30.12 10.7 
z
" style="fill:#ffffff;"/>
   </g>
   <g id="matplotlib.axis_1">
    <g id="xtick_1">
     <g id="line2d_1">
      <path clip-path="url(#p3e679e3b71)" d="M 58.711736 232.46 
L 58.711736 10.7 
" style="fill:none;stroke:#b0b0b0;stroke-linecap:square;stroke-width:0.8;"/>
     </g>
     <g id="line2d_2">
      <defs>
       <path d="M 0 0 
L 0 3.5 
" id="m9638d6a16c" style="stroke:#000000;stroke-width:0.8;"/>
      </defs>
      <g>
       <use style="stroke:#000000;stroke-width:0.8;" x="58.711736" xlink:href="#m9638d6a16c" y="232.46"/>
      </g>
     </g>
     <g id="text_1">
      <!-- $\mathdefault{2^{-3}}$ -->
      <defs>
       <path d="M 12.796875 55.515625 
L 7.328125 55.515625 
L 7.328125 68.5 
Q 12.546875 71.296875 17.84375 72.75 
Q 23.140625 74.21875 28.21875 74.21875 
Q 39.59375 74.21875 46.1875 68.703125 
Q 52.78125 63.1875 52.78125 53.71875 
Q 52.78125 43.015625 37.84375 28.125 
Q 36.671875 27 36.078125 26.421875 
L 17.671875 8.015625 
L 48.09375 8.015625 
L 48.09375 17 
L 53.8125 17 
L 53.8125 0 
L 6.78125 0 
L 6.78125 5.328125 
L 28.90625 27.390625 
Q 36.234375 34.71875 39.359375 40.84375 
Q 42.484375 46.96875 42.484375 53.71875 
Q 42.484375 61.078125 38.640625 65.234375 
Q 34.8125 69.390625 28.078125 69.390625 
Q 21.09375 69.390625 17.28125 65.921875 
Q 13.484375 62.453125 12.796875 55.515625 
z
" id="DejaVuSerif-50"/>
       <path d="M 4.390625 30.609375 
L 29.390625 30.609375 
L 29.390625 23 
L 4.390625 23 
z
" id="DejaVuSerif-45"/>
       <path d="M 9.71875 69.828125 
Q 15.4375 71.96875 20.671875 73.09375 
Q 25.921875 74.21875 30.515625 74.21875 
Q 41.21875 74.21875 47.21875 69.59375 
Q 53.21875 64.984375 53.21875 56.78125 
Q 53.21875 50.203125 49.0625 45.78125 
Q 44.921875 41.359375 37.3125 39.796875 
Q 46.296875 38.53125 51.25 33.28125 
Q 56.203125 28.03125 56.203125 19.671875 
Q 56.203125 9.46875 49.34375 4.015625 
Q 42.484375 -1.421875 29.59375 -1.421875 
Q 23.875 -1.421875 18.421875 -0.1875 
Q 12.984375 1.03125 7.625 3.515625 
L 7.625 17.671875 
L 13.09375 17.671875 
Q 13.578125 10.640625 17.828125 7.03125 
Q 22.078125 3.421875 29.78125 3.421875 
Q 37.25 3.421875 41.578125 7.734375 
Q 45.90625 12.0625 45.90625 19.578125 
Q 45.90625 28.171875 41.453125 32.59375 
Q 37.015625 37.015625 28.421875 37.015625 
L 23.78125 37.015625 
L 23.78125 42 
L 26.21875 42 
Q 34.765625 42 39.03125 45.53125 
Q 43.3125 49.078125 43.3125 56.203125 
Q 43.3125 62.59375 39.796875 65.984375 
Q 36.28125 69.390625 29.6875 69.390625 
Q 23.09375 69.390625 19.453125 66.265625 
Q 15.828125 63.140625 15.1875 56.984375 
L 9.71875 56.984375 
z
" id="DejaVuSerif-51"/>
      </defs>
      <g transform="translate(53.271736 245.53875)scale(0.08 -0.08)">
       <use transform="translate(0 0.7125)" xlink:href="#DejaVuSerif-50"/>
       <use transform="translate(64.531406 37.046875)scale(0.7)" xlink:href="#DejaVuSerif-45"/>
       <use transform="translate(88.18375 37.046875)scale(0.7)" xlink:href="#DejaVuSerif-51"/>
      </g>
     </g>
    </g>
    <g id="xtick_2">
     <g id="line2d_3">
      <path clip-path="url(#p3e679e3b71)" d="M 95.604298 232.46 
L 95.604298 10.7 
" style="fill:none;stroke:#b0b0b0;stroke-linecap:square;stroke-width:0.8;"/>
     </g>
     <g id="line2d_4">
      <g>
       <use style="stroke:#000000;stroke-width:0.8;" x="95.604298" xlink:href="#m9638d6a16c" y="232.46"/>
      </g>
     </g>
     <g id="text_2">
      <!-- $\mathdefault{2^{-1}}$ -->
      <defs>
       <path d="M 14.203125 0 
L 14.203125 5.171875 
L 26.90625 5.171875 
L 26.90625 65.828125 
L 12.203125 56.296875 
L 12.203125 62.703125 
L 29.984375 74.21875 
L 36.71875 74.21875 
L 36.71875 5.171875 
L 49.421875 5.171875 
L 49.421875 0 
z
" id="DejaVuSerif-49"/>
      </defs>
      <g transform="translate(90.164298 245.53875)scale(0.08 -0.08)">
       <use transform="translate(0 0.7125)" xlink:href="#DejaVuSerif-50"/>
       <use transform="translate(64.531406 37.046875)scale(0.7)" xlink:href="#DejaVuSerif-45"/>
       <use transform="translate(88.18375 37.046875)scale(0.7)" xlink:href="#DejaVuSerif-49"/>
      </g>
     </g>
    </g>
    <g id="xtick_3">
     <g id="line2d_5">
      <path clip-path="url(#p3e679e3b71)" d="M 132.49686 232.46 
L 132.49686 10.7 
" style="fill:none;stroke:#b0b0b0;stroke-linecap:square;stroke-width:0.8;"/>
     </g>
     <g id="line2d_6">
      <g>
       <use style="stroke:#000000;stroke-width:0.8;" x="132.49686" xlink:href="#m9638d6a16c" y="232.46"/>
      </g>
     </g>
     <g id="text_3">
      <!-- $\mathdefault{2^{1}}$ -->
      <g transform="translate(128.01686 245.53875)scale(0.08 -0.08)">
       <use transform="translate(0 0.7125)" xlink:href="#DejaVuSerif-50"/>
       <use transform="translate(64.531406 37.046875)scale(0.7)" xlink:href="#DejaVuSerif-49"/>
      </g>
     </g>
    </g>
    <g id="xtick_4">
     <g id="line2d_7">
      <path clip-path="url(#p3e679e3b71)" d="M 169.389421 232.46 
L 169.389421 10.7 
" style="fill:none;stroke:#b0b0b0;stroke-linecap:square;stroke-width:0.8;"/>
     </g>
     <g id="line2d_8">
      <g>
       <use style="stroke:#000000;stroke-width:0.8;" x="169.389421" xlink:href="#m9638d6a16c" y="232.46"/>
      </g>
     </g>
     <g id="text_4">
      <!-- $\mathdefault{2^{3}}$ -->
      <g transform="translate(164.909421 245.53875)scale(0.08 -0.08)">
       <use transform="translate(0 0.7125)" xlink:href="#DejaVuSerif-50"/>
       <use transform="translate(64.531406 37.046875)scale(0.7)" xlink:href="#DejaVuSerif-51"/>
      </g>
     </g>
    </g>
    <g id="xtick_5">
     <g id="line2d_9">
      <path clip-path="url(#p3e679e3b71)" d="M 206.281983 232.46 
L 206.281983 10.7 
" style="fill:none;stroke:#b0b0b0;stroke-linecap:square;stroke-width:0.8;"/>
     </g>
     <g id="line2d_10">
      <g>
       <use style="stroke:#000000;stroke-width:0.8;" x="206.281983" xlink:href="#m9638d6a16c" y="232.46"/>
      </g>
     </g>
     <g id="text_5">
      <!-- $\mathdefault{2^{5}}$ -->
      <defs>
       <path d="M 50.296875 72.90625 
L 50.296875 64.890625 
L 16.890625 64.890625 
L 16.890625 44 
Q 19.4375 45.75 22.828125 46.625 
Q 26.21875 47.515625 30.421875 47.515625 
Q 42.234375 47.515625 49.0625 40.96875 
Q 55.90625 34.421875 55.90625 23.09375 
Q 55.90625 11.53125 49 5.046875 
Q 42.09375 -1.421875 29.59375 -1.421875 
Q 24.5625 -1.421875 19.28125 -0.1875 
Q 14.015625 1.03125 8.5 3.515625 
L 8.5 17.671875 
L 14.015625 17.671875 
Q 14.453125 10.75 18.421875 7.078125 
Q 22.40625 3.421875 29.59375 3.421875 
Q 37.3125 3.421875 41.453125 8.5 
Q 45.609375 13.578125 45.609375 23.09375 
Q 45.609375 32.5625 41.484375 37.609375 
Q 37.359375 42.671875 29.59375 42.671875 
Q 25.203125 42.671875 21.84375 41.109375 
Q 18.5 39.546875 15.921875 36.28125 
L 11.71875 36.28125 
L 11.71875 72.90625 
z
" id="DejaVuSerif-53"/>
      </defs>
      <g transform="translate(201.801983 245.53875)scale(0.08 -0.08)">
       <use transform="translate(0 0.63125)" xlink:href="#DejaVuSerif-50"/>
       <use transform="translate(64.531406 36.965625)scale(0.7)" xlink:href="#DejaVuSerif-53"/>
      </g>
     </g>
    </g>
    <g id="xtick_6">
     <g id="line2d_11">
      <path clip-path="url(#p3e679e3b71)" d="M 243.174545 232.46 
L 243.174545 10.7 
" style="fill:none;stroke:#b0b0b0;stroke-linecap:square;stroke-width:0.8;"/>
     </g>
     <g id="line2d_12">
      <g>
       <use style="stroke:#000000;stroke-width:0.8;" x="243.174545" xlink:href="#m9638d6a16c" y="232.46"/>
      </g>
     </g>
     <g id="text_6">
      <!-- $\mathdefault{2^{7}}$ -->
      <defs>
       <path d="M 56.390625 67.921875 
L 27.875 0 
L 20.609375 0 
L 47.796875 64.890625 
L 14.109375 64.890625 
L 14.109375 55.90625 
L 8.40625 55.90625 
L 8.40625 72.90625 
L 56.390625 72.90625 
z
" id="DejaVuSerif-55"/>
      </defs>
      <g transform="translate(238.694545 245.53875)scale(0.08 -0.08)">
       <use transform="translate(0 0.63125)" xlink:href="#DejaVuSerif-50"/>
       <use transform="translate(64.531406 36.965625)scale(0.7)" xlink:href="#DejaVuSerif-55"/>
      </g>
     </g>
    </g>
   </g>
   <g id="matplotlib.axis_2">
    <g id="ytick_1">
     <g id="line2d_13">
      <path clip-path="url(#p3e679e3b71)" d="M 30.12 179.996117 
L 253.32 179.996117 
" style="fill:none;stroke:#b0b0b0;stroke-linecap:square;stroke-width:0.8;"/>
     </g>
     <g id="line2d_14">
      <defs>
       <path d="M 0 0 
L -3.5 0 
" id="md562b3f5b1" style="stroke:#000000;stroke-width:0.8;"/>
      </defs>
      <g>
       <use style="stroke:#000000;stroke-width:0.8;" x="30.12" xlink:href="#md562b3f5b1" y="179.996117"/>
      </g>
     </g>
     <g id="text_7">
      <!-- $\mathdefault{10^{-3}}$ -->
      <defs>
       <path d="M 31.78125 3.421875 
Q 39.265625 3.421875 42.96875 11.625 
Q 46.6875 19.828125 46.6875 36.375 
Q 46.6875 52.984375 42.96875 61.1875 
Q 39.265625 69.390625 31.78125 69.390625 
Q 24.3125 69.390625 20.59375 61.1875 
Q 16.890625 52.984375 16.890625 36.375 
Q 16.890625 19.828125 20.59375 11.625 
Q 24.3125 3.421875 31.78125 3.421875 
z
M 31.78125 -1.421875 
Q 19.921875 -1.421875 13.25 8.53125 
Q 6.59375 18.5 6.59375 36.375 
Q 6.59375 54.296875 13.25 64.25 
Q 19.921875 74.21875 31.78125 74.21875 
Q 43.703125 74.21875 50.34375 64.25 
Q 56.984375 54.296875 56.984375 36.375 
Q 56.984375 18.5 50.34375 8.53125 
Q 43.703125 -1.421875 31.78125 -1.421875 
z
" id="DejaVuSerif-48"/>
      </defs>
      <g transform="translate(7.2 183.035492)scale(0.08 -0.08)">
       <use transform="translate(0 0.7125)" xlink:href="#DejaVuSerif-49"/>
       <use transform="translate(63.623047 0.7125)" xlink:href="#DejaVuSerif-48"/>
       <use transform="translate(128.154453 37.046875)scale(0.7)" xlink:href="#DejaVuSerif-45"/>
       <use transform="translate(151.806797 37.046875)scale(0.7)" xlink:href="#DejaVuSerif-51"/>
      </g>
     </g>
    </g>
    <g id="ytick_2">
     <g id="line2d_15">
      <path clip-path="url(#p3e679e3b71)" d="M 30.12 100.457686 
L 253.32 100.457686 
" style="fill:none;stroke:#b0b0b0;stroke-linecap:square;stroke-width:0.8;"/>
     </g>
     <g id="line2d_16">
      <g>
       <use style="stroke:#000000;stroke-width:0.8;" x="30.12" xlink:href="#md562b3f5b1" y="100.457686"/>
      </g>
     </g>
     <g id="text_8">
      <!-- $\mathdefault{10^{-2}}$ -->
      <g transform="translate(7.2 103.497061)scale(0.08 -0.08)">
       <use transform="translate(0 0.7125)" xlink:href="#DejaVuSerif-49"/>
       <use transform="translate(63.623047 0.7125)" xlink:href="#DejaVuSerif-48"/>
       <use transform="translate(128.154453 37.046875)scale(0.7)" xlink:href="#DejaVuSerif-45"/>
       <use transform="translate(151.806797 37.046875)scale(0.7)" xlink:href="#DejaVuSerif-50"/>
      </g>
     </g>
    </g>
    <g id="ytick_3">
     <g id="line2d_17">
      <path clip-path="url(#p3e679e3b71)" d="M 30.12 20.919255 
L 253.32 20.919255 
" style="fill:none;stroke:#b0b0b0;stroke-linecap:square;stroke-width:0.8;"/>
     </g>
     <g id="line2d_18">
      <g>
       <use style="stroke:#000000;stroke-width:0.8;" x="30.12" xlink:href="#md562b3f5b1" y="20.919255"/>
      </g>
     </g>
     <g id="text_9">
      <!-- $\mathdefault{10^{-1}}$ -->
      <g transform="translate(7.2 23.95863)scale(0.08 -0.08)">
       <use transform="translate(0 0.7125)" xlink:href="#DejaVuSerif-49"/>
       <use transform="translate(63.623047 0.7125)" xlink:href="#DejaVuSerif-48"/>
       <use transform="translate(128.154453 37.046875)scale(0.7)" xlink:href="#DejaVuSerif-45"/>
       <use transform="translate(151.806797 37.046875)scale(0.7)" xlink:href="#DejaVuSerif-49"/>
      </g>
     </g>
    </g>
    <g id="ytick_4">
     <g id="line2d_19">
      <defs>
       <path d="M 0 0 
L -2 0 
" id="md8c88984c5" style="stroke:#000000;stroke-width:0.6;"/>
      </defs>
      <g>
       <use style="stroke:#000000;stroke-width:0.6;" x="30.12" xlink:href="#md8c88984c5" y="179.996117"/>
      </g>
     </g>
    </g>
    <g id="ytick_5">
     <g id="line2d_20">
      <g>
       <use style="stroke:#000000;stroke-width:0.6;" x="30.12" xlink:href="#md8c88984c5" y="100.457686"/>
      </g>
     </g>
    </g>
    <g id="ytick_6">
     <g id="line2d_21">
      <g>
       <use style="stroke:#000000;stroke-width:0.6;" x="30.12" xlink:href="#md8c88984c5" y="20.919255"/>
      </g>
     </g>
    </g>
   </g>
   <g id="line2d_22">
    <path clip-path="url(#p3e679e3b71)" d="M 40.265455 54.203872 
L 58.711736 132.118747 
L 77.158017 222.38 
L 95.604298 200.274438 
L 114.050579 160.491275 
L 132.49686 135.563449 
L 150.94314 123.382648 
L 169.389421 142.539535 
L 187.835702 140.695261 
L 206.281983 117.151977 
L 224.728264 127.275261 
L 243.174545 124.301305 
" style="fill:none;stroke:#1f77b4;stroke-linecap:square;stroke-width:1.5;"/>
   </g>
   <g id="line2d_23">
    <path clip-path="url(#p3e679e3b71)" d="M 40.265455 54.189824 
L 58.711736 131.621004 
L 77.158017 197.161728 
L 95.604298 159.625852 
L 114.050579 117.097637 
L 132.49686 88.034703 
L 150.94314 78.594981 
L 169.389421 80.52484 
L 187.835702 92.242478 
L 206.281983 69.494998 
L 224.728264 80.196224 
L 243.174545 70.023877 
" style="fill:none;stroke:#ff7f0e;stroke-linecap:square;stroke-width:1.5;"/>
   </g>
   <g id="line2d_24">
    <path clip-path="url(#p3e679e3b71)" d="M 40.265455 54.175783 
L 58.711736 131.130328 
L 77.158017 182.739063 
L 95.604298 141.464863 
L 114.050579 98.414063 
L 132.49686 69.602449 
L 150.94314 61.791491 
L 169.389421 56.644526 
L 187.835702 71.760208 
L 206.281983 51.596513 
L 224.728264 63.193349 
L 243.174545 46.838831 
" style="fill:none;stroke:#2ca02c;stroke-linecap:square;stroke-width:1.5;"/>
   </g>
   <g id="line2d_25">
    <path clip-path="url(#p3e679e3b71)" d="M 40.265455 54.161748 
L 58.711736 130.646522 
L 77.158017 172.593634 
L 95.604298 129.621154 
L 114.050579 86.282322 
L 132.49686 58.342879 
L 150.94314 53.20761 
L 169.389421 44.375636 
L 187.835702 59.503257 
L 206.281983 43.174531 
L 224.728264 55.851986 
L 243.174545 31.625058 
" style="fill:none;stroke:#d62728;stroke-linecap:square;stroke-width:1.5;"/>
   </g>
   <g id="line2d_26">
    <path clip-path="url(#p3e679e3b71)" d="M 40.265455 54.147721 
L 58.711736 130.169396 
L 77.158017 164.760057 
L 95.604298 120.814309 
L 114.050579 77.233333 
L 132.49686 50.856567 
L 150.94314 48.537837 
L 169.389421 44.243498 
L 187.835702 56.688139 
L 206.281983 45.195828 
L 224.728264 55.402471 
L 243.174545 20.78 
" style="fill:none;stroke:#9467bd;stroke-linecap:square;stroke-width:1.5;"/>
   </g>
   <g id="patch_3">
    <path d="M 30.12 232.46 
L 30.12 10.7 
" style="fill:none;stroke:#000000;stroke-linecap:square;stroke-linejoin:miter;stroke-width:0.8;"/>
   </g>
   <g id="patch_4">
    <path d="M 253.32 232.46 
L 253.32 10.7 
" style="fill:none;stroke:#000000;stroke-linecap:square;stroke-linejoin:miter;stroke-width:0.8;"/>
   </g>
   <g id="patch_5">
    <path d="M 30.12 232.46 
L 253.32 232.46 
" style="fill:none;stroke:#000000;stroke-linecap:square;stroke-linejoin:miter;stroke-width:0.8;"/>
   </g>
   <g id="patch_6">
    <path d="M 30.12 10.7 
L 253.32 10.7 
" style="fill:none;stroke:#000000;stroke-linecap:square;stroke-linejoin:miter;stroke-width:0.8;"/>
   </g>
   <g id="legend_1">
    <g id="patch_7">
     <path d="M 209.3975 228.46 
L 247.72 228.46 
Q 249.32 228.46 249.32 226.86 
L 249.32 168.9475 
Q 249.32 167.3475 247.72 167.3475 
L 209.3975 167.3475 
Q 207.7975 167.3475 207.7975 168.9475 
L 207.7975 226.86 
Q 207.7975 228.46 209.3975 228.46 
z
" style="fill:#ffffff;opacity:0.8;stroke:#cccccc;stroke-linejoin:miter;"/>
    </g>
    <g id="line2d_27">
     <path d="M 210.9975 173.82625 
L 226.9975 173.82625 
" style="fill:none;stroke:#1f77b4;stroke-linecap:square;stroke-width:1.5;"/>
    </g>
    <g id="line2d_28"/>
    <g id="text_10">
     <!-- 0.1 -->
     <defs>
      <path d="M 9.421875 5.078125 
Q 9.421875 7.8125 11.28125 9.71875 
Q 13.140625 11.625 15.921875 11.625 
Q 18.609375 11.625 20.5 9.71875 
Q 22.40625 7.8125 22.40625 5.078125 
Q 22.40625 2.390625 20.5 0.484375 
Q 18.609375 -1.421875 15.921875 -1.421875 
Q 13.140625 -1.421875 11.28125 0.453125 
Q 9.421875 2.34375 9.421875 5.078125 
z
" id="DejaVuSerif-46"/>
     </defs>
     <g transform="translate(233.3975 176.62625)scale(0.08 -0.08)">
      <use xlink:href="#DejaVuSerif-48"/>
      <use x="63.623047" xlink:href="#DejaVuSerif-46"/>
      <use x="95.410156" xlink:href="#DejaVuSerif-49"/>
     </g>
    </g>
    <g id="line2d_29">
     <path d="M 210.9975 185.56875 
L 226.9975 185.56875 
" style="fill:none;stroke:#ff7f0e;stroke-linecap:square;stroke-width:1.5;"/>
    </g>
    <g id="line2d_30"/>
    <g id="text_11">
     <!-- 0.3 -->
     <g transform="translate(233.3975 188.36875)scale(0.08 -0.08)">
      <use xlink:href="#DejaVuSerif-48"/>
      <use x="63.623047" xlink:href="#DejaVuSerif-46"/>
      <use x="95.410156" xlink:href="#DejaVuSerif-51"/>
     </g>
    </g>
    <g id="line2d_31">
     <path d="M 210.9975 197.31125 
L 226.9975 197.31125 
" style="fill:none;stroke:#2ca02c;stroke-linecap:square;stroke-width:1.5;"/>
    </g>
    <g id="line2d_32"/>
    <g id="text_12">
     <!-- 0.5 -->
     <g transform="translate(233.3975 200.11125)scale(0.08 -0.08)">
      <use xlink:href="#DejaVuSerif-48"/>
      <use x="63.623047" xlink:href="#DejaVuSerif-46"/>
      <use x="95.410156" xlink:href="#DejaVuSerif-53"/>
     </g>
    </g>
    <g id="line2d_33">
     <path d="M 210.9975 209.05375 
L 226.9975 209.05375 
" style="fill:none;stroke:#d62728;stroke-linecap:square;stroke-width:1.5;"/>
    </g>
    <g id="line2d_34"/>
    <g id="text_13">
     <!-- 0.7 -->
     <g transform="translate(233.3975 211.85375)scale(0.08 -0.08)">
      <use xlink:href="#DejaVuSerif-48"/>
      <use x="63.623047" xlink:href="#DejaVuSerif-46"/>
      <use x="95.410156" xlink:href="#DejaVuSerif-55"/>
     </g>
    </g>
    <g id="line2d_35">
     <path d="M 210.9975 220.79625 
L 226.9975 220.79625 
" style="fill:none;stroke:#9467bd;stroke-linecap:square;stroke-width:1.5;"/>
    </g>
    <g id="line2d_36"/>
    <g id="text_14">
     <!-- 0.9 -->
     <defs>
      <path d="M 46.78125 32.671875 
Q 43.5 29 39.25 27.1875 
Q 35.015625 25.390625 29.6875 25.390625 
Q 18.84375 25.390625 12.5625 31.9375 
Q 6.296875 38.484375 6.296875 49.8125 
Q 6.296875 60.890625 13.109375 67.546875 
Q 19.921875 74.21875 31.296875 74.21875 
Q 43.65625 74.21875 50.265625 65.015625 
Q 56.890625 55.8125 56.890625 38.71875 
Q 56.890625 19.578125 49.015625 9.078125 
Q 41.15625 -1.421875 26.90625 -1.421875 
Q 23.046875 -1.421875 18.796875 -0.6875 
Q 14.546875 0.046875 10.109375 1.515625 
L 10.109375 13.625 
L 15.578125 13.625 
Q 16.21875 8.6875 19.390625 6.046875 
Q 22.5625 3.421875 27.875 3.421875 
Q 37.359375 3.421875 41.984375 10.5625 
Q 46.625 17.71875 46.78125 32.671875 
z
M 30.90625 69.390625 
Q 23.96875 69.390625 20.28125 64.328125 
Q 16.609375 59.28125 16.609375 49.8125 
Q 16.609375 40.328125 20.28125 35.25 
Q 23.96875 30.171875 30.90625 30.171875 
Q 37.84375 30.171875 41.53125 35.078125 
Q 45.21875 39.984375 45.21875 49.21875 
Q 45.21875 58.9375 41.5 64.15625 
Q 37.796875 69.390625 30.90625 69.390625 
z
" id="DejaVuSerif-57"/>
     </defs>
     <g transform="translate(233.3975 223.59625)scale(0.08 -0.08)">
      <use xlink:href="#DejaVuSerif-48"/>
      <use x="63.623047" xlink:href="#DejaVuSerif-46"/>
      <use x="95.410156" xlink:href="#DejaVuSerif-57"/>
     </g>
    </g>
   </g>
  </g>
 </g>
 <defs>
  <clipPath id="p3e679e3b71">
   <rect height="221.76" width="223.2" x="30.12" y="10.7"/>
  </clipPath>
 </defs>
</svg>
