<?xml version="1.0" encoding="utf-8" standalone="no"?>
<!DOCTYPE svg PUBLIC "-//W3C//DTD SVG 1.1//EN"
  "http://www.w3.org/Graphics/SVG/1.1/DTD/svg11.dtd">
<!-- Created with matplotlib (https://matplotlib.org/) -->
<svg height="253.29875pt" version="1.1" viewBox="0 0 1063.641407 253.29875" width="1063.641407pt" xmlns="http://www.w3.org/2000/svg" xmlns:xlink="http://www.w3.org/1999/xlink">
 <defs>
  <style type="text/css">
*{stroke-linecap:butt;stroke-linejoin:round;}
  </style>
 </defs>
 <g id="figure_1">
  <g id="patch_1">
   <path d="M -0 253.29875 
L 1063.641407 253.29875 
L 1063.641407 0 
L -0 0 
z
" style="fill:#ffffff;"/>
  </g>
  <g id="axes_1">
   <g id="patch_2">
    <path d="M 45.371875 225.549375 
L 340.78364 225.549375 
L 340.78364 25.965375 
L 45.371875 25.965375 
z
" style="fill:#ffffff;"/>
   </g>
   <g id="matplotlib.axis_1">
    <g id="xtick_1">
     <g id="line2d_1">
      <defs>
       <path d="M 0 0 
L 0 3.5 
" id="mb9f7aadad7" style="stroke:#000000;stroke-width:0.8;"/>
      </defs>
      <g>
       <use style="stroke:#000000;stroke-width:0.8;" x="58.799682" xlink:href="#mb9f7aadad7" y="225.549375"/>
      </g>
     </g>
     <g id="text_1">
      <!-- 0 -->
      <defs>
       <path d="M 31.78125 3.421875 
Q 39.265625 3.421875 42.96875 11.625 
Q 46.6875 19.828125 46.6875 36.375 
Q 46.6875 52.984375 42.96875 61.1875 
Q 39.265625 69.390625 31.78125 69.390625 
Q 24.3125 69.390625 20.59375 61.1875 
Q 16.890625 52.984375 16.890625 36.375 
Q 16.890625 19.828125 20.59375 11.625 
Q 24.3125 3.421875 31.78125 3.421875 
z
M 31.78125 -1.421875 
Q 19.921875 -1.421875 13.25 8.53125 
Q 6.59375 18.5 6.59375 36.375 
Q 6.59375 54.296875 13.25 64.25 
Q 19.921875 74.21875 31.78125 74.21875 
Q 43.703125 74.21875 50.34375 64.25 
Q 56.984375 54.296875 56.984375 36.375 
Q 56.984375 18.5 50.34375 8.53125 
Q 43.703125 -1.421875 31.78125 -1.421875 
z
" id="DejaVuSerif-48"/>
      </defs>
      <g transform="translate(54.345932 243.187188)scale(0.14 -0.14)">
       <use xlink:href="#DejaVuSerif-48"/>
      </g>
     </g>
    </g>
    <g id="xtick_2">
     <g id="line2d_2">
      <g>
       <use style="stroke:#000000;stroke-width:0.8;" x="114.74888" xlink:href="#mb9f7aadad7" y="225.549375"/>
      </g>
     </g>
     <g id="text_2">
      <!-- 5 -->
      <defs>
       <path d="M 50.296875 72.90625 
L 50.296875 64.890625 
L 16.890625 64.890625 
L 16.890625 44 
Q 19.4375 45.75 22.828125 46.625 
Q 26.21875 47.515625 30.421875 47.515625 
Q 42.234375 47.515625 49.0625 40.96875 
Q 55.90625 34.421875 55.90625 23.09375 
Q 55.90625 11.53125 49 5.046875 
Q 42.09375 -1.421875 29.59375 -1.421875 
Q 24.5625 -1.421875 19.28125 -0.1875 
Q 14.015625 1.03125 8.5 3.515625 
L 8.5 17.671875 
L 14.015625 17.671875 
Q 14.453125 10.75 18.421875 7.078125 
Q 22.40625 3.421875 29.59375 3.421875 
Q 37.3125 3.421875 41.453125 8.5 
Q 45.609375 13.578125 45.609375 23.09375 
Q 45.609375 32.5625 41.484375 37.609375 
Q 37.359375 42.671875 29.59375 42.671875 
Q 25.203125 42.671875 21.84375 41.109375 
Q 18.5 39.546875 15.921875 36.28125 
L 11.71875 36.28125 
L 11.71875 72.90625 
z
" id="DejaVuSerif-53"/>
      </defs>
      <g transform="translate(110.29513 243.187188)scale(0.14 -0.14)">
       <use xlink:href="#DejaVuSerif-53"/>
      </g>
     </g>
    </g>
    <g id="xtick_3">
     <g id="line2d_3">
      <g>
       <use style="stroke:#000000;stroke-width:0.8;" x="170.698078" xlink:href="#mb9f7aadad7" y="225.549375"/>
      </g>
     </g>
     <g id="text_3">
      <!-- 10 -->
      <defs>
       <path d="M 14.203125 0 
L 14.203125 5.171875 
L 26.90625 5.171875 
L 26.90625 65.828125 
L 12.203125 56.296875 
L 12.203125 62.703125 
L 29.984375 74.21875 
L 36.71875 74.21875 
L 36.71875 5.171875 
L 49.421875 5.171875 
L 49.421875 0 
z
" id="DejaVuSerif-49"/>
      </defs>
      <g transform="translate(161.790578 243.187188)scale(0.14 -0.14)">
       <use xlink:href="#DejaVuSerif-49"/>
       <use x="63.623047" xlink:href="#DejaVuSerif-48"/>
      </g>
     </g>
    </g>
    <g id="xtick_4">
     <g id="line2d_4">
      <g>
       <use style="stroke:#000000;stroke-width:0.8;" x="226.647276" xlink:href="#mb9f7aadad7" y="225.549375"/>
      </g>
     </g>
     <g id="text_4">
      <!-- 15 -->
      <g transform="translate(217.739776 243.187188)scale(0.14 -0.14)">
       <use xlink:href="#DejaVuSerif-49"/>
       <use x="63.623047" xlink:href="#DejaVuSerif-53"/>
      </g>
     </g>
    </g>
    <g id="xtick_5">
     <g id="line2d_5">
      <g>
       <use style="stroke:#000000;stroke-width:0.8;" x="282.596474" xlink:href="#mb9f7aadad7" y="225.549375"/>
      </g>
     </g>
     <g id="text_5">
      <!-- 20 -->
      <defs>
       <path d="M 12.796875 55.515625 
L 7.328125 55.515625 
L 7.328125 68.5 
Q 12.546875 71.296875 17.84375 72.75 
Q 23.140625 74.21875 28.21875 74.21875 
Q 39.59375 74.21875 46.1875 68.703125 
Q 52.78125 63.1875 52.78125 53.71875 
Q 52.78125 43.015625 37.84375 28.125 
Q 36.671875 27 36.078125 26.421875 
L 17.671875 8.015625 
L 48.09375 8.015625 
L 48.09375 17 
L 53.8125 17 
L 53.8125 0 
L 6.78125 0 
L 6.78125 5.328125 
L 28.90625 27.390625 
Q 36.234375 34.71875 39.359375 40.84375 
Q 42.484375 46.96875 42.484375 53.71875 
Q 42.484375 61.078125 38.640625 65.234375 
Q 34.8125 69.390625 28.078125 69.390625 
Q 21.09375 69.390625 17.28125 65.921875 
Q 13.484375 62.453125 12.796875 55.515625 
z
" id="DejaVuSerif-50"/>
      </defs>
      <g transform="translate(273.688974 243.187188)scale(0.14 -0.14)">
       <use xlink:href="#DejaVuSerif-50"/>
       <use x="63.623047" xlink:href="#DejaVuSerif-48"/>
      </g>
     </g>
    </g>
    <g id="xtick_6">
     <g id="line2d_6">
      <g>
       <use style="stroke:#000000;stroke-width:0.8;" x="338.545672" xlink:href="#mb9f7aadad7" y="225.549375"/>
      </g>
     </g>
     <g id="text_6">
      <!-- 25 -->
      <g transform="translate(329.638172 243.187188)scale(0.14 -0.14)">
       <use xlink:href="#DejaVuSerif-50"/>
       <use x="63.623047" xlink:href="#DejaVuSerif-53"/>
      </g>
     </g>
    </g>
   </g>
   <g id="matplotlib.axis_2">
    <g id="ytick_1">
     <g id="line2d_7">
      <defs>
       <path d="M 0 0 
L -3.5 0 
" id="m527cdbcc82" style="stroke:#000000;stroke-width:0.8;"/>
      </defs>
      <g>
       <use style="stroke:#000000;stroke-width:0.8;" x="45.371875" xlink:href="#m527cdbcc82" y="190.517873"/>
      </g>
     </g>
     <g id="text_7">
      <!-- 0.04 -->
      <defs>
       <path d="M 9.421875 5.078125 
Q 9.421875 7.8125 11.28125 9.71875 
Q 13.140625 11.625 15.921875 11.625 
Q 18.609375 11.625 20.5 9.71875 
Q 22.40625 7.8125 22.40625 5.078125 
Q 22.40625 2.390625 20.5 0.484375 
Q 18.609375 -1.421875 15.921875 -1.421875 
Q 13.140625 -1.421875 11.28125 0.453125 
Q 9.421875 2.34375 9.421875 5.078125 
z
" id="DejaVuSerif-46"/>
       <path d="M 34.90625 24.703125 
L 34.90625 63.484375 
L 10.015625 24.703125 
z
M 56.390625 0 
L 23.1875 0 
L 23.1875 5.171875 
L 34.90625 5.171875 
L 34.90625 19.484375 
L 3.078125 19.484375 
L 3.078125 24.8125 
L 35.015625 74.21875 
L 44.671875 74.21875 
L 44.671875 24.703125 
L 58.59375 24.703125 
L 58.59375 19.484375 
L 44.671875 19.484375 
L 44.671875 5.171875 
L 56.390625 5.171875 
z
" id="DejaVuSerif-52"/>
      </defs>
      <g transform="translate(7.2 195.836779)scale(0.14 -0.14)">
       <use xlink:href="#DejaVuSerif-48"/>
       <use x="63.623047" xlink:href="#DejaVuSerif-46"/>
       <use x="95.410156" xlink:href="#DejaVuSerif-48"/>
       <use x="159.033203" xlink:href="#DejaVuSerif-52"/>
      </g>
     </g>
    </g>
    <g id="ytick_2">
     <g id="line2d_8">
      <g>
       <use style="stroke:#000000;stroke-width:0.8;" x="45.371875" xlink:href="#m527cdbcc82" y="152.891253"/>
      </g>
     </g>
     <g id="text_8">
      <!-- 0.05 -->
      <g transform="translate(7.2 158.210159)scale(0.14 -0.14)">
       <use xlink:href="#DejaVuSerif-48"/>
       <use x="63.623047" xlink:href="#DejaVuSerif-46"/>
       <use x="95.410156" xlink:href="#DejaVuSerif-48"/>
       <use x="159.033203" xlink:href="#DejaVuSerif-53"/>
      </g>
     </g>
    </g>
    <g id="ytick_3">
     <g id="line2d_9">
      <g>
       <use style="stroke:#000000;stroke-width:0.8;" x="45.371875" xlink:href="#m527cdbcc82" y="115.264634"/>
      </g>
     </g>
     <g id="text_9">
      <!-- 0.06 -->
      <defs>
       <path d="M 32.71875 3.421875 
Q 39.59375 3.421875 43.296875 8.46875 
Q 47.015625 13.53125 47.015625 23 
Q 47.015625 32.46875 43.296875 37.515625 
Q 39.59375 42.578125 32.71875 42.578125 
Q 25.734375 42.578125 22.0625 37.6875 
Q 18.40625 32.8125 18.40625 23.578125 
Q 18.40625 13.875 22.109375 8.640625 
Q 25.828125 3.421875 32.71875 3.421875 
z
M 16.796875 40.140625 
Q 20.125 43.796875 24.3125 45.59375 
Q 28.515625 47.40625 33.796875 47.40625 
Q 44.671875 47.40625 51 40.859375 
Q 57.328125 34.328125 57.328125 23 
Q 57.328125 11.921875 50.515625 5.25 
Q 43.703125 -1.421875 32.328125 -1.421875 
Q 19.96875 -1.421875 13.328125 7.78125 
Q 6.6875 17 6.6875 34.078125 
Q 6.6875 53.21875 14.546875 63.71875 
Q 22.40625 74.21875 36.71875 74.21875 
Q 40.578125 74.21875 44.828125 73.484375 
Q 49.078125 72.75 53.515625 71.296875 
L 53.515625 59.28125 
L 48 59.28125 
Q 47.40625 64.203125 44.234375 66.796875 
Q 41.0625 69.390625 35.6875 69.390625 
Q 26.21875 69.390625 21.578125 62.203125 
Q 16.9375 55.03125 16.796875 40.140625 
z
" id="DejaVuSerif-54"/>
      </defs>
      <g transform="translate(7.2 120.58354)scale(0.14 -0.14)">
       <use xlink:href="#DejaVuSerif-48"/>
       <use x="63.623047" xlink:href="#DejaVuSerif-46"/>
       <use x="95.410156" xlink:href="#DejaVuSerif-48"/>
       <use x="159.033203" xlink:href="#DejaVuSerif-54"/>
      </g>
     </g>
    </g>
    <g id="ytick_4">
     <g id="line2d_10">
      <g>
       <use style="stroke:#000000;stroke-width:0.8;" x="45.371875" xlink:href="#m527cdbcc82" y="77.638014"/>
      </g>
     </g>
     <g id="text_10">
      <!-- 0.07 -->
      <defs>
       <path d="M 56.390625 67.921875 
L 27.875 0 
L 20.609375 0 
L 47.796875 64.890625 
L 14.109375 64.890625 
L 14.109375 55.90625 
L 8.40625 55.90625 
L 8.40625 72.90625 
L 56.390625 72.90625 
z
" id="DejaVuSerif-55"/>
      </defs>
      <g transform="translate(7.2 82.956921)scale(0.14 -0.14)">
       <use xlink:href="#DejaVuSerif-48"/>
       <use x="63.623047" xlink:href="#DejaVuSerif-46"/>
       <use x="95.410156" xlink:href="#DejaVuSerif-48"/>
       <use x="159.033203" xlink:href="#DejaVuSerif-55"/>
      </g>
     </g>
    </g>
    <g id="ytick_5">
     <g id="line2d_11">
      <g>
       <use style="stroke:#000000;stroke-width:0.8;" x="45.371875" xlink:href="#m527cdbcc82" y="40.011395"/>
      </g>
     </g>
     <g id="text_11">
      <!-- 0.08 -->
      <defs>
       <path d="M 46.578125 19.921875 
Q 46.578125 27.734375 42.6875 32.046875 
Q 38.8125 36.375 31.78125 36.375 
Q 24.75 36.375 20.875 32.046875 
Q 17 27.734375 17 19.921875 
Q 17 12.0625 20.875 7.734375 
Q 24.75 3.421875 31.78125 3.421875 
Q 38.8125 3.421875 42.6875 7.734375 
Q 46.578125 12.0625 46.578125 19.921875 
z
M 44.578125 55.328125 
Q 44.578125 61.96875 41.203125 65.671875 
Q 37.84375 69.390625 31.78125 69.390625 
Q 25.78125 69.390625 22.390625 65.671875 
Q 19 61.96875 19 55.328125 
Q 19 48.640625 22.390625 44.921875 
Q 25.78125 41.21875 31.78125 41.21875 
Q 37.84375 41.21875 41.203125 44.921875 
Q 44.578125 48.640625 44.578125 55.328125 
z
M 39.3125 38.8125 
Q 47.609375 37.703125 52.25 32.6875 
Q 56.890625 27.6875 56.890625 19.921875 
Q 56.890625 9.671875 50.390625 4.125 
Q 43.890625 -1.421875 31.78125 -1.421875 
Q 19.734375 -1.421875 13.203125 4.125 
Q 6.6875 9.671875 6.6875 19.921875 
Q 6.6875 27.6875 11.328125 32.6875 
Q 15.96875 37.703125 24.3125 38.8125 
Q 16.9375 40.140625 13 44.40625 
Q 9.078125 48.6875 9.078125 55.328125 
Q 9.078125 64.109375 15.125 69.15625 
Q 21.1875 74.21875 31.78125 74.21875 
Q 42.390625 74.21875 48.4375 69.15625 
Q 54.5 64.109375 54.5 55.328125 
Q 54.5 48.6875 50.5625 44.40625 
Q 46.625 40.140625 39.3125 38.8125 
z
" id="DejaVuSerif-56"/>
      </defs>
      <g transform="translate(7.2 45.330301)scale(0.14 -0.14)">
       <use xlink:href="#DejaVuSerif-48"/>
       <use x="63.623047" xlink:href="#DejaVuSerif-46"/>
       <use x="95.410156" xlink:href="#DejaVuSerif-48"/>
       <use x="159.033203" xlink:href="#DejaVuSerif-56"/>
      </g>
     </g>
    </g>
   </g>
   <g id="line2d_12">
    <path clip-path="url(#pc4c212e5e4)" d="M 58.799682 85.773289 
L 69.989522 85.52505 
L 81.179362 85.471627 
L 92.369201 85.614084 
L 103.559041 85.951853 
L 114.74888 86.395221 
L 125.93872 86.246678 
L 137.128559 86.298852 
L 148.318399 86.552111 
L 159.508239 87.005148 
L 170.698078 87.567771 
L 181.887918 87.544059 
L 193.077757 87.72317 
L 204.267597 88.104421 
L 215.457436 88.685429 
L 226.647276 89.37554 
L 237.837116 89.483192 
L 249.026955 89.791247 
L 260.216795 90.297974 
L 271.406634 91.000001 
L 282.596474 91.806531 
L 293.786314 92.03164 
L 304.976153 92.450505 
L 316.165993 93.060633 
L 327.355832 93.858037 
" style="fill:none;stroke:#1f77b4;stroke-linecap:square;stroke-width:1.5;"/>
   </g>
   <g id="line2d_13">
    <path clip-path="url(#pc4c212e5e4)" d="M 58.799682 35.793368 
L 69.989522 35.178017 
L 81.179362 35.037375 
L 92.369201 35.372506 
L 103.559041 36.18127 
L 114.74888 37.229175 
L 125.93872 36.683229 
L 137.128559 36.612103 
L 148.318399 37.016463 
L 159.508239 37.89395 
L 170.698078 39.01091 
L 181.887918 38.540414 
L 193.077757 38.54179 
L 204.267597 39.014885 
L 215.457436 39.95655 
L 226.647276 41.133964 
L 237.837116 40.732675 
L 249.026955 40.797448 
L 260.216795 41.32759 
L 271.406634 42.319583 
L 282.596474 43.541982 
L 293.786314 43.192395 
L 304.976153 43.300913 
L 316.165993 43.866915 
L 327.355832 44.887361 
" style="fill:none;stroke:#ff7f0e;stroke-linecap:square;stroke-width:1.5;"/>
   </g>
   <g id="line2d_14">
    <path clip-path="url(#pc4c212e5e4)" d="M 58.799682 215.852375 
L 69.989522 215.609274 
L 81.179362 215.521809 
L 92.369201 215.590508 
L 103.559041 215.814824 
L 114.74888 216.113719 
L 125.93872 215.851994 
L 137.128559 215.746887 
L 148.318399 215.798993 
L 159.508239 216.007884 
L 170.698078 216.292676 
L 181.887918 216.017607 
L 193.077757 215.899675 
L 204.267597 215.939437 
L 215.457436 216.136437 
L 226.647276 216.40984 
L 237.837116 216.12428 
L 249.026955 215.996074 
L 260.216795 216.025823 
L 271.406634 216.213167 
L 282.596474 216.477375 
L 293.786314 216.182665 
L 304.976153 216.045507 
L 316.165993 216.066701 
L 327.355832 216.246194 
" style="fill:none;stroke:#2ca02c;stroke-linecap:square;stroke-width:1.5;"/>
   </g>
   <g id="line2d_15">
    <path clip-path="url(#pc4c212e5e4)" d="M 58.799682 37.958057 
L 69.989522 38.140455 
L 81.179362 38.489624 
L 92.369201 39.004956 
L 103.559041 39.684978 
L 114.74888 40.453962 
L 125.93872 40.72615 
L 137.128559 41.164158 
L 148.318399 41.76668 
L 159.508239 42.531556 
L 170.698078 43.383023 
L 181.887918 43.739768 
L 193.077757 44.257842 
L 204.267597 44.935138 
L 215.457436 45.768715 
L 226.647276 46.682875 
L 237.837116 47.102238 
L 249.026955 47.675031 
L 260.216795 48.398538 
L 271.406634 49.269298 
L 282.596474 50.212014 
L 293.786314 50.657553 
L 304.976153 51.246329 
L 316.165993 51.975424 
L 327.355832 52.841329 
" style="fill:none;stroke:#d62728;stroke-linecap:square;stroke-width:1.5;"/>
   </g>
   <g id="patch_3">
    <path d="M 45.371875 225.549375 
L 45.371875 25.965375 
" style="fill:none;stroke:#000000;stroke-linecap:square;stroke-linejoin:miter;stroke-width:0.8;"/>
   </g>
   <g id="patch_4">
    <path d="M 340.78364 225.549375 
L 340.78364 25.965375 
" style="fill:none;stroke:#000000;stroke-linecap:square;stroke-linejoin:miter;stroke-width:0.8;"/>
   </g>
   <g id="patch_5">
    <path d="M 45.371875 225.549375 
L 340.78364 225.549375 
" style="fill:none;stroke:#000000;stroke-linecap:square;stroke-linejoin:miter;stroke-width:0.8;"/>
   </g>
   <g id="patch_6">
    <path d="M 45.371875 25.965375 
L 340.78364 25.965375 
" style="fill:none;stroke:#000000;stroke-linecap:square;stroke-linejoin:miter;stroke-width:0.8;"/>
   </g>
   <g id="text_12">
    <!-- $\alpha$ = 0.9, $\tau$ = 0.125 -->
    <defs>
     <path d="M 20.125 -1.125 
Q 15.375 -1.125 11.6875 1.125 
Q 8.015625 3.375 6 7.171875 
Q 4 10.984375 4 15.828125 
Q 4 22.609375 7.78125 29.25 
Q 11.578125 35.890625 17.84375 40.03125 
Q 24.125 44.1875 31 44.1875 
Q 36.078125 44.1875 39.9375 41.53125 
Q 43.796875 38.875 45.796875 34.453125 
Q 47.796875 30.03125 47.796875 25 
L 47.90625 18.3125 
Q 51.3125 23.046875 53.6875 28.140625 
Q 56.0625 33.25 57.328125 38.71875 
Q 57.515625 39.3125 58.109375 39.3125 
L 59.28125 39.3125 
Q 60.203125 39.3125 60.203125 38.375 
Q 60.203125 38.28125 60.109375 38.09375 
Q 58.9375 33.5 57.171875 29.265625 
Q 55.421875 25.046875 53.046875 21.09375 
Q 50.6875 17.140625 47.90625 13.921875 
Q 47.90625 1.515625 50.78125 1.515625 
Q 52.640625 1.515625 53.828125 2.609375 
Q 55.03125 3.71875 55.9375 5.328125 
Q 56.84375 6.9375 57.078125 6.984375 
L 58.296875 6.984375 
Q 59.078125 6.984375 59.078125 6 
Q 59.078125 3.515625 56.21875 1.1875 
Q 53.375 -1.125 50.59375 -1.125 
Q 46.96875 -1.125 44.578125 1.21875 
Q 42.1875 3.5625 41.3125 7.328125 
Q 36.625 3.328125 31.15625 1.09375 
Q 25.6875 -1.125 20.125 -1.125 
z
M 20.3125 1.515625 
Q 31 1.515625 40.828125 10.296875 
Q 40.765625 10.890625 40.671875 11.734375 
Q 40.578125 12.59375 40.578125 12.703125 
L 40.578125 23.484375 
Q 40.578125 41.609375 30.8125 41.609375 
Q 24.953125 41.609375 20.546875 36.59375 
Q 16.15625 31.59375 13.9375 24.625 
Q 11.71875 17.671875 11.71875 11.921875 
Q 11.71875 7.5625 13.9375 4.53125 
Q 16.15625 1.515625 20.3125 1.515625 
z
" id="Cmmi10-174"/>
     <path id="DejaVuSerif-32"/>
     <path d="M 10.59375 45.21875 
L 73.1875 45.21875 
L 73.1875 37.40625 
L 10.59375 37.40625 
z
M 10.59375 25.296875 
L 73.1875 25.296875 
L 73.1875 17.484375 
L 10.59375 17.484375 
z
" id="DejaVuSerif-61"/>
     <path d="M 46.78125 32.671875 
Q 43.5 29 39.25 27.1875 
Q 35.015625 25.390625 29.6875 25.390625 
Q 18.84375 25.390625 12.5625 31.9375 
Q 6.296875 38.484375 6.296875 49.8125 
Q 6.296875 60.890625 13.109375 67.546875 
Q 19.921875 74.21875 31.296875 74.21875 
Q 43.65625 74.21875 50.265625 65.015625 
Q 56.890625 55.8125 56.890625 38.71875 
Q 56.890625 19.578125 49.015625 9.078125 
Q 41.15625 -1.421875 26.90625 -1.421875 
Q 23.046875 -1.421875 18.796875 -0.6875 
Q 14.546875 0.046875 10.109375 1.515625 
L 10.109375 13.625 
L 15.578125 13.625 
Q 16.21875 8.6875 19.390625 6.046875 
Q 22.5625 3.421875 27.875 3.421875 
Q 37.359375 3.421875 41.984375 10.5625 
Q 46.625 17.71875 46.78125 32.671875 
z
M 30.90625 69.390625 
Q 23.96875 69.390625 20.28125 64.328125 
Q 16.609375 59.28125 16.609375 49.8125 
Q 16.609375 40.328125 20.28125 35.25 
Q 23.96875 30.171875 30.90625 30.171875 
Q 37.84375 30.171875 41.53125 35.078125 
Q 45.21875 39.984375 45.21875 49.21875 
Q 45.21875 58.9375 41.5 64.15625 
Q 37.796875 69.390625 30.90625 69.390625 
z
" id="DejaVuSerif-57"/>
     <path d="M 3.609375 -9.71875 
Q 8.203125 -6.34375 10.34375 -1.78125 
Q 12.5 2.78125 12.5 9.28125 
L 12.5 11.078125 
L 22.125 11.078125 
Q 21.734375 2.734375 18.1875 -3.25 
Q 14.65625 -9.234375 7.515625 -13.625 
z
" id="DejaVuSerif-44"/>
     <path d="M 15.578125 1.515625 
Q 15.578125 2.203125 15.71875 2.59375 
L 26.21875 36.921875 
L 17.1875 36.921875 
Q 13.53125 36.921875 10.34375 34.625 
Q 7.171875 32.328125 5.078125 28.8125 
Q 4.890625 28.421875 4.5 28.421875 
L 3.328125 28.421875 
Q 2.390625 28.421875 2.390625 29.390625 
Q 2.390625 29.59375 2.59375 29.984375 
Q 5.859375 35.546875 9.59375 39.328125 
Q 13.328125 43.109375 18.015625 43.109375 
L 48.6875 43.109375 
Q 49.75 43.109375 50.484375 42.375 
Q 51.21875 41.65625 51.21875 40.578125 
Q 51.21875 39.109375 50.171875 38.015625 
Q 49.125 36.921875 47.609375 36.921875 
L 29.5 36.921875 
L 22.796875 2.390625 
Q 22.40625 0.78125 21.328125 -0.265625 
Q 20.265625 -1.3125 18.609375 -1.3125 
Q 17.328125 -1.3125 16.453125 -0.5 
Q 15.578125 0.296875 15.578125 1.515625 
z
" id="Cmmi10-191"/>
    </defs>
    <g transform="translate(116.469757 19.965375)scale(0.168 -0.168)">
     <use transform="translate(0 0.78125)" xlink:href="#Cmmi10-174"/>
     <use transform="translate(63.916016 0.78125)" xlink:href="#DejaVuSerif-32"/>
     <use transform="translate(95.703125 0.78125)" xlink:href="#DejaVuSerif-61"/>
     <use transform="translate(179.492188 0.78125)" xlink:href="#DejaVuSerif-32"/>
     <use transform="translate(211.279297 0.78125)" xlink:href="#DejaVuSerif-48"/>
     <use transform="translate(274.902344 0.78125)" xlink:href="#DejaVuSerif-46"/>
     <use transform="translate(306.689453 0.78125)" xlink:href="#DejaVuSerif-57"/>
     <use transform="translate(370.3125 0.78125)" xlink:href="#DejaVuSerif-44"/>
     <use transform="translate(402.099609 0.78125)" xlink:href="#DejaVuSerif-32"/>
     <use transform="translate(433.886719 0.78125)" xlink:href="#Cmmi10-191"/>
     <use transform="translate(477.587891 0.78125)" xlink:href="#DejaVuSerif-32"/>
     <use transform="translate(509.375 0.78125)" xlink:href="#DejaVuSerif-61"/>
     <use transform="translate(593.164062 0.78125)" xlink:href="#DejaVuSerif-32"/>
     <use transform="translate(624.951172 0.78125)" xlink:href="#DejaVuSerif-48"/>
     <use transform="translate(688.574219 0.78125)" xlink:href="#DejaVuSerif-46"/>
     <use transform="translate(720.361328 0.78125)" xlink:href="#DejaVuSerif-49"/>
     <use transform="translate(783.984375 0.78125)" xlink:href="#DejaVuSerif-50"/>
     <use transform="translate(847.607422 0.78125)" xlink:href="#DejaVuSerif-53"/>
    </g>
   </g>
  </g>
  <g id="axes_2">
   <g id="patch_7">
    <path d="M 399.865993 225.549375 
L 695.277757 225.549375 
L 695.277757 25.965375 
L 399.865993 25.965375 
z
" style="fill:#ffffff;"/>
   </g>
   <g id="matplotlib.axis_3">
    <g id="xtick_7">
     <g id="line2d_16">
      <g>
       <use style="stroke:#000000;stroke-width:0.8;" x="413.2938" xlink:href="#mb9f7aadad7" y="225.549375"/>
      </g>
     </g>
     <g id="text_13">
      <!-- 0 -->
      <g transform="translate(408.84005 243.187188)scale(0.14 -0.14)">
       <use xlink:href="#DejaVuSerif-48"/>
      </g>
     </g>
    </g>
    <g id="xtick_8">
     <g id="line2d_17">
      <g>
       <use style="stroke:#000000;stroke-width:0.8;" x="469.242998" xlink:href="#mb9f7aadad7" y="225.549375"/>
      </g>
     </g>
     <g id="text_14">
      <!-- 5 -->
      <g transform="translate(464.789248 243.187188)scale(0.14 -0.14)">
       <use xlink:href="#DejaVuSerif-53"/>
      </g>
     </g>
    </g>
    <g id="xtick_9">
     <g id="line2d_18">
      <g>
       <use style="stroke:#000000;stroke-width:0.8;" x="525.192196" xlink:href="#mb9f7aadad7" y="225.549375"/>
      </g>
     </g>
     <g id="text_15">
      <!-- 10 -->
      <g transform="translate(516.284696 243.187188)scale(0.14 -0.14)">
       <use xlink:href="#DejaVuSerif-49"/>
       <use x="63.623047" xlink:href="#DejaVuSerif-48"/>
      </g>
     </g>
    </g>
    <g id="xtick_10">
     <g id="line2d_19">
      <g>
       <use style="stroke:#000000;stroke-width:0.8;" x="581.141394" xlink:href="#mb9f7aadad7" y="225.549375"/>
      </g>
     </g>
     <g id="text_16">
      <!-- 15 -->
      <g transform="translate(572.233894 243.187188)scale(0.14 -0.14)">
       <use xlink:href="#DejaVuSerif-49"/>
       <use x="63.623047" xlink:href="#DejaVuSerif-53"/>
      </g>
     </g>
    </g>
    <g id="xtick_11">
     <g id="line2d_20">
      <g>
       <use style="stroke:#000000;stroke-width:0.8;" x="637.090592" xlink:href="#mb9f7aadad7" y="225.549375"/>
      </g>
     </g>
     <g id="text_17">
      <!-- 20 -->
      <g transform="translate(628.183092 243.187188)scale(0.14 -0.14)">
       <use xlink:href="#DejaVuSerif-50"/>
       <use x="63.623047" xlink:href="#DejaVuSerif-48"/>
      </g>
     </g>
    </g>
    <g id="xtick_12">
     <g id="line2d_21">
      <g>
       <use style="stroke:#000000;stroke-width:0.8;" x="693.039789" xlink:href="#mb9f7aadad7" y="225.549375"/>
      </g>
     </g>
     <g id="text_18">
      <!-- 25 -->
      <g transform="translate(684.132289 243.187188)scale(0.14 -0.14)">
       <use xlink:href="#DejaVuSerif-50"/>
       <use x="63.623047" xlink:href="#DejaVuSerif-53"/>
      </g>
     </g>
    </g>
   </g>
   <g id="matplotlib.axis_4">
    <g id="ytick_6">
     <g id="line2d_22">
      <g>
       <use style="stroke:#000000;stroke-width:0.8;" x="399.865993" xlink:href="#m527cdbcc82" y="210.285995"/>
      </g>
     </g>
     <g id="text_19">
      <!-- −0.010 -->
      <defs>
       <path d="M 10.59375 35.296875 
L 73.1875 35.296875 
L 73.1875 27.390625 
L 10.59375 27.390625 
z
" id="DejaVuSerif-8722"/>
      </defs>
      <g transform="translate(341.055055 215.604901)scale(0.14 -0.14)">
       <use xlink:href="#DejaVuSerif-8722"/>
       <use x="83.789062" xlink:href="#DejaVuSerif-48"/>
       <use x="147.412109" xlink:href="#DejaVuSerif-46"/>
       <use x="179.199219" xlink:href="#DejaVuSerif-48"/>
       <use x="242.822266" xlink:href="#DejaVuSerif-49"/>
       <use x="306.445312" xlink:href="#DejaVuSerif-48"/>
      </g>
     </g>
    </g>
    <g id="ytick_7">
     <g id="line2d_23">
      <g>
       <use style="stroke:#000000;stroke-width:0.8;" x="399.865993" xlink:href="#m527cdbcc82" y="178.780849"/>
      </g>
     </g>
     <g id="text_20">
      <!-- −0.008 -->
      <g transform="translate(341.055055 184.099755)scale(0.14 -0.14)">
       <use xlink:href="#DejaVuSerif-8722"/>
       <use x="83.789062" xlink:href="#DejaVuSerif-48"/>
       <use x="147.412109" xlink:href="#DejaVuSerif-46"/>
       <use x="179.199219" xlink:href="#DejaVuSerif-48"/>
       <use x="242.822266" xlink:href="#DejaVuSerif-48"/>
       <use x="306.445312" xlink:href="#DejaVuSerif-56"/>
      </g>
     </g>
    </g>
    <g id="ytick_8">
     <g id="line2d_24">
      <g>
       <use style="stroke:#000000;stroke-width:0.8;" x="399.865993" xlink:href="#m527cdbcc82" y="147.275703"/>
      </g>
     </g>
     <g id="text_21">
      <!-- −0.006 -->
      <g transform="translate(341.055055 152.594609)scale(0.14 -0.14)">
       <use xlink:href="#DejaVuSerif-8722"/>
       <use x="83.789062" xlink:href="#DejaVuSerif-48"/>
       <use x="147.412109" xlink:href="#DejaVuSerif-46"/>
       <use x="179.199219" xlink:href="#DejaVuSerif-48"/>
       <use x="242.822266" xlink:href="#DejaVuSerif-48"/>
       <use x="306.445312" xlink:href="#DejaVuSerif-54"/>
      </g>
     </g>
    </g>
    <g id="ytick_9">
     <g id="line2d_25">
      <g>
       <use style="stroke:#000000;stroke-width:0.8;" x="399.865993" xlink:href="#m527cdbcc82" y="115.770557"/>
      </g>
     </g>
     <g id="text_22">
      <!-- −0.004 -->
      <g transform="translate(341.055055 121.089463)scale(0.14 -0.14)">
       <use xlink:href="#DejaVuSerif-8722"/>
       <use x="83.789062" xlink:href="#DejaVuSerif-48"/>
       <use x="147.412109" xlink:href="#DejaVuSerif-46"/>
       <use x="179.199219" xlink:href="#DejaVuSerif-48"/>
       <use x="242.822266" xlink:href="#DejaVuSerif-48"/>
       <use x="306.445312" xlink:href="#DejaVuSerif-52"/>
      </g>
     </g>
    </g>
    <g id="ytick_10">
     <g id="line2d_26">
      <g>
       <use style="stroke:#000000;stroke-width:0.8;" x="399.865993" xlink:href="#m527cdbcc82" y="84.265411"/>
      </g>
     </g>
     <g id="text_23">
      <!-- −0.002 -->
      <g transform="translate(341.055055 89.584317)scale(0.14 -0.14)">
       <use xlink:href="#DejaVuSerif-8722"/>
       <use x="83.789062" xlink:href="#DejaVuSerif-48"/>
       <use x="147.412109" xlink:href="#DejaVuSerif-46"/>
       <use x="179.199219" xlink:href="#DejaVuSerif-48"/>
       <use x="242.822266" xlink:href="#DejaVuSerif-48"/>
       <use x="306.445312" xlink:href="#DejaVuSerif-50"/>
      </g>
     </g>
    </g>
    <g id="ytick_11">
     <g id="line2d_27">
      <g>
       <use style="stroke:#000000;stroke-width:0.8;" x="399.865993" xlink:href="#m527cdbcc82" y="52.760265"/>
      </g>
     </g>
     <g id="text_24">
      <!-- 0.000 -->
      <g transform="translate(352.786618 58.079171)scale(0.14 -0.14)">
       <use xlink:href="#DejaVuSerif-48"/>
       <use x="63.623047" xlink:href="#DejaVuSerif-46"/>
       <use x="95.410156" xlink:href="#DejaVuSerif-48"/>
       <use x="159.033203" xlink:href="#DejaVuSerif-48"/>
       <use x="222.65625" xlink:href="#DejaVuSerif-48"/>
      </g>
     </g>
    </g>
   </g>
   <g id="line2d_28">
    <path clip-path="url(#p74530d3f09)" d="M 413.2938 120.81889 
L 424.48364 94.248418 
L 435.673479 88.112496 
L 446.863319 110.590366 
L 458.053158 118.864973 
L 469.242998 111.418964 
L 480.432838 89.906716 
L 491.622677 61.413371 
L 502.812517 45.81702 
L 514.002356 40.097307 
L 525.192196 50.37102 
L 536.382035 72.735736 
L 547.571875 71.658809 
L 558.761715 59.728486 
L 569.951554 53.919165 
L 581.141394 55.874083 
L 592.331233 65.56818 
L 603.521073 64.267827 
L 614.710912 50.532564 
L 625.900752 42.609002 
L 637.090592 45.436248 
L 648.280431 56.182045 
L 659.470271 65.703386 
L 670.66011 63.523424 
L 681.84995 64.44963 
" style="fill:none;stroke:#1f77b4;stroke-linecap:square;stroke-width:1.5;"/>
   </g>
   <g id="line2d_29">
    <path clip-path="url(#p74530d3f09)" d="M 413.2938 216.477375 
L 424.48364 175.57591 
L 435.673479 128.037025 
L 446.863319 115.94301 
L 458.053158 138.914518 
L 469.242998 162.48353 
L 480.432838 139.091484 
L 491.622677 93.466093 
L 502.812517 71.259268 
L 514.002356 70.554546 
L 525.192196 76.205791 
L 536.382035 63.786206 
L 547.571875 58.227511 
L 558.761715 52.717588 
L 569.951554 48.147234 
L 581.141394 46.851887 
L 592.331233 48.080873 
L 603.521073 52.542783 
L 614.710912 52.326461 
L 625.900752 51.097139 
L 637.090592 55.144513 
L 648.280431 58.840081 
L 659.470271 82.87384 
L 670.66011 107.281639 
L 681.84995 108.736082 
" style="fill:none;stroke:#ff7f0e;stroke-linecap:square;stroke-width:1.5;"/>
   </g>
   <g id="line2d_30">
    <path clip-path="url(#p74530d3f09)" d="M 413.2938 109.173016 
L 424.48364 86.854706 
L 435.673479 69.44884 
L 446.863319 56.014614 
L 458.053158 50.118598 
L 469.242998 57.930188 
L 480.432838 76.578756 
L 491.622677 68.151399 
L 502.812517 45.433303 
L 514.002356 48.323573 
L 525.192196 74.504578 
L 536.382035 81.171846 
L 547.571875 58.676951 
L 558.761715 38.315918 
L 569.951554 35.734683 
L 581.141394 53.580738 
L 592.331233 63.027486 
L 603.521073 57.106146 
L 614.710912 47.063469 
L 625.900752 47.483585 
L 637.090592 54.532693 
L 648.280431 52.353183 
L 659.470271 58.541359 
L 670.66011 73.899654 
L 681.84995 81.802329 
" style="fill:none;stroke:#2ca02c;stroke-linecap:square;stroke-width:1.5;"/>
   </g>
   <g id="line2d_31">
    <path clip-path="url(#p74530d3f09)" d="M 413.2938 132.306241 
L 424.48364 119.099129 
L 435.673479 110.142357 
L 446.863319 97.515733 
L 458.053158 84.027117 
L 469.242998 79.907856 
L 480.432838 63.578528 
L 491.622677 52.562191 
L 502.812517 61.573669 
L 514.002356 71.476984 
L 525.192196 81.965735 
L 536.382035 97.937506 
L 547.571875 83.774319 
L 558.761715 47.753878 
L 569.951554 35.037375 
L 581.141394 57.559701 
L 592.331233 76.062137 
L 603.521073 70.141765 
L 614.710912 57.423864 
L 625.900752 55.361804 
L 637.090592 61.964468 
L 648.280431 72.802842 
L 659.470271 81.720484 
L 670.66011 82.746622 
L 681.84995 80.079447 
" style="fill:none;stroke:#d62728;stroke-linecap:square;stroke-width:1.5;"/>
   </g>
   <g id="patch_8">
    <path d="M 399.865993 225.549375 
L 399.865993 25.965375 
" style="fill:none;stroke:#000000;stroke-linecap:square;stroke-linejoin:miter;stroke-width:0.8;"/>
   </g>
   <g id="patch_9">
    <path d="M 695.277757 225.549375 
L 695.277757 25.965375 
" style="fill:none;stroke:#000000;stroke-linecap:square;stroke-linejoin:miter;stroke-width:0.8;"/>
   </g>
   <g id="patch_10">
    <path d="M 399.865993 225.549375 
L 695.277757 225.549375 
" style="fill:none;stroke:#000000;stroke-linecap:square;stroke-linejoin:miter;stroke-width:0.8;"/>
   </g>
   <g id="patch_11">
    <path d="M 399.865993 25.965375 
L 695.277757 25.965375 
" style="fill:none;stroke:#000000;stroke-linecap:square;stroke-linejoin:miter;stroke-width:0.8;"/>
   </g>
   <g id="text_25">
    <!-- $\alpha$ = 0.9, $\tau$ = 2.0 -->
    <g transform="translate(481.715875 19.965375)scale(0.168 -0.168)">
     <use transform="translate(0 0.78125)" xlink:href="#Cmmi10-174"/>
     <use transform="translate(63.916016 0.78125)" xlink:href="#DejaVuSerif-32"/>
     <use transform="translate(95.703125 0.78125)" xlink:href="#DejaVuSerif-61"/>
     <use transform="translate(179.492188 0.78125)" xlink:href="#DejaVuSerif-32"/>
     <use transform="translate(211.279297 0.78125)" xlink:href="#DejaVuSerif-48"/>
     <use transform="translate(274.902344 0.78125)" xlink:href="#DejaVuSerif-46"/>
     <use transform="translate(306.689453 0.78125)" xlink:href="#DejaVuSerif-57"/>
     <use transform="translate(370.3125 0.78125)" xlink:href="#DejaVuSerif-44"/>
     <use transform="translate(402.099609 0.78125)" xlink:href="#DejaVuSerif-32"/>
     <use transform="translate(433.886719 0.78125)" xlink:href="#Cmmi10-191"/>
     <use transform="translate(477.587891 0.78125)" xlink:href="#DejaVuSerif-32"/>
     <use transform="translate(509.375 0.78125)" xlink:href="#DejaVuSerif-61"/>
     <use transform="translate(593.164062 0.78125)" xlink:href="#DejaVuSerif-32"/>
     <use transform="translate(624.951172 0.78125)" xlink:href="#DejaVuSerif-50"/>
     <use transform="translate(688.574219 0.78125)" xlink:href="#DejaVuSerif-46"/>
     <use transform="translate(720.361328 0.78125)" xlink:href="#DejaVuSerif-48"/>
    </g>
   </g>
  </g>
  <g id="axes_3">
   <g id="patch_12">
    <path d="M 754.36011 225.549375 
L 1049.771875 225.549375 
L 1049.771875 25.965375 
L 754.36011 25.965375 
z
" style="fill:#ffffff;"/>
   </g>
   <g id="matplotlib.axis_5">
    <g id="xtick_13">
     <g id="line2d_32">
      <g>
       <use style="stroke:#000000;stroke-width:0.8;" x="767.787918" xlink:href="#mb9f7aadad7" y="225.549375"/>
      </g>
     </g>
     <g id="text_26">
      <!-- 0 -->
      <g transform="translate(763.334168 243.187188)scale(0.14 -0.14)">
       <use xlink:href="#DejaVuSerif-48"/>
      </g>
     </g>
    </g>
    <g id="xtick_14">
     <g id="line2d_33">
      <g>
       <use style="stroke:#000000;stroke-width:0.8;" x="823.737116" xlink:href="#mb9f7aadad7" y="225.549375"/>
      </g>
     </g>
     <g id="text_27">
      <!-- 5 -->
      <g transform="translate(819.283366 243.187188)scale(0.14 -0.14)">
       <use xlink:href="#DejaVuSerif-53"/>
      </g>
     </g>
    </g>
    <g id="xtick_15">
     <g id="line2d_34">
      <g>
       <use style="stroke:#000000;stroke-width:0.8;" x="879.686314" xlink:href="#mb9f7aadad7" y="225.549375"/>
      </g>
     </g>
     <g id="text_28">
      <!-- 10 -->
      <g transform="translate(870.778814 243.187188)scale(0.14 -0.14)">
       <use xlink:href="#DejaVuSerif-49"/>
       <use x="63.623047" xlink:href="#DejaVuSerif-48"/>
      </g>
     </g>
    </g>
    <g id="xtick_16">
     <g id="line2d_35">
      <g>
       <use style="stroke:#000000;stroke-width:0.8;" x="935.635511" xlink:href="#mb9f7aadad7" y="225.549375"/>
      </g>
     </g>
     <g id="text_29">
      <!-- 15 -->
      <g transform="translate(926.728011 243.187188)scale(0.14 -0.14)">
       <use xlink:href="#DejaVuSerif-49"/>
       <use x="63.623047" xlink:href="#DejaVuSerif-53"/>
      </g>
     </g>
    </g>
    <g id="xtick_17">
     <g id="line2d_36">
      <g>
       <use style="stroke:#000000;stroke-width:0.8;" x="991.584709" xlink:href="#mb9f7aadad7" y="225.549375"/>
      </g>
     </g>
     <g id="text_30">
      <!-- 20 -->
      <g transform="translate(982.677209 243.187188)scale(0.14 -0.14)">
       <use xlink:href="#DejaVuSerif-50"/>
       <use x="63.623047" xlink:href="#DejaVuSerif-48"/>
      </g>
     </g>
    </g>
    <g id="xtick_18">
     <g id="line2d_37">
      <g>
       <use style="stroke:#000000;stroke-width:0.8;" x="1047.533907" xlink:href="#mb9f7aadad7" y="225.549375"/>
      </g>
     </g>
     <g id="text_31">
      <!-- 25 -->
      <g transform="translate(1038.626407 243.187188)scale(0.14 -0.14)">
       <use xlink:href="#DejaVuSerif-50"/>
       <use x="63.623047" xlink:href="#DejaVuSerif-53"/>
      </g>
     </g>
    </g>
   </g>
   <g id="matplotlib.axis_6">
    <g id="ytick_12">
     <g id="line2d_38">
      <g>
       <use style="stroke:#000000;stroke-width:0.8;" x="754.36011" xlink:href="#m527cdbcc82" y="224.541236"/>
      </g>
     </g>
     <g id="text_32">
      <!-- −0.008 -->
      <g transform="translate(695.549173 229.860142)scale(0.14 -0.14)">
       <use xlink:href="#DejaVuSerif-8722"/>
       <use x="83.789062" xlink:href="#DejaVuSerif-48"/>
       <use x="147.412109" xlink:href="#DejaVuSerif-46"/>
       <use x="179.199219" xlink:href="#DejaVuSerif-48"/>
       <use x="242.822266" xlink:href="#DejaVuSerif-48"/>
       <use x="306.445312" xlink:href="#DejaVuSerif-56"/>
      </g>
     </g>
    </g>
    <g id="ytick_13">
     <g id="line2d_39">
      <g>
       <use style="stroke:#000000;stroke-width:0.8;" x="754.36011" xlink:href="#m527cdbcc82" y="189.513199"/>
      </g>
     </g>
     <g id="text_33">
      <!-- −0.006 -->
      <g transform="translate(695.549173 194.832105)scale(0.14 -0.14)">
       <use xlink:href="#DejaVuSerif-8722"/>
       <use x="83.789062" xlink:href="#DejaVuSerif-48"/>
       <use x="147.412109" xlink:href="#DejaVuSerif-46"/>
       <use x="179.199219" xlink:href="#DejaVuSerif-48"/>
       <use x="242.822266" xlink:href="#DejaVuSerif-48"/>
       <use x="306.445312" xlink:href="#DejaVuSerif-54"/>
      </g>
     </g>
    </g>
    <g id="ytick_14">
     <g id="line2d_40">
      <g>
       <use style="stroke:#000000;stroke-width:0.8;" x="754.36011" xlink:href="#m527cdbcc82" y="154.485162"/>
      </g>
     </g>
     <g id="text_34">
      <!-- −0.004 -->
      <g transform="translate(695.549173 159.804068)scale(0.14 -0.14)">
       <use xlink:href="#DejaVuSerif-8722"/>
       <use x="83.789062" xlink:href="#DejaVuSerif-48"/>
       <use x="147.412109" xlink:href="#DejaVuSerif-46"/>
       <use x="179.199219" xlink:href="#DejaVuSerif-48"/>
       <use x="242.822266" xlink:href="#DejaVuSerif-48"/>
       <use x="306.445312" xlink:href="#DejaVuSerif-52"/>
      </g>
     </g>
    </g>
    <g id="ytick_15">
     <g id="line2d_41">
      <g>
       <use style="stroke:#000000;stroke-width:0.8;" x="754.36011" xlink:href="#m527cdbcc82" y="119.457125"/>
      </g>
     </g>
     <g id="text_35">
      <!-- −0.002 -->
      <g transform="translate(695.549173 124.776031)scale(0.14 -0.14)">
       <use xlink:href="#DejaVuSerif-8722"/>
       <use x="83.789062" xlink:href="#DejaVuSerif-48"/>
       <use x="147.412109" xlink:href="#DejaVuSerif-46"/>
       <use x="179.199219" xlink:href="#DejaVuSerif-48"/>
       <use x="242.822266" xlink:href="#DejaVuSerif-48"/>
       <use x="306.445312" xlink:href="#DejaVuSerif-50"/>
      </g>
     </g>
    </g>
    <g id="ytick_16">
     <g id="line2d_42">
      <g>
       <use style="stroke:#000000;stroke-width:0.8;" x="754.36011" xlink:href="#m527cdbcc82" y="84.429088"/>
      </g>
     </g>
     <g id="text_36">
      <!-- 0.000 -->
      <g transform="translate(707.280735 89.747994)scale(0.14 -0.14)">
       <use xlink:href="#DejaVuSerif-48"/>
       <use x="63.623047" xlink:href="#DejaVuSerif-46"/>
       <use x="95.410156" xlink:href="#DejaVuSerif-48"/>
       <use x="159.033203" xlink:href="#DejaVuSerif-48"/>
       <use x="222.65625" xlink:href="#DejaVuSerif-48"/>
      </g>
     </g>
    </g>
    <g id="ytick_17">
     <g id="line2d_43">
      <g>
       <use style="stroke:#000000;stroke-width:0.8;" x="754.36011" xlink:href="#m527cdbcc82" y="49.401051"/>
      </g>
     </g>
     <g id="text_37">
      <!-- 0.002 -->
      <g transform="translate(707.280735 54.719957)scale(0.14 -0.14)">
       <use xlink:href="#DejaVuSerif-48"/>
       <use x="63.623047" xlink:href="#DejaVuSerif-46"/>
       <use x="95.410156" xlink:href="#DejaVuSerif-48"/>
       <use x="159.033203" xlink:href="#DejaVuSerif-48"/>
       <use x="222.65625" xlink:href="#DejaVuSerif-50"/>
      </g>
     </g>
    </g>
   </g>
   <g id="line2d_44">
    <path clip-path="url(#p35621cd78c)" d="M 767.787918 125.98838 
L 778.977757 85.574314 
L 790.167597 74.154492 
L 801.357436 36.851837 
L 812.547276 88.340075 
L 823.737116 152.914531 
L 834.926955 82.748395 
L 846.116795 93.196162 
L 857.306634 108.852932 
L 868.496474 52.864267 
L 879.686314 93.854514 
L 890.876153 79.270163 
L 902.065993 84.668099 
L 913.255832 115.230453 
L 924.445672 95.902444 
L 935.635511 83.088028 
L 946.825351 83.634021 
L 958.015191 105.864292 
L 969.20503 95.587887 
L 980.39487 100.760984 
L 991.584709 71.658745 
L 1002.774549 87.978893 
L 1013.964388 113.915429 
L 1025.154228 110.86042 
L 1036.344068 95.78562 
" style="fill:none;stroke:#1f77b4;stroke-linecap:square;stroke-width:1.5;"/>
   </g>
   <g id="line2d_45">
    <path clip-path="url(#p35621cd78c)" d="M 767.787918 158.073326 
L 778.977757 157.340767 
L 790.167597 147.675314 
L 801.357436 195.871655 
L 812.547276 133.851179 
L 823.737116 80.014117 
L 834.926955 95.581429 
L 846.116795 107.093018 
L 857.306634 143.776681 
L 868.496474 94.609447 
L 879.686314 107.153739 
L 890.876153 96.531725 
L 902.065993 86.560897 
L 913.255832 95.866744 
L 924.445672 97.174255 
L 935.635511 113.37873 
L 946.825351 93.200742 
L 958.015191 88.687836 
L 969.20503 84.135887 
L 980.39487 106.287201 
L 991.584709 116.740945 
L 1002.774549 100.772792 
L 1013.964388 170.848807 
L 1025.154228 114.545653 
L 1036.344068 141.377995 
" style="fill:none;stroke:#ff7f0e;stroke-linecap:square;stroke-width:1.5;"/>
   </g>
   <g id="line2d_46">
    <path clip-path="url(#p35621cd78c)" d="M 767.787918 176.232117 
L 778.977757 82.707096 
L 790.167597 94.253553 
L 801.357436 35.037375 
L 812.547276 68.494101 
L 823.737116 153.314552 
L 834.926955 49.101768 
L 846.116795 100.389526 
L 857.306634 71.319309 
L 868.496474 88.379697 
L 879.686314 90.075756 
L 890.876153 78.481644 
L 902.065993 78.595176 
L 913.255832 54.235279 
L 924.445672 120.345315 
L 935.635511 61.322716 
L 946.825351 89.091645 
L 958.015191 104.024775 
L 969.20503 89.632319 
L 980.39487 89.980537 
L 991.584709 91.752218 
L 1002.774549 140.520789 
L 1013.964388 134.25251 
L 1025.154228 207.623787 
L 1036.344068 39.654059 
" style="fill:none;stroke:#2ca02c;stroke-linecap:square;stroke-width:1.5;"/>
   </g>
   <g id="line2d_47">
    <path clip-path="url(#p35621cd78c)" d="M 767.787918 216.477375 
L 778.977757 149.74093 
L 790.167597 197.455927 
L 801.357436 125.74487 
L 812.547276 132.105179 
L 823.737116 67.533857 
L 834.926955 100.453708 
L 846.116795 123.764781 
L 857.306634 117.392542 
L 868.496474 90.596867 
L 879.686314 123.794413 
L 890.876153 76.129745 
L 902.065993 124.486296 
L 913.255832 69.068012 
L 924.445672 80.772274 
L 935.635511 96.055063 
L 946.825351 79.069146 
L 958.015191 86.218166 
L 969.20503 94.398602 
L 980.39487 93.915368 
L 991.584709 86.764821 
L 1002.774549 112.81581 
L 1013.964388 50.669051 
L 1025.154228 91.090408 
L 1036.344068 140.116571 
" style="fill:none;stroke:#d62728;stroke-linecap:square;stroke-width:1.5;"/>
   </g>
   <g id="patch_13">
    <path d="M 754.36011 225.549375 
L 754.36011 25.965375 
" style="fill:none;stroke:#000000;stroke-linecap:square;stroke-linejoin:miter;stroke-width:0.8;"/>
   </g>
   <g id="patch_14">
    <path d="M 1049.771875 225.549375 
L 1049.771875 25.965375 
" style="fill:none;stroke:#000000;stroke-linecap:square;stroke-linejoin:miter;stroke-width:0.8;"/>
   </g>
   <g id="patch_15">
    <path d="M 754.36011 225.549375 
L 1049.771875 225.549375 
" style="fill:none;stroke:#000000;stroke-linecap:square;stroke-linejoin:miter;stroke-width:0.8;"/>
   </g>
   <g id="patch_16">
    <path d="M 754.36011 25.965375 
L 1049.771875 25.965375 
" style="fill:none;stroke:#000000;stroke-linecap:square;stroke-linejoin:miter;stroke-width:0.8;"/>
   </g>
   <g id="text_38">
    <!-- $\alpha$ = 0.9, $\tau$ = 16.0 -->
    <g transform="translate(830.833993 19.965375)scale(0.168 -0.168)">
     <use transform="translate(0 0.78125)" xlink:href="#Cmmi10-174"/>
     <use transform="translate(63.916016 0.78125)" xlink:href="#DejaVuSerif-32"/>
     <use transform="translate(95.703125 0.78125)" xlink:href="#DejaVuSerif-61"/>
     <use transform="translate(179.492188 0.78125)" xlink:href="#DejaVuSerif-32"/>
     <use transform="translate(211.279297 0.78125)" xlink:href="#DejaVuSerif-48"/>
     <use transform="translate(274.902344 0.78125)" xlink:href="#DejaVuSerif-46"/>
     <use transform="translate(306.689453 0.78125)" xlink:href="#DejaVuSerif-57"/>
     <use transform="translate(370.3125 0.78125)" xlink:href="#DejaVuSerif-44"/>
     <use transform="translate(402.099609 0.78125)" xlink:href="#DejaVuSerif-32"/>
     <use transform="translate(433.886719 0.78125)" xlink:href="#Cmmi10-191"/>
     <use transform="translate(477.587891 0.78125)" xlink:href="#DejaVuSerif-32"/>
     <use transform="translate(509.375 0.78125)" xlink:href="#DejaVuSerif-61"/>
     <use transform="translate(593.164062 0.78125)" xlink:href="#DejaVuSerif-32"/>
     <use transform="translate(624.951172 0.78125)" xlink:href="#DejaVuSerif-49"/>
     <use transform="translate(688.574219 0.78125)" xlink:href="#DejaVuSerif-54"/>
     <use transform="translate(752.197266 0.78125)" xlink:href="#DejaVuSerif-46"/>
     <use transform="translate(783.984375 0.78125)" xlink:href="#DejaVuSerif-48"/>
    </g>
   </g>
  </g>
 </g>
 <defs>
  <clipPath id="pc4c212e5e4">
   <rect height="199.584" width="295.411765" x="45.371875" y="25.965375"/>
  </clipPath>
  <clipPath id="p74530d3f09">
   <rect height="199.584" width="295.411765" x="399.865993" y="25.965375"/>
  </clipPath>
  <clipPath id="p35621cd78c">
   <rect height="199.584" width="295.411765" x="754.36011" y="25.965375"/>
  </clipPath>
 </defs>
</svg>
