<?xml version="1.0" encoding="utf-8" standalone="no"?>
<!DOCTYPE svg PUBLIC "-//W3C//DTD SVG 1.1//EN"
  "http://www.w3.org/Graphics/SVG/1.1/DTD/svg11.dtd">
<!-- Created with matplotlib (https://matplotlib.org/) -->
<svg height="254.4025pt" version="1.1" viewBox="0 0 266.74 254.4025" width="266.74pt" xmlns="http://www.w3.org/2000/svg" xmlns:xlink="http://www.w3.org/1999/xlink">
 <defs>
  <style type="text/css">
*{stroke-linecap:butt;stroke-linejoin:round;}
  </style>
 </defs>
 <g id="figure_1">
  <g id="patch_1">
   <path d="M 0 254.4025 
L 266.74 254.4025 
L 266.74 0 
L 0 0 
z
" style="fill:#ffffff;"/>
  </g>
  <g id="axes_1">
   <g id="patch_2">
    <path d="M 32.84 232.46 
L 256.04 232.46 
L 256.04 10.7 
L 32.84 10.7 
z
" style="fill:#ffffff;"/>
   </g>
   <g id="matplotlib.axis_1">
    <g id="xtick_1">
     <g id="line2d_1">
      <path clip-path="url(#p7b41448ed2)" d="M 61.431736 232.46 
L 61.431736 10.7 
" style="fill:none;stroke:#b0b0b0;stroke-linecap:square;stroke-width:0.8;"/>
     </g>
     <g id="line2d_2">
      <defs>
       <path d="M 0 0 
L 0 3.5 
" id="m2cff8e7182" style="stroke:#000000;stroke-width:0.8;"/>
      </defs>
      <g>
       <use style="stroke:#000000;stroke-width:0.8;" x="61.431736" xlink:href="#m2cff8e7182" y="232.46"/>
      </g>
     </g>
     <g id="text_1">
      <!-- $\mathdefault{2^{-3}}$ -->
      <defs>
       <path d="M 12.796875 55.515625 
L 7.328125 55.515625 
L 7.328125 68.5 
Q 12.546875 71.296875 17.84375 72.75 
Q 23.140625 74.21875 28.21875 74.21875 
Q 39.59375 74.21875 46.1875 68.703125 
Q 52.78125 63.1875 52.78125 53.71875 
Q 52.78125 43.015625 37.84375 28.125 
Q 36.671875 27 36.078125 26.421875 
L 17.671875 8.015625 
L 48.09375 8.015625 
L 48.09375 17 
L 53.8125 17 
L 53.8125 0 
L 6.78125 0 
L 6.78125 5.328125 
L 28.90625 27.390625 
Q 36.234375 34.71875 39.359375 40.84375 
Q 42.484375 46.96875 42.484375 53.71875 
Q 42.484375 61.078125 38.640625 65.234375 
Q 34.8125 69.390625 28.078125 69.390625 
Q 21.09375 69.390625 17.28125 65.921875 
Q 13.484375 62.453125 12.796875 55.515625 
z
" id="DejaVuSerif-50"/>
       <path d="M 4.390625 30.609375 
L 29.390625 30.609375 
L 29.390625 23 
L 4.390625 23 
z
" id="DejaVuSerif-45"/>
       <path d="M 9.71875 69.828125 
Q 15.4375 71.96875 20.671875 73.09375 
Q 25.921875 74.21875 30.515625 74.21875 
Q 41.21875 74.21875 47.21875 69.59375 
Q 53.21875 64.984375 53.21875 56.78125 
Q 53.21875 50.203125 49.0625 45.78125 
Q 44.921875 41.359375 37.3125 39.796875 
Q 46.296875 38.53125 51.25 33.28125 
Q 56.203125 28.03125 56.203125 19.671875 
Q 56.203125 9.46875 49.34375 4.015625 
Q 42.484375 -1.421875 29.59375 -1.421875 
Q 23.875 -1.421875 18.421875 -0.1875 
Q 12.984375 1.03125 7.625 3.515625 
L 7.625 17.671875 
L 13.09375 17.671875 
Q 13.578125 10.640625 17.828125 7.03125 
Q 22.078125 3.421875 29.78125 3.421875 
Q 37.25 3.421875 41.578125 7.734375 
Q 45.90625 12.0625 45.90625 19.578125 
Q 45.90625 28.171875 41.453125 32.59375 
Q 37.015625 37.015625 28.421875 37.015625 
L 23.78125 37.015625 
L 23.78125 42 
L 26.21875 42 
Q 34.765625 42 39.03125 45.53125 
Q 43.3125 49.078125 43.3125 56.203125 
Q 43.3125 62.59375 39.796875 65.984375 
Q 36.28125 69.390625 29.6875 69.390625 
Q 23.09375 69.390625 19.453125 66.265625 
Q 15.828125 63.140625 15.1875 56.984375 
L 9.71875 56.984375 
z
" id="DejaVuSerif-51"/>
      </defs>
      <g transform="translate(55.991736 245.53875)scale(0.08 -0.08)">
       <use transform="translate(0 0.7125)" xlink:href="#DejaVuSerif-50"/>
       <use transform="translate(64.531406 37.046875)scale(0.7)" xlink:href="#DejaVuSerif-45"/>
       <use transform="translate(88.18375 37.046875)scale(0.7)" xlink:href="#DejaVuSerif-51"/>
      </g>
     </g>
    </g>
    <g id="xtick_2">
     <g id="line2d_3">
      <path clip-path="url(#p7b41448ed2)" d="M 98.324298 232.46 
L 98.324298 10.7 
" style="fill:none;stroke:#b0b0b0;stroke-linecap:square;stroke-width:0.8;"/>
     </g>
     <g id="line2d_4">
      <g>
       <use style="stroke:#000000;stroke-width:0.8;" x="98.324298" xlink:href="#m2cff8e7182" y="232.46"/>
      </g>
     </g>
     <g id="text_2">
      <!-- $\mathdefault{2^{-1}}$ -->
      <defs>
       <path d="M 14.203125 0 
L 14.203125 5.171875 
L 26.90625 5.171875 
L 26.90625 65.828125 
L 12.203125 56.296875 
L 12.203125 62.703125 
L 29.984375 74.21875 
L 36.71875 74.21875 
L 36.71875 5.171875 
L 49.421875 5.171875 
L 49.421875 0 
z
" id="DejaVuSerif-49"/>
      </defs>
      <g transform="translate(92.884298 245.53875)scale(0.08 -0.08)">
       <use transform="translate(0 0.7125)" xlink:href="#DejaVuSerif-50"/>
       <use transform="translate(64.531406 37.046875)scale(0.7)" xlink:href="#DejaVuSerif-45"/>
       <use transform="translate(88.18375 37.046875)scale(0.7)" xlink:href="#DejaVuSerif-49"/>
      </g>
     </g>
    </g>
    <g id="xtick_3">
     <g id="line2d_5">
      <path clip-path="url(#p7b41448ed2)" d="M 135.21686 232.46 
L 135.21686 10.7 
" style="fill:none;stroke:#b0b0b0;stroke-linecap:square;stroke-width:0.8;"/>
     </g>
     <g id="line2d_6">
      <g>
       <use style="stroke:#000000;stroke-width:0.8;" x="135.21686" xlink:href="#m2cff8e7182" y="232.46"/>
      </g>
     </g>
     <g id="text_3">
      <!-- $\mathdefault{2^{1}}$ -->
      <g transform="translate(130.73686 245.53875)scale(0.08 -0.08)">
       <use transform="translate(0 0.7125)" xlink:href="#DejaVuSerif-50"/>
       <use transform="translate(64.531406 37.046875)scale(0.7)" xlink:href="#DejaVuSerif-49"/>
      </g>
     </g>
    </g>
    <g id="xtick_4">
     <g id="line2d_7">
      <path clip-path="url(#p7b41448ed2)" d="M 172.109421 232.46 
L 172.109421 10.7 
" style="fill:none;stroke:#b0b0b0;stroke-linecap:square;stroke-width:0.8;"/>
     </g>
     <g id="line2d_8">
      <g>
       <use style="stroke:#000000;stroke-width:0.8;" x="172.109421" xlink:href="#m2cff8e7182" y="232.46"/>
      </g>
     </g>
     <g id="text_4">
      <!-- $\mathdefault{2^{3}}$ -->
      <g transform="translate(167.629421 245.53875)scale(0.08 -0.08)">
       <use transform="translate(0 0.7125)" xlink:href="#DejaVuSerif-50"/>
       <use transform="translate(64.531406 37.046875)scale(0.7)" xlink:href="#DejaVuSerif-51"/>
      </g>
     </g>
    </g>
    <g id="xtick_5">
     <g id="line2d_9">
      <path clip-path="url(#p7b41448ed2)" d="M 209.001983 232.46 
L 209.001983 10.7 
" style="fill:none;stroke:#b0b0b0;stroke-linecap:square;stroke-width:0.8;"/>
     </g>
     <g id="line2d_10">
      <g>
       <use style="stroke:#000000;stroke-width:0.8;" x="209.001983" xlink:href="#m2cff8e7182" y="232.46"/>
      </g>
     </g>
     <g id="text_5">
      <!-- $\mathdefault{2^{5}}$ -->
      <defs>
       <path d="M 50.296875 72.90625 
L 50.296875 64.890625 
L 16.890625 64.890625 
L 16.890625 44 
Q 19.4375 45.75 22.828125 46.625 
Q 26.21875 47.515625 30.421875 47.515625 
Q 42.234375 47.515625 49.0625 40.96875 
Q 55.90625 34.421875 55.90625 23.09375 
Q 55.90625 11.53125 49 5.046875 
Q 42.09375 -1.421875 29.59375 -1.421875 
Q 24.5625 -1.421875 19.28125 -0.1875 
Q 14.015625 1.03125 8.5 3.515625 
L 8.5 17.671875 
L 14.015625 17.671875 
Q 14.453125 10.75 18.421875 7.078125 
Q 22.40625 3.421875 29.59375 3.421875 
Q 37.3125 3.421875 41.453125 8.5 
Q 45.609375 13.578125 45.609375 23.09375 
Q 45.609375 32.5625 41.484375 37.609375 
Q 37.359375 42.671875 29.59375 42.671875 
Q 25.203125 42.671875 21.84375 41.109375 
Q 18.5 39.546875 15.921875 36.28125 
L 11.71875 36.28125 
L 11.71875 72.90625 
z
" id="DejaVuSerif-53"/>
      </defs>
      <g transform="translate(204.521983 245.53875)scale(0.08 -0.08)">
       <use transform="translate(0 0.63125)" xlink:href="#DejaVuSerif-50"/>
       <use transform="translate(64.531406 36.965625)scale(0.7)" xlink:href="#DejaVuSerif-53"/>
      </g>
     </g>
    </g>
    <g id="xtick_6">
     <g id="line2d_11">
      <path clip-path="url(#p7b41448ed2)" d="M 245.894545 232.46 
L 245.894545 10.7 
" style="fill:none;stroke:#b0b0b0;stroke-linecap:square;stroke-width:0.8;"/>
     </g>
     <g id="line2d_12">
      <g>
       <use style="stroke:#000000;stroke-width:0.8;" x="245.894545" xlink:href="#m2cff8e7182" y="232.46"/>
      </g>
     </g>
     <g id="text_6">
      <!-- $\mathdefault{2^{7}}$ -->
      <defs>
       <path d="M 56.390625 67.921875 
L 27.875 0 
L 20.609375 0 
L 47.796875 64.890625 
L 14.109375 64.890625 
L 14.109375 55.90625 
L 8.40625 55.90625 
L 8.40625 72.90625 
L 56.390625 72.90625 
z
" id="DejaVuSerif-55"/>
      </defs>
      <g transform="translate(241.414545 245.53875)scale(0.08 -0.08)">
       <use transform="translate(0 0.63125)" xlink:href="#DejaVuSerif-50"/>
       <use transform="translate(64.531406 36.965625)scale(0.7)" xlink:href="#DejaVuSerif-55"/>
      </g>
     </g>
    </g>
   </g>
   <g id="matplotlib.axis_2">
    <g id="ytick_1">
     <g id="line2d_13">
      <path clip-path="url(#p7b41448ed2)" d="M 32.84 211.493995 
L 256.04 211.493995 
" style="fill:none;stroke:#b0b0b0;stroke-linecap:square;stroke-width:0.8;"/>
     </g>
     <g id="line2d_14">
      <defs>
       <path d="M 0 0 
L -3.5 0 
" id="m241b0e1022" style="stroke:#000000;stroke-width:0.8;"/>
      </defs>
      <g>
       <use style="stroke:#000000;stroke-width:0.8;" x="32.84" xlink:href="#m241b0e1022" y="211.493995"/>
      </g>
     </g>
     <g id="text_7">
      <!-- $\mathdefault{-10^{-3}}$ -->
      <defs>
       <path d="M 31.78125 3.421875 
Q 39.265625 3.421875 42.96875 11.625 
Q 46.6875 19.828125 46.6875 36.375 
Q 46.6875 52.984375 42.96875 61.1875 
Q 39.265625 69.390625 31.78125 69.390625 
Q 24.3125 69.390625 20.59375 61.1875 
Q 16.890625 52.984375 16.890625 36.375 
Q 16.890625 19.828125 20.59375 11.625 
Q 24.3125 3.421875 31.78125 3.421875 
z
M 31.78125 -1.421875 
Q 19.921875 -1.421875 13.25 8.53125 
Q 6.59375 18.5 6.59375 36.375 
Q 6.59375 54.296875 13.25 64.25 
Q 19.921875 74.21875 31.78125 74.21875 
Q 43.703125 74.21875 50.34375 64.25 
Q 56.984375 54.296875 56.984375 36.375 
Q 56.984375 18.5 50.34375 8.53125 
Q 43.703125 -1.421875 31.78125 -1.421875 
z
" id="DejaVuSerif-48"/>
      </defs>
      <g transform="translate(7.2 214.53337)scale(0.08 -0.08)">
       <use transform="translate(0 0.7125)" xlink:href="#DejaVuSerif-45"/>
       <use transform="translate(33.789062 0.7125)" xlink:href="#DejaVuSerif-49"/>
       <use transform="translate(97.412109 0.7125)" xlink:href="#DejaVuSerif-48"/>
       <use transform="translate(161.943516 37.046875)scale(0.7)" xlink:href="#DejaVuSerif-45"/>
       <use transform="translate(185.595859 37.046875)scale(0.7)" xlink:href="#DejaVuSerif-51"/>
      </g>
     </g>
    </g>
    <g id="ytick_2">
     <g id="line2d_15">
      <path clip-path="url(#p7b41448ed2)" d="M 32.84 187.054895 
L 256.04 187.054895 
" style="fill:none;stroke:#b0b0b0;stroke-linecap:square;stroke-width:0.8;"/>
     </g>
     <g id="line2d_16">
      <g>
       <use style="stroke:#000000;stroke-width:0.8;" x="32.84" xlink:href="#m241b0e1022" y="187.054895"/>
      </g>
     </g>
     <g id="text_8">
      <!-- $\mathdefault{-10^{-4}}$ -->
      <defs>
       <path d="M 34.90625 24.703125 
L 34.90625 63.484375 
L 10.015625 24.703125 
z
M 56.390625 0 
L 23.1875 0 
L 23.1875 5.171875 
L 34.90625 5.171875 
L 34.90625 19.484375 
L 3.078125 19.484375 
L 3.078125 24.8125 
L 35.015625 74.21875 
L 44.671875 74.21875 
L 44.671875 24.703125 
L 58.59375 24.703125 
L 58.59375 19.484375 
L 44.671875 19.484375 
L 44.671875 5.171875 
L 56.390625 5.171875 
z
" id="DejaVuSerif-52"/>
      </defs>
      <g transform="translate(7.2 190.09427)scale(0.08 -0.08)">
       <use transform="translate(0 0.7125)" xlink:href="#DejaVuSerif-45"/>
       <use transform="translate(33.789062 0.7125)" xlink:href="#DejaVuSerif-49"/>
       <use transform="translate(97.412109 0.7125)" xlink:href="#DejaVuSerif-48"/>
       <use transform="translate(161.943516 37.046875)scale(0.7)" xlink:href="#DejaVuSerif-45"/>
       <use transform="translate(185.595859 37.046875)scale(0.7)" xlink:href="#DejaVuSerif-52"/>
      </g>
     </g>
    </g>
    <g id="ytick_3">
     <g id="line2d_17">
      <path clip-path="url(#p7b41448ed2)" d="M 32.84 162.615795 
L 256.04 162.615795 
" style="fill:none;stroke:#b0b0b0;stroke-linecap:square;stroke-width:0.8;"/>
     </g>
     <g id="line2d_18">
      <g>
       <use style="stroke:#000000;stroke-width:0.8;" x="32.84" xlink:href="#m241b0e1022" y="162.615795"/>
      </g>
     </g>
     <g id="text_9">
      <!-- $\mathdefault{-10^{-5}}$ -->
      <g transform="translate(7.2 165.65517)scale(0.08 -0.08)">
       <use transform="translate(0 0.63125)" xlink:href="#DejaVuSerif-45"/>
       <use transform="translate(33.789062 0.63125)" xlink:href="#DejaVuSerif-49"/>
       <use transform="translate(97.412109 0.63125)" xlink:href="#DejaVuSerif-48"/>
       <use transform="translate(161.943516 36.965625)scale(0.7)" xlink:href="#DejaVuSerif-45"/>
       <use transform="translate(185.595859 36.965625)scale(0.7)" xlink:href="#DejaVuSerif-53"/>
      </g>
     </g>
    </g>
    <g id="ytick_4">
     <g id="line2d_19">
      <path clip-path="url(#p7b41448ed2)" d="M 32.84 135.461239 
L 256.04 135.461239 
" style="fill:none;stroke:#b0b0b0;stroke-linecap:square;stroke-width:0.8;"/>
     </g>
     <g id="line2d_20">
      <g>
       <use style="stroke:#000000;stroke-width:0.8;" x="32.84" xlink:href="#m241b0e1022" y="135.461239"/>
      </g>
     </g>
     <g id="text_10">
      <!-- $\mathdefault{0}$ -->
      <g transform="translate(20.72 138.500614)scale(0.08 -0.08)">
       <use transform="translate(0 0.78125)" xlink:href="#DejaVuSerif-48"/>
      </g>
     </g>
    </g>
    <g id="ytick_5">
     <g id="line2d_21">
      <path clip-path="url(#p7b41448ed2)" d="M 32.84 108.306684 
L 256.04 108.306684 
" style="fill:none;stroke:#b0b0b0;stroke-linecap:square;stroke-width:0.8;"/>
     </g>
     <g id="line2d_22">
      <g>
       <use style="stroke:#000000;stroke-width:0.8;" x="32.84" xlink:href="#m241b0e1022" y="108.306684"/>
      </g>
     </g>
     <g id="text_11">
      <!-- $\mathdefault{10^{-5}}$ -->
      <g transform="translate(9.92 111.346059)scale(0.08 -0.08)">
       <use transform="translate(0 0.63125)" xlink:href="#DejaVuSerif-49"/>
       <use transform="translate(63.623047 0.63125)" xlink:href="#DejaVuSerif-48"/>
       <use transform="translate(128.154453 36.965625)scale(0.7)" xlink:href="#DejaVuSerif-45"/>
       <use transform="translate(151.806797 36.965625)scale(0.7)" xlink:href="#DejaVuSerif-53"/>
      </g>
     </g>
    </g>
    <g id="ytick_6">
     <g id="line2d_23">
      <path clip-path="url(#p7b41448ed2)" d="M 32.84 83.867583 
L 256.04 83.867583 
" style="fill:none;stroke:#b0b0b0;stroke-linecap:square;stroke-width:0.8;"/>
     </g>
     <g id="line2d_24">
      <g>
       <use style="stroke:#000000;stroke-width:0.8;" x="32.84" xlink:href="#m241b0e1022" y="83.867583"/>
      </g>
     </g>
     <g id="text_12">
      <!-- $\mathdefault{10^{-4}}$ -->
      <g transform="translate(9.92 86.906958)scale(0.08 -0.08)">
       <use transform="translate(0 0.7125)" xlink:href="#DejaVuSerif-49"/>
       <use transform="translate(63.623047 0.7125)" xlink:href="#DejaVuSerif-48"/>
       <use transform="translate(128.154453 37.046875)scale(0.7)" xlink:href="#DejaVuSerif-45"/>
       <use transform="translate(151.806797 37.046875)scale(0.7)" xlink:href="#DejaVuSerif-52"/>
      </g>
     </g>
    </g>
    <g id="ytick_7">
     <g id="line2d_25">
      <path clip-path="url(#p7b41448ed2)" d="M 32.84 59.428483 
L 256.04 59.428483 
" style="fill:none;stroke:#b0b0b0;stroke-linecap:square;stroke-width:0.8;"/>
     </g>
     <g id="line2d_26">
      <g>
       <use style="stroke:#000000;stroke-width:0.8;" x="32.84" xlink:href="#m241b0e1022" y="59.428483"/>
      </g>
     </g>
     <g id="text_13">
      <!-- $\mathdefault{10^{-3}}$ -->
      <g transform="translate(9.92 62.467858)scale(0.08 -0.08)">
       <use transform="translate(0 0.7125)" xlink:href="#DejaVuSerif-49"/>
       <use transform="translate(63.623047 0.7125)" xlink:href="#DejaVuSerif-48"/>
       <use transform="translate(128.154453 37.046875)scale(0.7)" xlink:href="#DejaVuSerif-45"/>
       <use transform="translate(151.806797 37.046875)scale(0.7)" xlink:href="#DejaVuSerif-51"/>
      </g>
     </g>
    </g>
    <g id="ytick_8">
     <g id="line2d_27">
      <path clip-path="url(#p7b41448ed2)" d="M 32.84 34.989383 
L 256.04 34.989383 
" style="fill:none;stroke:#b0b0b0;stroke-linecap:square;stroke-width:0.8;"/>
     </g>
     <g id="line2d_28">
      <g>
       <use style="stroke:#000000;stroke-width:0.8;" x="32.84" xlink:href="#m241b0e1022" y="34.989383"/>
      </g>
     </g>
     <g id="text_14">
      <!-- $\mathdefault{10^{-2}}$ -->
      <g transform="translate(9.92 38.028758)scale(0.08 -0.08)">
       <use transform="translate(0 0.7125)" xlink:href="#DejaVuSerif-49"/>
       <use transform="translate(63.623047 0.7125)" xlink:href="#DejaVuSerif-48"/>
       <use transform="translate(128.154453 37.046875)scale(0.7)" xlink:href="#DejaVuSerif-45"/>
       <use transform="translate(151.806797 37.046875)scale(0.7)" xlink:href="#DejaVuSerif-50"/>
      </g>
     </g>
    </g>
    <g id="ytick_9">
     <g id="line2d_29">
      <path clip-path="url(#p7b41448ed2)" d="M 32.84 10.550283 
L 256.04 10.550283 
" style="fill:none;stroke:#b0b0b0;stroke-linecap:square;stroke-width:0.8;"/>
     </g>
     <g id="line2d_30">
      <g>
       <use style="stroke:#000000;stroke-width:0.8;" x="32.84" xlink:href="#m241b0e1022" y="10.550283"/>
      </g>
     </g>
     <g id="text_15">
      <!-- $\mathdefault{10^{-1}}$ -->
      <g transform="translate(9.92 13.589658)scale(0.08 -0.08)">
       <use transform="translate(0 0.7125)" xlink:href="#DejaVuSerif-49"/>
       <use transform="translate(63.623047 0.7125)" xlink:href="#DejaVuSerif-48"/>
       <use transform="translate(128.154453 37.046875)scale(0.7)" xlink:href="#DejaVuSerif-45"/>
       <use transform="translate(151.806797 37.046875)scale(0.7)" xlink:href="#DejaVuSerif-49"/>
      </g>
     </g>
    </g>
    <g id="ytick_10">
     <g id="line2d_31">
      <defs>
       <path d="M 0 0 
L -2 0 
" id="mf703501a50" style="stroke:#000000;stroke-width:0.6;"/>
      </defs>
      <g>
       <use style="stroke:#000000;stroke-width:0.6;" x="32.84" xlink:href="#mf703501a50" y="211.493995"/>
      </g>
     </g>
    </g>
    <g id="ytick_11">
     <g id="line2d_32">
      <g>
       <use style="stroke:#000000;stroke-width:0.6;" x="32.84" xlink:href="#mf703501a50" y="187.054895"/>
      </g>
     </g>
    </g>
    <g id="ytick_12">
     <g id="line2d_33">
      <g>
       <use style="stroke:#000000;stroke-width:0.6;" x="32.84" xlink:href="#mf703501a50" y="162.615795"/>
      </g>
     </g>
    </g>
    <g id="ytick_13">
     <g id="line2d_34">
      <g>
       <use style="stroke:#000000;stroke-width:0.6;" x="32.84" xlink:href="#mf703501a50" y="135.461239"/>
      </g>
     </g>
    </g>
    <g id="ytick_14">
     <g id="line2d_35">
      <g>
       <use style="stroke:#000000;stroke-width:0.6;" x="32.84" xlink:href="#mf703501a50" y="108.306684"/>
      </g>
     </g>
    </g>
    <g id="ytick_15">
     <g id="line2d_36">
      <g>
       <use style="stroke:#000000;stroke-width:0.6;" x="32.84" xlink:href="#mf703501a50" y="83.867583"/>
      </g>
     </g>
    </g>
    <g id="ytick_16">
     <g id="line2d_37">
      <g>
       <use style="stroke:#000000;stroke-width:0.6;" x="32.84" xlink:href="#mf703501a50" y="59.428483"/>
      </g>
     </g>
    </g>
    <g id="ytick_17">
     <g id="line2d_38">
      <g>
       <use style="stroke:#000000;stroke-width:0.6;" x="32.84" xlink:href="#mf703501a50" y="34.989383"/>
      </g>
     </g>
    </g>
    <g id="ytick_18">
     <g id="line2d_39">
      <g>
       <use style="stroke:#000000;stroke-width:0.6;" x="32.84" xlink:href="#mf703501a50" y="10.550283"/>
      </g>
     </g>
    </g>
   </g>
   <g id="line2d_40">
    <path clip-path="url(#p7b41448ed2)" d="M 42.985455 20.78 
L 61.431736 44.798934 
L 79.878017 80.643664 
L 98.324298 181.7415 
L 116.770579 201.891766 
L 135.21686 217.769135 
L 153.66314 217.912379 
L 172.109421 220.772331 
L 190.555702 214.456408 
L 209.001983 222.38 
L 227.448264 218.461529 
L 245.894545 222.106905 
" style="fill:none;stroke:#1f77b4;stroke-linecap:square;stroke-width:1.5;"/>
   </g>
   <g id="line2d_41">
    <path clip-path="url(#p7b41448ed2)" d="M 42.985455 20.78091 
L 61.431736 44.806664 
L 79.878017 80.658828 
L 98.324298 178.929617 
L 116.770579 199.17247 
L 135.21686 214.928674 
L 153.66314 215.457676 
L 172.109421 217.237424 
L 190.555702 211.72195 
L 209.001983 219.656126 
L 227.448264 215.813968 
L 245.894545 219.22559 
" style="fill:none;stroke:#ff7f0e;stroke-linecap:square;stroke-width:1.5;"/>
   </g>
   <g id="line2d_42">
    <path clip-path="url(#p7b41448ed2)" d="M 42.985455 20.781771 
L 61.431736 44.814012 
L 79.878017 80.675129 
L 98.324298 175.248139 
L 116.770579 195.562107 
L 135.21686 211.166057 
L 153.66314 212.114758 
L 172.109421 212.762316 
L 190.555702 208.02599 
L 209.001983 216.013296 
L 227.448264 212.091701 
L 245.894545 215.286617 
" style="fill:none;stroke:#2ca02c;stroke-linecap:square;stroke-width:1.5;"/>
   </g>
   <g id="line2d_43">
    <path clip-path="url(#p7b41448ed2)" d="M 42.985455 20.782589 
L 61.431736 44.821017 
L 79.878017 80.692517 
L 98.324298 169.803208 
L 116.770579 190.113376 
L 135.21686 205.537061 
L 153.66314 206.951332 
L 172.109421 206.377412 
L 190.555702 202.388088 
L 209.001983 210.516913 
L 227.448264 206.398506 
L 245.894545 209.350406 
" style="fill:none;stroke:#d62728;stroke-linecap:square;stroke-width:1.5;"/>
   </g>
   <g id="line2d_44">
    <path clip-path="url(#p7b41448ed2)" d="M 42.985455 20.783368 
L 61.431736 44.82771 
L 79.878017 80.710911 
L 98.324298 154.185393 
L 116.770579 178.437695 
L 135.21686 193.65594 
L 153.66314 195.589433 
L 172.109421 193.651785 
L 190.555702 190.390031 
L 209.001983 198.785455 
L 227.448264 194.386765 
L 245.894545 197.034123 
" style="fill:none;stroke:#9467bd;stroke-linecap:square;stroke-width:1.5;"/>
   </g>
   <g id="patch_3">
    <path d="M 32.84 232.46 
L 32.84 10.7 
" style="fill:none;stroke:#000000;stroke-linecap:square;stroke-linejoin:miter;stroke-width:0.8;"/>
   </g>
   <g id="patch_4">
    <path d="M 256.04 232.46 
L 256.04 10.7 
" style="fill:none;stroke:#000000;stroke-linecap:square;stroke-linejoin:miter;stroke-width:0.8;"/>
   </g>
   <g id="patch_5">
    <path d="M 32.84 232.46 
L 256.04 232.46 
" style="fill:none;stroke:#000000;stroke-linecap:square;stroke-linejoin:miter;stroke-width:0.8;"/>
   </g>
   <g id="patch_6">
    <path d="M 32.84 10.7 
L 256.04 10.7 
" style="fill:none;stroke:#000000;stroke-linecap:square;stroke-linejoin:miter;stroke-width:0.8;"/>
   </g>
   <g id="legend_1">
    <g id="patch_7">
     <path d="M 212.1175 75.8125 
L 250.44 75.8125 
Q 252.04 75.8125 252.04 74.2125 
L 252.04 16.3 
Q 252.04 14.7 250.44 14.7 
L 212.1175 14.7 
Q 210.5175 14.7 210.5175 16.3 
L 210.5175 74.2125 
Q 210.5175 75.8125 212.1175 75.8125 
z
" style="fill:#ffffff;opacity:0.8;stroke:#cccccc;stroke-linejoin:miter;"/>
    </g>
    <g id="line2d_45">
     <path d="M 213.7175 21.17875 
L 229.7175 21.17875 
" style="fill:none;stroke:#1f77b4;stroke-linecap:square;stroke-width:1.5;"/>
    </g>
    <g id="line2d_46"/>
    <g id="text_16">
     <!-- 0.1 -->
     <defs>
      <path d="M 9.421875 5.078125 
Q 9.421875 7.8125 11.28125 9.71875 
Q 13.140625 11.625 15.921875 11.625 
Q 18.609375 11.625 20.5 9.71875 
Q 22.40625 7.8125 22.40625 5.078125 
Q 22.40625 2.390625 20.5 0.484375 
Q 18.609375 -1.421875 15.921875 -1.421875 
Q 13.140625 -1.421875 11.28125 0.453125 
Q 9.421875 2.34375 9.421875 5.078125 
z
" id="DejaVuSerif-46"/>
     </defs>
     <g transform="translate(236.1175 23.97875)scale(0.08 -0.08)">
      <use xlink:href="#DejaVuSerif-48"/>
      <use x="63.623047" xlink:href="#DejaVuSerif-46"/>
      <use x="95.410156" xlink:href="#DejaVuSerif-49"/>
     </g>
    </g>
    <g id="line2d_47">
     <path d="M 213.7175 32.92125 
L 229.7175 32.92125 
" style="fill:none;stroke:#ff7f0e;stroke-linecap:square;stroke-width:1.5;"/>
    </g>
    <g id="line2d_48"/>
    <g id="text_17">
     <!-- 0.3 -->
     <g transform="translate(236.1175 35.72125)scale(0.08 -0.08)">
      <use xlink:href="#DejaVuSerif-48"/>
      <use x="63.623047" xlink:href="#DejaVuSerif-46"/>
      <use x="95.410156" xlink:href="#DejaVuSerif-51"/>
     </g>
    </g>
    <g id="line2d_49">
     <path d="M 213.7175 44.66375 
L 229.7175 44.66375 
" style="fill:none;stroke:#2ca02c;stroke-linecap:square;stroke-width:1.5;"/>
    </g>
    <g id="line2d_50"/>
    <g id="text_18">
     <!-- 0.5 -->
     <g transform="translate(236.1175 47.46375)scale(0.08 -0.08)">
      <use xlink:href="#DejaVuSerif-48"/>
      <use x="63.623047" xlink:href="#DejaVuSerif-46"/>
      <use x="95.410156" xlink:href="#DejaVuSerif-53"/>
     </g>
    </g>
    <g id="line2d_51">
     <path d="M 213.7175 56.40625 
L 229.7175 56.40625 
" style="fill:none;stroke:#d62728;stroke-linecap:square;stroke-width:1.5;"/>
    </g>
    <g id="line2d_52"/>
    <g id="text_19">
     <!-- 0.7 -->
     <g transform="translate(236.1175 59.20625)scale(0.08 -0.08)">
      <use xlink:href="#DejaVuSerif-48"/>
      <use x="63.623047" xlink:href="#DejaVuSerif-46"/>
      <use x="95.410156" xlink:href="#DejaVuSerif-55"/>
     </g>
    </g>
    <g id="line2d_53">
     <path d="M 213.7175 68.14875 
L 229.7175 68.14875 
" style="fill:none;stroke:#9467bd;stroke-linecap:square;stroke-width:1.5;"/>
    </g>
    <g id="line2d_54"/>
    <g id="text_20">
     <!-- 0.9 -->
     <defs>
      <path d="M 46.78125 32.671875 
Q 43.5 29 39.25 27.1875 
Q 35.015625 25.390625 29.6875 25.390625 
Q 18.84375 25.390625 12.5625 31.9375 
Q 6.296875 38.484375 6.296875 49.8125 
Q 6.296875 60.890625 13.109375 67.546875 
Q 19.921875 74.21875 31.296875 74.21875 
Q 43.65625 74.21875 50.265625 65.015625 
Q 56.890625 55.8125 56.890625 38.71875 
Q 56.890625 19.578125 49.015625 9.078125 
Q 41.15625 -1.421875 26.90625 -1.421875 
Q 23.046875 -1.421875 18.796875 -0.6875 
Q 14.546875 0.046875 10.109375 1.515625 
L 10.109375 13.625 
L 15.578125 13.625 
Q 16.21875 8.6875 19.390625 6.046875 
Q 22.5625 3.421875 27.875 3.421875 
Q 37.359375 3.421875 41.984375 10.5625 
Q 46.625 17.71875 46.78125 32.671875 
z
M 30.90625 69.390625 
Q 23.96875 69.390625 20.28125 64.328125 
Q 16.609375 59.28125 16.609375 49.8125 
Q 16.609375 40.328125 20.28125 35.25 
Q 23.96875 30.171875 30.90625 30.171875 
Q 37.84375 30.171875 41.53125 35.078125 
Q 45.21875 39.984375 45.21875 49.21875 
Q 45.21875 58.9375 41.5 64.15625 
Q 37.796875 69.390625 30.90625 69.390625 
z
" id="DejaVuSerif-57"/>
     </defs>
     <g transform="translate(236.1175 70.94875)scale(0.08 -0.08)">
      <use xlink:href="#DejaVuSerif-48"/>
      <use x="63.623047" xlink:href="#DejaVuSerif-46"/>
      <use x="95.410156" xlink:href="#DejaVuSerif-57"/>
     </g>
    </g>
   </g>
  </g>
 </g>
 <defs>
  <clipPath id="p7b41448ed2">
   <rect height="221.76" width="223.2" x="32.84" y="10.7"/>
  </clipPath>
 </defs>
</svg>
