<?xml version="1.0" encoding="utf-8" standalone="no"?>
<!DOCTYPE svg PUBLIC "-//W3C//DTD SVG 1.1//EN"
  "http://www.w3.org/Graphics/SVG/1.1/DTD/svg11.dtd">
<!-- Created with matplotlib (https://matplotlib.org/) -->
<svg height="253.29875pt" version="1.1" viewBox="0 0 1063.641407 253.29875" width="1063.641407pt" xmlns="http://www.w3.org/2000/svg" xmlns:xlink="http://www.w3.org/1999/xlink">
 <defs>
  <style type="text/css">
*{stroke-linecap:butt;stroke-linejoin:round;}
  </style>
 </defs>
 <g id="figure_1">
  <g id="patch_1">
   <path d="M -0 253.29875 
L 1063.641407 253.29875 
L 1063.641407 0 
L -0 0 
z
" style="fill:#ffffff;"/>
  </g>
  <g id="axes_1">
   <g id="patch_2">
    <path d="M 45.371875 225.549375 
L 340.78364 225.549375 
L 340.78364 25.965375 
L 45.371875 25.965375 
z
" style="fill:#ffffff;"/>
   </g>
   <g id="matplotlib.axis_1">
    <g id="xtick_1">
     <g id="line2d_1">
      <defs>
       <path d="M 0 0 
L 0 3.5 
" id="m63b7c6e858" style="stroke:#000000;stroke-width:0.8;"/>
      </defs>
      <g>
       <use style="stroke:#000000;stroke-width:0.8;" x="58.799682" xlink:href="#m63b7c6e858" y="225.549375"/>
      </g>
     </g>
     <g id="text_1">
      <!-- 0 -->
      <defs>
       <path d="M 31.78125 3.421875 
Q 39.265625 3.421875 42.96875 11.625 
Q 46.6875 19.828125 46.6875 36.375 
Q 46.6875 52.984375 42.96875 61.1875 
Q 39.265625 69.390625 31.78125 69.390625 
Q 24.3125 69.390625 20.59375 61.1875 
Q 16.890625 52.984375 16.890625 36.375 
Q 16.890625 19.828125 20.59375 11.625 
Q 24.3125 3.421875 31.78125 3.421875 
z
M 31.78125 -1.421875 
Q 19.921875 -1.421875 13.25 8.53125 
Q 6.59375 18.5 6.59375 36.375 
Q 6.59375 54.296875 13.25 64.25 
Q 19.921875 74.21875 31.78125 74.21875 
Q 43.703125 74.21875 50.34375 64.25 
Q 56.984375 54.296875 56.984375 36.375 
Q 56.984375 18.5 50.34375 8.53125 
Q 43.703125 -1.421875 31.78125 -1.421875 
z
" id="DejaVuSerif-48"/>
      </defs>
      <g transform="translate(54.345932 243.187188)scale(0.14 -0.14)">
       <use xlink:href="#DejaVuSerif-48"/>
      </g>
     </g>
    </g>
    <g id="xtick_2">
     <g id="line2d_2">
      <g>
       <use style="stroke:#000000;stroke-width:0.8;" x="114.74888" xlink:href="#m63b7c6e858" y="225.549375"/>
      </g>
     </g>
     <g id="text_2">
      <!-- 5 -->
      <defs>
       <path d="M 50.296875 72.90625 
L 50.296875 64.890625 
L 16.890625 64.890625 
L 16.890625 44 
Q 19.4375 45.75 22.828125 46.625 
Q 26.21875 47.515625 30.421875 47.515625 
Q 42.234375 47.515625 49.0625 40.96875 
Q 55.90625 34.421875 55.90625 23.09375 
Q 55.90625 11.53125 49 5.046875 
Q 42.09375 -1.421875 29.59375 -1.421875 
Q 24.5625 -1.421875 19.28125 -0.1875 
Q 14.015625 1.03125 8.5 3.515625 
L 8.5 17.671875 
L 14.015625 17.671875 
Q 14.453125 10.75 18.421875 7.078125 
Q 22.40625 3.421875 29.59375 3.421875 
Q 37.3125 3.421875 41.453125 8.5 
Q 45.609375 13.578125 45.609375 23.09375 
Q 45.609375 32.5625 41.484375 37.609375 
Q 37.359375 42.671875 29.59375 42.671875 
Q 25.203125 42.671875 21.84375 41.109375 
Q 18.5 39.546875 15.921875 36.28125 
L 11.71875 36.28125 
L 11.71875 72.90625 
z
" id="DejaVuSerif-53"/>
      </defs>
      <g transform="translate(110.29513 243.187188)scale(0.14 -0.14)">
       <use xlink:href="#DejaVuSerif-53"/>
      </g>
     </g>
    </g>
    <g id="xtick_3">
     <g id="line2d_3">
      <g>
       <use style="stroke:#000000;stroke-width:0.8;" x="170.698078" xlink:href="#m63b7c6e858" y="225.549375"/>
      </g>
     </g>
     <g id="text_3">
      <!-- 10 -->
      <defs>
       <path d="M 14.203125 0 
L 14.203125 5.171875 
L 26.90625 5.171875 
L 26.90625 65.828125 
L 12.203125 56.296875 
L 12.203125 62.703125 
L 29.984375 74.21875 
L 36.71875 74.21875 
L 36.71875 5.171875 
L 49.421875 5.171875 
L 49.421875 0 
z
" id="DejaVuSerif-49"/>
      </defs>
      <g transform="translate(161.790578 243.187188)scale(0.14 -0.14)">
       <use xlink:href="#DejaVuSerif-49"/>
       <use x="63.623047" xlink:href="#DejaVuSerif-48"/>
      </g>
     </g>
    </g>
    <g id="xtick_4">
     <g id="line2d_4">
      <g>
       <use style="stroke:#000000;stroke-width:0.8;" x="226.647276" xlink:href="#m63b7c6e858" y="225.549375"/>
      </g>
     </g>
     <g id="text_4">
      <!-- 15 -->
      <g transform="translate(217.739776 243.187188)scale(0.14 -0.14)">
       <use xlink:href="#DejaVuSerif-49"/>
       <use x="63.623047" xlink:href="#DejaVuSerif-53"/>
      </g>
     </g>
    </g>
    <g id="xtick_5">
     <g id="line2d_5">
      <g>
       <use style="stroke:#000000;stroke-width:0.8;" x="282.596474" xlink:href="#m63b7c6e858" y="225.549375"/>
      </g>
     </g>
     <g id="text_5">
      <!-- 20 -->
      <defs>
       <path d="M 12.796875 55.515625 
L 7.328125 55.515625 
L 7.328125 68.5 
Q 12.546875 71.296875 17.84375 72.75 
Q 23.140625 74.21875 28.21875 74.21875 
Q 39.59375 74.21875 46.1875 68.703125 
Q 52.78125 63.1875 52.78125 53.71875 
Q 52.78125 43.015625 37.84375 28.125 
Q 36.671875 27 36.078125 26.421875 
L 17.671875 8.015625 
L 48.09375 8.015625 
L 48.09375 17 
L 53.8125 17 
L 53.8125 0 
L 6.78125 0 
L 6.78125 5.328125 
L 28.90625 27.390625 
Q 36.234375 34.71875 39.359375 40.84375 
Q 42.484375 46.96875 42.484375 53.71875 
Q 42.484375 61.078125 38.640625 65.234375 
Q 34.8125 69.390625 28.078125 69.390625 
Q 21.09375 69.390625 17.28125 65.921875 
Q 13.484375 62.453125 12.796875 55.515625 
z
" id="DejaVuSerif-50"/>
      </defs>
      <g transform="translate(273.688974 243.187188)scale(0.14 -0.14)">
       <use xlink:href="#DejaVuSerif-50"/>
       <use x="63.623047" xlink:href="#DejaVuSerif-48"/>
      </g>
     </g>
    </g>
    <g id="xtick_6">
     <g id="line2d_6">
      <g>
       <use style="stroke:#000000;stroke-width:0.8;" x="338.545672" xlink:href="#m63b7c6e858" y="225.549375"/>
      </g>
     </g>
     <g id="text_6">
      <!-- 25 -->
      <g transform="translate(329.638172 243.187188)scale(0.14 -0.14)">
       <use xlink:href="#DejaVuSerif-50"/>
       <use x="63.623047" xlink:href="#DejaVuSerif-53"/>
      </g>
     </g>
    </g>
   </g>
   <g id="matplotlib.axis_2">
    <g id="ytick_1">
     <g id="line2d_7">
      <defs>
       <path d="M 0 0 
L -3.5 0 
" id="m5983867855" style="stroke:#000000;stroke-width:0.8;"/>
      </defs>
      <g>
       <use style="stroke:#000000;stroke-width:0.8;" x="45.371875" xlink:href="#m5983867855" y="190.935484"/>
      </g>
     </g>
     <g id="text_7">
      <!-- 0.04 -->
      <defs>
       <path d="M 9.421875 5.078125 
Q 9.421875 7.8125 11.28125 9.71875 
Q 13.140625 11.625 15.921875 11.625 
Q 18.609375 11.625 20.5 9.71875 
Q 22.40625 7.8125 22.40625 5.078125 
Q 22.40625 2.390625 20.5 0.484375 
Q 18.609375 -1.421875 15.921875 -1.421875 
Q 13.140625 -1.421875 11.28125 0.453125 
Q 9.421875 2.34375 9.421875 5.078125 
z
" id="DejaVuSerif-46"/>
       <path d="M 34.90625 24.703125 
L 34.90625 63.484375 
L 10.015625 24.703125 
z
M 56.390625 0 
L 23.1875 0 
L 23.1875 5.171875 
L 34.90625 5.171875 
L 34.90625 19.484375 
L 3.078125 19.484375 
L 3.078125 24.8125 
L 35.015625 74.21875 
L 44.671875 74.21875 
L 44.671875 24.703125 
L 58.59375 24.703125 
L 58.59375 19.484375 
L 44.671875 19.484375 
L 44.671875 5.171875 
L 56.390625 5.171875 
z
" id="DejaVuSerif-52"/>
      </defs>
      <g transform="translate(7.2 196.25439)scale(0.14 -0.14)">
       <use xlink:href="#DejaVuSerif-48"/>
       <use x="63.623047" xlink:href="#DejaVuSerif-46"/>
       <use x="95.410156" xlink:href="#DejaVuSerif-48"/>
       <use x="159.033203" xlink:href="#DejaVuSerif-52"/>
      </g>
     </g>
    </g>
    <g id="ytick_2">
     <g id="line2d_8">
      <g>
       <use style="stroke:#000000;stroke-width:0.8;" x="45.371875" xlink:href="#m5983867855" y="153.362767"/>
      </g>
     </g>
     <g id="text_8">
      <!-- 0.05 -->
      <g transform="translate(7.2 158.681674)scale(0.14 -0.14)">
       <use xlink:href="#DejaVuSerif-48"/>
       <use x="63.623047" xlink:href="#DejaVuSerif-46"/>
       <use x="95.410156" xlink:href="#DejaVuSerif-48"/>
       <use x="159.033203" xlink:href="#DejaVuSerif-53"/>
      </g>
     </g>
    </g>
    <g id="ytick_3">
     <g id="line2d_9">
      <g>
       <use style="stroke:#000000;stroke-width:0.8;" x="45.371875" xlink:href="#m5983867855" y="115.790051"/>
      </g>
     </g>
     <g id="text_9">
      <!-- 0.06 -->
      <defs>
       <path d="M 32.71875 3.421875 
Q 39.59375 3.421875 43.296875 8.46875 
Q 47.015625 13.53125 47.015625 23 
Q 47.015625 32.46875 43.296875 37.515625 
Q 39.59375 42.578125 32.71875 42.578125 
Q 25.734375 42.578125 22.0625 37.6875 
Q 18.40625 32.8125 18.40625 23.578125 
Q 18.40625 13.875 22.109375 8.640625 
Q 25.828125 3.421875 32.71875 3.421875 
z
M 16.796875 40.140625 
Q 20.125 43.796875 24.3125 45.59375 
Q 28.515625 47.40625 33.796875 47.40625 
Q 44.671875 47.40625 51 40.859375 
Q 57.328125 34.328125 57.328125 23 
Q 57.328125 11.921875 50.515625 5.25 
Q 43.703125 -1.421875 32.328125 -1.421875 
Q 19.96875 -1.421875 13.328125 7.78125 
Q 6.6875 17 6.6875 34.078125 
Q 6.6875 53.21875 14.546875 63.71875 
Q 22.40625 74.21875 36.71875 74.21875 
Q 40.578125 74.21875 44.828125 73.484375 
Q 49.078125 72.75 53.515625 71.296875 
L 53.515625 59.28125 
L 48 59.28125 
Q 47.40625 64.203125 44.234375 66.796875 
Q 41.0625 69.390625 35.6875 69.390625 
Q 26.21875 69.390625 21.578125 62.203125 
Q 16.9375 55.03125 16.796875 40.140625 
z
" id="DejaVuSerif-54"/>
      </defs>
      <g transform="translate(7.2 121.108957)scale(0.14 -0.14)">
       <use xlink:href="#DejaVuSerif-48"/>
       <use x="63.623047" xlink:href="#DejaVuSerif-46"/>
       <use x="95.410156" xlink:href="#DejaVuSerif-48"/>
       <use x="159.033203" xlink:href="#DejaVuSerif-54"/>
      </g>
     </g>
    </g>
    <g id="ytick_4">
     <g id="line2d_10">
      <g>
       <use style="stroke:#000000;stroke-width:0.8;" x="45.371875" xlink:href="#m5983867855" y="78.217335"/>
      </g>
     </g>
     <g id="text_10">
      <!-- 0.07 -->
      <defs>
       <path d="M 56.390625 67.921875 
L 27.875 0 
L 20.609375 0 
L 47.796875 64.890625 
L 14.109375 64.890625 
L 14.109375 55.90625 
L 8.40625 55.90625 
L 8.40625 72.90625 
L 56.390625 72.90625 
z
" id="DejaVuSerif-55"/>
      </defs>
      <g transform="translate(7.2 83.536241)scale(0.14 -0.14)">
       <use xlink:href="#DejaVuSerif-48"/>
       <use x="63.623047" xlink:href="#DejaVuSerif-46"/>
       <use x="95.410156" xlink:href="#DejaVuSerif-48"/>
       <use x="159.033203" xlink:href="#DejaVuSerif-55"/>
      </g>
     </g>
    </g>
    <g id="ytick_5">
     <g id="line2d_11">
      <g>
       <use style="stroke:#000000;stroke-width:0.8;" x="45.371875" xlink:href="#m5983867855" y="40.644618"/>
      </g>
     </g>
     <g id="text_11">
      <!-- 0.08 -->
      <defs>
       <path d="M 46.578125 19.921875 
Q 46.578125 27.734375 42.6875 32.046875 
Q 38.8125 36.375 31.78125 36.375 
Q 24.75 36.375 20.875 32.046875 
Q 17 27.734375 17 19.921875 
Q 17 12.0625 20.875 7.734375 
Q 24.75 3.421875 31.78125 3.421875 
Q 38.8125 3.421875 42.6875 7.734375 
Q 46.578125 12.0625 46.578125 19.921875 
z
M 44.578125 55.328125 
Q 44.578125 61.96875 41.203125 65.671875 
Q 37.84375 69.390625 31.78125 69.390625 
Q 25.78125 69.390625 22.390625 65.671875 
Q 19 61.96875 19 55.328125 
Q 19 48.640625 22.390625 44.921875 
Q 25.78125 41.21875 31.78125 41.21875 
Q 37.84375 41.21875 41.203125 44.921875 
Q 44.578125 48.640625 44.578125 55.328125 
z
M 39.3125 38.8125 
Q 47.609375 37.703125 52.25 32.6875 
Q 56.890625 27.6875 56.890625 19.921875 
Q 56.890625 9.671875 50.390625 4.125 
Q 43.890625 -1.421875 31.78125 -1.421875 
Q 19.734375 -1.421875 13.203125 4.125 
Q 6.6875 9.671875 6.6875 19.921875 
Q 6.6875 27.6875 11.328125 32.6875 
Q 15.96875 37.703125 24.3125 38.8125 
Q 16.9375 40.140625 13 44.40625 
Q 9.078125 48.6875 9.078125 55.328125 
Q 9.078125 64.109375 15.125 69.15625 
Q 21.1875 74.21875 31.78125 74.21875 
Q 42.390625 74.21875 48.4375 69.15625 
Q 54.5 64.109375 54.5 55.328125 
Q 54.5 48.6875 50.5625 44.40625 
Q 46.625 40.140625 39.3125 38.8125 
z
" id="DejaVuSerif-56"/>
      </defs>
      <g transform="translate(7.2 45.963525)scale(0.14 -0.14)">
       <use xlink:href="#DejaVuSerif-48"/>
       <use x="63.623047" xlink:href="#DejaVuSerif-46"/>
       <use x="95.410156" xlink:href="#DejaVuSerif-48"/>
       <use x="159.033203" xlink:href="#DejaVuSerif-56"/>
      </g>
     </g>
    </g>
   </g>
   <g id="line2d_12">
    <path clip-path="url(#padfa083edd)" d="M 58.799682 85.928271 
L 69.989522 85.673633 
L 81.179362 85.61319 
L 92.369201 85.747394 
L 103.559041 86.07477 
L 114.74888 86.505313 
L 125.93872 86.349899 
L 137.128559 86.394851 
L 148.318399 86.640079 
L 159.508239 87.08359 
L 170.698078 87.634952 
L 181.887918 87.604568 
L 193.077757 87.776925 
L 204.267597 88.150986 
L 215.457436 88.723831 
L 226.647276 89.404592 
L 237.837116 89.506598 
L 249.026955 89.80929 
L 260.216795 90.31086 
L 271.406634 91.0078 
L 282.596474 91.809219 
L 293.786314 92.030299 
L 304.976153 92.4461 
L 316.165993 93.055 
L 327.355832 93.85429 
" style="fill:none;stroke:#1f77b4;stroke-linecap:square;stroke-width:1.5;"/>
   </g>
   <g id="line2d_13">
    <path clip-path="url(#padfa083edd)" d="M 58.799682 35.778447 
L 69.989522 35.1713 
L 81.179362 35.037375 
L 92.369201 35.374987 
L 103.559041 36.177671 
L 114.74888 37.208525 
L 125.93872 36.66737 
L 137.128559 36.599786 
L 148.318399 37.004285 
L 159.508239 37.875121 
L 170.698078 38.976735 
L 181.887918 38.507785 
L 193.077757 38.509705 
L 204.267597 38.980612 
L 215.457436 39.914629 
L 226.647276 41.077375 
L 237.837116 40.674899 
L 249.026955 40.738192 
L 260.216795 41.266067 
L 271.406634 42.254219 
L 282.596474 43.470618 
L 293.786314 43.118053 
L 304.976153 43.225496 
L 316.165993 43.796183 
L 327.355832 44.833079 
" style="fill:none;stroke:#ff7f0e;stroke-linecap:square;stroke-width:1.5;"/>
   </g>
   <g id="line2d_14">
    <path clip-path="url(#padfa083edd)" d="M 58.799682 215.882799 
L 69.989522 215.636773 
L 81.179362 215.546404 
L 92.369201 215.61151 
L 103.559041 215.830381 
L 114.74888 216.121272 
L 125.93872 215.857682 
L 137.128559 215.750919 
L 148.318399 215.80102 
L 159.508239 216.006639 
L 170.698078 216.2863 
L 181.887918 216.010819 
L 193.077757 215.892829 
L 204.267597 215.932423 
L 215.457436 216.128395 
L 226.647276 216.399397 
L 237.837116 216.115194 
L 249.026955 215.988893 
L 260.216795 216.020952 
L 271.406634 216.210775 
L 282.596474 216.477375 
L 293.786314 216.185842 
L 304.976153 216.052899 
L 316.165993 216.080356 
L 327.355832 216.269778 
" style="fill:none;stroke:#2ca02c;stroke-linecap:square;stroke-width:1.5;"/>
   </g>
   <g id="line2d_15">
    <path clip-path="url(#padfa083edd)" d="M 58.799682 38.054127 
L 69.989522 38.22565 
L 81.179362 38.564255 
L 92.369201 39.068996 
L 103.559041 39.737788 
L 114.74888 40.494601 
L 125.93872 40.759041 
L 137.128559 41.189818 
L 148.318399 41.785349 
L 159.508239 42.542983 
L 170.698078 43.386677 
L 181.887918 43.739077 
L 193.077757 44.253388 
L 204.267597 44.92726 
L 215.457436 45.757334 
L 226.647276 46.667643 
L 237.837116 47.085825 
L 249.026955 47.657996 
L 260.216795 48.381342 
L 271.406634 49.252251 
L 282.596474 50.195278 
L 293.786314 50.64185 
L 304.976153 51.232223 
L 316.165993 51.963953 
L 327.355832 52.834389 
" style="fill:none;stroke:#d62728;stroke-linecap:square;stroke-width:1.5;"/>
   </g>
   <g id="patch_3">
    <path d="M 45.371875 225.549375 
L 45.371875 25.965375 
" style="fill:none;stroke:#000000;stroke-linecap:square;stroke-linejoin:miter;stroke-width:0.8;"/>
   </g>
   <g id="patch_4">
    <path d="M 340.78364 225.549375 
L 340.78364 25.965375 
" style="fill:none;stroke:#000000;stroke-linecap:square;stroke-linejoin:miter;stroke-width:0.8;"/>
   </g>
   <g id="patch_5">
    <path d="M 45.371875 225.549375 
L 340.78364 225.549375 
" style="fill:none;stroke:#000000;stroke-linecap:square;stroke-linejoin:miter;stroke-width:0.8;"/>
   </g>
   <g id="patch_6">
    <path d="M 45.371875 25.965375 
L 340.78364 25.965375 
" style="fill:none;stroke:#000000;stroke-linecap:square;stroke-linejoin:miter;stroke-width:0.8;"/>
   </g>
   <g id="text_12">
    <!-- $\alpha$ = 0.1, $\tau$ = 0.125 -->
    <defs>
     <path d="M 20.125 -1.125 
Q 15.375 -1.125 11.6875 1.125 
Q 8.015625 3.375 6 7.171875 
Q 4 10.984375 4 15.828125 
Q 4 22.609375 7.78125 29.25 
Q 11.578125 35.890625 17.84375 40.03125 
Q 24.125 44.1875 31 44.1875 
Q 36.078125 44.1875 39.9375 41.53125 
Q 43.796875 38.875 45.796875 34.453125 
Q 47.796875 30.03125 47.796875 25 
L 47.90625 18.3125 
Q 51.3125 23.046875 53.6875 28.140625 
Q 56.0625 33.25 57.328125 38.71875 
Q 57.515625 39.3125 58.109375 39.3125 
L 59.28125 39.3125 
Q 60.203125 39.3125 60.203125 38.375 
Q 60.203125 38.28125 60.109375 38.09375 
Q 58.9375 33.5 57.171875 29.265625 
Q 55.421875 25.046875 53.046875 21.09375 
Q 50.6875 17.140625 47.90625 13.921875 
Q 47.90625 1.515625 50.78125 1.515625 
Q 52.640625 1.515625 53.828125 2.609375 
Q 55.03125 3.71875 55.9375 5.328125 
Q 56.84375 6.9375 57.078125 6.984375 
L 58.296875 6.984375 
Q 59.078125 6.984375 59.078125 6 
Q 59.078125 3.515625 56.21875 1.1875 
Q 53.375 -1.125 50.59375 -1.125 
Q 46.96875 -1.125 44.578125 1.21875 
Q 42.1875 3.5625 41.3125 7.328125 
Q 36.625 3.328125 31.15625 1.09375 
Q 25.6875 -1.125 20.125 -1.125 
z
M 20.3125 1.515625 
Q 31 1.515625 40.828125 10.296875 
Q 40.765625 10.890625 40.671875 11.734375 
Q 40.578125 12.59375 40.578125 12.703125 
L 40.578125 23.484375 
Q 40.578125 41.609375 30.8125 41.609375 
Q 24.953125 41.609375 20.546875 36.59375 
Q 16.15625 31.59375 13.9375 24.625 
Q 11.71875 17.671875 11.71875 11.921875 
Q 11.71875 7.5625 13.9375 4.53125 
Q 16.15625 1.515625 20.3125 1.515625 
z
" id="Cmmi10-174"/>
     <path id="DejaVuSerif-32"/>
     <path d="M 10.59375 45.21875 
L 73.1875 45.21875 
L 73.1875 37.40625 
L 10.59375 37.40625 
z
M 10.59375 25.296875 
L 73.1875 25.296875 
L 73.1875 17.484375 
L 10.59375 17.484375 
z
" id="DejaVuSerif-61"/>
     <path d="M 3.609375 -9.71875 
Q 8.203125 -6.34375 10.34375 -1.78125 
Q 12.5 2.78125 12.5 9.28125 
L 12.5 11.078125 
L 22.125 11.078125 
Q 21.734375 2.734375 18.1875 -3.25 
Q 14.65625 -9.234375 7.515625 -13.625 
z
" id="DejaVuSerif-44"/>
     <path d="M 15.578125 1.515625 
Q 15.578125 2.203125 15.71875 2.59375 
L 26.21875 36.921875 
L 17.1875 36.921875 
Q 13.53125 36.921875 10.34375 34.625 
Q 7.171875 32.328125 5.078125 28.8125 
Q 4.890625 28.421875 4.5 28.421875 
L 3.328125 28.421875 
Q 2.390625 28.421875 2.390625 29.390625 
Q 2.390625 29.59375 2.59375 29.984375 
Q 5.859375 35.546875 9.59375 39.328125 
Q 13.328125 43.109375 18.015625 43.109375 
L 48.6875 43.109375 
Q 49.75 43.109375 50.484375 42.375 
Q 51.21875 41.65625 51.21875 40.578125 
Q 51.21875 39.109375 50.171875 38.015625 
Q 49.125 36.921875 47.609375 36.921875 
L 29.5 36.921875 
L 22.796875 2.390625 
Q 22.40625 0.78125 21.328125 -0.265625 
Q 20.265625 -1.3125 18.609375 -1.3125 
Q 17.328125 -1.3125 16.453125 -0.5 
Q 15.578125 0.296875 15.578125 1.515625 
z
" id="Cmmi10-191"/>
    </defs>
    <g transform="translate(116.469757 19.965375)scale(0.168 -0.168)">
     <use transform="translate(0 0.78125)" xlink:href="#Cmmi10-174"/>
     <use transform="translate(63.916016 0.78125)" xlink:href="#DejaVuSerif-32"/>
     <use transform="translate(95.703125 0.78125)" xlink:href="#DejaVuSerif-61"/>
     <use transform="translate(179.492188 0.78125)" xlink:href="#DejaVuSerif-32"/>
     <use transform="translate(211.279297 0.78125)" xlink:href="#DejaVuSerif-48"/>
     <use transform="translate(274.902344 0.78125)" xlink:href="#DejaVuSerif-46"/>
     <use transform="translate(306.689453 0.78125)" xlink:href="#DejaVuSerif-49"/>
     <use transform="translate(370.3125 0.78125)" xlink:href="#DejaVuSerif-44"/>
     <use transform="translate(402.099609 0.78125)" xlink:href="#DejaVuSerif-32"/>
     <use transform="translate(433.886719 0.78125)" xlink:href="#Cmmi10-191"/>
     <use transform="translate(477.587891 0.78125)" xlink:href="#DejaVuSerif-32"/>
     <use transform="translate(509.375 0.78125)" xlink:href="#DejaVuSerif-61"/>
     <use transform="translate(593.164062 0.78125)" xlink:href="#DejaVuSerif-32"/>
     <use transform="translate(624.951172 0.78125)" xlink:href="#DejaVuSerif-48"/>
     <use transform="translate(688.574219 0.78125)" xlink:href="#DejaVuSerif-46"/>
     <use transform="translate(720.361328 0.78125)" xlink:href="#DejaVuSerif-49"/>
     <use transform="translate(783.984375 0.78125)" xlink:href="#DejaVuSerif-50"/>
     <use transform="translate(847.607422 0.78125)" xlink:href="#DejaVuSerif-53"/>
    </g>
   </g>
  </g>
  <g id="axes_2">
   <g id="patch_7">
    <path d="M 399.865993 225.549375 
L 695.277757 225.549375 
L 695.277757 25.965375 
L 399.865993 25.965375 
z
" style="fill:#ffffff;"/>
   </g>
   <g id="matplotlib.axis_3">
    <g id="xtick_7">
     <g id="line2d_16">
      <g>
       <use style="stroke:#000000;stroke-width:0.8;" x="413.2938" xlink:href="#m63b7c6e858" y="225.549375"/>
      </g>
     </g>
     <g id="text_13">
      <!-- 0 -->
      <g transform="translate(408.84005 243.187188)scale(0.14 -0.14)">
       <use xlink:href="#DejaVuSerif-48"/>
      </g>
     </g>
    </g>
    <g id="xtick_8">
     <g id="line2d_17">
      <g>
       <use style="stroke:#000000;stroke-width:0.8;" x="469.242998" xlink:href="#m63b7c6e858" y="225.549375"/>
      </g>
     </g>
     <g id="text_14">
      <!-- 5 -->
      <g transform="translate(464.789248 243.187188)scale(0.14 -0.14)">
       <use xlink:href="#DejaVuSerif-53"/>
      </g>
     </g>
    </g>
    <g id="xtick_9">
     <g id="line2d_18">
      <g>
       <use style="stroke:#000000;stroke-width:0.8;" x="525.192196" xlink:href="#m63b7c6e858" y="225.549375"/>
      </g>
     </g>
     <g id="text_15">
      <!-- 10 -->
      <g transform="translate(516.284696 243.187188)scale(0.14 -0.14)">
       <use xlink:href="#DejaVuSerif-49"/>
       <use x="63.623047" xlink:href="#DejaVuSerif-48"/>
      </g>
     </g>
    </g>
    <g id="xtick_10">
     <g id="line2d_19">
      <g>
       <use style="stroke:#000000;stroke-width:0.8;" x="581.141394" xlink:href="#m63b7c6e858" y="225.549375"/>
      </g>
     </g>
     <g id="text_16">
      <!-- 15 -->
      <g transform="translate(572.233894 243.187188)scale(0.14 -0.14)">
       <use xlink:href="#DejaVuSerif-49"/>
       <use x="63.623047" xlink:href="#DejaVuSerif-53"/>
      </g>
     </g>
    </g>
    <g id="xtick_11">
     <g id="line2d_20">
      <g>
       <use style="stroke:#000000;stroke-width:0.8;" x="637.090592" xlink:href="#m63b7c6e858" y="225.549375"/>
      </g>
     </g>
     <g id="text_17">
      <!-- 20 -->
      <g transform="translate(628.183092 243.187188)scale(0.14 -0.14)">
       <use xlink:href="#DejaVuSerif-50"/>
       <use x="63.623047" xlink:href="#DejaVuSerif-48"/>
      </g>
     </g>
    </g>
    <g id="xtick_12">
     <g id="line2d_21">
      <g>
       <use style="stroke:#000000;stroke-width:0.8;" x="693.039789" xlink:href="#m63b7c6e858" y="225.549375"/>
      </g>
     </g>
     <g id="text_18">
      <!-- 25 -->
      <g transform="translate(684.132289 243.187188)scale(0.14 -0.14)">
       <use xlink:href="#DejaVuSerif-50"/>
       <use x="63.623047" xlink:href="#DejaVuSerif-53"/>
      </g>
     </g>
    </g>
   </g>
   <g id="matplotlib.axis_4">
    <g id="ytick_6">
     <g id="line2d_22">
      <g>
       <use style="stroke:#000000;stroke-width:0.8;" x="399.865993" xlink:href="#m5983867855" y="218.623123"/>
      </g>
     </g>
     <g id="text_19">
      <!-- −0.10 -->
      <defs>
       <path d="M 10.59375 35.296875 
L 73.1875 35.296875 
L 73.1875 27.390625 
L 10.59375 27.390625 
z
" id="DejaVuSerif-8722"/>
      </defs>
      <g transform="translate(349.962555 223.942029)scale(0.14 -0.14)">
       <use xlink:href="#DejaVuSerif-8722"/>
       <use x="83.789062" xlink:href="#DejaVuSerif-48"/>
       <use x="147.412109" xlink:href="#DejaVuSerif-46"/>
       <use x="179.199219" xlink:href="#DejaVuSerif-49"/>
       <use x="242.822266" xlink:href="#DejaVuSerif-48"/>
      </g>
     </g>
    </g>
    <g id="ytick_7">
     <g id="line2d_23">
      <g>
       <use style="stroke:#000000;stroke-width:0.8;" x="399.865993" xlink:href="#m5983867855" y="185.038514"/>
      </g>
     </g>
     <g id="text_20">
      <!-- −0.08 -->
      <g transform="translate(349.962555 190.35742)scale(0.14 -0.14)">
       <use xlink:href="#DejaVuSerif-8722"/>
       <use x="83.789062" xlink:href="#DejaVuSerif-48"/>
       <use x="147.412109" xlink:href="#DejaVuSerif-46"/>
       <use x="179.199219" xlink:href="#DejaVuSerif-48"/>
       <use x="242.822266" xlink:href="#DejaVuSerif-56"/>
      </g>
     </g>
    </g>
    <g id="ytick_8">
     <g id="line2d_24">
      <g>
       <use style="stroke:#000000;stroke-width:0.8;" x="399.865993" xlink:href="#m5983867855" y="151.453905"/>
      </g>
     </g>
     <g id="text_21">
      <!-- −0.06 -->
      <g transform="translate(349.962555 156.772811)scale(0.14 -0.14)">
       <use xlink:href="#DejaVuSerif-8722"/>
       <use x="83.789062" xlink:href="#DejaVuSerif-48"/>
       <use x="147.412109" xlink:href="#DejaVuSerif-46"/>
       <use x="179.199219" xlink:href="#DejaVuSerif-48"/>
       <use x="242.822266" xlink:href="#DejaVuSerif-54"/>
      </g>
     </g>
    </g>
    <g id="ytick_9">
     <g id="line2d_25">
      <g>
       <use style="stroke:#000000;stroke-width:0.8;" x="399.865993" xlink:href="#m5983867855" y="117.869296"/>
      </g>
     </g>
     <g id="text_22">
      <!-- −0.04 -->
      <g transform="translate(349.962555 123.188202)scale(0.14 -0.14)">
       <use xlink:href="#DejaVuSerif-8722"/>
       <use x="83.789062" xlink:href="#DejaVuSerif-48"/>
       <use x="147.412109" xlink:href="#DejaVuSerif-46"/>
       <use x="179.199219" xlink:href="#DejaVuSerif-48"/>
       <use x="242.822266" xlink:href="#DejaVuSerif-52"/>
      </g>
     </g>
    </g>
    <g id="ytick_10">
     <g id="line2d_26">
      <g>
       <use style="stroke:#000000;stroke-width:0.8;" x="399.865993" xlink:href="#m5983867855" y="84.284687"/>
      </g>
     </g>
     <g id="text_23">
      <!-- −0.02 -->
      <g transform="translate(349.962555 89.603593)scale(0.14 -0.14)">
       <use xlink:href="#DejaVuSerif-8722"/>
       <use x="83.789062" xlink:href="#DejaVuSerif-48"/>
       <use x="147.412109" xlink:href="#DejaVuSerif-46"/>
       <use x="179.199219" xlink:href="#DejaVuSerif-48"/>
       <use x="242.822266" xlink:href="#DejaVuSerif-50"/>
      </g>
     </g>
    </g>
    <g id="ytick_11">
     <g id="line2d_27">
      <g>
       <use style="stroke:#000000;stroke-width:0.8;" x="399.865993" xlink:href="#m5983867855" y="50.700078"/>
      </g>
     </g>
     <g id="text_24">
      <!-- 0.00 -->
      <g transform="translate(361.694118 56.018984)scale(0.14 -0.14)">
       <use xlink:href="#DejaVuSerif-48"/>
       <use x="63.623047" xlink:href="#DejaVuSerif-46"/>
       <use x="95.410156" xlink:href="#DejaVuSerif-48"/>
       <use x="159.033203" xlink:href="#DejaVuSerif-48"/>
      </g>
     </g>
    </g>
   </g>
   <g id="line2d_28">
    <path clip-path="url(#pccec03dfac)" d="M 413.2938 111.99287 
L 424.48364 84.585991 
L 435.673479 82.750608 
L 446.863319 109.304946 
L 458.053158 115.528347 
L 469.242998 104.392982 
L 480.432838 85.770176 
L 491.622677 60.365291 
L 502.812517 45.636809 
L 514.002356 42.492266 
L 525.192196 56.477369 
L 536.382035 76.108979 
L 547.571875 68.497975 
L 558.761715 54.322525 
L 569.951554 48.684942 
L 581.141394 51.690811 
L 592.331233 63.613987 
L 603.521073 63.522369 
L 614.710912 49.911671 
L 625.900752 41.642778 
L 637.090592 42.016476 
L 648.280431 50.87032 
L 659.470271 61.929637 
L 670.66011 61.085858 
L 681.84995 60.477588 
" style="fill:none;stroke:#1f77b4;stroke-linecap:square;stroke-width:1.5;"/>
   </g>
   <g id="line2d_29">
    <path clip-path="url(#pccec03dfac)" d="M 413.2938 216.477375 
L 424.48364 175.335909 
L 435.673479 132.581409 
L 446.863319 122.907794 
L 458.053158 143.267946 
L 469.242998 165.461311 
L 480.432838 139.662644 
L 491.622677 89.782189 
L 502.812517 65.145236 
L 514.002356 65.355146 
L 525.192196 73.266734 
L 536.382035 63.440373 
L 547.571875 57.205574 
L 558.761715 48.776989 
L 569.951554 42.845908 
L 581.141394 41.760666 
L 592.331233 42.591561 
L 603.521073 48.696229 
L 614.710912 48.872282 
L 625.900752 45.974762 
L 637.090592 49.14624 
L 648.280431 54.048705 
L 659.470271 78.136306 
L 670.66011 101.804772 
L 681.84995 102.88737 
" style="fill:none;stroke:#ff7f0e;stroke-linecap:square;stroke-width:1.5;"/>
   </g>
   <g id="line2d_30">
    <path clip-path="url(#pccec03dfac)" d="M 413.2938 110.232886 
L 424.48364 84.237631 
L 435.673479 65.882152 
L 446.863319 51.170646 
L 458.053158 43.457136 
L 469.242998 53.67103 
L 480.432838 74.737073 
L 491.622677 66.483223 
L 502.812517 41.563501 
L 514.002356 44.66344 
L 525.192196 72.210477 
L 536.382035 78.364663 
L 547.571875 55.410189 
L 558.761715 36.290188 
L 569.951554 36.626982 
L 581.141394 54.625105 
L 592.331233 62.972571 
L 603.521073 55.013357 
L 614.710912 42.98663 
L 625.900752 42.830773 
L 637.090592 52.051356 
L 648.280431 50.997648 
L 659.470271 56.041434 
L 670.66011 68.643635 
L 681.84995 75.467397 
" style="fill:none;stroke:#2ca02c;stroke-linecap:square;stroke-width:1.5;"/>
   </g>
   <g id="line2d_31">
    <path clip-path="url(#pccec03dfac)" d="M 413.2938 119.698412 
L 424.48364 101.487476 
L 435.673479 97.987102 
L 446.863319 97.083313 
L 458.053158 90.90196 
L 469.242998 89.423039 
L 480.432838 72.459136 
L 491.622677 56.911992 
L 502.812517 61.121378 
L 514.002356 67.362496 
L 525.192196 77.234829 
L 536.382035 95.984552 
L 547.571875 83.473542 
L 558.761715 46.971277 
L 569.951554 35.037375 
L 581.141394 58.247365 
L 592.331233 76.175003 
L 603.521073 69.938162 
L 614.710912 55.264866 
L 625.900752 51.163665 
L 637.090592 58.240553 
L 648.280431 68.502519 
L 659.470271 76.032866 
L 670.66011 77.42365 
L 681.84995 75.779803 
" style="fill:none;stroke:#d62728;stroke-linecap:square;stroke-width:1.5;"/>
   </g>
   <g id="patch_8">
    <path d="M 399.865993 225.549375 
L 399.865993 25.965375 
" style="fill:none;stroke:#000000;stroke-linecap:square;stroke-linejoin:miter;stroke-width:0.8;"/>
   </g>
   <g id="patch_9">
    <path d="M 695.277757 225.549375 
L 695.277757 25.965375 
" style="fill:none;stroke:#000000;stroke-linecap:square;stroke-linejoin:miter;stroke-width:0.8;"/>
   </g>
   <g id="patch_10">
    <path d="M 399.865993 225.549375 
L 695.277757 225.549375 
" style="fill:none;stroke:#000000;stroke-linecap:square;stroke-linejoin:miter;stroke-width:0.8;"/>
   </g>
   <g id="patch_11">
    <path d="M 399.865993 25.965375 
L 695.277757 25.965375 
" style="fill:none;stroke:#000000;stroke-linecap:square;stroke-linejoin:miter;stroke-width:0.8;"/>
   </g>
   <g id="text_25">
    <!-- $\alpha$ = 0.1, $\tau$ = 2.0 -->
    <g transform="translate(481.715875 19.965375)scale(0.168 -0.168)">
     <use transform="translate(0 0.78125)" xlink:href="#Cmmi10-174"/>
     <use transform="translate(63.916016 0.78125)" xlink:href="#DejaVuSerif-32"/>
     <use transform="translate(95.703125 0.78125)" xlink:href="#DejaVuSerif-61"/>
     <use transform="translate(179.492188 0.78125)" xlink:href="#DejaVuSerif-32"/>
     <use transform="translate(211.279297 0.78125)" xlink:href="#DejaVuSerif-48"/>
     <use transform="translate(274.902344 0.78125)" xlink:href="#DejaVuSerif-46"/>
     <use transform="translate(306.689453 0.78125)" xlink:href="#DejaVuSerif-49"/>
     <use transform="translate(370.3125 0.78125)" xlink:href="#DejaVuSerif-44"/>
     <use transform="translate(402.099609 0.78125)" xlink:href="#DejaVuSerif-32"/>
     <use transform="translate(433.886719 0.78125)" xlink:href="#Cmmi10-191"/>
     <use transform="translate(477.587891 0.78125)" xlink:href="#DejaVuSerif-32"/>
     <use transform="translate(509.375 0.78125)" xlink:href="#DejaVuSerif-61"/>
     <use transform="translate(593.164062 0.78125)" xlink:href="#DejaVuSerif-32"/>
     <use transform="translate(624.951172 0.78125)" xlink:href="#DejaVuSerif-50"/>
     <use transform="translate(688.574219 0.78125)" xlink:href="#DejaVuSerif-46"/>
     <use transform="translate(720.361328 0.78125)" xlink:href="#DejaVuSerif-48"/>
    </g>
   </g>
  </g>
  <g id="axes_3">
   <g id="patch_12">
    <path d="M 754.36011 225.549375 
L 1049.771875 225.549375 
L 1049.771875 25.965375 
L 754.36011 25.965375 
z
" style="fill:#ffffff;"/>
   </g>
   <g id="matplotlib.axis_5">
    <g id="xtick_13">
     <g id="line2d_32">
      <g>
       <use style="stroke:#000000;stroke-width:0.8;" x="767.787918" xlink:href="#m63b7c6e858" y="225.549375"/>
      </g>
     </g>
     <g id="text_26">
      <!-- 0 -->
      <g transform="translate(763.334168 243.187188)scale(0.14 -0.14)">
       <use xlink:href="#DejaVuSerif-48"/>
      </g>
     </g>
    </g>
    <g id="xtick_14">
     <g id="line2d_33">
      <g>
       <use style="stroke:#000000;stroke-width:0.8;" x="823.737116" xlink:href="#m63b7c6e858" y="225.549375"/>
      </g>
     </g>
     <g id="text_27">
      <!-- 5 -->
      <g transform="translate(819.283366 243.187188)scale(0.14 -0.14)">
       <use xlink:href="#DejaVuSerif-53"/>
      </g>
     </g>
    </g>
    <g id="xtick_15">
     <g id="line2d_34">
      <g>
       <use style="stroke:#000000;stroke-width:0.8;" x="879.686314" xlink:href="#m63b7c6e858" y="225.549375"/>
      </g>
     </g>
     <g id="text_28">
      <!-- 10 -->
      <g transform="translate(870.778814 243.187188)scale(0.14 -0.14)">
       <use xlink:href="#DejaVuSerif-49"/>
       <use x="63.623047" xlink:href="#DejaVuSerif-48"/>
      </g>
     </g>
    </g>
    <g id="xtick_16">
     <g id="line2d_35">
      <g>
       <use style="stroke:#000000;stroke-width:0.8;" x="935.635511" xlink:href="#m63b7c6e858" y="225.549375"/>
      </g>
     </g>
     <g id="text_29">
      <!-- 15 -->
      <g transform="translate(926.728011 243.187188)scale(0.14 -0.14)">
       <use xlink:href="#DejaVuSerif-49"/>
       <use x="63.623047" xlink:href="#DejaVuSerif-53"/>
      </g>
     </g>
    </g>
    <g id="xtick_17">
     <g id="line2d_36">
      <g>
       <use style="stroke:#000000;stroke-width:0.8;" x="991.584709" xlink:href="#m63b7c6e858" y="225.549375"/>
      </g>
     </g>
     <g id="text_30">
      <!-- 20 -->
      <g transform="translate(982.677209 243.187188)scale(0.14 -0.14)">
       <use xlink:href="#DejaVuSerif-50"/>
       <use x="63.623047" xlink:href="#DejaVuSerif-48"/>
      </g>
     </g>
    </g>
    <g id="xtick_18">
     <g id="line2d_37">
      <g>
       <use style="stroke:#000000;stroke-width:0.8;" x="1047.533907" xlink:href="#m63b7c6e858" y="225.549375"/>
      </g>
     </g>
     <g id="text_31">
      <!-- 25 -->
      <g transform="translate(1038.626407 243.187188)scale(0.14 -0.14)">
       <use xlink:href="#DejaVuSerif-50"/>
       <use x="63.623047" xlink:href="#DejaVuSerif-53"/>
      </g>
     </g>
    </g>
   </g>
   <g id="matplotlib.axis_6">
    <g id="ytick_12">
     <g id="line2d_38">
      <g>
       <use style="stroke:#000000;stroke-width:0.8;" x="754.36011" xlink:href="#m5983867855" y="209.203057"/>
      </g>
     </g>
     <g id="text_32">
      <!-- −0.08 -->
      <g transform="translate(704.456673 214.521963)scale(0.14 -0.14)">
       <use xlink:href="#DejaVuSerif-8722"/>
       <use x="83.789062" xlink:href="#DejaVuSerif-48"/>
       <use x="147.412109" xlink:href="#DejaVuSerif-46"/>
       <use x="179.199219" xlink:href="#DejaVuSerif-48"/>
       <use x="242.822266" xlink:href="#DejaVuSerif-56"/>
      </g>
     </g>
    </g>
    <g id="ytick_13">
     <g id="line2d_39">
      <g>
       <use style="stroke:#000000;stroke-width:0.8;" x="754.36011" xlink:href="#m5983867855" y="175.830968"/>
      </g>
     </g>
     <g id="text_33">
      <!-- −0.06 -->
      <g transform="translate(704.456673 181.149874)scale(0.14 -0.14)">
       <use xlink:href="#DejaVuSerif-8722"/>
       <use x="83.789062" xlink:href="#DejaVuSerif-48"/>
       <use x="147.412109" xlink:href="#DejaVuSerif-46"/>
       <use x="179.199219" xlink:href="#DejaVuSerif-48"/>
       <use x="242.822266" xlink:href="#DejaVuSerif-54"/>
      </g>
     </g>
    </g>
    <g id="ytick_14">
     <g id="line2d_40">
      <g>
       <use style="stroke:#000000;stroke-width:0.8;" x="754.36011" xlink:href="#m5983867855" y="142.458878"/>
      </g>
     </g>
     <g id="text_34">
      <!-- −0.04 -->
      <g transform="translate(704.456673 147.777785)scale(0.14 -0.14)">
       <use xlink:href="#DejaVuSerif-8722"/>
       <use x="83.789062" xlink:href="#DejaVuSerif-48"/>
       <use x="147.412109" xlink:href="#DejaVuSerif-46"/>
       <use x="179.199219" xlink:href="#DejaVuSerif-48"/>
       <use x="242.822266" xlink:href="#DejaVuSerif-52"/>
      </g>
     </g>
    </g>
    <g id="ytick_15">
     <g id="line2d_41">
      <g>
       <use style="stroke:#000000;stroke-width:0.8;" x="754.36011" xlink:href="#m5983867855" y="109.086789"/>
      </g>
     </g>
     <g id="text_35">
      <!-- −0.02 -->
      <g transform="translate(704.456673 114.405695)scale(0.14 -0.14)">
       <use xlink:href="#DejaVuSerif-8722"/>
       <use x="83.789062" xlink:href="#DejaVuSerif-48"/>
       <use x="147.412109" xlink:href="#DejaVuSerif-46"/>
       <use x="179.199219" xlink:href="#DejaVuSerif-48"/>
       <use x="242.822266" xlink:href="#DejaVuSerif-50"/>
      </g>
     </g>
    </g>
    <g id="ytick_16">
     <g id="line2d_42">
      <g>
       <use style="stroke:#000000;stroke-width:0.8;" x="754.36011" xlink:href="#m5983867855" y="75.7147"/>
      </g>
     </g>
     <g id="text_36">
      <!-- 0.00 -->
      <g transform="translate(716.188235 81.033606)scale(0.14 -0.14)">
       <use xlink:href="#DejaVuSerif-48"/>
       <use x="63.623047" xlink:href="#DejaVuSerif-46"/>
       <use x="95.410156" xlink:href="#DejaVuSerif-48"/>
       <use x="159.033203" xlink:href="#DejaVuSerif-48"/>
      </g>
     </g>
    </g>
    <g id="ytick_17">
     <g id="line2d_43">
      <g>
       <use style="stroke:#000000;stroke-width:0.8;" x="754.36011" xlink:href="#m5983867855" y="42.342611"/>
      </g>
     </g>
     <g id="text_37">
      <!-- 0.02 -->
      <g transform="translate(716.188235 47.661517)scale(0.14 -0.14)">
       <use xlink:href="#DejaVuSerif-48"/>
       <use x="63.623047" xlink:href="#DejaVuSerif-46"/>
       <use x="95.410156" xlink:href="#DejaVuSerif-48"/>
       <use x="159.033203" xlink:href="#DejaVuSerif-50"/>
      </g>
     </g>
    </g>
   </g>
   <g id="line2d_44">
    <path clip-path="url(#pf1bf907b22)" d="M 767.787918 119.319926 
L 778.977757 78.369259 
L 790.167597 95.762058 
L 801.357436 41.86293 
L 812.547276 92.686428 
L 823.737116 135.45881 
L 834.926955 84.463851 
L 846.116795 80.4091 
L 857.306634 93.942656 
L 868.496474 49.935192 
L 879.686314 80.931005 
L 890.876153 71.54366 
L 902.065993 72.076441 
L 913.255832 102.236865 
L 924.445672 92.577794 
L 935.635511 77.544164 
L 946.825351 75.161732 
L 958.015191 94.354598 
L 969.20503 87.687948 
L 980.39487 89.738029 
L 991.584709 66.795594 
L 1002.774549 79.873859 
L 1013.964388 103.170009 
L 1025.154228 102.039668 
L 1036.344068 87.079561 
" style="fill:none;stroke:#1f77b4;stroke-linecap:square;stroke-width:1.5;"/>
   </g>
   <g id="line2d_45">
    <path clip-path="url(#pf1bf907b22)" d="M 767.787918 133.424324 
L 778.977757 151.493749 
L 790.167597 134.235534 
L 801.357436 178.193743 
L 812.547276 120.072121 
L 823.737116 68.423792 
L 834.926955 87.369513 
L 846.116795 92.585367 
L 857.306634 128.363054 
L 868.496474 81.652896 
L 879.686314 96.873657 
L 890.876153 82.56764 
L 902.065993 79.646607 
L 913.255832 84.908266 
L 924.445672 86.213997 
L 935.635511 100.680632 
L 946.825351 85.875824 
L 958.015191 83.24605 
L 969.20503 79.46231 
L 980.39487 97.723227 
L 991.584709 104.576976 
L 1002.774549 93.064036 
L 1013.964388 148.671785 
L 1025.154228 105.564863 
L 1036.344068 124.655705 
" style="fill:none;stroke:#ff7f0e;stroke-linecap:square;stroke-width:1.5;"/>
   </g>
   <g id="line2d_46">
    <path clip-path="url(#pf1bf907b22)" d="M 767.787918 142.725753 
L 778.977757 97.279075 
L 790.167597 102.681174 
L 801.357436 39.273029 
L 812.547276 39.748917 
L 823.737116 139.465268 
L 834.926955 54.576148 
L 846.116795 84.991325 
L 857.306634 56.148041 
L 868.496474 77.182282 
L 879.686314 89.30791 
L 890.876153 71.288459 
L 902.065993 70.060189 
L 913.255832 46.224895 
L 924.445672 110.768714 
L 935.635511 55.436383 
L 946.825351 78.681535 
L 958.015191 94.031621 
L 969.20503 80.803266 
L 980.39487 78.859912 
L 991.584709 80.405131 
L 1002.774549 126.95527 
L 1013.964388 117.117925 
L 1025.154228 181.3503 
L 1036.344068 35.037375 
" style="fill:none;stroke:#2ca02c;stroke-linecap:square;stroke-width:1.5;"/>
   </g>
   <g id="line2d_47">
    <path clip-path="url(#pf1bf907b22)" d="M 767.787918 216.477375 
L 778.977757 142.840494 
L 790.167597 174.165306 
L 801.357436 124.998783 
L 812.547276 121.283741 
L 823.737116 59.584146 
L 834.926955 92.48693 
L 846.116795 110.3777 
L 857.306634 109.535733 
L 868.496474 85.417535 
L 879.686314 121.63756 
L 890.876153 76.070964 
L 902.065993 112.416768 
L 913.255832 71.087141 
L 924.445672 73.406169 
L 935.635511 92.59939 
L 946.825351 73.005953 
L 958.015191 80.383283 
L 969.20503 84.174569 
L 980.39487 83.212915 
L 991.584709 79.118876 
L 1002.774549 100.616598 
L 1013.964388 47.309346 
L 1025.154228 85.016994 
L 1036.344068 122.443224 
" style="fill:none;stroke:#d62728;stroke-linecap:square;stroke-width:1.5;"/>
   </g>
   <g id="patch_13">
    <path d="M 754.36011 225.549375 
L 754.36011 25.965375 
" style="fill:none;stroke:#000000;stroke-linecap:square;stroke-linejoin:miter;stroke-width:0.8;"/>
   </g>
   <g id="patch_14">
    <path d="M 1049.771875 225.549375 
L 1049.771875 25.965375 
" style="fill:none;stroke:#000000;stroke-linecap:square;stroke-linejoin:miter;stroke-width:0.8;"/>
   </g>
   <g id="patch_15">
    <path d="M 754.36011 225.549375 
L 1049.771875 225.549375 
" style="fill:none;stroke:#000000;stroke-linecap:square;stroke-linejoin:miter;stroke-width:0.8;"/>
   </g>
   <g id="patch_16">
    <path d="M 754.36011 25.965375 
L 1049.771875 25.965375 
" style="fill:none;stroke:#000000;stroke-linecap:square;stroke-linejoin:miter;stroke-width:0.8;"/>
   </g>
   <g id="text_38">
    <!-- $\alpha$ = 0.1, $\tau$ = 16.0 -->
    <g transform="translate(830.833993 19.965375)scale(0.168 -0.168)">
     <use transform="translate(0 0.78125)" xlink:href="#Cmmi10-174"/>
     <use transform="translate(63.916016 0.78125)" xlink:href="#DejaVuSerif-32"/>
     <use transform="translate(95.703125 0.78125)" xlink:href="#DejaVuSerif-61"/>
     <use transform="translate(179.492188 0.78125)" xlink:href="#DejaVuSerif-32"/>
     <use transform="translate(211.279297 0.78125)" xlink:href="#DejaVuSerif-48"/>
     <use transform="translate(274.902344 0.78125)" xlink:href="#DejaVuSerif-46"/>
     <use transform="translate(306.689453 0.78125)" xlink:href="#DejaVuSerif-49"/>
     <use transform="translate(370.3125 0.78125)" xlink:href="#DejaVuSerif-44"/>
     <use transform="translate(402.099609 0.78125)" xlink:href="#DejaVuSerif-32"/>
     <use transform="translate(433.886719 0.78125)" xlink:href="#Cmmi10-191"/>
     <use transform="translate(477.587891 0.78125)" xlink:href="#DejaVuSerif-32"/>
     <use transform="translate(509.375 0.78125)" xlink:href="#DejaVuSerif-61"/>
     <use transform="translate(593.164062 0.78125)" xlink:href="#DejaVuSerif-32"/>
     <use transform="translate(624.951172 0.78125)" xlink:href="#DejaVuSerif-49"/>
     <use transform="translate(688.574219 0.78125)" xlink:href="#DejaVuSerif-54"/>
     <use transform="translate(752.197266 0.78125)" xlink:href="#DejaVuSerif-46"/>
     <use transform="translate(783.984375 0.78125)" xlink:href="#DejaVuSerif-48"/>
    </g>
   </g>
  </g>
 </g>
 <defs>
  <clipPath id="padfa083edd">
   <rect height="199.584" width="295.411765" x="45.371875" y="25.965375"/>
  </clipPath>
  <clipPath id="pccec03dfac">
   <rect height="199.584" width="295.411765" x="399.865993" y="25.965375"/>
  </clipPath>
  <clipPath id="pf1bf907b22">
   <rect height="199.584" width="295.411765" x="754.36011" y="25.965375"/>
  </clipPath>
 </defs>
</svg>
