<?xml version="1.0" encoding="utf-8" standalone="no"?>
<!DOCTYPE svg PUBLIC "-//W3C//DTD SVG 1.1//EN"
  "http://www.w3.org/Graphics/SVG/1.1/DTD/svg11.dtd">
<!-- Created with matplotlib (http://matplotlib.org/) -->
<svg height="256pt" version="1.1" viewBox="0 0 723 256" width="723pt" xmlns="http://www.w3.org/2000/svg" xmlns:xlink="http://www.w3.org/1999/xlink">
 <defs>
  <style type="text/css">
*{stroke-linecap:butt;stroke-linejoin:round;}
  </style>
 </defs>
 <g id="figure_1">
  <g id="patch_1">
   <path d="M 0 256.338125 
L 723.128125 256.338125 
L 723.128125 0 
L 0 0 
z
" style="fill:#ffffff;"/>
  </g>
  <g id="axes_1">
   <g id="patch_2">
    <path d="M 42.828125 111.5 
L 712.428125 111.5 
L 712.428125 10.7 
L 42.828125 10.7 
z
" style="fill:#ffffff;"/>
   </g>
   <g id="matplotlib.axis_1">
    <g id="xtick_1">
     <g id="line2d_1">
      <defs>
       <path d="M 0 0 
L 0 3.5 
" id="m36882c37b8" style="stroke:#000000;stroke-width:0.8;"/>
      </defs>
      <g>
       <use style="stroke:#000000;stroke-width:0.8;" x="73.264489" xlink:href="#m36882c37b8" y="111.5"/>
      </g>
     </g>
     <g id="text_1">
      <!-- 0 -->
      <defs>
       <path d="M 31.78125 66.40625 
Q 24.171875 66.40625 20.328125 58.90625 
Q 16.5 51.421875 16.5 36.375 
Q 16.5 21.390625 20.328125 13.890625 
Q 24.171875 6.390625 31.78125 6.390625 
Q 39.453125 6.390625 43.28125 13.890625 
Q 47.125 21.390625 47.125 36.375 
Q 47.125 51.421875 43.28125 58.90625 
Q 39.453125 66.40625 31.78125 66.40625 
z
M 31.78125 74.21875 
Q 44.046875 74.21875 50.515625 64.515625 
Q 56.984375 54.828125 56.984375 36.375 
Q 56.984375 17.96875 50.515625 8.265625 
Q 44.046875 -1.421875 31.78125 -1.421875 
Q 19.53125 -1.421875 13.0625 8.265625 
Q 6.59375 17.96875 6.59375 36.375 
Q 6.59375 54.828125 13.0625 64.515625 
Q 19.53125 74.21875 31.78125 74.21875 
z
" id="DejaVuSans-30"/>
      </defs>
      <g transform="translate(70.083239 126.098437)scale(0.1 -0.1)">
       <use xlink:href="#DejaVuSans-30"/>
      </g>
     </g>
    </g>
    <g id="xtick_2">
     <g id="line2d_2">
      <g>
       <use style="stroke:#000000;stroke-width:0.8;" x="149.737764" xlink:href="#m36882c37b8" y="111.5"/>
      </g>
     </g>
     <g id="text_2">
      <!-- 25 -->
      <defs>
       <path d="M 19.1875 8.296875 
L 53.609375 8.296875 
L 53.609375 0 
L 7.328125 0 
L 7.328125 8.296875 
Q 12.9375 14.109375 22.625 23.890625 
Q 32.328125 33.6875 34.8125 36.53125 
Q 39.546875 41.84375 41.421875 45.53125 
Q 43.3125 49.21875 43.3125 52.78125 
Q 43.3125 58.59375 39.234375 62.25 
Q 35.15625 65.921875 28.609375 65.921875 
Q 23.96875 65.921875 18.8125 64.3125 
Q 13.671875 62.703125 7.8125 59.421875 
L 7.8125 69.390625 
Q 13.765625 71.78125 18.9375 73 
Q 24.125 74.21875 28.421875 74.21875 
Q 39.75 74.21875 46.484375 68.546875 
Q 53.21875 62.890625 53.21875 53.421875 
Q 53.21875 48.921875 51.53125 44.890625 
Q 49.859375 40.875 45.40625 35.40625 
Q 44.1875 33.984375 37.640625 27.21875 
Q 31.109375 20.453125 19.1875 8.296875 
z
" id="DejaVuSans-32"/>
       <path d="M 10.796875 72.90625 
L 49.515625 72.90625 
L 49.515625 64.59375 
L 19.828125 64.59375 
L 19.828125 46.734375 
Q 21.96875 47.46875 24.109375 47.828125 
Q 26.265625 48.1875 28.421875 48.1875 
Q 40.625 48.1875 47.75 41.5 
Q 54.890625 34.8125 54.890625 23.390625 
Q 54.890625 11.625 47.5625 5.09375 
Q 40.234375 -1.421875 26.90625 -1.421875 
Q 22.3125 -1.421875 17.546875 -0.640625 
Q 12.796875 0.140625 7.71875 1.703125 
L 7.71875 11.625 
Q 12.109375 9.234375 16.796875 8.0625 
Q 21.484375 6.890625 26.703125 6.890625 
Q 35.15625 6.890625 40.078125 11.328125 
Q 45.015625 15.765625 45.015625 23.390625 
Q 45.015625 31 40.078125 35.4375 
Q 35.15625 39.890625 26.703125 39.890625 
Q 22.75 39.890625 18.8125 39.015625 
Q 14.890625 38.140625 10.796875 36.28125 
z
" id="DejaVuSans-35"/>
      </defs>
      <g transform="translate(143.375264 126.098437)scale(0.1 -0.1)">
       <use xlink:href="#DejaVuSans-32"/>
       <use x="63.623047" xlink:href="#DejaVuSans-35"/>
      </g>
     </g>
    </g>
    <g id="xtick_3">
     <g id="line2d_3">
      <g>
       <use style="stroke:#000000;stroke-width:0.8;" x="226.21104" xlink:href="#m36882c37b8" y="111.5"/>
      </g>
     </g>
     <g id="text_3">
      <!-- 50 -->
      <g transform="translate(219.84854 126.098437)scale(0.1 -0.1)">
       <use xlink:href="#DejaVuSans-35"/>
       <use x="63.623047" xlink:href="#DejaVuSans-30"/>
      </g>
     </g>
    </g>
    <g id="xtick_4">
     <g id="line2d_4">
      <g>
       <use style="stroke:#000000;stroke-width:0.8;" x="302.684315" xlink:href="#m36882c37b8" y="111.5"/>
      </g>
     </g>
     <g id="text_4">
      <!-- 75 -->
      <defs>
       <path d="M 8.203125 72.90625 
L 55.078125 72.90625 
L 55.078125 68.703125 
L 28.609375 0 
L 18.3125 0 
L 43.21875 64.59375 
L 8.203125 64.59375 
z
" id="DejaVuSans-37"/>
      </defs>
      <g transform="translate(296.321815 126.098437)scale(0.1 -0.1)">
       <use xlink:href="#DejaVuSans-37"/>
       <use x="63.623047" xlink:href="#DejaVuSans-35"/>
      </g>
     </g>
    </g>
    <g id="xtick_5">
     <g id="line2d_5">
      <g>
       <use style="stroke:#000000;stroke-width:0.8;" x="379.157591" xlink:href="#m36882c37b8" y="111.5"/>
      </g>
     </g>
     <g id="text_5">
      <!-- 100 -->
      <defs>
       <path d="M 12.40625 8.296875 
L 28.515625 8.296875 
L 28.515625 63.921875 
L 10.984375 60.40625 
L 10.984375 69.390625 
L 28.421875 72.90625 
L 38.28125 72.90625 
L 38.28125 8.296875 
L 54.390625 8.296875 
L 54.390625 0 
L 12.40625 0 
z
" id="DejaVuSans-31"/>
      </defs>
      <g transform="translate(369.613841 126.098437)scale(0.1 -0.1)">
       <use xlink:href="#DejaVuSans-31"/>
       <use x="63.623047" xlink:href="#DejaVuSans-30"/>
       <use x="127.246094" xlink:href="#DejaVuSans-30"/>
      </g>
     </g>
    </g>
    <g id="xtick_6">
     <g id="line2d_6">
      <g>
       <use style="stroke:#000000;stroke-width:0.8;" x="455.630866" xlink:href="#m36882c37b8" y="111.5"/>
      </g>
     </g>
     <g id="text_6">
      <!-- 125 -->
      <g transform="translate(446.087116 126.098437)scale(0.1 -0.1)">
       <use xlink:href="#DejaVuSans-31"/>
       <use x="63.623047" xlink:href="#DejaVuSans-32"/>
       <use x="127.246094" xlink:href="#DejaVuSans-35"/>
      </g>
     </g>
    </g>
    <g id="xtick_7">
     <g id="line2d_7">
      <g>
       <use style="stroke:#000000;stroke-width:0.8;" x="532.104141" xlink:href="#m36882c37b8" y="111.5"/>
      </g>
     </g>
     <g id="text_7">
      <!-- 150 -->
      <g transform="translate(522.560391 126.098437)scale(0.1 -0.1)">
       <use xlink:href="#DejaVuSans-31"/>
       <use x="63.623047" xlink:href="#DejaVuSans-35"/>
       <use x="127.246094" xlink:href="#DejaVuSans-30"/>
      </g>
     </g>
    </g>
    <g id="xtick_8">
     <g id="line2d_8">
      <g>
       <use style="stroke:#000000;stroke-width:0.8;" x="608.577417" xlink:href="#m36882c37b8" y="111.5"/>
      </g>
     </g>
     <g id="text_8">
      <!-- 175 -->
      <g transform="translate(599.033667 126.098437)scale(0.1 -0.1)">
       <use xlink:href="#DejaVuSans-31"/>
       <use x="63.623047" xlink:href="#DejaVuSans-37"/>
       <use x="127.246094" xlink:href="#DejaVuSans-35"/>
      </g>
     </g>
    </g>
    <g id="xtick_9">
     <g id="line2d_9">
      <g>
       <use style="stroke:#000000;stroke-width:0.8;" x="685.050692" xlink:href="#m36882c37b8" y="111.5"/>
      </g>
     </g>
     <g id="text_9">
      <!-- 200 -->
      <g transform="translate(675.506942 126.098437)scale(0.1 -0.1)">
       <use xlink:href="#DejaVuSans-32"/>
       <use x="63.623047" xlink:href="#DejaVuSans-30"/>
       <use x="127.246094" xlink:href="#DejaVuSans-30"/>
      </g>
     </g>
    </g>
   </g>
   <g id="matplotlib.axis_2">
    <g id="ytick_1">
     <g id="line2d_10">
      <defs>
       <path d="M 0 0 
L -3.5 0 
" id="m87f2898da7" style="stroke:#000000;stroke-width:0.8;"/>
      </defs>
      <g>
       <use style="stroke:#000000;stroke-width:0.8;" x="42.828125" xlink:href="#m87f2898da7" y="106.93433"/>
      </g>
     </g>
     <g id="text_10">
      <!-- 0.00 -->
      <defs>
       <path d="M 10.6875 12.40625 
L 21 12.40625 
L 21 0 
L 10.6875 0 
z
" id="DejaVuSans-2e"/>
      </defs>
      <g transform="translate(13.5625 110.733549)scale(0.1 -0.1)">
       <use xlink:href="#DejaVuSans-30"/>
       <use x="63.623047" xlink:href="#DejaVuSans-2e"/>
       <use x="95.410156" xlink:href="#DejaVuSans-30"/>
       <use x="159.033203" xlink:href="#DejaVuSans-30"/>
      </g>
     </g>
    </g>
    <g id="ytick_2">
     <g id="line2d_11">
      <g>
       <use style="stroke:#000000;stroke-width:0.8;" x="42.828125" xlink:href="#m87f2898da7" y="83.922607"/>
      </g>
     </g>
     <g id="text_11">
      <!-- 0.25 -->
      <g transform="translate(13.5625 87.721825)scale(0.1 -0.1)">
       <use xlink:href="#DejaVuSans-30"/>
       <use x="63.623047" xlink:href="#DejaVuSans-2e"/>
       <use x="95.410156" xlink:href="#DejaVuSans-32"/>
       <use x="159.033203" xlink:href="#DejaVuSans-35"/>
      </g>
     </g>
    </g>
    <g id="ytick_3">
     <g id="line2d_12">
      <g>
       <use style="stroke:#000000;stroke-width:0.8;" x="42.828125" xlink:href="#m87f2898da7" y="60.910883"/>
      </g>
     </g>
     <g id="text_12">
      <!-- 0.50 -->
      <g transform="translate(13.5625 64.710102)scale(0.1 -0.1)">
       <use xlink:href="#DejaVuSans-30"/>
       <use x="63.623047" xlink:href="#DejaVuSans-2e"/>
       <use x="95.410156" xlink:href="#DejaVuSans-35"/>
       <use x="159.033203" xlink:href="#DejaVuSans-30"/>
      </g>
     </g>
    </g>
    <g id="ytick_4">
     <g id="line2d_13">
      <g>
       <use style="stroke:#000000;stroke-width:0.8;" x="42.828125" xlink:href="#m87f2898da7" y="37.899159"/>
      </g>
     </g>
     <g id="text_13">
      <!-- 0.75 -->
      <g transform="translate(13.5625 41.698378)scale(0.1 -0.1)">
       <use xlink:href="#DejaVuSans-30"/>
       <use x="63.623047" xlink:href="#DejaVuSans-2e"/>
       <use x="95.410156" xlink:href="#DejaVuSans-37"/>
       <use x="159.033203" xlink:href="#DejaVuSans-35"/>
      </g>
     </g>
    </g>
    <g id="ytick_5">
     <g id="line2d_14">
      <g>
       <use style="stroke:#000000;stroke-width:0.8;" x="42.828125" xlink:href="#m87f2898da7" y="14.887436"/>
      </g>
     </g>
     <g id="text_14">
      <!-- 1.00 -->
      <g transform="translate(13.5625 18.686655)scale(0.1 -0.1)">
       <use xlink:href="#DejaVuSans-31"/>
       <use x="63.623047" xlink:href="#DejaVuSans-2e"/>
       <use x="95.410156" xlink:href="#DejaVuSans-30"/>
       <use x="159.033203" xlink:href="#DejaVuSans-30"/>
      </g>
     </g>
    </g>
   </g>
   <g id="line2d_15">
    <path clip-path="url(#p539c6426c0)" d="M 73.264489 27.537434 
L 76.32342 101.213955 
L 79.382351 66.367767 
L 82.441282 38.643091 
L 85.500213 70.568331 
L 88.559144 26.402245 
L 91.618075 81.042108 
L 94.677006 34.89039 
L 97.735937 59.126275 
L 100.794868 32.860598 
L 103.853799 103.202467 
L 106.91273 65.77591 
L 109.971661 100.664974 
L 113.030592 44.936377 
L 116.089523 69.44248 
L 119.148454 45.255193 
L 122.207385 57.513187 
L 125.266316 34.707003 
L 128.325247 93.09075 
L 131.384178 104.922783 
L 134.443109 82.178621 
L 137.50204 26.649188 
L 140.560971 97.959118 
L 143.619902 19.029219 
L 146.678833 41.01599 
L 149.737764 37.707698 
L 152.796695 26.781462 
L 155.855626 59.419668 
L 158.914557 96.27359 
L 161.973488 61.929934 
L 165.032419 21.332444 
L 168.09135 53.468577 
L 171.150281 92.908465 
L 174.209212 42.846016 
L 177.268143 77.52459 
L 180.327074 89.798548 
L 183.386005 23.471034 
L 186.444936 30.469632 
L 189.503867 34.399485 
L 192.562798 66.452601 
L 195.621729 60.122932 
L 198.68066 34.41072 
L 201.739591 76.001372 
L 204.798522 98.002123 
L 207.857453 77.551666 
L 210.916384 76.831759 
L 213.975315 58.262501 
L 217.034247 23.683846 
L 220.093178 97.895395 
L 223.152109 24.952882 
L 226.21104 88.968467 
L 229.269971 63.989872 
L 232.328902 19.290345 
L 235.387833 92.549447 
L 238.446764 45.119996 
L 241.505695 47.389297 
L 244.564626 37.119102 
L 247.623557 58.949925 
L 250.682488 61.675478 
L 253.741419 104.179826 
L 256.80035 50.971398 
L 259.859281 82.440029 
L 262.918212 15.281818 
L 265.977143 74.103671 
L 269.036074 59.67281 
L 272.095005 50.299511 
L 275.153936 83.845085 
L 278.212867 73.635706 
L 281.271798 86.293576 
L 284.330729 16.258772 
L 287.38966 83.219967 
L 290.448591 47.063196 
L 293.507522 28.027291 
L 296.566453 16.958092 
L 299.625384 62.694158 
L 302.684315 38.251416 
L 305.743246 91.201202 
L 308.802177 87.686061 
L 311.861108 50.920577 
L 314.920039 71.597547 
L 317.97897 53.470763 
L 321.037901 95.639951 
L 324.096832 88.560181 
L 327.155763 65.059213 
L 330.214694 56.332607 
L 333.273625 54.383681 
L 336.332556 42.347525 
L 339.391487 21.904088 
L 342.450418 25.311674 
L 345.509349 34.860398 
L 348.56828 59.815136 
L 351.627211 29.531364 
L 354.686142 56.942248 
L 357.745073 81.500742 
L 360.804004 70.336329 
L 363.862935 33.444424 
L 366.921866 82.694995 
L 369.980797 65.531495 
L 373.039728 43.861018 
L 376.098659 69.402375 
L 379.157591 17.817302 
L 382.216522 106.918182 
L 385.275453 70.449187 
L 388.334384 105.32296 
L 391.393315 88.223116 
L 394.452246 64.894542 
L 397.511177 31.77124 
L 400.570108 58.996812 
L 403.629039 33.404165 
L 406.68797 51.755324 
L 409.746901 44.452268 
L 412.805832 84.679002 
L 415.864763 15.66963 
L 418.923694 57.380006 
L 421.982625 91.465555 
L 425.041556 78.078004 
L 428.100487 74.276851 
L 431.159418 20.311739 
L 434.218349 74.341424 
L 437.27728 78.115376 
L 440.336211 83.109095 
L 443.395142 106.398772 
L 446.454073 28.511197 
L 449.513004 67.739635 
L 455.630866 51.545299 
L 458.689797 71.152043 
L 461.748728 72.228695 
L 464.807659 91.809207 
L 467.86659 96.62298 
L 470.925521 49.577974 
L 473.984452 93.773334 
L 477.043383 71.159233 
L 480.102314 22.72152 
L 483.161245 20.005369 
L 486.220176 103.025862 
L 489.279107 105.06188 
L 492.338038 68.687823 
L 495.396969 23.174472 
L 498.4559 72.853666 
L 501.514831 86.26487 
L 504.573762 46.675899 
L 507.632693 41.168402 
L 510.691624 38.978388 
L 513.750555 76.457363 
L 516.809486 24.707497 
L 519.868417 98.468779 
L 522.927348 56.666304 
L 525.986279 18.975724 
L 529.04521 50.646799 
L 532.104141 64.515646 
L 535.163072 75.899668 
L 538.222003 32.522813 
L 541.280935 37.915861 
L 544.339866 95.54772 
L 547.398797 70.046403 
L 550.457728 106.220621 
L 553.516659 41.661591 
L 556.57559 52.955303 
L 559.634521 86.997992 
L 562.693452 42.858255 
L 565.752383 80.892472 
L 568.811314 75.77347 
L 571.870245 36.621628 
L 574.929176 29.178622 
L 577.988107 85.166798 
L 581.047038 32.993741 
L 584.105969 72.699555 
L 587.1649 68.808367 
L 590.223831 81.129937 
L 593.282762 85.01191 
L 596.341693 98.642548 
L 599.400624 68.140406 
L 602.459555 68.101578 
L 605.518486 79.284049 
L 608.577417 38.048895 
L 611.636348 91.070997 
L 614.695279 21.972613 
L 617.75421 27.944734 
L 620.813141 29.24222 
L 623.872072 64.656383 
L 626.931003 60.295294 
L 629.989934 25.265585 
L 633.048865 98.36517 
L 636.107796 62.927886 
L 639.166727 39.166546 
L 642.225658 53.533389 
L 645.284589 65.565743 
L 648.34352 105.592564 
L 651.402451 92.533393 
L 654.461382 98.663219 
L 657.520313 16.363524 
L 660.579244 103.00429 
L 663.638175 25.828489 
L 666.697106 20.041023 
L 669.756037 80.764163 
L 672.814968 58.06666 
L 675.873899 43.037554 
L 678.93283 76.668076 
L 681.991761 49.211442 
L 681.991761 49.211442 
" style="fill:none;stroke:#1f77b4;stroke-dasharray:5.55,2.4;stroke-dashoffset:0;stroke-width:1.5;"/>
   </g>
   <g id="patch_3">
    <path d="M 42.828125 111.5 
L 42.828125 10.7 
" style="fill:none;stroke:#000000;stroke-linecap:square;stroke-linejoin:miter;stroke-width:0.8;"/>
   </g>
   <g id="patch_4">
    <path d="M 712.428125 111.5 
L 712.428125 10.7 
" style="fill:none;stroke:#000000;stroke-linecap:square;stroke-linejoin:miter;stroke-width:0.8;"/>
   </g>
   <g id="patch_5">
    <path d="M 42.828125 111.5 
L 712.428125 111.5 
" style="fill:none;stroke:#000000;stroke-linecap:square;stroke-linejoin:miter;stroke-width:0.8;"/>
   </g>
   <g id="patch_6">
    <path d="M 42.828125 10.7 
L 712.428125 10.7 
" style="fill:none;stroke:#000000;stroke-linecap:square;stroke-linejoin:miter;stroke-width:0.8;"/>
   </g>
   <g id="legend_1">
    <g id="patch_7">
     <path d="M 483.63125 68.084062 
L 705.428125 68.084062 
Q 707.428125 68.084062 707.428125 66.084062 
L 707.428125 17.7 
Q 707.428125 15.7 705.428125 15.7 
L 483.63125 15.7 
Q 481.63125 15.7 481.63125 17.7 
L 481.63125 66.084062 
Q 481.63125 68.084062 483.63125 68.084062 
z
" style="fill:#ffffff;opacity:0.8;stroke:#cccccc;stroke-linejoin:miter;"/>
    </g>
    <g id="line2d_16">
     <path d="M 485.63125 42.19125 
L 505.63125 42.19125 
" style="fill:none;stroke:#1f77b4;stroke-dasharray:5.55,2.4;stroke-dashoffset:0;stroke-width:1.5;"/>
    </g>
    <g id="line2d_17"/>
    <g id="text_15">
     <!-- train_loss=1.0207115909951282e-05 -->
     <defs>
      <path d="M 18.3125 70.21875 
L 18.3125 54.6875 
L 36.8125 54.6875 
L 36.8125 47.703125 
L 18.3125 47.703125 
L 18.3125 18.015625 
Q 18.3125 11.328125 20.140625 9.421875 
Q 21.96875 7.515625 27.59375 7.515625 
L 36.8125 7.515625 
L 36.8125 0 
L 27.59375 0 
Q 17.1875 0 13.234375 3.875 
Q 9.28125 7.765625 9.28125 18.015625 
L 9.28125 47.703125 
L 2.6875 47.703125 
L 2.6875 54.6875 
L 9.28125 54.6875 
L 9.28125 70.21875 
z
" id="DejaVuSans-74"/>
      <path d="M 41.109375 46.296875 
Q 39.59375 47.171875 37.8125 47.578125 
Q 36.03125 48 33.890625 48 
Q 26.265625 48 22.1875 43.046875 
Q 18.109375 38.09375 18.109375 28.8125 
L 18.109375 0 
L 9.078125 0 
L 9.078125 54.6875 
L 18.109375 54.6875 
L 18.109375 46.1875 
Q 20.953125 51.171875 25.484375 53.578125 
Q 30.03125 56 36.53125 56 
Q 37.453125 56 38.578125 55.875 
Q 39.703125 55.765625 41.0625 55.515625 
z
" id="DejaVuSans-72"/>
      <path d="M 34.28125 27.484375 
Q 23.390625 27.484375 19.1875 25 
Q 14.984375 22.515625 14.984375 16.5 
Q 14.984375 11.71875 18.140625 8.90625 
Q 21.296875 6.109375 26.703125 6.109375 
Q 34.1875 6.109375 38.703125 11.40625 
Q 43.21875 16.703125 43.21875 25.484375 
L 43.21875 27.484375 
z
M 52.203125 31.203125 
L 52.203125 0 
L 43.21875 0 
L 43.21875 8.296875 
Q 40.140625 3.328125 35.546875 0.953125 
Q 30.953125 -1.421875 24.3125 -1.421875 
Q 15.921875 -1.421875 10.953125 3.296875 
Q 6 8.015625 6 15.921875 
Q 6 25.140625 12.171875 29.828125 
Q 18.359375 34.515625 30.609375 34.515625 
L 43.21875 34.515625 
L 43.21875 35.40625 
Q 43.21875 41.609375 39.140625 45 
Q 35.0625 48.390625 27.6875 48.390625 
Q 23 48.390625 18.546875 47.265625 
Q 14.109375 46.140625 10.015625 43.890625 
L 10.015625 52.203125 
Q 14.9375 54.109375 19.578125 55.046875 
Q 24.21875 56 28.609375 56 
Q 40.484375 56 46.34375 49.84375 
Q 52.203125 43.703125 52.203125 31.203125 
z
" id="DejaVuSans-61"/>
      <path d="M 9.421875 54.6875 
L 18.40625 54.6875 
L 18.40625 0 
L 9.421875 0 
z
M 9.421875 75.984375 
L 18.40625 75.984375 
L 18.40625 64.59375 
L 9.421875 64.59375 
z
" id="DejaVuSans-69"/>
      <path d="M 54.890625 33.015625 
L 54.890625 0 
L 45.90625 0 
L 45.90625 32.71875 
Q 45.90625 40.484375 42.875 44.328125 
Q 39.84375 48.1875 33.796875 48.1875 
Q 26.515625 48.1875 22.3125 43.546875 
Q 18.109375 38.921875 18.109375 30.90625 
L 18.109375 0 
L 9.078125 0 
L 9.078125 54.6875 
L 18.109375 54.6875 
L 18.109375 46.1875 
Q 21.34375 51.125 25.703125 53.5625 
Q 30.078125 56 35.796875 56 
Q 45.21875 56 50.046875 50.171875 
Q 54.890625 44.34375 54.890625 33.015625 
z
" id="DejaVuSans-6e"/>
      <path d="M 50.984375 -16.609375 
L 50.984375 -23.578125 
L -0.984375 -23.578125 
L -0.984375 -16.609375 
z
" id="DejaVuSans-5f"/>
      <path d="M 9.421875 75.984375 
L 18.40625 75.984375 
L 18.40625 0 
L 9.421875 0 
z
" id="DejaVuSans-6c"/>
      <path d="M 30.609375 48.390625 
Q 23.390625 48.390625 19.1875 42.75 
Q 14.984375 37.109375 14.984375 27.296875 
Q 14.984375 17.484375 19.15625 11.84375 
Q 23.34375 6.203125 30.609375 6.203125 
Q 37.796875 6.203125 41.984375 11.859375 
Q 46.1875 17.53125 46.1875 27.296875 
Q 46.1875 37.015625 41.984375 42.703125 
Q 37.796875 48.390625 30.609375 48.390625 
z
M 30.609375 56 
Q 42.328125 56 49.015625 48.375 
Q 55.71875 40.765625 55.71875 27.296875 
Q 55.71875 13.875 49.015625 6.21875 
Q 42.328125 -1.421875 30.609375 -1.421875 
Q 18.84375 -1.421875 12.171875 6.21875 
Q 5.515625 13.875 5.515625 27.296875 
Q 5.515625 40.765625 12.171875 48.375 
Q 18.84375 56 30.609375 56 
z
" id="DejaVuSans-6f"/>
      <path d="M 44.28125 53.078125 
L 44.28125 44.578125 
Q 40.484375 46.53125 36.375 47.5 
Q 32.28125 48.484375 27.875 48.484375 
Q 21.1875 48.484375 17.84375 46.4375 
Q 14.5 44.390625 14.5 40.28125 
Q 14.5 37.15625 16.890625 35.375 
Q 19.28125 33.59375 26.515625 31.984375 
L 29.59375 31.296875 
Q 39.15625 29.25 43.1875 25.515625 
Q 47.21875 21.78125 47.21875 15.09375 
Q 47.21875 7.46875 41.1875 3.015625 
Q 35.15625 -1.421875 24.609375 -1.421875 
Q 20.21875 -1.421875 15.453125 -0.5625 
Q 10.6875 0.296875 5.421875 2 
L 5.421875 11.28125 
Q 10.40625 8.6875 15.234375 7.390625 
Q 20.0625 6.109375 24.8125 6.109375 
Q 31.15625 6.109375 34.5625 8.28125 
Q 37.984375 10.453125 37.984375 14.40625 
Q 37.984375 18.0625 35.515625 20.015625 
Q 33.0625 21.96875 24.703125 23.78125 
L 21.578125 24.515625 
Q 13.234375 26.265625 9.515625 29.90625 
Q 5.8125 33.546875 5.8125 39.890625 
Q 5.8125 47.609375 11.28125 51.796875 
Q 16.75 56 26.8125 56 
Q 31.78125 56 36.171875 55.265625 
Q 40.578125 54.546875 44.28125 53.078125 
z
" id="DejaVuSans-73"/>
      <path d="M 10.59375 45.40625 
L 73.1875 45.40625 
L 73.1875 37.203125 
L 10.59375 37.203125 
z
M 10.59375 25.484375 
L 73.1875 25.484375 
L 73.1875 17.1875 
L 10.59375 17.1875 
z
" id="DejaVuSans-3d"/>
      <path d="M 10.984375 1.515625 
L 10.984375 10.5 
Q 14.703125 8.734375 18.5 7.8125 
Q 22.3125 6.890625 25.984375 6.890625 
Q 35.75 6.890625 40.890625 13.453125 
Q 46.046875 20.015625 46.78125 33.40625 
Q 43.953125 29.203125 39.59375 26.953125 
Q 35.25 24.703125 29.984375 24.703125 
Q 19.046875 24.703125 12.671875 31.3125 
Q 6.296875 37.9375 6.296875 49.421875 
Q 6.296875 60.640625 12.9375 67.421875 
Q 19.578125 74.21875 30.609375 74.21875 
Q 43.265625 74.21875 49.921875 64.515625 
Q 56.59375 54.828125 56.59375 36.375 
Q 56.59375 19.140625 48.40625 8.859375 
Q 40.234375 -1.421875 26.421875 -1.421875 
Q 22.703125 -1.421875 18.890625 -0.6875 
Q 15.09375 0.046875 10.984375 1.515625 
z
M 30.609375 32.421875 
Q 37.25 32.421875 41.125 36.953125 
Q 45.015625 41.5 45.015625 49.421875 
Q 45.015625 57.28125 41.125 61.84375 
Q 37.25 66.40625 30.609375 66.40625 
Q 23.96875 66.40625 20.09375 61.84375 
Q 16.21875 57.28125 16.21875 49.421875 
Q 16.21875 41.5 20.09375 36.953125 
Q 23.96875 32.421875 30.609375 32.421875 
z
" id="DejaVuSans-39"/>
      <path d="M 31.78125 34.625 
Q 24.75 34.625 20.71875 30.859375 
Q 16.703125 27.09375 16.703125 20.515625 
Q 16.703125 13.921875 20.71875 10.15625 
Q 24.75 6.390625 31.78125 6.390625 
Q 38.8125 6.390625 42.859375 10.171875 
Q 46.921875 13.96875 46.921875 20.515625 
Q 46.921875 27.09375 42.890625 30.859375 
Q 38.875 34.625 31.78125 34.625 
z
M 21.921875 38.8125 
Q 15.578125 40.375 12.03125 44.71875 
Q 8.5 49.078125 8.5 55.328125 
Q 8.5 64.0625 14.71875 69.140625 
Q 20.953125 74.21875 31.78125 74.21875 
Q 42.671875 74.21875 48.875 69.140625 
Q 55.078125 64.0625 55.078125 55.328125 
Q 55.078125 49.078125 51.53125 44.71875 
Q 48 40.375 41.703125 38.8125 
Q 48.828125 37.15625 52.796875 32.3125 
Q 56.78125 27.484375 56.78125 20.515625 
Q 56.78125 9.90625 50.3125 4.234375 
Q 43.84375 -1.421875 31.78125 -1.421875 
Q 19.734375 -1.421875 13.25 4.234375 
Q 6.78125 9.90625 6.78125 20.515625 
Q 6.78125 27.484375 10.78125 32.3125 
Q 14.796875 37.15625 21.921875 38.8125 
z
M 18.3125 54.390625 
Q 18.3125 48.734375 21.84375 45.5625 
Q 25.390625 42.390625 31.78125 42.390625 
Q 38.140625 42.390625 41.71875 45.5625 
Q 45.3125 48.734375 45.3125 54.390625 
Q 45.3125 60.0625 41.71875 63.234375 
Q 38.140625 66.40625 31.78125 66.40625 
Q 25.390625 66.40625 21.84375 63.234375 
Q 18.3125 60.0625 18.3125 54.390625 
z
" id="DejaVuSans-38"/>
      <path d="M 56.203125 29.59375 
L 56.203125 25.203125 
L 14.890625 25.203125 
Q 15.484375 15.921875 20.484375 11.0625 
Q 25.484375 6.203125 34.421875 6.203125 
Q 39.59375 6.203125 44.453125 7.46875 
Q 49.3125 8.734375 54.109375 11.28125 
L 54.109375 2.78125 
Q 49.265625 0.734375 44.1875 -0.34375 
Q 39.109375 -1.421875 33.890625 -1.421875 
Q 20.796875 -1.421875 13.15625 6.1875 
Q 5.515625 13.8125 5.515625 26.8125 
Q 5.515625 40.234375 12.765625 48.109375 
Q 20.015625 56 32.328125 56 
Q 43.359375 56 49.78125 48.890625 
Q 56.203125 41.796875 56.203125 29.59375 
z
M 47.21875 32.234375 
Q 47.125 39.59375 43.09375 43.984375 
Q 39.0625 48.390625 32.421875 48.390625 
Q 24.90625 48.390625 20.390625 44.140625 
Q 15.875 39.890625 15.1875 32.171875 
z
" id="DejaVuSans-65"/>
      <path d="M 4.890625 31.390625 
L 31.203125 31.390625 
L 31.203125 23.390625 
L 4.890625 23.390625 
z
" id="DejaVuSans-2d"/>
     </defs>
     <g transform="translate(513.63125 27.298437)scale(0.1 -0.1)">
      <use xlink:href="#DejaVuSans-74"/>
      <use x="39.208984" xlink:href="#DejaVuSans-72"/>
      <use x="80.322266" xlink:href="#DejaVuSans-61"/>
      <use x="141.601562" xlink:href="#DejaVuSans-69"/>
      <use x="169.384766" xlink:href="#DejaVuSans-6e"/>
      <use x="232.763672" xlink:href="#DejaVuSans-5f"/>
      <use x="282.763672" xlink:href="#DejaVuSans-6c"/>
      <use x="310.546875" xlink:href="#DejaVuSans-6f"/>
      <use x="371.728516" xlink:href="#DejaVuSans-73"/>
      <use x="423.828125" xlink:href="#DejaVuSans-73"/>
      <use x="475.927734" xlink:href="#DejaVuSans-3d"/>
      <use x="559.716797" xlink:href="#DejaVuSans-31"/>
      <use x="623.339844" xlink:href="#DejaVuSans-2e"/>
      <use x="655.126953" xlink:href="#DejaVuSans-30"/>
      <use x="718.75" xlink:href="#DejaVuSans-32"/>
      <use x="782.373047" xlink:href="#DejaVuSans-30"/>
      <use x="845.996094" xlink:href="#DejaVuSans-37"/>
      <use x="909.619141" xlink:href="#DejaVuSans-31"/>
      <use x="973.242188" xlink:href="#DejaVuSans-31"/>
      <use x="1036.865234" xlink:href="#DejaVuSans-35"/>
      <use x="1100.488281" xlink:href="#DejaVuSans-39"/>
      <use x="1164.111328" xlink:href="#DejaVuSans-30"/>
      <use x="1227.734375" xlink:href="#DejaVuSans-39"/>
      <use x="1291.357422" xlink:href="#DejaVuSans-39"/>
      <use x="1354.980469" xlink:href="#DejaVuSans-35"/>
      <use x="1418.603516" xlink:href="#DejaVuSans-31"/>
      <use x="1482.226562" xlink:href="#DejaVuSans-32"/>
      <use x="1545.849609" xlink:href="#DejaVuSans-38"/>
      <use x="1609.472656" xlink:href="#DejaVuSans-32"/>
      <use x="1673.095703" xlink:href="#DejaVuSans-65"/>
      <use x="1734.619141" xlink:href="#DejaVuSans-2d"/>
      <use x="1770.703125" xlink:href="#DejaVuSans-30"/>
      <use x="1834.326172" xlink:href="#DejaVuSans-35"/>
     </g>
     <!-- val_loss=0.000227736954417427 -->
     <defs>
      <path d="M 2.984375 54.6875 
L 12.5 54.6875 
L 29.59375 8.796875 
L 46.6875 54.6875 
L 56.203125 54.6875 
L 35.6875 0 
L 23.484375 0 
z
" id="DejaVuSans-76"/>
      <path d="M 40.578125 39.3125 
Q 47.65625 37.796875 51.625 33 
Q 55.609375 28.21875 55.609375 21.1875 
Q 55.609375 10.40625 48.1875 4.484375 
Q 40.765625 -1.421875 27.09375 -1.421875 
Q 22.515625 -1.421875 17.65625 -0.515625 
Q 12.796875 0.390625 7.625 2.203125 
L 7.625 11.71875 
Q 11.71875 9.328125 16.59375 8.109375 
Q 21.484375 6.890625 26.8125 6.890625 
Q 36.078125 6.890625 40.9375 10.546875 
Q 45.796875 14.203125 45.796875 21.1875 
Q 45.796875 27.640625 41.28125 31.265625 
Q 36.765625 34.90625 28.71875 34.90625 
L 20.21875 34.90625 
L 20.21875 43.015625 
L 29.109375 43.015625 
Q 36.375 43.015625 40.234375 45.921875 
Q 44.09375 48.828125 44.09375 54.296875 
Q 44.09375 59.90625 40.109375 62.90625 
Q 36.140625 65.921875 28.71875 65.921875 
Q 24.65625 65.921875 20.015625 65.03125 
Q 15.375 64.15625 9.8125 62.3125 
L 9.8125 71.09375 
Q 15.4375 72.65625 20.34375 73.4375 
Q 25.25 74.21875 29.59375 74.21875 
Q 40.828125 74.21875 47.359375 69.109375 
Q 53.90625 64.015625 53.90625 55.328125 
Q 53.90625 49.265625 50.4375 45.09375 
Q 46.96875 40.921875 40.578125 39.3125 
z
" id="DejaVuSans-33"/>
      <path d="M 33.015625 40.375 
Q 26.375 40.375 22.484375 35.828125 
Q 18.609375 31.296875 18.609375 23.390625 
Q 18.609375 15.53125 22.484375 10.953125 
Q 26.375 6.390625 33.015625 6.390625 
Q 39.65625 6.390625 43.53125 10.953125 
Q 47.40625 15.53125 47.40625 23.390625 
Q 47.40625 31.296875 43.53125 35.828125 
Q 39.65625 40.375 33.015625 40.375 
z
M 52.59375 71.296875 
L 52.59375 62.3125 
Q 48.875 64.0625 45.09375 64.984375 
Q 41.3125 65.921875 37.59375 65.921875 
Q 27.828125 65.921875 22.671875 59.328125 
Q 17.53125 52.734375 16.796875 39.40625 
Q 19.671875 43.65625 24.015625 45.921875 
Q 28.375 48.1875 33.59375 48.1875 
Q 44.578125 48.1875 50.953125 41.515625 
Q 57.328125 34.859375 57.328125 23.390625 
Q 57.328125 12.15625 50.6875 5.359375 
Q 44.046875 -1.421875 33.015625 -1.421875 
Q 20.359375 -1.421875 13.671875 8.265625 
Q 6.984375 17.96875 6.984375 36.375 
Q 6.984375 53.65625 15.1875 63.9375 
Q 23.390625 74.21875 37.203125 74.21875 
Q 40.921875 74.21875 44.703125 73.484375 
Q 48.484375 72.75 52.59375 71.296875 
z
" id="DejaVuSans-36"/>
      <path d="M 37.796875 64.3125 
L 12.890625 25.390625 
L 37.796875 25.390625 
z
M 35.203125 72.90625 
L 47.609375 72.90625 
L 47.609375 25.390625 
L 58.015625 25.390625 
L 58.015625 17.1875 
L 47.609375 17.1875 
L 47.609375 0 
L 37.796875 0 
L 37.796875 17.1875 
L 4.890625 17.1875 
L 4.890625 26.703125 
z
" id="DejaVuSans-34"/>
     </defs>
     <g transform="translate(513.63125 38.774375)scale(0.1 -0.1)">
      <use xlink:href="#DejaVuSans-76"/>
      <use x="59.179688" xlink:href="#DejaVuSans-61"/>
      <use x="120.458984" xlink:href="#DejaVuSans-6c"/>
      <use x="148.242188" xlink:href="#DejaVuSans-5f"/>
      <use x="198.242188" xlink:href="#DejaVuSans-6c"/>
      <use x="226.025391" xlink:href="#DejaVuSans-6f"/>
      <use x="287.207031" xlink:href="#DejaVuSans-73"/>
      <use x="339.306641" xlink:href="#DejaVuSans-73"/>
      <use x="391.40625" xlink:href="#DejaVuSans-3d"/>
      <use x="475.195312" xlink:href="#DejaVuSans-30"/>
      <use x="538.818359" xlink:href="#DejaVuSans-2e"/>
      <use x="570.605469" xlink:href="#DejaVuSans-30"/>
      <use x="634.228516" xlink:href="#DejaVuSans-30"/>
      <use x="697.851562" xlink:href="#DejaVuSans-30"/>
      <use x="761.474609" xlink:href="#DejaVuSans-32"/>
      <use x="825.097656" xlink:href="#DejaVuSans-32"/>
      <use x="888.720703" xlink:href="#DejaVuSans-37"/>
      <use x="952.34375" xlink:href="#DejaVuSans-37"/>
      <use x="1015.966797" xlink:href="#DejaVuSans-33"/>
      <use x="1079.589844" xlink:href="#DejaVuSans-36"/>
      <use x="1143.212891" xlink:href="#DejaVuSans-39"/>
      <use x="1206.835938" xlink:href="#DejaVuSans-35"/>
      <use x="1270.458984" xlink:href="#DejaVuSans-34"/>
      <use x="1334.082031" xlink:href="#DejaVuSans-34"/>
      <use x="1397.705078" xlink:href="#DejaVuSans-31"/>
      <use x="1461.328125" xlink:href="#DejaVuSans-37"/>
      <use x="1524.951172" xlink:href="#DejaVuSans-34"/>
      <use x="1588.574219" xlink:href="#DejaVuSans-32"/>
      <use x="1652.197266" xlink:href="#DejaVuSans-37"/>
     </g>
     <!-- hidden_unit=5,virtual=25 -->
     <defs>
      <path d="M 54.890625 33.015625 
L 54.890625 0 
L 45.90625 0 
L 45.90625 32.71875 
Q 45.90625 40.484375 42.875 44.328125 
Q 39.84375 48.1875 33.796875 48.1875 
Q 26.515625 48.1875 22.3125 43.546875 
Q 18.109375 38.921875 18.109375 30.90625 
L 18.109375 0 
L 9.078125 0 
L 9.078125 75.984375 
L 18.109375 75.984375 
L 18.109375 46.1875 
Q 21.34375 51.125 25.703125 53.5625 
Q 30.078125 56 35.796875 56 
Q 45.21875 56 50.046875 50.171875 
Q 54.890625 44.34375 54.890625 33.015625 
z
" id="DejaVuSans-68"/>
      <path d="M 45.40625 46.390625 
L 45.40625 75.984375 
L 54.390625 75.984375 
L 54.390625 0 
L 45.40625 0 
L 45.40625 8.203125 
Q 42.578125 3.328125 38.25 0.953125 
Q 33.9375 -1.421875 27.875 -1.421875 
Q 17.96875 -1.421875 11.734375 6.484375 
Q 5.515625 14.40625 5.515625 27.296875 
Q 5.515625 40.1875 11.734375 48.09375 
Q 17.96875 56 27.875 56 
Q 33.9375 56 38.25 53.625 
Q 42.578125 51.265625 45.40625 46.390625 
z
M 14.796875 27.296875 
Q 14.796875 17.390625 18.875 11.75 
Q 22.953125 6.109375 30.078125 6.109375 
Q 37.203125 6.109375 41.296875 11.75 
Q 45.40625 17.390625 45.40625 27.296875 
Q 45.40625 37.203125 41.296875 42.84375 
Q 37.203125 48.484375 30.078125 48.484375 
Q 22.953125 48.484375 18.875 42.84375 
Q 14.796875 37.203125 14.796875 27.296875 
z
" id="DejaVuSans-64"/>
      <path d="M 8.5 21.578125 
L 8.5 54.6875 
L 17.484375 54.6875 
L 17.484375 21.921875 
Q 17.484375 14.15625 20.5 10.265625 
Q 23.53125 6.390625 29.59375 6.390625 
Q 36.859375 6.390625 41.078125 11.03125 
Q 45.3125 15.671875 45.3125 23.6875 
L 45.3125 54.6875 
L 54.296875 54.6875 
L 54.296875 0 
L 45.3125 0 
L 45.3125 8.40625 
Q 42.046875 3.421875 37.71875 1 
Q 33.40625 -1.421875 27.6875 -1.421875 
Q 18.265625 -1.421875 13.375 4.4375 
Q 8.5 10.296875 8.5 21.578125 
z
M 31.109375 56 
z
" id="DejaVuSans-75"/>
      <path d="M 11.71875 12.40625 
L 22.015625 12.40625 
L 22.015625 4 
L 14.015625 -11.625 
L 7.71875 -11.625 
L 11.71875 4 
z
" id="DejaVuSans-2c"/>
     </defs>
     <g transform="translate(513.63125 50.250312)scale(0.1 -0.1)">
      <use xlink:href="#DejaVuSans-68"/>
      <use x="63.378906" xlink:href="#DejaVuSans-69"/>
      <use x="91.162109" xlink:href="#DejaVuSans-64"/>
      <use x="154.638672" xlink:href="#DejaVuSans-64"/>
      <use x="218.115234" xlink:href="#DejaVuSans-65"/>
      <use x="279.638672" xlink:href="#DejaVuSans-6e"/>
      <use x="343.017578" xlink:href="#DejaVuSans-5f"/>
      <use x="393.017578" xlink:href="#DejaVuSans-75"/>
      <use x="456.396484" xlink:href="#DejaVuSans-6e"/>
      <use x="519.775391" xlink:href="#DejaVuSans-69"/>
      <use x="547.558594" xlink:href="#DejaVuSans-74"/>
      <use x="586.767578" xlink:href="#DejaVuSans-3d"/>
      <use x="670.556641" xlink:href="#DejaVuSans-35"/>
      <use x="734.179688" xlink:href="#DejaVuSans-2c"/>
      <use x="765.966797" xlink:href="#DejaVuSans-76"/>
      <use x="825.146484" xlink:href="#DejaVuSans-69"/>
      <use x="852.929688" xlink:href="#DejaVuSans-72"/>
      <use x="894.042969" xlink:href="#DejaVuSans-74"/>
      <use x="933.251953" xlink:href="#DejaVuSans-75"/>
      <use x="996.630859" xlink:href="#DejaVuSans-61"/>
      <use x="1057.910156" xlink:href="#DejaVuSans-6c"/>
      <use x="1085.693359" xlink:href="#DejaVuSans-3d"/>
      <use x="1169.482422" xlink:href="#DejaVuSans-32"/>
      <use x="1233.105469" xlink:href="#DejaVuSans-35"/>
     </g>
     <!-- Jdelta=1.0,tau_delta=1.0 -->
     <defs>
      <path d="M 9.8125 72.90625 
L 19.671875 72.90625 
L 19.671875 5.078125 
Q 19.671875 -8.109375 14.671875 -14.0625 
Q 9.671875 -20.015625 -1.421875 -20.015625 
L -5.171875 -20.015625 
L -5.171875 -11.71875 
L -2.09375 -11.71875 
Q 4.4375 -11.71875 7.125 -8.046875 
Q 9.8125 -4.390625 9.8125 5.078125 
z
" id="DejaVuSans-4a"/>
     </defs>
     <g transform="translate(513.63125 61.72625)scale(0.1 -0.1)">
      <use xlink:href="#DejaVuSans-4a"/>
      <use x="29.492188" xlink:href="#DejaVuSans-64"/>
      <use x="92.96875" xlink:href="#DejaVuSans-65"/>
      <use x="154.492188" xlink:href="#DejaVuSans-6c"/>
      <use x="182.275391" xlink:href="#DejaVuSans-74"/>
      <use x="221.484375" xlink:href="#DejaVuSans-61"/>
      <use x="282.763672" xlink:href="#DejaVuSans-3d"/>
      <use x="366.552734" xlink:href="#DejaVuSans-31"/>
      <use x="430.175781" xlink:href="#DejaVuSans-2e"/>
      <use x="461.962891" xlink:href="#DejaVuSans-30"/>
      <use x="525.585938" xlink:href="#DejaVuSans-2c"/>
      <use x="557.373047" xlink:href="#DejaVuSans-74"/>
      <use x="596.582031" xlink:href="#DejaVuSans-61"/>
      <use x="657.861328" xlink:href="#DejaVuSans-75"/>
      <use x="721.240234" xlink:href="#DejaVuSans-5f"/>
      <use x="771.240234" xlink:href="#DejaVuSans-64"/>
      <use x="834.716797" xlink:href="#DejaVuSans-65"/>
      <use x="896.240234" xlink:href="#DejaVuSans-6c"/>
      <use x="924.023438" xlink:href="#DejaVuSans-74"/>
      <use x="963.232422" xlink:href="#DejaVuSans-61"/>
      <use x="1024.511719" xlink:href="#DejaVuSans-3d"/>
      <use x="1108.300781" xlink:href="#DejaVuSans-31"/>
      <use x="1171.923828" xlink:href="#DejaVuSans-2e"/>
      <use x="1203.710938" xlink:href="#DejaVuSans-30"/>
     </g>
    </g>
   </g>
  </g>
  <g id="axes_2">
   <g id="patch_8">
    <path d="M 42.828125 232.46 
L 712.428125 232.46 
L 712.428125 131.66 
L 42.828125 131.66 
z
" style="fill:#ffffff;"/>
   </g>
   <g id="matplotlib.axis_3">
    <g id="xtick_10">
     <g id="line2d_18">
      <g>
       <use style="stroke:#000000;stroke-width:0.8;" x="73.264489" xlink:href="#m36882c37b8" y="232.46"/>
      </g>
     </g>
     <g id="text_16">
      <!-- 0 -->
      <g transform="translate(70.083239 247.058437)scale(0.1 -0.1)">
       <use xlink:href="#DejaVuSans-30"/>
      </g>
     </g>
    </g>
    <g id="xtick_11">
     <g id="line2d_19">
      <g>
       <use style="stroke:#000000;stroke-width:0.8;" x="149.737764" xlink:href="#m36882c37b8" y="232.46"/>
      </g>
     </g>
     <g id="text_17">
      <!-- 25 -->
      <g transform="translate(143.375264 247.058437)scale(0.1 -0.1)">
       <use xlink:href="#DejaVuSans-32"/>
       <use x="63.623047" xlink:href="#DejaVuSans-35"/>
      </g>
     </g>
    </g>
    <g id="xtick_12">
     <g id="line2d_20">
      <g>
       <use style="stroke:#000000;stroke-width:0.8;" x="226.21104" xlink:href="#m36882c37b8" y="232.46"/>
      </g>
     </g>
     <g id="text_18">
      <!-- 50 -->
      <g transform="translate(219.84854 247.058437)scale(0.1 -0.1)">
       <use xlink:href="#DejaVuSans-35"/>
       <use x="63.623047" xlink:href="#DejaVuSans-30"/>
      </g>
     </g>
    </g>
    <g id="xtick_13">
     <g id="line2d_21">
      <g>
       <use style="stroke:#000000;stroke-width:0.8;" x="302.684315" xlink:href="#m36882c37b8" y="232.46"/>
      </g>
     </g>
     <g id="text_19">
      <!-- 75 -->
      <g transform="translate(296.321815 247.058437)scale(0.1 -0.1)">
       <use xlink:href="#DejaVuSans-37"/>
       <use x="63.623047" xlink:href="#DejaVuSans-35"/>
      </g>
     </g>
    </g>
    <g id="xtick_14">
     <g id="line2d_22">
      <g>
       <use style="stroke:#000000;stroke-width:0.8;" x="379.157591" xlink:href="#m36882c37b8" y="232.46"/>
      </g>
     </g>
     <g id="text_20">
      <!-- 100 -->
      <g transform="translate(369.613841 247.058437)scale(0.1 -0.1)">
       <use xlink:href="#DejaVuSans-31"/>
       <use x="63.623047" xlink:href="#DejaVuSans-30"/>
       <use x="127.246094" xlink:href="#DejaVuSans-30"/>
      </g>
     </g>
    </g>
    <g id="xtick_15">
     <g id="line2d_23">
      <g>
       <use style="stroke:#000000;stroke-width:0.8;" x="455.630866" xlink:href="#m36882c37b8" y="232.46"/>
      </g>
     </g>
     <g id="text_21">
      <!-- 125 -->
      <g transform="translate(446.087116 247.058437)scale(0.1 -0.1)">
       <use xlink:href="#DejaVuSans-31"/>
       <use x="63.623047" xlink:href="#DejaVuSans-32"/>
       <use x="127.246094" xlink:href="#DejaVuSans-35"/>
      </g>
     </g>
    </g>
    <g id="xtick_16">
     <g id="line2d_24">
      <g>
       <use style="stroke:#000000;stroke-width:0.8;" x="532.104141" xlink:href="#m36882c37b8" y="232.46"/>
      </g>
     </g>
     <g id="text_22">
      <!-- 150 -->
      <g transform="translate(522.560391 247.058437)scale(0.1 -0.1)">
       <use xlink:href="#DejaVuSans-31"/>
       <use x="63.623047" xlink:href="#DejaVuSans-35"/>
       <use x="127.246094" xlink:href="#DejaVuSans-30"/>
      </g>
     </g>
    </g>
    <g id="xtick_17">
     <g id="line2d_25">
      <g>
       <use style="stroke:#000000;stroke-width:0.8;" x="608.577417" xlink:href="#m36882c37b8" y="232.46"/>
      </g>
     </g>
     <g id="text_23">
      <!-- 175 -->
      <g transform="translate(599.033667 247.058437)scale(0.1 -0.1)">
       <use xlink:href="#DejaVuSans-31"/>
       <use x="63.623047" xlink:href="#DejaVuSans-37"/>
       <use x="127.246094" xlink:href="#DejaVuSans-35"/>
      </g>
     </g>
    </g>
    <g id="xtick_18">
     <g id="line2d_26">
      <g>
       <use style="stroke:#000000;stroke-width:0.8;" x="685.050692" xlink:href="#m36882c37b8" y="232.46"/>
      </g>
     </g>
     <g id="text_24">
      <!-- 200 -->
      <g transform="translate(675.506942 247.058437)scale(0.1 -0.1)">
       <use xlink:href="#DejaVuSans-32"/>
       <use x="63.623047" xlink:href="#DejaVuSans-30"/>
       <use x="127.246094" xlink:href="#DejaVuSans-30"/>
      </g>
     </g>
    </g>
   </g>
   <g id="matplotlib.axis_4">
    <g id="ytick_6">
     <g id="line2d_27">
      <g>
       <use style="stroke:#000000;stroke-width:0.8;" x="42.828125" xlink:href="#m87f2898da7" y="211.49765"/>
      </g>
     </g>
     <g id="text_25">
      <!-- 0.192 -->
      <g transform="translate(7.2 215.296869)scale(0.1 -0.1)">
       <use xlink:href="#DejaVuSans-30"/>
       <use x="63.623047" xlink:href="#DejaVuSans-2e"/>
       <use x="95.410156" xlink:href="#DejaVuSans-31"/>
       <use x="159.033203" xlink:href="#DejaVuSans-39"/>
       <use x="222.65625" xlink:href="#DejaVuSans-32"/>
      </g>
     </g>
    </g>
    <g id="ytick_7">
     <g id="line2d_28">
      <g>
       <use style="stroke:#000000;stroke-width:0.8;" x="42.828125" xlink:href="#m87f2898da7" y="185.934775"/>
      </g>
     </g>
     <g id="text_26">
      <!-- 0.194 -->
      <g transform="translate(7.2 189.733994)scale(0.1 -0.1)">
       <use xlink:href="#DejaVuSans-30"/>
       <use x="63.623047" xlink:href="#DejaVuSans-2e"/>
       <use x="95.410156" xlink:href="#DejaVuSans-31"/>
       <use x="159.033203" xlink:href="#DejaVuSans-39"/>
       <use x="222.65625" xlink:href="#DejaVuSans-34"/>
      </g>
     </g>
    </g>
    <g id="ytick_8">
     <g id="line2d_29">
      <g>
       <use style="stroke:#000000;stroke-width:0.8;" x="42.828125" xlink:href="#m87f2898da7" y="160.3719"/>
      </g>
     </g>
     <g id="text_27">
      <!-- 0.196 -->
      <g transform="translate(7.2 164.171118)scale(0.1 -0.1)">
       <use xlink:href="#DejaVuSans-30"/>
       <use x="63.623047" xlink:href="#DejaVuSans-2e"/>
       <use x="95.410156" xlink:href="#DejaVuSans-31"/>
       <use x="159.033203" xlink:href="#DejaVuSans-39"/>
       <use x="222.65625" xlink:href="#DejaVuSans-36"/>
      </g>
     </g>
    </g>
    <g id="ytick_9">
     <g id="line2d_30">
      <g>
       <use style="stroke:#000000;stroke-width:0.8;" x="42.828125" xlink:href="#m87f2898da7" y="134.809024"/>
      </g>
     </g>
     <g id="text_28">
      <!-- 0.198 -->
      <g transform="translate(7.2 138.608243)scale(0.1 -0.1)">
       <use xlink:href="#DejaVuSans-30"/>
       <use x="63.623047" xlink:href="#DejaVuSans-2e"/>
       <use x="95.410156" xlink:href="#DejaVuSans-31"/>
       <use x="159.033203" xlink:href="#DejaVuSans-39"/>
       <use x="222.65625" xlink:href="#DejaVuSans-38"/>
      </g>
     </g>
    </g>
   </g>
   <g id="line2d_31">
    <path clip-path="url(#p4442b41bc9)" d="M 73.264489 178.106472 
L 76.32342 201.40687 
L 79.382351 204.667585 
L 82.441282 188.217172 
L 85.500213 201.892497 
L 88.559144 169.844246 
L 91.618075 195.329464 
L 94.677006 176.960333 
L 97.735937 190.982944 
L 100.794868 172.876276 
L 103.853799 197.286451 
L 106.91273 202.061426 
L 109.971661 211.691342 
L 113.030592 197.92651 
L 116.089523 206.704014 
L 119.148454 195.516621 
L 122.207385 199.819425 
L 125.266316 180.862811 
L 128.325247 201.582052 
L 131.384178 210.214876 
L 134.443109 214.7385 
L 137.50204 178.042576 
L 140.560971 201.549571 
L 143.619902 156.546285 
L 146.678833 167.790952 
L 149.737764 166.072398 
L 152.796695 151.719041 
L 155.855626 176.790736 
L 158.914557 196.006038 
L 161.973488 200.06617 
L 165.032419 161.314665 
L 168.09135 180.459183 
L 171.150281 198.386534 
L 174.209212 187.950051 
L 177.268143 203.060352 
L 180.327074 211.072131 
L 183.386005 170.71624 
L 186.444936 162.657405 
L 189.503867 160.802578 
L 192.562798 184.086907 
L 195.621729 192.229692 
L 198.68066 175.989265 
L 201.739591 196.545545 
L 204.798522 207.37665 
L 207.857453 212.194822 
L 210.916384 215.175669 
L 213.975315 210.042276 
L 217.034247 171.504916 
L 220.093178 198.065309 
L 223.152109 164.467614 
L 226.21104 193.374059 
L 229.269971 198.79524 
L 232.328902 156.888479 
L 235.387833 190.036469 
L 238.446764 184.261524 
L 241.505695 186.044349 
L 244.564626 176.28624 
L 247.623557 189.84239 
L 250.682488 196.959243 
L 253.741419 208.699002 
L 256.80035 201.065519 
L 259.859281 210.959563 
L 262.918212 155.681926 
L 265.977143 187.86657 
L 269.036074 193.405751 
L 272.095005 192.560682 
L 275.153936 205.90788 
L 278.212867 210.278154 
L 281.271798 215.602789 
L 284.330729 160.519876 
L 287.38966 192.27203 
L 290.448591 187.310136 
L 293.507522 165.632626 
L 296.566453 136.241818 
L 299.625384 170.981583 
L 302.684315 166.624176 
L 305.743246 192.434966 
L 308.802177 204.182387 
L 311.861108 198.523845 
L 314.920039 207.083683 
L 317.97897 202.181036 
L 321.037901 212.409755 
L 324.096832 216.537182 
L 327.155763 214.001832 
L 330.214694 208.693465 
L 333.273625 204.744678 
L 336.332556 192.675178 
L 339.391487 159.445314 
L 342.450418 148.23224 
L 345.509349 153.587002 
L 348.56828 176.490538 
L 351.627211 159.622195 
L 354.686142 179.997214 
L 357.745073 196.956708 
L 360.804004 204.082592 
L 363.862935 181.426775 
L 366.921866 201.270932 
L 369.980797 204.527161 
L 373.039728 193.455123 
L 376.098659 204.004511 
L 379.157591 156.665938 
L 382.216522 190.573444 
L 385.275453 199.261204 
L 388.334384 209.855877 
L 391.393315 215.067003 
L 394.452246 213.036625 
L 397.511177 184.908586 
L 400.570108 196.081314 
L 403.629039 176.625674 
L 406.68797 186.261318 
L 409.746901 183.377823 
L 412.805832 201.07049 
L 415.864763 150.364972 
L 418.923694 177.763937 
L 421.982625 196.170593 
L 425.041556 205.500426 
L 428.100487 210.526121 
L 431.159418 165.250217 
L 434.218349 192.455018 
L 437.27728 202.76374 
L 440.336211 210.609617 
L 443.395142 216.211102 
L 446.454073 181.542326 
L 449.513004 198.652554 
L 452.571935 200.567715 
L 455.630866 197.735294 
L 458.689797 206.295409 
L 461.748728 210.47745 
L 464.807659 216.147204 
L 467.86659 219.357994 
L 470.925521 206.565725 
L 473.984452 215.379548 
L 477.043383 215.176316 
L 480.102314 172.375585 
L 483.161245 147.263385 
L 486.220176 183.590722 
L 489.279107 199.009704 
L 492.338038 204.795947 
L 495.396969 166.920872 
L 498.4559 192.413295 
L 501.514831 204.061321 
L 504.573762 195.077154 
L 507.632693 186.524593 
L 510.691624 179.437027 
L 513.750555 197.849101 
L 516.809486 164.586446 
L 519.868417 193.8223 
L 522.927348 195.256817 
L 525.986279 154.661597 
L 529.04521 174.900812 
L 532.104141 189.421721 
L 535.163072 201.592368 
L 538.222003 178.467813 
L 541.280935 174.922313 
L 544.339866 197.175777 
L 547.398797 203.702858 
L 550.457728 212.485536 
L 553.516659 195.301097 
L 556.57559 197.286569 
L 559.634521 208.655247 
L 562.693452 194.161849 
L 565.752383 207.430644 
L 568.811314 211.652545 
L 571.870245 189.720995 
L 574.929176 169.95243 
L 577.988107 194.98464 
L 581.047038 174.418883 
L 584.105969 195.18259 
L 587.1649 202.300239 
L 590.223831 210.310835 
L 593.282762 215.204141 
L 596.341693 218.936933 
L 599.400624 216.543506 
L 602.459555 215.674882 
L 605.518486 218.021102 
L 608.577417 195.021514 
L 611.636348 209.640044 
L 614.695279 166.907276 
L 617.75421 157.128927 
L 620.813141 150.990791 
L 623.872072 178.232623 
L 626.931003 188.754131 
L 629.989934 161.031973 
L 633.048865 191.411378 
L 636.107796 197.116785 
L 639.166727 184.414144 
L 642.225658 191.295937 
L 645.284589 200.006858 
L 648.34352 210.267779 
L 651.402451 215.601253 
L 654.461382 219.123324 
L 657.520313 162.809172 
L 660.579244 194.683365 
L 663.638175 163.55253 
L 666.697106 141.516519 
L 669.756037 178.741363 
L 672.814968 187.060715 
L 675.873899 182.590767 
L 678.93283 199.4428 
L 681.991761 194.196872 
L 681.991761 194.196872 
" style="fill:none;stroke:#ff7f0e;stroke-dasharray:1.5,2.475;stroke-dashoffset:0;stroke-width:1.5;"/>
   </g>
   <g id="line2d_32">
    <path clip-path="url(#p4442b41bc9)" d="M 73.264489 177.812609 
L 76.32342 210.672754 
L 79.382351 201.610559 
L 82.441282 183.840994 
L 85.500213 194.09679 
L 88.559144 170.994775 
L 91.618075 194.199067 
L 94.677006 175.76423 
L 97.735937 181.403319 
L 100.794868 169.681374 
L 103.853799 203.073088 
L 106.91273 198.426859 
L 109.971661 217.904454 
L 113.030592 197.250589 
L 116.089523 198.85101 
L 119.148454 188.043075 
L 122.207385 186.764147 
L 125.266316 171.477967 
L 128.325247 201.110416 
L 131.384178 219.820845 
L 134.443109 218.340032 
L 137.50204 185.223435 
L 140.560971 210.684181 
L 143.619902 180.282472 
L 146.678833 171.743085 
L 149.737764 166.556145 
L 152.796695 158.242642 
L 155.855626 171.235133 
L 158.914557 200.823395 
L 161.973488 193.41095 
L 165.032419 170.277509 
L 168.09135 178.412362 
L 171.150281 202.609894 
L 174.209212 182.036783 
L 177.268143 198.400004 
L 180.327074 210.955203 
L 183.386005 177.537587 
L 186.444936 167.716417 
L 189.503867 160.7066 
L 192.562798 178.399982 
L 195.621729 180.88851 
L 198.68066 172.039819 
L 201.739591 188.715964 
L 204.798522 211.125283 
L 207.857453 209.566763 
L 210.916384 210.320025 
L 213.975315 200.546279 
L 217.034247 175.583676 
L 220.093178 208.823214 
L 223.152109 174.21809 
L 226.21104 199.55361 
L 229.269971 192.7253 
L 232.328902 167.68861 
L 235.387833 197.432857 
L 238.446764 183.20334 
L 241.505695 178.870033 
L 244.564626 173.31208 
L 247.623557 180.208003 
L 250.682488 185.332473 
L 253.741419 213.213848 
L 256.80035 195.610934 
L 259.859281 206.053951 
L 262.918212 174.363029 
L 265.977143 190.172398 
L 269.036074 188.428562 
L 272.095005 182.482646 
L 275.153936 199.046801 
L 278.212867 201.994142 
L 281.271798 210.077762 
L 284.330729 176.546252 
L 287.38966 196.395241 
L 290.448591 186.818618 
L 293.507522 168.314265 
L 296.566453 152.609839 
L 299.625384 171.085052 
L 302.684315 166.58319 
L 305.743246 193.395523 
L 308.802177 208.498292 
L 311.861108 189.805575 
L 314.920039 199.932622 
L 317.97897 190.348762 
L 321.037901 210.939586 
L 324.096832 216.977684 
L 330.214694 198.077939 
L 333.273625 190.84224 
L 336.332556 181.128297 
L 339.391487 160.518428 
L 342.450418 152.842388 
L 345.509349 156.772875 
L 348.56828 171.635095 
L 351.627211 160.990383 
L 354.686142 172.136762 
L 357.745073 191.457991 
L 360.804004 194.312961 
L 363.862935 175.835081 
L 366.921866 197.188309 
L 369.980797 196.97271 
L 373.039728 183.783476 
L 376.098659 192.808531 
L 379.157591 164.103614 
L 382.216522 206.055284 
L 385.275453 201.034804 
L 388.334384 219.618007 
L 391.393315 220.217189 
L 394.452246 210.291837 
L 397.511177 184.719578 
L 400.570108 186.663966 
L 403.629039 171.444447 
L 406.68797 176.159241 
L 409.746901 171.338552 
L 412.805832 195.639121 
L 415.864763 162.44358 
L 418.923694 174.555582 
L 421.982625 199.107366 
L 425.041556 203.749406 
L 428.100487 204.806449 
L 431.159418 176.845081 
L 434.218349 192.635214 
L 440.336211 209.283361 
L 443.395142 225.935508 
L 446.454073 189.401804 
L 449.513004 196.890623 
L 452.571935 193.645785 
L 455.630866 184.737291 
L 458.689797 195.187545 
L 461.748728 199.211928 
L 464.807659 213.232703 
L 467.86659 222.702288 
L 470.925521 201.329062 
L 473.984452 216.171665 
L 477.043383 210.551432 
L 480.102314 178.846893 
L 483.161245 160.499572 
L 486.220176 202.41715 
L 489.279107 221.849226 
L 492.338038 213.624857 
L 495.396969 181.502833 
L 498.4559 191.662734 
L 501.514831 207.526383 
L 504.573762 188.043075 
L 507.632693 179.677195 
L 510.691624 173.05439 
L 513.750555 192.129737 
L 516.809486 167.150565 
L 519.868417 198.316774 
L 522.927348 190.051457 
L 525.986279 167.615093 
L 529.04521 173.611481 
L 532.104141 182.291997 
L 535.163072 194.735587 
L 538.222003 177.768042 
L 541.280935 173.013251 
L 544.339866 201.00833 
L 547.398797 200.182503 
L 550.457728 219.713427 
L 553.516659 194.835578 
L 556.57559 191.190016 
L 559.634521 206.77293 
L 562.693452 186.771766 
L 565.752383 199.23764 
L 568.811314 203.182602 
L 571.870245 183.661201 
L 574.929176 168.705847 
L 577.988107 193.242585 
L 581.047038 174.011443 
L 584.105969 190.269341 
L 587.1649 193.673973 
L 590.223831 202.793305 
L 593.282762 210.142899 
L 596.341693 224.306899 
L 599.400624 211.573621 
L 602.459555 208.686274 
L 605.518486 212.192992 
L 608.577417 188.946513 
L 611.636348 210.161183 
L 614.695279 177.427407 
L 617.75421 164.754219 
L 620.813141 159.602323 
L 623.872072 176.281325 
L 626.931003 180.803566 
L 629.989934 166.236556 
L 633.048865 198.065179 
L 636.107796 192.621882 
L 639.166727 178.536731 
L 642.225658 182.088016 
L 645.284589 187.790908 
L 648.34352 215.241848 
L 651.402451 222.406887 
L 654.461382 227.878182 
L 657.520313 184.869373 
L 660.579244 218.528586 
L 666.697106 158.783543 
L 669.756037 189.674159 
L 672.814968 186.456557 
L 675.873899 178.123818 
L 678.93283 194.286106 
L 681.991761 185.437225 
L 681.991761 185.437225 
" style="fill:none;stroke:#ff7f0e;stroke-linecap:square;stroke-width:1.5;"/>
   </g>
   <g id="patch_9">
    <path d="M 42.828125 232.46 
L 42.828125 131.66 
" style="fill:none;stroke:#000000;stroke-linecap:square;stroke-linejoin:miter;stroke-width:0.8;"/>
   </g>
   <g id="patch_10">
    <path d="M 712.428125 232.46 
L 712.428125 131.66 
" style="fill:none;stroke:#000000;stroke-linecap:square;stroke-linejoin:miter;stroke-width:0.8;"/>
   </g>
   <g id="patch_11">
    <path d="M 42.828125 232.46 
L 712.428125 232.46 
" style="fill:none;stroke:#000000;stroke-linecap:square;stroke-linejoin:miter;stroke-width:0.8;"/>
   </g>
   <g id="patch_12">
    <path d="M 42.828125 131.66 
L 712.428125 131.66 
" style="fill:none;stroke:#000000;stroke-linecap:square;stroke-linejoin:miter;stroke-width:0.8;"/>
   </g>
   <g id="legend_2">
    <g id="patch_13">
     <path d="M 49.828125 169.01625 
L 132.217187 169.01625 
Q 134.217187 169.01625 134.217187 167.01625 
L 134.217187 138.66 
Q 134.217187 136.66 132.217187 136.66 
L 49.828125 136.66 
Q 47.828125 136.66 47.828125 138.66 
L 47.828125 167.01625 
Q 47.828125 169.01625 49.828125 169.01625 
z
" style="fill:#ffffff;opacity:0.8;stroke:#cccccc;stroke-linejoin:miter;"/>
    </g>
    <g id="line2d_33">
     <path d="M 51.828125 144.758437 
L 71.828125 144.758437 
" style="fill:none;stroke:#ff7f0e;stroke-dasharray:1.5,2.475;stroke-dashoffset:0;stroke-width:1.5;"/>
    </g>
    <g id="line2d_34"/>
    <g id="text_29">
     <!-- label -->
     <defs>
      <path d="M 48.6875 27.296875 
Q 48.6875 37.203125 44.609375 42.84375 
Q 40.53125 48.484375 33.40625 48.484375 
Q 26.265625 48.484375 22.1875 42.84375 
Q 18.109375 37.203125 18.109375 27.296875 
Q 18.109375 17.390625 22.1875 11.75 
Q 26.265625 6.109375 33.40625 6.109375 
Q 40.53125 6.109375 44.609375 11.75 
Q 48.6875 17.390625 48.6875 27.296875 
z
M 18.109375 46.390625 
Q 20.953125 51.265625 25.265625 53.625 
Q 29.59375 56 35.59375 56 
Q 45.5625 56 51.78125 48.09375 
Q 58.015625 40.1875 58.015625 27.296875 
Q 58.015625 14.40625 51.78125 6.484375 
Q 45.5625 -1.421875 35.59375 -1.421875 
Q 29.59375 -1.421875 25.265625 0.953125 
Q 20.953125 3.328125 18.109375 8.203125 
L 18.109375 0 
L 9.078125 0 
L 9.078125 75.984375 
L 18.109375 75.984375 
z
" id="DejaVuSans-62"/>
     </defs>
     <g transform="translate(79.828125 148.258437)scale(0.1 -0.1)">
      <use xlink:href="#DejaVuSans-6c"/>
      <use x="27.783203" xlink:href="#DejaVuSans-61"/>
      <use x="89.0625" xlink:href="#DejaVuSans-62"/>
      <use x="152.539062" xlink:href="#DejaVuSans-65"/>
      <use x="214.0625" xlink:href="#DejaVuSans-6c"/>
     </g>
    </g>
    <g id="line2d_35">
     <path d="M 51.828125 159.436562 
L 71.828125 159.436562 
" style="fill:none;stroke:#ff7f0e;stroke-linecap:square;stroke-width:1.5;"/>
    </g>
    <g id="line2d_36"/>
    <g id="text_30">
     <!-- prediction -->
     <defs>
      <path d="M 18.109375 8.203125 
L 18.109375 -20.796875 
L 9.078125 -20.796875 
L 9.078125 54.6875 
L 18.109375 54.6875 
L 18.109375 46.390625 
Q 20.953125 51.265625 25.265625 53.625 
Q 29.59375 56 35.59375 56 
Q 45.5625 56 51.78125 48.09375 
Q 58.015625 40.1875 58.015625 27.296875 
Q 58.015625 14.40625 51.78125 6.484375 
Q 45.5625 -1.421875 35.59375 -1.421875 
Q 29.59375 -1.421875 25.265625 0.953125 
Q 20.953125 3.328125 18.109375 8.203125 
z
M 48.6875 27.296875 
Q 48.6875 37.203125 44.609375 42.84375 
Q 40.53125 48.484375 33.40625 48.484375 
Q 26.265625 48.484375 22.1875 42.84375 
Q 18.109375 37.203125 18.109375 27.296875 
Q 18.109375 17.390625 22.1875 11.75 
Q 26.265625 6.109375 33.40625 6.109375 
Q 40.53125 6.109375 44.609375 11.75 
Q 48.6875 17.390625 48.6875 27.296875 
z
" id="DejaVuSans-70"/>
      <path d="M 48.78125 52.59375 
L 48.78125 44.1875 
Q 44.96875 46.296875 41.140625 47.34375 
Q 37.3125 48.390625 33.40625 48.390625 
Q 24.65625 48.390625 19.8125 42.84375 
Q 14.984375 37.3125 14.984375 27.296875 
Q 14.984375 17.28125 19.8125 11.734375 
Q 24.65625 6.203125 33.40625 6.203125 
Q 37.3125 6.203125 41.140625 7.25 
Q 44.96875 8.296875 48.78125 10.40625 
L 48.78125 2.09375 
Q 45.015625 0.34375 40.984375 -0.53125 
Q 36.96875 -1.421875 32.421875 -1.421875 
Q 20.0625 -1.421875 12.78125 6.34375 
Q 5.515625 14.109375 5.515625 27.296875 
Q 5.515625 40.671875 12.859375 48.328125 
Q 20.21875 56 33.015625 56 
Q 37.15625 56 41.109375 55.140625 
Q 45.0625 54.296875 48.78125 52.59375 
z
" id="DejaVuSans-63"/>
     </defs>
     <g transform="translate(79.828125 162.936562)scale(0.1 -0.1)">
      <use xlink:href="#DejaVuSans-70"/>
      <use x="63.476562" xlink:href="#DejaVuSans-72"/>
      <use x="104.558594" xlink:href="#DejaVuSans-65"/>
      <use x="166.082031" xlink:href="#DejaVuSans-64"/>
      <use x="229.558594" xlink:href="#DejaVuSans-69"/>
      <use x="257.341797" xlink:href="#DejaVuSans-63"/>
      <use x="312.322266" xlink:href="#DejaVuSans-74"/>
      <use x="351.53125" xlink:href="#DejaVuSans-69"/>
      <use x="379.314453" xlink:href="#DejaVuSans-6f"/>
      <use x="440.496094" xlink:href="#DejaVuSans-6e"/>
     </g>
    </g>
   </g>
  </g>
 </g>
 <defs>
  <clipPath id="p539c6426c0">
   <rect height="100.8" width="669.6" x="42.828125" y="10.7"/>
  </clipPath>
  <clipPath id="p4442b41bc9">
   <rect height="100.8" width="669.6" x="42.828125" y="131.66"/>
  </clipPath>
 </defs>
</svg>
