<?xml version="1.0" encoding="utf-8" standalone="no"?>
<!DOCTYPE svg PUBLIC "-//W3C//DTD SVG 1.1//EN"
  "http://www.w3.org/Graphics/SVG/1.1/DTD/svg11.dtd">
<!-- Created with matplotlib (https://matplotlib.org/) -->
<svg height="326.337pt" version="1.1" viewBox="0 0 426.95 326.337" width="426.95pt" xmlns="http://www.w3.org/2000/svg" xmlns:xlink="http://www.w3.org/1999/xlink">
 <defs>
  <style type="text/css">
*{stroke-linecap:butt;stroke-linejoin:round;}
  </style>
 </defs>
 <g id="figure_1">
  <g id="patch_1">
   <path d="M 0 326.337 
L 426.95 326.337 
L 426.95 0 
L 0 0 
z
" style="fill:#ffffff;"/>
  </g>
  <g id="axes_1">
   <g id="patch_2">
    <path d="M 59.13 276.812 
L 416.25 276.812 
L 416.25 10.7 
L 59.13 10.7 
z
" style="fill:#ffffff;"/>
   </g>
   <g id="PathCollection_1">
    <defs>
     <path d="M 0 3 
C 0.795609 3 1.55874 2.683901 2.12132 2.12132 
C 2.683901 1.55874 3 0.795609 3 0 
C 3 -0.795609 2.683901 -1.55874 2.12132 -2.12132 
C 1.55874 -2.683901 0.795609 -3 0 -3 
C -0.795609 -3 -1.55874 -2.683901 -2.12132 -2.12132 
C -2.683901 -1.55874 -3 -0.795609 -3 0 
C -3 0.795609 -2.683901 1.55874 -2.12132 2.12132 
C -1.55874 2.683901 -0.795609 3 0 3 
z
" id="mbee8a3684a" style="stroke:#0072b2;"/>
    </defs>
    <g clip-path="url(#pb66cd09d34)">
     <use style="fill:#0072b2;stroke:#0072b2;" x="77.522727" xlink:href="#mbee8a3684a" y="185.148863"/>
     <use style="fill:#0072b2;stroke:#0072b2;" x="83.929418" xlink:href="#mbee8a3684a" y="103.566479"/>
     <use style="fill:#0072b2;stroke:#0072b2;" x="90.336109" xlink:href="#mbee8a3684a" y="104.479256"/>
     <use style="fill:#0072b2;stroke:#0072b2;" x="96.7428" xlink:href="#mbee8a3684a" y="261.389873"/>
     <use style="fill:#0072b2;stroke:#0072b2;" x="103.149491" xlink:href="#mbee8a3684a" y="198.566181"/>
     <use style="fill:#0072b2;stroke:#0072b2;" x="109.556182" xlink:href="#mbee8a3684a" y="242.530985"/>
     <use style="fill:#0072b2;stroke:#0072b2;" x="115.962873" xlink:href="#mbee8a3684a" y="257.665195"/>
     <use style="fill:#0072b2;stroke:#0072b2;" x="122.369564" xlink:href="#mbee8a3684a" y="260.370114"/>
     <use style="fill:#0072b2;stroke:#0072b2;" x="128.776255" xlink:href="#mbee8a3684a" y="262.526486"/>
     <use style="fill:#0072b2;stroke:#0072b2;" x="135.182945" xlink:href="#mbee8a3684a" y="259.2761"/>
     <use style="fill:#0072b2;stroke:#0072b2;" x="141.589636" xlink:href="#mbee8a3684a" y="261.487399"/>
     <use style="fill:#0072b2;stroke:#0072b2;" x="147.996327" xlink:href="#mbee8a3684a" y="258.424625"/>
     <use style="fill:#0072b2;stroke:#0072b2;" x="154.403018" xlink:href="#mbee8a3684a" y="258.144544"/>
     <use style="fill:#0072b2;stroke:#0072b2;" x="160.809709" xlink:href="#mbee8a3684a" y="262.051149"/>
     <use style="fill:#0072b2;stroke:#0072b2;" x="167.2164" xlink:href="#mbee8a3684a" y="259.184994"/>
     <use style="fill:#0072b2;stroke:#0072b2;" x="173.623091" xlink:href="#mbee8a3684a" y="260.296295"/>
     <use style="fill:#0072b2;stroke:#0072b2;" x="180.029782" xlink:href="#mbee8a3684a" y="262.256942"/>
     <use style="fill:#0072b2;stroke:#0072b2;" x="186.436473" xlink:href="#mbee8a3684a" y="262.174186"/>
     <use style="fill:#0072b2;stroke:#0072b2;" x="192.843164" xlink:href="#mbee8a3684a" y="262.501813"/>
     <use style="fill:#0072b2;stroke:#0072b2;" x="199.249855" xlink:href="#mbee8a3684a" y="262.423339"/>
     <use style="fill:#0072b2;stroke:#0072b2;" x="205.656545" xlink:href="#mbee8a3684a" y="262.124372"/>
     <use style="fill:#0072b2;stroke:#0072b2;" x="212.063236" xlink:href="#mbee8a3684a" y="258.64841"/>
     <use style="fill:#0072b2;stroke:#0072b2;" x="218.469927" xlink:href="#mbee8a3684a" y="262.033392"/>
     <use style="fill:#0072b2;stroke:#0072b2;" x="224.876618" xlink:href="#mbee8a3684a" y="261.743954"/>
     <use style="fill:#0072b2;stroke:#0072b2;" x="231.283309" xlink:href="#mbee8a3684a" y="259.153366"/>
     <use style="fill:#0072b2;stroke:#0072b2;" x="237.69" xlink:href="#mbee8a3684a" y="262.478792"/>
     <use style="fill:#0072b2;stroke:#0072b2;" x="244.096691" xlink:href="#mbee8a3684a" y="262.535905"/>
     <use style="fill:#0072b2;stroke:#0072b2;" x="250.503382" xlink:href="#mbee8a3684a" y="262.396494"/>
     <use style="fill:#0072b2;stroke:#0072b2;" x="256.910073" xlink:href="#mbee8a3684a" y="262.416717"/>
     <use style="fill:#0072b2;stroke:#0072b2;" x="263.316764" xlink:href="#mbee8a3684a" y="261.859514"/>
     <use style="fill:#0072b2;stroke:#0072b2;" x="269.723455" xlink:href="#mbee8a3684a" y="262.557734"/>
     <use style="fill:#0072b2;stroke:#0072b2;" x="276.130145" xlink:href="#mbee8a3684a" y="262.557181"/>
     <use style="fill:#0072b2;stroke:#0072b2;" x="282.536836" xlink:href="#mbee8a3684a" y="262.095012"/>
     <use style="fill:#0072b2;stroke:#0072b2;" x="288.943527" xlink:href="#mbee8a3684a" y="262.433846"/>
     <use style="fill:#0072b2;stroke:#0072b2;" x="295.350218" xlink:href="#mbee8a3684a" y="262.159702"/>
     <use style="fill:#0072b2;stroke:#0072b2;" x="301.756909" xlink:href="#mbee8a3684a" y="262.456332"/>
     <use style="fill:#0072b2;stroke:#0072b2;" x="308.1636" xlink:href="#mbee8a3684a" y="262.553068"/>
     <use style="fill:#0072b2;stroke:#0072b2;" x="314.570291" xlink:href="#mbee8a3684a" y="262.509144"/>
     <use style="fill:#0072b2;stroke:#0072b2;" x="320.976982" xlink:href="#mbee8a3684a" y="262.444607"/>
     <use style="fill:#0072b2;stroke:#0072b2;" x="327.383673" xlink:href="#mbee8a3684a" y="262.432804"/>
     <use style="fill:#0072b2;stroke:#0072b2;" x="333.790364" xlink:href="#mbee8a3684a" y="262.38912"/>
     <use style="fill:#0072b2;stroke:#0072b2;" x="340.197055" xlink:href="#mbee8a3684a" y="262.16485"/>
     <use style="fill:#0072b2;stroke:#0072b2;" x="346.603745" xlink:href="#mbee8a3684a" y="262.345548"/>
     <use style="fill:#0072b2;stroke:#0072b2;" x="353.010436" xlink:href="#mbee8a3684a" y="262.487566"/>
     <use style="fill:#0072b2;stroke:#0072b2;" x="359.417127" xlink:href="#mbee8a3684a" y="262.53125"/>
     <use style="fill:#0072b2;stroke:#0072b2;" x="365.823818" xlink:href="#mbee8a3684a" y="262.480893"/>
     <use style="fill:#0072b2;stroke:#0072b2;" x="372.230509" xlink:href="#mbee8a3684a" y="262.484554"/>
     <use style="fill:#0072b2;stroke:#0072b2;" x="378.6372" xlink:href="#mbee8a3684a" y="262.555898"/>
     <use style="fill:#0072b2;stroke:#0072b2;" x="385.043891" xlink:href="#mbee8a3684a" y="262.071765"/>
     <use style="fill:#0072b2;stroke:#0072b2;" x="391.450582" xlink:href="#mbee8a3684a" y="262.547104"/>
     <use style="fill:#0072b2;stroke:#0072b2;" x="397.857273" xlink:href="#mbee8a3684a" y="262.513027"/>
    </g>
   </g>
   <g id="PathCollection_2">
    <defs>
     <path d="M 0 3 
C 0.795609 3 1.55874 2.683901 2.12132 2.12132 
C 2.683901 1.55874 3 0.795609 3 0 
C 3 -0.795609 2.683901 -1.55874 2.12132 -2.12132 
C 1.55874 -2.683901 0.795609 -3 0 -3 
C -0.795609 -3 -1.55874 -2.683901 -2.12132 -2.12132 
C -2.683901 -1.55874 -3 -0.795609 -3 0 
C -3 0.795609 -2.683901 1.55874 -2.12132 2.12132 
C -1.55874 2.683901 -0.795609 3 0 3 
z
" id="m7606edbcf0" style="stroke:#009e73;"/>
    </defs>
    <g clip-path="url(#pb66cd09d34)">
     <use style="fill:#009e73;stroke:#009e73;" x="77.522727" xlink:href="#m7606edbcf0" y="34.495955"/>
     <use style="fill:#009e73;stroke:#009e73;" x="83.929418" xlink:href="#m7606edbcf0" y="103.980958"/>
     <use style="fill:#009e73;stroke:#009e73;" x="90.336109" xlink:href="#m7606edbcf0" y="191.317566"/>
     <use style="fill:#009e73;stroke:#009e73;" x="96.7428" xlink:href="#m7606edbcf0" y="190.234921"/>
     <use style="fill:#009e73;stroke:#009e73;" x="103.149491" xlink:href="#m7606edbcf0" y="236.517383"/>
     <use style="fill:#009e73;stroke:#009e73;" x="109.556182" xlink:href="#m7606edbcf0" y="226.555238"/>
     <use style="fill:#009e73;stroke:#009e73;" x="115.962873" xlink:href="#m7606edbcf0" y="243.412687"/>
     <use style="fill:#009e73;stroke:#009e73;" x="122.369564" xlink:href="#m7606edbcf0" y="239.610906"/>
     <use style="fill:#009e73;stroke:#009e73;" x="128.776255" xlink:href="#m7606edbcf0" y="251.117319"/>
     <use style="fill:#009e73;stroke:#009e73;" x="135.182945" xlink:href="#m7606edbcf0" y="259.685577"/>
     <use style="fill:#009e73;stroke:#009e73;" x="141.589636" xlink:href="#m7606edbcf0" y="262.475236"/>
     <use style="fill:#009e73;stroke:#009e73;" x="147.996327" xlink:href="#m7606edbcf0" y="254.238708"/>
     <use style="fill:#009e73;stroke:#009e73;" x="154.403018" xlink:href="#m7606edbcf0" y="258.979112"/>
     <use style="fill:#009e73;stroke:#009e73;" x="160.809709" xlink:href="#m7606edbcf0" y="258.228091"/>
     <use style="fill:#009e73;stroke:#009e73;" x="167.2164" xlink:href="#m7606edbcf0" y="260.289515"/>
     <use style="fill:#009e73;stroke:#009e73;" x="173.623091" xlink:href="#m7606edbcf0" y="260.78587"/>
     <use style="fill:#009e73;stroke:#009e73;" x="180.029782" xlink:href="#m7606edbcf0" y="261.450394"/>
     <use style="fill:#009e73;stroke:#009e73;" x="186.436473" xlink:href="#m7606edbcf0" y="257.414237"/>
     <use style="fill:#009e73;stroke:#009e73;" x="192.843164" xlink:href="#m7606edbcf0" y="261.922772"/>
     <use style="fill:#009e73;stroke:#009e73;" x="199.249855" xlink:href="#m7606edbcf0" y="261.325332"/>
     <use style="fill:#009e73;stroke:#009e73;" x="205.656545" xlink:href="#m7606edbcf0" y="262.07326"/>
     <use style="fill:#009e73;stroke:#009e73;" x="212.063236" xlink:href="#m7606edbcf0" y="258.492635"/>
     <use style="fill:#009e73;stroke:#009e73;" x="218.469927" xlink:href="#m7606edbcf0" y="260.199237"/>
     <use style="fill:#009e73;stroke:#009e73;" x="224.876618" xlink:href="#m7606edbcf0" y="261.296498"/>
     <use style="fill:#009e73;stroke:#009e73;" x="231.283309" xlink:href="#m7606edbcf0" y="262.094617"/>
     <use style="fill:#009e73;stroke:#009e73;" x="237.69" xlink:href="#m7606edbcf0" y="261.278246"/>
     <use style="fill:#009e73;stroke:#009e73;" x="244.096691" xlink:href="#m7606edbcf0" y="260.36675"/>
     <use style="fill:#009e73;stroke:#009e73;" x="250.503382" xlink:href="#m7606edbcf0" y="262.557948"/>
     <use style="fill:#009e73;stroke:#009e73;" x="256.910073" xlink:href="#m7606edbcf0" y="262.557978"/>
     <use style="fill:#009e73;stroke:#009e73;" x="263.316764" xlink:href="#m7606edbcf0" y="262.078501"/>
     <use style="fill:#009e73;stroke:#009e73;" x="269.723455" xlink:href="#m7606edbcf0" y="262.546586"/>
     <use style="fill:#009e73;stroke:#009e73;" x="276.130145" xlink:href="#m7606edbcf0" y="262.526255"/>
     <use style="fill:#009e73;stroke:#009e73;" x="282.536836" xlink:href="#m7606edbcf0" y="262.55031"/>
     <use style="fill:#009e73;stroke:#009e73;" x="288.943527" xlink:href="#m7606edbcf0" y="262.21676"/>
     <use style="fill:#009e73;stroke:#009e73;" x="295.350218" xlink:href="#m7606edbcf0" y="262.350264"/>
     <use style="fill:#009e73;stroke:#009e73;" x="301.756909" xlink:href="#m7606edbcf0" y="262.489169"/>
     <use style="fill:#009e73;stroke:#009e73;" x="308.1636" xlink:href="#m7606edbcf0" y="262.536866"/>
     <use style="fill:#009e73;stroke:#009e73;" x="314.570291" xlink:href="#m7606edbcf0" y="262.557742"/>
     <use style="fill:#009e73;stroke:#009e73;" x="320.976982" xlink:href="#m7606edbcf0" y="262.378216"/>
     <use style="fill:#009e73;stroke:#009e73;" x="327.383673" xlink:href="#m7606edbcf0" y="262.276315"/>
     <use style="fill:#009e73;stroke:#009e73;" x="333.790364" xlink:href="#m7606edbcf0" y="262.539212"/>
     <use style="fill:#009e73;stroke:#009e73;" x="340.197055" xlink:href="#m7606edbcf0" y="262.355084"/>
     <use style="fill:#009e73;stroke:#009e73;" x="346.603745" xlink:href="#m7606edbcf0" y="262.470582"/>
     <use style="fill:#009e73;stroke:#009e73;" x="353.010436" xlink:href="#m7606edbcf0" y="262.374791"/>
     <use style="fill:#009e73;stroke:#009e73;" x="359.417127" xlink:href="#m7606edbcf0" y="262.274028"/>
     <use style="fill:#009e73;stroke:#009e73;" x="365.823818" xlink:href="#m7606edbcf0" y="262.263507"/>
     <use style="fill:#009e73;stroke:#009e73;" x="372.230509" xlink:href="#m7606edbcf0" y="262.507982"/>
     <use style="fill:#009e73;stroke:#009e73;" x="378.6372" xlink:href="#m7606edbcf0" y="262.17214"/>
     <use style="fill:#009e73;stroke:#009e73;" x="385.043891" xlink:href="#m7606edbcf0" y="262.517813"/>
     <use style="fill:#009e73;stroke:#009e73;" x="391.450582" xlink:href="#m7606edbcf0" y="262.547082"/>
     <use style="fill:#009e73;stroke:#009e73;" x="397.857273" xlink:href="#m7606edbcf0" y="262.554632"/>
    </g>
   </g>
   <g id="PathCollection_3">
    <defs>
     <path d="M 0 3 
C 0.795609 3 1.55874 2.683901 2.12132 2.12132 
C 2.683901 1.55874 3 0.795609 3 0 
C 3 -0.795609 2.683901 -1.55874 2.12132 -2.12132 
C 1.55874 -2.683901 0.795609 -3 0 -3 
C -0.795609 -3 -1.55874 -2.683901 -2.12132 -2.12132 
C -2.683901 -1.55874 -3 -0.795609 -3 0 
C -3 0.795609 -2.683901 1.55874 -2.12132 2.12132 
C -1.55874 2.683901 -0.795609 3 0 3 
z
" id="md431634149" style="stroke:#d55e00;"/>
    </defs>
    <g clip-path="url(#pb66cd09d34)">
     <use style="fill:#d55e00;stroke:#d55e00;" x="77.522727" xlink:href="#md431634149" y="25.956844"/>
     <use style="fill:#d55e00;stroke:#d55e00;" x="83.929418" xlink:href="#md431634149" y="25.07274"/>
     <use style="fill:#d55e00;stroke:#d55e00;" x="90.336109" xlink:href="#md431634149" y="119.884333"/>
     <use style="fill:#d55e00;stroke:#d55e00;" x="96.7428" xlink:href="#md431634149" y="36.834665"/>
     <use style="fill:#d55e00;stroke:#d55e00;" x="103.149491" xlink:href="#md431634149" y="228.959402"/>
     <use style="fill:#d55e00;stroke:#d55e00;" x="109.556182" xlink:href="#md431634149" y="134.324347"/>
     <use style="fill:#d55e00;stroke:#d55e00;" x="115.962873" xlink:href="#md431634149" y="261.169053"/>
     <use style="fill:#d55e00;stroke:#d55e00;" x="122.369564" xlink:href="#md431634149" y="235.250571"/>
     <use style="fill:#d55e00;stroke:#d55e00;" x="128.776255" xlink:href="#md431634149" y="242.948255"/>
     <use style="fill:#d55e00;stroke:#d55e00;" x="135.182945" xlink:href="#md431634149" y="245.288741"/>
     <use style="fill:#d55e00;stroke:#d55e00;" x="141.589636" xlink:href="#md431634149" y="259.797428"/>
     <use style="fill:#d55e00;stroke:#d55e00;" x="147.996327" xlink:href="#md431634149" y="262.342746"/>
     <use style="fill:#d55e00;stroke:#d55e00;" x="154.403018" xlink:href="#md431634149" y="258.446878"/>
     <use style="fill:#d55e00;stroke:#d55e00;" x="160.809709" xlink:href="#md431634149" y="261.889573"/>
     <use style="fill:#d55e00;stroke:#d55e00;" x="167.2164" xlink:href="#md431634149" y="258.711476"/>
     <use style="fill:#d55e00;stroke:#d55e00;" x="173.623091" xlink:href="#md431634149" y="261.715989"/>
     <use style="fill:#d55e00;stroke:#d55e00;" x="180.029782" xlink:href="#md431634149" y="259.96767"/>
     <use style="fill:#d55e00;stroke:#d55e00;" x="186.436473" xlink:href="#md431634149" y="262.376927"/>
     <use style="fill:#d55e00;stroke:#d55e00;" x="192.843164" xlink:href="#md431634149" y="262.391442"/>
     <use style="fill:#d55e00;stroke:#d55e00;" x="199.249855" xlink:href="#md431634149" y="262.55664"/>
     <use style="fill:#d55e00;stroke:#d55e00;" x="205.656545" xlink:href="#md431634149" y="259.235814"/>
     <use style="fill:#d55e00;stroke:#d55e00;" x="212.063236" xlink:href="#md431634149" y="259.16552"/>
     <use style="fill:#d55e00;stroke:#d55e00;" x="218.469927" xlink:href="#md431634149" y="259.532994"/>
     <use style="fill:#d55e00;stroke:#d55e00;" x="224.876618" xlink:href="#md431634149" y="262.55333"/>
     <use style="fill:#d55e00;stroke:#d55e00;" x="231.283309" xlink:href="#md431634149" y="262.4963"/>
     <use style="fill:#d55e00;stroke:#d55e00;" x="237.69" xlink:href="#md431634149" y="260.987188"/>
     <use style="fill:#d55e00;stroke:#d55e00;" x="244.096691" xlink:href="#md431634149" y="261.676892"/>
     <use style="fill:#d55e00;stroke:#d55e00;" x="250.503382" xlink:href="#md431634149" y="262.556038"/>
     <use style="fill:#d55e00;stroke:#d55e00;" x="256.910073" xlink:href="#md431634149" y="261.893355"/>
     <use style="fill:#d55e00;stroke:#d55e00;" x="263.316764" xlink:href="#md431634149" y="262.437922"/>
     <use style="fill:#d55e00;stroke:#d55e00;" x="269.723455" xlink:href="#md431634149" y="262.109546"/>
     <use style="fill:#d55e00;stroke:#d55e00;" x="276.130145" xlink:href="#md431634149" y="262.405374"/>
     <use style="fill:#d55e00;stroke:#d55e00;" x="282.536836" xlink:href="#md431634149" y="262.444713"/>
     <use style="fill:#d55e00;stroke:#d55e00;" x="288.943527" xlink:href="#md431634149" y="261.97273"/>
     <use style="fill:#d55e00;stroke:#d55e00;" x="295.350218" xlink:href="#md431634149" y="262.552599"/>
     <use style="fill:#d55e00;stroke:#d55e00;" x="301.756909" xlink:href="#md431634149" y="262.536481"/>
     <use style="fill:#d55e00;stroke:#d55e00;" x="308.1636" xlink:href="#md431634149" y="262.080214"/>
     <use style="fill:#d55e00;stroke:#d55e00;" x="314.570291" xlink:href="#md431634149" y="262.400543"/>
     <use style="fill:#d55e00;stroke:#d55e00;" x="320.976982" xlink:href="#md431634149" y="262.543652"/>
     <use style="fill:#d55e00;stroke:#d55e00;" x="327.383673" xlink:href="#md431634149" y="261.576217"/>
     <use style="fill:#d55e00;stroke:#d55e00;" x="333.790364" xlink:href="#md431634149" y="262.534589"/>
     <use style="fill:#d55e00;stroke:#d55e00;" x="340.197055" xlink:href="#md431634149" y="262.350088"/>
     <use style="fill:#d55e00;stroke:#d55e00;" x="346.603745" xlink:href="#md431634149" y="262.549585"/>
     <use style="fill:#d55e00;stroke:#d55e00;" x="353.010436" xlink:href="#md431634149" y="261.775904"/>
     <use style="fill:#d55e00;stroke:#d55e00;" x="359.417127" xlink:href="#md431634149" y="262.54075"/>
     <use style="fill:#d55e00;stroke:#d55e00;" x="365.823818" xlink:href="#md431634149" y="262.486832"/>
     <use style="fill:#d55e00;stroke:#d55e00;" x="372.230509" xlink:href="#md431634149" y="262.013508"/>
     <use style="fill:#d55e00;stroke:#d55e00;" x="378.6372" xlink:href="#md431634149" y="262.555124"/>
     <use style="fill:#d55e00;stroke:#d55e00;" x="385.043891" xlink:href="#md431634149" y="262.451248"/>
     <use style="fill:#d55e00;stroke:#d55e00;" x="391.450582" xlink:href="#md431634149" y="262.415511"/>
     <use style="fill:#d55e00;stroke:#d55e00;" x="397.857273" xlink:href="#md431634149" y="262.459915"/>
    </g>
   </g>
   <g id="PathCollection_4">
    <defs>
     <path d="M 0 3 
C 0.795609 3 1.55874 2.683901 2.12132 2.12132 
C 2.683901 1.55874 3 0.795609 3 0 
C 3 -0.795609 2.683901 -1.55874 2.12132 -2.12132 
C 1.55874 -2.683901 0.795609 -3 0 -3 
C -0.795609 -3 -1.55874 -2.683901 -2.12132 -2.12132 
C -2.683901 -1.55874 -3 -0.795609 -3 0 
C -3 0.795609 -2.683901 1.55874 -2.12132 2.12132 
C -1.55874 2.683901 -0.795609 3 0 3 
z
" id="m42806ca5de" style="stroke:#cc79a7;"/>
    </defs>
    <g clip-path="url(#pb66cd09d34)">
     <use style="fill:#cc79a7;stroke:#cc79a7;" x="77.522727" xlink:href="#m42806ca5de" y="27.341614"/>
     <use style="fill:#cc79a7;stroke:#cc79a7;" x="83.929418" xlink:href="#m42806ca5de" y="28.70769"/>
     <use style="fill:#cc79a7;stroke:#cc79a7;" x="90.336109" xlink:href="#m42806ca5de" y="218.697326"/>
     <use style="fill:#cc79a7;stroke:#cc79a7;" x="96.7428" xlink:href="#m42806ca5de" y="261.027078"/>
     <use style="fill:#cc79a7;stroke:#cc79a7;" x="103.149491" xlink:href="#m42806ca5de" y="252.159198"/>
     <use style="fill:#cc79a7;stroke:#cc79a7;" x="109.556182" xlink:href="#m42806ca5de" y="259.85045"/>
     <use style="fill:#cc79a7;stroke:#cc79a7;" x="115.962873" xlink:href="#m42806ca5de" y="261.567931"/>
     <use style="fill:#cc79a7;stroke:#cc79a7;" x="122.369564" xlink:href="#m42806ca5de" y="252.698366"/>
     <use style="fill:#cc79a7;stroke:#cc79a7;" x="128.776255" xlink:href="#m42806ca5de" y="252.492269"/>
     <use style="fill:#cc79a7;stroke:#cc79a7;" x="135.182945" xlink:href="#m42806ca5de" y="221.578738"/>
     <use style="fill:#cc79a7;stroke:#cc79a7;" x="141.589636" xlink:href="#m42806ca5de" y="259.530783"/>
     <use style="fill:#cc79a7;stroke:#cc79a7;" x="147.996327" xlink:href="#m42806ca5de" y="261.246237"/>
     <use style="fill:#cc79a7;stroke:#cc79a7;" x="154.403018" xlink:href="#m42806ca5de" y="262.511605"/>
     <use style="fill:#cc79a7;stroke:#cc79a7;" x="160.809709" xlink:href="#m42806ca5de" y="262.0273"/>
     <use style="fill:#cc79a7;stroke:#cc79a7;" x="167.2164" xlink:href="#m42806ca5de" y="262.537892"/>
     <use style="fill:#cc79a7;stroke:#cc79a7;" x="173.623091" xlink:href="#m42806ca5de" y="261.719445"/>
     <use style="fill:#cc79a7;stroke:#cc79a7;" x="180.029782" xlink:href="#m42806ca5de" y="261.81457"/>
     <use style="fill:#cc79a7;stroke:#cc79a7;" x="186.436473" xlink:href="#m42806ca5de" y="260.523995"/>
     <use style="fill:#cc79a7;stroke:#cc79a7;" x="192.843164" xlink:href="#m42806ca5de" y="261.836145"/>
     <use style="fill:#cc79a7;stroke:#cc79a7;" x="199.249855" xlink:href="#m42806ca5de" y="262.523695"/>
     <use style="fill:#cc79a7;stroke:#cc79a7;" x="205.656545" xlink:href="#m42806ca5de" y="262.391914"/>
     <use style="fill:#cc79a7;stroke:#cc79a7;" x="212.063236" xlink:href="#m42806ca5de" y="262.506211"/>
     <use style="fill:#cc79a7;stroke:#cc79a7;" x="218.469927" xlink:href="#m42806ca5de" y="260.69581"/>
     <use style="fill:#cc79a7;stroke:#cc79a7;" x="224.876618" xlink:href="#m42806ca5de" y="262.548936"/>
     <use style="fill:#cc79a7;stroke:#cc79a7;" x="231.283309" xlink:href="#m42806ca5de" y="261.500905"/>
     <use style="fill:#cc79a7;stroke:#cc79a7;" x="237.69" xlink:href="#m42806ca5de" y="262.535009"/>
     <use style="fill:#cc79a7;stroke:#cc79a7;" x="244.096691" xlink:href="#m42806ca5de" y="262.515589"/>
     <use style="fill:#cc79a7;stroke:#cc79a7;" x="250.503382" xlink:href="#m42806ca5de" y="262.248775"/>
     <use style="fill:#cc79a7;stroke:#cc79a7;" x="256.910073" xlink:href="#m42806ca5de" y="261.649361"/>
     <use style="fill:#cc79a7;stroke:#cc79a7;" x="263.316764" xlink:href="#m42806ca5de" y="261.817273"/>
     <use style="fill:#cc79a7;stroke:#cc79a7;" x="269.723455" xlink:href="#m42806ca5de" y="262.15173"/>
     <use style="fill:#cc79a7;stroke:#cc79a7;" x="276.130145" xlink:href="#m42806ca5de" y="262.482747"/>
     <use style="fill:#cc79a7;stroke:#cc79a7;" x="282.536836" xlink:href="#m42806ca5de" y="262.557336"/>
     <use style="fill:#cc79a7;stroke:#cc79a7;" x="288.943527" xlink:href="#m42806ca5de" y="262.545963"/>
     <use style="fill:#cc79a7;stroke:#cc79a7;" x="295.350218" xlink:href="#m42806ca5de" y="262.525584"/>
     <use style="fill:#cc79a7;stroke:#cc79a7;" x="301.756909" xlink:href="#m42806ca5de" y="262.108264"/>
     <use style="fill:#cc79a7;stroke:#cc79a7;" x="308.1636" xlink:href="#m42806ca5de" y="262.42088"/>
     <use style="fill:#cc79a7;stroke:#cc79a7;" x="314.570291" xlink:href="#m42806ca5de" y="262.557681"/>
     <use style="fill:#cc79a7;stroke:#cc79a7;" x="320.976982" xlink:href="#m42806ca5de" y="262.267966"/>
     <use style="fill:#cc79a7;stroke:#cc79a7;" x="327.383673" xlink:href="#m42806ca5de" y="262.349418"/>
     <use style="fill:#cc79a7;stroke:#cc79a7;" x="333.790364" xlink:href="#m42806ca5de" y="262.507728"/>
     <use style="fill:#cc79a7;stroke:#cc79a7;" x="340.197055" xlink:href="#m42806ca5de" y="262.160758"/>
     <use style="fill:#cc79a7;stroke:#cc79a7;" x="346.603745" xlink:href="#m42806ca5de" y="262.250349"/>
     <use style="fill:#cc79a7;stroke:#cc79a7;" x="353.010436" xlink:href="#m42806ca5de" y="262.503416"/>
     <use style="fill:#cc79a7;stroke:#cc79a7;" x="359.417127" xlink:href="#m42806ca5de" y="262.480985"/>
     <use style="fill:#cc79a7;stroke:#cc79a7;" x="365.823818" xlink:href="#m42806ca5de" y="262.498755"/>
     <use style="fill:#cc79a7;stroke:#cc79a7;" x="372.230509" xlink:href="#m42806ca5de" y="262.441783"/>
     <use style="fill:#cc79a7;stroke:#cc79a7;" x="378.6372" xlink:href="#m42806ca5de" y="262.544998"/>
     <use style="fill:#cc79a7;stroke:#cc79a7;" x="385.043891" xlink:href="#m42806ca5de" y="262.373452"/>
     <use style="fill:#cc79a7;stroke:#cc79a7;" x="391.450582" xlink:href="#m42806ca5de" y="262.554772"/>
     <use style="fill:#cc79a7;stroke:#cc79a7;" x="397.857273" xlink:href="#m42806ca5de" y="262.422384"/>
    </g>
   </g>
   <g id="PathCollection_5">
    <defs>
     <path d="M 0 3 
C 0.795609 3 1.55874 2.683901 2.12132 2.12132 
C 2.683901 1.55874 3 0.795609 3 0 
C 3 -0.795609 2.683901 -1.55874 2.12132 -2.12132 
C 1.55874 -2.683901 0.795609 -3 0 -3 
C -0.795609 -3 -1.55874 -2.683901 -2.12132 -2.12132 
C -2.683901 -1.55874 -3 -0.795609 -3 0 
C -3 0.795609 -2.683901 1.55874 -2.12132 2.12132 
C -1.55874 2.683901 -0.795609 3 0 3 
z
" id="m1c6a4058fd" style="stroke:#f0e442;"/>
    </defs>
    <g clip-path="url(#pb66cd09d34)">
     <use style="fill:#f0e442;stroke:#f0e442;" x="77.522727" xlink:href="#m1c6a4058fd" y="30.968458"/>
     <use style="fill:#f0e442;stroke:#f0e442;" x="83.929418" xlink:href="#m1c6a4058fd" y="29.763993"/>
     <use style="fill:#f0e442;stroke:#f0e442;" x="90.336109" xlink:href="#m1c6a4058fd" y="48.70377"/>
     <use style="fill:#f0e442;stroke:#f0e442;" x="96.7428" xlink:href="#m1c6a4058fd" y="130.242505"/>
     <use style="fill:#f0e442;stroke:#f0e442;" x="103.149491" xlink:href="#m1c6a4058fd" y="161.869989"/>
     <use style="fill:#f0e442;stroke:#f0e442;" x="109.556182" xlink:href="#m1c6a4058fd" y="247.192348"/>
     <use style="fill:#f0e442;stroke:#f0e442;" x="115.962873" xlink:href="#m1c6a4058fd" y="231.50471"/>
     <use style="fill:#f0e442;stroke:#f0e442;" x="122.369564" xlink:href="#m1c6a4058fd" y="239.42481"/>
     <use style="fill:#f0e442;stroke:#f0e442;" x="128.776255" xlink:href="#m1c6a4058fd" y="256.504944"/>
     <use style="fill:#f0e442;stroke:#f0e442;" x="135.182945" xlink:href="#m1c6a4058fd" y="261.169417"/>
     <use style="fill:#f0e442;stroke:#f0e442;" x="141.589636" xlink:href="#m1c6a4058fd" y="262.531261"/>
     <use style="fill:#f0e442;stroke:#f0e442;" x="147.996327" xlink:href="#m1c6a4058fd" y="262.542059"/>
     <use style="fill:#f0e442;stroke:#f0e442;" x="154.403018" xlink:href="#m1c6a4058fd" y="262.557886"/>
     <use style="fill:#f0e442;stroke:#f0e442;" x="160.809709" xlink:href="#m1c6a4058fd" y="255.461993"/>
     <use style="fill:#f0e442;stroke:#f0e442;" x="167.2164" xlink:href="#m1c6a4058fd" y="262.230054"/>
     <use style="fill:#f0e442;stroke:#f0e442;" x="173.623091" xlink:href="#m1c6a4058fd" y="262.273192"/>
     <use style="fill:#f0e442;stroke:#f0e442;" x="180.029782" xlink:href="#m1c6a4058fd" y="261.618671"/>
     <use style="fill:#f0e442;stroke:#f0e442;" x="186.436473" xlink:href="#m1c6a4058fd" y="262.533423"/>
     <use style="fill:#f0e442;stroke:#f0e442;" x="192.843164" xlink:href="#m1c6a4058fd" y="261.217914"/>
     <use style="fill:#f0e442;stroke:#f0e442;" x="199.249855" xlink:href="#m1c6a4058fd" y="261.791799"/>
     <use style="fill:#f0e442;stroke:#f0e442;" x="205.656545" xlink:href="#m1c6a4058fd" y="259.134165"/>
     <use style="fill:#f0e442;stroke:#f0e442;" x="212.063236" xlink:href="#m1c6a4058fd" y="262.483499"/>
     <use style="fill:#f0e442;stroke:#f0e442;" x="218.469927" xlink:href="#m1c6a4058fd" y="262.494216"/>
     <use style="fill:#f0e442;stroke:#f0e442;" x="224.876618" xlink:href="#m1c6a4058fd" y="262.555725"/>
     <use style="fill:#f0e442;stroke:#f0e442;" x="231.283309" xlink:href="#m1c6a4058fd" y="262.551849"/>
     <use style="fill:#f0e442;stroke:#f0e442;" x="237.69" xlink:href="#m1c6a4058fd" y="261.905454"/>
     <use style="fill:#f0e442;stroke:#f0e442;" x="244.096691" xlink:href="#m1c6a4058fd" y="262.493536"/>
     <use style="fill:#f0e442;stroke:#f0e442;" x="250.503382" xlink:href="#m1c6a4058fd" y="262.200683"/>
     <use style="fill:#f0e442;stroke:#f0e442;" x="256.910073" xlink:href="#m1c6a4058fd" y="261.97894"/>
     <use style="fill:#f0e442;stroke:#f0e442;" x="263.316764" xlink:href="#m1c6a4058fd" y="261.680254"/>
     <use style="fill:#f0e442;stroke:#f0e442;" x="269.723455" xlink:href="#m1c6a4058fd" y="262.5202"/>
     <use style="fill:#f0e442;stroke:#f0e442;" x="276.130145" xlink:href="#m1c6a4058fd" y="262.02836"/>
     <use style="fill:#f0e442;stroke:#f0e442;" x="282.536836" xlink:href="#m1c6a4058fd" y="261.986581"/>
     <use style="fill:#f0e442;stroke:#f0e442;" x="288.943527" xlink:href="#m1c6a4058fd" y="262.128722"/>
     <use style="fill:#f0e442;stroke:#f0e442;" x="295.350218" xlink:href="#m1c6a4058fd" y="262.507688"/>
     <use style="fill:#f0e442;stroke:#f0e442;" x="301.756909" xlink:href="#m1c6a4058fd" y="262.391645"/>
     <use style="fill:#f0e442;stroke:#f0e442;" x="308.1636" xlink:href="#m1c6a4058fd" y="262.490919"/>
     <use style="fill:#f0e442;stroke:#f0e442;" x="314.570291" xlink:href="#m1c6a4058fd" y="262.484922"/>
     <use style="fill:#f0e442;stroke:#f0e442;" x="320.976982" xlink:href="#m1c6a4058fd" y="262.144562"/>
     <use style="fill:#f0e442;stroke:#f0e442;" x="327.383673" xlink:href="#m1c6a4058fd" y="262.55657"/>
     <use style="fill:#f0e442;stroke:#f0e442;" x="333.790364" xlink:href="#m1c6a4058fd" y="262.549368"/>
     <use style="fill:#f0e442;stroke:#f0e442;" x="340.197055" xlink:href="#m1c6a4058fd" y="262.272917"/>
     <use style="fill:#f0e442;stroke:#f0e442;" x="346.603745" xlink:href="#m1c6a4058fd" y="262.549562"/>
     <use style="fill:#f0e442;stroke:#f0e442;" x="353.010436" xlink:href="#m1c6a4058fd" y="262.553534"/>
     <use style="fill:#f0e442;stroke:#f0e442;" x="359.417127" xlink:href="#m1c6a4058fd" y="262.390483"/>
     <use style="fill:#f0e442;stroke:#f0e442;" x="365.823818" xlink:href="#m1c6a4058fd" y="262.557489"/>
     <use style="fill:#f0e442;stroke:#f0e442;" x="372.230509" xlink:href="#m1c6a4058fd" y="262.045978"/>
     <use style="fill:#f0e442;stroke:#f0e442;" x="378.6372" xlink:href="#m1c6a4058fd" y="262.415018"/>
     <use style="fill:#f0e442;stroke:#f0e442;" x="385.043891" xlink:href="#m1c6a4058fd" y="262.226567"/>
     <use style="fill:#f0e442;stroke:#f0e442;" x="391.450582" xlink:href="#m1c6a4058fd" y="262.518978"/>
     <use style="fill:#f0e442;stroke:#f0e442;" x="397.857273" xlink:href="#m1c6a4058fd" y="262.521032"/>
    </g>
   </g>
   <g id="PathCollection_6">
    <defs>
     <path d="M 0 3 
C 0.795609 3 1.55874 2.683901 2.12132 2.12132 
C 2.683901 1.55874 3 0.795609 3 0 
C 3 -0.795609 2.683901 -1.55874 2.12132 -2.12132 
C 1.55874 -2.683901 0.795609 -3 0 -3 
C -0.795609 -3 -1.55874 -2.683901 -2.12132 -2.12132 
C -2.683901 -1.55874 -3 -0.795609 -3 0 
C -3 0.795609 -2.683901 1.55874 -2.12132 2.12132 
C -1.55874 2.683901 -0.795609 3 0 3 
z
" id="m8c01b04020" style="stroke:#56b4e9;"/>
    </defs>
    <g clip-path="url(#pb66cd09d34)">
     <use style="fill:#56b4e9;stroke:#56b4e9;" x="77.522727" xlink:href="#m8c01b04020" y="33.968375"/>
     <use style="fill:#56b4e9;stroke:#56b4e9;" x="83.929418" xlink:href="#m8c01b04020" y="24.954123"/>
     <use style="fill:#56b4e9;stroke:#56b4e9;" x="90.336109" xlink:href="#m8c01b04020" y="80.303917"/>
     <use style="fill:#56b4e9;stroke:#56b4e9;" x="96.7428" xlink:href="#m8c01b04020" y="185.025949"/>
     <use style="fill:#56b4e9;stroke:#56b4e9;" x="103.149491" xlink:href="#m8c01b04020" y="51.436798"/>
     <use style="fill:#56b4e9;stroke:#56b4e9;" x="109.556182" xlink:href="#m8c01b04020" y="259.821793"/>
     <use style="fill:#56b4e9;stroke:#56b4e9;" x="115.962873" xlink:href="#m8c01b04020" y="243.93065"/>
     <use style="fill:#56b4e9;stroke:#56b4e9;" x="122.369564" xlink:href="#m8c01b04020" y="254.997398"/>
     <use style="fill:#56b4e9;stroke:#56b4e9;" x="128.776255" xlink:href="#m8c01b04020" y="260.34957"/>
     <use style="fill:#56b4e9;stroke:#56b4e9;" x="135.182945" xlink:href="#m8c01b04020" y="244.947026"/>
     <use style="fill:#56b4e9;stroke:#56b4e9;" x="141.589636" xlink:href="#m8c01b04020" y="255.502918"/>
     <use style="fill:#56b4e9;stroke:#56b4e9;" x="147.996327" xlink:href="#m8c01b04020" y="262.120131"/>
     <use style="fill:#56b4e9;stroke:#56b4e9;" x="154.403018" xlink:href="#m8c01b04020" y="261.46377"/>
     <use style="fill:#56b4e9;stroke:#56b4e9;" x="160.809709" xlink:href="#m8c01b04020" y="262.545152"/>
     <use style="fill:#56b4e9;stroke:#56b4e9;" x="167.2164" xlink:href="#m8c01b04020" y="262.5218"/>
     <use style="fill:#56b4e9;stroke:#56b4e9;" x="173.623091" xlink:href="#m8c01b04020" y="260.989621"/>
     <use style="fill:#56b4e9;stroke:#56b4e9;" x="180.029782" xlink:href="#m8c01b04020" y="262.031202"/>
     <use style="fill:#56b4e9;stroke:#56b4e9;" x="186.436473" xlink:href="#m8c01b04020" y="262.437346"/>
     <use style="fill:#56b4e9;stroke:#56b4e9;" x="192.843164" xlink:href="#m8c01b04020" y="262.055742"/>
     <use style="fill:#56b4e9;stroke:#56b4e9;" x="199.249855" xlink:href="#m8c01b04020" y="262.320478"/>
     <use style="fill:#56b4e9;stroke:#56b4e9;" x="205.656545" xlink:href="#m8c01b04020" y="262.147625"/>
     <use style="fill:#56b4e9;stroke:#56b4e9;" x="212.063236" xlink:href="#m8c01b04020" y="261.293821"/>
     <use style="fill:#56b4e9;stroke:#56b4e9;" x="218.469927" xlink:href="#m8c01b04020" y="262.521317"/>
     <use style="fill:#56b4e9;stroke:#56b4e9;" x="224.876618" xlink:href="#m8c01b04020" y="261.66927"/>
     <use style="fill:#56b4e9;stroke:#56b4e9;" x="231.283309" xlink:href="#m8c01b04020" y="262.556571"/>
     <use style="fill:#56b4e9;stroke:#56b4e9;" x="237.69" xlink:href="#m8c01b04020" y="262.485881"/>
     <use style="fill:#56b4e9;stroke:#56b4e9;" x="244.096691" xlink:href="#m8c01b04020" y="261.857012"/>
     <use style="fill:#56b4e9;stroke:#56b4e9;" x="250.503382" xlink:href="#m8c01b04020" y="262.55642"/>
     <use style="fill:#56b4e9;stroke:#56b4e9;" x="256.910073" xlink:href="#m8c01b04020" y="262.543489"/>
     <use style="fill:#56b4e9;stroke:#56b4e9;" x="263.316764" xlink:href="#m8c01b04020" y="262.557847"/>
     <use style="fill:#56b4e9;stroke:#56b4e9;" x="269.723455" xlink:href="#m8c01b04020" y="262.120168"/>
     <use style="fill:#56b4e9;stroke:#56b4e9;" x="276.130145" xlink:href="#m8c01b04020" y="262.492776"/>
     <use style="fill:#56b4e9;stroke:#56b4e9;" x="282.536836" xlink:href="#m8c01b04020" y="262.110053"/>
     <use style="fill:#56b4e9;stroke:#56b4e9;" x="288.943527" xlink:href="#m8c01b04020" y="262.446677"/>
     <use style="fill:#56b4e9;stroke:#56b4e9;" x="295.350218" xlink:href="#m8c01b04020" y="262.324659"/>
     <use style="fill:#56b4e9;stroke:#56b4e9;" x="301.756909" xlink:href="#m8c01b04020" y="262.556178"/>
     <use style="fill:#56b4e9;stroke:#56b4e9;" x="308.1636" xlink:href="#m8c01b04020" y="262.205952"/>
     <use style="fill:#56b4e9;stroke:#56b4e9;" x="314.570291" xlink:href="#m8c01b04020" y="262.289974"/>
     <use style="fill:#56b4e9;stroke:#56b4e9;" x="320.976982" xlink:href="#m8c01b04020" y="262.252765"/>
     <use style="fill:#56b4e9;stroke:#56b4e9;" x="327.383673" xlink:href="#m8c01b04020" y="262.421657"/>
     <use style="fill:#56b4e9;stroke:#56b4e9;" x="333.790364" xlink:href="#m8c01b04020" y="262.319813"/>
     <use style="fill:#56b4e9;stroke:#56b4e9;" x="340.197055" xlink:href="#m8c01b04020" y="262.164575"/>
     <use style="fill:#56b4e9;stroke:#56b4e9;" x="346.603745" xlink:href="#m8c01b04020" y="262.518132"/>
     <use style="fill:#56b4e9;stroke:#56b4e9;" x="353.010436" xlink:href="#m8c01b04020" y="262.440391"/>
     <use style="fill:#56b4e9;stroke:#56b4e9;" x="359.417127" xlink:href="#m8c01b04020" y="262.508666"/>
     <use style="fill:#56b4e9;stroke:#56b4e9;" x="365.823818" xlink:href="#m8c01b04020" y="261.785517"/>
     <use style="fill:#56b4e9;stroke:#56b4e9;" x="372.230509" xlink:href="#m8c01b04020" y="262.385511"/>
     <use style="fill:#56b4e9;stroke:#56b4e9;" x="378.6372" xlink:href="#m8c01b04020" y="262.392363"/>
     <use style="fill:#56b4e9;stroke:#56b4e9;" x="385.043891" xlink:href="#m8c01b04020" y="262.465761"/>
     <use style="fill:#56b4e9;stroke:#56b4e9;" x="391.450582" xlink:href="#m8c01b04020" y="262.480879"/>
     <use style="fill:#56b4e9;stroke:#56b4e9;" x="397.857273" xlink:href="#m8c01b04020" y="262.509463"/>
    </g>
   </g>
   <g id="matplotlib.axis_1">
    <g id="xtick_1">
     <g id="line2d_1">
      <defs>
       <path d="M 0 0 
L 0 3.5 
" id="m3468287ac1" style="stroke:#000000;stroke-width:0.8;"/>
      </defs>
      <g>
       <use style="stroke:#000000;stroke-width:0.8;" x="77.522727" xlink:href="#m3468287ac1" y="276.812"/>
      </g>
     </g>
     <g id="text_1">
      <!-- 0 -->
      <defs>
       <path d="M 31.78125 3.421875 
Q 39.265625 3.421875 42.96875 11.625 
Q 46.6875 19.828125 46.6875 36.375 
Q 46.6875 52.984375 42.96875 61.1875 
Q 39.265625 69.390625 31.78125 69.390625 
Q 24.3125 69.390625 20.59375 61.1875 
Q 16.890625 52.984375 16.890625 36.375 
Q 16.890625 19.828125 20.59375 11.625 
Q 24.3125 3.421875 31.78125 3.421875 
z
M 31.78125 -1.421875 
Q 19.921875 -1.421875 13.25 8.53125 
Q 6.59375 18.5 6.59375 36.375 
Q 6.59375 54.296875 13.25 64.25 
Q 19.921875 74.21875 31.78125 74.21875 
Q 43.703125 74.21875 50.34375 64.25 
Q 56.984375 54.296875 56.984375 36.375 
Q 56.984375 18.5 50.34375 8.53125 
Q 43.703125 -1.421875 31.78125 -1.421875 
z
" id="DejaVuSerif-48"/>
      </defs>
      <g transform="translate(72.432727 295.9695)scale(0.16 -0.16)">
       <use xlink:href="#DejaVuSerif-48"/>
      </g>
     </g>
    </g>
    <g id="xtick_2">
     <g id="line2d_2">
      <g>
       <use style="stroke:#000000;stroke-width:0.8;" x="141.589636" xlink:href="#m3468287ac1" y="276.812"/>
      </g>
     </g>
     <g id="text_2">
      <!-- 10 -->
      <defs>
       <path d="M 14.203125 0 
L 14.203125 5.171875 
L 26.90625 5.171875 
L 26.90625 65.828125 
L 12.203125 56.296875 
L 12.203125 62.703125 
L 29.984375 74.21875 
L 36.71875 74.21875 
L 36.71875 5.171875 
L 49.421875 5.171875 
L 49.421875 0 
z
" id="DejaVuSerif-49"/>
      </defs>
      <g transform="translate(131.409636 295.9695)scale(0.16 -0.16)">
       <use xlink:href="#DejaVuSerif-49"/>
       <use x="63.623047" xlink:href="#DejaVuSerif-48"/>
      </g>
     </g>
    </g>
    <g id="xtick_3">
     <g id="line2d_3">
      <g>
       <use style="stroke:#000000;stroke-width:0.8;" x="205.656545" xlink:href="#m3468287ac1" y="276.812"/>
      </g>
     </g>
     <g id="text_3">
      <!-- 20 -->
      <defs>
       <path d="M 12.796875 55.515625 
L 7.328125 55.515625 
L 7.328125 68.5 
Q 12.546875 71.296875 17.84375 72.75 
Q 23.140625 74.21875 28.21875 74.21875 
Q 39.59375 74.21875 46.1875 68.703125 
Q 52.78125 63.1875 52.78125 53.71875 
Q 52.78125 43.015625 37.84375 28.125 
Q 36.671875 27 36.078125 26.421875 
L 17.671875 8.015625 
L 48.09375 8.015625 
L 48.09375 17 
L 53.8125 17 
L 53.8125 0 
L 6.78125 0 
L 6.78125 5.328125 
L 28.90625 27.390625 
Q 36.234375 34.71875 39.359375 40.84375 
Q 42.484375 46.96875 42.484375 53.71875 
Q 42.484375 61.078125 38.640625 65.234375 
Q 34.8125 69.390625 28.078125 69.390625 
Q 21.09375 69.390625 17.28125 65.921875 
Q 13.484375 62.453125 12.796875 55.515625 
z
" id="DejaVuSerif-50"/>
      </defs>
      <g transform="translate(195.476545 295.9695)scale(0.16 -0.16)">
       <use xlink:href="#DejaVuSerif-50"/>
       <use x="63.623047" xlink:href="#DejaVuSerif-48"/>
      </g>
     </g>
    </g>
    <g id="xtick_4">
     <g id="line2d_4">
      <g>
       <use style="stroke:#000000;stroke-width:0.8;" x="269.723455" xlink:href="#m3468287ac1" y="276.812"/>
      </g>
     </g>
     <g id="text_4">
      <!-- 30 -->
      <defs>
       <path d="M 9.71875 69.828125 
Q 15.4375 71.96875 20.671875 73.09375 
Q 25.921875 74.21875 30.515625 74.21875 
Q 41.21875 74.21875 47.21875 69.59375 
Q 53.21875 64.984375 53.21875 56.78125 
Q 53.21875 50.203125 49.0625 45.78125 
Q 44.921875 41.359375 37.3125 39.796875 
Q 46.296875 38.53125 51.25 33.28125 
Q 56.203125 28.03125 56.203125 19.671875 
Q 56.203125 9.46875 49.34375 4.015625 
Q 42.484375 -1.421875 29.59375 -1.421875 
Q 23.875 -1.421875 18.421875 -0.1875 
Q 12.984375 1.03125 7.625 3.515625 
L 7.625 17.671875 
L 13.09375 17.671875 
Q 13.578125 10.640625 17.828125 7.03125 
Q 22.078125 3.421875 29.78125 3.421875 
Q 37.25 3.421875 41.578125 7.734375 
Q 45.90625 12.0625 45.90625 19.578125 
Q 45.90625 28.171875 41.453125 32.59375 
Q 37.015625 37.015625 28.421875 37.015625 
L 23.78125 37.015625 
L 23.78125 42 
L 26.21875 42 
Q 34.765625 42 39.03125 45.53125 
Q 43.3125 49.078125 43.3125 56.203125 
Q 43.3125 62.59375 39.796875 65.984375 
Q 36.28125 69.390625 29.6875 69.390625 
Q 23.09375 69.390625 19.453125 66.265625 
Q 15.828125 63.140625 15.1875 56.984375 
L 9.71875 56.984375 
z
" id="DejaVuSerif-51"/>
      </defs>
      <g transform="translate(259.543455 295.9695)scale(0.16 -0.16)">
       <use xlink:href="#DejaVuSerif-51"/>
       <use x="63.623047" xlink:href="#DejaVuSerif-48"/>
      </g>
     </g>
    </g>
    <g id="xtick_5">
     <g id="line2d_5">
      <g>
       <use style="stroke:#000000;stroke-width:0.8;" x="333.790364" xlink:href="#m3468287ac1" y="276.812"/>
      </g>
     </g>
     <g id="text_5">
      <!-- 40 -->
      <defs>
       <path d="M 34.90625 24.703125 
L 34.90625 63.484375 
L 10.015625 24.703125 
z
M 56.390625 0 
L 23.1875 0 
L 23.1875 5.171875 
L 34.90625 5.171875 
L 34.90625 19.484375 
L 3.078125 19.484375 
L 3.078125 24.8125 
L 35.015625 74.21875 
L 44.671875 74.21875 
L 44.671875 24.703125 
L 58.59375 24.703125 
L 58.59375 19.484375 
L 44.671875 19.484375 
L 44.671875 5.171875 
L 56.390625 5.171875 
z
" id="DejaVuSerif-52"/>
      </defs>
      <g transform="translate(323.610364 295.9695)scale(0.16 -0.16)">
       <use xlink:href="#DejaVuSerif-52"/>
       <use x="63.623047" xlink:href="#DejaVuSerif-48"/>
      </g>
     </g>
    </g>
    <g id="xtick_6">
     <g id="line2d_6">
      <g>
       <use style="stroke:#000000;stroke-width:0.8;" x="397.857273" xlink:href="#m3468287ac1" y="276.812"/>
      </g>
     </g>
     <g id="text_6">
      <!-- 50 -->
      <defs>
       <path d="M 50.296875 72.90625 
L 50.296875 64.890625 
L 16.890625 64.890625 
L 16.890625 44 
Q 19.4375 45.75 22.828125 46.625 
Q 26.21875 47.515625 30.421875 47.515625 
Q 42.234375 47.515625 49.0625 40.96875 
Q 55.90625 34.421875 55.90625 23.09375 
Q 55.90625 11.53125 49 5.046875 
Q 42.09375 -1.421875 29.59375 -1.421875 
Q 24.5625 -1.421875 19.28125 -0.1875 
Q 14.015625 1.03125 8.5 3.515625 
L 8.5 17.671875 
L 14.015625 17.671875 
Q 14.453125 10.75 18.421875 7.078125 
Q 22.40625 3.421875 29.59375 3.421875 
Q 37.3125 3.421875 41.453125 8.5 
Q 45.609375 13.578125 45.609375 23.09375 
Q 45.609375 32.5625 41.484375 37.609375 
Q 37.359375 42.671875 29.59375 42.671875 
Q 25.203125 42.671875 21.84375 41.109375 
Q 18.5 39.546875 15.921875 36.28125 
L 11.71875 36.28125 
L 11.71875 72.90625 
z
" id="DejaVuSerif-53"/>
      </defs>
      <g transform="translate(387.677273 295.9695)scale(0.16 -0.16)">
       <use xlink:href="#DejaVuSerif-53"/>
       <use x="63.623047" xlink:href="#DejaVuSerif-48"/>
      </g>
     </g>
    </g>
    <g id="text_7">
     <!-- Delay $d$ -->
     <defs>
      <path d="M 24.703125 5.171875 
L 33.796875 5.171875 
Q 48 5.171875 55.59375 13.28125 
Q 63.1875 21.390625 63.1875 36.53125 
Q 63.1875 51.65625 55.609375 59.65625 
Q 48.046875 67.671875 33.796875 67.671875 
L 24.703125 67.671875 
z
M 5.515625 0 
L 5.515625 5.171875 
L 14.796875 5.171875 
L 14.796875 67.671875 
L 5.515625 67.671875 
L 5.515625 72.90625 
L 34.515625 72.90625 
Q 53.375 72.90625 63.890625 63.28125 
Q 74.421875 53.65625 74.421875 36.53125 
Q 74.421875 19.34375 63.875 9.671875 
Q 53.328125 0 34.515625 0 
z
" id="DejaVuSerif-68"/>
      <path d="M 54.203125 25 
L 15.484375 25 
L 15.484375 24.609375 
Q 15.484375 14.109375 19.4375 8.765625 
Q 23.390625 3.421875 31.109375 3.421875 
Q 37.015625 3.421875 40.796875 6.515625 
Q 44.578125 9.625 46.09375 15.71875 
L 53.328125 15.71875 
Q 51.171875 7.171875 45.375 2.875 
Q 39.59375 -1.421875 30.171875 -1.421875 
Q 18.796875 -1.421875 11.890625 6.078125 
Q 4.984375 13.578125 4.984375 25.984375 
Q 4.984375 38.28125 11.765625 45.796875 
Q 18.5625 53.328125 29.59375 53.328125 
Q 41.359375 53.328125 47.65625 46.0625 
Q 53.953125 38.8125 54.203125 25 
z
M 43.609375 30.171875 
Q 43.3125 39.265625 39.765625 43.875 
Q 36.234375 48.484375 29.59375 48.484375 
Q 23.390625 48.484375 19.828125 43.84375 
Q 16.265625 39.203125 15.484375 30.171875 
z
" id="DejaVuSerif-101"/>
      <path d="M 20.515625 5.171875 
L 29 5.171875 
L 29 0 
L 2.875 0 
L 2.875 5.171875 
L 11.53125 5.171875 
L 11.53125 70.796875 
L 2.875 70.796875 
L 2.875 75.984375 
L 20.515625 75.984375 
z
" id="DejaVuSerif-108"/>
      <path d="M 39.796875 16.3125 
L 39.796875 27.296875 
L 28.21875 27.296875 
Q 21.53125 27.296875 18.25 24.40625 
Q 14.984375 21.53125 14.984375 15.578125 
Q 14.984375 10.15625 18.296875 6.984375 
Q 21.625 3.8125 27.296875 3.8125 
Q 32.90625 3.8125 36.34375 7.28125 
Q 39.796875 10.75 39.796875 16.3125 
z
M 48.78125 32.421875 
L 48.78125 5.171875 
L 56.78125 5.171875 
L 56.78125 0 
L 39.796875 0 
L 39.796875 5.609375 
Q 36.8125 2 32.90625 0.28125 
Q 29 -1.421875 23.78125 -1.421875 
Q 15.140625 -1.421875 10.0625 3.171875 
Q 4.984375 7.765625 4.984375 15.578125 
Q 4.984375 23.640625 10.796875 28.078125 
Q 16.609375 32.515625 27.203125 32.515625 
L 39.796875 32.515625 
L 39.796875 36.078125 
Q 39.796875 42 36.203125 45.234375 
Q 32.625 48.484375 26.125 48.484375 
Q 20.75 48.484375 17.578125 46.046875 
Q 14.40625 43.609375 13.625 38.8125 
L 8.984375 38.8125 
L 8.984375 49.3125 
Q 13.671875 51.3125 18.09375 52.3125 
Q 22.515625 53.328125 26.703125 53.328125 
Q 37.5 53.328125 43.140625 47.96875 
Q 48.78125 42.625 48.78125 32.421875 
z
" id="DejaVuSerif-97"/>
      <path d="M 21.578125 -9.515625 
L 25 -0.875 
L 5.609375 46.6875 
L -0.296875 46.6875 
L -0.296875 51.90625 
L 23.578125 51.90625 
L 23.578125 46.6875 
L 15.28125 46.6875 
L 29.890625 10.984375 
L 44.484375 46.6875 
L 36.71875 46.6875 
L 36.71875 51.90625 
L 56.203125 51.90625 
L 56.203125 46.6875 
L 50.390625 46.6875 
L 26.609375 -11.71875 
Q 24.171875 -17.78125 21.1875 -20 
Q 18.21875 -22.21875 12.796875 -22.21875 
Q 10.5 -22.21875 8.078125 -21.828125 
Q 5.671875 -21.4375 3.21875 -20.703125 
L 3.21875 -10.796875 
L 7.8125 -10.796875 
Q 8.109375 -14.109375 9.5 -15.546875 
Q 10.890625 -17 13.8125 -17 
Q 16.5 -17 18.140625 -15.5 
Q 19.78125 -14.015625 21.578125 -9.515625 
z
" id="DejaVuSerif-121"/>
      <path id="DejaVuSerif-32"/>
      <path d="M 17.390625 -1.125 
Q 11.078125 -1.125 7.4375 3.640625 
Q 3.8125 8.40625 3.8125 14.890625 
Q 3.8125 21.296875 7.125 28.171875 
Q 10.453125 35.0625 16.09375 39.625 
Q 21.734375 44.1875 28.21875 44.1875 
Q 31.15625 44.1875 33.515625 42.546875 
Q 35.890625 40.921875 37.203125 38.1875 
L 42.828125 60.5 
Q 43.21875 62.203125 43.3125 63.1875 
Q 43.3125 64.796875 36.8125 64.796875 
Q 35.796875 64.796875 35.796875 66.109375 
Q 35.84375 66.359375 36.015625 66.984375 
Q 36.1875 67.625 36.453125 67.96875 
Q 36.71875 68.3125 37.203125 68.3125 
L 50.6875 69.390625 
Q 51.90625 69.390625 51.90625 68.109375 
L 37.5 10.59375 
Q 36.8125 8.9375 36.8125 5.8125 
Q 36.8125 1.515625 39.703125 1.515625 
Q 42.828125 1.515625 44.453125 5.484375 
Q 46.09375 9.46875 47.21875 14.703125 
Q 47.40625 15.28125 48 15.28125 
L 49.21875 15.28125 
Q 49.609375 15.28125 49.84375 14.9375 
Q 50.09375 14.59375 50.09375 14.3125 
Q 48.34375 7.328125 46.265625 3.09375 
Q 44.1875 -1.125 39.5 -1.125 
Q 36.140625 -1.125 33.546875 0.84375 
Q 30.953125 2.828125 30.328125 6.109375 
Q 23.875 -1.125 17.390625 -1.125 
z
M 17.484375 1.515625 
Q 21.09375 1.515625 24.484375 4.21875 
Q 27.875 6.9375 30.328125 10.59375 
Q 30.421875 10.6875 30.421875 10.984375 
L 35.890625 33.015625 
Q 35.296875 36.53125 33.296875 39.0625 
Q 31.296875 41.609375 27.984375 41.609375 
Q 24.609375 41.609375 21.703125 38.84375 
Q 18.796875 36.078125 16.796875 32.328125 
Q 14.84375 28.328125 13.0625 21.34375 
Q 11.28125 14.359375 11.28125 10.5 
Q 11.28125 7.03125 12.765625 4.265625 
Q 14.265625 1.515625 17.484375 1.515625 
z
" id="Cmmi10-100"/>
     </defs>
     <g transform="translate(207.93 315.457)scale(0.16 -0.16)">
      <use transform="translate(0 0.015625)" xlink:href="#DejaVuSerif-68"/>
      <use transform="translate(80.175781 0.015625)" xlink:href="#DejaVuSerif-101"/>
      <use transform="translate(139.355469 0.015625)" xlink:href="#DejaVuSerif-108"/>
      <use transform="translate(171.337891 0.015625)" xlink:href="#DejaVuSerif-97"/>
      <use transform="translate(230.957031 0.015625)" xlink:href="#DejaVuSerif-121"/>
      <use transform="translate(287.451172 0.015625)" xlink:href="#DejaVuSerif-32"/>
      <use transform="translate(319.238281 0.015625)" xlink:href="#Cmmi10-100"/>
     </g>
    </g>
   </g>
   <g id="matplotlib.axis_2">
    <g id="ytick_1">
     <g id="line2d_7">
      <defs>
       <path d="M 0 0 
L -3.5 0 
" id="m503cb1ab17" style="stroke:#000000;stroke-width:0.8;"/>
      </defs>
      <g>
       <use style="stroke:#000000;stroke-width:0.8;" x="59.13" xlink:href="#m503cb1ab17" y="262.55798"/>
      </g>
     </g>
     <g id="text_8">
      <!-- 0.0 -->
      <defs>
       <path d="M 9.421875 5.078125 
Q 9.421875 7.8125 11.28125 9.71875 
Q 13.140625 11.625 15.921875 11.625 
Q 18.609375 11.625 20.5 9.71875 
Q 22.40625 7.8125 22.40625 5.078125 
Q 22.40625 2.390625 20.5 0.484375 
Q 18.609375 -1.421875 15.921875 -1.421875 
Q 13.140625 -1.421875 11.28125 0.453125 
Q 9.421875 2.34375 9.421875 5.078125 
z
" id="DejaVuSerif-46"/>
      </defs>
      <g transform="translate(26.685 268.63673)scale(0.16 -0.16)">
       <use xlink:href="#DejaVuSerif-48"/>
       <use x="63.623047" xlink:href="#DejaVuSerif-46"/>
       <use x="95.410156" xlink:href="#DejaVuSerif-48"/>
      </g>
     </g>
    </g>
    <g id="ytick_2">
     <g id="line2d_8">
      <g>
       <use style="stroke:#000000;stroke-width:0.8;" x="59.13" xlink:href="#m503cb1ab17" y="214.834642"/>
      </g>
     </g>
     <g id="text_9">
      <!-- 0.2 -->
      <g transform="translate(26.685 220.913392)scale(0.16 -0.16)">
       <use xlink:href="#DejaVuSerif-48"/>
       <use x="63.623047" xlink:href="#DejaVuSerif-46"/>
       <use x="95.410156" xlink:href="#DejaVuSerif-50"/>
      </g>
     </g>
    </g>
    <g id="ytick_3">
     <g id="line2d_9">
      <g>
       <use style="stroke:#000000;stroke-width:0.8;" x="59.13" xlink:href="#m503cb1ab17" y="167.111303"/>
      </g>
     </g>
     <g id="text_10">
      <!-- 0.4 -->
      <g transform="translate(26.685 173.190053)scale(0.16 -0.16)">
       <use xlink:href="#DejaVuSerif-48"/>
       <use x="63.623047" xlink:href="#DejaVuSerif-46"/>
       <use x="95.410156" xlink:href="#DejaVuSerif-52"/>
      </g>
     </g>
    </g>
    <g id="ytick_4">
     <g id="line2d_10">
      <g>
       <use style="stroke:#000000;stroke-width:0.8;" x="59.13" xlink:href="#m503cb1ab17" y="119.387964"/>
      </g>
     </g>
     <g id="text_11">
      <!-- 0.6 -->
      <defs>
       <path d="M 32.71875 3.421875 
Q 39.59375 3.421875 43.296875 8.46875 
Q 47.015625 13.53125 47.015625 23 
Q 47.015625 32.46875 43.296875 37.515625 
Q 39.59375 42.578125 32.71875 42.578125 
Q 25.734375 42.578125 22.0625 37.6875 
Q 18.40625 32.8125 18.40625 23.578125 
Q 18.40625 13.875 22.109375 8.640625 
Q 25.828125 3.421875 32.71875 3.421875 
z
M 16.796875 40.140625 
Q 20.125 43.796875 24.3125 45.59375 
Q 28.515625 47.40625 33.796875 47.40625 
Q 44.671875 47.40625 51 40.859375 
Q 57.328125 34.328125 57.328125 23 
Q 57.328125 11.921875 50.515625 5.25 
Q 43.703125 -1.421875 32.328125 -1.421875 
Q 19.96875 -1.421875 13.328125 7.78125 
Q 6.6875 17 6.6875 34.078125 
Q 6.6875 53.21875 14.546875 63.71875 
Q 22.40625 74.21875 36.71875 74.21875 
Q 40.578125 74.21875 44.828125 73.484375 
Q 49.078125 72.75 53.515625 71.296875 
L 53.515625 59.28125 
L 48 59.28125 
Q 47.40625 64.203125 44.234375 66.796875 
Q 41.0625 69.390625 35.6875 69.390625 
Q 26.21875 69.390625 21.578125 62.203125 
Q 16.9375 55.03125 16.796875 40.140625 
z
" id="DejaVuSerif-54"/>
      </defs>
      <g transform="translate(26.685 125.466714)scale(0.16 -0.16)">
       <use xlink:href="#DejaVuSerif-48"/>
       <use x="63.623047" xlink:href="#DejaVuSerif-46"/>
       <use x="95.410156" xlink:href="#DejaVuSerif-54"/>
      </g>
     </g>
    </g>
    <g id="ytick_5">
     <g id="line2d_11">
      <g>
       <use style="stroke:#000000;stroke-width:0.8;" x="59.13" xlink:href="#m503cb1ab17" y="71.664625"/>
      </g>
     </g>
     <g id="text_12">
      <!-- 0.8 -->
      <defs>
       <path d="M 46.578125 19.921875 
Q 46.578125 27.734375 42.6875 32.046875 
Q 38.8125 36.375 31.78125 36.375 
Q 24.75 36.375 20.875 32.046875 
Q 17 27.734375 17 19.921875 
Q 17 12.0625 20.875 7.734375 
Q 24.75 3.421875 31.78125 3.421875 
Q 38.8125 3.421875 42.6875 7.734375 
Q 46.578125 12.0625 46.578125 19.921875 
z
M 44.578125 55.328125 
Q 44.578125 61.96875 41.203125 65.671875 
Q 37.84375 69.390625 31.78125 69.390625 
Q 25.78125 69.390625 22.390625 65.671875 
Q 19 61.96875 19 55.328125 
Q 19 48.640625 22.390625 44.921875 
Q 25.78125 41.21875 31.78125 41.21875 
Q 37.84375 41.21875 41.203125 44.921875 
Q 44.578125 48.640625 44.578125 55.328125 
z
M 39.3125 38.8125 
Q 47.609375 37.703125 52.25 32.6875 
Q 56.890625 27.6875 56.890625 19.921875 
Q 56.890625 9.671875 50.390625 4.125 
Q 43.890625 -1.421875 31.78125 -1.421875 
Q 19.734375 -1.421875 13.203125 4.125 
Q 6.6875 9.671875 6.6875 19.921875 
Q 6.6875 27.6875 11.328125 32.6875 
Q 15.96875 37.703125 24.3125 38.8125 
Q 16.9375 40.140625 13 44.40625 
Q 9.078125 48.6875 9.078125 55.328125 
Q 9.078125 64.109375 15.125 69.15625 
Q 21.1875 74.21875 31.78125 74.21875 
Q 42.390625 74.21875 48.4375 69.15625 
Q 54.5 64.109375 54.5 55.328125 
Q 54.5 48.6875 50.5625 44.40625 
Q 46.625 40.140625 39.3125 38.8125 
z
" id="DejaVuSerif-56"/>
      </defs>
      <g transform="translate(26.685 77.743375)scale(0.16 -0.16)">
       <use xlink:href="#DejaVuSerif-48"/>
       <use x="63.623047" xlink:href="#DejaVuSerif-46"/>
       <use x="95.410156" xlink:href="#DejaVuSerif-56"/>
      </g>
     </g>
    </g>
    <g id="ytick_6">
     <g id="line2d_12">
      <g>
       <use style="stroke:#000000;stroke-width:0.8;" x="59.13" xlink:href="#m503cb1ab17" y="23.941286"/>
      </g>
     </g>
     <g id="text_13">
      <!-- 1.0 -->
      <g transform="translate(26.685 30.020036)scale(0.16 -0.16)">
       <use xlink:href="#DejaVuSerif-49"/>
       <use x="63.623047" xlink:href="#DejaVuSerif-46"/>
       <use x="95.410156" xlink:href="#DejaVuSerif-48"/>
      </g>
     </g>
    </g>
    <g id="text_14">
     <!-- $MF_d$ -->
     <defs>
      <path d="M 5.078125 0 
Q 4.109375 0 4.109375 1.3125 
Q 4.15625 1.5625 4.296875 2.140625 
Q 4.4375 2.734375 4.6875 3.125 
Q 4.9375 3.515625 5.421875 3.515625 
Q 14.9375 3.515625 16.5 9.625 
L 29.5 61.8125 
Q 29.6875 62.796875 29.6875 63.1875 
Q 29.6875 64.265625 28.515625 64.40625 
Q 26.609375 64.796875 21.296875 64.796875 
Q 20.3125 64.796875 20.3125 66.109375 
Q 20.359375 66.359375 20.5 66.96875 
Q 20.65625 67.578125 20.921875 67.9375 
Q 21.1875 68.3125 21.578125 68.3125 
L 39.203125 68.3125 
Q 40.328125 68.3125 40.484375 67.1875 
L 48.296875 9.90625 
L 84.71875 67.1875 
Q 85.40625 68.3125 86.625 68.3125 
L 103.609375 68.3125 
Q 104.59375 68.3125 104.59375 67 
Q 104.546875 66.75 104.390625 66.140625 
Q 104.25 65.53125 103.984375 65.15625 
Q 103.71875 64.796875 103.328125 64.796875 
Q 97.21875 64.796875 94.828125 64.109375 
Q 93.5 63.671875 92.921875 61.375 
L 79.203125 6.5 
Q 79 5.515625 79 5.078125 
Q 79 4.6875 79.125 4.421875 
Q 79.25 4.15625 79.46875 4.078125 
Q 79.6875 4 80.171875 3.90625 
Q 82.078125 3.515625 87.40625 3.515625 
Q 88.375 3.515625 88.375 2.203125 
Q 88.03125 0.78125 87.828125 0.390625 
Q 87.640625 0 86.71875 0 
L 60.59375 0 
Q 59.625 0 59.625 1.3125 
Q 59.671875 1.5625 59.8125 2.171875 
Q 59.96875 2.78125 60.234375 3.140625 
Q 60.5 3.515625 60.890625 3.515625 
Q 67 3.515625 69.390625 4.203125 
Q 70.703125 4.640625 71.296875 6.890625 
L 85.6875 64.796875 
L 45.3125 1.125 
Q 44.734375 0 43.3125 0 
Q 42.046875 0 41.890625 1.125 
L 33.40625 64.015625 
L 19.671875 9.1875 
Q 19.578125 8.9375 19.53125 8.5625 
Q 19.484375 8.203125 19.390625 7.71875 
Q 19.390625 5.125 21.65625 4.3125 
Q 23.921875 3.515625 27.203125 3.515625 
Q 28.21875 3.515625 28.21875 2.203125 
Q 27.875 0.875 27.65625 0.4375 
Q 27.4375 0 26.515625 0 
z
" id="Cmmi10-77"/>
      <path d="M 4.6875 0 
Q 3.71875 0 3.71875 1.3125 
Q 3.765625 1.5625 3.90625 2.171875 
Q 4.046875 2.78125 4.3125 3.140625 
Q 4.59375 3.515625 4.984375 3.515625 
Q 11.078125 3.515625 13.484375 4.203125 
Q 14.796875 4.640625 15.375 6.890625 
L 29.109375 61.8125 
Q 29.296875 62.796875 29.296875 63.1875 
Q 29.296875 64.265625 28.078125 64.40625 
Q 26.21875 64.796875 20.90625 64.796875 
Q 19.921875 64.796875 19.921875 66.109375 
Q 19.96875 66.359375 20.109375 66.96875 
Q 20.265625 67.578125 20.53125 67.9375 
Q 20.796875 68.3125 21.1875 68.3125 
L 74.03125 68.3125 
Q 75 68.3125 75 67 
L 72.609375 46.296875 
Q 72.609375 46 72.265625 45.703125 
Q 71.921875 45.40625 71.578125 45.40625 
L 70.703125 45.40625 
Q 69.671875 45.40625 69.671875 46.6875 
Q 70.3125 51.21875 70.3125 54.109375 
Q 70.3125 59.078125 68.15625 61.421875 
Q 66.015625 63.765625 62.734375 64.28125 
Q 59.46875 64.796875 53.71875 64.796875 
L 43.015625 64.796875 
Q 40.28125 64.796875 39.40625 64.328125 
Q 38.53125 63.875 37.796875 61.375 
L 31.390625 35.890625 
L 38.921875 35.890625 
Q 42.625 35.890625 44.921875 36.28125 
Q 47.21875 36.671875 48.734375 37.796875 
Q 50.25 38.921875 51.25 41.046875 
Q 52.25 43.171875 53.078125 46.6875 
Q 53.375 47.609375 54.109375 47.609375 
L 54.984375 47.609375 
Q 56 47.609375 56 46.296875 
L 49.90625 21.578125 
Q 49.46875 20.703125 48.875 20.703125 
L 48 20.703125 
Q 47.015625 20.703125 47.015625 22.015625 
Q 47.265625 23.046875 47.40625 23.734375 
Q 47.5625 24.421875 47.78125 25.703125 
Q 48 27 48 27.984375 
Q 48 30.859375 45.453125 31.640625 
Q 42.921875 32.421875 38.8125 32.421875 
L 30.609375 32.421875 
L 24.125 6.5 
Q 23.875 5.515625 23.875 5.515625 
Q 23.875 4.34375 24.609375 4.203125 
Q 27.203125 3.515625 34.8125 3.515625 
Q 35.796875 3.515625 35.796875 2.203125 
Q 35.453125 0.78125 35.25 0.390625 
Q 35.0625 0 34.078125 0 
z
" id="Cmmi10-70"/>
     </defs>
     <g transform="translate(19.3575 160.156)rotate(-90)scale(0.16 -0.16)">
      <use transform="translate(0 0.6875)" xlink:href="#Cmmi10-77"/>
      <use transform="translate(97.021484 0.6875)" xlink:href="#Cmmi10-70"/>
      <use transform="translate(161.328125 -16.31875)scale(0.7)" xlink:href="#Cmmi10-100"/>
     </g>
    </g>
   </g>
   <g id="patch_3">
    <path d="M 59.13 276.812 
L 59.13 10.7 
" style="fill:none;stroke:#000000;stroke-linecap:square;stroke-linejoin:miter;stroke-width:0.8;"/>
   </g>
   <g id="patch_4">
    <path d="M 416.25 276.812 
L 416.25 10.7 
" style="fill:none;stroke:#000000;stroke-linecap:square;stroke-linejoin:miter;stroke-width:0.8;"/>
   </g>
   <g id="patch_5">
    <path d="M 59.13 276.812 
L 416.25 276.812 
" style="fill:none;stroke:#000000;stroke-linecap:square;stroke-linejoin:miter;stroke-width:0.8;"/>
   </g>
   <g id="patch_6">
    <path d="M 59.13 10.7 
L 416.25 10.7 
" style="fill:none;stroke:#000000;stroke-linecap:square;stroke-linejoin:miter;stroke-width:0.8;"/>
   </g>
   <g id="legend_1">
    <g id="patch_7">
     <path d="M 308.5275 164.41 
L 405.05 164.41 
Q 408.25 164.41 408.25 161.21 
L 408.25 21.9 
Q 408.25 18.7 405.05 18.7 
L 308.5275 18.7 
Q 305.3275 18.7 305.3275 21.9 
L 305.3275 161.21 
Q 305.3275 164.41 308.5275 164.41 
z
" style="fill:#ffffff;opacity:0.8;stroke:#cccccc;stroke-linejoin:miter;"/>
    </g>
    <g id="PathCollection_7">
     <g>
      <use style="fill:#0072b2;stroke:#0072b2;" x="327.7275" xlink:href="#mbee8a3684a" y="33.0575"/>
     </g>
    </g>
    <g id="text_15">
     <!-- V=1 -->
     <defs>
      <path d="M 17.484375 67.671875 
L 39.015625 11.71875 
L 60.5 67.671875 
L 52.296875 67.671875 
L 52.296875 72.90625 
L 73.6875 72.90625 
L 73.6875 67.671875 
L 66.609375 67.671875 
L 40.578125 0 
L 32.171875 0 
L 6.296875 67.671875 
L -0.984375 67.671875 
L -0.984375 72.90625 
L 25.59375 72.90625 
L 25.59375 67.671875 
z
" id="DejaVuSerif-86"/>
      <path d="M 10.59375 45.21875 
L 73.1875 45.21875 
L 73.1875 37.40625 
L 10.59375 37.40625 
z
M 10.59375 25.296875 
L 73.1875 25.296875 
L 73.1875 17.484375 
L 10.59375 17.484375 
z
" id="DejaVuSerif-61"/>
     </defs>
     <g transform="translate(356.5275 37.2575)scale(0.16 -0.16)">
      <use xlink:href="#DejaVuSerif-86"/>
      <use x="72.216797" xlink:href="#DejaVuSerif-61"/>
      <use x="156.005859" xlink:href="#DejaVuSerif-49"/>
     </g>
    </g>
    <g id="PathCollection_8">
     <g>
      <use style="fill:#009e73;stroke:#009e73;" x="327.7275" xlink:href="#m7606edbcf0" y="56.5425"/>
     </g>
    </g>
    <g id="text_16">
     <!-- V=2 -->
     <g transform="translate(356.5275 60.7425)scale(0.16 -0.16)">
      <use xlink:href="#DejaVuSerif-86"/>
      <use x="72.216797" xlink:href="#DejaVuSerif-61"/>
      <use x="156.005859" xlink:href="#DejaVuSerif-50"/>
     </g>
    </g>
    <g id="PathCollection_9">
     <g>
      <use style="fill:#d55e00;stroke:#d55e00;" x="327.7275" xlink:href="#md431634149" y="80.0275"/>
     </g>
    </g>
    <g id="text_17">
     <!-- V=5 -->
     <g transform="translate(356.5275 84.2275)scale(0.16 -0.16)">
      <use xlink:href="#DejaVuSerif-86"/>
      <use x="72.216797" xlink:href="#DejaVuSerif-61"/>
      <use x="156.005859" xlink:href="#DejaVuSerif-53"/>
     </g>
    </g>
    <g id="PathCollection_10">
     <g>
      <use style="fill:#cc79a7;stroke:#cc79a7;" x="327.7275" xlink:href="#m42806ca5de" y="103.5125"/>
     </g>
    </g>
    <g id="text_18">
     <!-- V=10 -->
     <g transform="translate(356.5275 107.7125)scale(0.16 -0.16)">
      <use xlink:href="#DejaVuSerif-86"/>
      <use x="72.216797" xlink:href="#DejaVuSerif-61"/>
      <use x="156.005859" xlink:href="#DejaVuSerif-49"/>
      <use x="219.628906" xlink:href="#DejaVuSerif-48"/>
     </g>
    </g>
    <g id="PathCollection_11">
     <g>
      <use style="fill:#f0e442;stroke:#f0e442;" x="327.7275" xlink:href="#m1c6a4058fd" y="126.9975"/>
     </g>
    </g>
    <g id="text_19">
     <!-- V=25 -->
     <g transform="translate(356.5275 131.1975)scale(0.16 -0.16)">
      <use xlink:href="#DejaVuSerif-86"/>
      <use x="72.216797" xlink:href="#DejaVuSerif-61"/>
      <use x="156.005859" xlink:href="#DejaVuSerif-50"/>
      <use x="219.628906" xlink:href="#DejaVuSerif-53"/>
     </g>
    </g>
    <g id="PathCollection_12">
     <g>
      <use style="fill:#56b4e9;stroke:#56b4e9;" x="327.7275" xlink:href="#m8c01b04020" y="150.4825"/>
     </g>
    </g>
    <g id="text_20">
     <!-- V=50 -->
     <g transform="translate(356.5275 154.6825)scale(0.16 -0.16)">
      <use xlink:href="#DejaVuSerif-86"/>
      <use x="72.216797" xlink:href="#DejaVuSerif-61"/>
      <use x="156.005859" xlink:href="#DejaVuSerif-53"/>
      <use x="219.628906" xlink:href="#DejaVuSerif-48"/>
     </g>
    </g>
   </g>
  </g>
 </g>
 <defs>
  <clipPath id="pb66cd09d34">
   <rect height="266.112" width="357.12" x="59.13" y="10.7"/>
  </clipPath>
 </defs>
</svg>
