<?xml version="1.0" encoding="utf-8" standalone="no"?>
<!DOCTYPE svg PUBLIC "-//W3C//DTD SVG 1.1//EN"
  "http://www.w3.org/Graphics/SVG/1.1/DTD/svg11.dtd">
<!-- Created with matplotlib (https://matplotlib.org/) -->
<svg height="320.530125pt" version="1.1" viewBox="0 0 421.405 320.530125" width="421.405pt" xmlns="http://www.w3.org/2000/svg" xmlns:xlink="http://www.w3.org/1999/xlink">
 <defs>
  <style type="text/css">
*{stroke-linecap:butt;stroke-linejoin:round;}
  </style>
 </defs>
 <g id="figure_1">
  <g id="patch_1">
   <path d="M 0 320.530125 
L 421.405 320.530125 
L 421.405 0 
L 0 0 
z
" style="fill:#ffffff;"/>
  </g>
  <g id="axes_1">
   <g id="patch_2">
    <path d="M 53.585 276.812 
L 410.705 276.812 
L 410.705 10.7 
L 53.585 10.7 
z
" style="fill:#ffffff;"/>
   </g>
   <g id="PathCollection_1">
    <defs>
     <path d="M 0 3 
C 0.795609 3 1.55874 2.683901 2.12132 2.12132 
C 2.683901 1.55874 3 0.795609 3 0 
C 3 -0.795609 2.683901 -1.55874 2.12132 -2.12132 
C 1.55874 -2.683901 0.795609 -3 0 -3 
C -0.795609 -3 -1.55874 -2.683901 -2.12132 -2.12132 
C -2.683901 -1.55874 -3 -0.795609 -3 0 
C -3 0.795609 -2.683901 1.55874 -2.12132 2.12132 
C -1.55874 2.683901 -0.795609 3 0 3 
z
" id="ma662c2bc71" style="stroke:#0072b2;"/>
    </defs>
    <g clip-path="url(#p02b88f450d)">
     <use style="fill:#0072b2;stroke:#0072b2;" x="69.830817" xlink:href="#ma662c2bc71" y="44.339336"/>
     <use style="fill:#0072b2;stroke:#0072b2;" x="71.995006" xlink:href="#ma662c2bc71" y="249.782531"/>
     <use style="fill:#0072b2;stroke:#0072b2;" x="74.159195" xlink:href="#ma662c2bc71" y="302.535797"/>
     <use style="fill:#0072b2;stroke:#0072b2;" x="76.323384" xlink:href="#ma662c2bc71" y="299.95494"/>
     <use style="fill:#0072b2;stroke:#0072b2;" x="78.487574" xlink:href="#ma662c2bc71" y="384.071007"/>
     <use style="fill:#0072b2;stroke:#0072b2;" x="80.651763" xlink:href="#ma662c2bc71" y="372.607117"/>
     <use style="fill:#0072b2;stroke:#0072b2;" x="82.815952" xlink:href="#ma662c2bc71" y="453.813895"/>
     <use style="fill:#0072b2;stroke:#0072b2;" x="84.980141" xlink:href="#ma662c2bc71" y="536.980527"/>
     <use style="fill:#0072b2;stroke:#0072b2;" x="87.14433" xlink:href="#ma662c2bc71" y="402.200622"/>
     <use style="fill:#0072b2;stroke:#0072b2;" x="89.308519" xlink:href="#ma662c2bc71" y="431.155646"/>
     <use style="fill:#0072b2;stroke:#0072b2;" x="91.472708" xlink:href="#ma662c2bc71" y="457.398959"/>
     <use style="fill:#0072b2;stroke:#0072b2;" x="93.636897" xlink:href="#ma662c2bc71" y="537.344947"/>
     <use style="fill:#0072b2;stroke:#0072b2;" x="95.801086" xlink:href="#ma662c2bc71" y="558.318447"/>
     <use style="fill:#0072b2;stroke:#0072b2;" x="97.965275" xlink:href="#ma662c2bc71" y="549.392929"/>
     <use style="fill:#0072b2;stroke:#0072b2;" x="100.129465" xlink:href="#ma662c2bc71" y="716.28467"/>
     <use style="fill:#0072b2;stroke:#0072b2;" x="102.293654" xlink:href="#ma662c2bc71" y="520.385921"/>
     <use style="fill:#0072b2;stroke:#0072b2;" x="104.457843" xlink:href="#ma662c2bc71" y="768.341127"/>
     <use style="fill:#0072b2;stroke:#0072b2;" x="106.622032" xlink:href="#ma662c2bc71" y="598.884214"/>
     <use style="fill:#0072b2;stroke:#0072b2;" x="108.786221" xlink:href="#ma662c2bc71" y="569.811254"/>
     <use style="fill:#0072b2;stroke:#0072b2;" x="110.95041" xlink:href="#ma662c2bc71" y="751.206603"/>
     <use style="fill:#0072b2;stroke:#0072b2;" x="113.114599" xlink:href="#ma662c2bc71" y="765.636259"/>
     <use style="fill:#0072b2;stroke:#0072b2;" x="115.278788" xlink:href="#ma662c2bc71" y="804.43706"/>
     <use style="fill:#0072b2;stroke:#0072b2;" x="117.442977" xlink:href="#ma662c2bc71" y="948.06376"/>
     <use style="fill:#0072b2;stroke:#0072b2;" x="119.607167" xlink:href="#ma662c2bc71" y="1077.620155"/>
     <use style="fill:#0072b2;stroke:#0072b2;" x="121.771356" xlink:href="#ma662c2bc71" y="558.408573"/>
     <use style="fill:#0072b2;stroke:#0072b2;" x="123.935545" xlink:href="#ma662c2bc71" y="593.85878"/>
     <use style="fill:#0072b2;stroke:#0072b2;" x="126.099734" xlink:href="#ma662c2bc71" y="806.576071"/>
     <use style="fill:#0072b2;stroke:#0072b2;" x="128.263923" xlink:href="#ma662c2bc71" y="725.083614"/>
     <use style="fill:#0072b2;stroke:#0072b2;" x="130.428112" xlink:href="#ma662c2bc71" y="691.75563"/>
     <use style="fill:#0072b2;stroke:#0072b2;" x="132.592301" xlink:href="#ma662c2bc71" y="693.936931"/>
     <use style="fill:#0072b2;stroke:#0072b2;" x="134.75649" xlink:href="#ma662c2bc71" y="845.723234"/>
     <use style="fill:#0072b2;stroke:#0072b2;" x="136.920679" xlink:href="#ma662c2bc71" y="922.352773"/>
     <use style="fill:#0072b2;stroke:#0072b2;" x="139.084868" xlink:href="#ma662c2bc71" y="778.417555"/>
     <use style="fill:#0072b2;stroke:#0072b2;" x="141.249058" xlink:href="#ma662c2bc71" y="953.19016"/>
     <use style="fill:#0072b2;stroke:#0072b2;" x="143.413247" xlink:href="#ma662c2bc71" y="864.486697"/>
     <use style="fill:#0072b2;stroke:#0072b2;" x="145.577436" xlink:href="#ma662c2bc71" y="778.671758"/>
     <use style="fill:#0072b2;stroke:#0072b2;" x="147.741625" xlink:href="#ma662c2bc71" y="861.423872"/>
     <use style="fill:#0072b2;stroke:#0072b2;" x="149.905814" xlink:href="#ma662c2bc71" y="942.103348"/>
     <use style="fill:#0072b2;stroke:#0072b2;" x="152.070003" xlink:href="#ma662c2bc71" y="809.994268"/>
     <use style="fill:#0072b2;stroke:#0072b2;" x="154.234192" xlink:href="#ma662c2bc71" y="838.075275"/>
     <use style="fill:#0072b2;stroke:#0072b2;" x="156.398381" xlink:href="#ma662c2bc71" y="811.293899"/>
     <use style="fill:#0072b2;stroke:#0072b2;" x="158.56257" xlink:href="#ma662c2bc71" y="750.255555"/>
     <use style="fill:#0072b2;stroke:#0072b2;" x="160.72676" xlink:href="#ma662c2bc71" y="1006.773804"/>
     <use style="fill:#0072b2;stroke:#0072b2;" x="162.890949" xlink:href="#ma662c2bc71" y="722.962847"/>
     <use style="fill:#0072b2;stroke:#0072b2;" x="165.055138" xlink:href="#ma662c2bc71" y="1151.503486"/>
     <use style="fill:#0072b2;stroke:#0072b2;" x="167.219327" xlink:href="#ma662c2bc71" y="724.399055"/>
     <use style="fill:#0072b2;stroke:#0072b2;" x="169.383516" xlink:href="#ma662c2bc71" y="811.114719"/>
     <use style="fill:#0072b2;stroke:#0072b2;" x="171.547705" xlink:href="#ma662c2bc71" y="733.436145"/>
     <use style="fill:#0072b2;stroke:#0072b2;" x="173.711894" xlink:href="#ma662c2bc71" y="786.365561"/>
     <use style="fill:#0072b2;stroke:#0072b2;" x="175.876083" xlink:href="#ma662c2bc71" y="750.481187"/>
     <use style="fill:#0072b2;stroke:#0072b2;" x="178.040272" xlink:href="#ma662c2bc71" y="1129.760934"/>
     <use style="fill:#0072b2;stroke:#0072b2;" x="180.204461" xlink:href="#ma662c2bc71" y="919.44105"/>
     <use style="fill:#0072b2;stroke:#0072b2;" x="182.368651" xlink:href="#ma662c2bc71" y="887.797507"/>
     <use style="fill:#0072b2;stroke:#0072b2;" x="184.53284" xlink:href="#ma662c2bc71" y="875.854079"/>
     <use style="fill:#0072b2;stroke:#0072b2;" x="186.697029" xlink:href="#ma662c2bc71" y="853.65535"/>
     <use style="fill:#0072b2;stroke:#0072b2;" x="188.861218" xlink:href="#ma662c2bc71" y="953.956941"/>
     <use style="fill:#0072b2;stroke:#0072b2;" x="191.025407" xlink:href="#ma662c2bc71" y="842.478198"/>
     <use style="fill:#0072b2;stroke:#0072b2;" x="193.189596" xlink:href="#ma662c2bc71" y="877.871098"/>
     <use style="fill:#0072b2;stroke:#0072b2;" x="195.353785" xlink:href="#ma662c2bc71" y="871.742707"/>
     <use style="fill:#0072b2;stroke:#0072b2;" x="197.517974" xlink:href="#ma662c2bc71" y="1034.214772"/>
     <use style="fill:#0072b2;stroke:#0072b2;" x="199.682163" xlink:href="#ma662c2bc71" y="848.827291"/>
     <use style="fill:#0072b2;stroke:#0072b2;" x="201.846353" xlink:href="#ma662c2bc71" y="971.759767"/>
     <use style="fill:#0072b2;stroke:#0072b2;" x="204.010542" xlink:href="#ma662c2bc71" y="993.279892"/>
     <use style="fill:#0072b2;stroke:#0072b2;" x="206.174731" xlink:href="#ma662c2bc71" y="726.517966"/>
     <use style="fill:#0072b2;stroke:#0072b2;" x="208.33892" xlink:href="#ma662c2bc71" y="1075.19562"/>
     <use style="fill:#0072b2;stroke:#0072b2;" x="210.503109" xlink:href="#ma662c2bc71" y="834.132673"/>
     <use style="fill:#0072b2;stroke:#0072b2;" x="212.667298" xlink:href="#ma662c2bc71" y="745.934751"/>
     <use style="fill:#0072b2;stroke:#0072b2;" x="214.831487" xlink:href="#ma662c2bc71" y="783.146754"/>
     <use style="fill:#0072b2;stroke:#0072b2;" x="216.995676" xlink:href="#ma662c2bc71" y="1211.133002"/>
     <use style="fill:#0072b2;stroke:#0072b2;" x="219.159865" xlink:href="#ma662c2bc71" y="786.59312"/>
     <use style="fill:#0072b2;stroke:#0072b2;" x="221.324054" xlink:href="#ma662c2bc71" y="883.808524"/>
     <use style="fill:#0072b2;stroke:#0072b2;" x="223.488244" xlink:href="#ma662c2bc71" y="762.48148"/>
     <use style="fill:#0072b2;stroke:#0072b2;" x="225.652433" xlink:href="#ma662c2bc71" y="838.234765"/>
     <use style="fill:#0072b2;stroke:#0072b2;" x="227.816622" xlink:href="#ma662c2bc71" y="873.566812"/>
     <use style="fill:#0072b2;stroke:#0072b2;" x="229.980811" xlink:href="#ma662c2bc71" y="897.129901"/>
     <use style="fill:#0072b2;stroke:#0072b2;" x="232.145" xlink:href="#ma662c2bc71" y="707.902914"/>
     <use style="fill:#0072b2;stroke:#0072b2;" x="234.309189" xlink:href="#ma662c2bc71" y="899.604747"/>
     <use style="fill:#0072b2;stroke:#0072b2;" x="236.473378" xlink:href="#ma662c2bc71" y="891.532348"/>
     <use style="fill:#0072b2;stroke:#0072b2;" x="238.637567" xlink:href="#ma662c2bc71" y="755.80335"/>
     <use style="fill:#0072b2;stroke:#0072b2;" x="240.801756" xlink:href="#ma662c2bc71" y="788.771945"/>
     <use style="fill:#0072b2;stroke:#0072b2;" x="242.965946" xlink:href="#ma662c2bc71" y="889.321391"/>
     <use style="fill:#0072b2;stroke:#0072b2;" x="245.130135" xlink:href="#ma662c2bc71" y="877.881366"/>
     <use style="fill:#0072b2;stroke:#0072b2;" x="247.294324" xlink:href="#ma662c2bc71" y="999.203053"/>
     <use style="fill:#0072b2;stroke:#0072b2;" x="249.458513" xlink:href="#ma662c2bc71" y="754.056136"/>
     <use style="fill:#0072b2;stroke:#0072b2;" x="251.622702" xlink:href="#ma662c2bc71" y="750.148893"/>
     <use style="fill:#0072b2;stroke:#0072b2;" x="253.786891" xlink:href="#ma662c2bc71" y="925.426498"/>
     <use style="fill:#0072b2;stroke:#0072b2;" x="255.95108" xlink:href="#ma662c2bc71" y="888.17593"/>
     <use style="fill:#0072b2;stroke:#0072b2;" x="258.115269" xlink:href="#ma662c2bc71" y="934.638322"/>
     <use style="fill:#0072b2;stroke:#0072b2;" x="260.279458" xlink:href="#ma662c2bc71" y="957.595598"/>
     <use style="fill:#0072b2;stroke:#0072b2;" x="262.443647" xlink:href="#ma662c2bc71" y="814.506088"/>
     <use style="fill:#0072b2;stroke:#0072b2;" x="264.607837" xlink:href="#ma662c2bc71" y="699.47294"/>
     <use style="fill:#0072b2;stroke:#0072b2;" x="266.772026" xlink:href="#ma662c2bc71" y="832.438809"/>
     <use style="fill:#0072b2;stroke:#0072b2;" x="268.936215" xlink:href="#ma662c2bc71" y="768.115172"/>
     <use style="fill:#0072b2;stroke:#0072b2;" x="271.100404" xlink:href="#ma662c2bc71" y="871.335868"/>
     <use style="fill:#0072b2;stroke:#0072b2;" x="273.264593" xlink:href="#ma662c2bc71" y="889.336365"/>
     <use style="fill:#0072b2;stroke:#0072b2;" x="275.428782" xlink:href="#ma662c2bc71" y="1025.224169"/>
     <use style="fill:#0072b2;stroke:#0072b2;" x="277.592971" xlink:href="#ma662c2bc71" y="704.855971"/>
     <use style="fill:#0072b2;stroke:#0072b2;" x="279.75716" xlink:href="#ma662c2bc71" y="908.221631"/>
     <use style="fill:#0072b2;stroke:#0072b2;" x="281.921349" xlink:href="#ma662c2bc71" y="864.152525"/>
     <use style="fill:#0072b2;stroke:#0072b2;" x="284.085539" xlink:href="#ma662c2bc71" y="874.545042"/>
     <use style="fill:#0072b2;stroke:#0072b2;" x="286.249728" xlink:href="#ma662c2bc71" y="910.480274"/>
     <use style="fill:#0072b2;stroke:#0072b2;" x="288.413917" xlink:href="#ma662c2bc71" y="1012.83217"/>
     <use style="fill:#0072b2;stroke:#0072b2;" x="290.578106" xlink:href="#ma662c2bc71" y="885.581459"/>
     <use style="fill:#0072b2;stroke:#0072b2;" x="292.742295" xlink:href="#ma662c2bc71" y="892.236387"/>
     <use style="fill:#0072b2;stroke:#0072b2;" x="294.906484" xlink:href="#ma662c2bc71" y="720.620641"/>
     <use style="fill:#0072b2;stroke:#0072b2;" x="297.070673" xlink:href="#ma662c2bc71" y="1118.826123"/>
     <use style="fill:#0072b2;stroke:#0072b2;" x="299.234862" xlink:href="#ma662c2bc71" y="765.550192"/>
     <use style="fill:#0072b2;stroke:#0072b2;" x="301.399051" xlink:href="#ma662c2bc71" y="790.1876"/>
     <use style="fill:#0072b2;stroke:#0072b2;" x="303.56324" xlink:href="#ma662c2bc71" y="781.840985"/>
     <use style="fill:#0072b2;stroke:#0072b2;" x="305.72743" xlink:href="#ma662c2bc71" y="957.918815"/>
     <use style="fill:#0072b2;stroke:#0072b2;" x="307.891619" xlink:href="#ma662c2bc71" y="1064.1098"/>
     <use style="fill:#0072b2;stroke:#0072b2;" x="310.055808" xlink:href="#ma662c2bc71" y="725.767426"/>
     <use style="fill:#0072b2;stroke:#0072b2;" x="312.219997" xlink:href="#ma662c2bc71" y="953.862089"/>
     <use style="fill:#0072b2;stroke:#0072b2;" x="314.384186" xlink:href="#ma662c2bc71" y="943.768243"/>
     <use style="fill:#0072b2;stroke:#0072b2;" x="316.548375" xlink:href="#ma662c2bc71" y="802.061293"/>
     <use style="fill:#0072b2;stroke:#0072b2;" x="318.712564" xlink:href="#ma662c2bc71" y="790.620424"/>
     <use style="fill:#0072b2;stroke:#0072b2;" x="320.876753" xlink:href="#ma662c2bc71" y="824.279719"/>
     <use style="fill:#0072b2;stroke:#0072b2;" x="323.040942" xlink:href="#ma662c2bc71" y="854.231813"/>
     <use style="fill:#0072b2;stroke:#0072b2;" x="325.205132" xlink:href="#ma662c2bc71" y="845.421667"/>
     <use style="fill:#0072b2;stroke:#0072b2;" x="327.369321" xlink:href="#ma662c2bc71" y="998.939053"/>
     <use style="fill:#0072b2;stroke:#0072b2;" x="329.53351" xlink:href="#ma662c2bc71" y="840.875109"/>
     <use style="fill:#0072b2;stroke:#0072b2;" x="331.697699" xlink:href="#ma662c2bc71" y="825.482778"/>
     <use style="fill:#0072b2;stroke:#0072b2;" x="333.861888" xlink:href="#ma662c2bc71" y="783.280101"/>
     <use style="fill:#0072b2;stroke:#0072b2;" x="336.026077" xlink:href="#ma662c2bc71" y="909.660529"/>
     <use style="fill:#0072b2;stroke:#0072b2;" x="338.190266" xlink:href="#ma662c2bc71" y="1059.048553"/>
     <use style="fill:#0072b2;stroke:#0072b2;" x="340.354455" xlink:href="#ma662c2bc71" y="720.032983"/>
     <use style="fill:#0072b2;stroke:#0072b2;" x="342.518644" xlink:href="#ma662c2bc71" y="880.744005"/>
     <use style="fill:#0072b2;stroke:#0072b2;" x="344.682833" xlink:href="#ma662c2bc71" y="742.111896"/>
     <use style="fill:#0072b2;stroke:#0072b2;" x="346.847023" xlink:href="#ma662c2bc71" y="852.312449"/>
     <use style="fill:#0072b2;stroke:#0072b2;" x="349.011212" xlink:href="#ma662c2bc71" y="795.086889"/>
     <use style="fill:#0072b2;stroke:#0072b2;" x="351.175401" xlink:href="#ma662c2bc71" y="928.811984"/>
     <use style="fill:#0072b2;stroke:#0072b2;" x="353.33959" xlink:href="#ma662c2bc71" y="743.780403"/>
     <use style="fill:#0072b2;stroke:#0072b2;" x="355.503779" xlink:href="#ma662c2bc71" y="830.893579"/>
     <use style="fill:#0072b2;stroke:#0072b2;" x="357.667968" xlink:href="#ma662c2bc71" y="873.073957"/>
     <use style="fill:#0072b2;stroke:#0072b2;" x="359.832157" xlink:href="#ma662c2bc71" y="722.387876"/>
     <use style="fill:#0072b2;stroke:#0072b2;" x="361.996346" xlink:href="#ma662c2bc71" y="765.471201"/>
     <use style="fill:#0072b2;stroke:#0072b2;" x="364.160535" xlink:href="#ma662c2bc71" y="941.231537"/>
     <use style="fill:#0072b2;stroke:#0072b2;" x="366.324725" xlink:href="#ma662c2bc71" y="706.741117"/>
     <use style="fill:#0072b2;stroke:#0072b2;" x="368.488914" xlink:href="#ma662c2bc71" y="814.893626"/>
     <use style="fill:#0072b2;stroke:#0072b2;" x="370.653103" xlink:href="#ma662c2bc71" y="860.650415"/>
     <use style="fill:#0072b2;stroke:#0072b2;" x="372.817292" xlink:href="#ma662c2bc71" y="745.23185"/>
     <use style="fill:#0072b2;stroke:#0072b2;" x="374.981481" xlink:href="#ma662c2bc71" y="865.81532"/>
     <use style="fill:#0072b2;stroke:#0072b2;" x="377.14567" xlink:href="#ma662c2bc71" y="965.261497"/>
     <use style="fill:#0072b2;stroke:#0072b2;" x="379.309859" xlink:href="#ma662c2bc71" y="767.797838"/>
     <use style="fill:#0072b2;stroke:#0072b2;" x="381.474048" xlink:href="#ma662c2bc71" y="793.063628"/>
     <use style="fill:#0072b2;stroke:#0072b2;" x="383.638237" xlink:href="#ma662c2bc71" y="984.489532"/>
     <use style="fill:#0072b2;stroke:#0072b2;" x="385.802426" xlink:href="#ma662c2bc71" y="929.589312"/>
     <use style="fill:#0072b2;stroke:#0072b2;" x="387.966616" xlink:href="#ma662c2bc71" y="1051.441347"/>
     <use style="fill:#0072b2;stroke:#0072b2;" x="390.130805" xlink:href="#ma662c2bc71" y="959.690706"/>
     <use style="fill:#0072b2;stroke:#0072b2;" x="392.294994" xlink:href="#ma662c2bc71" y="1108.56213"/>
     <use style="fill:#0072b2;stroke:#0072b2;" x="394.459183" xlink:href="#ma662c2bc71" y="792.2695"/>
    </g>
   </g>
   <g id="matplotlib.axis_1">
    <g id="xtick_1">
     <g id="line2d_1">
      <defs>
       <path d="M 0 0 
L 0 3.5 
" id="m8dbd220bcb" style="stroke:#000000;stroke-width:0.8;"/>
      </defs>
      <g>
       <use style="stroke:#000000;stroke-width:0.8;" x="69.830817" xlink:href="#m8dbd220bcb" y="276.812"/>
      </g>
     </g>
     <g id="text_1">
      <!-- 0 -->
      <defs>
       <path d="M 31.78125 3.421875 
Q 39.265625 3.421875 42.96875 11.625 
Q 46.6875 19.828125 46.6875 36.375 
Q 46.6875 52.984375 42.96875 61.1875 
Q 39.265625 69.390625 31.78125 69.390625 
Q 24.3125 69.390625 20.59375 61.1875 
Q 16.890625 52.984375 16.890625 36.375 
Q 16.890625 19.828125 20.59375 11.625 
Q 24.3125 3.421875 31.78125 3.421875 
z
M 31.78125 -1.421875 
Q 19.921875 -1.421875 13.25 8.53125 
Q 6.59375 18.5 6.59375 36.375 
Q 6.59375 54.296875 13.25 64.25 
Q 19.921875 74.21875 31.78125 74.21875 
Q 43.703125 74.21875 50.34375 64.25 
Q 56.984375 54.296875 56.984375 36.375 
Q 56.984375 18.5 50.34375 8.53125 
Q 43.703125 -1.421875 31.78125 -1.421875 
z
" id="DejaVuSerif-48"/>
      </defs>
      <g transform="translate(66.649567 291.410438)scale(0.1 -0.1)">
       <use xlink:href="#DejaVuSerif-48"/>
      </g>
     </g>
    </g>
    <g id="xtick_2">
     <g id="line2d_2">
      <g>
       <use style="stroke:#000000;stroke-width:0.8;" x="113.114599" xlink:href="#m8dbd220bcb" y="276.812"/>
      </g>
     </g>
     <g id="text_2">
      <!-- 20 -->
      <defs>
       <path d="M 12.796875 55.515625 
L 7.328125 55.515625 
L 7.328125 68.5 
Q 12.546875 71.296875 17.84375 72.75 
Q 23.140625 74.21875 28.21875 74.21875 
Q 39.59375 74.21875 46.1875 68.703125 
Q 52.78125 63.1875 52.78125 53.71875 
Q 52.78125 43.015625 37.84375 28.125 
Q 36.671875 27 36.078125 26.421875 
L 17.671875 8.015625 
L 48.09375 8.015625 
L 48.09375 17 
L 53.8125 17 
L 53.8125 0 
L 6.78125 0 
L 6.78125 5.328125 
L 28.90625 27.390625 
Q 36.234375 34.71875 39.359375 40.84375 
Q 42.484375 46.96875 42.484375 53.71875 
Q 42.484375 61.078125 38.640625 65.234375 
Q 34.8125 69.390625 28.078125 69.390625 
Q 21.09375 69.390625 17.28125 65.921875 
Q 13.484375 62.453125 12.796875 55.515625 
z
" id="DejaVuSerif-50"/>
      </defs>
      <g transform="translate(106.752099 291.410438)scale(0.1 -0.1)">
       <use xlink:href="#DejaVuSerif-50"/>
       <use x="63.623047" xlink:href="#DejaVuSerif-48"/>
      </g>
     </g>
    </g>
    <g id="xtick_3">
     <g id="line2d_3">
      <g>
       <use style="stroke:#000000;stroke-width:0.8;" x="156.398381" xlink:href="#m8dbd220bcb" y="276.812"/>
      </g>
     </g>
     <g id="text_3">
      <!-- 40 -->
      <defs>
       <path d="M 34.90625 24.703125 
L 34.90625 63.484375 
L 10.015625 24.703125 
z
M 56.390625 0 
L 23.1875 0 
L 23.1875 5.171875 
L 34.90625 5.171875 
L 34.90625 19.484375 
L 3.078125 19.484375 
L 3.078125 24.8125 
L 35.015625 74.21875 
L 44.671875 74.21875 
L 44.671875 24.703125 
L 58.59375 24.703125 
L 58.59375 19.484375 
L 44.671875 19.484375 
L 44.671875 5.171875 
L 56.390625 5.171875 
z
" id="DejaVuSerif-52"/>
      </defs>
      <g transform="translate(150.035881 291.410438)scale(0.1 -0.1)">
       <use xlink:href="#DejaVuSerif-52"/>
       <use x="63.623047" xlink:href="#DejaVuSerif-48"/>
      </g>
     </g>
    </g>
    <g id="xtick_4">
     <g id="line2d_4">
      <g>
       <use style="stroke:#000000;stroke-width:0.8;" x="199.682163" xlink:href="#m8dbd220bcb" y="276.812"/>
      </g>
     </g>
     <g id="text_4">
      <!-- 60 -->
      <defs>
       <path d="M 32.71875 3.421875 
Q 39.59375 3.421875 43.296875 8.46875 
Q 47.015625 13.53125 47.015625 23 
Q 47.015625 32.46875 43.296875 37.515625 
Q 39.59375 42.578125 32.71875 42.578125 
Q 25.734375 42.578125 22.0625 37.6875 
Q 18.40625 32.8125 18.40625 23.578125 
Q 18.40625 13.875 22.109375 8.640625 
Q 25.828125 3.421875 32.71875 3.421875 
z
M 16.796875 40.140625 
Q 20.125 43.796875 24.3125 45.59375 
Q 28.515625 47.40625 33.796875 47.40625 
Q 44.671875 47.40625 51 40.859375 
Q 57.328125 34.328125 57.328125 23 
Q 57.328125 11.921875 50.515625 5.25 
Q 43.703125 -1.421875 32.328125 -1.421875 
Q 19.96875 -1.421875 13.328125 7.78125 
Q 6.6875 17 6.6875 34.078125 
Q 6.6875 53.21875 14.546875 63.71875 
Q 22.40625 74.21875 36.71875 74.21875 
Q 40.578125 74.21875 44.828125 73.484375 
Q 49.078125 72.75 53.515625 71.296875 
L 53.515625 59.28125 
L 48 59.28125 
Q 47.40625 64.203125 44.234375 66.796875 
Q 41.0625 69.390625 35.6875 69.390625 
Q 26.21875 69.390625 21.578125 62.203125 
Q 16.9375 55.03125 16.796875 40.140625 
z
" id="DejaVuSerif-54"/>
      </defs>
      <g transform="translate(193.319663 291.410438)scale(0.1 -0.1)">
       <use xlink:href="#DejaVuSerif-54"/>
       <use x="63.623047" xlink:href="#DejaVuSerif-48"/>
      </g>
     </g>
    </g>
    <g id="xtick_5">
     <g id="line2d_5">
      <g>
       <use style="stroke:#000000;stroke-width:0.8;" x="242.965946" xlink:href="#m8dbd220bcb" y="276.812"/>
      </g>
     </g>
     <g id="text_5">
      <!-- 80 -->
      <defs>
       <path d="M 46.578125 19.921875 
Q 46.578125 27.734375 42.6875 32.046875 
Q 38.8125 36.375 31.78125 36.375 
Q 24.75 36.375 20.875 32.046875 
Q 17 27.734375 17 19.921875 
Q 17 12.0625 20.875 7.734375 
Q 24.75 3.421875 31.78125 3.421875 
Q 38.8125 3.421875 42.6875 7.734375 
Q 46.578125 12.0625 46.578125 19.921875 
z
M 44.578125 55.328125 
Q 44.578125 61.96875 41.203125 65.671875 
Q 37.84375 69.390625 31.78125 69.390625 
Q 25.78125 69.390625 22.390625 65.671875 
Q 19 61.96875 19 55.328125 
Q 19 48.640625 22.390625 44.921875 
Q 25.78125 41.21875 31.78125 41.21875 
Q 37.84375 41.21875 41.203125 44.921875 
Q 44.578125 48.640625 44.578125 55.328125 
z
M 39.3125 38.8125 
Q 47.609375 37.703125 52.25 32.6875 
Q 56.890625 27.6875 56.890625 19.921875 
Q 56.890625 9.671875 50.390625 4.125 
Q 43.890625 -1.421875 31.78125 -1.421875 
Q 19.734375 -1.421875 13.203125 4.125 
Q 6.6875 9.671875 6.6875 19.921875 
Q 6.6875 27.6875 11.328125 32.6875 
Q 15.96875 37.703125 24.3125 38.8125 
Q 16.9375 40.140625 13 44.40625 
Q 9.078125 48.6875 9.078125 55.328125 
Q 9.078125 64.109375 15.125 69.15625 
Q 21.1875 74.21875 31.78125 74.21875 
Q 42.390625 74.21875 48.4375 69.15625 
Q 54.5 64.109375 54.5 55.328125 
Q 54.5 48.6875 50.5625 44.40625 
Q 46.625 40.140625 39.3125 38.8125 
z
" id="DejaVuSerif-56"/>
      </defs>
      <g transform="translate(236.603446 291.410438)scale(0.1 -0.1)">
       <use xlink:href="#DejaVuSerif-56"/>
       <use x="63.623047" xlink:href="#DejaVuSerif-48"/>
      </g>
     </g>
    </g>
    <g id="xtick_6">
     <g id="line2d_6">
      <g>
       <use style="stroke:#000000;stroke-width:0.8;" x="286.249728" xlink:href="#m8dbd220bcb" y="276.812"/>
      </g>
     </g>
     <g id="text_6">
      <!-- 100 -->
      <defs>
       <path d="M 14.203125 0 
L 14.203125 5.171875 
L 26.90625 5.171875 
L 26.90625 65.828125 
L 12.203125 56.296875 
L 12.203125 62.703125 
L 29.984375 74.21875 
L 36.71875 74.21875 
L 36.71875 5.171875 
L 49.421875 5.171875 
L 49.421875 0 
z
" id="DejaVuSerif-49"/>
      </defs>
      <g transform="translate(276.705978 291.410438)scale(0.1 -0.1)">
       <use xlink:href="#DejaVuSerif-49"/>
       <use x="63.623047" xlink:href="#DejaVuSerif-48"/>
       <use x="127.246094" xlink:href="#DejaVuSerif-48"/>
      </g>
     </g>
    </g>
    <g id="xtick_7">
     <g id="line2d_7">
      <g>
       <use style="stroke:#000000;stroke-width:0.8;" x="329.53351" xlink:href="#m8dbd220bcb" y="276.812"/>
      </g>
     </g>
     <g id="text_7">
      <!-- 120 -->
      <g transform="translate(319.98976 291.410438)scale(0.1 -0.1)">
       <use xlink:href="#DejaVuSerif-49"/>
       <use x="63.623047" xlink:href="#DejaVuSerif-50"/>
       <use x="127.246094" xlink:href="#DejaVuSerif-48"/>
      </g>
     </g>
    </g>
    <g id="xtick_8">
     <g id="line2d_8">
      <g>
       <use style="stroke:#000000;stroke-width:0.8;" x="372.817292" xlink:href="#m8dbd220bcb" y="276.812"/>
      </g>
     </g>
     <g id="text_8">
      <!-- 140 -->
      <g transform="translate(363.273542 291.410438)scale(0.1 -0.1)">
       <use xlink:href="#DejaVuSerif-49"/>
       <use x="63.623047" xlink:href="#DejaVuSerif-52"/>
       <use x="127.246094" xlink:href="#DejaVuSerif-48"/>
      </g>
     </g>
    </g>
    <g id="text_9">
     <!-- Delay $d$ -->
     <defs>
      <path d="M 24.703125 5.171875 
L 33.796875 5.171875 
Q 48 5.171875 55.59375 13.28125 
Q 63.1875 21.390625 63.1875 36.53125 
Q 63.1875 51.65625 55.609375 59.65625 
Q 48.046875 67.671875 33.796875 67.671875 
L 24.703125 67.671875 
z
M 5.515625 0 
L 5.515625 5.171875 
L 14.796875 5.171875 
L 14.796875 67.671875 
L 5.515625 67.671875 
L 5.515625 72.90625 
L 34.515625 72.90625 
Q 53.375 72.90625 63.890625 63.28125 
Q 74.421875 53.65625 74.421875 36.53125 
Q 74.421875 19.34375 63.875 9.671875 
Q 53.328125 0 34.515625 0 
z
" id="DejaVuSerif-68"/>
      <path d="M 54.203125 25 
L 15.484375 25 
L 15.484375 24.609375 
Q 15.484375 14.109375 19.4375 8.765625 
Q 23.390625 3.421875 31.109375 3.421875 
Q 37.015625 3.421875 40.796875 6.515625 
Q 44.578125 9.625 46.09375 15.71875 
L 53.328125 15.71875 
Q 51.171875 7.171875 45.375 2.875 
Q 39.59375 -1.421875 30.171875 -1.421875 
Q 18.796875 -1.421875 11.890625 6.078125 
Q 4.984375 13.578125 4.984375 25.984375 
Q 4.984375 38.28125 11.765625 45.796875 
Q 18.5625 53.328125 29.59375 53.328125 
Q 41.359375 53.328125 47.65625 46.0625 
Q 53.953125 38.8125 54.203125 25 
z
M 43.609375 30.171875 
Q 43.3125 39.265625 39.765625 43.875 
Q 36.234375 48.484375 29.59375 48.484375 
Q 23.390625 48.484375 19.828125 43.84375 
Q 16.265625 39.203125 15.484375 30.171875 
z
" id="DejaVuSerif-101"/>
      <path d="M 20.515625 5.171875 
L 29 5.171875 
L 29 0 
L 2.875 0 
L 2.875 5.171875 
L 11.53125 5.171875 
L 11.53125 70.796875 
L 2.875 70.796875 
L 2.875 75.984375 
L 20.515625 75.984375 
z
" id="DejaVuSerif-108"/>
      <path d="M 39.796875 16.3125 
L 39.796875 27.296875 
L 28.21875 27.296875 
Q 21.53125 27.296875 18.25 24.40625 
Q 14.984375 21.53125 14.984375 15.578125 
Q 14.984375 10.15625 18.296875 6.984375 
Q 21.625 3.8125 27.296875 3.8125 
Q 32.90625 3.8125 36.34375 7.28125 
Q 39.796875 10.75 39.796875 16.3125 
z
M 48.78125 32.421875 
L 48.78125 5.171875 
L 56.78125 5.171875 
L 56.78125 0 
L 39.796875 0 
L 39.796875 5.609375 
Q 36.8125 2 32.90625 0.28125 
Q 29 -1.421875 23.78125 -1.421875 
Q 15.140625 -1.421875 10.0625 3.171875 
Q 4.984375 7.765625 4.984375 15.578125 
Q 4.984375 23.640625 10.796875 28.078125 
Q 16.609375 32.515625 27.203125 32.515625 
L 39.796875 32.515625 
L 39.796875 36.078125 
Q 39.796875 42 36.203125 45.234375 
Q 32.625 48.484375 26.125 48.484375 
Q 20.75 48.484375 17.578125 46.046875 
Q 14.40625 43.609375 13.625 38.8125 
L 8.984375 38.8125 
L 8.984375 49.3125 
Q 13.671875 51.3125 18.09375 52.3125 
Q 22.515625 53.328125 26.703125 53.328125 
Q 37.5 53.328125 43.140625 47.96875 
Q 48.78125 42.625 48.78125 32.421875 
z
" id="DejaVuSerif-97"/>
      <path d="M 21.578125 -9.515625 
L 25 -0.875 
L 5.609375 46.6875 
L -0.296875 46.6875 
L -0.296875 51.90625 
L 23.578125 51.90625 
L 23.578125 46.6875 
L 15.28125 46.6875 
L 29.890625 10.984375 
L 44.484375 46.6875 
L 36.71875 46.6875 
L 36.71875 51.90625 
L 56.203125 51.90625 
L 56.203125 46.6875 
L 50.390625 46.6875 
L 26.609375 -11.71875 
Q 24.171875 -17.78125 21.1875 -20 
Q 18.21875 -22.21875 12.796875 -22.21875 
Q 10.5 -22.21875 8.078125 -21.828125 
Q 5.671875 -21.4375 3.21875 -20.703125 
L 3.21875 -10.796875 
L 7.8125 -10.796875 
Q 8.109375 -14.109375 9.5 -15.546875 
Q 10.890625 -17 13.8125 -17 
Q 16.5 -17 18.140625 -15.5 
Q 19.78125 -14.015625 21.578125 -9.515625 
z
" id="DejaVuSerif-121"/>
      <path id="DejaVuSerif-32"/>
      <path d="M 17.390625 -1.125 
Q 11.078125 -1.125 7.4375 3.640625 
Q 3.8125 8.40625 3.8125 14.890625 
Q 3.8125 21.296875 7.125 28.171875 
Q 10.453125 35.0625 16.09375 39.625 
Q 21.734375 44.1875 28.21875 44.1875 
Q 31.15625 44.1875 33.515625 42.546875 
Q 35.890625 40.921875 37.203125 38.1875 
L 42.828125 60.5 
Q 43.21875 62.203125 43.3125 63.1875 
Q 43.3125 64.796875 36.8125 64.796875 
Q 35.796875 64.796875 35.796875 66.109375 
Q 35.84375 66.359375 36.015625 66.984375 
Q 36.1875 67.625 36.453125 67.96875 
Q 36.71875 68.3125 37.203125 68.3125 
L 50.6875 69.390625 
Q 51.90625 69.390625 51.90625 68.109375 
L 37.5 10.59375 
Q 36.8125 8.9375 36.8125 5.8125 
Q 36.8125 1.515625 39.703125 1.515625 
Q 42.828125 1.515625 44.453125 5.484375 
Q 46.09375 9.46875 47.21875 14.703125 
Q 47.40625 15.28125 48 15.28125 
L 49.21875 15.28125 
Q 49.609375 15.28125 49.84375 14.9375 
Q 50.09375 14.59375 50.09375 14.3125 
Q 48.34375 7.328125 46.265625 3.09375 
Q 44.1875 -1.125 39.5 -1.125 
Q 36.140625 -1.125 33.546875 0.84375 
Q 30.953125 2.828125 30.328125 6.109375 
Q 23.875 -1.125 17.390625 -1.125 
z
M 17.484375 1.515625 
Q 21.09375 1.515625 24.484375 4.21875 
Q 27.875 6.9375 30.328125 10.59375 
Q 30.421875 10.6875 30.421875 10.984375 
L 35.890625 33.015625 
Q 35.296875 36.53125 33.296875 39.0625 
Q 31.296875 41.609375 27.984375 41.609375 
Q 24.609375 41.609375 21.703125 38.84375 
Q 18.796875 36.078125 16.796875 32.328125 
Q 14.84375 28.328125 13.0625 21.34375 
Q 11.28125 14.359375 11.28125 10.5 
Q 11.28125 7.03125 12.765625 4.265625 
Q 14.265625 1.515625 17.484375 1.515625 
z
" id="Cmmi10-100"/>
     </defs>
     <g transform="translate(202.385 309.650125)scale(0.16 -0.16)">
      <use transform="translate(0 0.015625)" xlink:href="#DejaVuSerif-68"/>
      <use transform="translate(80.175781 0.015625)" xlink:href="#DejaVuSerif-101"/>
      <use transform="translate(139.355469 0.015625)" xlink:href="#DejaVuSerif-108"/>
      <use transform="translate(171.337891 0.015625)" xlink:href="#DejaVuSerif-97"/>
      <use transform="translate(230.957031 0.015625)" xlink:href="#DejaVuSerif-121"/>
      <use transform="translate(287.451172 0.015625)" xlink:href="#DejaVuSerif-32"/>
      <use transform="translate(319.238281 0.015625)" xlink:href="#Cmmi10-100"/>
     </g>
    </g>
   </g>
   <g id="matplotlib.axis_2">
    <g id="ytick_1">
     <g id="line2d_9">
      <defs>
       <path d="M 0 0 
L -3.5 0 
" id="m1dfdf5c2e4" style="stroke:#000000;stroke-width:0.8;"/>
      </defs>
      <g>
       <use style="stroke:#000000;stroke-width:0.8;" x="53.585" xlink:href="#m1dfdf5c2e4" y="264.716"/>
      </g>
     </g>
     <g id="text_10">
      <!-- $\mathdefault{10^{-1}}$ -->
      <defs>
       <path d="M 4.390625 30.609375 
L 29.390625 30.609375 
L 29.390625 23 
L 4.390625 23 
z
" id="DejaVuSerif-45"/>
      </defs>
      <g transform="translate(26.685 268.515219)scale(0.1 -0.1)">
       <use transform="translate(0 0.7125)" xlink:href="#DejaVuSerif-49"/>
       <use transform="translate(63.623047 0.7125)" xlink:href="#DejaVuSerif-48"/>
       <use transform="translate(128.154453 37.046875)scale(0.7)" xlink:href="#DejaVuSerif-45"/>
       <use transform="translate(151.806797 37.046875)scale(0.7)" xlink:href="#DejaVuSerif-49"/>
      </g>
     </g>
    </g>
    <g id="ytick_2">
     <g id="line2d_10">
      <g>
       <use style="stroke:#000000;stroke-width:0.8;" x="53.585" xlink:href="#m1dfdf5c2e4" y="22.796"/>
      </g>
     </g>
     <g id="text_11">
      <!-- $\mathdefault{10^{0}}$ -->
      <g transform="translate(28.985 26.595219)scale(0.1 -0.1)">
       <use transform="translate(0 0.7125)" xlink:href="#DejaVuSerif-49"/>
       <use transform="translate(63.623047 0.7125)" xlink:href="#DejaVuSerif-48"/>
       <use transform="translate(128.154453 37.046875)scale(0.7)" xlink:href="#DejaVuSerif-48"/>
      </g>
     </g>
    </g>
    <g id="ytick_3">
     <g id="line2d_11">
      <defs>
       <path d="M 0 0 
L -2 0 
" id="m5e1a5d2095" style="stroke:#000000;stroke-width:0.6;"/>
      </defs>
      <g>
       <use style="stroke:#000000;stroke-width:0.6;" x="53.585" xlink:href="#m5e1a5d2095" y="275.785652"/>
      </g>
     </g>
    </g>
    <g id="ytick_4">
     <g id="line2d_12">
      <g>
       <use style="stroke:#000000;stroke-width:0.6;" x="53.585" xlink:href="#m5e1a5d2095" y="191.890823"/>
      </g>
     </g>
    </g>
    <g id="ytick_5">
     <g id="line2d_13">
      <g>
       <use style="stroke:#000000;stroke-width:0.6;" x="53.585" xlink:href="#m5e1a5d2095" y="149.290826"/>
      </g>
     </g>
    </g>
    <g id="ytick_6">
     <g id="line2d_14">
      <g>
       <use style="stroke:#000000;stroke-width:0.6;" x="53.585" xlink:href="#m5e1a5d2095" y="119.065647"/>
      </g>
     </g>
    </g>
    <g id="ytick_7">
     <g id="line2d_15">
      <g>
       <use style="stroke:#000000;stroke-width:0.6;" x="53.585" xlink:href="#m5e1a5d2095" y="95.621177"/>
      </g>
     </g>
    </g>
    <g id="ytick_8">
     <g id="line2d_16">
      <g>
       <use style="stroke:#000000;stroke-width:0.6;" x="53.585" xlink:href="#m5e1a5d2095" y="76.46565"/>
      </g>
     </g>
    </g>
    <g id="ytick_9">
     <g id="line2d_17">
      <g>
       <use style="stroke:#000000;stroke-width:0.6;" x="53.585" xlink:href="#m5e1a5d2095" y="60.269882"/>
      </g>
     </g>
    </g>
    <g id="ytick_10">
     <g id="line2d_18">
      <g>
       <use style="stroke:#000000;stroke-width:0.6;" x="53.585" xlink:href="#m5e1a5d2095" y="46.24047"/>
      </g>
     </g>
    </g>
    <g id="ytick_11">
     <g id="line2d_19">
      <g>
       <use style="stroke:#000000;stroke-width:0.6;" x="53.585" xlink:href="#m5e1a5d2095" y="33.865652"/>
      </g>
     </g>
    </g>
    <g id="text_12">
     <!-- $MF_d$ -->
     <defs>
      <path d="M 5.078125 0 
Q 4.109375 0 4.109375 1.3125 
Q 4.15625 1.5625 4.296875 2.140625 
Q 4.4375 2.734375 4.6875 3.125 
Q 4.9375 3.515625 5.421875 3.515625 
Q 14.9375 3.515625 16.5 9.625 
L 29.5 61.8125 
Q 29.6875 62.796875 29.6875 63.1875 
Q 29.6875 64.265625 28.515625 64.40625 
Q 26.609375 64.796875 21.296875 64.796875 
Q 20.3125 64.796875 20.3125 66.109375 
Q 20.359375 66.359375 20.5 66.96875 
Q 20.65625 67.578125 20.921875 67.9375 
Q 21.1875 68.3125 21.578125 68.3125 
L 39.203125 68.3125 
Q 40.328125 68.3125 40.484375 67.1875 
L 48.296875 9.90625 
L 84.71875 67.1875 
Q 85.40625 68.3125 86.625 68.3125 
L 103.609375 68.3125 
Q 104.59375 68.3125 104.59375 67 
Q 104.546875 66.75 104.390625 66.140625 
Q 104.25 65.53125 103.984375 65.15625 
Q 103.71875 64.796875 103.328125 64.796875 
Q 97.21875 64.796875 94.828125 64.109375 
Q 93.5 63.671875 92.921875 61.375 
L 79.203125 6.5 
Q 79 5.515625 79 5.078125 
Q 79 4.6875 79.125 4.421875 
Q 79.25 4.15625 79.46875 4.078125 
Q 79.6875 4 80.171875 3.90625 
Q 82.078125 3.515625 87.40625 3.515625 
Q 88.375 3.515625 88.375 2.203125 
Q 88.03125 0.78125 87.828125 0.390625 
Q 87.640625 0 86.71875 0 
L 60.59375 0 
Q 59.625 0 59.625 1.3125 
Q 59.671875 1.5625 59.8125 2.171875 
Q 59.96875 2.78125 60.234375 3.140625 
Q 60.5 3.515625 60.890625 3.515625 
Q 67 3.515625 69.390625 4.203125 
Q 70.703125 4.640625 71.296875 6.890625 
L 85.6875 64.796875 
L 45.3125 1.125 
Q 44.734375 0 43.3125 0 
Q 42.046875 0 41.890625 1.125 
L 33.40625 64.015625 
L 19.671875 9.1875 
Q 19.578125 8.9375 19.53125 8.5625 
Q 19.484375 8.203125 19.390625 7.71875 
Q 19.390625 5.125 21.65625 4.3125 
Q 23.921875 3.515625 27.203125 3.515625 
Q 28.21875 3.515625 28.21875 2.203125 
Q 27.875 0.875 27.65625 0.4375 
Q 27.4375 0 26.515625 0 
z
" id="Cmmi10-77"/>
      <path d="M 4.6875 0 
Q 3.71875 0 3.71875 1.3125 
Q 3.765625 1.5625 3.90625 2.171875 
Q 4.046875 2.78125 4.3125 3.140625 
Q 4.59375 3.515625 4.984375 3.515625 
Q 11.078125 3.515625 13.484375 4.203125 
Q 14.796875 4.640625 15.375 6.890625 
L 29.109375 61.8125 
Q 29.296875 62.796875 29.296875 63.1875 
Q 29.296875 64.265625 28.078125 64.40625 
Q 26.21875 64.796875 20.90625 64.796875 
Q 19.921875 64.796875 19.921875 66.109375 
Q 19.96875 66.359375 20.109375 66.96875 
Q 20.265625 67.578125 20.53125 67.9375 
Q 20.796875 68.3125 21.1875 68.3125 
L 74.03125 68.3125 
Q 75 68.3125 75 67 
L 72.609375 46.296875 
Q 72.609375 46 72.265625 45.703125 
Q 71.921875 45.40625 71.578125 45.40625 
L 70.703125 45.40625 
Q 69.671875 45.40625 69.671875 46.6875 
Q 70.3125 51.21875 70.3125 54.109375 
Q 70.3125 59.078125 68.15625 61.421875 
Q 66.015625 63.765625 62.734375 64.28125 
Q 59.46875 64.796875 53.71875 64.796875 
L 43.015625 64.796875 
Q 40.28125 64.796875 39.40625 64.328125 
Q 38.53125 63.875 37.796875 61.375 
L 31.390625 35.890625 
L 38.921875 35.890625 
Q 42.625 35.890625 44.921875 36.28125 
Q 47.21875 36.671875 48.734375 37.796875 
Q 50.25 38.921875 51.25 41.046875 
Q 52.25 43.171875 53.078125 46.6875 
Q 53.375 47.609375 54.109375 47.609375 
L 54.984375 47.609375 
Q 56 47.609375 56 46.296875 
L 49.90625 21.578125 
Q 49.46875 20.703125 48.875 20.703125 
L 48 20.703125 
Q 47.015625 20.703125 47.015625 22.015625 
Q 47.265625 23.046875 47.40625 23.734375 
Q 47.5625 24.421875 47.78125 25.703125 
Q 48 27 48 27.984375 
Q 48 30.859375 45.453125 31.640625 
Q 42.921875 32.421875 38.8125 32.421875 
L 30.609375 32.421875 
L 24.125 6.5 
Q 23.875 5.515625 23.875 5.515625 
Q 23.875 4.34375 24.609375 4.203125 
Q 27.203125 3.515625 34.8125 3.515625 
Q 35.796875 3.515625 35.796875 2.203125 
Q 35.453125 0.78125 35.25 0.390625 
Q 35.0625 0 34.078125 0 
z
" id="Cmmi10-70"/>
     </defs>
     <g transform="translate(19.3575 160.156)rotate(-90)scale(0.16 -0.16)">
      <use transform="translate(0 0.6875)" xlink:href="#Cmmi10-77"/>
      <use transform="translate(97.021484 0.6875)" xlink:href="#Cmmi10-70"/>
      <use transform="translate(161.328125 -16.31875)scale(0.7)" xlink:href="#Cmmi10-100"/>
     </g>
    </g>
   </g>
   <g id="patch_3">
    <path d="M 53.585 276.812 
L 53.585 10.7 
" style="fill:none;stroke:#000000;stroke-linecap:square;stroke-linejoin:miter;stroke-width:0.8;"/>
   </g>
   <g id="patch_4">
    <path d="M 410.705 276.812 
L 410.705 10.7 
" style="fill:none;stroke:#000000;stroke-linecap:square;stroke-linejoin:miter;stroke-width:0.8;"/>
   </g>
   <g id="patch_5">
    <path d="M 53.585 276.812 
L 410.705 276.812 
" style="fill:none;stroke:#000000;stroke-linecap:square;stroke-linejoin:miter;stroke-width:0.8;"/>
   </g>
   <g id="patch_6">
    <path d="M 53.585 10.7 
L 410.705 10.7 
" style="fill:none;stroke:#000000;stroke-linecap:square;stroke-linejoin:miter;stroke-width:0.8;"/>
   </g>
  </g>
 </g>
 <defs>
  <clipPath id="p02b88f450d">
   <rect height="266.112" width="357.12" x="53.585" y="10.7"/>
  </clipPath>
 </defs>
</svg>
